G04 #@! TF.GenerationSoftware,KiCad,Pcbnew,(5.1.5-0-10_14)*
G04 #@! TF.CreationDate,2020-10-04T23:04:19+02:00*
G04 #@! TF.ProjectId,wifi-modem,77696669-2d6d-46f6-9465-6d2e6b696361,rev?*
G04 #@! TF.SameCoordinates,Original*
G04 #@! TF.FileFunction,Soldermask,Top*
G04 #@! TF.FilePolarity,Negative*
%FSLAX46Y46*%
G04 Gerber Fmt 4.6, Leading zero omitted, Abs format (unit mm)*
G04 Created by KiCad (PCBNEW (5.1.5-0-10_14)) date 2020-10-04 23:04:19*
%MOMM*%
%LPD*%
G04 APERTURE LIST*
%ADD10C,0.100000*%
G04 APERTURE END LIST*
D10*
G36*
X175992549Y-137301116D02*
G01*
X176103734Y-137323232D01*
X176313203Y-137409997D01*
X176501720Y-137535960D01*
X176662040Y-137696280D01*
X176788003Y-137884797D01*
X176874768Y-138094266D01*
X176919000Y-138316636D01*
X176919000Y-138543364D01*
X176874768Y-138765734D01*
X176788003Y-138975203D01*
X176662040Y-139163720D01*
X176501720Y-139324040D01*
X176313203Y-139450003D01*
X176103734Y-139536768D01*
X175992549Y-139558884D01*
X175881365Y-139581000D01*
X175654635Y-139581000D01*
X175543451Y-139558884D01*
X175432266Y-139536768D01*
X175222797Y-139450003D01*
X175034280Y-139324040D01*
X174873960Y-139163720D01*
X174747997Y-138975203D01*
X174661232Y-138765734D01*
X174617000Y-138543364D01*
X174617000Y-138316636D01*
X174661232Y-138094266D01*
X174747997Y-137884797D01*
X174873960Y-137696280D01*
X175034280Y-137535960D01*
X175222797Y-137409997D01*
X175432266Y-137323232D01*
X175543451Y-137301116D01*
X175654635Y-137279000D01*
X175881365Y-137279000D01*
X175992549Y-137301116D01*
G37*
G36*
X118969549Y-137301116D02*
G01*
X119080734Y-137323232D01*
X119290203Y-137409997D01*
X119478720Y-137535960D01*
X119639040Y-137696280D01*
X119765003Y-137884797D01*
X119851768Y-138094266D01*
X119896000Y-138316636D01*
X119896000Y-138543364D01*
X119851768Y-138765734D01*
X119765003Y-138975203D01*
X119639040Y-139163720D01*
X119478720Y-139324040D01*
X119290203Y-139450003D01*
X119080734Y-139536768D01*
X118969549Y-139558884D01*
X118858365Y-139581000D01*
X118631635Y-139581000D01*
X118520451Y-139558884D01*
X118409266Y-139536768D01*
X118199797Y-139450003D01*
X118011280Y-139324040D01*
X117850960Y-139163720D01*
X117724997Y-138975203D01*
X117638232Y-138765734D01*
X117594000Y-138543364D01*
X117594000Y-138316636D01*
X117638232Y-138094266D01*
X117724997Y-137884797D01*
X117850960Y-137696280D01*
X118011280Y-137535960D01*
X118199797Y-137409997D01*
X118409266Y-137323232D01*
X118520451Y-137301116D01*
X118631635Y-137279000D01*
X118858365Y-137279000D01*
X118969549Y-137301116D01*
G37*
G36*
X164694000Y-134650000D02*
G01*
X163042000Y-134650000D01*
X163042000Y-133248000D01*
X164694000Y-133248000D01*
X164694000Y-134650000D01*
G37*
G36*
X156744000Y-134650000D02*
G01*
X155092000Y-134650000D01*
X155092000Y-133248000D01*
X156744000Y-133248000D01*
X156744000Y-134650000D01*
G37*
G36*
X149327000Y-134650000D02*
G01*
X147675000Y-134650000D01*
X147675000Y-133248000D01*
X149327000Y-133248000D01*
X149327000Y-134650000D01*
G37*
G36*
X141377000Y-134650000D02*
G01*
X139725000Y-134650000D01*
X139725000Y-133248000D01*
X141377000Y-133248000D01*
X141377000Y-134650000D01*
G37*
G36*
X177835515Y-132417058D02*
G01*
X177931553Y-132446191D01*
X177946735Y-132450796D01*
X177953522Y-132452855D01*
X178062268Y-132510981D01*
X178157590Y-132589210D01*
X178235819Y-132684532D01*
X178293945Y-132793278D01*
X178329742Y-132911285D01*
X178341828Y-133034000D01*
X178329742Y-133156715D01*
X178293945Y-133274722D01*
X178235819Y-133383468D01*
X178157590Y-133478790D01*
X178062268Y-133557019D01*
X177953522Y-133615145D01*
X177835515Y-133650942D01*
X177743546Y-133660000D01*
X177032054Y-133660000D01*
X176940085Y-133650942D01*
X176822078Y-133615145D01*
X176713332Y-133557019D01*
X176618010Y-133478790D01*
X176539781Y-133383468D01*
X176481655Y-133274722D01*
X176445858Y-133156715D01*
X176433772Y-133034000D01*
X176445858Y-132911285D01*
X176481655Y-132793278D01*
X176539781Y-132684532D01*
X176618010Y-132589210D01*
X176713332Y-132510981D01*
X176822078Y-132452855D01*
X176828866Y-132450796D01*
X176844047Y-132446191D01*
X176940085Y-132417058D01*
X177032054Y-132408000D01*
X177743546Y-132408000D01*
X177835515Y-132417058D01*
G37*
G36*
X174769352Y-131225331D02*
G01*
X174851427Y-131259328D01*
X174851429Y-131259329D01*
X174888613Y-131284175D01*
X174925295Y-131308685D01*
X174988115Y-131371505D01*
X175037472Y-131445373D01*
X175071469Y-131527448D01*
X175088800Y-131614579D01*
X175088800Y-131703421D01*
X175071469Y-131790552D01*
X175037953Y-131871466D01*
X175037471Y-131872629D01*
X174988114Y-131946496D01*
X174925296Y-132009314D01*
X174851429Y-132058671D01*
X174851428Y-132058672D01*
X174851427Y-132058672D01*
X174769352Y-132092669D01*
X174682221Y-132110000D01*
X174593379Y-132110000D01*
X174503854Y-132092193D01*
X174485057Y-132086490D01*
X174460671Y-132084088D01*
X174436285Y-132086489D01*
X174412836Y-132093602D01*
X174391225Y-132105153D01*
X174372283Y-132120698D01*
X174356737Y-132139639D01*
X174345186Y-132161250D01*
X174338072Y-132184699D01*
X174335670Y-132209085D01*
X174338071Y-132233471D01*
X174345184Y-132256920D01*
X174356735Y-132278531D01*
X174372280Y-132297473D01*
X174381370Y-132305712D01*
X174414167Y-132332628D01*
X174511145Y-132450796D01*
X174583198Y-132585598D01*
X174627572Y-132731879D01*
X174642554Y-132884000D01*
X174627572Y-133036121D01*
X174583198Y-133182402D01*
X174511145Y-133317204D01*
X174511143Y-133317207D01*
X174511142Y-133317208D01*
X174414169Y-133435369D01*
X174332428Y-133502453D01*
X174296004Y-133532345D01*
X174161202Y-133604398D01*
X174014921Y-133648772D01*
X173900918Y-133660000D01*
X173274682Y-133660000D01*
X173160679Y-133648772D01*
X173014398Y-133604398D01*
X172879596Y-133532345D01*
X172843173Y-133502453D01*
X172761431Y-133435369D01*
X172664458Y-133317208D01*
X172664457Y-133317207D01*
X172664455Y-133317204D01*
X172592402Y-133182402D01*
X172548028Y-133036121D01*
X172533046Y-132884000D01*
X172548028Y-132731879D01*
X172592402Y-132585598D01*
X172664455Y-132450796D01*
X172761431Y-132332631D01*
X172827352Y-132278531D01*
X172879592Y-132235658D01*
X172879593Y-132235657D01*
X172879596Y-132235655D01*
X173014398Y-132163602D01*
X173160679Y-132119228D01*
X173274682Y-132108000D01*
X173900918Y-132108000D01*
X174014921Y-132119228D01*
X174167136Y-132165402D01*
X174178361Y-132170052D01*
X174202395Y-132174833D01*
X174226899Y-132174833D01*
X174250932Y-132170054D01*
X174273571Y-132160677D01*
X174293946Y-132147064D01*
X174311273Y-132129737D01*
X174324888Y-132109363D01*
X174334266Y-132086725D01*
X174339047Y-132062691D01*
X174339047Y-132038187D01*
X174334268Y-132014154D01*
X174324891Y-131991515D01*
X174311278Y-131971140D01*
X174303038Y-131962048D01*
X174287485Y-131946495D01*
X174238128Y-131872627D01*
X174204131Y-131790552D01*
X174186800Y-131703421D01*
X174186800Y-131614579D01*
X174204131Y-131527448D01*
X174238128Y-131445373D01*
X174287485Y-131371505D01*
X174350305Y-131308685D01*
X174386987Y-131284175D01*
X174424171Y-131259329D01*
X174424173Y-131259328D01*
X174506248Y-131225331D01*
X174593379Y-131208000D01*
X174682221Y-131208000D01*
X174769352Y-131225331D01*
G37*
G36*
X121816395Y-131673546D02*
G01*
X121989466Y-131745234D01*
X121989467Y-131745235D01*
X122145227Y-131849310D01*
X122277690Y-131981773D01*
X122277691Y-131981775D01*
X122381766Y-132137534D01*
X122453454Y-132310605D01*
X122490000Y-132494333D01*
X122490000Y-132681667D01*
X122453454Y-132865395D01*
X122381766Y-133038466D01*
X122381765Y-133038467D01*
X122277690Y-133194227D01*
X122145227Y-133326690D01*
X122066818Y-133379081D01*
X121989466Y-133430766D01*
X121816395Y-133502454D01*
X121632667Y-133539000D01*
X121445333Y-133539000D01*
X121261605Y-133502454D01*
X121088534Y-133430766D01*
X121011182Y-133379081D01*
X120932773Y-133326690D01*
X120800310Y-133194227D01*
X120696235Y-133038467D01*
X120696234Y-133038466D01*
X120624546Y-132865395D01*
X120588000Y-132681667D01*
X120588000Y-132494333D01*
X120624546Y-132310605D01*
X120696234Y-132137534D01*
X120800309Y-131981775D01*
X120800310Y-131981773D01*
X120932773Y-131849310D01*
X121088533Y-131745235D01*
X121088534Y-131745234D01*
X121261605Y-131673546D01*
X121445333Y-131637000D01*
X121632667Y-131637000D01*
X121816395Y-131673546D01*
G37*
G36*
X119950000Y-133539000D02*
G01*
X118048000Y-133539000D01*
X118048000Y-131637000D01*
X119950000Y-131637000D01*
X119950000Y-133539000D01*
G37*
G36*
X128488674Y-131841465D02*
G01*
X128526367Y-131852899D01*
X128561103Y-131871466D01*
X128591548Y-131896452D01*
X128616534Y-131926897D01*
X128635101Y-131961633D01*
X128646535Y-131999326D01*
X128651000Y-132044661D01*
X128651000Y-133131339D01*
X128646535Y-133176674D01*
X128635101Y-133214367D01*
X128616534Y-133249103D01*
X128591548Y-133279548D01*
X128561103Y-133304534D01*
X128526367Y-133323101D01*
X128488674Y-133334535D01*
X128443339Y-133339000D01*
X127606661Y-133339000D01*
X127561326Y-133334535D01*
X127523633Y-133323101D01*
X127488897Y-133304534D01*
X127458452Y-133279548D01*
X127433466Y-133249103D01*
X127414899Y-133214367D01*
X127403465Y-133176674D01*
X127399000Y-133131339D01*
X127399000Y-132044661D01*
X127403465Y-131999326D01*
X127414899Y-131961633D01*
X127433466Y-131926897D01*
X127458452Y-131896452D01*
X127488897Y-131871466D01*
X127523633Y-131852899D01*
X127561326Y-131841465D01*
X127606661Y-131837000D01*
X128443339Y-131837000D01*
X128488674Y-131841465D01*
G37*
G36*
X126438674Y-131841465D02*
G01*
X126476367Y-131852899D01*
X126511103Y-131871466D01*
X126541548Y-131896452D01*
X126566534Y-131926897D01*
X126585101Y-131961633D01*
X126596535Y-131999326D01*
X126601000Y-132044661D01*
X126601000Y-133131339D01*
X126596535Y-133176674D01*
X126585101Y-133214367D01*
X126566534Y-133249103D01*
X126541548Y-133279548D01*
X126511103Y-133304534D01*
X126476367Y-133323101D01*
X126438674Y-133334535D01*
X126393339Y-133339000D01*
X125556661Y-133339000D01*
X125511326Y-133334535D01*
X125473633Y-133323101D01*
X125438897Y-133304534D01*
X125408452Y-133279548D01*
X125383466Y-133249103D01*
X125364899Y-133214367D01*
X125353465Y-133176674D01*
X125349000Y-133131339D01*
X125349000Y-132044661D01*
X125353465Y-131999326D01*
X125364899Y-131961633D01*
X125383466Y-131926897D01*
X125408452Y-131896452D01*
X125438897Y-131871466D01*
X125473633Y-131852899D01*
X125511326Y-131841465D01*
X125556661Y-131837000D01*
X126393339Y-131837000D01*
X126438674Y-131841465D01*
G37*
G36*
X174238800Y-130735000D02*
G01*
X172836800Y-130735000D01*
X172836800Y-127583000D01*
X174238800Y-127583000D01*
X174238800Y-130735000D01*
G37*
G36*
X141377000Y-130150000D02*
G01*
X139725000Y-130150000D01*
X139725000Y-128748000D01*
X141377000Y-128748000D01*
X141377000Y-130150000D01*
G37*
G36*
X164694000Y-130150000D02*
G01*
X163042000Y-130150000D01*
X163042000Y-128748000D01*
X164694000Y-128748000D01*
X164694000Y-130150000D01*
G37*
G36*
X156744000Y-130150000D02*
G01*
X155092000Y-130150000D01*
X155092000Y-128748000D01*
X156744000Y-128748000D01*
X156744000Y-130150000D01*
G37*
G36*
X149327000Y-130150000D02*
G01*
X147675000Y-130150000D01*
X147675000Y-128748000D01*
X149327000Y-128748000D01*
X149327000Y-130150000D01*
G37*
G36*
X174014921Y-124669228D02*
G01*
X174161202Y-124713602D01*
X174296004Y-124785655D01*
X174296007Y-124785657D01*
X174296008Y-124785658D01*
X174414169Y-124882631D01*
X174456763Y-124934531D01*
X174511145Y-125000796D01*
X174583198Y-125135598D01*
X174627572Y-125281879D01*
X174642554Y-125434000D01*
X174627572Y-125586121D01*
X174583198Y-125732402D01*
X174511145Y-125867204D01*
X174511143Y-125867207D01*
X174511142Y-125867208D01*
X174490517Y-125892339D01*
X174414167Y-125985372D01*
X174381370Y-126012288D01*
X174364043Y-126029615D01*
X174350430Y-126049989D01*
X174341052Y-126072628D01*
X174336272Y-126096661D01*
X174336272Y-126121165D01*
X174341052Y-126145199D01*
X174350430Y-126167837D01*
X174364044Y-126188212D01*
X174381371Y-126205539D01*
X174401745Y-126219152D01*
X174424384Y-126228530D01*
X174448417Y-126233310D01*
X174472921Y-126233310D01*
X174496955Y-126228530D01*
X174505449Y-126225490D01*
X174593379Y-126208000D01*
X174682221Y-126208000D01*
X174769352Y-126225331D01*
X174851427Y-126259328D01*
X174851429Y-126259329D01*
X174857601Y-126263453D01*
X174925295Y-126308685D01*
X174988115Y-126371505D01*
X175037472Y-126445373D01*
X175071469Y-126527448D01*
X175088800Y-126614579D01*
X175088800Y-126703421D01*
X175071469Y-126790552D01*
X175037472Y-126872627D01*
X175037471Y-126872629D01*
X174988114Y-126946496D01*
X174925296Y-127009314D01*
X174851429Y-127058671D01*
X174851428Y-127058672D01*
X174851427Y-127058672D01*
X174769352Y-127092669D01*
X174682221Y-127110000D01*
X174593379Y-127110000D01*
X174506248Y-127092669D01*
X174424173Y-127058672D01*
X174424172Y-127058672D01*
X174424171Y-127058671D01*
X174350304Y-127009314D01*
X174287486Y-126946496D01*
X174238129Y-126872629D01*
X174238128Y-126872627D01*
X174204131Y-126790552D01*
X174186800Y-126703421D01*
X174186800Y-126614579D01*
X174204131Y-126527448D01*
X174238128Y-126445373D01*
X174287485Y-126371505D01*
X174303038Y-126355952D01*
X174318583Y-126337010D01*
X174330134Y-126315399D01*
X174337247Y-126291950D01*
X174339649Y-126267564D01*
X174337247Y-126243178D01*
X174330134Y-126219729D01*
X174318583Y-126198118D01*
X174303038Y-126179176D01*
X174284096Y-126163631D01*
X174262485Y-126152080D01*
X174239036Y-126144967D01*
X174214650Y-126142565D01*
X174190264Y-126144967D01*
X174166815Y-126152080D01*
X174163186Y-126153796D01*
X174161200Y-126154398D01*
X174161199Y-126154399D01*
X174130765Y-126163631D01*
X174014921Y-126198772D01*
X173900918Y-126210000D01*
X173274682Y-126210000D01*
X173160679Y-126198772D01*
X173014398Y-126154398D01*
X172879596Y-126082345D01*
X172875864Y-126079282D01*
X172761431Y-125985369D01*
X172664458Y-125867208D01*
X172664457Y-125867207D01*
X172664455Y-125867204D01*
X172592402Y-125732402D01*
X172548028Y-125586121D01*
X172533046Y-125434000D01*
X172548028Y-125281879D01*
X172592402Y-125135598D01*
X172664455Y-125000796D01*
X172718838Y-124934531D01*
X172761431Y-124882631D01*
X172879592Y-124785658D01*
X172879593Y-124785657D01*
X172879596Y-124785655D01*
X173014398Y-124713602D01*
X173160679Y-124669228D01*
X173274682Y-124658000D01*
X173900918Y-124658000D01*
X174014921Y-124669228D01*
G37*
G36*
X121816395Y-124434546D02*
G01*
X121989466Y-124506234D01*
X121989467Y-124506235D01*
X122145227Y-124610310D01*
X122277690Y-124742773D01*
X122277691Y-124742775D01*
X122381766Y-124898534D01*
X122453454Y-125071605D01*
X122490000Y-125255333D01*
X122490000Y-125442667D01*
X122453454Y-125626395D01*
X122381766Y-125799466D01*
X122381765Y-125799467D01*
X122277690Y-125955227D01*
X122145227Y-126087690D01*
X122095128Y-126121165D01*
X121989466Y-126191766D01*
X121816395Y-126263454D01*
X121632667Y-126300000D01*
X121445333Y-126300000D01*
X121261605Y-126263454D01*
X121088534Y-126191766D01*
X120982872Y-126121165D01*
X120932773Y-126087690D01*
X120800310Y-125955227D01*
X120696235Y-125799467D01*
X120696234Y-125799466D01*
X120624546Y-125626395D01*
X120588000Y-125442667D01*
X120588000Y-125255333D01*
X120624546Y-125071605D01*
X120696234Y-124898534D01*
X120800309Y-124742775D01*
X120800310Y-124742773D01*
X120932773Y-124610310D01*
X121088533Y-124506235D01*
X121088534Y-124506234D01*
X121261605Y-124434546D01*
X121445333Y-124398000D01*
X121632667Y-124398000D01*
X121816395Y-124434546D01*
G37*
G36*
X119950000Y-126300000D02*
G01*
X118048000Y-126300000D01*
X118048000Y-124398000D01*
X119950000Y-124398000D01*
X119950000Y-126300000D01*
G37*
G36*
X126311674Y-124602465D02*
G01*
X126349367Y-124613899D01*
X126384103Y-124632466D01*
X126414548Y-124657452D01*
X126439534Y-124687897D01*
X126458101Y-124722633D01*
X126469535Y-124760326D01*
X126474000Y-124805661D01*
X126474000Y-125892339D01*
X126469535Y-125937674D01*
X126458101Y-125975367D01*
X126439534Y-126010103D01*
X126414548Y-126040548D01*
X126384103Y-126065534D01*
X126349367Y-126084101D01*
X126311674Y-126095535D01*
X126266339Y-126100000D01*
X125429661Y-126100000D01*
X125384326Y-126095535D01*
X125346633Y-126084101D01*
X125311897Y-126065534D01*
X125281452Y-126040548D01*
X125256466Y-126010103D01*
X125237899Y-125975367D01*
X125226465Y-125937674D01*
X125222000Y-125892339D01*
X125222000Y-124805661D01*
X125226465Y-124760326D01*
X125237899Y-124722633D01*
X125256466Y-124687897D01*
X125281452Y-124657452D01*
X125311897Y-124632466D01*
X125346633Y-124613899D01*
X125384326Y-124602465D01*
X125429661Y-124598000D01*
X126266339Y-124598000D01*
X126311674Y-124602465D01*
G37*
G36*
X128361674Y-124602465D02*
G01*
X128399367Y-124613899D01*
X128434103Y-124632466D01*
X128464548Y-124657452D01*
X128489534Y-124687897D01*
X128508101Y-124722633D01*
X128519535Y-124760326D01*
X128524000Y-124805661D01*
X128524000Y-125892339D01*
X128519535Y-125937674D01*
X128508101Y-125975367D01*
X128489534Y-126010103D01*
X128464548Y-126040548D01*
X128434103Y-126065534D01*
X128399367Y-126084101D01*
X128361674Y-126095535D01*
X128316339Y-126100000D01*
X127479661Y-126100000D01*
X127434326Y-126095535D01*
X127396633Y-126084101D01*
X127361897Y-126065534D01*
X127331452Y-126040548D01*
X127306466Y-126010103D01*
X127287899Y-125975367D01*
X127276465Y-125937674D01*
X127272000Y-125892339D01*
X127272000Y-124805661D01*
X127276465Y-124760326D01*
X127287899Y-124722633D01*
X127306466Y-124687897D01*
X127331452Y-124657452D01*
X127361897Y-124632466D01*
X127396633Y-124613899D01*
X127434326Y-124602465D01*
X127479661Y-124598000D01*
X128316339Y-124598000D01*
X128361674Y-124602465D01*
G37*
G36*
X177835515Y-124667058D02*
G01*
X177953522Y-124702855D01*
X178062268Y-124760981D01*
X178157590Y-124839210D01*
X178235819Y-124934532D01*
X178293945Y-125043278D01*
X178329742Y-125161285D01*
X178341828Y-125284000D01*
X178329742Y-125406715D01*
X178293945Y-125524722D01*
X178235819Y-125633468D01*
X178157590Y-125728790D01*
X178062268Y-125807019D01*
X177953522Y-125865145D01*
X177953519Y-125865146D01*
X177946721Y-125867208D01*
X177835515Y-125900942D01*
X177743546Y-125910000D01*
X177032054Y-125910000D01*
X176940085Y-125900942D01*
X176828879Y-125867208D01*
X176822081Y-125865146D01*
X176822078Y-125865145D01*
X176713332Y-125807019D01*
X176618010Y-125728790D01*
X176539781Y-125633468D01*
X176481655Y-125524722D01*
X176445858Y-125406715D01*
X176433772Y-125284000D01*
X176445858Y-125161285D01*
X176481655Y-125043278D01*
X176539781Y-124934532D01*
X176618010Y-124839210D01*
X176713332Y-124760981D01*
X176822078Y-124702855D01*
X176940085Y-124667058D01*
X177032054Y-124658000D01*
X177743546Y-124658000D01*
X177835515Y-124667058D01*
G37*
G36*
X121816395Y-117322546D02*
G01*
X121989466Y-117394234D01*
X121989467Y-117394235D01*
X122145227Y-117498310D01*
X122277690Y-117630773D01*
X122277691Y-117630775D01*
X122381766Y-117786534D01*
X122453454Y-117959605D01*
X122490000Y-118143333D01*
X122490000Y-118330667D01*
X122453454Y-118514395D01*
X122381766Y-118687466D01*
X122381765Y-118687467D01*
X122277690Y-118843227D01*
X122145227Y-118975690D01*
X122066818Y-119028081D01*
X121989466Y-119079766D01*
X121816395Y-119151454D01*
X121632667Y-119188000D01*
X121445333Y-119188000D01*
X121261605Y-119151454D01*
X121088534Y-119079766D01*
X121011182Y-119028081D01*
X120932773Y-118975690D01*
X120800310Y-118843227D01*
X120696235Y-118687467D01*
X120696234Y-118687466D01*
X120624546Y-118514395D01*
X120588000Y-118330667D01*
X120588000Y-118143333D01*
X120624546Y-117959605D01*
X120696234Y-117786534D01*
X120800309Y-117630775D01*
X120800310Y-117630773D01*
X120932773Y-117498310D01*
X121088533Y-117394235D01*
X121088534Y-117394234D01*
X121261605Y-117322546D01*
X121445333Y-117286000D01*
X121632667Y-117286000D01*
X121816395Y-117322546D01*
G37*
G36*
X119950000Y-119188000D02*
G01*
X118048000Y-119188000D01*
X118048000Y-117286000D01*
X119950000Y-117286000D01*
X119950000Y-119188000D01*
G37*
G36*
X126184674Y-117490465D02*
G01*
X126222367Y-117501899D01*
X126257103Y-117520466D01*
X126287548Y-117545452D01*
X126312534Y-117575897D01*
X126331101Y-117610633D01*
X126342535Y-117648326D01*
X126347000Y-117693661D01*
X126347000Y-118780339D01*
X126342535Y-118825674D01*
X126331101Y-118863367D01*
X126312534Y-118898103D01*
X126287548Y-118928548D01*
X126257103Y-118953534D01*
X126222367Y-118972101D01*
X126184674Y-118983535D01*
X126139339Y-118988000D01*
X125302661Y-118988000D01*
X125257326Y-118983535D01*
X125219633Y-118972101D01*
X125184897Y-118953534D01*
X125154452Y-118928548D01*
X125129466Y-118898103D01*
X125110899Y-118863367D01*
X125099465Y-118825674D01*
X125095000Y-118780339D01*
X125095000Y-117693661D01*
X125099465Y-117648326D01*
X125110899Y-117610633D01*
X125129466Y-117575897D01*
X125154452Y-117545452D01*
X125184897Y-117520466D01*
X125219633Y-117501899D01*
X125257326Y-117490465D01*
X125302661Y-117486000D01*
X126139339Y-117486000D01*
X126184674Y-117490465D01*
G37*
G36*
X128234674Y-117490465D02*
G01*
X128272367Y-117501899D01*
X128307103Y-117520466D01*
X128337548Y-117545452D01*
X128362534Y-117575897D01*
X128381101Y-117610633D01*
X128392535Y-117648326D01*
X128397000Y-117693661D01*
X128397000Y-118780339D01*
X128392535Y-118825674D01*
X128381101Y-118863367D01*
X128362534Y-118898103D01*
X128337548Y-118928548D01*
X128307103Y-118953534D01*
X128272367Y-118972101D01*
X128234674Y-118983535D01*
X128189339Y-118988000D01*
X127352661Y-118988000D01*
X127307326Y-118983535D01*
X127269633Y-118972101D01*
X127234897Y-118953534D01*
X127204452Y-118928548D01*
X127179466Y-118898103D01*
X127160899Y-118863367D01*
X127149465Y-118825674D01*
X127145000Y-118780339D01*
X127145000Y-117693661D01*
X127149465Y-117648326D01*
X127160899Y-117610633D01*
X127179466Y-117575897D01*
X127204452Y-117545452D01*
X127234897Y-117520466D01*
X127269633Y-117501899D01*
X127307326Y-117490465D01*
X127352661Y-117486000D01*
X128189339Y-117486000D01*
X128234674Y-117490465D01*
G37*
G36*
X170674254Y-114778818D02*
G01*
X171047511Y-114933426D01*
X171047513Y-114933427D01*
X171383436Y-115157884D01*
X171669116Y-115443564D01*
X171883882Y-115764983D01*
X171893574Y-115779489D01*
X172048182Y-116152746D01*
X172127000Y-116548993D01*
X172127000Y-116953007D01*
X172048182Y-117349254D01*
X171893574Y-117722511D01*
X171893573Y-117722513D01*
X171669116Y-118058436D01*
X171383436Y-118344116D01*
X171047513Y-118568573D01*
X171047512Y-118568574D01*
X171047511Y-118568574D01*
X170674254Y-118723182D01*
X170278007Y-118802000D01*
X169873993Y-118802000D01*
X169477746Y-118723182D01*
X169104489Y-118568574D01*
X169104488Y-118568574D01*
X169104487Y-118568573D01*
X168768564Y-118344116D01*
X168482884Y-118058436D01*
X168258427Y-117722513D01*
X168258426Y-117722511D01*
X168103818Y-117349254D01*
X168025000Y-116953007D01*
X168025000Y-116548993D01*
X168103818Y-116152746D01*
X168258426Y-115779489D01*
X168268119Y-115764983D01*
X168482884Y-115443564D01*
X168768564Y-115157884D01*
X169104487Y-114933427D01*
X169104489Y-114933426D01*
X169477746Y-114778818D01*
X169873993Y-114700000D01*
X170278007Y-114700000D01*
X170674254Y-114778818D01*
G37*
G36*
X154485000Y-118628000D02*
G01*
X152883000Y-118628000D01*
X152883000Y-116526000D01*
X154485000Y-116526000D01*
X154485000Y-118628000D01*
G37*
G36*
X152185000Y-118628000D02*
G01*
X150583000Y-118628000D01*
X150583000Y-116526000D01*
X152185000Y-116526000D01*
X152185000Y-118628000D01*
G37*
G36*
X149885000Y-118628000D02*
G01*
X148283000Y-118628000D01*
X148283000Y-116526000D01*
X149885000Y-116526000D01*
X149885000Y-118628000D01*
G37*
G36*
X144225674Y-116735465D02*
G01*
X144263367Y-116746899D01*
X144298103Y-116765466D01*
X144328548Y-116790452D01*
X144353534Y-116820897D01*
X144372101Y-116855633D01*
X144383535Y-116893326D01*
X144388000Y-116938661D01*
X144388000Y-117775339D01*
X144383535Y-117820674D01*
X144372101Y-117858367D01*
X144353534Y-117893103D01*
X144328548Y-117923548D01*
X144298103Y-117948534D01*
X144263367Y-117967101D01*
X144225674Y-117978535D01*
X144180339Y-117983000D01*
X143093661Y-117983000D01*
X143048326Y-117978535D01*
X143010633Y-117967101D01*
X142975897Y-117948534D01*
X142945452Y-117923548D01*
X142920466Y-117893103D01*
X142901899Y-117858367D01*
X142890465Y-117820674D01*
X142886000Y-117775339D01*
X142886000Y-116938661D01*
X142890465Y-116893326D01*
X142901899Y-116855633D01*
X142920466Y-116820897D01*
X142945452Y-116790452D01*
X142975897Y-116765466D01*
X143010633Y-116746899D01*
X143048326Y-116735465D01*
X143093661Y-116731000D01*
X144180339Y-116731000D01*
X144225674Y-116735465D01*
G37*
G36*
X139399674Y-116735465D02*
G01*
X139437367Y-116746899D01*
X139472103Y-116765466D01*
X139502548Y-116790452D01*
X139527534Y-116820897D01*
X139546101Y-116855633D01*
X139557535Y-116893326D01*
X139562000Y-116938661D01*
X139562000Y-117775339D01*
X139557535Y-117820674D01*
X139546101Y-117858367D01*
X139527534Y-117893103D01*
X139502548Y-117923548D01*
X139472103Y-117948534D01*
X139437367Y-117967101D01*
X139399674Y-117978535D01*
X139354339Y-117983000D01*
X138267661Y-117983000D01*
X138222326Y-117978535D01*
X138184633Y-117967101D01*
X138149897Y-117948534D01*
X138119452Y-117923548D01*
X138094466Y-117893103D01*
X138075899Y-117858367D01*
X138064465Y-117820674D01*
X138060000Y-117775339D01*
X138060000Y-116938661D01*
X138064465Y-116893326D01*
X138075899Y-116855633D01*
X138094466Y-116820897D01*
X138119452Y-116790452D01*
X138149897Y-116765466D01*
X138184633Y-116746899D01*
X138222326Y-116735465D01*
X138267661Y-116731000D01*
X139354339Y-116731000D01*
X139399674Y-116735465D01*
G37*
G36*
X163529674Y-116735465D02*
G01*
X163567367Y-116746899D01*
X163602103Y-116765466D01*
X163632548Y-116790452D01*
X163657534Y-116820897D01*
X163676101Y-116855633D01*
X163687535Y-116893326D01*
X163692000Y-116938661D01*
X163692000Y-117775339D01*
X163687535Y-117820674D01*
X163676101Y-117858367D01*
X163657534Y-117893103D01*
X163632548Y-117923548D01*
X163602103Y-117948534D01*
X163567367Y-117967101D01*
X163529674Y-117978535D01*
X163484339Y-117983000D01*
X162397661Y-117983000D01*
X162352326Y-117978535D01*
X162314633Y-117967101D01*
X162279897Y-117948534D01*
X162249452Y-117923548D01*
X162224466Y-117893103D01*
X162205899Y-117858367D01*
X162194465Y-117820674D01*
X162190000Y-117775339D01*
X162190000Y-116938661D01*
X162194465Y-116893326D01*
X162205899Y-116855633D01*
X162224466Y-116820897D01*
X162249452Y-116790452D01*
X162279897Y-116765466D01*
X162314633Y-116746899D01*
X162352326Y-116735465D01*
X162397661Y-116731000D01*
X163484339Y-116731000D01*
X163529674Y-116735465D01*
G37*
G36*
X158576674Y-116726465D02*
G01*
X158614367Y-116737899D01*
X158649103Y-116756466D01*
X158679548Y-116781452D01*
X158704534Y-116811897D01*
X158723101Y-116846633D01*
X158734535Y-116884326D01*
X158739000Y-116929661D01*
X158739000Y-117766339D01*
X158734535Y-117811674D01*
X158723101Y-117849367D01*
X158704534Y-117884103D01*
X158679548Y-117914548D01*
X158649103Y-117939534D01*
X158614367Y-117958101D01*
X158576674Y-117969535D01*
X158531339Y-117974000D01*
X157444661Y-117974000D01*
X157399326Y-117969535D01*
X157361633Y-117958101D01*
X157326897Y-117939534D01*
X157296452Y-117914548D01*
X157271466Y-117884103D01*
X157252899Y-117849367D01*
X157241465Y-117811674D01*
X157237000Y-117766339D01*
X157237000Y-116929661D01*
X157241465Y-116884326D01*
X157252899Y-116846633D01*
X157271466Y-116811897D01*
X157296452Y-116781452D01*
X157326897Y-116756466D01*
X157361633Y-116737899D01*
X157399326Y-116726465D01*
X157444661Y-116722000D01*
X158531339Y-116722000D01*
X158576674Y-116726465D01*
G37*
G36*
X144225674Y-114685465D02*
G01*
X144263367Y-114696899D01*
X144298103Y-114715466D01*
X144328548Y-114740452D01*
X144353534Y-114770897D01*
X144372101Y-114805633D01*
X144383535Y-114843326D01*
X144388000Y-114888661D01*
X144388000Y-115725339D01*
X144383535Y-115770674D01*
X144372101Y-115808367D01*
X144353534Y-115843103D01*
X144328548Y-115873548D01*
X144298103Y-115898534D01*
X144263367Y-115917101D01*
X144225674Y-115928535D01*
X144180339Y-115933000D01*
X143093661Y-115933000D01*
X143048326Y-115928535D01*
X143010633Y-115917101D01*
X142975897Y-115898534D01*
X142945452Y-115873548D01*
X142920466Y-115843103D01*
X142901899Y-115808367D01*
X142890465Y-115770674D01*
X142886000Y-115725339D01*
X142886000Y-114888661D01*
X142890465Y-114843326D01*
X142901899Y-114805633D01*
X142920466Y-114770897D01*
X142945452Y-114740452D01*
X142975897Y-114715466D01*
X143010633Y-114696899D01*
X143048326Y-114685465D01*
X143093661Y-114681000D01*
X144180339Y-114681000D01*
X144225674Y-114685465D01*
G37*
G36*
X139399674Y-114685465D02*
G01*
X139437367Y-114696899D01*
X139472103Y-114715466D01*
X139502548Y-114740452D01*
X139527534Y-114770897D01*
X139546101Y-114805633D01*
X139557535Y-114843326D01*
X139562000Y-114888661D01*
X139562000Y-115725339D01*
X139557535Y-115770674D01*
X139546101Y-115808367D01*
X139527534Y-115843103D01*
X139502548Y-115873548D01*
X139472103Y-115898534D01*
X139437367Y-115917101D01*
X139399674Y-115928535D01*
X139354339Y-115933000D01*
X138267661Y-115933000D01*
X138222326Y-115928535D01*
X138184633Y-115917101D01*
X138149897Y-115898534D01*
X138119452Y-115873548D01*
X138094466Y-115843103D01*
X138075899Y-115808367D01*
X138064465Y-115770674D01*
X138060000Y-115725339D01*
X138060000Y-114888661D01*
X138064465Y-114843326D01*
X138075899Y-114805633D01*
X138094466Y-114770897D01*
X138119452Y-114740452D01*
X138149897Y-114715466D01*
X138184633Y-114696899D01*
X138222326Y-114685465D01*
X138267661Y-114681000D01*
X139354339Y-114681000D01*
X139399674Y-114685465D01*
G37*
G36*
X163529674Y-114685465D02*
G01*
X163567367Y-114696899D01*
X163602103Y-114715466D01*
X163632548Y-114740452D01*
X163657534Y-114770897D01*
X163676101Y-114805633D01*
X163687535Y-114843326D01*
X163692000Y-114888661D01*
X163692000Y-115725339D01*
X163687535Y-115770674D01*
X163676101Y-115808367D01*
X163657534Y-115843103D01*
X163632548Y-115873548D01*
X163602103Y-115898534D01*
X163567367Y-115917101D01*
X163529674Y-115928535D01*
X163484339Y-115933000D01*
X162397661Y-115933000D01*
X162352326Y-115928535D01*
X162314633Y-115917101D01*
X162279897Y-115898534D01*
X162249452Y-115873548D01*
X162224466Y-115843103D01*
X162205899Y-115808367D01*
X162194465Y-115770674D01*
X162190000Y-115725339D01*
X162190000Y-114888661D01*
X162194465Y-114843326D01*
X162205899Y-114805633D01*
X162224466Y-114770897D01*
X162249452Y-114740452D01*
X162279897Y-114715466D01*
X162314633Y-114696899D01*
X162352326Y-114685465D01*
X162397661Y-114681000D01*
X163484339Y-114681000D01*
X163529674Y-114685465D01*
G37*
G36*
X158576674Y-114676465D02*
G01*
X158614367Y-114687899D01*
X158649103Y-114706466D01*
X158679548Y-114731452D01*
X158704534Y-114761897D01*
X158723101Y-114796633D01*
X158734535Y-114834326D01*
X158739000Y-114879661D01*
X158739000Y-115716339D01*
X158734535Y-115761674D01*
X158723101Y-115799367D01*
X158704534Y-115834103D01*
X158679548Y-115864548D01*
X158649103Y-115889534D01*
X158614367Y-115908101D01*
X158576674Y-115919535D01*
X158531339Y-115924000D01*
X157444661Y-115924000D01*
X157399326Y-115919535D01*
X157361633Y-115908101D01*
X157326897Y-115889534D01*
X157296452Y-115864548D01*
X157271466Y-115834103D01*
X157252899Y-115799367D01*
X157241465Y-115761674D01*
X157237000Y-115716339D01*
X157237000Y-114879661D01*
X157241465Y-114834326D01*
X157252899Y-114796633D01*
X157271466Y-114761897D01*
X157296452Y-114731452D01*
X157326897Y-114706466D01*
X157361633Y-114687899D01*
X157399326Y-114676465D01*
X157444661Y-114672000D01*
X158531339Y-114672000D01*
X158576674Y-114676465D01*
G37*
G36*
X153335000Y-112328000D02*
G01*
X149433000Y-112328000D01*
X149433000Y-110226000D01*
X153335000Y-110226000D01*
X153335000Y-112328000D01*
G37*
G36*
X121816395Y-110210546D02*
G01*
X121989466Y-110282234D01*
X121989467Y-110282235D01*
X122145227Y-110386310D01*
X122277690Y-110518773D01*
X122277691Y-110518775D01*
X122381766Y-110674534D01*
X122453454Y-110847605D01*
X122490000Y-111031333D01*
X122490000Y-111218667D01*
X122453454Y-111402395D01*
X122381766Y-111575466D01*
X122381765Y-111575467D01*
X122277690Y-111731227D01*
X122145227Y-111863690D01*
X122066818Y-111916081D01*
X121989466Y-111967766D01*
X121816395Y-112039454D01*
X121632667Y-112076000D01*
X121445333Y-112076000D01*
X121261605Y-112039454D01*
X121088534Y-111967766D01*
X121011182Y-111916081D01*
X120932773Y-111863690D01*
X120800310Y-111731227D01*
X120696235Y-111575467D01*
X120696234Y-111575466D01*
X120624546Y-111402395D01*
X120588000Y-111218667D01*
X120588000Y-111031333D01*
X120624546Y-110847605D01*
X120696234Y-110674534D01*
X120800309Y-110518775D01*
X120800310Y-110518773D01*
X120932773Y-110386310D01*
X121088533Y-110282235D01*
X121088534Y-110282234D01*
X121261605Y-110210546D01*
X121445333Y-110174000D01*
X121632667Y-110174000D01*
X121816395Y-110210546D01*
G37*
G36*
X119950000Y-112076000D02*
G01*
X118048000Y-112076000D01*
X118048000Y-110174000D01*
X119950000Y-110174000D01*
X119950000Y-112076000D01*
G37*
G36*
X128234674Y-110378465D02*
G01*
X128272367Y-110389899D01*
X128307103Y-110408466D01*
X128337548Y-110433452D01*
X128362534Y-110463897D01*
X128381101Y-110498633D01*
X128392535Y-110536326D01*
X128397000Y-110581661D01*
X128397000Y-111668339D01*
X128392535Y-111713674D01*
X128381101Y-111751367D01*
X128362534Y-111786103D01*
X128337548Y-111816548D01*
X128307103Y-111841534D01*
X128272367Y-111860101D01*
X128234674Y-111871535D01*
X128189339Y-111876000D01*
X127352661Y-111876000D01*
X127307326Y-111871535D01*
X127269633Y-111860101D01*
X127234897Y-111841534D01*
X127204452Y-111816548D01*
X127179466Y-111786103D01*
X127160899Y-111751367D01*
X127149465Y-111713674D01*
X127145000Y-111668339D01*
X127145000Y-110581661D01*
X127149465Y-110536326D01*
X127160899Y-110498633D01*
X127179466Y-110463897D01*
X127204452Y-110433452D01*
X127234897Y-110408466D01*
X127269633Y-110389899D01*
X127307326Y-110378465D01*
X127352661Y-110374000D01*
X128189339Y-110374000D01*
X128234674Y-110378465D01*
G37*
G36*
X126184674Y-110378465D02*
G01*
X126222367Y-110389899D01*
X126257103Y-110408466D01*
X126287548Y-110433452D01*
X126312534Y-110463897D01*
X126331101Y-110498633D01*
X126342535Y-110536326D01*
X126347000Y-110581661D01*
X126347000Y-111668339D01*
X126342535Y-111713674D01*
X126331101Y-111751367D01*
X126312534Y-111786103D01*
X126287548Y-111816548D01*
X126257103Y-111841534D01*
X126222367Y-111860101D01*
X126184674Y-111871535D01*
X126139339Y-111876000D01*
X125302661Y-111876000D01*
X125257326Y-111871535D01*
X125219633Y-111860101D01*
X125184897Y-111841534D01*
X125154452Y-111816548D01*
X125129466Y-111786103D01*
X125110899Y-111751367D01*
X125099465Y-111713674D01*
X125095000Y-111668339D01*
X125095000Y-110581661D01*
X125099465Y-110536326D01*
X125110899Y-110498633D01*
X125129466Y-110463897D01*
X125154452Y-110433452D01*
X125184897Y-110408466D01*
X125219633Y-110389899D01*
X125257326Y-110378465D01*
X125302661Y-110374000D01*
X126139339Y-110374000D01*
X126184674Y-110378465D01*
G37*
G36*
X168904228Y-109002703D02*
G01*
X169059100Y-109066853D01*
X169198481Y-109159985D01*
X169317015Y-109278519D01*
X169410147Y-109417900D01*
X169474297Y-109572772D01*
X169507000Y-109737184D01*
X169507000Y-109904816D01*
X169474297Y-110069228D01*
X169410147Y-110224100D01*
X169317015Y-110363481D01*
X169198481Y-110482015D01*
X169059100Y-110575147D01*
X168904228Y-110639297D01*
X168739816Y-110672000D01*
X168572184Y-110672000D01*
X168407772Y-110639297D01*
X168252900Y-110575147D01*
X168113519Y-110482015D01*
X167994985Y-110363481D01*
X167901853Y-110224100D01*
X167837703Y-110069228D01*
X167805000Y-109904816D01*
X167805000Y-109737184D01*
X167837703Y-109572772D01*
X167901853Y-109417900D01*
X167994985Y-109278519D01*
X168113519Y-109159985D01*
X168252900Y-109066853D01*
X168407772Y-109002703D01*
X168572184Y-108970000D01*
X168739816Y-108970000D01*
X168904228Y-109002703D01*
G37*
G36*
X171744228Y-107617703D02*
G01*
X171899100Y-107681853D01*
X172038481Y-107774985D01*
X172157015Y-107893519D01*
X172250147Y-108032900D01*
X172314297Y-108187772D01*
X172347000Y-108352184D01*
X172347000Y-108519816D01*
X172314297Y-108684228D01*
X172250147Y-108839100D01*
X172157015Y-108978481D01*
X172038481Y-109097015D01*
X171899100Y-109190147D01*
X171744228Y-109254297D01*
X171579816Y-109287000D01*
X171412184Y-109287000D01*
X171247772Y-109254297D01*
X171092900Y-109190147D01*
X170953519Y-109097015D01*
X170834985Y-108978481D01*
X170741853Y-108839100D01*
X170677703Y-108684228D01*
X170645000Y-108519816D01*
X170645000Y-108352184D01*
X170677703Y-108187772D01*
X170741853Y-108032900D01*
X170834985Y-107893519D01*
X170953519Y-107774985D01*
X171092900Y-107681853D01*
X171247772Y-107617703D01*
X171412184Y-107585000D01*
X171579816Y-107585000D01*
X171744228Y-107617703D01*
G37*
G36*
X152745674Y-107457465D02*
G01*
X152783367Y-107468899D01*
X152818103Y-107487466D01*
X152848548Y-107512452D01*
X152873534Y-107542897D01*
X152892101Y-107577633D01*
X152903535Y-107615326D01*
X152908000Y-107660661D01*
X152908000Y-108747339D01*
X152903535Y-108792674D01*
X152892101Y-108830367D01*
X152873534Y-108865103D01*
X152848548Y-108895548D01*
X152818103Y-108920534D01*
X152783367Y-108939101D01*
X152745674Y-108950535D01*
X152700339Y-108955000D01*
X151863661Y-108955000D01*
X151818326Y-108950535D01*
X151780633Y-108939101D01*
X151745897Y-108920534D01*
X151715452Y-108895548D01*
X151690466Y-108865103D01*
X151671899Y-108830367D01*
X151660465Y-108792674D01*
X151656000Y-108747339D01*
X151656000Y-107660661D01*
X151660465Y-107615326D01*
X151671899Y-107577633D01*
X151690466Y-107542897D01*
X151715452Y-107512452D01*
X151745897Y-107487466D01*
X151780633Y-107468899D01*
X151818326Y-107457465D01*
X151863661Y-107453000D01*
X152700339Y-107453000D01*
X152745674Y-107457465D01*
G37*
G36*
X150695674Y-107457465D02*
G01*
X150733367Y-107468899D01*
X150768103Y-107487466D01*
X150798548Y-107512452D01*
X150823534Y-107542897D01*
X150842101Y-107577633D01*
X150853535Y-107615326D01*
X150858000Y-107660661D01*
X150858000Y-108747339D01*
X150853535Y-108792674D01*
X150842101Y-108830367D01*
X150823534Y-108865103D01*
X150798548Y-108895548D01*
X150768103Y-108920534D01*
X150733367Y-108939101D01*
X150695674Y-108950535D01*
X150650339Y-108955000D01*
X149813661Y-108955000D01*
X149768326Y-108950535D01*
X149730633Y-108939101D01*
X149695897Y-108920534D01*
X149665452Y-108895548D01*
X149640466Y-108865103D01*
X149621899Y-108830367D01*
X149610465Y-108792674D01*
X149606000Y-108747339D01*
X149606000Y-107660661D01*
X149610465Y-107615326D01*
X149621899Y-107577633D01*
X149640466Y-107542897D01*
X149665452Y-107512452D01*
X149695897Y-107487466D01*
X149730633Y-107468899D01*
X149768326Y-107457465D01*
X149813661Y-107453000D01*
X150650339Y-107453000D01*
X150695674Y-107457465D01*
G37*
G36*
X168904228Y-106232703D02*
G01*
X169059100Y-106296853D01*
X169198481Y-106389985D01*
X169317015Y-106508519D01*
X169410147Y-106647900D01*
X169474297Y-106802772D01*
X169507000Y-106967184D01*
X169507000Y-107134816D01*
X169474297Y-107299228D01*
X169410147Y-107454100D01*
X169317015Y-107593481D01*
X169198481Y-107712015D01*
X169059100Y-107805147D01*
X168904228Y-107869297D01*
X168739816Y-107902000D01*
X168572184Y-107902000D01*
X168407772Y-107869297D01*
X168252900Y-107805147D01*
X168113519Y-107712015D01*
X167994985Y-107593481D01*
X167901853Y-107454100D01*
X167837703Y-107299228D01*
X167805000Y-107134816D01*
X167805000Y-106967184D01*
X167837703Y-106802772D01*
X167901853Y-106647900D01*
X167994985Y-106508519D01*
X168113519Y-106389985D01*
X168252900Y-106296853D01*
X168407772Y-106232703D01*
X168572184Y-106200000D01*
X168739816Y-106200000D01*
X168904228Y-106232703D01*
G37*
G36*
X143701674Y-106060465D02*
G01*
X143739367Y-106071899D01*
X143774103Y-106090466D01*
X143804548Y-106115452D01*
X143829534Y-106145897D01*
X143848101Y-106180633D01*
X143859535Y-106218326D01*
X143864000Y-106263661D01*
X143864000Y-107350339D01*
X143859535Y-107395674D01*
X143848101Y-107433367D01*
X143829534Y-107468103D01*
X143804548Y-107498548D01*
X143774103Y-107523534D01*
X143739367Y-107542101D01*
X143701674Y-107553535D01*
X143656339Y-107558000D01*
X142819661Y-107558000D01*
X142774326Y-107553535D01*
X142736633Y-107542101D01*
X142701897Y-107523534D01*
X142671452Y-107498548D01*
X142646466Y-107468103D01*
X142627899Y-107433367D01*
X142616465Y-107395674D01*
X142612000Y-107350339D01*
X142612000Y-106263661D01*
X142616465Y-106218326D01*
X142627899Y-106180633D01*
X142646466Y-106145897D01*
X142671452Y-106115452D01*
X142701897Y-106090466D01*
X142736633Y-106071899D01*
X142774326Y-106060465D01*
X142819661Y-106056000D01*
X143656339Y-106056000D01*
X143701674Y-106060465D01*
G37*
G36*
X145751674Y-106060465D02*
G01*
X145789367Y-106071899D01*
X145824103Y-106090466D01*
X145854548Y-106115452D01*
X145879534Y-106145897D01*
X145898101Y-106180633D01*
X145909535Y-106218326D01*
X145914000Y-106263661D01*
X145914000Y-107350339D01*
X145909535Y-107395674D01*
X145898101Y-107433367D01*
X145879534Y-107468103D01*
X145854548Y-107498548D01*
X145824103Y-107523534D01*
X145789367Y-107542101D01*
X145751674Y-107553535D01*
X145706339Y-107558000D01*
X144869661Y-107558000D01*
X144824326Y-107553535D01*
X144786633Y-107542101D01*
X144751897Y-107523534D01*
X144721452Y-107498548D01*
X144696466Y-107468103D01*
X144677899Y-107433367D01*
X144666465Y-107395674D01*
X144662000Y-107350339D01*
X144662000Y-106263661D01*
X144666465Y-106218326D01*
X144677899Y-106180633D01*
X144696466Y-106145897D01*
X144721452Y-106115452D01*
X144751897Y-106090466D01*
X144786633Y-106071899D01*
X144824326Y-106060465D01*
X144869661Y-106056000D01*
X145706339Y-106056000D01*
X145751674Y-106060465D01*
G37*
G36*
X157299674Y-105933465D02*
G01*
X157337367Y-105944899D01*
X157372103Y-105963466D01*
X157402548Y-105988452D01*
X157427534Y-106018897D01*
X157446101Y-106053633D01*
X157457535Y-106091326D01*
X157462000Y-106136661D01*
X157462000Y-107223339D01*
X157457535Y-107268674D01*
X157446101Y-107306367D01*
X157427534Y-107341103D01*
X157402548Y-107371548D01*
X157372103Y-107396534D01*
X157337367Y-107415101D01*
X157299674Y-107426535D01*
X157254339Y-107431000D01*
X156417661Y-107431000D01*
X156372326Y-107426535D01*
X156334633Y-107415101D01*
X156299897Y-107396534D01*
X156269452Y-107371548D01*
X156244466Y-107341103D01*
X156225899Y-107306367D01*
X156214465Y-107268674D01*
X156210000Y-107223339D01*
X156210000Y-106136661D01*
X156214465Y-106091326D01*
X156225899Y-106053633D01*
X156244466Y-106018897D01*
X156269452Y-105988452D01*
X156299897Y-105963466D01*
X156334633Y-105944899D01*
X156372326Y-105933465D01*
X156417661Y-105929000D01*
X157254339Y-105929000D01*
X157299674Y-105933465D01*
G37*
G36*
X159349674Y-105933465D02*
G01*
X159387367Y-105944899D01*
X159422103Y-105963466D01*
X159452548Y-105988452D01*
X159477534Y-106018897D01*
X159496101Y-106053633D01*
X159507535Y-106091326D01*
X159512000Y-106136661D01*
X159512000Y-107223339D01*
X159507535Y-107268674D01*
X159496101Y-107306367D01*
X159477534Y-107341103D01*
X159452548Y-107371548D01*
X159422103Y-107396534D01*
X159387367Y-107415101D01*
X159349674Y-107426535D01*
X159304339Y-107431000D01*
X158467661Y-107431000D01*
X158422326Y-107426535D01*
X158384633Y-107415101D01*
X158349897Y-107396534D01*
X158319452Y-107371548D01*
X158294466Y-107341103D01*
X158275899Y-107306367D01*
X158264465Y-107268674D01*
X158260000Y-107223339D01*
X158260000Y-106136661D01*
X158264465Y-106091326D01*
X158275899Y-106053633D01*
X158294466Y-106018897D01*
X158319452Y-105988452D01*
X158349897Y-105963466D01*
X158384633Y-105944899D01*
X158422326Y-105933465D01*
X158467661Y-105929000D01*
X159304339Y-105929000D01*
X159349674Y-105933465D01*
G37*
G36*
X171744228Y-104847703D02*
G01*
X171899100Y-104911853D01*
X172038481Y-105004985D01*
X172157015Y-105123519D01*
X172250147Y-105262900D01*
X172314297Y-105417772D01*
X172347000Y-105582184D01*
X172347000Y-105749816D01*
X172314297Y-105914228D01*
X172250147Y-106069100D01*
X172157015Y-106208481D01*
X172038481Y-106327015D01*
X171899100Y-106420147D01*
X171744228Y-106484297D01*
X171579816Y-106517000D01*
X171412184Y-106517000D01*
X171247772Y-106484297D01*
X171092900Y-106420147D01*
X170953519Y-106327015D01*
X170834985Y-106208481D01*
X170741853Y-106069100D01*
X170677703Y-105914228D01*
X170645000Y-105749816D01*
X170645000Y-105582184D01*
X170677703Y-105417772D01*
X170741853Y-105262900D01*
X170834985Y-105123519D01*
X170953519Y-105004985D01*
X171092900Y-104911853D01*
X171247772Y-104847703D01*
X171412184Y-104815000D01*
X171579816Y-104815000D01*
X171744228Y-104847703D01*
G37*
G36*
X148571000Y-106116000D02*
G01*
X146769000Y-106116000D01*
X146769000Y-97084000D01*
X148571000Y-97084000D01*
X148571000Y-106116000D01*
G37*
G36*
X155491000Y-106116000D02*
G01*
X153689000Y-106116000D01*
X153689000Y-97084000D01*
X155491000Y-97084000D01*
X155491000Y-106116000D01*
G37*
G36*
X134439674Y-104282465D02*
G01*
X134477367Y-104293899D01*
X134512103Y-104312466D01*
X134542548Y-104337452D01*
X134567534Y-104367897D01*
X134586101Y-104402633D01*
X134597535Y-104440326D01*
X134602000Y-104485661D01*
X134602000Y-105572339D01*
X134597535Y-105617674D01*
X134586101Y-105655367D01*
X134567534Y-105690103D01*
X134542548Y-105720548D01*
X134512103Y-105745534D01*
X134477367Y-105764101D01*
X134439674Y-105775535D01*
X134394339Y-105780000D01*
X133557661Y-105780000D01*
X133512326Y-105775535D01*
X133474633Y-105764101D01*
X133439897Y-105745534D01*
X133409452Y-105720548D01*
X133384466Y-105690103D01*
X133365899Y-105655367D01*
X133354465Y-105617674D01*
X133350000Y-105572339D01*
X133350000Y-104485661D01*
X133354465Y-104440326D01*
X133365899Y-104402633D01*
X133384466Y-104367897D01*
X133409452Y-104337452D01*
X133439897Y-104312466D01*
X133474633Y-104293899D01*
X133512326Y-104282465D01*
X133557661Y-104278000D01*
X134394339Y-104278000D01*
X134439674Y-104282465D01*
G37*
G36*
X136489674Y-104282465D02*
G01*
X136527367Y-104293899D01*
X136562103Y-104312466D01*
X136592548Y-104337452D01*
X136617534Y-104367897D01*
X136636101Y-104402633D01*
X136647535Y-104440326D01*
X136652000Y-104485661D01*
X136652000Y-105572339D01*
X136647535Y-105617674D01*
X136636101Y-105655367D01*
X136617534Y-105690103D01*
X136592548Y-105720548D01*
X136562103Y-105745534D01*
X136527367Y-105764101D01*
X136489674Y-105775535D01*
X136444339Y-105780000D01*
X135607661Y-105780000D01*
X135562326Y-105775535D01*
X135524633Y-105764101D01*
X135489897Y-105745534D01*
X135459452Y-105720548D01*
X135434466Y-105690103D01*
X135415899Y-105655367D01*
X135404465Y-105617674D01*
X135400000Y-105572339D01*
X135400000Y-104485661D01*
X135404465Y-104440326D01*
X135415899Y-104402633D01*
X135434466Y-104367897D01*
X135459452Y-104337452D01*
X135489897Y-104312466D01*
X135524633Y-104293899D01*
X135562326Y-104282465D01*
X135607661Y-104278000D01*
X136444339Y-104278000D01*
X136489674Y-104282465D01*
G37*
G36*
X145760674Y-103901465D02*
G01*
X145798367Y-103912899D01*
X145833103Y-103931466D01*
X145863548Y-103956452D01*
X145888534Y-103986897D01*
X145907101Y-104021633D01*
X145918535Y-104059326D01*
X145923000Y-104104661D01*
X145923000Y-105191339D01*
X145918535Y-105236674D01*
X145907101Y-105274367D01*
X145888534Y-105309103D01*
X145863548Y-105339548D01*
X145833103Y-105364534D01*
X145798367Y-105383101D01*
X145760674Y-105394535D01*
X145715339Y-105399000D01*
X144878661Y-105399000D01*
X144833326Y-105394535D01*
X144795633Y-105383101D01*
X144760897Y-105364534D01*
X144730452Y-105339548D01*
X144705466Y-105309103D01*
X144686899Y-105274367D01*
X144675465Y-105236674D01*
X144671000Y-105191339D01*
X144671000Y-104104661D01*
X144675465Y-104059326D01*
X144686899Y-104021633D01*
X144705466Y-103986897D01*
X144730452Y-103956452D01*
X144760897Y-103931466D01*
X144795633Y-103912899D01*
X144833326Y-103901465D01*
X144878661Y-103897000D01*
X145715339Y-103897000D01*
X145760674Y-103901465D01*
G37*
G36*
X143710674Y-103901465D02*
G01*
X143748367Y-103912899D01*
X143783103Y-103931466D01*
X143813548Y-103956452D01*
X143838534Y-103986897D01*
X143857101Y-104021633D01*
X143868535Y-104059326D01*
X143873000Y-104104661D01*
X143873000Y-105191339D01*
X143868535Y-105236674D01*
X143857101Y-105274367D01*
X143838534Y-105309103D01*
X143813548Y-105339548D01*
X143783103Y-105364534D01*
X143748367Y-105383101D01*
X143710674Y-105394535D01*
X143665339Y-105399000D01*
X142828661Y-105399000D01*
X142783326Y-105394535D01*
X142745633Y-105383101D01*
X142710897Y-105364534D01*
X142680452Y-105339548D01*
X142655466Y-105309103D01*
X142636899Y-105274367D01*
X142625465Y-105236674D01*
X142621000Y-105191339D01*
X142621000Y-104104661D01*
X142625465Y-104059326D01*
X142636899Y-104021633D01*
X142655466Y-103986897D01*
X142680452Y-103956452D01*
X142710897Y-103931466D01*
X142745633Y-103912899D01*
X142783326Y-103901465D01*
X142828661Y-103897000D01*
X143665339Y-103897000D01*
X143710674Y-103901465D01*
G37*
G36*
X157299674Y-103837965D02*
G01*
X157337367Y-103849399D01*
X157372103Y-103867966D01*
X157402548Y-103892952D01*
X157427534Y-103923397D01*
X157446101Y-103958133D01*
X157457535Y-103995826D01*
X157462000Y-104041161D01*
X157462000Y-105127839D01*
X157457535Y-105173174D01*
X157446101Y-105210867D01*
X157427534Y-105245603D01*
X157402548Y-105276048D01*
X157372103Y-105301034D01*
X157337367Y-105319601D01*
X157299674Y-105331035D01*
X157254339Y-105335500D01*
X156417661Y-105335500D01*
X156372326Y-105331035D01*
X156334633Y-105319601D01*
X156299897Y-105301034D01*
X156269452Y-105276048D01*
X156244466Y-105245603D01*
X156225899Y-105210867D01*
X156214465Y-105173174D01*
X156210000Y-105127839D01*
X156210000Y-104041161D01*
X156214465Y-103995826D01*
X156225899Y-103958133D01*
X156244466Y-103923397D01*
X156269452Y-103892952D01*
X156299897Y-103867966D01*
X156334633Y-103849399D01*
X156372326Y-103837965D01*
X156417661Y-103833500D01*
X157254339Y-103833500D01*
X157299674Y-103837965D01*
G37*
G36*
X159349674Y-103837965D02*
G01*
X159387367Y-103849399D01*
X159422103Y-103867966D01*
X159452548Y-103892952D01*
X159477534Y-103923397D01*
X159496101Y-103958133D01*
X159507535Y-103995826D01*
X159512000Y-104041161D01*
X159512000Y-105127839D01*
X159507535Y-105173174D01*
X159496101Y-105210867D01*
X159477534Y-105245603D01*
X159452548Y-105276048D01*
X159422103Y-105301034D01*
X159387367Y-105319601D01*
X159349674Y-105331035D01*
X159304339Y-105335500D01*
X158467661Y-105335500D01*
X158422326Y-105331035D01*
X158384633Y-105319601D01*
X158349897Y-105301034D01*
X158319452Y-105276048D01*
X158294466Y-105245603D01*
X158275899Y-105210867D01*
X158264465Y-105173174D01*
X158260000Y-105127839D01*
X158260000Y-104041161D01*
X158264465Y-103995826D01*
X158275899Y-103958133D01*
X158294466Y-103923397D01*
X158319452Y-103892952D01*
X158349897Y-103867966D01*
X158384633Y-103849399D01*
X158422326Y-103837965D01*
X158467661Y-103833500D01*
X159304339Y-103833500D01*
X159349674Y-103837965D01*
G37*
G36*
X168904228Y-103462703D02*
G01*
X169059100Y-103526853D01*
X169198481Y-103619985D01*
X169317015Y-103738519D01*
X169410147Y-103877900D01*
X169474297Y-104032772D01*
X169507000Y-104197184D01*
X169507000Y-104364816D01*
X169474297Y-104529228D01*
X169410147Y-104684100D01*
X169317015Y-104823481D01*
X169198481Y-104942015D01*
X169059100Y-105035147D01*
X168904228Y-105099297D01*
X168739816Y-105132000D01*
X168572184Y-105132000D01*
X168407772Y-105099297D01*
X168252900Y-105035147D01*
X168113519Y-104942015D01*
X167994985Y-104823481D01*
X167901853Y-104684100D01*
X167837703Y-104529228D01*
X167805000Y-104364816D01*
X167805000Y-104197184D01*
X167837703Y-104032772D01*
X167901853Y-103877900D01*
X167994985Y-103738519D01*
X168113519Y-103619985D01*
X168252900Y-103526853D01*
X168407772Y-103462703D01*
X168572184Y-103430000D01*
X168739816Y-103430000D01*
X168904228Y-103462703D01*
G37*
G36*
X119950000Y-104964000D02*
G01*
X118048000Y-104964000D01*
X118048000Y-103062000D01*
X119950000Y-103062000D01*
X119950000Y-104964000D01*
G37*
G36*
X121816395Y-103098546D02*
G01*
X121989466Y-103170234D01*
X122066818Y-103221919D01*
X122145227Y-103274310D01*
X122277690Y-103406773D01*
X122315061Y-103462703D01*
X122381766Y-103562534D01*
X122453454Y-103735605D01*
X122490000Y-103919333D01*
X122490000Y-104106667D01*
X122453454Y-104290395D01*
X122381766Y-104463466D01*
X122381765Y-104463467D01*
X122277690Y-104619227D01*
X122145227Y-104751690D01*
X122066818Y-104804081D01*
X121989466Y-104855766D01*
X121816395Y-104927454D01*
X121632667Y-104964000D01*
X121445333Y-104964000D01*
X121261605Y-104927454D01*
X121088534Y-104855766D01*
X121011182Y-104804081D01*
X120932773Y-104751690D01*
X120800310Y-104619227D01*
X120696235Y-104463467D01*
X120696234Y-104463466D01*
X120624546Y-104290395D01*
X120588000Y-104106667D01*
X120588000Y-103919333D01*
X120624546Y-103735605D01*
X120696234Y-103562534D01*
X120762939Y-103462703D01*
X120800310Y-103406773D01*
X120932773Y-103274310D01*
X121011182Y-103221919D01*
X121088534Y-103170234D01*
X121261605Y-103098546D01*
X121445333Y-103062000D01*
X121632667Y-103062000D01*
X121816395Y-103098546D01*
G37*
G36*
X128234674Y-103266465D02*
G01*
X128272367Y-103277899D01*
X128307103Y-103296466D01*
X128337548Y-103321452D01*
X128362534Y-103351897D01*
X128381101Y-103386633D01*
X128392535Y-103424326D01*
X128397000Y-103469661D01*
X128397000Y-104556339D01*
X128392535Y-104601674D01*
X128381101Y-104639367D01*
X128362534Y-104674103D01*
X128337548Y-104704548D01*
X128307103Y-104729534D01*
X128272367Y-104748101D01*
X128234674Y-104759535D01*
X128189339Y-104764000D01*
X127352661Y-104764000D01*
X127307326Y-104759535D01*
X127269633Y-104748101D01*
X127234897Y-104729534D01*
X127204452Y-104704548D01*
X127179466Y-104674103D01*
X127160899Y-104639367D01*
X127149465Y-104601674D01*
X127145000Y-104556339D01*
X127145000Y-103469661D01*
X127149465Y-103424326D01*
X127160899Y-103386633D01*
X127179466Y-103351897D01*
X127204452Y-103321452D01*
X127234897Y-103296466D01*
X127269633Y-103277899D01*
X127307326Y-103266465D01*
X127352661Y-103262000D01*
X128189339Y-103262000D01*
X128234674Y-103266465D01*
G37*
G36*
X126184674Y-103266465D02*
G01*
X126222367Y-103277899D01*
X126257103Y-103296466D01*
X126287548Y-103321452D01*
X126312534Y-103351897D01*
X126331101Y-103386633D01*
X126342535Y-103424326D01*
X126347000Y-103469661D01*
X126347000Y-104556339D01*
X126342535Y-104601674D01*
X126331101Y-104639367D01*
X126312534Y-104674103D01*
X126287548Y-104704548D01*
X126257103Y-104729534D01*
X126222367Y-104748101D01*
X126184674Y-104759535D01*
X126139339Y-104764000D01*
X125302661Y-104764000D01*
X125257326Y-104759535D01*
X125219633Y-104748101D01*
X125184897Y-104729534D01*
X125154452Y-104704548D01*
X125129466Y-104674103D01*
X125110899Y-104639367D01*
X125099465Y-104601674D01*
X125095000Y-104556339D01*
X125095000Y-103469661D01*
X125099465Y-103424326D01*
X125110899Y-103386633D01*
X125129466Y-103351897D01*
X125154452Y-103321452D01*
X125184897Y-103296466D01*
X125219633Y-103277899D01*
X125257326Y-103266465D01*
X125302661Y-103262000D01*
X126139339Y-103262000D01*
X126184674Y-103266465D01*
G37*
G36*
X171744228Y-102077703D02*
G01*
X171899100Y-102141853D01*
X172038481Y-102234985D01*
X172157015Y-102353519D01*
X172250147Y-102492900D01*
X172314297Y-102647772D01*
X172347000Y-102812184D01*
X172347000Y-102979816D01*
X172314297Y-103144228D01*
X172250147Y-103299100D01*
X172157015Y-103438481D01*
X172038481Y-103557015D01*
X171899100Y-103650147D01*
X171744228Y-103714297D01*
X171579816Y-103747000D01*
X171412184Y-103747000D01*
X171247772Y-103714297D01*
X171092900Y-103650147D01*
X170953519Y-103557015D01*
X170834985Y-103438481D01*
X170741853Y-103299100D01*
X170677703Y-103144228D01*
X170645000Y-102979816D01*
X170645000Y-102812184D01*
X170677703Y-102647772D01*
X170741853Y-102492900D01*
X170834985Y-102353519D01*
X170953519Y-102234985D01*
X171092900Y-102141853D01*
X171247772Y-102077703D01*
X171412184Y-102045000D01*
X171579816Y-102045000D01*
X171744228Y-102077703D01*
G37*
G36*
X132558051Y-96725284D02*
G01*
X132574443Y-96730257D01*
X132589555Y-96738334D01*
X132602798Y-96749202D01*
X132613666Y-96762445D01*
X132621743Y-96777557D01*
X132626716Y-96793949D01*
X132629000Y-96817141D01*
X132629000Y-97230859D01*
X132626716Y-97254051D01*
X132621742Y-97270446D01*
X132611249Y-97290078D01*
X132601872Y-97312717D01*
X132597092Y-97336750D01*
X132597092Y-97361254D01*
X132601873Y-97385287D01*
X132611249Y-97407922D01*
X132621742Y-97427554D01*
X132626716Y-97443949D01*
X132629000Y-97467141D01*
X132629000Y-97880859D01*
X132626716Y-97904051D01*
X132621742Y-97920446D01*
X132611249Y-97940078D01*
X132601872Y-97962717D01*
X132597092Y-97986750D01*
X132597092Y-98011254D01*
X132601873Y-98035287D01*
X132611249Y-98057922D01*
X132621742Y-98077554D01*
X132626716Y-98093949D01*
X132629000Y-98117141D01*
X132629000Y-98530859D01*
X132626716Y-98554051D01*
X132621742Y-98570446D01*
X132611249Y-98590078D01*
X132601872Y-98612717D01*
X132597092Y-98636750D01*
X132597092Y-98661254D01*
X132601873Y-98685287D01*
X132611249Y-98707922D01*
X132621742Y-98727554D01*
X132626716Y-98743949D01*
X132629000Y-98767141D01*
X132629000Y-99180859D01*
X132626716Y-99204051D01*
X132621742Y-99220446D01*
X132611249Y-99240078D01*
X132601872Y-99262717D01*
X132597092Y-99286750D01*
X132597092Y-99311254D01*
X132601873Y-99335287D01*
X132611249Y-99357922D01*
X132621742Y-99377554D01*
X132626716Y-99393949D01*
X132629000Y-99417141D01*
X132629000Y-99830859D01*
X132626716Y-99854051D01*
X132621742Y-99870446D01*
X132611249Y-99890078D01*
X132601872Y-99912717D01*
X132597092Y-99936750D01*
X132597092Y-99961254D01*
X132601873Y-99985287D01*
X132611249Y-100007922D01*
X132621742Y-100027554D01*
X132626716Y-100043949D01*
X132629000Y-100067141D01*
X132629000Y-100480859D01*
X132626716Y-100504051D01*
X132621742Y-100520446D01*
X132611249Y-100540078D01*
X132601872Y-100562717D01*
X132597092Y-100586750D01*
X132597092Y-100611254D01*
X132601873Y-100635287D01*
X132611249Y-100657922D01*
X132621742Y-100677554D01*
X132626716Y-100693949D01*
X132629000Y-100717141D01*
X132629000Y-101130859D01*
X132626716Y-101154051D01*
X132621742Y-101170446D01*
X132611249Y-101190078D01*
X132601872Y-101212717D01*
X132597092Y-101236750D01*
X132597092Y-101261254D01*
X132601873Y-101285287D01*
X132611249Y-101307922D01*
X132621742Y-101327554D01*
X132626716Y-101343949D01*
X132629000Y-101367141D01*
X132629000Y-101780859D01*
X132626716Y-101804051D01*
X132621742Y-101820446D01*
X132611249Y-101840078D01*
X132601872Y-101862717D01*
X132597092Y-101886750D01*
X132597092Y-101911254D01*
X132601873Y-101935287D01*
X132611249Y-101957922D01*
X132621742Y-101977554D01*
X132626716Y-101993949D01*
X132629000Y-102017141D01*
X132629000Y-102430859D01*
X132626716Y-102454051D01*
X132621742Y-102470446D01*
X132611249Y-102490078D01*
X132601872Y-102512717D01*
X132597092Y-102536750D01*
X132597092Y-102561254D01*
X132601873Y-102585287D01*
X132611249Y-102607922D01*
X132621742Y-102627554D01*
X132626716Y-102643949D01*
X132629000Y-102667141D01*
X132629000Y-103080859D01*
X132626716Y-103104051D01*
X132621743Y-103120443D01*
X132613666Y-103135555D01*
X132602798Y-103148798D01*
X132589555Y-103159666D01*
X132574443Y-103167743D01*
X132558051Y-103172716D01*
X132534859Y-103175000D01*
X130721141Y-103175000D01*
X130697949Y-103172716D01*
X130681557Y-103167743D01*
X130666445Y-103159666D01*
X130653202Y-103148798D01*
X130642334Y-103135555D01*
X130634257Y-103120443D01*
X130629284Y-103104051D01*
X130627000Y-103080859D01*
X130627000Y-102667141D01*
X130629284Y-102643949D01*
X130634258Y-102627554D01*
X130644751Y-102607922D01*
X130654128Y-102585283D01*
X130658908Y-102561250D01*
X130658908Y-102536746D01*
X130654127Y-102512713D01*
X130644751Y-102490078D01*
X130634258Y-102470446D01*
X130629284Y-102454051D01*
X130627000Y-102430859D01*
X130627000Y-102017141D01*
X130629284Y-101993949D01*
X130634258Y-101977554D01*
X130644751Y-101957922D01*
X130654128Y-101935283D01*
X130658908Y-101911250D01*
X130658908Y-101886746D01*
X130654127Y-101862713D01*
X130644751Y-101840078D01*
X130634258Y-101820446D01*
X130629284Y-101804051D01*
X130627000Y-101780859D01*
X130627000Y-101367141D01*
X130629284Y-101343949D01*
X130634258Y-101327554D01*
X130644751Y-101307922D01*
X130654128Y-101285283D01*
X130658908Y-101261250D01*
X130658908Y-101236746D01*
X130654127Y-101212713D01*
X130644751Y-101190078D01*
X130634258Y-101170446D01*
X130629284Y-101154051D01*
X130627000Y-101130859D01*
X130627000Y-100717141D01*
X130629284Y-100693949D01*
X130634258Y-100677554D01*
X130644751Y-100657922D01*
X130654128Y-100635283D01*
X130658908Y-100611250D01*
X130658908Y-100586746D01*
X130654127Y-100562713D01*
X130644751Y-100540078D01*
X130634258Y-100520446D01*
X130629284Y-100504051D01*
X130627000Y-100480859D01*
X130627000Y-100067141D01*
X130629284Y-100043949D01*
X130634258Y-100027554D01*
X130644751Y-100007922D01*
X130654128Y-99985283D01*
X130658908Y-99961250D01*
X130658908Y-99936746D01*
X130654127Y-99912713D01*
X130644751Y-99890078D01*
X130634258Y-99870446D01*
X130629284Y-99854051D01*
X130627000Y-99830859D01*
X130627000Y-99417141D01*
X130629284Y-99393949D01*
X130634258Y-99377554D01*
X130644751Y-99357922D01*
X130654128Y-99335283D01*
X130658908Y-99311250D01*
X130658908Y-99286746D01*
X130654127Y-99262713D01*
X130644751Y-99240078D01*
X130634258Y-99220446D01*
X130629284Y-99204051D01*
X130627000Y-99180859D01*
X130627000Y-98767141D01*
X130629284Y-98743949D01*
X130634258Y-98727554D01*
X130644751Y-98707922D01*
X130654128Y-98685283D01*
X130658908Y-98661250D01*
X130658908Y-98636746D01*
X130654127Y-98612713D01*
X130644751Y-98590078D01*
X130634258Y-98570446D01*
X130629284Y-98554051D01*
X130627000Y-98530859D01*
X130627000Y-98117141D01*
X130629284Y-98093949D01*
X130634258Y-98077554D01*
X130644751Y-98057922D01*
X130654128Y-98035283D01*
X130658908Y-98011250D01*
X130658908Y-97986746D01*
X130654127Y-97962713D01*
X130644751Y-97940078D01*
X130634258Y-97920446D01*
X130629284Y-97904051D01*
X130627000Y-97880859D01*
X130627000Y-97467141D01*
X130629284Y-97443949D01*
X130634258Y-97427554D01*
X130644751Y-97407922D01*
X130654128Y-97385283D01*
X130658908Y-97361250D01*
X130658908Y-97336746D01*
X130654127Y-97312713D01*
X130644751Y-97290078D01*
X130634258Y-97270446D01*
X130629284Y-97254051D01*
X130627000Y-97230859D01*
X130627000Y-96817141D01*
X130629284Y-96793949D01*
X130634257Y-96777557D01*
X130642334Y-96762445D01*
X130653202Y-96749202D01*
X130666445Y-96738334D01*
X130681557Y-96730257D01*
X130697949Y-96725284D01*
X130721141Y-96723000D01*
X132534859Y-96723000D01*
X132558051Y-96725284D01*
G37*
G36*
X139558051Y-96725284D02*
G01*
X139574443Y-96730257D01*
X139589555Y-96738334D01*
X139602798Y-96749202D01*
X139613666Y-96762445D01*
X139621743Y-96777557D01*
X139626716Y-96793949D01*
X139629000Y-96817141D01*
X139629000Y-97230859D01*
X139626716Y-97254051D01*
X139621742Y-97270446D01*
X139611249Y-97290078D01*
X139601872Y-97312717D01*
X139597092Y-97336750D01*
X139597092Y-97361254D01*
X139601873Y-97385287D01*
X139611249Y-97407922D01*
X139621742Y-97427554D01*
X139626716Y-97443949D01*
X139629000Y-97467141D01*
X139629000Y-97880859D01*
X139626716Y-97904051D01*
X139621742Y-97920446D01*
X139611249Y-97940078D01*
X139601872Y-97962717D01*
X139597092Y-97986750D01*
X139597092Y-98011254D01*
X139601873Y-98035287D01*
X139611249Y-98057922D01*
X139621742Y-98077554D01*
X139626716Y-98093949D01*
X139629000Y-98117141D01*
X139629000Y-98530859D01*
X139626716Y-98554051D01*
X139621742Y-98570446D01*
X139611249Y-98590078D01*
X139601872Y-98612717D01*
X139597092Y-98636750D01*
X139597092Y-98661254D01*
X139601873Y-98685287D01*
X139611249Y-98707922D01*
X139621742Y-98727554D01*
X139626716Y-98743949D01*
X139629000Y-98767141D01*
X139629000Y-99180859D01*
X139626716Y-99204051D01*
X139621742Y-99220446D01*
X139611249Y-99240078D01*
X139601872Y-99262717D01*
X139597092Y-99286750D01*
X139597092Y-99311254D01*
X139601873Y-99335287D01*
X139611249Y-99357922D01*
X139621742Y-99377554D01*
X139626716Y-99393949D01*
X139629000Y-99417141D01*
X139629000Y-99830859D01*
X139626716Y-99854051D01*
X139621742Y-99870446D01*
X139611249Y-99890078D01*
X139601872Y-99912717D01*
X139597092Y-99936750D01*
X139597092Y-99961254D01*
X139601873Y-99985287D01*
X139611249Y-100007922D01*
X139621742Y-100027554D01*
X139626716Y-100043949D01*
X139629000Y-100067141D01*
X139629000Y-100480859D01*
X139626716Y-100504051D01*
X139621742Y-100520446D01*
X139611249Y-100540078D01*
X139601872Y-100562717D01*
X139597092Y-100586750D01*
X139597092Y-100611254D01*
X139601873Y-100635287D01*
X139611249Y-100657922D01*
X139621742Y-100677554D01*
X139626716Y-100693949D01*
X139629000Y-100717141D01*
X139629000Y-101130859D01*
X139626716Y-101154051D01*
X139621742Y-101170446D01*
X139611249Y-101190078D01*
X139601872Y-101212717D01*
X139597092Y-101236750D01*
X139597092Y-101261254D01*
X139601873Y-101285287D01*
X139611249Y-101307922D01*
X139621742Y-101327554D01*
X139626716Y-101343949D01*
X139629000Y-101367141D01*
X139629000Y-101780859D01*
X139626716Y-101804051D01*
X139621742Y-101820446D01*
X139611249Y-101840078D01*
X139601872Y-101862717D01*
X139597092Y-101886750D01*
X139597092Y-101911254D01*
X139601873Y-101935287D01*
X139611249Y-101957922D01*
X139621742Y-101977554D01*
X139626716Y-101993949D01*
X139629000Y-102017141D01*
X139629000Y-102430859D01*
X139626716Y-102454051D01*
X139621742Y-102470446D01*
X139611249Y-102490078D01*
X139601872Y-102512717D01*
X139597092Y-102536750D01*
X139597092Y-102561254D01*
X139601873Y-102585287D01*
X139611249Y-102607922D01*
X139621742Y-102627554D01*
X139626716Y-102643949D01*
X139629000Y-102667141D01*
X139629000Y-103080859D01*
X139626716Y-103104051D01*
X139621743Y-103120443D01*
X139613666Y-103135555D01*
X139602798Y-103148798D01*
X139589555Y-103159666D01*
X139574443Y-103167743D01*
X139558051Y-103172716D01*
X139534859Y-103175000D01*
X137721141Y-103175000D01*
X137697949Y-103172716D01*
X137681557Y-103167743D01*
X137666445Y-103159666D01*
X137653202Y-103148798D01*
X137642334Y-103135555D01*
X137634257Y-103120443D01*
X137629284Y-103104051D01*
X137627000Y-103080859D01*
X137627000Y-102667141D01*
X137629284Y-102643949D01*
X137634258Y-102627554D01*
X137644751Y-102607922D01*
X137654128Y-102585283D01*
X137658908Y-102561250D01*
X137658908Y-102536746D01*
X137654127Y-102512713D01*
X137644751Y-102490078D01*
X137634258Y-102470446D01*
X137629284Y-102454051D01*
X137627000Y-102430859D01*
X137627000Y-102017141D01*
X137629284Y-101993949D01*
X137634258Y-101977554D01*
X137644751Y-101957922D01*
X137654128Y-101935283D01*
X137658908Y-101911250D01*
X137658908Y-101886746D01*
X137654127Y-101862713D01*
X137644751Y-101840078D01*
X137634258Y-101820446D01*
X137629284Y-101804051D01*
X137627000Y-101780859D01*
X137627000Y-101367141D01*
X137629284Y-101343949D01*
X137634258Y-101327554D01*
X137644751Y-101307922D01*
X137654128Y-101285283D01*
X137658908Y-101261250D01*
X137658908Y-101236746D01*
X137654127Y-101212713D01*
X137644751Y-101190078D01*
X137634258Y-101170446D01*
X137629284Y-101154051D01*
X137627000Y-101130859D01*
X137627000Y-100717141D01*
X137629284Y-100693949D01*
X137634258Y-100677554D01*
X137644751Y-100657922D01*
X137654128Y-100635283D01*
X137658908Y-100611250D01*
X137658908Y-100586746D01*
X137654127Y-100562713D01*
X137644751Y-100540078D01*
X137634258Y-100520446D01*
X137629284Y-100504051D01*
X137627000Y-100480859D01*
X137627000Y-100067141D01*
X137629284Y-100043949D01*
X137634258Y-100027554D01*
X137644751Y-100007922D01*
X137654128Y-99985283D01*
X137658908Y-99961250D01*
X137658908Y-99936746D01*
X137654127Y-99912713D01*
X137644751Y-99890078D01*
X137634258Y-99870446D01*
X137629284Y-99854051D01*
X137627000Y-99830859D01*
X137627000Y-99417141D01*
X137629284Y-99393949D01*
X137634258Y-99377554D01*
X137644751Y-99357922D01*
X137654128Y-99335283D01*
X137658908Y-99311250D01*
X137658908Y-99286746D01*
X137654127Y-99262713D01*
X137644751Y-99240078D01*
X137634258Y-99220446D01*
X137629284Y-99204051D01*
X137627000Y-99180859D01*
X137627000Y-98767141D01*
X137629284Y-98743949D01*
X137634258Y-98727554D01*
X137644751Y-98707922D01*
X137654128Y-98685283D01*
X137658908Y-98661250D01*
X137658908Y-98636746D01*
X137654127Y-98612713D01*
X137644751Y-98590078D01*
X137634258Y-98570446D01*
X137629284Y-98554051D01*
X137627000Y-98530859D01*
X137627000Y-98117141D01*
X137629284Y-98093949D01*
X137634258Y-98077554D01*
X137644751Y-98057922D01*
X137654128Y-98035283D01*
X137658908Y-98011250D01*
X137658908Y-97986746D01*
X137654127Y-97962713D01*
X137644751Y-97940078D01*
X137634258Y-97920446D01*
X137629284Y-97904051D01*
X137627000Y-97880859D01*
X137627000Y-97467141D01*
X137629284Y-97443949D01*
X137634258Y-97427554D01*
X137644751Y-97407922D01*
X137654128Y-97385283D01*
X137658908Y-97361250D01*
X137658908Y-97336746D01*
X137654127Y-97312713D01*
X137644751Y-97290078D01*
X137634258Y-97270446D01*
X137629284Y-97254051D01*
X137627000Y-97230859D01*
X137627000Y-96817141D01*
X137629284Y-96793949D01*
X137634257Y-96777557D01*
X137642334Y-96762445D01*
X137653202Y-96749202D01*
X137666445Y-96738334D01*
X137681557Y-96730257D01*
X137697949Y-96725284D01*
X137721141Y-96723000D01*
X139534859Y-96723000D01*
X139558051Y-96725284D01*
G37*
G36*
X168904228Y-100692703D02*
G01*
X169059100Y-100756853D01*
X169198481Y-100849985D01*
X169317015Y-100968519D01*
X169410147Y-101107900D01*
X169474297Y-101262772D01*
X169507000Y-101427184D01*
X169507000Y-101594816D01*
X169474297Y-101759228D01*
X169410147Y-101914100D01*
X169317015Y-102053481D01*
X169198481Y-102172015D01*
X169059100Y-102265147D01*
X168904228Y-102329297D01*
X168739816Y-102362000D01*
X168572184Y-102362000D01*
X168407772Y-102329297D01*
X168252900Y-102265147D01*
X168113519Y-102172015D01*
X167994985Y-102053481D01*
X167901853Y-101914100D01*
X167837703Y-101759228D01*
X167805000Y-101594816D01*
X167805000Y-101427184D01*
X167837703Y-101262772D01*
X167901853Y-101107900D01*
X167994985Y-100968519D01*
X168113519Y-100849985D01*
X168252900Y-100756853D01*
X168407772Y-100692703D01*
X168572184Y-100660000D01*
X168739816Y-100660000D01*
X168904228Y-100692703D01*
G37*
G36*
X171744228Y-99307703D02*
G01*
X171899100Y-99371853D01*
X172038481Y-99464985D01*
X172157015Y-99583519D01*
X172250147Y-99722900D01*
X172314297Y-99877772D01*
X172347000Y-100042184D01*
X172347000Y-100209816D01*
X172314297Y-100374228D01*
X172250147Y-100529100D01*
X172157015Y-100668481D01*
X172038481Y-100787015D01*
X171899100Y-100880147D01*
X171744228Y-100944297D01*
X171579816Y-100977000D01*
X171412184Y-100977000D01*
X171247772Y-100944297D01*
X171092900Y-100880147D01*
X170953519Y-100787015D01*
X170834985Y-100668481D01*
X170741853Y-100529100D01*
X170677703Y-100374228D01*
X170645000Y-100209816D01*
X170645000Y-100042184D01*
X170677703Y-99877772D01*
X170741853Y-99722900D01*
X170834985Y-99583519D01*
X170953519Y-99464985D01*
X171092900Y-99371853D01*
X171247772Y-99307703D01*
X171412184Y-99275000D01*
X171579816Y-99275000D01*
X171744228Y-99307703D01*
G37*
G36*
X168904228Y-97922703D02*
G01*
X169059100Y-97986853D01*
X169198481Y-98079985D01*
X169317015Y-98198519D01*
X169410147Y-98337900D01*
X169474297Y-98492772D01*
X169507000Y-98657184D01*
X169507000Y-98824816D01*
X169474297Y-98989228D01*
X169410147Y-99144100D01*
X169317015Y-99283481D01*
X169198481Y-99402015D01*
X169059100Y-99495147D01*
X168904228Y-99559297D01*
X168739816Y-99592000D01*
X168572184Y-99592000D01*
X168407772Y-99559297D01*
X168252900Y-99495147D01*
X168113519Y-99402015D01*
X167994985Y-99283481D01*
X167901853Y-99144100D01*
X167837703Y-98989228D01*
X167805000Y-98824816D01*
X167805000Y-98657184D01*
X167837703Y-98492772D01*
X167901853Y-98337900D01*
X167994985Y-98198519D01*
X168113519Y-98079985D01*
X168252900Y-97986853D01*
X168407772Y-97922703D01*
X168572184Y-97890000D01*
X168739816Y-97890000D01*
X168904228Y-97922703D01*
G37*
G36*
X171744228Y-96537703D02*
G01*
X171899100Y-96601853D01*
X172038481Y-96694985D01*
X172157015Y-96813519D01*
X172250147Y-96952900D01*
X172314297Y-97107772D01*
X172347000Y-97272184D01*
X172347000Y-97439816D01*
X172314297Y-97604228D01*
X172250147Y-97759100D01*
X172157015Y-97898481D01*
X172038481Y-98017015D01*
X171899100Y-98110147D01*
X171744228Y-98174297D01*
X171579816Y-98207000D01*
X171412184Y-98207000D01*
X171247772Y-98174297D01*
X171092900Y-98110147D01*
X170953519Y-98017015D01*
X170834985Y-97898481D01*
X170741853Y-97759100D01*
X170677703Y-97604228D01*
X170645000Y-97439816D01*
X170645000Y-97272184D01*
X170677703Y-97107772D01*
X170741853Y-96952900D01*
X170834985Y-96813519D01*
X170953519Y-96694985D01*
X171092900Y-96601853D01*
X171247772Y-96537703D01*
X171412184Y-96505000D01*
X171579816Y-96505000D01*
X171744228Y-96537703D01*
G37*
G36*
X119950000Y-97852000D02*
G01*
X118048000Y-97852000D01*
X118048000Y-95950000D01*
X119950000Y-95950000D01*
X119950000Y-97852000D01*
G37*
G36*
X121816395Y-95986546D02*
G01*
X121989466Y-96058234D01*
X121989467Y-96058235D01*
X122145227Y-96162310D01*
X122277690Y-96294773D01*
X122277691Y-96294775D01*
X122381766Y-96450534D01*
X122453454Y-96623605D01*
X122490000Y-96807333D01*
X122490000Y-96994667D01*
X122453454Y-97178395D01*
X122381766Y-97351466D01*
X122375226Y-97361254D01*
X122277690Y-97507227D01*
X122145227Y-97639690D01*
X122105851Y-97666000D01*
X121989466Y-97743766D01*
X121816395Y-97815454D01*
X121632667Y-97852000D01*
X121445333Y-97852000D01*
X121261605Y-97815454D01*
X121088534Y-97743766D01*
X120972149Y-97666000D01*
X120932773Y-97639690D01*
X120800310Y-97507227D01*
X120702774Y-97361254D01*
X120696234Y-97351466D01*
X120624546Y-97178395D01*
X120588000Y-96994667D01*
X120588000Y-96807333D01*
X120624546Y-96623605D01*
X120696234Y-96450534D01*
X120800309Y-96294775D01*
X120800310Y-96294773D01*
X120932773Y-96162310D01*
X121088533Y-96058235D01*
X121088534Y-96058234D01*
X121261605Y-95986546D01*
X121445333Y-95950000D01*
X121632667Y-95950000D01*
X121816395Y-95986546D01*
G37*
G36*
X127980674Y-96154465D02*
G01*
X128018367Y-96165899D01*
X128053103Y-96184466D01*
X128083548Y-96209452D01*
X128108534Y-96239897D01*
X128127101Y-96274633D01*
X128138535Y-96312326D01*
X128143000Y-96357661D01*
X128143000Y-97444339D01*
X128138535Y-97489674D01*
X128127101Y-97527367D01*
X128108534Y-97562103D01*
X128083548Y-97592548D01*
X128053103Y-97617534D01*
X128018367Y-97636101D01*
X127980674Y-97647535D01*
X127935339Y-97652000D01*
X127098661Y-97652000D01*
X127053326Y-97647535D01*
X127015633Y-97636101D01*
X126980897Y-97617534D01*
X126950452Y-97592548D01*
X126925466Y-97562103D01*
X126906899Y-97527367D01*
X126895465Y-97489674D01*
X126891000Y-97444339D01*
X126891000Y-96357661D01*
X126895465Y-96312326D01*
X126906899Y-96274633D01*
X126925466Y-96239897D01*
X126950452Y-96209452D01*
X126980897Y-96184466D01*
X127015633Y-96165899D01*
X127053326Y-96154465D01*
X127098661Y-96150000D01*
X127935339Y-96150000D01*
X127980674Y-96154465D01*
G37*
G36*
X125930674Y-96154465D02*
G01*
X125968367Y-96165899D01*
X126003103Y-96184466D01*
X126033548Y-96209452D01*
X126058534Y-96239897D01*
X126077101Y-96274633D01*
X126088535Y-96312326D01*
X126093000Y-96357661D01*
X126093000Y-97444339D01*
X126088535Y-97489674D01*
X126077101Y-97527367D01*
X126058534Y-97562103D01*
X126033548Y-97592548D01*
X126003103Y-97617534D01*
X125968367Y-97636101D01*
X125930674Y-97647535D01*
X125885339Y-97652000D01*
X125048661Y-97652000D01*
X125003326Y-97647535D01*
X124965633Y-97636101D01*
X124930897Y-97617534D01*
X124900452Y-97592548D01*
X124875466Y-97562103D01*
X124856899Y-97527367D01*
X124845465Y-97489674D01*
X124841000Y-97444339D01*
X124841000Y-96357661D01*
X124845465Y-96312326D01*
X124856899Y-96274633D01*
X124875466Y-96239897D01*
X124900452Y-96209452D01*
X124930897Y-96184466D01*
X124965633Y-96165899D01*
X125003326Y-96154465D01*
X125048661Y-96150000D01*
X125885339Y-96150000D01*
X125930674Y-96154465D01*
G37*
G36*
X168904228Y-95152703D02*
G01*
X169059100Y-95216853D01*
X169198481Y-95309985D01*
X169317015Y-95428519D01*
X169410147Y-95567900D01*
X169474297Y-95722772D01*
X169507000Y-95887184D01*
X169507000Y-96054816D01*
X169474297Y-96219228D01*
X169410147Y-96374100D01*
X169317015Y-96513481D01*
X169198481Y-96632015D01*
X169059100Y-96725147D01*
X168904228Y-96789297D01*
X168739816Y-96822000D01*
X168572184Y-96822000D01*
X168407772Y-96789297D01*
X168252900Y-96725147D01*
X168113519Y-96632015D01*
X167994985Y-96513481D01*
X167901853Y-96374100D01*
X167837703Y-96219228D01*
X167805000Y-96054816D01*
X167805000Y-95887184D01*
X167837703Y-95722772D01*
X167901853Y-95567900D01*
X167994985Y-95428519D01*
X168113519Y-95309985D01*
X168252900Y-95216853D01*
X168407772Y-95152703D01*
X168572184Y-95120000D01*
X168739816Y-95120000D01*
X168904228Y-95152703D01*
G37*
G36*
X171744228Y-93767703D02*
G01*
X171899100Y-93831853D01*
X172038481Y-93924985D01*
X172157015Y-94043519D01*
X172250147Y-94182900D01*
X172314297Y-94337772D01*
X172347000Y-94502184D01*
X172347000Y-94669816D01*
X172314297Y-94834228D01*
X172250147Y-94989100D01*
X172157015Y-95128481D01*
X172038481Y-95247015D01*
X171899100Y-95340147D01*
X171744228Y-95404297D01*
X171579816Y-95437000D01*
X171412184Y-95437000D01*
X171247772Y-95404297D01*
X171092900Y-95340147D01*
X170953519Y-95247015D01*
X170834985Y-95128481D01*
X170741853Y-94989100D01*
X170677703Y-94834228D01*
X170645000Y-94669816D01*
X170645000Y-94502184D01*
X170677703Y-94337772D01*
X170741853Y-94182900D01*
X170834985Y-94043519D01*
X170953519Y-93924985D01*
X171092900Y-93831853D01*
X171247772Y-93767703D01*
X171412184Y-93735000D01*
X171579816Y-93735000D01*
X171744228Y-93767703D01*
G37*
G36*
X168904228Y-92382703D02*
G01*
X169059100Y-92446853D01*
X169198481Y-92539985D01*
X169317015Y-92658519D01*
X169410147Y-92797900D01*
X169474297Y-92952772D01*
X169507000Y-93117184D01*
X169507000Y-93284816D01*
X169474297Y-93449228D01*
X169410147Y-93604100D01*
X169317015Y-93743481D01*
X169198481Y-93862015D01*
X169059100Y-93955147D01*
X168904228Y-94019297D01*
X168739816Y-94052000D01*
X168572184Y-94052000D01*
X168407772Y-94019297D01*
X168252900Y-93955147D01*
X168113519Y-93862015D01*
X167994985Y-93743481D01*
X167901853Y-93604100D01*
X167837703Y-93449228D01*
X167805000Y-93284816D01*
X167805000Y-93117184D01*
X167837703Y-92952772D01*
X167901853Y-92797900D01*
X167994985Y-92658519D01*
X168113519Y-92539985D01*
X168252900Y-92446853D01*
X168407772Y-92382703D01*
X168572184Y-92350000D01*
X168739816Y-92350000D01*
X168904228Y-92382703D01*
G37*
G36*
X171744228Y-90997703D02*
G01*
X171899100Y-91061853D01*
X172038481Y-91154985D01*
X172157015Y-91273519D01*
X172250147Y-91412900D01*
X172314297Y-91567772D01*
X172347000Y-91732184D01*
X172347000Y-91899816D01*
X172314297Y-92064228D01*
X172250147Y-92219100D01*
X172157015Y-92358481D01*
X172038481Y-92477015D01*
X171899100Y-92570147D01*
X171744228Y-92634297D01*
X171579816Y-92667000D01*
X171412184Y-92667000D01*
X171247772Y-92634297D01*
X171092900Y-92570147D01*
X170953519Y-92477015D01*
X170834985Y-92358481D01*
X170741853Y-92219100D01*
X170677703Y-92064228D01*
X170645000Y-91899816D01*
X170645000Y-91732184D01*
X170677703Y-91567772D01*
X170741853Y-91412900D01*
X170834985Y-91273519D01*
X170953519Y-91154985D01*
X171092900Y-91061853D01*
X171247772Y-90997703D01*
X171412184Y-90965000D01*
X171579816Y-90965000D01*
X171744228Y-90997703D01*
G37*
G36*
X168904228Y-89612703D02*
G01*
X169059100Y-89676853D01*
X169198481Y-89769985D01*
X169317015Y-89888519D01*
X169410147Y-90027900D01*
X169474297Y-90182772D01*
X169507000Y-90347184D01*
X169507000Y-90514816D01*
X169474297Y-90679228D01*
X169410147Y-90834100D01*
X169317015Y-90973481D01*
X169198481Y-91092015D01*
X169059100Y-91185147D01*
X168904228Y-91249297D01*
X168739816Y-91282000D01*
X168572184Y-91282000D01*
X168407772Y-91249297D01*
X168252900Y-91185147D01*
X168113519Y-91092015D01*
X167994985Y-90973481D01*
X167901853Y-90834100D01*
X167837703Y-90679228D01*
X167805000Y-90514816D01*
X167805000Y-90347184D01*
X167837703Y-90182772D01*
X167901853Y-90027900D01*
X167994985Y-89888519D01*
X168113519Y-89769985D01*
X168252900Y-89676853D01*
X168407772Y-89612703D01*
X168572184Y-89580000D01*
X168739816Y-89580000D01*
X168904228Y-89612703D01*
G37*
G36*
X142966674Y-89677465D02*
G01*
X143004367Y-89688899D01*
X143039103Y-89707466D01*
X143069548Y-89732452D01*
X143094534Y-89762897D01*
X143113101Y-89797633D01*
X143124535Y-89835326D01*
X143129000Y-89880661D01*
X143129000Y-90967339D01*
X143124535Y-91012674D01*
X143113101Y-91050367D01*
X143094534Y-91085103D01*
X143069548Y-91115548D01*
X143039103Y-91140534D01*
X143004367Y-91159101D01*
X142966674Y-91170535D01*
X142921339Y-91175000D01*
X142084661Y-91175000D01*
X142039326Y-91170535D01*
X142001633Y-91159101D01*
X141966897Y-91140534D01*
X141936452Y-91115548D01*
X141911466Y-91085103D01*
X141892899Y-91050367D01*
X141881465Y-91012674D01*
X141877000Y-90967339D01*
X141877000Y-89880661D01*
X141881465Y-89835326D01*
X141892899Y-89797633D01*
X141911466Y-89762897D01*
X141936452Y-89732452D01*
X141966897Y-89707466D01*
X142001633Y-89688899D01*
X142039326Y-89677465D01*
X142084661Y-89673000D01*
X142921339Y-89673000D01*
X142966674Y-89677465D01*
G37*
G36*
X140916674Y-89677465D02*
G01*
X140954367Y-89688899D01*
X140989103Y-89707466D01*
X141019548Y-89732452D01*
X141044534Y-89762897D01*
X141063101Y-89797633D01*
X141074535Y-89835326D01*
X141079000Y-89880661D01*
X141079000Y-90967339D01*
X141074535Y-91012674D01*
X141063101Y-91050367D01*
X141044534Y-91085103D01*
X141019548Y-91115548D01*
X140989103Y-91140534D01*
X140954367Y-91159101D01*
X140916674Y-91170535D01*
X140871339Y-91175000D01*
X140034661Y-91175000D01*
X139989326Y-91170535D01*
X139951633Y-91159101D01*
X139916897Y-91140534D01*
X139886452Y-91115548D01*
X139861466Y-91085103D01*
X139842899Y-91050367D01*
X139831465Y-91012674D01*
X139827000Y-90967339D01*
X139827000Y-89880661D01*
X139831465Y-89835326D01*
X139842899Y-89797633D01*
X139861466Y-89762897D01*
X139886452Y-89732452D01*
X139916897Y-89707466D01*
X139951633Y-89688899D01*
X139989326Y-89677465D01*
X140034661Y-89673000D01*
X140871339Y-89673000D01*
X140916674Y-89677465D01*
G37*
G36*
X121816395Y-88874546D02*
G01*
X121989466Y-88946234D01*
X122013338Y-88962185D01*
X122145227Y-89050310D01*
X122277690Y-89182773D01*
X122277691Y-89182775D01*
X122381766Y-89338534D01*
X122453454Y-89511605D01*
X122490000Y-89695333D01*
X122490000Y-89882667D01*
X122453454Y-90066395D01*
X122381766Y-90239466D01*
X122381765Y-90239467D01*
X122277690Y-90395227D01*
X122145227Y-90527690D01*
X122066818Y-90580081D01*
X121989466Y-90631766D01*
X121816395Y-90703454D01*
X121632667Y-90740000D01*
X121445333Y-90740000D01*
X121261605Y-90703454D01*
X121088534Y-90631766D01*
X121011182Y-90580081D01*
X120932773Y-90527690D01*
X120800310Y-90395227D01*
X120696235Y-90239467D01*
X120696234Y-90239466D01*
X120624546Y-90066395D01*
X120588000Y-89882667D01*
X120588000Y-89695333D01*
X120624546Y-89511605D01*
X120696234Y-89338534D01*
X120800309Y-89182775D01*
X120800310Y-89182773D01*
X120932773Y-89050310D01*
X121064662Y-88962185D01*
X121088534Y-88946234D01*
X121261605Y-88874546D01*
X121445333Y-88838000D01*
X121632667Y-88838000D01*
X121816395Y-88874546D01*
G37*
G36*
X119950000Y-90740000D02*
G01*
X118048000Y-90740000D01*
X118048000Y-88838000D01*
X119950000Y-88838000D01*
X119950000Y-90740000D01*
G37*
G36*
X125930674Y-89042465D02*
G01*
X125968367Y-89053899D01*
X126003103Y-89072466D01*
X126033548Y-89097452D01*
X126058534Y-89127897D01*
X126077101Y-89162633D01*
X126088535Y-89200326D01*
X126093000Y-89245661D01*
X126093000Y-90332339D01*
X126088535Y-90377674D01*
X126077101Y-90415367D01*
X126058534Y-90450103D01*
X126033548Y-90480548D01*
X126003103Y-90505534D01*
X125968367Y-90524101D01*
X125930674Y-90535535D01*
X125885339Y-90540000D01*
X125048661Y-90540000D01*
X125003326Y-90535535D01*
X124965633Y-90524101D01*
X124930897Y-90505534D01*
X124900452Y-90480548D01*
X124875466Y-90450103D01*
X124856899Y-90415367D01*
X124845465Y-90377674D01*
X124841000Y-90332339D01*
X124841000Y-89245661D01*
X124845465Y-89200326D01*
X124856899Y-89162633D01*
X124875466Y-89127897D01*
X124900452Y-89097452D01*
X124930897Y-89072466D01*
X124965633Y-89053899D01*
X125003326Y-89042465D01*
X125048661Y-89038000D01*
X125885339Y-89038000D01*
X125930674Y-89042465D01*
G37*
G36*
X127980674Y-89042465D02*
G01*
X128018367Y-89053899D01*
X128053103Y-89072466D01*
X128083548Y-89097452D01*
X128108534Y-89127897D01*
X128127101Y-89162633D01*
X128138535Y-89200326D01*
X128143000Y-89245661D01*
X128143000Y-90332339D01*
X128138535Y-90377674D01*
X128127101Y-90415367D01*
X128108534Y-90450103D01*
X128083548Y-90480548D01*
X128053103Y-90505534D01*
X128018367Y-90524101D01*
X127980674Y-90535535D01*
X127935339Y-90540000D01*
X127098661Y-90540000D01*
X127053326Y-90535535D01*
X127015633Y-90524101D01*
X126980897Y-90505534D01*
X126950452Y-90480548D01*
X126925466Y-90450103D01*
X126906899Y-90415367D01*
X126895465Y-90377674D01*
X126891000Y-90332339D01*
X126891000Y-89245661D01*
X126895465Y-89200326D01*
X126906899Y-89162633D01*
X126925466Y-89127897D01*
X126950452Y-89097452D01*
X126980897Y-89072466D01*
X127015633Y-89053899D01*
X127053326Y-89042465D01*
X127098661Y-89038000D01*
X127935339Y-89038000D01*
X127980674Y-89042465D01*
G37*
G36*
X171744228Y-88227703D02*
G01*
X171899100Y-88291853D01*
X172038481Y-88384985D01*
X172157015Y-88503519D01*
X172250147Y-88642900D01*
X172314297Y-88797772D01*
X172347000Y-88962184D01*
X172347000Y-89129816D01*
X172314297Y-89294228D01*
X172250147Y-89449100D01*
X172157015Y-89588481D01*
X172038481Y-89707015D01*
X171899100Y-89800147D01*
X171744228Y-89864297D01*
X171579816Y-89897000D01*
X171412184Y-89897000D01*
X171247772Y-89864297D01*
X171092900Y-89800147D01*
X170953519Y-89707015D01*
X170834985Y-89588481D01*
X170741853Y-89449100D01*
X170677703Y-89294228D01*
X170645000Y-89129816D01*
X170645000Y-88962184D01*
X170677703Y-88797772D01*
X170741853Y-88642900D01*
X170834985Y-88503519D01*
X170953519Y-88384985D01*
X171092900Y-88291853D01*
X171247772Y-88227703D01*
X171412184Y-88195000D01*
X171579816Y-88195000D01*
X171744228Y-88227703D01*
G37*
G36*
X152141000Y-89151000D02*
G01*
X151039000Y-89151000D01*
X151039000Y-87249000D01*
X152141000Y-87249000D01*
X152141000Y-89151000D01*
G37*
G36*
X154141000Y-89151000D02*
G01*
X153039000Y-89151000D01*
X153039000Y-87249000D01*
X154141000Y-87249000D01*
X154141000Y-89151000D01*
G37*
G36*
X148141000Y-89151000D02*
G01*
X147039000Y-89151000D01*
X147039000Y-87249000D01*
X148141000Y-87249000D01*
X148141000Y-89151000D01*
G37*
G36*
X146141000Y-89151000D02*
G01*
X145039000Y-89151000D01*
X145039000Y-87249000D01*
X146141000Y-87249000D01*
X146141000Y-89151000D01*
G37*
G36*
X144141000Y-89151000D02*
G01*
X143039000Y-89151000D01*
X143039000Y-87249000D01*
X144141000Y-87249000D01*
X144141000Y-89151000D01*
G37*
G36*
X150141000Y-89151000D02*
G01*
X149039000Y-89151000D01*
X149039000Y-87249000D01*
X150141000Y-87249000D01*
X150141000Y-89151000D01*
G37*
G36*
X162270674Y-87391465D02*
G01*
X162308367Y-87402899D01*
X162343103Y-87421466D01*
X162373548Y-87446452D01*
X162398534Y-87476897D01*
X162417101Y-87511633D01*
X162428535Y-87549326D01*
X162433000Y-87594661D01*
X162433000Y-88681339D01*
X162428535Y-88726674D01*
X162417101Y-88764367D01*
X162398534Y-88799103D01*
X162373548Y-88829548D01*
X162343103Y-88854534D01*
X162308367Y-88873101D01*
X162270674Y-88884535D01*
X162225339Y-88889000D01*
X161388661Y-88889000D01*
X161343326Y-88884535D01*
X161305633Y-88873101D01*
X161270897Y-88854534D01*
X161240452Y-88829548D01*
X161215466Y-88799103D01*
X161196899Y-88764367D01*
X161185465Y-88726674D01*
X161181000Y-88681339D01*
X161181000Y-87594661D01*
X161185465Y-87549326D01*
X161196899Y-87511633D01*
X161215466Y-87476897D01*
X161240452Y-87446452D01*
X161270897Y-87421466D01*
X161305633Y-87402899D01*
X161343326Y-87391465D01*
X161388661Y-87387000D01*
X162225339Y-87387000D01*
X162270674Y-87391465D01*
G37*
G36*
X160220674Y-87391465D02*
G01*
X160258367Y-87402899D01*
X160293103Y-87421466D01*
X160323548Y-87446452D01*
X160348534Y-87476897D01*
X160367101Y-87511633D01*
X160378535Y-87549326D01*
X160383000Y-87594661D01*
X160383000Y-88681339D01*
X160378535Y-88726674D01*
X160367101Y-88764367D01*
X160348534Y-88799103D01*
X160323548Y-88829548D01*
X160293103Y-88854534D01*
X160258367Y-88873101D01*
X160220674Y-88884535D01*
X160175339Y-88889000D01*
X159338661Y-88889000D01*
X159293326Y-88884535D01*
X159255633Y-88873101D01*
X159220897Y-88854534D01*
X159190452Y-88829548D01*
X159165466Y-88799103D01*
X159146899Y-88764367D01*
X159135465Y-88726674D01*
X159131000Y-88681339D01*
X159131000Y-87594661D01*
X159135465Y-87549326D01*
X159146899Y-87511633D01*
X159165466Y-87476897D01*
X159190452Y-87446452D01*
X159220897Y-87421466D01*
X159255633Y-87402899D01*
X159293326Y-87391465D01*
X159338661Y-87387000D01*
X160175339Y-87387000D01*
X160220674Y-87391465D01*
G37*
G36*
X168904228Y-86842703D02*
G01*
X169059100Y-86906853D01*
X169198481Y-86999985D01*
X169317015Y-87118519D01*
X169410147Y-87257900D01*
X169474297Y-87412772D01*
X169507000Y-87577184D01*
X169507000Y-87744816D01*
X169474297Y-87909228D01*
X169410147Y-88064100D01*
X169317015Y-88203481D01*
X169198481Y-88322015D01*
X169059100Y-88415147D01*
X168904228Y-88479297D01*
X168739816Y-88512000D01*
X168572184Y-88512000D01*
X168407772Y-88479297D01*
X168252900Y-88415147D01*
X168113519Y-88322015D01*
X167994985Y-88203481D01*
X167901853Y-88064100D01*
X167837703Y-87909228D01*
X167805000Y-87744816D01*
X167805000Y-87577184D01*
X167837703Y-87412772D01*
X167901853Y-87257900D01*
X167994985Y-87118519D01*
X168113519Y-86999985D01*
X168252900Y-86906853D01*
X168407772Y-86842703D01*
X168572184Y-86810000D01*
X168739816Y-86810000D01*
X168904228Y-86842703D01*
G37*
G36*
X142291000Y-87251000D02*
G01*
X139689000Y-87251000D01*
X139689000Y-86149000D01*
X142291000Y-86149000D01*
X142291000Y-87251000D01*
G37*
G36*
X157491000Y-87251000D02*
G01*
X154889000Y-87251000D01*
X154889000Y-86149000D01*
X157491000Y-86149000D01*
X157491000Y-87251000D01*
G37*
G36*
X171744228Y-85457703D02*
G01*
X171899100Y-85521853D01*
X172038481Y-85614985D01*
X172157015Y-85733519D01*
X172250147Y-85872900D01*
X172314297Y-86027772D01*
X172347000Y-86192184D01*
X172347000Y-86359816D01*
X172314297Y-86524228D01*
X172250147Y-86679100D01*
X172157015Y-86818481D01*
X172038481Y-86937015D01*
X171899100Y-87030147D01*
X171744228Y-87094297D01*
X171579816Y-87127000D01*
X171412184Y-87127000D01*
X171247772Y-87094297D01*
X171092900Y-87030147D01*
X170953519Y-86937015D01*
X170834985Y-86818481D01*
X170741853Y-86679100D01*
X170677703Y-86524228D01*
X170645000Y-86359816D01*
X170645000Y-86192184D01*
X170677703Y-86027772D01*
X170741853Y-85872900D01*
X170834985Y-85733519D01*
X170953519Y-85614985D01*
X171092900Y-85521853D01*
X171247772Y-85457703D01*
X171412184Y-85425000D01*
X171579816Y-85425000D01*
X171744228Y-85457703D01*
G37*
G36*
X168904228Y-84072703D02*
G01*
X169059100Y-84136853D01*
X169198481Y-84229985D01*
X169317015Y-84348519D01*
X169410147Y-84487900D01*
X169474297Y-84642772D01*
X169507000Y-84807184D01*
X169507000Y-84974816D01*
X169474297Y-85139228D01*
X169410147Y-85294100D01*
X169317015Y-85433481D01*
X169198481Y-85552015D01*
X169059100Y-85645147D01*
X168904228Y-85709297D01*
X168739816Y-85742000D01*
X168572184Y-85742000D01*
X168407772Y-85709297D01*
X168252900Y-85645147D01*
X168113519Y-85552015D01*
X167994985Y-85433481D01*
X167901853Y-85294100D01*
X167837703Y-85139228D01*
X167805000Y-84974816D01*
X167805000Y-84807184D01*
X167837703Y-84642772D01*
X167901853Y-84487900D01*
X167994985Y-84348519D01*
X168113519Y-84229985D01*
X168252900Y-84136853D01*
X168407772Y-84072703D01*
X168572184Y-84040000D01*
X168739816Y-84040000D01*
X168904228Y-84072703D01*
G37*
G36*
X157491000Y-85251000D02*
G01*
X154889000Y-85251000D01*
X154889000Y-84149000D01*
X157491000Y-84149000D01*
X157491000Y-85251000D01*
G37*
G36*
X142291000Y-85251000D02*
G01*
X139689000Y-85251000D01*
X139689000Y-84149000D01*
X142291000Y-84149000D01*
X142291000Y-85251000D01*
G37*
G36*
X171744228Y-82687703D02*
G01*
X171899100Y-82751853D01*
X172038481Y-82844985D01*
X172157015Y-82963519D01*
X172250147Y-83102900D01*
X172314297Y-83257772D01*
X172347000Y-83422184D01*
X172347000Y-83589816D01*
X172314297Y-83754228D01*
X172250147Y-83909100D01*
X172157015Y-84048481D01*
X172038481Y-84167015D01*
X171899100Y-84260147D01*
X171744228Y-84324297D01*
X171579816Y-84357000D01*
X171412184Y-84357000D01*
X171247772Y-84324297D01*
X171092900Y-84260147D01*
X170953519Y-84167015D01*
X170834985Y-84048481D01*
X170741853Y-83909100D01*
X170677703Y-83754228D01*
X170645000Y-83589816D01*
X170645000Y-83422184D01*
X170677703Y-83257772D01*
X170741853Y-83102900D01*
X170834985Y-82963519D01*
X170953519Y-82844985D01*
X171092900Y-82751853D01*
X171247772Y-82687703D01*
X171412184Y-82655000D01*
X171579816Y-82655000D01*
X171744228Y-82687703D01*
G37*
G36*
X160220674Y-82692465D02*
G01*
X160258367Y-82703899D01*
X160293103Y-82722466D01*
X160323548Y-82747452D01*
X160348534Y-82777897D01*
X160367101Y-82812633D01*
X160378535Y-82850326D01*
X160383000Y-82895661D01*
X160383000Y-83982339D01*
X160378535Y-84027674D01*
X160367101Y-84065367D01*
X160348534Y-84100103D01*
X160323548Y-84130548D01*
X160293103Y-84155534D01*
X160258367Y-84174101D01*
X160220674Y-84185535D01*
X160175339Y-84190000D01*
X159338661Y-84190000D01*
X159293326Y-84185535D01*
X159255633Y-84174101D01*
X159220897Y-84155534D01*
X159190452Y-84130548D01*
X159165466Y-84100103D01*
X159146899Y-84065367D01*
X159135465Y-84027674D01*
X159131000Y-83982339D01*
X159131000Y-82895661D01*
X159135465Y-82850326D01*
X159146899Y-82812633D01*
X159165466Y-82777897D01*
X159190452Y-82747452D01*
X159220897Y-82722466D01*
X159255633Y-82703899D01*
X159293326Y-82692465D01*
X159338661Y-82688000D01*
X160175339Y-82688000D01*
X160220674Y-82692465D01*
G37*
G36*
X162270674Y-82692465D02*
G01*
X162308367Y-82703899D01*
X162343103Y-82722466D01*
X162373548Y-82747452D01*
X162398534Y-82777897D01*
X162417101Y-82812633D01*
X162428535Y-82850326D01*
X162433000Y-82895661D01*
X162433000Y-83982339D01*
X162428535Y-84027674D01*
X162417101Y-84065367D01*
X162398534Y-84100103D01*
X162373548Y-84130548D01*
X162343103Y-84155534D01*
X162308367Y-84174101D01*
X162270674Y-84185535D01*
X162225339Y-84190000D01*
X161388661Y-84190000D01*
X161343326Y-84185535D01*
X161305633Y-84174101D01*
X161270897Y-84155534D01*
X161240452Y-84130548D01*
X161215466Y-84100103D01*
X161196899Y-84065367D01*
X161185465Y-84027674D01*
X161181000Y-83982339D01*
X161181000Y-82895661D01*
X161185465Y-82850326D01*
X161196899Y-82812633D01*
X161215466Y-82777897D01*
X161240452Y-82747452D01*
X161270897Y-82722466D01*
X161305633Y-82703899D01*
X161343326Y-82692465D01*
X161388661Y-82688000D01*
X162225339Y-82688000D01*
X162270674Y-82692465D01*
G37*
G36*
X121816395Y-81762546D02*
G01*
X121989466Y-81834234D01*
X122047142Y-81872772D01*
X122145227Y-81938310D01*
X122277690Y-82070773D01*
X122277691Y-82070775D01*
X122381766Y-82226534D01*
X122453454Y-82399605D01*
X122490000Y-82583333D01*
X122490000Y-82770667D01*
X122453454Y-82954395D01*
X122381766Y-83127466D01*
X122374277Y-83138674D01*
X122277690Y-83283227D01*
X122145227Y-83415690D01*
X122066818Y-83468081D01*
X121989466Y-83519766D01*
X121816395Y-83591454D01*
X121632667Y-83628000D01*
X121445333Y-83628000D01*
X121261605Y-83591454D01*
X121088534Y-83519766D01*
X121011182Y-83468081D01*
X120932773Y-83415690D01*
X120800310Y-83283227D01*
X120703723Y-83138674D01*
X120696234Y-83127466D01*
X120624546Y-82954395D01*
X120588000Y-82770667D01*
X120588000Y-82583333D01*
X120624546Y-82399605D01*
X120696234Y-82226534D01*
X120800309Y-82070775D01*
X120800310Y-82070773D01*
X120932773Y-81938310D01*
X121030858Y-81872772D01*
X121088534Y-81834234D01*
X121261605Y-81762546D01*
X121445333Y-81726000D01*
X121632667Y-81726000D01*
X121816395Y-81762546D01*
G37*
G36*
X119950000Y-83628000D02*
G01*
X118048000Y-83628000D01*
X118048000Y-81726000D01*
X119950000Y-81726000D01*
X119950000Y-83628000D01*
G37*
G36*
X125930674Y-81930465D02*
G01*
X125968367Y-81941899D01*
X126003103Y-81960466D01*
X126033548Y-81985452D01*
X126058534Y-82015897D01*
X126077101Y-82050633D01*
X126088535Y-82088326D01*
X126093000Y-82133661D01*
X126093000Y-83220339D01*
X126088535Y-83265674D01*
X126077101Y-83303367D01*
X126058534Y-83338103D01*
X126033548Y-83368548D01*
X126003103Y-83393534D01*
X125968367Y-83412101D01*
X125930674Y-83423535D01*
X125885339Y-83428000D01*
X125048661Y-83428000D01*
X125003326Y-83423535D01*
X124965633Y-83412101D01*
X124930897Y-83393534D01*
X124900452Y-83368548D01*
X124875466Y-83338103D01*
X124856899Y-83303367D01*
X124845465Y-83265674D01*
X124841000Y-83220339D01*
X124841000Y-82133661D01*
X124845465Y-82088326D01*
X124856899Y-82050633D01*
X124875466Y-82015897D01*
X124900452Y-81985452D01*
X124930897Y-81960466D01*
X124965633Y-81941899D01*
X125003326Y-81930465D01*
X125048661Y-81926000D01*
X125885339Y-81926000D01*
X125930674Y-81930465D01*
G37*
G36*
X127980674Y-81930465D02*
G01*
X128018367Y-81941899D01*
X128053103Y-81960466D01*
X128083548Y-81985452D01*
X128108534Y-82015897D01*
X128127101Y-82050633D01*
X128138535Y-82088326D01*
X128143000Y-82133661D01*
X128143000Y-83220339D01*
X128138535Y-83265674D01*
X128127101Y-83303367D01*
X128108534Y-83338103D01*
X128083548Y-83368548D01*
X128053103Y-83393534D01*
X128018367Y-83412101D01*
X127980674Y-83423535D01*
X127935339Y-83428000D01*
X127098661Y-83428000D01*
X127053326Y-83423535D01*
X127015633Y-83412101D01*
X126980897Y-83393534D01*
X126950452Y-83368548D01*
X126925466Y-83338103D01*
X126906899Y-83303367D01*
X126895465Y-83265674D01*
X126891000Y-83220339D01*
X126891000Y-82133661D01*
X126895465Y-82088326D01*
X126906899Y-82050633D01*
X126925466Y-82015897D01*
X126950452Y-81985452D01*
X126980897Y-81960466D01*
X127015633Y-81941899D01*
X127053326Y-81930465D01*
X127098661Y-81926000D01*
X127935339Y-81926000D01*
X127980674Y-81930465D01*
G37*
G36*
X137886674Y-81803465D02*
G01*
X137924367Y-81814899D01*
X137959103Y-81833466D01*
X137989548Y-81858452D01*
X138014534Y-81888897D01*
X138033101Y-81923633D01*
X138044535Y-81961326D01*
X138049000Y-82006661D01*
X138049000Y-83093339D01*
X138044535Y-83138674D01*
X138033101Y-83176367D01*
X138014534Y-83211103D01*
X137989548Y-83241548D01*
X137959103Y-83266534D01*
X137924367Y-83285101D01*
X137886674Y-83296535D01*
X137841339Y-83301000D01*
X137004661Y-83301000D01*
X136959326Y-83296535D01*
X136921633Y-83285101D01*
X136886897Y-83266534D01*
X136856452Y-83241548D01*
X136831466Y-83211103D01*
X136812899Y-83176367D01*
X136801465Y-83138674D01*
X136797000Y-83093339D01*
X136797000Y-82006661D01*
X136801465Y-81961326D01*
X136812899Y-81923633D01*
X136831466Y-81888897D01*
X136856452Y-81858452D01*
X136886897Y-81833466D01*
X136921633Y-81814899D01*
X136959326Y-81803465D01*
X137004661Y-81799000D01*
X137841339Y-81799000D01*
X137886674Y-81803465D01*
G37*
G36*
X135836674Y-81803465D02*
G01*
X135874367Y-81814899D01*
X135909103Y-81833466D01*
X135939548Y-81858452D01*
X135964534Y-81888897D01*
X135983101Y-81923633D01*
X135994535Y-81961326D01*
X135999000Y-82006661D01*
X135999000Y-83093339D01*
X135994535Y-83138674D01*
X135983101Y-83176367D01*
X135964534Y-83211103D01*
X135939548Y-83241548D01*
X135909103Y-83266534D01*
X135874367Y-83285101D01*
X135836674Y-83296535D01*
X135791339Y-83301000D01*
X134954661Y-83301000D01*
X134909326Y-83296535D01*
X134871633Y-83285101D01*
X134836897Y-83266534D01*
X134806452Y-83241548D01*
X134781466Y-83211103D01*
X134762899Y-83176367D01*
X134751465Y-83138674D01*
X134747000Y-83093339D01*
X134747000Y-82006661D01*
X134751465Y-81961326D01*
X134762899Y-81923633D01*
X134781466Y-81888897D01*
X134806452Y-81858452D01*
X134836897Y-81833466D01*
X134871633Y-81814899D01*
X134909326Y-81803465D01*
X134954661Y-81799000D01*
X135791339Y-81799000D01*
X135836674Y-81803465D01*
G37*
G36*
X157491000Y-83251000D02*
G01*
X154889000Y-83251000D01*
X154889000Y-82149000D01*
X157491000Y-82149000D01*
X157491000Y-83251000D01*
G37*
G36*
X142291000Y-83251000D02*
G01*
X139689000Y-83251000D01*
X139689000Y-82149000D01*
X142291000Y-82149000D01*
X142291000Y-83251000D01*
G37*
G36*
X168904228Y-81302703D02*
G01*
X169059100Y-81366853D01*
X169198481Y-81459985D01*
X169317015Y-81578519D01*
X169410147Y-81717900D01*
X169474297Y-81872772D01*
X169507000Y-82037184D01*
X169507000Y-82204816D01*
X169474297Y-82369228D01*
X169410147Y-82524100D01*
X169317015Y-82663481D01*
X169198481Y-82782015D01*
X169059100Y-82875147D01*
X168904228Y-82939297D01*
X168739816Y-82972000D01*
X168572184Y-82972000D01*
X168407772Y-82939297D01*
X168252900Y-82875147D01*
X168113519Y-82782015D01*
X167994985Y-82663481D01*
X167901853Y-82524100D01*
X167837703Y-82369228D01*
X167805000Y-82204816D01*
X167805000Y-82037184D01*
X167837703Y-81872772D01*
X167901853Y-81717900D01*
X167994985Y-81578519D01*
X168113519Y-81459985D01*
X168252900Y-81366853D01*
X168407772Y-81302703D01*
X168572184Y-81270000D01*
X168739816Y-81270000D01*
X168904228Y-81302703D01*
G37*
G36*
X171744228Y-79917703D02*
G01*
X171899100Y-79981853D01*
X172038481Y-80074985D01*
X172157015Y-80193519D01*
X172250147Y-80332900D01*
X172314297Y-80487772D01*
X172347000Y-80652184D01*
X172347000Y-80819816D01*
X172314297Y-80984228D01*
X172250147Y-81139100D01*
X172157015Y-81278481D01*
X172038481Y-81397015D01*
X171899100Y-81490147D01*
X171744228Y-81554297D01*
X171579816Y-81587000D01*
X171412184Y-81587000D01*
X171247772Y-81554297D01*
X171092900Y-81490147D01*
X170953519Y-81397015D01*
X170834985Y-81278481D01*
X170741853Y-81139100D01*
X170677703Y-80984228D01*
X170645000Y-80819816D01*
X170645000Y-80652184D01*
X170677703Y-80487772D01*
X170741853Y-80332900D01*
X170834985Y-80193519D01*
X170953519Y-80074985D01*
X171092900Y-79981853D01*
X171247772Y-79917703D01*
X171412184Y-79885000D01*
X171579816Y-79885000D01*
X171744228Y-79917703D01*
G37*
G36*
X157491000Y-81251000D02*
G01*
X154889000Y-81251000D01*
X154889000Y-80149000D01*
X157491000Y-80149000D01*
X157491000Y-81251000D01*
G37*
G36*
X142291000Y-81251000D02*
G01*
X139689000Y-81251000D01*
X139689000Y-80149000D01*
X142291000Y-80149000D01*
X142291000Y-81251000D01*
G37*
G36*
X168904228Y-78532703D02*
G01*
X169059100Y-78596853D01*
X169198481Y-78689985D01*
X169317015Y-78808519D01*
X169410147Y-78947900D01*
X169474297Y-79102772D01*
X169507000Y-79267184D01*
X169507000Y-79434816D01*
X169474297Y-79599228D01*
X169410147Y-79754100D01*
X169317015Y-79893481D01*
X169198481Y-80012015D01*
X169059100Y-80105147D01*
X168904228Y-80169297D01*
X168739816Y-80202000D01*
X168572184Y-80202000D01*
X168407772Y-80169297D01*
X168252900Y-80105147D01*
X168113519Y-80012015D01*
X167994985Y-79893481D01*
X167901853Y-79754100D01*
X167837703Y-79599228D01*
X167805000Y-79434816D01*
X167805000Y-79267184D01*
X167837703Y-79102772D01*
X167901853Y-78947900D01*
X167994985Y-78808519D01*
X168113519Y-78689985D01*
X168252900Y-78596853D01*
X168407772Y-78532703D01*
X168572184Y-78500000D01*
X168739816Y-78500000D01*
X168904228Y-78532703D01*
G37*
G36*
X162279674Y-77866465D02*
G01*
X162317367Y-77877899D01*
X162352103Y-77896466D01*
X162382548Y-77921452D01*
X162407534Y-77951897D01*
X162426101Y-77986633D01*
X162437535Y-78024326D01*
X162442000Y-78069661D01*
X162442000Y-79156339D01*
X162437535Y-79201674D01*
X162426101Y-79239367D01*
X162407534Y-79274103D01*
X162382548Y-79304548D01*
X162352103Y-79329534D01*
X162317367Y-79348101D01*
X162279674Y-79359535D01*
X162234339Y-79364000D01*
X161397661Y-79364000D01*
X161352326Y-79359535D01*
X161314633Y-79348101D01*
X161279897Y-79329534D01*
X161249452Y-79304548D01*
X161224466Y-79274103D01*
X161205899Y-79239367D01*
X161194465Y-79201674D01*
X161190000Y-79156339D01*
X161190000Y-78069661D01*
X161194465Y-78024326D01*
X161205899Y-77986633D01*
X161224466Y-77951897D01*
X161249452Y-77921452D01*
X161279897Y-77896466D01*
X161314633Y-77877899D01*
X161352326Y-77866465D01*
X161397661Y-77862000D01*
X162234339Y-77862000D01*
X162279674Y-77866465D01*
G37*
G36*
X160229674Y-77866465D02*
G01*
X160267367Y-77877899D01*
X160302103Y-77896466D01*
X160332548Y-77921452D01*
X160357534Y-77951897D01*
X160376101Y-77986633D01*
X160387535Y-78024326D01*
X160392000Y-78069661D01*
X160392000Y-79156339D01*
X160387535Y-79201674D01*
X160376101Y-79239367D01*
X160357534Y-79274103D01*
X160332548Y-79304548D01*
X160302103Y-79329534D01*
X160267367Y-79348101D01*
X160229674Y-79359535D01*
X160184339Y-79364000D01*
X159347661Y-79364000D01*
X159302326Y-79359535D01*
X159264633Y-79348101D01*
X159229897Y-79329534D01*
X159199452Y-79304548D01*
X159174466Y-79274103D01*
X159155899Y-79239367D01*
X159144465Y-79201674D01*
X159140000Y-79156339D01*
X159140000Y-78069661D01*
X159144465Y-78024326D01*
X159155899Y-77986633D01*
X159174466Y-77951897D01*
X159199452Y-77921452D01*
X159229897Y-77896466D01*
X159264633Y-77877899D01*
X159302326Y-77866465D01*
X159347661Y-77862000D01*
X160184339Y-77862000D01*
X160229674Y-77866465D01*
G37*
G36*
X142291000Y-79251000D02*
G01*
X139689000Y-79251000D01*
X139689000Y-78149000D01*
X142291000Y-78149000D01*
X142291000Y-79251000D01*
G37*
G36*
X157491000Y-79251000D02*
G01*
X154889000Y-79251000D01*
X154889000Y-78149000D01*
X157491000Y-78149000D01*
X157491000Y-79251000D01*
G37*
G36*
X171744228Y-77147703D02*
G01*
X171899100Y-77211853D01*
X172038481Y-77304985D01*
X172157015Y-77423519D01*
X172250147Y-77562900D01*
X172314297Y-77717772D01*
X172347000Y-77882184D01*
X172347000Y-78049816D01*
X172314297Y-78214228D01*
X172250147Y-78369100D01*
X172157015Y-78508481D01*
X172038481Y-78627015D01*
X171899100Y-78720147D01*
X171744228Y-78784297D01*
X171579816Y-78817000D01*
X171412184Y-78817000D01*
X171247772Y-78784297D01*
X171092900Y-78720147D01*
X170953519Y-78627015D01*
X170834985Y-78508481D01*
X170741853Y-78369100D01*
X170677703Y-78214228D01*
X170645000Y-78049816D01*
X170645000Y-77882184D01*
X170677703Y-77717772D01*
X170741853Y-77562900D01*
X170834985Y-77423519D01*
X170953519Y-77304985D01*
X171092900Y-77211853D01*
X171247772Y-77147703D01*
X171412184Y-77115000D01*
X171579816Y-77115000D01*
X171744228Y-77147703D01*
G37*
G36*
X169507000Y-77432000D02*
G01*
X167805000Y-77432000D01*
X167805000Y-75730000D01*
X169507000Y-75730000D01*
X169507000Y-77432000D01*
G37*
G36*
X157491000Y-77251000D02*
G01*
X154889000Y-77251000D01*
X154889000Y-76149000D01*
X157491000Y-76149000D01*
X157491000Y-77251000D01*
G37*
G36*
X142291000Y-77251000D02*
G01*
X139689000Y-77251000D01*
X139689000Y-76149000D01*
X142291000Y-76149000D01*
X142291000Y-77251000D01*
G37*
G36*
X119950000Y-76516000D02*
G01*
X118048000Y-76516000D01*
X118048000Y-74614000D01*
X119950000Y-74614000D01*
X119950000Y-76516000D01*
G37*
G36*
X121816395Y-74650546D02*
G01*
X121989466Y-74722234D01*
X122056041Y-74766718D01*
X122145227Y-74826310D01*
X122277690Y-74958773D01*
X122277691Y-74958775D01*
X122381766Y-75114534D01*
X122453454Y-75287605D01*
X122490000Y-75471333D01*
X122490000Y-75658667D01*
X122453454Y-75842395D01*
X122381766Y-76015466D01*
X122374277Y-76026674D01*
X122277690Y-76171227D01*
X122145227Y-76303690D01*
X122066818Y-76356081D01*
X121989466Y-76407766D01*
X121816395Y-76479454D01*
X121632667Y-76516000D01*
X121445333Y-76516000D01*
X121261605Y-76479454D01*
X121088534Y-76407766D01*
X121011182Y-76356081D01*
X120932773Y-76303690D01*
X120800310Y-76171227D01*
X120703723Y-76026674D01*
X120696234Y-76015466D01*
X120624546Y-75842395D01*
X120588000Y-75658667D01*
X120588000Y-75471333D01*
X120624546Y-75287605D01*
X120696234Y-75114534D01*
X120800309Y-74958775D01*
X120800310Y-74958773D01*
X120932773Y-74826310D01*
X121021959Y-74766718D01*
X121088534Y-74722234D01*
X121261605Y-74650546D01*
X121445333Y-74614000D01*
X121632667Y-74614000D01*
X121816395Y-74650546D01*
G37*
G36*
X127980674Y-74818465D02*
G01*
X128018367Y-74829899D01*
X128053103Y-74848466D01*
X128083548Y-74873452D01*
X128108534Y-74903897D01*
X128127101Y-74938633D01*
X128138535Y-74976326D01*
X128143000Y-75021661D01*
X128143000Y-76108339D01*
X128138535Y-76153674D01*
X128127101Y-76191367D01*
X128108534Y-76226103D01*
X128083548Y-76256548D01*
X128053103Y-76281534D01*
X128018367Y-76300101D01*
X127980674Y-76311535D01*
X127935339Y-76316000D01*
X127098661Y-76316000D01*
X127053326Y-76311535D01*
X127015633Y-76300101D01*
X126980897Y-76281534D01*
X126950452Y-76256548D01*
X126925466Y-76226103D01*
X126906899Y-76191367D01*
X126895465Y-76153674D01*
X126891000Y-76108339D01*
X126891000Y-75021661D01*
X126895465Y-74976326D01*
X126906899Y-74938633D01*
X126925466Y-74903897D01*
X126950452Y-74873452D01*
X126980897Y-74848466D01*
X127015633Y-74829899D01*
X127053326Y-74818465D01*
X127098661Y-74814000D01*
X127935339Y-74814000D01*
X127980674Y-74818465D01*
G37*
G36*
X125930674Y-74818465D02*
G01*
X125968367Y-74829899D01*
X126003103Y-74848466D01*
X126033548Y-74873452D01*
X126058534Y-74903897D01*
X126077101Y-74938633D01*
X126088535Y-74976326D01*
X126093000Y-75021661D01*
X126093000Y-76108339D01*
X126088535Y-76153674D01*
X126077101Y-76191367D01*
X126058534Y-76226103D01*
X126033548Y-76256548D01*
X126003103Y-76281534D01*
X125968367Y-76300101D01*
X125930674Y-76311535D01*
X125885339Y-76316000D01*
X125048661Y-76316000D01*
X125003326Y-76311535D01*
X124965633Y-76300101D01*
X124930897Y-76281534D01*
X124900452Y-76256548D01*
X124875466Y-76226103D01*
X124856899Y-76191367D01*
X124845465Y-76153674D01*
X124841000Y-76108339D01*
X124841000Y-75021661D01*
X124845465Y-74976326D01*
X124856899Y-74938633D01*
X124875466Y-74903897D01*
X124900452Y-74873452D01*
X124930897Y-74848466D01*
X124965633Y-74829899D01*
X125003326Y-74818465D01*
X125048661Y-74814000D01*
X125885339Y-74814000D01*
X125930674Y-74818465D01*
G37*
G36*
X137886674Y-74691465D02*
G01*
X137924367Y-74702899D01*
X137959103Y-74721466D01*
X137989548Y-74746452D01*
X138014534Y-74776897D01*
X138033101Y-74811633D01*
X138044535Y-74849326D01*
X138049000Y-74894661D01*
X138049000Y-75981339D01*
X138044535Y-76026674D01*
X138033101Y-76064367D01*
X138014534Y-76099103D01*
X137989548Y-76129548D01*
X137959103Y-76154534D01*
X137924367Y-76173101D01*
X137886674Y-76184535D01*
X137841339Y-76189000D01*
X137004661Y-76189000D01*
X136959326Y-76184535D01*
X136921633Y-76173101D01*
X136886897Y-76154534D01*
X136856452Y-76129548D01*
X136831466Y-76099103D01*
X136812899Y-76064367D01*
X136801465Y-76026674D01*
X136797000Y-75981339D01*
X136797000Y-74894661D01*
X136801465Y-74849326D01*
X136812899Y-74811633D01*
X136831466Y-74776897D01*
X136856452Y-74746452D01*
X136886897Y-74721466D01*
X136921633Y-74702899D01*
X136959326Y-74691465D01*
X137004661Y-74687000D01*
X137841339Y-74687000D01*
X137886674Y-74691465D01*
G37*
G36*
X135836674Y-74691465D02*
G01*
X135874367Y-74702899D01*
X135909103Y-74721466D01*
X135939548Y-74746452D01*
X135964534Y-74776897D01*
X135983101Y-74811633D01*
X135994535Y-74849326D01*
X135999000Y-74894661D01*
X135999000Y-75981339D01*
X135994535Y-76026674D01*
X135983101Y-76064367D01*
X135964534Y-76099103D01*
X135939548Y-76129548D01*
X135909103Y-76154534D01*
X135874367Y-76173101D01*
X135836674Y-76184535D01*
X135791339Y-76189000D01*
X134954661Y-76189000D01*
X134909326Y-76184535D01*
X134871633Y-76173101D01*
X134836897Y-76154534D01*
X134806452Y-76129548D01*
X134781466Y-76099103D01*
X134762899Y-76064367D01*
X134751465Y-76026674D01*
X134747000Y-75981339D01*
X134747000Y-74894661D01*
X134751465Y-74849326D01*
X134762899Y-74811633D01*
X134781466Y-74776897D01*
X134806452Y-74746452D01*
X134836897Y-74721466D01*
X134871633Y-74702899D01*
X134909326Y-74691465D01*
X134954661Y-74687000D01*
X135791339Y-74687000D01*
X135836674Y-74691465D01*
G37*
G36*
X157491000Y-75251000D02*
G01*
X154889000Y-75251000D01*
X154889000Y-74149000D01*
X157491000Y-74149000D01*
X157491000Y-75251000D01*
G37*
G36*
X142291000Y-75251000D02*
G01*
X139689000Y-75251000D01*
X139689000Y-74149000D01*
X142291000Y-74149000D01*
X142291000Y-75251000D01*
G37*
G36*
X142291000Y-73251000D02*
G01*
X139689000Y-73251000D01*
X139689000Y-72149000D01*
X142291000Y-72149000D01*
X142291000Y-73251000D01*
G37*
G36*
X157491000Y-73251000D02*
G01*
X154889000Y-73251000D01*
X154889000Y-72149000D01*
X157491000Y-72149000D01*
X157491000Y-73251000D01*
G37*
G36*
X170674254Y-67678818D02*
G01*
X171031111Y-67826633D01*
X171047513Y-67833427D01*
X171300599Y-68002534D01*
X171383436Y-68057884D01*
X171669116Y-68343564D01*
X171893574Y-68679489D01*
X172048182Y-69052746D01*
X172127000Y-69448993D01*
X172127000Y-69853007D01*
X172048182Y-70249254D01*
X171893574Y-70622511D01*
X171893573Y-70622513D01*
X171669116Y-70958436D01*
X171383436Y-71244116D01*
X171047513Y-71468573D01*
X171047512Y-71468574D01*
X171047511Y-71468574D01*
X170674254Y-71623182D01*
X170278007Y-71702000D01*
X169873993Y-71702000D01*
X169477746Y-71623182D01*
X169104489Y-71468574D01*
X169104488Y-71468574D01*
X169104487Y-71468573D01*
X168768564Y-71244116D01*
X168482884Y-70958436D01*
X168258427Y-70622513D01*
X168258426Y-70622511D01*
X168103818Y-70249254D01*
X168025000Y-69853007D01*
X168025000Y-69448993D01*
X168103818Y-69052746D01*
X168258426Y-68679489D01*
X168482884Y-68343564D01*
X168768564Y-68057884D01*
X168851401Y-68002534D01*
X169104487Y-67833427D01*
X169120889Y-67826633D01*
X169477746Y-67678818D01*
X169873993Y-67600000D01*
X170278007Y-67600000D01*
X170674254Y-67678818D01*
G37*
G36*
X164926674Y-70253465D02*
G01*
X164964367Y-70264899D01*
X164999103Y-70283466D01*
X165029548Y-70308452D01*
X165054534Y-70338897D01*
X165073101Y-70373633D01*
X165084535Y-70411326D01*
X165089000Y-70456661D01*
X165089000Y-71293339D01*
X165084535Y-71338674D01*
X165073101Y-71376367D01*
X165054534Y-71411103D01*
X165029548Y-71441548D01*
X164999103Y-71466534D01*
X164964367Y-71485101D01*
X164926674Y-71496535D01*
X164881339Y-71501000D01*
X163794661Y-71501000D01*
X163749326Y-71496535D01*
X163711633Y-71485101D01*
X163676897Y-71466534D01*
X163646452Y-71441548D01*
X163621466Y-71411103D01*
X163602899Y-71376367D01*
X163591465Y-71338674D01*
X163587000Y-71293339D01*
X163587000Y-70456661D01*
X163591465Y-70411326D01*
X163602899Y-70373633D01*
X163621466Y-70338897D01*
X163646452Y-70308452D01*
X163676897Y-70283466D01*
X163711633Y-70264899D01*
X163749326Y-70253465D01*
X163794661Y-70249000D01*
X164881339Y-70249000D01*
X164926674Y-70253465D01*
G37*
G36*
X164926674Y-68203465D02*
G01*
X164964367Y-68214899D01*
X164999103Y-68233466D01*
X165029548Y-68258452D01*
X165054534Y-68288897D01*
X165073101Y-68323633D01*
X165084535Y-68361326D01*
X165089000Y-68406661D01*
X165089000Y-69243339D01*
X165084535Y-69288674D01*
X165073101Y-69326367D01*
X165054534Y-69361103D01*
X165029548Y-69391548D01*
X164999103Y-69416534D01*
X164964367Y-69435101D01*
X164926674Y-69446535D01*
X164881339Y-69451000D01*
X163794661Y-69451000D01*
X163749326Y-69446535D01*
X163711633Y-69435101D01*
X163676897Y-69416534D01*
X163646452Y-69391548D01*
X163621466Y-69361103D01*
X163602899Y-69326367D01*
X163591465Y-69288674D01*
X163587000Y-69243339D01*
X163587000Y-68406661D01*
X163591465Y-68361326D01*
X163602899Y-68323633D01*
X163621466Y-68288897D01*
X163646452Y-68258452D01*
X163676897Y-68233466D01*
X163711633Y-68214899D01*
X163749326Y-68203465D01*
X163794661Y-68199000D01*
X164881339Y-68199000D01*
X164926674Y-68203465D01*
G37*
G36*
X121816395Y-67538546D02*
G01*
X121989466Y-67610234D01*
X121989467Y-67610235D01*
X122145227Y-67714310D01*
X122277690Y-67846773D01*
X122277691Y-67846775D01*
X122381766Y-68002534D01*
X122453454Y-68175605D01*
X122490000Y-68359333D01*
X122490000Y-68546667D01*
X122453454Y-68730395D01*
X122381766Y-68903466D01*
X122381765Y-68903467D01*
X122277690Y-69059227D01*
X122145227Y-69191690D01*
X122085011Y-69231925D01*
X121989466Y-69295766D01*
X121816395Y-69367454D01*
X121632667Y-69404000D01*
X121445333Y-69404000D01*
X121261605Y-69367454D01*
X121088534Y-69295766D01*
X120992989Y-69231925D01*
X120932773Y-69191690D01*
X120800310Y-69059227D01*
X120696235Y-68903467D01*
X120696234Y-68903466D01*
X120624546Y-68730395D01*
X120588000Y-68546667D01*
X120588000Y-68359333D01*
X120624546Y-68175605D01*
X120696234Y-68002534D01*
X120800309Y-67846775D01*
X120800310Y-67846773D01*
X120932773Y-67714310D01*
X121088533Y-67610235D01*
X121088534Y-67610234D01*
X121261605Y-67538546D01*
X121445333Y-67502000D01*
X121632667Y-67502000D01*
X121816395Y-67538546D01*
G37*
G36*
X119950000Y-69404000D02*
G01*
X118048000Y-69404000D01*
X118048000Y-67502000D01*
X119950000Y-67502000D01*
X119950000Y-69404000D01*
G37*
G36*
X127980674Y-67706465D02*
G01*
X128018367Y-67717899D01*
X128053103Y-67736466D01*
X128083548Y-67761452D01*
X128108534Y-67791897D01*
X128127101Y-67826633D01*
X128138535Y-67864326D01*
X128143000Y-67909661D01*
X128143000Y-68996339D01*
X128138535Y-69041674D01*
X128127101Y-69079367D01*
X128108534Y-69114103D01*
X128083548Y-69144548D01*
X128053103Y-69169534D01*
X128018367Y-69188101D01*
X127980674Y-69199535D01*
X127935339Y-69204000D01*
X127098661Y-69204000D01*
X127053326Y-69199535D01*
X127015633Y-69188101D01*
X126980897Y-69169534D01*
X126950452Y-69144548D01*
X126925466Y-69114103D01*
X126906899Y-69079367D01*
X126895465Y-69041674D01*
X126891000Y-68996339D01*
X126891000Y-67909661D01*
X126895465Y-67864326D01*
X126906899Y-67826633D01*
X126925466Y-67791897D01*
X126950452Y-67761452D01*
X126980897Y-67736466D01*
X127015633Y-67717899D01*
X127053326Y-67706465D01*
X127098661Y-67702000D01*
X127935339Y-67702000D01*
X127980674Y-67706465D01*
G37*
G36*
X125930674Y-67706465D02*
G01*
X125968367Y-67717899D01*
X126003103Y-67736466D01*
X126033548Y-67761452D01*
X126058534Y-67791897D01*
X126077101Y-67826633D01*
X126088535Y-67864326D01*
X126093000Y-67909661D01*
X126093000Y-68996339D01*
X126088535Y-69041674D01*
X126077101Y-69079367D01*
X126058534Y-69114103D01*
X126033548Y-69144548D01*
X126003103Y-69169534D01*
X125968367Y-69188101D01*
X125930674Y-69199535D01*
X125885339Y-69204000D01*
X125048661Y-69204000D01*
X125003326Y-69199535D01*
X124965633Y-69188101D01*
X124930897Y-69169534D01*
X124900452Y-69144548D01*
X124875466Y-69114103D01*
X124856899Y-69079367D01*
X124845465Y-69041674D01*
X124841000Y-68996339D01*
X124841000Y-67909661D01*
X124845465Y-67864326D01*
X124856899Y-67826633D01*
X124875466Y-67791897D01*
X124900452Y-67761452D01*
X124930897Y-67736466D01*
X124965633Y-67717899D01*
X125003326Y-67706465D01*
X125048661Y-67702000D01*
X125885339Y-67702000D01*
X125930674Y-67706465D01*
G37*
G36*
X168795000Y-64401000D02*
G01*
X166993000Y-64401000D01*
X166993000Y-62599000D01*
X168795000Y-62599000D01*
X168795000Y-64401000D01*
G37*
G36*
X165467512Y-62603927D02*
G01*
X165616812Y-62633624D01*
X165780784Y-62701544D01*
X165928354Y-62800147D01*
X166053853Y-62925646D01*
X166152456Y-63073216D01*
X166220376Y-63237188D01*
X166255000Y-63411259D01*
X166255000Y-63588741D01*
X166220376Y-63762812D01*
X166152456Y-63926784D01*
X166053853Y-64074354D01*
X165928354Y-64199853D01*
X165780784Y-64298456D01*
X165616812Y-64366376D01*
X165467512Y-64396073D01*
X165442742Y-64401000D01*
X165265258Y-64401000D01*
X165240488Y-64396073D01*
X165091188Y-64366376D01*
X164927216Y-64298456D01*
X164779646Y-64199853D01*
X164654147Y-64074354D01*
X164555544Y-63926784D01*
X164487624Y-63762812D01*
X164453000Y-63588741D01*
X164453000Y-63411259D01*
X164487624Y-63237188D01*
X164555544Y-63073216D01*
X164654147Y-62925646D01*
X164779646Y-62800147D01*
X164927216Y-62701544D01*
X165091188Y-62633624D01*
X165240488Y-62603927D01*
X165265258Y-62599000D01*
X165442742Y-62599000D01*
X165467512Y-62603927D01*
G37*
G36*
X119096549Y-61609116D02*
G01*
X119207734Y-61631232D01*
X119417203Y-61717997D01*
X119605720Y-61843960D01*
X119766040Y-62004280D01*
X119892003Y-62192797D01*
X119892004Y-62192799D01*
X119978768Y-62402267D01*
X120023000Y-62624635D01*
X120023000Y-62851365D01*
X120008224Y-62925647D01*
X119978768Y-63073734D01*
X119892003Y-63283203D01*
X119766040Y-63471720D01*
X119605720Y-63632040D01*
X119417203Y-63758003D01*
X119417202Y-63758004D01*
X119417201Y-63758004D01*
X119405593Y-63762812D01*
X119207734Y-63844768D01*
X119096549Y-63866884D01*
X118985365Y-63889000D01*
X118758635Y-63889000D01*
X118647451Y-63866884D01*
X118536266Y-63844768D01*
X118338407Y-63762812D01*
X118326799Y-63758004D01*
X118326798Y-63758004D01*
X118326797Y-63758003D01*
X118138280Y-63632040D01*
X117977960Y-63471720D01*
X117851997Y-63283203D01*
X117765232Y-63073734D01*
X117735776Y-62925647D01*
X117721000Y-62851365D01*
X117721000Y-62624635D01*
X117765232Y-62402267D01*
X117851996Y-62192799D01*
X117851997Y-62192797D01*
X117977960Y-62004280D01*
X118138280Y-61843960D01*
X118326797Y-61717997D01*
X118536266Y-61631232D01*
X118647451Y-61609116D01*
X118758635Y-61587000D01*
X118985365Y-61587000D01*
X119096549Y-61609116D01*
G37*
G36*
X175992549Y-61609116D02*
G01*
X176103734Y-61631232D01*
X176313203Y-61717997D01*
X176501720Y-61843960D01*
X176662040Y-62004280D01*
X176788003Y-62192797D01*
X176788004Y-62192799D01*
X176874768Y-62402267D01*
X176919000Y-62624635D01*
X176919000Y-62851365D01*
X176904224Y-62925647D01*
X176874768Y-63073734D01*
X176788003Y-63283203D01*
X176662040Y-63471720D01*
X176501720Y-63632040D01*
X176313203Y-63758003D01*
X176313202Y-63758004D01*
X176313201Y-63758004D01*
X176301593Y-63762812D01*
X176103734Y-63844768D01*
X175992549Y-63866884D01*
X175881365Y-63889000D01*
X175654635Y-63889000D01*
X175543451Y-63866884D01*
X175432266Y-63844768D01*
X175234407Y-63762812D01*
X175222799Y-63758004D01*
X175222798Y-63758004D01*
X175222797Y-63758003D01*
X175034280Y-63632040D01*
X174873960Y-63471720D01*
X174747997Y-63283203D01*
X174661232Y-63073734D01*
X174631776Y-62925647D01*
X174617000Y-62851365D01*
X174617000Y-62624635D01*
X174661232Y-62402267D01*
X174747996Y-62192799D01*
X174747997Y-62192797D01*
X174873960Y-62004280D01*
X175034280Y-61843960D01*
X175222797Y-61717997D01*
X175432266Y-61631232D01*
X175543451Y-61609116D01*
X175654635Y-61587000D01*
X175881365Y-61587000D01*
X175992549Y-61609116D01*
G37*
M02*
