M48
; DRILL file {KiCad (5.1.5-0-10_14)} date Friday, 28 August 2020 at 20:46:12
; FORMAT={-:-/ absolute / inch / decimal}
; #@! TF.CreationDate,2020-08-28T20:46:12+02:00
; #@! TF.GenerationSoftware,Kicad,Pcbnew,(5.1.5-0-10_14)
; #@! TF.FileFunction,Plated,1,2,PTH
FMAT,2
INCH
T1C0.0118
T2C0.0157
T3C0.0217
T4C0.0335
T5C0.0354
T6C0.0394
T7C0.1260
%
G90
G05
T1
X5.3907Y-3.0863
X5.3907Y-3.25
X5.3907Y-3.537
X5.3907Y-3.9084
X5.3907Y-3.937
X5.3907Y-4.651
X5.41Y-2.969
X5.411Y-5.097
X5.412Y-2.863
X5.4293Y-3.099
X5.4293Y-3.811
X5.4293Y-3.9177
X5.4293Y-3.9563
X5.4293Y-4.371
X5.4293Y-4.931
X5.4393Y-4.089
X5.4583Y-3.9077
X5.7325Y-4.02
X5.7325Y-4.1675
X5.753Y-3.9563
X5.76Y-4.0121
X5.761Y-3.8655
X5.7749Y-4.0386
X5.835Y-3.445
X5.84Y-2.8428
X5.948Y-3.2689
X5.953Y-3.3012
X5.9566Y-3.8379
X5.957Y-3.239
X5.9666Y-3.8737
X5.9766Y-3.9089
X5.9866Y-3.9438
X5.9947Y-3.212
X5.9966Y-3.099
X5.9966Y-3.9723
X6.0066Y-3.256
X6.0066Y-4.0094
X6.0166Y-2.942
X6.0166Y-3.021
X6.0166Y-4.038
X6.0359Y-4.063
X6.036Y-2.862
X6.14Y-5.1
X6.1492Y-3.1772
X6.395Y-4.185
X6.395Y-4.299
X6.5455Y-3.9658
X6.5508Y-3.9332
X6.562Y-3.56
X6.562Y-3.725
X6.5813Y-4.0062
X6.6085Y-3.942
X6.64Y-3.4512
X6.6807Y-3.96
X6.7Y-4.005
X6.7193Y-3.9794
T2
X5.308Y-5.214
X5.309Y-4.539
X5.329Y-3.412
X5.3296Y-2.97
X5.3296Y-3.25
X5.5296Y-3.56
X5.53Y-4.38
X5.5508Y-3.4134
X5.808Y-3.575
X5.81Y-2.886
X5.81Y-3.105
X5.81Y-3.35
X5.8674Y-4.1153
X5.87Y-4.26
X6.0325Y-4.1411
X6.033Y-4.261
X6.1682Y-3.814
X6.1682Y-4.2202
X6.367Y-3.095
X6.37Y-3.814
X6.3704Y-3.285
X6.53Y-4.54
X6.53Y-5.13
T5
X4.87Y-3.25
X4.97Y-3.25
X4.87Y-4.65
X4.97Y-4.65
X4.87Y-4.93
X4.97Y-4.93
X4.87Y-2.97
X4.97Y-2.97
X4.87Y-4.37
X4.97Y-4.37
X4.87Y-5.215
X4.97Y-5.215
X4.87Y-2.69
X4.97Y-2.69
X4.87Y-4.09
X4.97Y-4.09
X4.87Y-3.81
X4.97Y-3.81
X4.87Y-3.53
X4.97Y-3.53
T6
X6.64Y-3.015
X6.64Y-3.1241
X6.64Y-3.2331
X6.64Y-3.3422
X6.64Y-3.4512
X6.64Y-3.5603
X6.64Y-3.6693
X6.64Y-3.7784
X6.64Y-3.8874
X6.64Y-3.9965
X6.64Y-4.1056
X6.64Y-4.2146
X6.64Y-4.3237
X6.7518Y-3.0695
X6.7518Y-3.1786
X6.7518Y-3.2876
X6.7518Y-3.3967
X6.7518Y-3.5057
X6.7518Y-3.6148
X6.7518Y-3.7239
X6.7518Y-3.8329
X6.7518Y-3.942
X6.7518Y-4.051
X6.7518Y-4.1601
X6.7518Y-4.2691
X6.51Y-2.5
X6.61Y-2.5
T7
X6.6959Y-2.7422
X6.6959Y-4.5965
T3
G00X6.971Y-4.9324
M15
G01X6.9966Y-4.9324
M16
G05
G00X6.971Y-5.2376
M15
G01X6.9966Y-5.2376
M16
G05
T4
G00X6.8233Y-4.9383
M15
G01X6.845Y-4.9383
M16
G05
G00X6.8233Y-5.2317
M15
G01X6.845Y-5.2317
M16
G05
T0
M30
