G04 #@! TF.GenerationSoftware,KiCad,Pcbnew,(5.1.5-0)*
G04 #@! TF.CreationDate,2020-10-30T11:29:39+01:00*
G04 #@! TF.ProjectId,wifi-modem,77696669-2d6d-46f6-9465-6d2e6b696361,rev?*
G04 #@! TF.SameCoordinates,Original*
G04 #@! TF.FileFunction,Copper,L2,Bot*
G04 #@! TF.FilePolarity,Positive*
%FSLAX46Y46*%
G04 Gerber Fmt 4.6, Leading zero omitted, Abs format (unit mm)*
G04 Created by KiCad (PCBNEW (5.1.5-0)) date 2020-10-30 11:29:39*
%MOMM*%
%LPD*%
G04 APERTURE LIST*
%ADD10C,1.800000*%
%ADD11R,1.800000X1.800000*%
%ADD12O,1.700000X1.700000*%
%ADD13R,1.700000X1.700000*%
%ADD14O,1.800000X1.150000*%
%ADD15O,2.000000X1.450000*%
%ADD16C,4.000000*%
%ADD17C,1.600000*%
%ADD18R,1.600000X1.600000*%
%ADD19C,0.800000*%
%ADD20C,0.600000*%
%ADD21C,0.508000*%
%ADD22C,0.127000*%
G04 APERTURE END LIST*
D10*
X121539000Y-118237000D03*
D11*
X118999000Y-118237000D03*
D10*
X121539000Y-125349000D03*
D11*
X118999000Y-125349000D03*
D10*
X121539000Y-132588000D03*
D11*
X118999000Y-132588000D03*
D10*
X121539000Y-111125000D03*
D11*
X118999000Y-111125000D03*
D10*
X121539000Y-104013000D03*
D11*
X118999000Y-104013000D03*
D10*
X121539000Y-96901000D03*
D11*
X118999000Y-96901000D03*
D10*
X121539000Y-89789000D03*
D11*
X118999000Y-89789000D03*
D10*
X121539000Y-82677000D03*
D11*
X118999000Y-82677000D03*
D10*
X121539000Y-75565000D03*
D11*
X118999000Y-75565000D03*
D10*
X121539000Y-68453000D03*
D11*
X118999000Y-68453000D03*
D12*
X165354000Y-63500000D03*
D13*
X167894000Y-63500000D03*
D14*
X177387800Y-125284000D03*
X177387800Y-133034000D03*
D15*
X173587800Y-125434000D03*
X173587800Y-132884000D03*
D16*
X170076000Y-69651000D03*
X170076000Y-116751000D03*
D17*
X171496000Y-108436000D03*
X171496000Y-105666000D03*
X171496000Y-102896000D03*
X171496000Y-100126000D03*
X171496000Y-97356000D03*
X171496000Y-94586000D03*
X171496000Y-91816000D03*
X171496000Y-89046000D03*
X171496000Y-86276000D03*
X171496000Y-83506000D03*
X171496000Y-80736000D03*
X171496000Y-77966000D03*
X168656000Y-109821000D03*
X168656000Y-107051000D03*
X168656000Y-104281000D03*
X168656000Y-101511000D03*
X168656000Y-98741000D03*
X168656000Y-95971000D03*
X168656000Y-93201000D03*
X168656000Y-90431000D03*
X168656000Y-87661000D03*
X168656000Y-84891000D03*
X168656000Y-82121000D03*
X168656000Y-79351000D03*
D18*
X168656000Y-76581000D03*
D19*
X142100300Y-107835700D03*
X142100300Y-113614200D03*
X151384000Y-84734400D03*
X151409400Y-91109800D03*
D20*
X167547923Y-103754031D03*
X165367708Y-104516061D03*
X165366700Y-82105500D03*
X172470392Y-103641717D03*
X166094711Y-104262051D03*
X166116000Y-87668100D03*
X169979865Y-102825522D03*
X169700930Y-102154160D03*
X166821714Y-104008041D03*
X167057423Y-96012000D03*
X170389449Y-103426165D03*
D19*
X135385806Y-100360277D03*
X136236600Y-102387400D03*
X136287400Y-115595400D03*
X136220200Y-113690400D03*
X136245600Y-122698400D03*
X154660600Y-118668800D03*
X154626200Y-111912400D03*
X154412998Y-86842600D03*
X154584400Y-93573600D03*
X161823400Y-93548200D03*
X161807000Y-83439000D03*
X161816000Y-78613000D03*
X121564400Y-122707400D03*
X135382000Y-86766400D03*
X135373000Y-82550000D03*
X135373000Y-75438000D03*
X124866400Y-131597400D03*
X124866400Y-122707400D03*
X154635200Y-108178600D03*
X140436600Y-90424000D03*
X140990000Y-86700000D03*
X144856200Y-95123000D03*
X144805400Y-91567000D03*
X135400545Y-97141257D03*
X154635200Y-101828600D03*
D20*
X163093400Y-111772700D03*
X163118800Y-109550200D03*
X161061400Y-111772700D03*
X161061400Y-108254800D03*
X153665200Y-108927900D03*
X153810214Y-113040163D03*
X163195000Y-113804700D03*
X160525488Y-107763547D03*
X138064800Y-78689200D03*
X138064800Y-123379400D03*
X150059500Y-111760000D03*
X152064200Y-109550402D03*
X153174700Y-107552400D03*
X153174700Y-112687100D03*
X137574300Y-82651600D03*
X137574300Y-76708000D03*
X137083800Y-130835400D03*
X137423000Y-75438000D03*
X161142400Y-84734400D03*
X161142400Y-88138000D03*
X158318200Y-80695800D03*
X158307600Y-130820600D03*
X164363400Y-70866000D03*
X164338000Y-89128600D03*
X127359480Y-107548306D03*
X124790200Y-67647600D03*
X126868980Y-106921057D03*
X124739400Y-74514600D03*
X126378480Y-107524275D03*
X124714000Y-81601200D03*
X125887980Y-108089700D03*
X124764800Y-88764000D03*
X125097481Y-108595960D03*
X124764800Y-95876000D03*
X124482007Y-109086460D03*
X124841000Y-103089600D03*
X148844000Y-82651600D03*
X148818379Y-108719900D03*
X148820604Y-105742054D03*
X126060200Y-110832900D03*
X124891800Y-117313600D03*
X153267133Y-106763750D03*
X153314400Y-93967300D03*
X136194800Y-93929200D03*
X136194800Y-96481900D03*
X156190000Y-72700000D03*
X148094700Y-105702100D03*
X147955000Y-74701400D03*
X148082000Y-99758500D03*
X149555200Y-76669900D03*
X149542500Y-108229400D03*
X149542500Y-106324400D03*
X147388440Y-105460697D03*
X147447000Y-78701900D03*
X147320000Y-107737390D03*
X145814080Y-103952834D03*
X145783300Y-84683600D03*
X145774337Y-109396290D03*
X146316700Y-104478100D03*
X146291300Y-82715100D03*
X146264837Y-108412092D03*
X146852017Y-104970002D03*
X146875500Y-80670400D03*
X146773900Y-110197900D03*
X129870200Y-95046800D03*
X131911200Y-99593400D03*
X142671800Y-97142300D03*
X142688200Y-99669600D03*
X144843500Y-99733100D03*
X142739000Y-95123000D03*
X139369770Y-108483292D03*
X139364261Y-97779040D03*
X133482557Y-98425177D03*
X132933385Y-107633231D03*
D21*
X142100300Y-107835700D02*
X142100300Y-113614200D01*
X151396700Y-84721700D02*
X151384000Y-84734400D01*
X151384000Y-91084400D02*
X151409400Y-91109800D01*
X151384000Y-84734400D02*
X151384000Y-91084400D01*
D22*
X167547923Y-80459077D02*
X168656000Y-79351000D01*
X167547923Y-103754031D02*
X167547923Y-80459077D01*
X165367708Y-82106508D02*
X165366700Y-82105500D01*
X165367708Y-104516061D02*
X165367708Y-82106508D01*
X169787370Y-84891000D02*
X168656000Y-84891000D01*
X172770391Y-86084449D02*
X171576942Y-84891000D01*
X172770391Y-103341718D02*
X172770391Y-86084449D01*
X171576942Y-84891000D02*
X169787370Y-84891000D01*
X172470392Y-103641717D02*
X172770391Y-103341718D01*
X166094711Y-87689389D02*
X166116000Y-87668100D01*
X166094711Y-104262051D02*
X166094711Y-87689389D01*
X170696001Y-95385999D02*
X171496000Y-94586000D01*
X170191431Y-95890569D02*
X170696001Y-95385999D01*
X170191431Y-102613956D02*
X170191431Y-95890569D01*
X169979865Y-102825522D02*
X170191431Y-102613956D01*
X169700930Y-91475930D02*
X168656000Y-90431000D01*
X169700930Y-102154160D02*
X169700930Y-91475930D01*
X166821714Y-96247709D02*
X167057423Y-96012000D01*
X166821714Y-104008041D02*
X166821714Y-96247709D01*
X170505499Y-101116501D02*
X170696001Y-100925999D01*
X170389449Y-103141880D02*
X170505499Y-103025830D01*
X170696001Y-100925999D02*
X171496000Y-100126000D01*
X170505499Y-103025830D02*
X170505499Y-101116501D01*
X170389449Y-103426165D02*
X170389449Y-103141880D01*
D21*
X135385806Y-101536606D02*
X136236600Y-102387400D01*
X135385806Y-100360277D02*
X135385806Y-101536606D01*
X136236600Y-115544600D02*
X136287400Y-115595400D01*
X136220200Y-113690400D02*
X136236600Y-115544600D01*
X136236600Y-102387400D02*
X136220200Y-113690400D01*
X136287400Y-122656600D02*
X136245600Y-122698400D01*
X136287400Y-115595400D02*
X136287400Y-122656600D01*
X154660600Y-111946800D02*
X154626200Y-111912400D01*
X154660600Y-118668800D02*
X154660600Y-111946800D01*
X154626200Y-87055802D02*
X154412998Y-86842600D01*
X154626200Y-93531800D02*
X154584400Y-93573600D01*
X154626200Y-93531800D02*
X154626200Y-87055802D01*
X161823400Y-83455400D02*
X161807000Y-83439000D01*
X161823400Y-93548200D02*
X161823400Y-83455400D01*
X161807000Y-78622000D02*
X161816000Y-78613000D01*
X161807000Y-83439000D02*
X161807000Y-78622000D01*
X121564400Y-118262400D02*
X121539000Y-118237000D01*
X121564400Y-122707400D02*
X121564400Y-118262400D01*
X121539000Y-118237000D02*
X121539000Y-111125000D01*
X121539000Y-111125000D02*
X121539000Y-104013000D01*
X121539000Y-102740208D02*
X121539000Y-96901000D01*
X121539000Y-104013000D02*
X121539000Y-102740208D01*
X121539000Y-95628208D02*
X121539000Y-89789000D01*
X121539000Y-96901000D02*
X121539000Y-95628208D01*
X121539000Y-89789000D02*
X121539000Y-82677000D01*
X121539000Y-82677000D02*
X121539000Y-75565000D01*
X121539000Y-75565000D02*
X121539000Y-68453000D01*
X135382000Y-82559000D02*
X135373000Y-82550000D01*
X135382000Y-86766400D02*
X135382000Y-82559000D01*
X135373000Y-82550000D02*
X135373000Y-75438000D01*
X124866400Y-131597400D02*
X124866400Y-122707400D01*
X154626200Y-111912400D02*
X154635200Y-108178600D01*
X140436600Y-87253400D02*
X140990000Y-86700000D01*
X140436600Y-90424000D02*
X140436600Y-87253400D01*
X144856200Y-91617800D02*
X144805400Y-91567000D01*
X144856200Y-95123000D02*
X144856200Y-91617800D01*
X154635200Y-101828600D02*
X154626200Y-93531800D01*
X154635200Y-108178600D02*
X154635200Y-101828600D01*
X135385806Y-97155996D02*
X135400545Y-97141257D01*
X135385806Y-100360277D02*
X135385806Y-97155996D01*
D22*
X163093400Y-109575600D02*
X163118800Y-109550200D01*
X163093400Y-111772700D02*
X163093400Y-109575600D01*
X161061400Y-111772700D02*
X161061400Y-111348436D01*
X161061400Y-111348436D02*
X161061400Y-108254800D01*
X153665200Y-112895149D02*
X153810214Y-113040163D01*
X153665200Y-108927900D02*
X153665200Y-112895149D01*
X161296089Y-107763547D02*
X160525488Y-107763547D01*
X161551901Y-108019359D02*
X161296089Y-107763547D01*
X161551901Y-112161601D02*
X161551901Y-108019359D01*
X163195000Y-113804700D02*
X161551901Y-112161601D01*
X138064800Y-123334500D02*
X138064800Y-78689200D01*
X138064800Y-123334500D02*
X138061700Y-123337600D01*
X152064200Y-110330300D02*
X152064200Y-109550402D01*
X150634500Y-111760000D02*
X152064200Y-110330300D01*
X150059500Y-111760000D02*
X150634500Y-111760000D01*
X153174700Y-107552400D02*
X153174700Y-112687100D01*
X137574300Y-82651600D02*
X137574300Y-76708000D01*
X137083800Y-75777200D02*
X137423000Y-75438000D01*
X137083800Y-130835400D02*
X137083800Y-75777200D01*
X161142400Y-84734400D02*
X161142400Y-88138000D01*
X158318200Y-130810000D02*
X158307600Y-130820600D01*
X158318200Y-80695800D02*
X158318200Y-130810000D01*
X164338000Y-70891400D02*
X164363400Y-70866000D01*
X164338000Y-89128600D02*
X164338000Y-70891400D01*
X127359480Y-70216880D02*
X124790200Y-67647600D01*
X127359480Y-107548306D02*
X127359480Y-70216880D01*
X126868980Y-76644180D02*
X124739400Y-74514600D01*
X126868980Y-106921057D02*
X126868980Y-76644180D01*
X126378480Y-83265680D02*
X124714000Y-81601200D01*
X126378480Y-107524275D02*
X126378480Y-83265680D01*
X125887980Y-89887180D02*
X124764800Y-88764000D01*
X125887980Y-108089700D02*
X125887980Y-89887180D01*
X125397480Y-96508680D02*
X124764800Y-95876000D01*
X125397480Y-108295961D02*
X125397480Y-96508680D01*
X125097481Y-108595960D02*
X125397480Y-108295961D01*
X124482007Y-103448593D02*
X124841000Y-103089600D01*
X124482007Y-109086460D02*
X124482007Y-103448593D01*
X148819317Y-82676283D02*
X148844000Y-82651600D01*
X148819317Y-105741984D02*
X148819317Y-82676283D01*
X148819317Y-108718962D02*
X148818379Y-108719900D01*
X148819317Y-105741984D02*
X148819317Y-108718962D01*
X124891800Y-112001300D02*
X124891800Y-117313600D01*
X126060200Y-110832900D02*
X124891800Y-112001300D01*
X153267133Y-94014567D02*
X153314400Y-93967300D01*
X153267133Y-106763750D02*
X153267133Y-94014567D01*
X136194800Y-96290406D02*
X136066806Y-96418400D01*
X136194800Y-93929200D02*
X136194800Y-96290406D01*
X153314400Y-75575600D02*
X156190000Y-72700000D01*
X153314400Y-93967300D02*
X153314400Y-75575600D01*
X147967929Y-74714329D02*
X147955000Y-74701400D01*
X148094700Y-99771200D02*
X148082000Y-99758500D01*
X148094700Y-105702100D02*
X148094700Y-99771200D01*
X148082000Y-74828400D02*
X147955000Y-74701400D01*
X148082000Y-99758500D02*
X148082000Y-74828400D01*
X149546264Y-76678836D02*
X149555200Y-76669900D01*
X149546264Y-105750841D02*
X149546264Y-76678836D01*
X149542500Y-105754605D02*
X149546264Y-105750841D01*
X149542500Y-106324400D02*
X149542500Y-105754605D01*
X149542500Y-108229400D02*
X149542500Y-106324400D01*
X147388440Y-78760460D02*
X147447000Y-78701900D01*
X147388440Y-105460697D02*
X147388440Y-78760460D01*
X147370800Y-105478337D02*
X147388440Y-105460697D01*
X147421600Y-105493857D02*
X147388440Y-105460697D01*
X147320000Y-105529137D02*
X147388440Y-105460697D01*
X147320000Y-107737390D02*
X147320000Y-105529137D01*
X145814080Y-84714380D02*
X145783300Y-84683600D01*
X145814080Y-103952834D02*
X145814080Y-84714380D01*
X145774337Y-103992577D02*
X145814080Y-103952834D01*
X145774337Y-109396290D02*
X145774337Y-103992577D01*
X146316700Y-82740500D02*
X146291300Y-82715100D01*
X146316700Y-104478100D02*
X146316700Y-82740500D01*
X146264837Y-104529963D02*
X146316700Y-104478100D01*
X146264837Y-108412092D02*
X146264837Y-104529963D01*
X146852017Y-80693883D02*
X146875500Y-80670400D01*
X146852017Y-104970002D02*
X146852017Y-80693883D01*
X146773900Y-105048119D02*
X146852017Y-104970002D01*
X146773900Y-110197900D02*
X146773900Y-105048119D01*
X129870200Y-97552400D02*
X131911200Y-99593400D01*
X129870200Y-95046800D02*
X129870200Y-97552400D01*
X142671800Y-99653200D02*
X142688200Y-99669600D01*
X142671800Y-97142300D02*
X142671800Y-99653200D01*
X144843500Y-97227500D02*
X142739000Y-95123000D01*
X144843500Y-99733100D02*
X144843500Y-97227500D01*
X139369770Y-97784549D02*
X139364261Y-97779040D01*
X139369770Y-108483292D02*
X139369770Y-97784549D01*
X133482557Y-107137355D02*
X133482557Y-98425177D01*
X133482557Y-107508323D02*
X133482557Y-107137355D01*
X133357649Y-107633231D02*
X133482557Y-107508323D01*
X132933385Y-107633231D02*
X133357649Y-107633231D01*
M02*
