G04 #@! TF.GenerationSoftware,KiCad,Pcbnew,(5.1.5-0-10_14)*
G04 #@! TF.CreationDate,2020-08-28T20:46:08+02:00*
G04 #@! TF.ProjectId,wifi-modem,77696669-2d6d-46f6-9465-6d2e6b696361,rev?*
G04 #@! TF.SameCoordinates,Original*
G04 #@! TF.FileFunction,Soldermask,Bot*
G04 #@! TF.FilePolarity,Negative*
%FSLAX46Y46*%
G04 Gerber Fmt 4.6, Leading zero omitted, Abs format (unit mm)*
G04 Created by KiCad (PCBNEW (5.1.5-0-10_14)) date 2020-08-28 20:46:08*
%MOMM*%
%LPD*%
G04 APERTURE LIST*
%ADD10C,0.100000*%
G04 APERTURE END LIST*
D10*
G36*
X175992549Y-137301116D02*
G01*
X176103734Y-137323232D01*
X176313203Y-137409997D01*
X176501720Y-137535960D01*
X176662040Y-137696280D01*
X176788003Y-137884797D01*
X176874768Y-138094266D01*
X176919000Y-138316636D01*
X176919000Y-138543364D01*
X176874768Y-138765734D01*
X176788003Y-138975203D01*
X176662040Y-139163720D01*
X176501720Y-139324040D01*
X176313203Y-139450003D01*
X176103734Y-139536768D01*
X175992549Y-139558884D01*
X175881365Y-139581000D01*
X175654635Y-139581000D01*
X175543451Y-139558884D01*
X175432266Y-139536768D01*
X175222797Y-139450003D01*
X175034280Y-139324040D01*
X174873960Y-139163720D01*
X174747997Y-138975203D01*
X174661232Y-138765734D01*
X174617000Y-138543364D01*
X174617000Y-138316636D01*
X174661232Y-138094266D01*
X174747997Y-137884797D01*
X174873960Y-137696280D01*
X175034280Y-137535960D01*
X175222797Y-137409997D01*
X175432266Y-137323232D01*
X175543451Y-137301116D01*
X175654635Y-137279000D01*
X175881365Y-137279000D01*
X175992549Y-137301116D01*
G37*
G36*
X118969549Y-137301116D02*
G01*
X119080734Y-137323232D01*
X119290203Y-137409997D01*
X119478720Y-137535960D01*
X119639040Y-137696280D01*
X119765003Y-137884797D01*
X119851768Y-138094266D01*
X119896000Y-138316636D01*
X119896000Y-138543364D01*
X119851768Y-138765734D01*
X119765003Y-138975203D01*
X119639040Y-139163720D01*
X119478720Y-139324040D01*
X119290203Y-139450003D01*
X119080734Y-139536768D01*
X118969549Y-139558884D01*
X118858365Y-139581000D01*
X118631635Y-139581000D01*
X118520451Y-139558884D01*
X118409266Y-139536768D01*
X118199797Y-139450003D01*
X118011280Y-139324040D01*
X117850960Y-139163720D01*
X117724997Y-138975203D01*
X117638232Y-138765734D01*
X117594000Y-138543364D01*
X117594000Y-138316636D01*
X117638232Y-138094266D01*
X117724997Y-137884797D01*
X117850960Y-137696280D01*
X118011280Y-137535960D01*
X118199797Y-137409997D01*
X118409266Y-137323232D01*
X118520451Y-137301116D01*
X118631635Y-137279000D01*
X118858365Y-137279000D01*
X118969549Y-137301116D01*
G37*
G36*
X177835515Y-132417058D02*
G01*
X177931553Y-132446191D01*
X177946735Y-132450796D01*
X177953522Y-132452855D01*
X178062268Y-132510981D01*
X178157590Y-132589210D01*
X178235819Y-132684532D01*
X178293945Y-132793278D01*
X178329742Y-132911285D01*
X178341828Y-133034000D01*
X178329742Y-133156715D01*
X178293945Y-133274722D01*
X178235819Y-133383468D01*
X178157590Y-133478790D01*
X178062268Y-133557019D01*
X177953522Y-133615145D01*
X177835515Y-133650942D01*
X177743546Y-133660000D01*
X177032054Y-133660000D01*
X176940085Y-133650942D01*
X176822078Y-133615145D01*
X176713332Y-133557019D01*
X176618010Y-133478790D01*
X176539781Y-133383468D01*
X176481655Y-133274722D01*
X176445858Y-133156715D01*
X176433772Y-133034000D01*
X176445858Y-132911285D01*
X176481655Y-132793278D01*
X176539781Y-132684532D01*
X176618010Y-132589210D01*
X176713332Y-132510981D01*
X176822078Y-132452855D01*
X176828866Y-132450796D01*
X176844047Y-132446191D01*
X176940085Y-132417058D01*
X177032054Y-132408000D01*
X177743546Y-132408000D01*
X177835515Y-132417058D01*
G37*
G36*
X174769352Y-131225331D02*
G01*
X174851427Y-131259328D01*
X174851429Y-131259329D01*
X174888613Y-131284175D01*
X174925295Y-131308685D01*
X174988115Y-131371505D01*
X175037472Y-131445373D01*
X175071469Y-131527448D01*
X175088800Y-131614579D01*
X175088800Y-131703421D01*
X175071469Y-131790552D01*
X175037472Y-131872627D01*
X174988115Y-131946495D01*
X174925295Y-132009315D01*
X174918053Y-132014154D01*
X174851429Y-132058671D01*
X174851428Y-132058672D01*
X174851427Y-132058672D01*
X174769352Y-132092669D01*
X174682221Y-132110000D01*
X174593379Y-132110000D01*
X174503854Y-132092193D01*
X174485057Y-132086490D01*
X174460671Y-132084088D01*
X174436285Y-132086489D01*
X174412836Y-132093602D01*
X174391225Y-132105153D01*
X174372283Y-132120698D01*
X174356737Y-132139639D01*
X174345186Y-132161250D01*
X174338072Y-132184699D01*
X174335670Y-132209085D01*
X174338071Y-132233471D01*
X174345184Y-132256920D01*
X174356735Y-132278531D01*
X174372280Y-132297473D01*
X174381370Y-132305712D01*
X174414167Y-132332628D01*
X174511145Y-132450796D01*
X174583198Y-132585598D01*
X174627572Y-132731879D01*
X174642554Y-132884000D01*
X174627572Y-133036121D01*
X174583198Y-133182402D01*
X174511145Y-133317204D01*
X174511143Y-133317207D01*
X174511142Y-133317208D01*
X174433348Y-133412000D01*
X174414169Y-133435369D01*
X174296004Y-133532345D01*
X174161202Y-133604398D01*
X174014921Y-133648772D01*
X173900918Y-133660000D01*
X173274682Y-133660000D01*
X173160679Y-133648772D01*
X173014398Y-133604398D01*
X172879596Y-133532345D01*
X172761431Y-133435369D01*
X172742252Y-133412000D01*
X172664458Y-133317208D01*
X172664457Y-133317207D01*
X172664455Y-133317204D01*
X172592402Y-133182402D01*
X172548028Y-133036121D01*
X172533046Y-132884000D01*
X172548028Y-132731879D01*
X172592402Y-132585598D01*
X172664455Y-132450796D01*
X172761431Y-132332631D01*
X172827352Y-132278531D01*
X172879592Y-132235658D01*
X172879593Y-132235657D01*
X172879596Y-132235655D01*
X173014398Y-132163602D01*
X173160679Y-132119228D01*
X173274682Y-132108000D01*
X173900918Y-132108000D01*
X174014921Y-132119228D01*
X174167136Y-132165402D01*
X174178361Y-132170052D01*
X174202395Y-132174833D01*
X174226899Y-132174833D01*
X174250932Y-132170054D01*
X174273571Y-132160677D01*
X174293946Y-132147064D01*
X174311273Y-132129737D01*
X174324888Y-132109363D01*
X174334266Y-132086725D01*
X174339047Y-132062691D01*
X174339047Y-132038187D01*
X174334268Y-132014154D01*
X174324891Y-131991515D01*
X174311278Y-131971140D01*
X174303038Y-131962048D01*
X174287485Y-131946495D01*
X174238128Y-131872627D01*
X174204131Y-131790552D01*
X174186800Y-131703421D01*
X174186800Y-131614579D01*
X174204131Y-131527448D01*
X174238128Y-131445373D01*
X174287485Y-131371505D01*
X174350305Y-131308685D01*
X174386987Y-131284175D01*
X174424171Y-131259329D01*
X174424173Y-131259328D01*
X174506248Y-131225331D01*
X174593379Y-131208000D01*
X174682221Y-131208000D01*
X174769352Y-131225331D01*
G37*
G36*
X126515395Y-131546546D02*
G01*
X126688466Y-131618234D01*
X126688467Y-131618235D01*
X126844227Y-131722310D01*
X126976690Y-131854773D01*
X126988621Y-131872629D01*
X127080766Y-132010534D01*
X127152454Y-132183605D01*
X127189000Y-132367333D01*
X127189000Y-132554667D01*
X127152454Y-132738395D01*
X127080766Y-132911466D01*
X127080765Y-132911467D01*
X126976690Y-133067227D01*
X126844227Y-133199690D01*
X126765818Y-133252081D01*
X126688466Y-133303766D01*
X126515395Y-133375454D01*
X126331667Y-133412000D01*
X126144333Y-133412000D01*
X125960605Y-133375454D01*
X125787534Y-133303766D01*
X125710182Y-133252081D01*
X125631773Y-133199690D01*
X125499310Y-133067227D01*
X125395235Y-132911467D01*
X125395234Y-132911466D01*
X125323546Y-132738395D01*
X125287000Y-132554667D01*
X125287000Y-132367333D01*
X125323546Y-132183605D01*
X125395234Y-132010534D01*
X125487379Y-131872629D01*
X125499310Y-131854773D01*
X125631773Y-131722310D01*
X125787533Y-131618235D01*
X125787534Y-131618234D01*
X125960605Y-131546546D01*
X126144333Y-131510000D01*
X126331667Y-131510000D01*
X126515395Y-131546546D01*
G37*
G36*
X124649000Y-133412000D02*
G01*
X122747000Y-133412000D01*
X122747000Y-131510000D01*
X124649000Y-131510000D01*
X124649000Y-133412000D01*
G37*
G36*
X174014921Y-124669228D02*
G01*
X174161202Y-124713602D01*
X174296004Y-124785655D01*
X174296007Y-124785657D01*
X174296008Y-124785658D01*
X174414169Y-124882631D01*
X174456763Y-124934531D01*
X174511145Y-125000796D01*
X174583198Y-125135598D01*
X174627572Y-125281879D01*
X174642554Y-125434000D01*
X174627572Y-125586121D01*
X174583198Y-125732402D01*
X174511145Y-125867204D01*
X174414167Y-125985372D01*
X174381370Y-126012288D01*
X174364043Y-126029615D01*
X174350430Y-126049989D01*
X174341052Y-126072628D01*
X174336272Y-126096661D01*
X174336272Y-126121165D01*
X174341052Y-126145199D01*
X174350430Y-126167837D01*
X174364044Y-126188212D01*
X174381371Y-126205539D01*
X174401745Y-126219152D01*
X174424384Y-126228530D01*
X174448417Y-126233310D01*
X174472921Y-126233310D01*
X174496955Y-126228530D01*
X174505449Y-126225490D01*
X174593379Y-126208000D01*
X174682221Y-126208000D01*
X174769352Y-126225331D01*
X174851427Y-126259328D01*
X174851429Y-126259329D01*
X174863753Y-126267564D01*
X174925295Y-126308685D01*
X174988115Y-126371505D01*
X175037472Y-126445373D01*
X175071469Y-126527448D01*
X175088800Y-126614579D01*
X175088800Y-126703421D01*
X175071469Y-126790552D01*
X175037472Y-126872627D01*
X175037471Y-126872629D01*
X174988114Y-126946496D01*
X174925296Y-127009314D01*
X174851429Y-127058671D01*
X174851428Y-127058672D01*
X174851427Y-127058672D01*
X174769352Y-127092669D01*
X174682221Y-127110000D01*
X174593379Y-127110000D01*
X174506248Y-127092669D01*
X174424173Y-127058672D01*
X174424172Y-127058672D01*
X174424171Y-127058671D01*
X174350304Y-127009314D01*
X174287486Y-126946496D01*
X174238129Y-126872629D01*
X174238128Y-126872627D01*
X174204131Y-126790552D01*
X174186800Y-126703421D01*
X174186800Y-126614579D01*
X174204131Y-126527448D01*
X174238128Y-126445373D01*
X174287485Y-126371505D01*
X174303038Y-126355952D01*
X174318583Y-126337010D01*
X174330134Y-126315399D01*
X174337247Y-126291950D01*
X174339649Y-126267564D01*
X174337247Y-126243178D01*
X174330134Y-126219729D01*
X174318583Y-126198118D01*
X174303038Y-126179176D01*
X174284096Y-126163631D01*
X174262485Y-126152080D01*
X174239036Y-126144967D01*
X174214650Y-126142565D01*
X174190264Y-126144967D01*
X174166815Y-126152080D01*
X174163186Y-126153796D01*
X174161200Y-126154398D01*
X174161199Y-126154399D01*
X174130765Y-126163631D01*
X174014921Y-126198772D01*
X173900918Y-126210000D01*
X173274682Y-126210000D01*
X173160679Y-126198772D01*
X173014398Y-126154398D01*
X172879596Y-126082345D01*
X172815345Y-126029615D01*
X172761431Y-125985369D01*
X172664458Y-125867208D01*
X172664457Y-125867207D01*
X172664455Y-125867204D01*
X172592402Y-125732402D01*
X172548028Y-125586121D01*
X172533046Y-125434000D01*
X172548028Y-125281879D01*
X172592402Y-125135598D01*
X172664455Y-125000796D01*
X172718838Y-124934531D01*
X172761431Y-124882631D01*
X172879592Y-124785658D01*
X172879593Y-124785657D01*
X172879596Y-124785655D01*
X173014398Y-124713602D01*
X173160679Y-124669228D01*
X173274682Y-124658000D01*
X173900918Y-124658000D01*
X174014921Y-124669228D01*
G37*
G36*
X124649000Y-126173000D02*
G01*
X122747000Y-126173000D01*
X122747000Y-124271000D01*
X124649000Y-124271000D01*
X124649000Y-126173000D01*
G37*
G36*
X126515395Y-124307546D02*
G01*
X126688466Y-124379234D01*
X126688467Y-124379235D01*
X126844227Y-124483310D01*
X126976690Y-124615773D01*
X126976691Y-124615775D01*
X127080766Y-124771534D01*
X127152454Y-124944605D01*
X127189000Y-125128333D01*
X127189000Y-125315667D01*
X127152454Y-125499395D01*
X127080766Y-125672466D01*
X127080765Y-125672467D01*
X126976690Y-125828227D01*
X126844227Y-125960690D01*
X126767005Y-126012288D01*
X126688466Y-126064766D01*
X126515395Y-126136454D01*
X126331667Y-126173000D01*
X126144333Y-126173000D01*
X125960605Y-126136454D01*
X125787534Y-126064766D01*
X125708995Y-126012288D01*
X125631773Y-125960690D01*
X125499310Y-125828227D01*
X125395235Y-125672467D01*
X125395234Y-125672466D01*
X125323546Y-125499395D01*
X125287000Y-125315667D01*
X125287000Y-125128333D01*
X125323546Y-124944605D01*
X125395234Y-124771534D01*
X125499309Y-124615775D01*
X125499310Y-124615773D01*
X125631773Y-124483310D01*
X125787533Y-124379235D01*
X125787534Y-124379234D01*
X125960605Y-124307546D01*
X126144333Y-124271000D01*
X126331667Y-124271000D01*
X126515395Y-124307546D01*
G37*
G36*
X177835515Y-124667058D02*
G01*
X177953522Y-124702855D01*
X178062268Y-124760981D01*
X178157590Y-124839210D01*
X178235819Y-124934532D01*
X178293945Y-125043278D01*
X178329742Y-125161285D01*
X178341828Y-125284000D01*
X178329742Y-125406715D01*
X178293945Y-125524722D01*
X178235819Y-125633468D01*
X178157590Y-125728790D01*
X178062268Y-125807019D01*
X177953522Y-125865145D01*
X177953519Y-125865146D01*
X177946721Y-125867208D01*
X177835515Y-125900942D01*
X177743546Y-125910000D01*
X177032054Y-125910000D01*
X176940085Y-125900942D01*
X176828879Y-125867208D01*
X176822081Y-125865146D01*
X176822078Y-125865145D01*
X176713332Y-125807019D01*
X176618010Y-125728790D01*
X176539781Y-125633468D01*
X176481655Y-125524722D01*
X176445858Y-125406715D01*
X176433772Y-125284000D01*
X176445858Y-125161285D01*
X176481655Y-125043278D01*
X176539781Y-124934532D01*
X176618010Y-124839210D01*
X176713332Y-124760981D01*
X176822078Y-124702855D01*
X176940085Y-124667058D01*
X177032054Y-124658000D01*
X177743546Y-124658000D01*
X177835515Y-124667058D01*
G37*
G36*
X124649000Y-119061000D02*
G01*
X122747000Y-119061000D01*
X122747000Y-117159000D01*
X124649000Y-117159000D01*
X124649000Y-119061000D01*
G37*
G36*
X126515395Y-117195546D02*
G01*
X126688466Y-117267234D01*
X126688467Y-117267235D01*
X126844227Y-117371310D01*
X126976690Y-117503773D01*
X126976691Y-117503775D01*
X127080766Y-117659534D01*
X127152454Y-117832605D01*
X127189000Y-118016333D01*
X127189000Y-118203667D01*
X127152454Y-118387395D01*
X127080766Y-118560466D01*
X127080765Y-118560467D01*
X126976690Y-118716227D01*
X126844227Y-118848690D01*
X126765818Y-118901081D01*
X126688466Y-118952766D01*
X126515395Y-119024454D01*
X126331667Y-119061000D01*
X126144333Y-119061000D01*
X125960605Y-119024454D01*
X125787534Y-118952766D01*
X125710182Y-118901081D01*
X125631773Y-118848690D01*
X125499310Y-118716227D01*
X125395235Y-118560467D01*
X125395234Y-118560466D01*
X125323546Y-118387395D01*
X125287000Y-118203667D01*
X125287000Y-118016333D01*
X125323546Y-117832605D01*
X125395234Y-117659534D01*
X125499309Y-117503775D01*
X125499310Y-117503773D01*
X125631773Y-117371310D01*
X125787533Y-117267235D01*
X125787534Y-117267234D01*
X125960605Y-117195546D01*
X126144333Y-117159000D01*
X126331667Y-117159000D01*
X126515395Y-117195546D01*
G37*
G36*
X170674254Y-114778818D02*
G01*
X171047511Y-114933426D01*
X171047513Y-114933427D01*
X171383436Y-115157884D01*
X171669116Y-115443564D01*
X171893574Y-115779489D01*
X172048182Y-116152746D01*
X172127000Y-116548993D01*
X172127000Y-116953007D01*
X172048182Y-117349254D01*
X172039046Y-117371310D01*
X171893573Y-117722513D01*
X171669116Y-118058436D01*
X171383436Y-118344116D01*
X171047513Y-118568573D01*
X171047512Y-118568574D01*
X171047511Y-118568574D01*
X170674254Y-118723182D01*
X170278007Y-118802000D01*
X169873993Y-118802000D01*
X169477746Y-118723182D01*
X169104489Y-118568574D01*
X169104488Y-118568574D01*
X169104487Y-118568573D01*
X168768564Y-118344116D01*
X168482884Y-118058436D01*
X168258427Y-117722513D01*
X168112954Y-117371310D01*
X168103818Y-117349254D01*
X168025000Y-116953007D01*
X168025000Y-116548993D01*
X168103818Y-116152746D01*
X168258426Y-115779489D01*
X168482884Y-115443564D01*
X168768564Y-115157884D01*
X169104487Y-114933427D01*
X169104489Y-114933426D01*
X169477746Y-114778818D01*
X169873993Y-114700000D01*
X170278007Y-114700000D01*
X170674254Y-114778818D01*
G37*
G36*
X124649000Y-111949000D02*
G01*
X122747000Y-111949000D01*
X122747000Y-110047000D01*
X124649000Y-110047000D01*
X124649000Y-111949000D01*
G37*
G36*
X126515395Y-110083546D02*
G01*
X126688466Y-110155234D01*
X126688467Y-110155235D01*
X126844227Y-110259310D01*
X126976690Y-110391773D01*
X126976691Y-110391775D01*
X127080766Y-110547534D01*
X127152454Y-110720605D01*
X127189000Y-110904333D01*
X127189000Y-111091667D01*
X127152454Y-111275395D01*
X127080766Y-111448466D01*
X127080765Y-111448467D01*
X126976690Y-111604227D01*
X126844227Y-111736690D01*
X126765818Y-111789081D01*
X126688466Y-111840766D01*
X126515395Y-111912454D01*
X126331667Y-111949000D01*
X126144333Y-111949000D01*
X125960605Y-111912454D01*
X125787534Y-111840766D01*
X125710182Y-111789081D01*
X125631773Y-111736690D01*
X125499310Y-111604227D01*
X125395235Y-111448467D01*
X125395234Y-111448466D01*
X125323546Y-111275395D01*
X125287000Y-111091667D01*
X125287000Y-110904333D01*
X125323546Y-110720605D01*
X125395234Y-110547534D01*
X125499309Y-110391775D01*
X125499310Y-110391773D01*
X125631773Y-110259310D01*
X125787533Y-110155235D01*
X125787534Y-110155234D01*
X125960605Y-110083546D01*
X126144333Y-110047000D01*
X126331667Y-110047000D01*
X126515395Y-110083546D01*
G37*
G36*
X168904228Y-109002703D02*
G01*
X169059100Y-109066853D01*
X169198481Y-109159985D01*
X169317015Y-109278519D01*
X169410147Y-109417900D01*
X169474297Y-109572772D01*
X169507000Y-109737184D01*
X169507000Y-109904816D01*
X169474297Y-110069228D01*
X169410147Y-110224100D01*
X169317015Y-110363481D01*
X169198481Y-110482015D01*
X169059100Y-110575147D01*
X168904228Y-110639297D01*
X168739816Y-110672000D01*
X168572184Y-110672000D01*
X168407772Y-110639297D01*
X168252900Y-110575147D01*
X168113519Y-110482015D01*
X167994985Y-110363481D01*
X167901853Y-110224100D01*
X167837703Y-110069228D01*
X167805000Y-109904816D01*
X167805000Y-109737184D01*
X167837703Y-109572772D01*
X167901853Y-109417900D01*
X167994985Y-109278519D01*
X168113519Y-109159985D01*
X168252900Y-109066853D01*
X168407772Y-109002703D01*
X168572184Y-108970000D01*
X168739816Y-108970000D01*
X168904228Y-109002703D01*
G37*
G36*
X171744228Y-107617703D02*
G01*
X171899100Y-107681853D01*
X172038481Y-107774985D01*
X172157015Y-107893519D01*
X172250147Y-108032900D01*
X172314297Y-108187772D01*
X172347000Y-108352184D01*
X172347000Y-108519816D01*
X172314297Y-108684228D01*
X172250147Y-108839100D01*
X172157015Y-108978481D01*
X172038481Y-109097015D01*
X171899100Y-109190147D01*
X171744228Y-109254297D01*
X171579816Y-109287000D01*
X171412184Y-109287000D01*
X171247772Y-109254297D01*
X171092900Y-109190147D01*
X170953519Y-109097015D01*
X170834985Y-108978481D01*
X170741853Y-108839100D01*
X170677703Y-108684228D01*
X170645000Y-108519816D01*
X170645000Y-108352184D01*
X170677703Y-108187772D01*
X170741853Y-108032900D01*
X170834985Y-107893519D01*
X170953519Y-107774985D01*
X171092900Y-107681853D01*
X171247772Y-107617703D01*
X171412184Y-107585000D01*
X171579816Y-107585000D01*
X171744228Y-107617703D01*
G37*
G36*
X168904228Y-106232703D02*
G01*
X169059100Y-106296853D01*
X169198481Y-106389985D01*
X169317015Y-106508519D01*
X169410147Y-106647900D01*
X169474297Y-106802772D01*
X169507000Y-106967184D01*
X169507000Y-107134816D01*
X169474297Y-107299228D01*
X169410147Y-107454100D01*
X169317015Y-107593481D01*
X169198481Y-107712015D01*
X169059100Y-107805147D01*
X168904228Y-107869297D01*
X168739816Y-107902000D01*
X168572184Y-107902000D01*
X168407772Y-107869297D01*
X168252900Y-107805147D01*
X168113519Y-107712015D01*
X167994985Y-107593481D01*
X167901853Y-107454100D01*
X167837703Y-107299228D01*
X167805000Y-107134816D01*
X167805000Y-106967184D01*
X167837703Y-106802772D01*
X167901853Y-106647900D01*
X167994985Y-106508519D01*
X168113519Y-106389985D01*
X168252900Y-106296853D01*
X168407772Y-106232703D01*
X168572184Y-106200000D01*
X168739816Y-106200000D01*
X168904228Y-106232703D01*
G37*
G36*
X171744228Y-104847703D02*
G01*
X171899100Y-104911853D01*
X172038481Y-105004985D01*
X172157015Y-105123519D01*
X172250147Y-105262900D01*
X172314297Y-105417772D01*
X172347000Y-105582184D01*
X172347000Y-105749816D01*
X172314297Y-105914228D01*
X172250147Y-106069100D01*
X172157015Y-106208481D01*
X172038481Y-106327015D01*
X171899100Y-106420147D01*
X171744228Y-106484297D01*
X171579816Y-106517000D01*
X171412184Y-106517000D01*
X171247772Y-106484297D01*
X171092900Y-106420147D01*
X170953519Y-106327015D01*
X170834985Y-106208481D01*
X170741853Y-106069100D01*
X170677703Y-105914228D01*
X170645000Y-105749816D01*
X170645000Y-105582184D01*
X170677703Y-105417772D01*
X170741853Y-105262900D01*
X170834985Y-105123519D01*
X170953519Y-105004985D01*
X171092900Y-104911853D01*
X171247772Y-104847703D01*
X171412184Y-104815000D01*
X171579816Y-104815000D01*
X171744228Y-104847703D01*
G37*
G36*
X168904228Y-103462703D02*
G01*
X169059100Y-103526853D01*
X169198481Y-103619985D01*
X169317015Y-103738519D01*
X169410147Y-103877900D01*
X169474297Y-104032772D01*
X169507000Y-104197184D01*
X169507000Y-104364816D01*
X169474297Y-104529228D01*
X169410147Y-104684100D01*
X169317015Y-104823481D01*
X169198481Y-104942015D01*
X169059100Y-105035147D01*
X168904228Y-105099297D01*
X168739816Y-105132000D01*
X168572184Y-105132000D01*
X168407772Y-105099297D01*
X168252900Y-105035147D01*
X168113519Y-104942015D01*
X167994985Y-104823481D01*
X167901853Y-104684100D01*
X167837703Y-104529228D01*
X167805000Y-104364816D01*
X167805000Y-104197184D01*
X167837703Y-104032772D01*
X167901853Y-103877900D01*
X167994985Y-103738519D01*
X168113519Y-103619985D01*
X168252900Y-103526853D01*
X168407772Y-103462703D01*
X168572184Y-103430000D01*
X168739816Y-103430000D01*
X168904228Y-103462703D01*
G37*
G36*
X124649000Y-104837000D02*
G01*
X122747000Y-104837000D01*
X122747000Y-102935000D01*
X124649000Y-102935000D01*
X124649000Y-104837000D01*
G37*
G36*
X126515395Y-102971546D02*
G01*
X126688466Y-103043234D01*
X126688467Y-103043235D01*
X126844227Y-103147310D01*
X126976690Y-103279773D01*
X126976691Y-103279775D01*
X127080766Y-103435534D01*
X127152454Y-103608605D01*
X127189000Y-103792333D01*
X127189000Y-103979667D01*
X127152454Y-104163395D01*
X127080766Y-104336466D01*
X127080765Y-104336467D01*
X126976690Y-104492227D01*
X126844227Y-104624690D01*
X126765818Y-104677081D01*
X126688466Y-104728766D01*
X126515395Y-104800454D01*
X126331667Y-104837000D01*
X126144333Y-104837000D01*
X125960605Y-104800454D01*
X125787534Y-104728766D01*
X125710182Y-104677081D01*
X125631773Y-104624690D01*
X125499310Y-104492227D01*
X125395235Y-104336467D01*
X125395234Y-104336466D01*
X125323546Y-104163395D01*
X125287000Y-103979667D01*
X125287000Y-103792333D01*
X125323546Y-103608605D01*
X125395234Y-103435534D01*
X125499309Y-103279775D01*
X125499310Y-103279773D01*
X125631773Y-103147310D01*
X125787533Y-103043235D01*
X125787534Y-103043234D01*
X125960605Y-102971546D01*
X126144333Y-102935000D01*
X126331667Y-102935000D01*
X126515395Y-102971546D01*
G37*
G36*
X171744228Y-102077703D02*
G01*
X171899100Y-102141853D01*
X172038481Y-102234985D01*
X172157015Y-102353519D01*
X172250147Y-102492900D01*
X172314297Y-102647772D01*
X172347000Y-102812184D01*
X172347000Y-102979816D01*
X172314297Y-103144228D01*
X172250147Y-103299100D01*
X172157015Y-103438481D01*
X172038481Y-103557015D01*
X171899100Y-103650147D01*
X171744228Y-103714297D01*
X171579816Y-103747000D01*
X171412184Y-103747000D01*
X171247772Y-103714297D01*
X171092900Y-103650147D01*
X170953519Y-103557015D01*
X170834985Y-103438481D01*
X170741853Y-103299100D01*
X170677703Y-103144228D01*
X170645000Y-102979816D01*
X170645000Y-102812184D01*
X170677703Y-102647772D01*
X170741853Y-102492900D01*
X170834985Y-102353519D01*
X170953519Y-102234985D01*
X171092900Y-102141853D01*
X171247772Y-102077703D01*
X171412184Y-102045000D01*
X171579816Y-102045000D01*
X171744228Y-102077703D01*
G37*
G36*
X168904228Y-100692703D02*
G01*
X169059100Y-100756853D01*
X169198481Y-100849985D01*
X169317015Y-100968519D01*
X169410147Y-101107900D01*
X169474297Y-101262772D01*
X169507000Y-101427184D01*
X169507000Y-101594816D01*
X169474297Y-101759228D01*
X169410147Y-101914100D01*
X169317015Y-102053481D01*
X169198481Y-102172015D01*
X169059100Y-102265147D01*
X168904228Y-102329297D01*
X168739816Y-102362000D01*
X168572184Y-102362000D01*
X168407772Y-102329297D01*
X168252900Y-102265147D01*
X168113519Y-102172015D01*
X167994985Y-102053481D01*
X167901853Y-101914100D01*
X167837703Y-101759228D01*
X167805000Y-101594816D01*
X167805000Y-101427184D01*
X167837703Y-101262772D01*
X167901853Y-101107900D01*
X167994985Y-100968519D01*
X168113519Y-100849985D01*
X168252900Y-100756853D01*
X168407772Y-100692703D01*
X168572184Y-100660000D01*
X168739816Y-100660000D01*
X168904228Y-100692703D01*
G37*
G36*
X171744228Y-99307703D02*
G01*
X171899100Y-99371853D01*
X172038481Y-99464985D01*
X172157015Y-99583519D01*
X172250147Y-99722900D01*
X172314297Y-99877772D01*
X172347000Y-100042184D01*
X172347000Y-100209816D01*
X172314297Y-100374228D01*
X172250147Y-100529100D01*
X172157015Y-100668481D01*
X172038481Y-100787015D01*
X171899100Y-100880147D01*
X171744228Y-100944297D01*
X171579816Y-100977000D01*
X171412184Y-100977000D01*
X171247772Y-100944297D01*
X171092900Y-100880147D01*
X170953519Y-100787015D01*
X170834985Y-100668481D01*
X170741853Y-100529100D01*
X170677703Y-100374228D01*
X170645000Y-100209816D01*
X170645000Y-100042184D01*
X170677703Y-99877772D01*
X170741853Y-99722900D01*
X170834985Y-99583519D01*
X170953519Y-99464985D01*
X171092900Y-99371853D01*
X171247772Y-99307703D01*
X171412184Y-99275000D01*
X171579816Y-99275000D01*
X171744228Y-99307703D01*
G37*
G36*
X168904228Y-97922703D02*
G01*
X169059100Y-97986853D01*
X169198481Y-98079985D01*
X169317015Y-98198519D01*
X169410147Y-98337900D01*
X169474297Y-98492772D01*
X169507000Y-98657184D01*
X169507000Y-98824816D01*
X169474297Y-98989228D01*
X169410147Y-99144100D01*
X169317015Y-99283481D01*
X169198481Y-99402015D01*
X169059100Y-99495147D01*
X168904228Y-99559297D01*
X168739816Y-99592000D01*
X168572184Y-99592000D01*
X168407772Y-99559297D01*
X168252900Y-99495147D01*
X168113519Y-99402015D01*
X167994985Y-99283481D01*
X167901853Y-99144100D01*
X167837703Y-98989228D01*
X167805000Y-98824816D01*
X167805000Y-98657184D01*
X167837703Y-98492772D01*
X167901853Y-98337900D01*
X167994985Y-98198519D01*
X168113519Y-98079985D01*
X168252900Y-97986853D01*
X168407772Y-97922703D01*
X168572184Y-97890000D01*
X168739816Y-97890000D01*
X168904228Y-97922703D01*
G37*
G36*
X171744228Y-96537703D02*
G01*
X171899100Y-96601853D01*
X172038481Y-96694985D01*
X172157015Y-96813519D01*
X172250147Y-96952900D01*
X172314297Y-97107772D01*
X172347000Y-97272184D01*
X172347000Y-97439816D01*
X172314297Y-97604228D01*
X172250147Y-97759100D01*
X172157015Y-97898481D01*
X172038481Y-98017015D01*
X171899100Y-98110147D01*
X171744228Y-98174297D01*
X171579816Y-98207000D01*
X171412184Y-98207000D01*
X171247772Y-98174297D01*
X171092900Y-98110147D01*
X170953519Y-98017015D01*
X170834985Y-97898481D01*
X170741853Y-97759100D01*
X170677703Y-97604228D01*
X170645000Y-97439816D01*
X170645000Y-97272184D01*
X170677703Y-97107772D01*
X170741853Y-96952900D01*
X170834985Y-96813519D01*
X170953519Y-96694985D01*
X171092900Y-96601853D01*
X171247772Y-96537703D01*
X171412184Y-96505000D01*
X171579816Y-96505000D01*
X171744228Y-96537703D01*
G37*
G36*
X124649000Y-97725000D02*
G01*
X122747000Y-97725000D01*
X122747000Y-95823000D01*
X124649000Y-95823000D01*
X124649000Y-97725000D01*
G37*
G36*
X126515395Y-95859546D02*
G01*
X126688466Y-95931234D01*
X126688467Y-95931235D01*
X126844227Y-96035310D01*
X126976690Y-96167773D01*
X126976691Y-96167775D01*
X127080766Y-96323534D01*
X127152454Y-96496605D01*
X127189000Y-96680333D01*
X127189000Y-96867667D01*
X127152454Y-97051395D01*
X127080766Y-97224466D01*
X127080765Y-97224467D01*
X126976690Y-97380227D01*
X126844227Y-97512690D01*
X126765818Y-97565081D01*
X126688466Y-97616766D01*
X126515395Y-97688454D01*
X126331667Y-97725000D01*
X126144333Y-97725000D01*
X125960605Y-97688454D01*
X125787534Y-97616766D01*
X125710182Y-97565081D01*
X125631773Y-97512690D01*
X125499310Y-97380227D01*
X125395235Y-97224467D01*
X125395234Y-97224466D01*
X125323546Y-97051395D01*
X125287000Y-96867667D01*
X125287000Y-96680333D01*
X125323546Y-96496605D01*
X125395234Y-96323534D01*
X125499309Y-96167775D01*
X125499310Y-96167773D01*
X125631773Y-96035310D01*
X125787533Y-95931235D01*
X125787534Y-95931234D01*
X125960605Y-95859546D01*
X126144333Y-95823000D01*
X126331667Y-95823000D01*
X126515395Y-95859546D01*
G37*
G36*
X168904228Y-95152703D02*
G01*
X169059100Y-95216853D01*
X169198481Y-95309985D01*
X169317015Y-95428519D01*
X169410147Y-95567900D01*
X169474297Y-95722772D01*
X169507000Y-95887184D01*
X169507000Y-96054816D01*
X169474297Y-96219228D01*
X169410147Y-96374100D01*
X169317015Y-96513481D01*
X169198481Y-96632015D01*
X169059100Y-96725147D01*
X168904228Y-96789297D01*
X168739816Y-96822000D01*
X168572184Y-96822000D01*
X168407772Y-96789297D01*
X168252900Y-96725147D01*
X168113519Y-96632015D01*
X167994985Y-96513481D01*
X167901853Y-96374100D01*
X167837703Y-96219228D01*
X167805000Y-96054816D01*
X167805000Y-95887184D01*
X167837703Y-95722772D01*
X167901853Y-95567900D01*
X167994985Y-95428519D01*
X168113519Y-95309985D01*
X168252900Y-95216853D01*
X168407772Y-95152703D01*
X168572184Y-95120000D01*
X168739816Y-95120000D01*
X168904228Y-95152703D01*
G37*
G36*
X171744228Y-93767703D02*
G01*
X171899100Y-93831853D01*
X172038481Y-93924985D01*
X172157015Y-94043519D01*
X172250147Y-94182900D01*
X172314297Y-94337772D01*
X172347000Y-94502184D01*
X172347000Y-94669816D01*
X172314297Y-94834228D01*
X172250147Y-94989100D01*
X172157015Y-95128481D01*
X172038481Y-95247015D01*
X171899100Y-95340147D01*
X171744228Y-95404297D01*
X171579816Y-95437000D01*
X171412184Y-95437000D01*
X171247772Y-95404297D01*
X171092900Y-95340147D01*
X170953519Y-95247015D01*
X170834985Y-95128481D01*
X170741853Y-94989100D01*
X170677703Y-94834228D01*
X170645000Y-94669816D01*
X170645000Y-94502184D01*
X170677703Y-94337772D01*
X170741853Y-94182900D01*
X170834985Y-94043519D01*
X170953519Y-93924985D01*
X171092900Y-93831853D01*
X171247772Y-93767703D01*
X171412184Y-93735000D01*
X171579816Y-93735000D01*
X171744228Y-93767703D01*
G37*
G36*
X168904228Y-92382703D02*
G01*
X169059100Y-92446853D01*
X169198481Y-92539985D01*
X169317015Y-92658519D01*
X169410147Y-92797900D01*
X169474297Y-92952772D01*
X169507000Y-93117184D01*
X169507000Y-93284816D01*
X169474297Y-93449228D01*
X169410147Y-93604100D01*
X169317015Y-93743481D01*
X169198481Y-93862015D01*
X169059100Y-93955147D01*
X168904228Y-94019297D01*
X168739816Y-94052000D01*
X168572184Y-94052000D01*
X168407772Y-94019297D01*
X168252900Y-93955147D01*
X168113519Y-93862015D01*
X167994985Y-93743481D01*
X167901853Y-93604100D01*
X167837703Y-93449228D01*
X167805000Y-93284816D01*
X167805000Y-93117184D01*
X167837703Y-92952772D01*
X167901853Y-92797900D01*
X167994985Y-92658519D01*
X168113519Y-92539985D01*
X168252900Y-92446853D01*
X168407772Y-92382703D01*
X168572184Y-92350000D01*
X168739816Y-92350000D01*
X168904228Y-92382703D01*
G37*
G36*
X171744228Y-90997703D02*
G01*
X171899100Y-91061853D01*
X172038481Y-91154985D01*
X172157015Y-91273519D01*
X172250147Y-91412900D01*
X172314297Y-91567772D01*
X172347000Y-91732184D01*
X172347000Y-91899816D01*
X172314297Y-92064228D01*
X172250147Y-92219100D01*
X172157015Y-92358481D01*
X172038481Y-92477015D01*
X171899100Y-92570147D01*
X171744228Y-92634297D01*
X171579816Y-92667000D01*
X171412184Y-92667000D01*
X171247772Y-92634297D01*
X171092900Y-92570147D01*
X170953519Y-92477015D01*
X170834985Y-92358481D01*
X170741853Y-92219100D01*
X170677703Y-92064228D01*
X170645000Y-91899816D01*
X170645000Y-91732184D01*
X170677703Y-91567772D01*
X170741853Y-91412900D01*
X170834985Y-91273519D01*
X170953519Y-91154985D01*
X171092900Y-91061853D01*
X171247772Y-90997703D01*
X171412184Y-90965000D01*
X171579816Y-90965000D01*
X171744228Y-90997703D01*
G37*
G36*
X168904228Y-89612703D02*
G01*
X169059100Y-89676853D01*
X169198481Y-89769985D01*
X169317015Y-89888519D01*
X169410147Y-90027900D01*
X169474297Y-90182772D01*
X169507000Y-90347184D01*
X169507000Y-90514816D01*
X169474297Y-90679228D01*
X169410147Y-90834100D01*
X169317015Y-90973481D01*
X169198481Y-91092015D01*
X169059100Y-91185147D01*
X168904228Y-91249297D01*
X168739816Y-91282000D01*
X168572184Y-91282000D01*
X168407772Y-91249297D01*
X168252900Y-91185147D01*
X168113519Y-91092015D01*
X167994985Y-90973481D01*
X167901853Y-90834100D01*
X167837703Y-90679228D01*
X167805000Y-90514816D01*
X167805000Y-90347184D01*
X167837703Y-90182772D01*
X167901853Y-90027900D01*
X167994985Y-89888519D01*
X168113519Y-89769985D01*
X168252900Y-89676853D01*
X168407772Y-89612703D01*
X168572184Y-89580000D01*
X168739816Y-89580000D01*
X168904228Y-89612703D01*
G37*
G36*
X124649000Y-90613000D02*
G01*
X122747000Y-90613000D01*
X122747000Y-88711000D01*
X124649000Y-88711000D01*
X124649000Y-90613000D01*
G37*
G36*
X126515395Y-88747546D02*
G01*
X126688466Y-88819234D01*
X126688467Y-88819235D01*
X126844227Y-88923310D01*
X126976690Y-89055773D01*
X126976691Y-89055775D01*
X127080766Y-89211534D01*
X127152454Y-89384605D01*
X127189000Y-89568333D01*
X127189000Y-89755667D01*
X127152454Y-89939395D01*
X127080766Y-90112466D01*
X127080765Y-90112467D01*
X126976690Y-90268227D01*
X126844227Y-90400690D01*
X126765818Y-90453081D01*
X126688466Y-90504766D01*
X126515395Y-90576454D01*
X126331667Y-90613000D01*
X126144333Y-90613000D01*
X125960605Y-90576454D01*
X125787534Y-90504766D01*
X125710182Y-90453081D01*
X125631773Y-90400690D01*
X125499310Y-90268227D01*
X125395235Y-90112467D01*
X125395234Y-90112466D01*
X125323546Y-89939395D01*
X125287000Y-89755667D01*
X125287000Y-89568333D01*
X125323546Y-89384605D01*
X125395234Y-89211534D01*
X125499309Y-89055775D01*
X125499310Y-89055773D01*
X125631773Y-88923310D01*
X125787533Y-88819235D01*
X125787534Y-88819234D01*
X125960605Y-88747546D01*
X126144333Y-88711000D01*
X126331667Y-88711000D01*
X126515395Y-88747546D01*
G37*
G36*
X171744228Y-88227703D02*
G01*
X171899100Y-88291853D01*
X172038481Y-88384985D01*
X172157015Y-88503519D01*
X172250147Y-88642900D01*
X172314297Y-88797772D01*
X172347000Y-88962184D01*
X172347000Y-89129816D01*
X172314297Y-89294228D01*
X172250147Y-89449100D01*
X172157015Y-89588481D01*
X172038481Y-89707015D01*
X171899100Y-89800147D01*
X171744228Y-89864297D01*
X171579816Y-89897000D01*
X171412184Y-89897000D01*
X171247772Y-89864297D01*
X171092900Y-89800147D01*
X170953519Y-89707015D01*
X170834985Y-89588481D01*
X170741853Y-89449100D01*
X170677703Y-89294228D01*
X170645000Y-89129816D01*
X170645000Y-88962184D01*
X170677703Y-88797772D01*
X170741853Y-88642900D01*
X170834985Y-88503519D01*
X170953519Y-88384985D01*
X171092900Y-88291853D01*
X171247772Y-88227703D01*
X171412184Y-88195000D01*
X171579816Y-88195000D01*
X171744228Y-88227703D01*
G37*
G36*
X168904228Y-86842703D02*
G01*
X169059100Y-86906853D01*
X169198481Y-86999985D01*
X169317015Y-87118519D01*
X169410147Y-87257900D01*
X169474297Y-87412772D01*
X169507000Y-87577184D01*
X169507000Y-87744816D01*
X169474297Y-87909228D01*
X169410147Y-88064100D01*
X169317015Y-88203481D01*
X169198481Y-88322015D01*
X169059100Y-88415147D01*
X168904228Y-88479297D01*
X168739816Y-88512000D01*
X168572184Y-88512000D01*
X168407772Y-88479297D01*
X168252900Y-88415147D01*
X168113519Y-88322015D01*
X167994985Y-88203481D01*
X167901853Y-88064100D01*
X167837703Y-87909228D01*
X167805000Y-87744816D01*
X167805000Y-87577184D01*
X167837703Y-87412772D01*
X167901853Y-87257900D01*
X167994985Y-87118519D01*
X168113519Y-86999985D01*
X168252900Y-86906853D01*
X168407772Y-86842703D01*
X168572184Y-86810000D01*
X168739816Y-86810000D01*
X168904228Y-86842703D01*
G37*
G36*
X171744228Y-85457703D02*
G01*
X171899100Y-85521853D01*
X172038481Y-85614985D01*
X172157015Y-85733519D01*
X172250147Y-85872900D01*
X172314297Y-86027772D01*
X172347000Y-86192184D01*
X172347000Y-86359816D01*
X172314297Y-86524228D01*
X172250147Y-86679100D01*
X172157015Y-86818481D01*
X172038481Y-86937015D01*
X171899100Y-87030147D01*
X171744228Y-87094297D01*
X171579816Y-87127000D01*
X171412184Y-87127000D01*
X171247772Y-87094297D01*
X171092900Y-87030147D01*
X170953519Y-86937015D01*
X170834985Y-86818481D01*
X170741853Y-86679100D01*
X170677703Y-86524228D01*
X170645000Y-86359816D01*
X170645000Y-86192184D01*
X170677703Y-86027772D01*
X170741853Y-85872900D01*
X170834985Y-85733519D01*
X170953519Y-85614985D01*
X171092900Y-85521853D01*
X171247772Y-85457703D01*
X171412184Y-85425000D01*
X171579816Y-85425000D01*
X171744228Y-85457703D01*
G37*
G36*
X168904228Y-84072703D02*
G01*
X169059100Y-84136853D01*
X169198481Y-84229985D01*
X169317015Y-84348519D01*
X169410147Y-84487900D01*
X169474297Y-84642772D01*
X169507000Y-84807184D01*
X169507000Y-84974816D01*
X169474297Y-85139228D01*
X169410147Y-85294100D01*
X169317015Y-85433481D01*
X169198481Y-85552015D01*
X169059100Y-85645147D01*
X168904228Y-85709297D01*
X168739816Y-85742000D01*
X168572184Y-85742000D01*
X168407772Y-85709297D01*
X168252900Y-85645147D01*
X168113519Y-85552015D01*
X167994985Y-85433481D01*
X167901853Y-85294100D01*
X167837703Y-85139228D01*
X167805000Y-84974816D01*
X167805000Y-84807184D01*
X167837703Y-84642772D01*
X167901853Y-84487900D01*
X167994985Y-84348519D01*
X168113519Y-84229985D01*
X168252900Y-84136853D01*
X168407772Y-84072703D01*
X168572184Y-84040000D01*
X168739816Y-84040000D01*
X168904228Y-84072703D01*
G37*
G36*
X171744228Y-82687703D02*
G01*
X171899100Y-82751853D01*
X172038481Y-82844985D01*
X172157015Y-82963519D01*
X172250147Y-83102900D01*
X172314297Y-83257772D01*
X172347000Y-83422184D01*
X172347000Y-83589816D01*
X172314297Y-83754228D01*
X172250147Y-83909100D01*
X172157015Y-84048481D01*
X172038481Y-84167015D01*
X171899100Y-84260147D01*
X171744228Y-84324297D01*
X171579816Y-84357000D01*
X171412184Y-84357000D01*
X171247772Y-84324297D01*
X171092900Y-84260147D01*
X170953519Y-84167015D01*
X170834985Y-84048481D01*
X170741853Y-83909100D01*
X170677703Y-83754228D01*
X170645000Y-83589816D01*
X170645000Y-83422184D01*
X170677703Y-83257772D01*
X170741853Y-83102900D01*
X170834985Y-82963519D01*
X170953519Y-82844985D01*
X171092900Y-82751853D01*
X171247772Y-82687703D01*
X171412184Y-82655000D01*
X171579816Y-82655000D01*
X171744228Y-82687703D01*
G37*
G36*
X126515395Y-81635546D02*
G01*
X126688466Y-81707234D01*
X126704433Y-81717903D01*
X126844227Y-81811310D01*
X126976690Y-81943773D01*
X126976691Y-81943775D01*
X127080766Y-82099534D01*
X127152454Y-82272605D01*
X127189000Y-82456333D01*
X127189000Y-82643667D01*
X127152454Y-82827395D01*
X127080766Y-83000466D01*
X127080765Y-83000467D01*
X126976690Y-83156227D01*
X126844227Y-83288690D01*
X126765818Y-83341081D01*
X126688466Y-83392766D01*
X126515395Y-83464454D01*
X126331667Y-83501000D01*
X126144333Y-83501000D01*
X125960605Y-83464454D01*
X125787534Y-83392766D01*
X125710182Y-83341081D01*
X125631773Y-83288690D01*
X125499310Y-83156227D01*
X125395235Y-83000467D01*
X125395234Y-83000466D01*
X125323546Y-82827395D01*
X125287000Y-82643667D01*
X125287000Y-82456333D01*
X125323546Y-82272605D01*
X125395234Y-82099534D01*
X125499309Y-81943775D01*
X125499310Y-81943773D01*
X125631773Y-81811310D01*
X125771567Y-81717903D01*
X125787534Y-81707234D01*
X125960605Y-81635546D01*
X126144333Y-81599000D01*
X126331667Y-81599000D01*
X126515395Y-81635546D01*
G37*
G36*
X124649000Y-83501000D02*
G01*
X122747000Y-83501000D01*
X122747000Y-81599000D01*
X124649000Y-81599000D01*
X124649000Y-83501000D01*
G37*
G36*
X168904228Y-81302703D02*
G01*
X169059100Y-81366853D01*
X169198481Y-81459985D01*
X169317015Y-81578519D01*
X169410147Y-81717900D01*
X169474297Y-81872772D01*
X169507000Y-82037184D01*
X169507000Y-82204816D01*
X169474297Y-82369228D01*
X169410147Y-82524100D01*
X169317015Y-82663481D01*
X169198481Y-82782015D01*
X169059100Y-82875147D01*
X168904228Y-82939297D01*
X168739816Y-82972000D01*
X168572184Y-82972000D01*
X168407772Y-82939297D01*
X168252900Y-82875147D01*
X168113519Y-82782015D01*
X167994985Y-82663481D01*
X167901853Y-82524100D01*
X167837703Y-82369228D01*
X167805000Y-82204816D01*
X167805000Y-82037184D01*
X167837703Y-81872772D01*
X167901853Y-81717900D01*
X167994985Y-81578519D01*
X168113519Y-81459985D01*
X168252900Y-81366853D01*
X168407772Y-81302703D01*
X168572184Y-81270000D01*
X168739816Y-81270000D01*
X168904228Y-81302703D01*
G37*
G36*
X171744228Y-79917703D02*
G01*
X171899100Y-79981853D01*
X172038481Y-80074985D01*
X172157015Y-80193519D01*
X172250147Y-80332900D01*
X172314297Y-80487772D01*
X172347000Y-80652184D01*
X172347000Y-80819816D01*
X172314297Y-80984228D01*
X172250147Y-81139100D01*
X172157015Y-81278481D01*
X172038481Y-81397015D01*
X171899100Y-81490147D01*
X171744228Y-81554297D01*
X171579816Y-81587000D01*
X171412184Y-81587000D01*
X171247772Y-81554297D01*
X171092900Y-81490147D01*
X170953519Y-81397015D01*
X170834985Y-81278481D01*
X170741853Y-81139100D01*
X170677703Y-80984228D01*
X170645000Y-80819816D01*
X170645000Y-80652184D01*
X170677703Y-80487772D01*
X170741853Y-80332900D01*
X170834985Y-80193519D01*
X170953519Y-80074985D01*
X171092900Y-79981853D01*
X171247772Y-79917703D01*
X171412184Y-79885000D01*
X171579816Y-79885000D01*
X171744228Y-79917703D01*
G37*
G36*
X168904228Y-78532703D02*
G01*
X169059100Y-78596853D01*
X169198481Y-78689985D01*
X169317015Y-78808519D01*
X169410147Y-78947900D01*
X169474297Y-79102772D01*
X169507000Y-79267184D01*
X169507000Y-79434816D01*
X169474297Y-79599228D01*
X169410147Y-79754100D01*
X169317015Y-79893481D01*
X169198481Y-80012015D01*
X169059100Y-80105147D01*
X168904228Y-80169297D01*
X168739816Y-80202000D01*
X168572184Y-80202000D01*
X168407772Y-80169297D01*
X168252900Y-80105147D01*
X168113519Y-80012015D01*
X167994985Y-79893481D01*
X167901853Y-79754100D01*
X167837703Y-79599228D01*
X167805000Y-79434816D01*
X167805000Y-79267184D01*
X167837703Y-79102772D01*
X167901853Y-78947900D01*
X167994985Y-78808519D01*
X168113519Y-78689985D01*
X168252900Y-78596853D01*
X168407772Y-78532703D01*
X168572184Y-78500000D01*
X168739816Y-78500000D01*
X168904228Y-78532703D01*
G37*
G36*
X171744228Y-77147703D02*
G01*
X171899100Y-77211853D01*
X172038481Y-77304985D01*
X172157015Y-77423519D01*
X172250147Y-77562900D01*
X172314297Y-77717772D01*
X172347000Y-77882184D01*
X172347000Y-78049816D01*
X172314297Y-78214228D01*
X172250147Y-78369100D01*
X172157015Y-78508481D01*
X172038481Y-78627015D01*
X171899100Y-78720147D01*
X171744228Y-78784297D01*
X171579816Y-78817000D01*
X171412184Y-78817000D01*
X171247772Y-78784297D01*
X171092900Y-78720147D01*
X170953519Y-78627015D01*
X170834985Y-78508481D01*
X170741853Y-78369100D01*
X170677703Y-78214228D01*
X170645000Y-78049816D01*
X170645000Y-77882184D01*
X170677703Y-77717772D01*
X170741853Y-77562900D01*
X170834985Y-77423519D01*
X170953519Y-77304985D01*
X171092900Y-77211853D01*
X171247772Y-77147703D01*
X171412184Y-77115000D01*
X171579816Y-77115000D01*
X171744228Y-77147703D01*
G37*
G36*
X169507000Y-77432000D02*
G01*
X167805000Y-77432000D01*
X167805000Y-75730000D01*
X169507000Y-75730000D01*
X169507000Y-77432000D01*
G37*
G36*
X126515395Y-74523546D02*
G01*
X126688466Y-74595234D01*
X126688467Y-74595235D01*
X126844227Y-74699310D01*
X126976690Y-74831773D01*
X126976691Y-74831775D01*
X127080766Y-74987534D01*
X127152454Y-75160605D01*
X127189000Y-75344333D01*
X127189000Y-75531667D01*
X127152454Y-75715395D01*
X127080766Y-75888466D01*
X127080765Y-75888467D01*
X126976690Y-76044227D01*
X126844227Y-76176690D01*
X126765818Y-76229081D01*
X126688466Y-76280766D01*
X126515395Y-76352454D01*
X126331667Y-76389000D01*
X126144333Y-76389000D01*
X125960605Y-76352454D01*
X125787534Y-76280766D01*
X125710182Y-76229081D01*
X125631773Y-76176690D01*
X125499310Y-76044227D01*
X125395235Y-75888467D01*
X125395234Y-75888466D01*
X125323546Y-75715395D01*
X125287000Y-75531667D01*
X125287000Y-75344333D01*
X125323546Y-75160605D01*
X125395234Y-74987534D01*
X125499309Y-74831775D01*
X125499310Y-74831773D01*
X125631773Y-74699310D01*
X125787533Y-74595235D01*
X125787534Y-74595234D01*
X125960605Y-74523546D01*
X126144333Y-74487000D01*
X126331667Y-74487000D01*
X126515395Y-74523546D01*
G37*
G36*
X124649000Y-76389000D02*
G01*
X122747000Y-76389000D01*
X122747000Y-74487000D01*
X124649000Y-74487000D01*
X124649000Y-76389000D01*
G37*
G36*
X170674254Y-67678818D02*
G01*
X171047511Y-67833426D01*
X171047513Y-67833427D01*
X171383436Y-68057884D01*
X171669116Y-68343564D01*
X171842731Y-68603396D01*
X171893574Y-68679489D01*
X172048182Y-69052746D01*
X172127000Y-69448993D01*
X172127000Y-69853007D01*
X172048182Y-70249254D01*
X171893574Y-70622511D01*
X171893573Y-70622513D01*
X171669116Y-70958436D01*
X171383436Y-71244116D01*
X171047513Y-71468573D01*
X171047512Y-71468574D01*
X171047511Y-71468574D01*
X170674254Y-71623182D01*
X170278007Y-71702000D01*
X169873993Y-71702000D01*
X169477746Y-71623182D01*
X169104489Y-71468574D01*
X169104488Y-71468574D01*
X169104487Y-71468573D01*
X168768564Y-71244116D01*
X168482884Y-70958436D01*
X168258427Y-70622513D01*
X168258426Y-70622511D01*
X168103818Y-70249254D01*
X168025000Y-69853007D01*
X168025000Y-69448993D01*
X168103818Y-69052746D01*
X168258426Y-68679489D01*
X168309270Y-68603396D01*
X168482884Y-68343564D01*
X168768564Y-68057884D01*
X169104487Y-67833427D01*
X169104489Y-67833426D01*
X169477746Y-67678818D01*
X169873993Y-67600000D01*
X170278007Y-67600000D01*
X170674254Y-67678818D01*
G37*
G36*
X124649000Y-69277000D02*
G01*
X122747000Y-69277000D01*
X122747000Y-67375000D01*
X124649000Y-67375000D01*
X124649000Y-69277000D01*
G37*
G36*
X126515395Y-67411546D02*
G01*
X126688466Y-67483234D01*
X126688467Y-67483235D01*
X126844227Y-67587310D01*
X126976690Y-67719773D01*
X126976691Y-67719775D01*
X127080766Y-67875534D01*
X127152454Y-68048605D01*
X127189000Y-68232333D01*
X127189000Y-68419667D01*
X127152454Y-68603395D01*
X127080766Y-68776466D01*
X127080765Y-68776467D01*
X126976690Y-68932227D01*
X126844227Y-69064690D01*
X126765818Y-69117081D01*
X126688466Y-69168766D01*
X126515395Y-69240454D01*
X126331667Y-69277000D01*
X126144333Y-69277000D01*
X125960605Y-69240454D01*
X125787534Y-69168766D01*
X125710182Y-69117081D01*
X125631773Y-69064690D01*
X125499310Y-68932227D01*
X125395235Y-68776467D01*
X125395234Y-68776466D01*
X125323546Y-68603395D01*
X125287000Y-68419667D01*
X125287000Y-68232333D01*
X125323546Y-68048605D01*
X125395234Y-67875534D01*
X125499309Y-67719775D01*
X125499310Y-67719773D01*
X125631773Y-67587310D01*
X125787533Y-67483235D01*
X125787534Y-67483234D01*
X125960605Y-67411546D01*
X126144333Y-67375000D01*
X126331667Y-67375000D01*
X126515395Y-67411546D01*
G37*
G36*
X168795000Y-64401000D02*
G01*
X166993000Y-64401000D01*
X166993000Y-62599000D01*
X168795000Y-62599000D01*
X168795000Y-64401000D01*
G37*
G36*
X165467512Y-62603927D02*
G01*
X165616812Y-62633624D01*
X165780784Y-62701544D01*
X165928354Y-62800147D01*
X166053853Y-62925646D01*
X166152456Y-63073216D01*
X166220376Y-63237188D01*
X166255000Y-63411259D01*
X166255000Y-63588741D01*
X166220376Y-63762812D01*
X166152456Y-63926784D01*
X166053853Y-64074354D01*
X165928354Y-64199853D01*
X165780784Y-64298456D01*
X165616812Y-64366376D01*
X165467512Y-64396073D01*
X165442742Y-64401000D01*
X165265258Y-64401000D01*
X165240488Y-64396073D01*
X165091188Y-64366376D01*
X164927216Y-64298456D01*
X164779646Y-64199853D01*
X164654147Y-64074354D01*
X164555544Y-63926784D01*
X164487624Y-63762812D01*
X164453000Y-63588741D01*
X164453000Y-63411259D01*
X164487624Y-63237188D01*
X164555544Y-63073216D01*
X164654147Y-62925646D01*
X164779646Y-62800147D01*
X164927216Y-62701544D01*
X165091188Y-62633624D01*
X165240488Y-62603927D01*
X165265258Y-62599000D01*
X165442742Y-62599000D01*
X165467512Y-62603927D01*
G37*
G36*
X175992549Y-61609116D02*
G01*
X176103734Y-61631232D01*
X176313203Y-61717997D01*
X176501720Y-61843960D01*
X176662040Y-62004280D01*
X176788003Y-62192797D01*
X176788004Y-62192799D01*
X176874768Y-62402267D01*
X176919000Y-62624635D01*
X176919000Y-62851365D01*
X176904224Y-62925647D01*
X176874768Y-63073734D01*
X176788003Y-63283203D01*
X176662040Y-63471720D01*
X176501720Y-63632040D01*
X176313203Y-63758003D01*
X176313202Y-63758004D01*
X176313201Y-63758004D01*
X176301593Y-63762812D01*
X176103734Y-63844768D01*
X175992549Y-63866884D01*
X175881365Y-63889000D01*
X175654635Y-63889000D01*
X175543451Y-63866884D01*
X175432266Y-63844768D01*
X175234407Y-63762812D01*
X175222799Y-63758004D01*
X175222798Y-63758004D01*
X175222797Y-63758003D01*
X175034280Y-63632040D01*
X174873960Y-63471720D01*
X174747997Y-63283203D01*
X174661232Y-63073734D01*
X174631776Y-62925647D01*
X174617000Y-62851365D01*
X174617000Y-62624635D01*
X174661232Y-62402267D01*
X174747996Y-62192799D01*
X174747997Y-62192797D01*
X174873960Y-62004280D01*
X175034280Y-61843960D01*
X175222797Y-61717997D01*
X175432266Y-61631232D01*
X175543451Y-61609116D01*
X175654635Y-61587000D01*
X175881365Y-61587000D01*
X175992549Y-61609116D01*
G37*
G36*
X119096549Y-61609116D02*
G01*
X119207734Y-61631232D01*
X119417203Y-61717997D01*
X119605720Y-61843960D01*
X119766040Y-62004280D01*
X119892003Y-62192797D01*
X119892004Y-62192799D01*
X119978768Y-62402267D01*
X120023000Y-62624635D01*
X120023000Y-62851365D01*
X120008224Y-62925647D01*
X119978768Y-63073734D01*
X119892003Y-63283203D01*
X119766040Y-63471720D01*
X119605720Y-63632040D01*
X119417203Y-63758003D01*
X119417202Y-63758004D01*
X119417201Y-63758004D01*
X119405593Y-63762812D01*
X119207734Y-63844768D01*
X119096549Y-63866884D01*
X118985365Y-63889000D01*
X118758635Y-63889000D01*
X118647451Y-63866884D01*
X118536266Y-63844768D01*
X118338407Y-63762812D01*
X118326799Y-63758004D01*
X118326798Y-63758004D01*
X118326797Y-63758003D01*
X118138280Y-63632040D01*
X117977960Y-63471720D01*
X117851997Y-63283203D01*
X117765232Y-63073734D01*
X117735776Y-62925647D01*
X117721000Y-62851365D01*
X117721000Y-62624635D01*
X117765232Y-62402267D01*
X117851996Y-62192799D01*
X117851997Y-62192797D01*
X117977960Y-62004280D01*
X118138280Y-61843960D01*
X118326797Y-61717997D01*
X118536266Y-61631232D01*
X118647451Y-61609116D01*
X118758635Y-61587000D01*
X118985365Y-61587000D01*
X119096549Y-61609116D01*
G37*
M02*
