G04 #@! TF.GenerationSoftware,KiCad,Pcbnew,(5.1.5-0)*
G04 #@! TF.CreationDate,2020-10-30T11:29:39+01:00*
G04 #@! TF.ProjectId,wifi-modem,77696669-2d6d-46f6-9465-6d2e6b696361,rev?*
G04 #@! TF.SameCoordinates,Original*
G04 #@! TF.FileFunction,Paste,Top*
G04 #@! TF.FilePolarity,Positive*
%FSLAX46Y46*%
G04 Gerber Fmt 4.6, Leading zero omitted, Abs format (unit mm)*
G04 Created by KiCad (PCBNEW (5.1.5-0)) date 2020-10-30 11:29:39*
%MOMM*%
%LPD*%
G04 APERTURE LIST*
%ADD10C,0.100000*%
%ADD11R,1.450000X0.450000*%
%ADD12R,1.500000X0.450000*%
%ADD13R,1.700000X0.480000*%
%ADD14R,2.500000X1.000000*%
%ADD15R,1.000000X1.800000*%
%ADD16R,1.300000X0.450000*%
%ADD17R,1.550000X1.300000*%
%ADD18R,1.500000X2.000000*%
%ADD19R,3.800000X2.000000*%
G04 APERTURE END LIST*
D10*
G36*
X150400005Y-113220204D02*
G01*
X150424273Y-113223804D01*
X150448072Y-113229765D01*
X150471171Y-113238030D01*
X150493350Y-113248520D01*
X150514393Y-113261132D01*
X150534099Y-113275747D01*
X150552277Y-113292223D01*
X150568753Y-113310401D01*
X150583368Y-113330107D01*
X150595980Y-113351150D01*
X150606470Y-113373329D01*
X150614735Y-113396428D01*
X150620696Y-113420227D01*
X150624296Y-113444495D01*
X150625500Y-113468999D01*
X150625500Y-114369001D01*
X150624296Y-114393505D01*
X150620696Y-114417773D01*
X150614735Y-114441572D01*
X150606470Y-114464671D01*
X150595980Y-114486850D01*
X150583368Y-114507893D01*
X150568753Y-114527599D01*
X150552277Y-114545777D01*
X150534099Y-114562253D01*
X150514393Y-114576868D01*
X150493350Y-114589480D01*
X150471171Y-114599970D01*
X150448072Y-114608235D01*
X150424273Y-114614196D01*
X150400005Y-114617796D01*
X150375501Y-114619000D01*
X149725499Y-114619000D01*
X149700995Y-114617796D01*
X149676727Y-114614196D01*
X149652928Y-114608235D01*
X149629829Y-114599970D01*
X149607650Y-114589480D01*
X149586607Y-114576868D01*
X149566901Y-114562253D01*
X149548723Y-114545777D01*
X149532247Y-114527599D01*
X149517632Y-114507893D01*
X149505020Y-114486850D01*
X149494530Y-114464671D01*
X149486265Y-114441572D01*
X149480304Y-114417773D01*
X149476704Y-114393505D01*
X149475500Y-114369001D01*
X149475500Y-113468999D01*
X149476704Y-113444495D01*
X149480304Y-113420227D01*
X149486265Y-113396428D01*
X149494530Y-113373329D01*
X149505020Y-113351150D01*
X149517632Y-113330107D01*
X149532247Y-113310401D01*
X149548723Y-113292223D01*
X149566901Y-113275747D01*
X149586607Y-113261132D01*
X149607650Y-113248520D01*
X149629829Y-113238030D01*
X149652928Y-113229765D01*
X149676727Y-113223804D01*
X149700995Y-113220204D01*
X149725499Y-113219000D01*
X150375501Y-113219000D01*
X150400005Y-113220204D01*
G37*
G36*
X148350005Y-113220204D02*
G01*
X148374273Y-113223804D01*
X148398072Y-113229765D01*
X148421171Y-113238030D01*
X148443350Y-113248520D01*
X148464393Y-113261132D01*
X148484099Y-113275747D01*
X148502277Y-113292223D01*
X148518753Y-113310401D01*
X148533368Y-113330107D01*
X148545980Y-113351150D01*
X148556470Y-113373329D01*
X148564735Y-113396428D01*
X148570696Y-113420227D01*
X148574296Y-113444495D01*
X148575500Y-113468999D01*
X148575500Y-114369001D01*
X148574296Y-114393505D01*
X148570696Y-114417773D01*
X148564735Y-114441572D01*
X148556470Y-114464671D01*
X148545980Y-114486850D01*
X148533368Y-114507893D01*
X148518753Y-114527599D01*
X148502277Y-114545777D01*
X148484099Y-114562253D01*
X148464393Y-114576868D01*
X148443350Y-114589480D01*
X148421171Y-114599970D01*
X148398072Y-114608235D01*
X148374273Y-114614196D01*
X148350005Y-114617796D01*
X148325501Y-114619000D01*
X147675499Y-114619000D01*
X147650995Y-114617796D01*
X147626727Y-114614196D01*
X147602928Y-114608235D01*
X147579829Y-114599970D01*
X147557650Y-114589480D01*
X147536607Y-114576868D01*
X147516901Y-114562253D01*
X147498723Y-114545777D01*
X147482247Y-114527599D01*
X147467632Y-114507893D01*
X147455020Y-114486850D01*
X147444530Y-114464671D01*
X147436265Y-114441572D01*
X147430304Y-114417773D01*
X147426704Y-114393505D01*
X147425500Y-114369001D01*
X147425500Y-113468999D01*
X147426704Y-113444495D01*
X147430304Y-113420227D01*
X147436265Y-113396428D01*
X147444530Y-113373329D01*
X147455020Y-113351150D01*
X147467632Y-113330107D01*
X147482247Y-113310401D01*
X147498723Y-113292223D01*
X147516901Y-113275747D01*
X147536607Y-113261132D01*
X147557650Y-113248520D01*
X147579829Y-113238030D01*
X147602928Y-113229765D01*
X147626727Y-113223804D01*
X147650995Y-113220204D01*
X147675499Y-113219000D01*
X148325501Y-113219000D01*
X148350005Y-113220204D01*
G37*
G36*
X150409005Y-111061204D02*
G01*
X150433273Y-111064804D01*
X150457072Y-111070765D01*
X150480171Y-111079030D01*
X150502350Y-111089520D01*
X150523393Y-111102132D01*
X150543099Y-111116747D01*
X150561277Y-111133223D01*
X150577753Y-111151401D01*
X150592368Y-111171107D01*
X150604980Y-111192150D01*
X150615470Y-111214329D01*
X150623735Y-111237428D01*
X150629696Y-111261227D01*
X150633296Y-111285495D01*
X150634500Y-111309999D01*
X150634500Y-112210001D01*
X150633296Y-112234505D01*
X150629696Y-112258773D01*
X150623735Y-112282572D01*
X150615470Y-112305671D01*
X150604980Y-112327850D01*
X150592368Y-112348893D01*
X150577753Y-112368599D01*
X150561277Y-112386777D01*
X150543099Y-112403253D01*
X150523393Y-112417868D01*
X150502350Y-112430480D01*
X150480171Y-112440970D01*
X150457072Y-112449235D01*
X150433273Y-112455196D01*
X150409005Y-112458796D01*
X150384501Y-112460000D01*
X149734499Y-112460000D01*
X149709995Y-112458796D01*
X149685727Y-112455196D01*
X149661928Y-112449235D01*
X149638829Y-112440970D01*
X149616650Y-112430480D01*
X149595607Y-112417868D01*
X149575901Y-112403253D01*
X149557723Y-112386777D01*
X149541247Y-112368599D01*
X149526632Y-112348893D01*
X149514020Y-112327850D01*
X149503530Y-112305671D01*
X149495265Y-112282572D01*
X149489304Y-112258773D01*
X149485704Y-112234505D01*
X149484500Y-112210001D01*
X149484500Y-111309999D01*
X149485704Y-111285495D01*
X149489304Y-111261227D01*
X149495265Y-111237428D01*
X149503530Y-111214329D01*
X149514020Y-111192150D01*
X149526632Y-111171107D01*
X149541247Y-111151401D01*
X149557723Y-111133223D01*
X149575901Y-111116747D01*
X149595607Y-111102132D01*
X149616650Y-111089520D01*
X149638829Y-111079030D01*
X149661928Y-111070765D01*
X149685727Y-111064804D01*
X149709995Y-111061204D01*
X149734499Y-111060000D01*
X150384501Y-111060000D01*
X150409005Y-111061204D01*
G37*
G36*
X148359005Y-111061204D02*
G01*
X148383273Y-111064804D01*
X148407072Y-111070765D01*
X148430171Y-111079030D01*
X148452350Y-111089520D01*
X148473393Y-111102132D01*
X148493099Y-111116747D01*
X148511277Y-111133223D01*
X148527753Y-111151401D01*
X148542368Y-111171107D01*
X148554980Y-111192150D01*
X148565470Y-111214329D01*
X148573735Y-111237428D01*
X148579696Y-111261227D01*
X148583296Y-111285495D01*
X148584500Y-111309999D01*
X148584500Y-112210001D01*
X148583296Y-112234505D01*
X148579696Y-112258773D01*
X148573735Y-112282572D01*
X148565470Y-112305671D01*
X148554980Y-112327850D01*
X148542368Y-112348893D01*
X148527753Y-112368599D01*
X148511277Y-112386777D01*
X148493099Y-112403253D01*
X148473393Y-112417868D01*
X148452350Y-112430480D01*
X148430171Y-112440970D01*
X148407072Y-112449235D01*
X148383273Y-112455196D01*
X148359005Y-112458796D01*
X148334501Y-112460000D01*
X147684499Y-112460000D01*
X147659995Y-112458796D01*
X147635727Y-112455196D01*
X147611928Y-112449235D01*
X147588829Y-112440970D01*
X147566650Y-112430480D01*
X147545607Y-112417868D01*
X147525901Y-112403253D01*
X147507723Y-112386777D01*
X147491247Y-112368599D01*
X147476632Y-112348893D01*
X147464020Y-112327850D01*
X147453530Y-112305671D01*
X147445265Y-112282572D01*
X147439304Y-112258773D01*
X147435704Y-112234505D01*
X147434500Y-112210001D01*
X147434500Y-111309999D01*
X147435704Y-111285495D01*
X147439304Y-111261227D01*
X147445265Y-111237428D01*
X147453530Y-111214329D01*
X147464020Y-111192150D01*
X147476632Y-111171107D01*
X147491247Y-111151401D01*
X147507723Y-111133223D01*
X147525901Y-111116747D01*
X147545607Y-111102132D01*
X147566650Y-111089520D01*
X147588829Y-111079030D01*
X147611928Y-111070765D01*
X147635727Y-111064804D01*
X147659995Y-111061204D01*
X147684499Y-111060000D01*
X148334501Y-111060000D01*
X148359005Y-111061204D01*
G37*
D11*
X134311600Y-113669000D03*
X134311600Y-113019000D03*
X134311600Y-112369000D03*
X134311600Y-111719000D03*
X134311600Y-111069000D03*
X134311600Y-110419000D03*
X134311600Y-109769000D03*
X134311600Y-109119000D03*
X134311600Y-108469000D03*
X134311600Y-107819000D03*
X140211600Y-107819000D03*
X140211600Y-108469000D03*
X140211600Y-109119000D03*
X140211600Y-109769000D03*
X140211600Y-110419000D03*
X140211600Y-111069000D03*
X140211600Y-111719000D03*
X140211600Y-112369000D03*
X140211600Y-113019000D03*
X140211600Y-113669000D03*
D10*
G36*
X136586105Y-101688604D02*
G01*
X136610373Y-101692204D01*
X136634172Y-101698165D01*
X136657271Y-101706430D01*
X136679450Y-101716920D01*
X136700493Y-101729532D01*
X136720199Y-101744147D01*
X136738377Y-101760623D01*
X136754853Y-101778801D01*
X136769468Y-101798507D01*
X136782080Y-101819550D01*
X136792570Y-101841729D01*
X136800835Y-101864828D01*
X136806796Y-101888627D01*
X136810396Y-101912895D01*
X136811600Y-101937399D01*
X136811600Y-102837401D01*
X136810396Y-102861905D01*
X136806796Y-102886173D01*
X136800835Y-102909972D01*
X136792570Y-102933071D01*
X136782080Y-102955250D01*
X136769468Y-102976293D01*
X136754853Y-102995999D01*
X136738377Y-103014177D01*
X136720199Y-103030653D01*
X136700493Y-103045268D01*
X136679450Y-103057880D01*
X136657271Y-103068370D01*
X136634172Y-103076635D01*
X136610373Y-103082596D01*
X136586105Y-103086196D01*
X136561601Y-103087400D01*
X135911599Y-103087400D01*
X135887095Y-103086196D01*
X135862827Y-103082596D01*
X135839028Y-103076635D01*
X135815929Y-103068370D01*
X135793750Y-103057880D01*
X135772707Y-103045268D01*
X135753001Y-103030653D01*
X135734823Y-103014177D01*
X135718347Y-102995999D01*
X135703732Y-102976293D01*
X135691120Y-102955250D01*
X135680630Y-102933071D01*
X135672365Y-102909972D01*
X135666404Y-102886173D01*
X135662804Y-102861905D01*
X135661600Y-102837401D01*
X135661600Y-101937399D01*
X135662804Y-101912895D01*
X135666404Y-101888627D01*
X135672365Y-101864828D01*
X135680630Y-101841729D01*
X135691120Y-101819550D01*
X135703732Y-101798507D01*
X135718347Y-101778801D01*
X135734823Y-101760623D01*
X135753001Y-101744147D01*
X135772707Y-101729532D01*
X135793750Y-101716920D01*
X135815929Y-101706430D01*
X135839028Y-101698165D01*
X135862827Y-101692204D01*
X135887095Y-101688604D01*
X135911599Y-101687400D01*
X136561601Y-101687400D01*
X136586105Y-101688604D01*
G37*
G36*
X138636105Y-101688604D02*
G01*
X138660373Y-101692204D01*
X138684172Y-101698165D01*
X138707271Y-101706430D01*
X138729450Y-101716920D01*
X138750493Y-101729532D01*
X138770199Y-101744147D01*
X138788377Y-101760623D01*
X138804853Y-101778801D01*
X138819468Y-101798507D01*
X138832080Y-101819550D01*
X138842570Y-101841729D01*
X138850835Y-101864828D01*
X138856796Y-101888627D01*
X138860396Y-101912895D01*
X138861600Y-101937399D01*
X138861600Y-102837401D01*
X138860396Y-102861905D01*
X138856796Y-102886173D01*
X138850835Y-102909972D01*
X138842570Y-102933071D01*
X138832080Y-102955250D01*
X138819468Y-102976293D01*
X138804853Y-102995999D01*
X138788377Y-103014177D01*
X138770199Y-103030653D01*
X138750493Y-103045268D01*
X138729450Y-103057880D01*
X138707271Y-103068370D01*
X138684172Y-103076635D01*
X138660373Y-103082596D01*
X138636105Y-103086196D01*
X138611601Y-103087400D01*
X137961599Y-103087400D01*
X137937095Y-103086196D01*
X137912827Y-103082596D01*
X137889028Y-103076635D01*
X137865929Y-103068370D01*
X137843750Y-103057880D01*
X137822707Y-103045268D01*
X137803001Y-103030653D01*
X137784823Y-103014177D01*
X137768347Y-102995999D01*
X137753732Y-102976293D01*
X137741120Y-102955250D01*
X137730630Y-102933071D01*
X137722365Y-102909972D01*
X137716404Y-102886173D01*
X137712804Y-102861905D01*
X137711600Y-102837401D01*
X137711600Y-101937399D01*
X137712804Y-101912895D01*
X137716404Y-101888627D01*
X137722365Y-101864828D01*
X137730630Y-101841729D01*
X137741120Y-101819550D01*
X137753732Y-101798507D01*
X137768347Y-101778801D01*
X137784823Y-101760623D01*
X137803001Y-101744147D01*
X137822707Y-101729532D01*
X137843750Y-101716920D01*
X137865929Y-101706430D01*
X137889028Y-101698165D01*
X137912827Y-101692204D01*
X137937095Y-101688604D01*
X137961599Y-101687400D01*
X138611601Y-101687400D01*
X138636105Y-101688604D01*
G37*
D12*
X134311600Y-100369800D03*
X134311600Y-99719800D03*
X134311600Y-99069800D03*
X134311600Y-98419800D03*
X134311600Y-97769800D03*
X134311600Y-97119800D03*
X134311600Y-96469800D03*
X134311600Y-95819800D03*
X140211600Y-95819800D03*
X140211600Y-96469800D03*
X140211600Y-97119800D03*
X140211600Y-97769800D03*
X140211600Y-98419800D03*
X140211600Y-99069800D03*
X140211600Y-99719800D03*
X140211600Y-100369800D03*
D10*
G36*
X143088505Y-94424204D02*
G01*
X143112773Y-94427804D01*
X143136572Y-94433765D01*
X143159671Y-94442030D01*
X143181850Y-94452520D01*
X143202893Y-94465132D01*
X143222599Y-94479747D01*
X143240777Y-94496223D01*
X143257253Y-94514401D01*
X143271868Y-94534107D01*
X143284480Y-94555150D01*
X143294970Y-94577329D01*
X143303235Y-94600428D01*
X143309196Y-94624227D01*
X143312796Y-94648495D01*
X143314000Y-94672999D01*
X143314000Y-95573001D01*
X143312796Y-95597505D01*
X143309196Y-95621773D01*
X143303235Y-95645572D01*
X143294970Y-95668671D01*
X143284480Y-95690850D01*
X143271868Y-95711893D01*
X143257253Y-95731599D01*
X143240777Y-95749777D01*
X143222599Y-95766253D01*
X143202893Y-95780868D01*
X143181850Y-95793480D01*
X143159671Y-95803970D01*
X143136572Y-95812235D01*
X143112773Y-95818196D01*
X143088505Y-95821796D01*
X143064001Y-95823000D01*
X142413999Y-95823000D01*
X142389495Y-95821796D01*
X142365227Y-95818196D01*
X142341428Y-95812235D01*
X142318329Y-95803970D01*
X142296150Y-95793480D01*
X142275107Y-95780868D01*
X142255401Y-95766253D01*
X142237223Y-95749777D01*
X142220747Y-95731599D01*
X142206132Y-95711893D01*
X142193520Y-95690850D01*
X142183030Y-95668671D01*
X142174765Y-95645572D01*
X142168804Y-95621773D01*
X142165204Y-95597505D01*
X142164000Y-95573001D01*
X142164000Y-94672999D01*
X142165204Y-94648495D01*
X142168804Y-94624227D01*
X142174765Y-94600428D01*
X142183030Y-94577329D01*
X142193520Y-94555150D01*
X142206132Y-94534107D01*
X142220747Y-94514401D01*
X142237223Y-94496223D01*
X142255401Y-94479747D01*
X142275107Y-94465132D01*
X142296150Y-94452520D01*
X142318329Y-94442030D01*
X142341428Y-94433765D01*
X142365227Y-94427804D01*
X142389495Y-94424204D01*
X142413999Y-94423000D01*
X143064001Y-94423000D01*
X143088505Y-94424204D01*
G37*
G36*
X145138505Y-94424204D02*
G01*
X145162773Y-94427804D01*
X145186572Y-94433765D01*
X145209671Y-94442030D01*
X145231850Y-94452520D01*
X145252893Y-94465132D01*
X145272599Y-94479747D01*
X145290777Y-94496223D01*
X145307253Y-94514401D01*
X145321868Y-94534107D01*
X145334480Y-94555150D01*
X145344970Y-94577329D01*
X145353235Y-94600428D01*
X145359196Y-94624227D01*
X145362796Y-94648495D01*
X145364000Y-94672999D01*
X145364000Y-95573001D01*
X145362796Y-95597505D01*
X145359196Y-95621773D01*
X145353235Y-95645572D01*
X145344970Y-95668671D01*
X145334480Y-95690850D01*
X145321868Y-95711893D01*
X145307253Y-95731599D01*
X145290777Y-95749777D01*
X145272599Y-95766253D01*
X145252893Y-95780868D01*
X145231850Y-95793480D01*
X145209671Y-95803970D01*
X145186572Y-95812235D01*
X145162773Y-95818196D01*
X145138505Y-95821796D01*
X145114001Y-95823000D01*
X144463999Y-95823000D01*
X144439495Y-95821796D01*
X144415227Y-95818196D01*
X144391428Y-95812235D01*
X144368329Y-95803970D01*
X144346150Y-95793480D01*
X144325107Y-95780868D01*
X144305401Y-95766253D01*
X144287223Y-95749777D01*
X144270747Y-95731599D01*
X144256132Y-95711893D01*
X144243520Y-95690850D01*
X144233030Y-95668671D01*
X144224765Y-95645572D01*
X144218804Y-95621773D01*
X144215204Y-95597505D01*
X144214000Y-95573001D01*
X144214000Y-94672999D01*
X144215204Y-94648495D01*
X144218804Y-94624227D01*
X144224765Y-94600428D01*
X144233030Y-94577329D01*
X144243520Y-94555150D01*
X144256132Y-94534107D01*
X144270747Y-94514401D01*
X144287223Y-94496223D01*
X144305401Y-94479747D01*
X144325107Y-94465132D01*
X144346150Y-94452520D01*
X144368329Y-94442030D01*
X144391428Y-94433765D01*
X144415227Y-94427804D01*
X144439495Y-94424204D01*
X144463999Y-94423000D01*
X145114001Y-94423000D01*
X145138505Y-94424204D01*
G37*
G36*
X130185305Y-94348004D02*
G01*
X130209573Y-94351604D01*
X130233372Y-94357565D01*
X130256471Y-94365830D01*
X130278650Y-94376320D01*
X130299693Y-94388932D01*
X130319399Y-94403547D01*
X130337577Y-94420023D01*
X130354053Y-94438201D01*
X130368668Y-94457907D01*
X130381280Y-94478950D01*
X130391770Y-94501129D01*
X130400035Y-94524228D01*
X130405996Y-94548027D01*
X130409596Y-94572295D01*
X130410800Y-94596799D01*
X130410800Y-95496801D01*
X130409596Y-95521305D01*
X130405996Y-95545573D01*
X130400035Y-95569372D01*
X130391770Y-95592471D01*
X130381280Y-95614650D01*
X130368668Y-95635693D01*
X130354053Y-95655399D01*
X130337577Y-95673577D01*
X130319399Y-95690053D01*
X130299693Y-95704668D01*
X130278650Y-95717280D01*
X130256471Y-95727770D01*
X130233372Y-95736035D01*
X130209573Y-95741996D01*
X130185305Y-95745596D01*
X130160801Y-95746800D01*
X129510799Y-95746800D01*
X129486295Y-95745596D01*
X129462027Y-95741996D01*
X129438228Y-95736035D01*
X129415129Y-95727770D01*
X129392950Y-95717280D01*
X129371907Y-95704668D01*
X129352201Y-95690053D01*
X129334023Y-95673577D01*
X129317547Y-95655399D01*
X129302932Y-95635693D01*
X129290320Y-95614650D01*
X129279830Y-95592471D01*
X129271565Y-95569372D01*
X129265604Y-95545573D01*
X129262004Y-95521305D01*
X129260800Y-95496801D01*
X129260800Y-94596799D01*
X129262004Y-94572295D01*
X129265604Y-94548027D01*
X129271565Y-94524228D01*
X129279830Y-94501129D01*
X129290320Y-94478950D01*
X129302932Y-94457907D01*
X129317547Y-94438201D01*
X129334023Y-94420023D01*
X129352201Y-94403547D01*
X129371907Y-94388932D01*
X129392950Y-94376320D01*
X129415129Y-94365830D01*
X129438228Y-94357565D01*
X129462027Y-94351604D01*
X129486295Y-94348004D01*
X129510799Y-94346800D01*
X130160801Y-94346800D01*
X130185305Y-94348004D01*
G37*
G36*
X132235305Y-94348004D02*
G01*
X132259573Y-94351604D01*
X132283372Y-94357565D01*
X132306471Y-94365830D01*
X132328650Y-94376320D01*
X132349693Y-94388932D01*
X132369399Y-94403547D01*
X132387577Y-94420023D01*
X132404053Y-94438201D01*
X132418668Y-94457907D01*
X132431280Y-94478950D01*
X132441770Y-94501129D01*
X132450035Y-94524228D01*
X132455996Y-94548027D01*
X132459596Y-94572295D01*
X132460800Y-94596799D01*
X132460800Y-95496801D01*
X132459596Y-95521305D01*
X132455996Y-95545573D01*
X132450035Y-95569372D01*
X132441770Y-95592471D01*
X132431280Y-95614650D01*
X132418668Y-95635693D01*
X132404053Y-95655399D01*
X132387577Y-95673577D01*
X132369399Y-95690053D01*
X132349693Y-95704668D01*
X132328650Y-95717280D01*
X132306471Y-95727770D01*
X132283372Y-95736035D01*
X132259573Y-95741996D01*
X132235305Y-95745596D01*
X132210801Y-95746800D01*
X131560799Y-95746800D01*
X131536295Y-95745596D01*
X131512027Y-95741996D01*
X131488228Y-95736035D01*
X131465129Y-95727770D01*
X131442950Y-95717280D01*
X131421907Y-95704668D01*
X131402201Y-95690053D01*
X131384023Y-95673577D01*
X131367547Y-95655399D01*
X131352932Y-95635693D01*
X131340320Y-95614650D01*
X131329830Y-95592471D01*
X131321565Y-95569372D01*
X131315604Y-95545573D01*
X131312004Y-95521305D01*
X131310800Y-95496801D01*
X131310800Y-94596799D01*
X131312004Y-94572295D01*
X131315604Y-94548027D01*
X131321565Y-94524228D01*
X131329830Y-94501129D01*
X131340320Y-94478950D01*
X131352932Y-94457907D01*
X131367547Y-94438201D01*
X131384023Y-94420023D01*
X131402201Y-94403547D01*
X131421907Y-94388932D01*
X131442950Y-94376320D01*
X131465129Y-94365830D01*
X131488228Y-94357565D01*
X131512027Y-94351604D01*
X131536295Y-94348004D01*
X131560799Y-94346800D01*
X132210801Y-94346800D01*
X132235305Y-94348004D01*
G37*
G36*
X143037705Y-98970804D02*
G01*
X143061973Y-98974404D01*
X143085772Y-98980365D01*
X143108871Y-98988630D01*
X143131050Y-98999120D01*
X143152093Y-99011732D01*
X143171799Y-99026347D01*
X143189977Y-99042823D01*
X143206453Y-99061001D01*
X143221068Y-99080707D01*
X143233680Y-99101750D01*
X143244170Y-99123929D01*
X143252435Y-99147028D01*
X143258396Y-99170827D01*
X143261996Y-99195095D01*
X143263200Y-99219599D01*
X143263200Y-100119601D01*
X143261996Y-100144105D01*
X143258396Y-100168373D01*
X143252435Y-100192172D01*
X143244170Y-100215271D01*
X143233680Y-100237450D01*
X143221068Y-100258493D01*
X143206453Y-100278199D01*
X143189977Y-100296377D01*
X143171799Y-100312853D01*
X143152093Y-100327468D01*
X143131050Y-100340080D01*
X143108871Y-100350570D01*
X143085772Y-100358835D01*
X143061973Y-100364796D01*
X143037705Y-100368396D01*
X143013201Y-100369600D01*
X142363199Y-100369600D01*
X142338695Y-100368396D01*
X142314427Y-100364796D01*
X142290628Y-100358835D01*
X142267529Y-100350570D01*
X142245350Y-100340080D01*
X142224307Y-100327468D01*
X142204601Y-100312853D01*
X142186423Y-100296377D01*
X142169947Y-100278199D01*
X142155332Y-100258493D01*
X142142720Y-100237450D01*
X142132230Y-100215271D01*
X142123965Y-100192172D01*
X142118004Y-100168373D01*
X142114404Y-100144105D01*
X142113200Y-100119601D01*
X142113200Y-99219599D01*
X142114404Y-99195095D01*
X142118004Y-99170827D01*
X142123965Y-99147028D01*
X142132230Y-99123929D01*
X142142720Y-99101750D01*
X142155332Y-99080707D01*
X142169947Y-99061001D01*
X142186423Y-99042823D01*
X142204601Y-99026347D01*
X142224307Y-99011732D01*
X142245350Y-98999120D01*
X142267529Y-98988630D01*
X142290628Y-98980365D01*
X142314427Y-98974404D01*
X142338695Y-98970804D01*
X142363199Y-98969600D01*
X143013201Y-98969600D01*
X143037705Y-98970804D01*
G37*
G36*
X145087705Y-98970804D02*
G01*
X145111973Y-98974404D01*
X145135772Y-98980365D01*
X145158871Y-98988630D01*
X145181050Y-98999120D01*
X145202093Y-99011732D01*
X145221799Y-99026347D01*
X145239977Y-99042823D01*
X145256453Y-99061001D01*
X145271068Y-99080707D01*
X145283680Y-99101750D01*
X145294170Y-99123929D01*
X145302435Y-99147028D01*
X145308396Y-99170827D01*
X145311996Y-99195095D01*
X145313200Y-99219599D01*
X145313200Y-100119601D01*
X145311996Y-100144105D01*
X145308396Y-100168373D01*
X145302435Y-100192172D01*
X145294170Y-100215271D01*
X145283680Y-100237450D01*
X145271068Y-100258493D01*
X145256453Y-100278199D01*
X145239977Y-100296377D01*
X145221799Y-100312853D01*
X145202093Y-100327468D01*
X145181050Y-100340080D01*
X145158871Y-100350570D01*
X145135772Y-100358835D01*
X145111973Y-100364796D01*
X145087705Y-100368396D01*
X145063201Y-100369600D01*
X144413199Y-100369600D01*
X144388695Y-100368396D01*
X144364427Y-100364796D01*
X144340628Y-100358835D01*
X144317529Y-100350570D01*
X144295350Y-100340080D01*
X144274307Y-100327468D01*
X144254601Y-100312853D01*
X144236423Y-100296377D01*
X144219947Y-100278199D01*
X144205332Y-100258493D01*
X144192720Y-100237450D01*
X144182230Y-100215271D01*
X144173965Y-100192172D01*
X144168004Y-100168373D01*
X144164404Y-100144105D01*
X144163200Y-100119601D01*
X144163200Y-99219599D01*
X144164404Y-99195095D01*
X144168004Y-99170827D01*
X144173965Y-99147028D01*
X144182230Y-99123929D01*
X144192720Y-99101750D01*
X144205332Y-99080707D01*
X144219947Y-99061001D01*
X144236423Y-99042823D01*
X144254601Y-99026347D01*
X144274307Y-99011732D01*
X144295350Y-98999120D01*
X144317529Y-98988630D01*
X144340628Y-98980365D01*
X144364427Y-98974404D01*
X144388695Y-98970804D01*
X144413199Y-98969600D01*
X145063201Y-98969600D01*
X145087705Y-98970804D01*
G37*
G36*
X130210705Y-98894604D02*
G01*
X130234973Y-98898204D01*
X130258772Y-98904165D01*
X130281871Y-98912430D01*
X130304050Y-98922920D01*
X130325093Y-98935532D01*
X130344799Y-98950147D01*
X130362977Y-98966623D01*
X130379453Y-98984801D01*
X130394068Y-99004507D01*
X130406680Y-99025550D01*
X130417170Y-99047729D01*
X130425435Y-99070828D01*
X130431396Y-99094627D01*
X130434996Y-99118895D01*
X130436200Y-99143399D01*
X130436200Y-100043401D01*
X130434996Y-100067905D01*
X130431396Y-100092173D01*
X130425435Y-100115972D01*
X130417170Y-100139071D01*
X130406680Y-100161250D01*
X130394068Y-100182293D01*
X130379453Y-100201999D01*
X130362977Y-100220177D01*
X130344799Y-100236653D01*
X130325093Y-100251268D01*
X130304050Y-100263880D01*
X130281871Y-100274370D01*
X130258772Y-100282635D01*
X130234973Y-100288596D01*
X130210705Y-100292196D01*
X130186201Y-100293400D01*
X129536199Y-100293400D01*
X129511695Y-100292196D01*
X129487427Y-100288596D01*
X129463628Y-100282635D01*
X129440529Y-100274370D01*
X129418350Y-100263880D01*
X129397307Y-100251268D01*
X129377601Y-100236653D01*
X129359423Y-100220177D01*
X129342947Y-100201999D01*
X129328332Y-100182293D01*
X129315720Y-100161250D01*
X129305230Y-100139071D01*
X129296965Y-100115972D01*
X129291004Y-100092173D01*
X129287404Y-100067905D01*
X129286200Y-100043401D01*
X129286200Y-99143399D01*
X129287404Y-99118895D01*
X129291004Y-99094627D01*
X129296965Y-99070828D01*
X129305230Y-99047729D01*
X129315720Y-99025550D01*
X129328332Y-99004507D01*
X129342947Y-98984801D01*
X129359423Y-98966623D01*
X129377601Y-98950147D01*
X129397307Y-98935532D01*
X129418350Y-98922920D01*
X129440529Y-98912430D01*
X129463628Y-98904165D01*
X129487427Y-98898204D01*
X129511695Y-98894604D01*
X129536199Y-98893400D01*
X130186201Y-98893400D01*
X130210705Y-98894604D01*
G37*
G36*
X132260705Y-98894604D02*
G01*
X132284973Y-98898204D01*
X132308772Y-98904165D01*
X132331871Y-98912430D01*
X132354050Y-98922920D01*
X132375093Y-98935532D01*
X132394799Y-98950147D01*
X132412977Y-98966623D01*
X132429453Y-98984801D01*
X132444068Y-99004507D01*
X132456680Y-99025550D01*
X132467170Y-99047729D01*
X132475435Y-99070828D01*
X132481396Y-99094627D01*
X132484996Y-99118895D01*
X132486200Y-99143399D01*
X132486200Y-100043401D01*
X132484996Y-100067905D01*
X132481396Y-100092173D01*
X132475435Y-100115972D01*
X132467170Y-100139071D01*
X132456680Y-100161250D01*
X132444068Y-100182293D01*
X132429453Y-100201999D01*
X132412977Y-100220177D01*
X132394799Y-100236653D01*
X132375093Y-100251268D01*
X132354050Y-100263880D01*
X132331871Y-100274370D01*
X132308772Y-100282635D01*
X132284973Y-100288596D01*
X132260705Y-100292196D01*
X132236201Y-100293400D01*
X131586199Y-100293400D01*
X131561695Y-100292196D01*
X131537427Y-100288596D01*
X131513628Y-100282635D01*
X131490529Y-100274370D01*
X131468350Y-100263880D01*
X131447307Y-100251268D01*
X131427601Y-100236653D01*
X131409423Y-100220177D01*
X131392947Y-100201999D01*
X131378332Y-100182293D01*
X131365720Y-100161250D01*
X131355230Y-100139071D01*
X131346965Y-100115972D01*
X131341004Y-100092173D01*
X131337404Y-100067905D01*
X131336200Y-100043401D01*
X131336200Y-99143399D01*
X131337404Y-99118895D01*
X131341004Y-99094627D01*
X131346965Y-99070828D01*
X131355230Y-99047729D01*
X131365720Y-99025550D01*
X131378332Y-99004507D01*
X131392947Y-98984801D01*
X131409423Y-98966623D01*
X131427601Y-98950147D01*
X131447307Y-98935532D01*
X131468350Y-98922920D01*
X131490529Y-98912430D01*
X131513628Y-98904165D01*
X131537427Y-98898204D01*
X131561695Y-98894604D01*
X131586199Y-98893400D01*
X132236201Y-98893400D01*
X132260705Y-98894604D01*
G37*
D13*
X152064200Y-109533400D03*
X152064200Y-108883400D03*
X152064200Y-108233400D03*
X152064200Y-107583400D03*
X152064200Y-106933400D03*
X152064200Y-106283400D03*
X152064200Y-105633400D03*
X152064200Y-104983400D03*
X152064200Y-104333400D03*
X152064200Y-103683400D03*
X152064200Y-103033400D03*
X152064200Y-102383400D03*
X152064200Y-101733400D03*
X152064200Y-101083400D03*
X158984200Y-101083400D03*
X158984200Y-101733400D03*
X158984200Y-102383400D03*
X158984200Y-103033400D03*
X158984200Y-103683400D03*
X158984200Y-104333400D03*
X158984200Y-104983400D03*
X158984200Y-105633400D03*
X158984200Y-106283400D03*
X158984200Y-106933400D03*
X158984200Y-107583400D03*
X158984200Y-108233400D03*
X158984200Y-108883400D03*
X158984200Y-109533400D03*
D10*
G36*
X163477305Y-111073904D02*
G01*
X163501573Y-111077504D01*
X163525372Y-111083465D01*
X163548471Y-111091730D01*
X163570650Y-111102220D01*
X163591693Y-111114832D01*
X163611399Y-111129447D01*
X163629577Y-111145923D01*
X163646053Y-111164101D01*
X163660668Y-111183807D01*
X163673280Y-111204850D01*
X163683770Y-111227029D01*
X163692035Y-111250128D01*
X163697996Y-111273927D01*
X163701596Y-111298195D01*
X163702800Y-111322699D01*
X163702800Y-112222701D01*
X163701596Y-112247205D01*
X163697996Y-112271473D01*
X163692035Y-112295272D01*
X163683770Y-112318371D01*
X163673280Y-112340550D01*
X163660668Y-112361593D01*
X163646053Y-112381299D01*
X163629577Y-112399477D01*
X163611399Y-112415953D01*
X163591693Y-112430568D01*
X163570650Y-112443180D01*
X163548471Y-112453670D01*
X163525372Y-112461935D01*
X163501573Y-112467896D01*
X163477305Y-112471496D01*
X163452801Y-112472700D01*
X162802799Y-112472700D01*
X162778295Y-112471496D01*
X162754027Y-112467896D01*
X162730228Y-112461935D01*
X162707129Y-112453670D01*
X162684950Y-112443180D01*
X162663907Y-112430568D01*
X162644201Y-112415953D01*
X162626023Y-112399477D01*
X162609547Y-112381299D01*
X162594932Y-112361593D01*
X162582320Y-112340550D01*
X162571830Y-112318371D01*
X162563565Y-112295272D01*
X162557604Y-112271473D01*
X162554004Y-112247205D01*
X162552800Y-112222701D01*
X162552800Y-111322699D01*
X162554004Y-111298195D01*
X162557604Y-111273927D01*
X162563565Y-111250128D01*
X162571830Y-111227029D01*
X162582320Y-111204850D01*
X162594932Y-111183807D01*
X162609547Y-111164101D01*
X162626023Y-111145923D01*
X162644201Y-111129447D01*
X162663907Y-111114832D01*
X162684950Y-111102220D01*
X162707129Y-111091730D01*
X162730228Y-111083465D01*
X162754027Y-111077504D01*
X162778295Y-111073904D01*
X162802799Y-111072700D01*
X163452801Y-111072700D01*
X163477305Y-111073904D01*
G37*
G36*
X161427305Y-111073904D02*
G01*
X161451573Y-111077504D01*
X161475372Y-111083465D01*
X161498471Y-111091730D01*
X161520650Y-111102220D01*
X161541693Y-111114832D01*
X161561399Y-111129447D01*
X161579577Y-111145923D01*
X161596053Y-111164101D01*
X161610668Y-111183807D01*
X161623280Y-111204850D01*
X161633770Y-111227029D01*
X161642035Y-111250128D01*
X161647996Y-111273927D01*
X161651596Y-111298195D01*
X161652800Y-111322699D01*
X161652800Y-112222701D01*
X161651596Y-112247205D01*
X161647996Y-112271473D01*
X161642035Y-112295272D01*
X161633770Y-112318371D01*
X161623280Y-112340550D01*
X161610668Y-112361593D01*
X161596053Y-112381299D01*
X161579577Y-112399477D01*
X161561399Y-112415953D01*
X161541693Y-112430568D01*
X161520650Y-112443180D01*
X161498471Y-112453670D01*
X161475372Y-112461935D01*
X161451573Y-112467896D01*
X161427305Y-112471496D01*
X161402801Y-112472700D01*
X160752799Y-112472700D01*
X160728295Y-112471496D01*
X160704027Y-112467896D01*
X160680228Y-112461935D01*
X160657129Y-112453670D01*
X160634950Y-112443180D01*
X160613907Y-112430568D01*
X160594201Y-112415953D01*
X160576023Y-112399477D01*
X160559547Y-112381299D01*
X160544932Y-112361593D01*
X160532320Y-112340550D01*
X160521830Y-112318371D01*
X160513565Y-112295272D01*
X160507604Y-112271473D01*
X160504004Y-112247205D01*
X160502800Y-112222701D01*
X160502800Y-111322699D01*
X160504004Y-111298195D01*
X160507604Y-111273927D01*
X160513565Y-111250128D01*
X160521830Y-111227029D01*
X160532320Y-111204850D01*
X160544932Y-111183807D01*
X160559547Y-111164101D01*
X160576023Y-111145923D01*
X160594201Y-111129447D01*
X160613907Y-111114832D01*
X160634950Y-111102220D01*
X160657129Y-111091730D01*
X160680228Y-111083465D01*
X160704027Y-111077504D01*
X160728295Y-111073904D01*
X160752799Y-111072700D01*
X161402801Y-111072700D01*
X161427305Y-111073904D01*
G37*
G36*
X125366305Y-118789804D02*
G01*
X125390573Y-118793404D01*
X125414372Y-118799365D01*
X125437471Y-118807630D01*
X125459650Y-118818120D01*
X125480693Y-118830732D01*
X125500399Y-118845347D01*
X125518577Y-118861823D01*
X125535053Y-118880001D01*
X125549668Y-118899707D01*
X125562280Y-118920750D01*
X125572770Y-118942929D01*
X125581035Y-118966028D01*
X125586996Y-118989827D01*
X125590596Y-119014095D01*
X125591800Y-119038599D01*
X125591800Y-119688601D01*
X125590596Y-119713105D01*
X125586996Y-119737373D01*
X125581035Y-119761172D01*
X125572770Y-119784271D01*
X125562280Y-119806450D01*
X125549668Y-119827493D01*
X125535053Y-119847199D01*
X125518577Y-119865377D01*
X125500399Y-119881853D01*
X125480693Y-119896468D01*
X125459650Y-119909080D01*
X125437471Y-119919570D01*
X125414372Y-119927835D01*
X125390573Y-119933796D01*
X125366305Y-119937396D01*
X125341801Y-119938600D01*
X124441799Y-119938600D01*
X124417295Y-119937396D01*
X124393027Y-119933796D01*
X124369228Y-119927835D01*
X124346129Y-119919570D01*
X124323950Y-119909080D01*
X124302907Y-119896468D01*
X124283201Y-119881853D01*
X124265023Y-119865377D01*
X124248547Y-119847199D01*
X124233932Y-119827493D01*
X124221320Y-119806450D01*
X124210830Y-119784271D01*
X124202565Y-119761172D01*
X124196604Y-119737373D01*
X124193004Y-119713105D01*
X124191800Y-119688601D01*
X124191800Y-119038599D01*
X124193004Y-119014095D01*
X124196604Y-118989827D01*
X124202565Y-118966028D01*
X124210830Y-118942929D01*
X124221320Y-118920750D01*
X124233932Y-118899707D01*
X124248547Y-118880001D01*
X124265023Y-118861823D01*
X124283201Y-118845347D01*
X124302907Y-118830732D01*
X124323950Y-118818120D01*
X124346129Y-118807630D01*
X124369228Y-118799365D01*
X124393027Y-118793404D01*
X124417295Y-118789804D01*
X124441799Y-118788600D01*
X125341801Y-118788600D01*
X125366305Y-118789804D01*
G37*
G36*
X125366305Y-116739804D02*
G01*
X125390573Y-116743404D01*
X125414372Y-116749365D01*
X125437471Y-116757630D01*
X125459650Y-116768120D01*
X125480693Y-116780732D01*
X125500399Y-116795347D01*
X125518577Y-116811823D01*
X125535053Y-116830001D01*
X125549668Y-116849707D01*
X125562280Y-116870750D01*
X125572770Y-116892929D01*
X125581035Y-116916028D01*
X125586996Y-116939827D01*
X125590596Y-116964095D01*
X125591800Y-116988599D01*
X125591800Y-117638601D01*
X125590596Y-117663105D01*
X125586996Y-117687373D01*
X125581035Y-117711172D01*
X125572770Y-117734271D01*
X125562280Y-117756450D01*
X125549668Y-117777493D01*
X125535053Y-117797199D01*
X125518577Y-117815377D01*
X125500399Y-117831853D01*
X125480693Y-117846468D01*
X125459650Y-117859080D01*
X125437471Y-117869570D01*
X125414372Y-117877835D01*
X125390573Y-117883796D01*
X125366305Y-117887396D01*
X125341801Y-117888600D01*
X124441799Y-117888600D01*
X124417295Y-117887396D01*
X124393027Y-117883796D01*
X124369228Y-117877835D01*
X124346129Y-117869570D01*
X124323950Y-117859080D01*
X124302907Y-117846468D01*
X124283201Y-117831853D01*
X124265023Y-117815377D01*
X124248547Y-117797199D01*
X124233932Y-117777493D01*
X124221320Y-117756450D01*
X124210830Y-117734271D01*
X124202565Y-117711172D01*
X124196604Y-117687373D01*
X124193004Y-117663105D01*
X124191800Y-117638601D01*
X124191800Y-116988599D01*
X124193004Y-116964095D01*
X124196604Y-116939827D01*
X124202565Y-116916028D01*
X124210830Y-116892929D01*
X124221320Y-116870750D01*
X124233932Y-116849707D01*
X124248547Y-116830001D01*
X124265023Y-116811823D01*
X124283201Y-116795347D01*
X124302907Y-116780732D01*
X124323950Y-116768120D01*
X124346129Y-116757630D01*
X124369228Y-116749365D01*
X124393027Y-116743404D01*
X124417295Y-116739804D01*
X124441799Y-116738600D01*
X125341801Y-116738600D01*
X125366305Y-116739804D01*
G37*
G36*
X125315505Y-104565804D02*
G01*
X125339773Y-104569404D01*
X125363572Y-104575365D01*
X125386671Y-104583630D01*
X125408850Y-104594120D01*
X125429893Y-104606732D01*
X125449599Y-104621347D01*
X125467777Y-104637823D01*
X125484253Y-104656001D01*
X125498868Y-104675707D01*
X125511480Y-104696750D01*
X125521970Y-104718929D01*
X125530235Y-104742028D01*
X125536196Y-104765827D01*
X125539796Y-104790095D01*
X125541000Y-104814599D01*
X125541000Y-105464601D01*
X125539796Y-105489105D01*
X125536196Y-105513373D01*
X125530235Y-105537172D01*
X125521970Y-105560271D01*
X125511480Y-105582450D01*
X125498868Y-105603493D01*
X125484253Y-105623199D01*
X125467777Y-105641377D01*
X125449599Y-105657853D01*
X125429893Y-105672468D01*
X125408850Y-105685080D01*
X125386671Y-105695570D01*
X125363572Y-105703835D01*
X125339773Y-105709796D01*
X125315505Y-105713396D01*
X125291001Y-105714600D01*
X124390999Y-105714600D01*
X124366495Y-105713396D01*
X124342227Y-105709796D01*
X124318428Y-105703835D01*
X124295329Y-105695570D01*
X124273150Y-105685080D01*
X124252107Y-105672468D01*
X124232401Y-105657853D01*
X124214223Y-105641377D01*
X124197747Y-105623199D01*
X124183132Y-105603493D01*
X124170520Y-105582450D01*
X124160030Y-105560271D01*
X124151765Y-105537172D01*
X124145804Y-105513373D01*
X124142204Y-105489105D01*
X124141000Y-105464601D01*
X124141000Y-104814599D01*
X124142204Y-104790095D01*
X124145804Y-104765827D01*
X124151765Y-104742028D01*
X124160030Y-104718929D01*
X124170520Y-104696750D01*
X124183132Y-104675707D01*
X124197747Y-104656001D01*
X124214223Y-104637823D01*
X124232401Y-104621347D01*
X124252107Y-104606732D01*
X124273150Y-104594120D01*
X124295329Y-104583630D01*
X124318428Y-104575365D01*
X124342227Y-104569404D01*
X124366495Y-104565804D01*
X124390999Y-104564600D01*
X125291001Y-104564600D01*
X125315505Y-104565804D01*
G37*
G36*
X125315505Y-102515804D02*
G01*
X125339773Y-102519404D01*
X125363572Y-102525365D01*
X125386671Y-102533630D01*
X125408850Y-102544120D01*
X125429893Y-102556732D01*
X125449599Y-102571347D01*
X125467777Y-102587823D01*
X125484253Y-102606001D01*
X125498868Y-102625707D01*
X125511480Y-102646750D01*
X125521970Y-102668929D01*
X125530235Y-102692028D01*
X125536196Y-102715827D01*
X125539796Y-102740095D01*
X125541000Y-102764599D01*
X125541000Y-103414601D01*
X125539796Y-103439105D01*
X125536196Y-103463373D01*
X125530235Y-103487172D01*
X125521970Y-103510271D01*
X125511480Y-103532450D01*
X125498868Y-103553493D01*
X125484253Y-103573199D01*
X125467777Y-103591377D01*
X125449599Y-103607853D01*
X125429893Y-103622468D01*
X125408850Y-103635080D01*
X125386671Y-103645570D01*
X125363572Y-103653835D01*
X125339773Y-103659796D01*
X125315505Y-103663396D01*
X125291001Y-103664600D01*
X124390999Y-103664600D01*
X124366495Y-103663396D01*
X124342227Y-103659796D01*
X124318428Y-103653835D01*
X124295329Y-103645570D01*
X124273150Y-103635080D01*
X124252107Y-103622468D01*
X124232401Y-103607853D01*
X124214223Y-103591377D01*
X124197747Y-103573199D01*
X124183132Y-103553493D01*
X124170520Y-103532450D01*
X124160030Y-103510271D01*
X124151765Y-103487172D01*
X124145804Y-103463373D01*
X124142204Y-103439105D01*
X124141000Y-103414601D01*
X124141000Y-102764599D01*
X124142204Y-102740095D01*
X124145804Y-102715827D01*
X124151765Y-102692028D01*
X124160030Y-102668929D01*
X124170520Y-102646750D01*
X124183132Y-102625707D01*
X124197747Y-102606001D01*
X124214223Y-102587823D01*
X124232401Y-102571347D01*
X124252107Y-102556732D01*
X124273150Y-102544120D01*
X124295329Y-102533630D01*
X124318428Y-102525365D01*
X124342227Y-102519404D01*
X124366495Y-102515804D01*
X124390999Y-102514600D01*
X125291001Y-102514600D01*
X125315505Y-102515804D01*
G37*
G36*
X125290105Y-125876404D02*
G01*
X125314373Y-125880004D01*
X125338172Y-125885965D01*
X125361271Y-125894230D01*
X125383450Y-125904720D01*
X125404493Y-125917332D01*
X125424199Y-125931947D01*
X125442377Y-125948423D01*
X125458853Y-125966601D01*
X125473468Y-125986307D01*
X125486080Y-126007350D01*
X125496570Y-126029529D01*
X125504835Y-126052628D01*
X125510796Y-126076427D01*
X125514396Y-126100695D01*
X125515600Y-126125199D01*
X125515600Y-126775201D01*
X125514396Y-126799705D01*
X125510796Y-126823973D01*
X125504835Y-126847772D01*
X125496570Y-126870871D01*
X125486080Y-126893050D01*
X125473468Y-126914093D01*
X125458853Y-126933799D01*
X125442377Y-126951977D01*
X125424199Y-126968453D01*
X125404493Y-126983068D01*
X125383450Y-126995680D01*
X125361271Y-127006170D01*
X125338172Y-127014435D01*
X125314373Y-127020396D01*
X125290105Y-127023996D01*
X125265601Y-127025200D01*
X124365599Y-127025200D01*
X124341095Y-127023996D01*
X124316827Y-127020396D01*
X124293028Y-127014435D01*
X124269929Y-127006170D01*
X124247750Y-126995680D01*
X124226707Y-126983068D01*
X124207001Y-126968453D01*
X124188823Y-126951977D01*
X124172347Y-126933799D01*
X124157732Y-126914093D01*
X124145120Y-126893050D01*
X124134630Y-126870871D01*
X124126365Y-126847772D01*
X124120404Y-126823973D01*
X124116804Y-126799705D01*
X124115600Y-126775201D01*
X124115600Y-126125199D01*
X124116804Y-126100695D01*
X124120404Y-126076427D01*
X124126365Y-126052628D01*
X124134630Y-126029529D01*
X124145120Y-126007350D01*
X124157732Y-125986307D01*
X124172347Y-125966601D01*
X124188823Y-125948423D01*
X124207001Y-125931947D01*
X124226707Y-125917332D01*
X124247750Y-125904720D01*
X124269929Y-125894230D01*
X124293028Y-125885965D01*
X124316827Y-125880004D01*
X124341095Y-125876404D01*
X124365599Y-125875200D01*
X125265601Y-125875200D01*
X125290105Y-125876404D01*
G37*
G36*
X125290105Y-123826404D02*
G01*
X125314373Y-123830004D01*
X125338172Y-123835965D01*
X125361271Y-123844230D01*
X125383450Y-123854720D01*
X125404493Y-123867332D01*
X125424199Y-123881947D01*
X125442377Y-123898423D01*
X125458853Y-123916601D01*
X125473468Y-123936307D01*
X125486080Y-123957350D01*
X125496570Y-123979529D01*
X125504835Y-124002628D01*
X125510796Y-124026427D01*
X125514396Y-124050695D01*
X125515600Y-124075199D01*
X125515600Y-124725201D01*
X125514396Y-124749705D01*
X125510796Y-124773973D01*
X125504835Y-124797772D01*
X125496570Y-124820871D01*
X125486080Y-124843050D01*
X125473468Y-124864093D01*
X125458853Y-124883799D01*
X125442377Y-124901977D01*
X125424199Y-124918453D01*
X125404493Y-124933068D01*
X125383450Y-124945680D01*
X125361271Y-124956170D01*
X125338172Y-124964435D01*
X125314373Y-124970396D01*
X125290105Y-124973996D01*
X125265601Y-124975200D01*
X124365599Y-124975200D01*
X124341095Y-124973996D01*
X124316827Y-124970396D01*
X124293028Y-124964435D01*
X124269929Y-124956170D01*
X124247750Y-124945680D01*
X124226707Y-124933068D01*
X124207001Y-124918453D01*
X124188823Y-124901977D01*
X124172347Y-124883799D01*
X124157732Y-124864093D01*
X124145120Y-124843050D01*
X124134630Y-124820871D01*
X124126365Y-124797772D01*
X124120404Y-124773973D01*
X124116804Y-124749705D01*
X124115600Y-124725201D01*
X124115600Y-124075199D01*
X124116804Y-124050695D01*
X124120404Y-124026427D01*
X124126365Y-124002628D01*
X124134630Y-123979529D01*
X124145120Y-123957350D01*
X124157732Y-123936307D01*
X124172347Y-123916601D01*
X124188823Y-123898423D01*
X124207001Y-123881947D01*
X124226707Y-123867332D01*
X124247750Y-123854720D01*
X124269929Y-123844230D01*
X124293028Y-123835965D01*
X124316827Y-123830004D01*
X124341095Y-123826404D01*
X124365599Y-123825200D01*
X125265601Y-123825200D01*
X125290105Y-123826404D01*
G37*
G36*
X125290105Y-133090004D02*
G01*
X125314373Y-133093604D01*
X125338172Y-133099565D01*
X125361271Y-133107830D01*
X125383450Y-133118320D01*
X125404493Y-133130932D01*
X125424199Y-133145547D01*
X125442377Y-133162023D01*
X125458853Y-133180201D01*
X125473468Y-133199907D01*
X125486080Y-133220950D01*
X125496570Y-133243129D01*
X125504835Y-133266228D01*
X125510796Y-133290027D01*
X125514396Y-133314295D01*
X125515600Y-133338799D01*
X125515600Y-133988801D01*
X125514396Y-134013305D01*
X125510796Y-134037573D01*
X125504835Y-134061372D01*
X125496570Y-134084471D01*
X125486080Y-134106650D01*
X125473468Y-134127693D01*
X125458853Y-134147399D01*
X125442377Y-134165577D01*
X125424199Y-134182053D01*
X125404493Y-134196668D01*
X125383450Y-134209280D01*
X125361271Y-134219770D01*
X125338172Y-134228035D01*
X125314373Y-134233996D01*
X125290105Y-134237596D01*
X125265601Y-134238800D01*
X124365599Y-134238800D01*
X124341095Y-134237596D01*
X124316827Y-134233996D01*
X124293028Y-134228035D01*
X124269929Y-134219770D01*
X124247750Y-134209280D01*
X124226707Y-134196668D01*
X124207001Y-134182053D01*
X124188823Y-134165577D01*
X124172347Y-134147399D01*
X124157732Y-134127693D01*
X124145120Y-134106650D01*
X124134630Y-134084471D01*
X124126365Y-134061372D01*
X124120404Y-134037573D01*
X124116804Y-134013305D01*
X124115600Y-133988801D01*
X124115600Y-133338799D01*
X124116804Y-133314295D01*
X124120404Y-133290027D01*
X124126365Y-133266228D01*
X124134630Y-133243129D01*
X124145120Y-133220950D01*
X124157732Y-133199907D01*
X124172347Y-133180201D01*
X124188823Y-133162023D01*
X124207001Y-133145547D01*
X124226707Y-133130932D01*
X124247750Y-133118320D01*
X124269929Y-133107830D01*
X124293028Y-133099565D01*
X124316827Y-133093604D01*
X124341095Y-133090004D01*
X124365599Y-133088800D01*
X125265601Y-133088800D01*
X125290105Y-133090004D01*
G37*
G36*
X125290105Y-131040004D02*
G01*
X125314373Y-131043604D01*
X125338172Y-131049565D01*
X125361271Y-131057830D01*
X125383450Y-131068320D01*
X125404493Y-131080932D01*
X125424199Y-131095547D01*
X125442377Y-131112023D01*
X125458853Y-131130201D01*
X125473468Y-131149907D01*
X125486080Y-131170950D01*
X125496570Y-131193129D01*
X125504835Y-131216228D01*
X125510796Y-131240027D01*
X125514396Y-131264295D01*
X125515600Y-131288799D01*
X125515600Y-131938801D01*
X125514396Y-131963305D01*
X125510796Y-131987573D01*
X125504835Y-132011372D01*
X125496570Y-132034471D01*
X125486080Y-132056650D01*
X125473468Y-132077693D01*
X125458853Y-132097399D01*
X125442377Y-132115577D01*
X125424199Y-132132053D01*
X125404493Y-132146668D01*
X125383450Y-132159280D01*
X125361271Y-132169770D01*
X125338172Y-132178035D01*
X125314373Y-132183996D01*
X125290105Y-132187596D01*
X125265601Y-132188800D01*
X124365599Y-132188800D01*
X124341095Y-132187596D01*
X124316827Y-132183996D01*
X124293028Y-132178035D01*
X124269929Y-132169770D01*
X124247750Y-132159280D01*
X124226707Y-132146668D01*
X124207001Y-132132053D01*
X124188823Y-132115577D01*
X124172347Y-132097399D01*
X124157732Y-132077693D01*
X124145120Y-132056650D01*
X124134630Y-132034471D01*
X124126365Y-132011372D01*
X124120404Y-131987573D01*
X124116804Y-131963305D01*
X124115600Y-131938801D01*
X124115600Y-131288799D01*
X124116804Y-131264295D01*
X124120404Y-131240027D01*
X124126365Y-131216228D01*
X124134630Y-131193129D01*
X124145120Y-131170950D01*
X124157732Y-131149907D01*
X124172347Y-131130201D01*
X124188823Y-131112023D01*
X124207001Y-131095547D01*
X124226707Y-131080932D01*
X124247750Y-131068320D01*
X124269929Y-131057830D01*
X124293028Y-131049565D01*
X124316827Y-131043604D01*
X124341095Y-131040004D01*
X124365599Y-131038800D01*
X125265601Y-131038800D01*
X125290105Y-131040004D01*
G37*
G36*
X125264705Y-111677804D02*
G01*
X125288973Y-111681404D01*
X125312772Y-111687365D01*
X125335871Y-111695630D01*
X125358050Y-111706120D01*
X125379093Y-111718732D01*
X125398799Y-111733347D01*
X125416977Y-111749823D01*
X125433453Y-111768001D01*
X125448068Y-111787707D01*
X125460680Y-111808750D01*
X125471170Y-111830929D01*
X125479435Y-111854028D01*
X125485396Y-111877827D01*
X125488996Y-111902095D01*
X125490200Y-111926599D01*
X125490200Y-112576601D01*
X125488996Y-112601105D01*
X125485396Y-112625373D01*
X125479435Y-112649172D01*
X125471170Y-112672271D01*
X125460680Y-112694450D01*
X125448068Y-112715493D01*
X125433453Y-112735199D01*
X125416977Y-112753377D01*
X125398799Y-112769853D01*
X125379093Y-112784468D01*
X125358050Y-112797080D01*
X125335871Y-112807570D01*
X125312772Y-112815835D01*
X125288973Y-112821796D01*
X125264705Y-112825396D01*
X125240201Y-112826600D01*
X124340199Y-112826600D01*
X124315695Y-112825396D01*
X124291427Y-112821796D01*
X124267628Y-112815835D01*
X124244529Y-112807570D01*
X124222350Y-112797080D01*
X124201307Y-112784468D01*
X124181601Y-112769853D01*
X124163423Y-112753377D01*
X124146947Y-112735199D01*
X124132332Y-112715493D01*
X124119720Y-112694450D01*
X124109230Y-112672271D01*
X124100965Y-112649172D01*
X124095004Y-112625373D01*
X124091404Y-112601105D01*
X124090200Y-112576601D01*
X124090200Y-111926599D01*
X124091404Y-111902095D01*
X124095004Y-111877827D01*
X124100965Y-111854028D01*
X124109230Y-111830929D01*
X124119720Y-111808750D01*
X124132332Y-111787707D01*
X124146947Y-111768001D01*
X124163423Y-111749823D01*
X124181601Y-111733347D01*
X124201307Y-111718732D01*
X124222350Y-111706120D01*
X124244529Y-111695630D01*
X124267628Y-111687365D01*
X124291427Y-111681404D01*
X124315695Y-111677804D01*
X124340199Y-111676600D01*
X125240201Y-111676600D01*
X125264705Y-111677804D01*
G37*
G36*
X125264705Y-109627804D02*
G01*
X125288973Y-109631404D01*
X125312772Y-109637365D01*
X125335871Y-109645630D01*
X125358050Y-109656120D01*
X125379093Y-109668732D01*
X125398799Y-109683347D01*
X125416977Y-109699823D01*
X125433453Y-109718001D01*
X125448068Y-109737707D01*
X125460680Y-109758750D01*
X125471170Y-109780929D01*
X125479435Y-109804028D01*
X125485396Y-109827827D01*
X125488996Y-109852095D01*
X125490200Y-109876599D01*
X125490200Y-110526601D01*
X125488996Y-110551105D01*
X125485396Y-110575373D01*
X125479435Y-110599172D01*
X125471170Y-110622271D01*
X125460680Y-110644450D01*
X125448068Y-110665493D01*
X125433453Y-110685199D01*
X125416977Y-110703377D01*
X125398799Y-110719853D01*
X125379093Y-110734468D01*
X125358050Y-110747080D01*
X125335871Y-110757570D01*
X125312772Y-110765835D01*
X125288973Y-110771796D01*
X125264705Y-110775396D01*
X125240201Y-110776600D01*
X124340199Y-110776600D01*
X124315695Y-110775396D01*
X124291427Y-110771796D01*
X124267628Y-110765835D01*
X124244529Y-110757570D01*
X124222350Y-110747080D01*
X124201307Y-110734468D01*
X124181601Y-110719853D01*
X124163423Y-110703377D01*
X124146947Y-110685199D01*
X124132332Y-110665493D01*
X124119720Y-110644450D01*
X124109230Y-110622271D01*
X124100965Y-110599172D01*
X124095004Y-110575373D01*
X124091404Y-110551105D01*
X124090200Y-110526601D01*
X124090200Y-109876599D01*
X124091404Y-109852095D01*
X124095004Y-109827827D01*
X124100965Y-109804028D01*
X124109230Y-109780929D01*
X124119720Y-109758750D01*
X124132332Y-109737707D01*
X124146947Y-109718001D01*
X124163423Y-109699823D01*
X124181601Y-109683347D01*
X124201307Y-109668732D01*
X124222350Y-109656120D01*
X124244529Y-109645630D01*
X124267628Y-109637365D01*
X124291427Y-109631404D01*
X124315695Y-109627804D01*
X124340199Y-109626600D01*
X125240201Y-109626600D01*
X125264705Y-109627804D01*
G37*
G36*
X125239305Y-97352204D02*
G01*
X125263573Y-97355804D01*
X125287372Y-97361765D01*
X125310471Y-97370030D01*
X125332650Y-97380520D01*
X125353693Y-97393132D01*
X125373399Y-97407747D01*
X125391577Y-97424223D01*
X125408053Y-97442401D01*
X125422668Y-97462107D01*
X125435280Y-97483150D01*
X125445770Y-97505329D01*
X125454035Y-97528428D01*
X125459996Y-97552227D01*
X125463596Y-97576495D01*
X125464800Y-97600999D01*
X125464800Y-98251001D01*
X125463596Y-98275505D01*
X125459996Y-98299773D01*
X125454035Y-98323572D01*
X125445770Y-98346671D01*
X125435280Y-98368850D01*
X125422668Y-98389893D01*
X125408053Y-98409599D01*
X125391577Y-98427777D01*
X125373399Y-98444253D01*
X125353693Y-98458868D01*
X125332650Y-98471480D01*
X125310471Y-98481970D01*
X125287372Y-98490235D01*
X125263573Y-98496196D01*
X125239305Y-98499796D01*
X125214801Y-98501000D01*
X124314799Y-98501000D01*
X124290295Y-98499796D01*
X124266027Y-98496196D01*
X124242228Y-98490235D01*
X124219129Y-98481970D01*
X124196950Y-98471480D01*
X124175907Y-98458868D01*
X124156201Y-98444253D01*
X124138023Y-98427777D01*
X124121547Y-98409599D01*
X124106932Y-98389893D01*
X124094320Y-98368850D01*
X124083830Y-98346671D01*
X124075565Y-98323572D01*
X124069604Y-98299773D01*
X124066004Y-98275505D01*
X124064800Y-98251001D01*
X124064800Y-97600999D01*
X124066004Y-97576495D01*
X124069604Y-97552227D01*
X124075565Y-97528428D01*
X124083830Y-97505329D01*
X124094320Y-97483150D01*
X124106932Y-97462107D01*
X124121547Y-97442401D01*
X124138023Y-97424223D01*
X124156201Y-97407747D01*
X124175907Y-97393132D01*
X124196950Y-97380520D01*
X124219129Y-97370030D01*
X124242228Y-97361765D01*
X124266027Y-97355804D01*
X124290295Y-97352204D01*
X124314799Y-97351000D01*
X125214801Y-97351000D01*
X125239305Y-97352204D01*
G37*
G36*
X125239305Y-95302204D02*
G01*
X125263573Y-95305804D01*
X125287372Y-95311765D01*
X125310471Y-95320030D01*
X125332650Y-95330520D01*
X125353693Y-95343132D01*
X125373399Y-95357747D01*
X125391577Y-95374223D01*
X125408053Y-95392401D01*
X125422668Y-95412107D01*
X125435280Y-95433150D01*
X125445770Y-95455329D01*
X125454035Y-95478428D01*
X125459996Y-95502227D01*
X125463596Y-95526495D01*
X125464800Y-95550999D01*
X125464800Y-96201001D01*
X125463596Y-96225505D01*
X125459996Y-96249773D01*
X125454035Y-96273572D01*
X125445770Y-96296671D01*
X125435280Y-96318850D01*
X125422668Y-96339893D01*
X125408053Y-96359599D01*
X125391577Y-96377777D01*
X125373399Y-96394253D01*
X125353693Y-96408868D01*
X125332650Y-96421480D01*
X125310471Y-96431970D01*
X125287372Y-96440235D01*
X125263573Y-96446196D01*
X125239305Y-96449796D01*
X125214801Y-96451000D01*
X124314799Y-96451000D01*
X124290295Y-96449796D01*
X124266027Y-96446196D01*
X124242228Y-96440235D01*
X124219129Y-96431970D01*
X124196950Y-96421480D01*
X124175907Y-96408868D01*
X124156201Y-96394253D01*
X124138023Y-96377777D01*
X124121547Y-96359599D01*
X124106932Y-96339893D01*
X124094320Y-96318850D01*
X124083830Y-96296671D01*
X124075565Y-96273572D01*
X124069604Y-96249773D01*
X124066004Y-96225505D01*
X124064800Y-96201001D01*
X124064800Y-95550999D01*
X124066004Y-95526495D01*
X124069604Y-95502227D01*
X124075565Y-95478428D01*
X124083830Y-95455329D01*
X124094320Y-95433150D01*
X124106932Y-95412107D01*
X124121547Y-95392401D01*
X124138023Y-95374223D01*
X124156201Y-95357747D01*
X124175907Y-95343132D01*
X124196950Y-95330520D01*
X124219129Y-95320030D01*
X124242228Y-95311765D01*
X124266027Y-95305804D01*
X124290295Y-95302204D01*
X124314799Y-95301000D01*
X125214801Y-95301000D01*
X125239305Y-95302204D01*
G37*
G36*
X125239305Y-90240204D02*
G01*
X125263573Y-90243804D01*
X125287372Y-90249765D01*
X125310471Y-90258030D01*
X125332650Y-90268520D01*
X125353693Y-90281132D01*
X125373399Y-90295747D01*
X125391577Y-90312223D01*
X125408053Y-90330401D01*
X125422668Y-90350107D01*
X125435280Y-90371150D01*
X125445770Y-90393329D01*
X125454035Y-90416428D01*
X125459996Y-90440227D01*
X125463596Y-90464495D01*
X125464800Y-90488999D01*
X125464800Y-91139001D01*
X125463596Y-91163505D01*
X125459996Y-91187773D01*
X125454035Y-91211572D01*
X125445770Y-91234671D01*
X125435280Y-91256850D01*
X125422668Y-91277893D01*
X125408053Y-91297599D01*
X125391577Y-91315777D01*
X125373399Y-91332253D01*
X125353693Y-91346868D01*
X125332650Y-91359480D01*
X125310471Y-91369970D01*
X125287372Y-91378235D01*
X125263573Y-91384196D01*
X125239305Y-91387796D01*
X125214801Y-91389000D01*
X124314799Y-91389000D01*
X124290295Y-91387796D01*
X124266027Y-91384196D01*
X124242228Y-91378235D01*
X124219129Y-91369970D01*
X124196950Y-91359480D01*
X124175907Y-91346868D01*
X124156201Y-91332253D01*
X124138023Y-91315777D01*
X124121547Y-91297599D01*
X124106932Y-91277893D01*
X124094320Y-91256850D01*
X124083830Y-91234671D01*
X124075565Y-91211572D01*
X124069604Y-91187773D01*
X124066004Y-91163505D01*
X124064800Y-91139001D01*
X124064800Y-90488999D01*
X124066004Y-90464495D01*
X124069604Y-90440227D01*
X124075565Y-90416428D01*
X124083830Y-90393329D01*
X124094320Y-90371150D01*
X124106932Y-90350107D01*
X124121547Y-90330401D01*
X124138023Y-90312223D01*
X124156201Y-90295747D01*
X124175907Y-90281132D01*
X124196950Y-90268520D01*
X124219129Y-90258030D01*
X124242228Y-90249765D01*
X124266027Y-90243804D01*
X124290295Y-90240204D01*
X124314799Y-90239000D01*
X125214801Y-90239000D01*
X125239305Y-90240204D01*
G37*
G36*
X125239305Y-88190204D02*
G01*
X125263573Y-88193804D01*
X125287372Y-88199765D01*
X125310471Y-88208030D01*
X125332650Y-88218520D01*
X125353693Y-88231132D01*
X125373399Y-88245747D01*
X125391577Y-88262223D01*
X125408053Y-88280401D01*
X125422668Y-88300107D01*
X125435280Y-88321150D01*
X125445770Y-88343329D01*
X125454035Y-88366428D01*
X125459996Y-88390227D01*
X125463596Y-88414495D01*
X125464800Y-88438999D01*
X125464800Y-89089001D01*
X125463596Y-89113505D01*
X125459996Y-89137773D01*
X125454035Y-89161572D01*
X125445770Y-89184671D01*
X125435280Y-89206850D01*
X125422668Y-89227893D01*
X125408053Y-89247599D01*
X125391577Y-89265777D01*
X125373399Y-89282253D01*
X125353693Y-89296868D01*
X125332650Y-89309480D01*
X125310471Y-89319970D01*
X125287372Y-89328235D01*
X125263573Y-89334196D01*
X125239305Y-89337796D01*
X125214801Y-89339000D01*
X124314799Y-89339000D01*
X124290295Y-89337796D01*
X124266027Y-89334196D01*
X124242228Y-89328235D01*
X124219129Y-89319970D01*
X124196950Y-89309480D01*
X124175907Y-89296868D01*
X124156201Y-89282253D01*
X124138023Y-89265777D01*
X124121547Y-89247599D01*
X124106932Y-89227893D01*
X124094320Y-89206850D01*
X124083830Y-89184671D01*
X124075565Y-89161572D01*
X124069604Y-89137773D01*
X124066004Y-89113505D01*
X124064800Y-89089001D01*
X124064800Y-88438999D01*
X124066004Y-88414495D01*
X124069604Y-88390227D01*
X124075565Y-88366428D01*
X124083830Y-88343329D01*
X124094320Y-88321150D01*
X124106932Y-88300107D01*
X124121547Y-88280401D01*
X124138023Y-88262223D01*
X124156201Y-88245747D01*
X124175907Y-88231132D01*
X124196950Y-88218520D01*
X124219129Y-88208030D01*
X124242228Y-88199765D01*
X124266027Y-88193804D01*
X124290295Y-88190204D01*
X124314799Y-88189000D01*
X125214801Y-88189000D01*
X125239305Y-88190204D01*
G37*
G36*
X125188505Y-83077404D02*
G01*
X125212773Y-83081004D01*
X125236572Y-83086965D01*
X125259671Y-83095230D01*
X125281850Y-83105720D01*
X125302893Y-83118332D01*
X125322599Y-83132947D01*
X125340777Y-83149423D01*
X125357253Y-83167601D01*
X125371868Y-83187307D01*
X125384480Y-83208350D01*
X125394970Y-83230529D01*
X125403235Y-83253628D01*
X125409196Y-83277427D01*
X125412796Y-83301695D01*
X125414000Y-83326199D01*
X125414000Y-83976201D01*
X125412796Y-84000705D01*
X125409196Y-84024973D01*
X125403235Y-84048772D01*
X125394970Y-84071871D01*
X125384480Y-84094050D01*
X125371868Y-84115093D01*
X125357253Y-84134799D01*
X125340777Y-84152977D01*
X125322599Y-84169453D01*
X125302893Y-84184068D01*
X125281850Y-84196680D01*
X125259671Y-84207170D01*
X125236572Y-84215435D01*
X125212773Y-84221396D01*
X125188505Y-84224996D01*
X125164001Y-84226200D01*
X124263999Y-84226200D01*
X124239495Y-84224996D01*
X124215227Y-84221396D01*
X124191428Y-84215435D01*
X124168329Y-84207170D01*
X124146150Y-84196680D01*
X124125107Y-84184068D01*
X124105401Y-84169453D01*
X124087223Y-84152977D01*
X124070747Y-84134799D01*
X124056132Y-84115093D01*
X124043520Y-84094050D01*
X124033030Y-84071871D01*
X124024765Y-84048772D01*
X124018804Y-84024973D01*
X124015204Y-84000705D01*
X124014000Y-83976201D01*
X124014000Y-83326199D01*
X124015204Y-83301695D01*
X124018804Y-83277427D01*
X124024765Y-83253628D01*
X124033030Y-83230529D01*
X124043520Y-83208350D01*
X124056132Y-83187307D01*
X124070747Y-83167601D01*
X124087223Y-83149423D01*
X124105401Y-83132947D01*
X124125107Y-83118332D01*
X124146150Y-83105720D01*
X124168329Y-83095230D01*
X124191428Y-83086965D01*
X124215227Y-83081004D01*
X124239495Y-83077404D01*
X124263999Y-83076200D01*
X125164001Y-83076200D01*
X125188505Y-83077404D01*
G37*
G36*
X125188505Y-81027404D02*
G01*
X125212773Y-81031004D01*
X125236572Y-81036965D01*
X125259671Y-81045230D01*
X125281850Y-81055720D01*
X125302893Y-81068332D01*
X125322599Y-81082947D01*
X125340777Y-81099423D01*
X125357253Y-81117601D01*
X125371868Y-81137307D01*
X125384480Y-81158350D01*
X125394970Y-81180529D01*
X125403235Y-81203628D01*
X125409196Y-81227427D01*
X125412796Y-81251695D01*
X125414000Y-81276199D01*
X125414000Y-81926201D01*
X125412796Y-81950705D01*
X125409196Y-81974973D01*
X125403235Y-81998772D01*
X125394970Y-82021871D01*
X125384480Y-82044050D01*
X125371868Y-82065093D01*
X125357253Y-82084799D01*
X125340777Y-82102977D01*
X125322599Y-82119453D01*
X125302893Y-82134068D01*
X125281850Y-82146680D01*
X125259671Y-82157170D01*
X125236572Y-82165435D01*
X125212773Y-82171396D01*
X125188505Y-82174996D01*
X125164001Y-82176200D01*
X124263999Y-82176200D01*
X124239495Y-82174996D01*
X124215227Y-82171396D01*
X124191428Y-82165435D01*
X124168329Y-82157170D01*
X124146150Y-82146680D01*
X124125107Y-82134068D01*
X124105401Y-82119453D01*
X124087223Y-82102977D01*
X124070747Y-82084799D01*
X124056132Y-82065093D01*
X124043520Y-82044050D01*
X124033030Y-82021871D01*
X124024765Y-81998772D01*
X124018804Y-81974973D01*
X124015204Y-81950705D01*
X124014000Y-81926201D01*
X124014000Y-81276199D01*
X124015204Y-81251695D01*
X124018804Y-81227427D01*
X124024765Y-81203628D01*
X124033030Y-81180529D01*
X124043520Y-81158350D01*
X124056132Y-81137307D01*
X124070747Y-81117601D01*
X124087223Y-81099423D01*
X124105401Y-81082947D01*
X124125107Y-81068332D01*
X124146150Y-81055720D01*
X124168329Y-81045230D01*
X124191428Y-81036965D01*
X124215227Y-81031004D01*
X124239495Y-81027404D01*
X124263999Y-81026200D01*
X125164001Y-81026200D01*
X125188505Y-81027404D01*
G37*
G36*
X125213905Y-75990804D02*
G01*
X125238173Y-75994404D01*
X125261972Y-76000365D01*
X125285071Y-76008630D01*
X125307250Y-76019120D01*
X125328293Y-76031732D01*
X125347999Y-76046347D01*
X125366177Y-76062823D01*
X125382653Y-76081001D01*
X125397268Y-76100707D01*
X125409880Y-76121750D01*
X125420370Y-76143929D01*
X125428635Y-76167028D01*
X125434596Y-76190827D01*
X125438196Y-76215095D01*
X125439400Y-76239599D01*
X125439400Y-76889601D01*
X125438196Y-76914105D01*
X125434596Y-76938373D01*
X125428635Y-76962172D01*
X125420370Y-76985271D01*
X125409880Y-77007450D01*
X125397268Y-77028493D01*
X125382653Y-77048199D01*
X125366177Y-77066377D01*
X125347999Y-77082853D01*
X125328293Y-77097468D01*
X125307250Y-77110080D01*
X125285071Y-77120570D01*
X125261972Y-77128835D01*
X125238173Y-77134796D01*
X125213905Y-77138396D01*
X125189401Y-77139600D01*
X124289399Y-77139600D01*
X124264895Y-77138396D01*
X124240627Y-77134796D01*
X124216828Y-77128835D01*
X124193729Y-77120570D01*
X124171550Y-77110080D01*
X124150507Y-77097468D01*
X124130801Y-77082853D01*
X124112623Y-77066377D01*
X124096147Y-77048199D01*
X124081532Y-77028493D01*
X124068920Y-77007450D01*
X124058430Y-76985271D01*
X124050165Y-76962172D01*
X124044204Y-76938373D01*
X124040604Y-76914105D01*
X124039400Y-76889601D01*
X124039400Y-76239599D01*
X124040604Y-76215095D01*
X124044204Y-76190827D01*
X124050165Y-76167028D01*
X124058430Y-76143929D01*
X124068920Y-76121750D01*
X124081532Y-76100707D01*
X124096147Y-76081001D01*
X124112623Y-76062823D01*
X124130801Y-76046347D01*
X124150507Y-76031732D01*
X124171550Y-76019120D01*
X124193729Y-76008630D01*
X124216828Y-76000365D01*
X124240627Y-75994404D01*
X124264895Y-75990804D01*
X124289399Y-75989600D01*
X125189401Y-75989600D01*
X125213905Y-75990804D01*
G37*
G36*
X125213905Y-73940804D02*
G01*
X125238173Y-73944404D01*
X125261972Y-73950365D01*
X125285071Y-73958630D01*
X125307250Y-73969120D01*
X125328293Y-73981732D01*
X125347999Y-73996347D01*
X125366177Y-74012823D01*
X125382653Y-74031001D01*
X125397268Y-74050707D01*
X125409880Y-74071750D01*
X125420370Y-74093929D01*
X125428635Y-74117028D01*
X125434596Y-74140827D01*
X125438196Y-74165095D01*
X125439400Y-74189599D01*
X125439400Y-74839601D01*
X125438196Y-74864105D01*
X125434596Y-74888373D01*
X125428635Y-74912172D01*
X125420370Y-74935271D01*
X125409880Y-74957450D01*
X125397268Y-74978493D01*
X125382653Y-74998199D01*
X125366177Y-75016377D01*
X125347999Y-75032853D01*
X125328293Y-75047468D01*
X125307250Y-75060080D01*
X125285071Y-75070570D01*
X125261972Y-75078835D01*
X125238173Y-75084796D01*
X125213905Y-75088396D01*
X125189401Y-75089600D01*
X124289399Y-75089600D01*
X124264895Y-75088396D01*
X124240627Y-75084796D01*
X124216828Y-75078835D01*
X124193729Y-75070570D01*
X124171550Y-75060080D01*
X124150507Y-75047468D01*
X124130801Y-75032853D01*
X124112623Y-75016377D01*
X124096147Y-74998199D01*
X124081532Y-74978493D01*
X124068920Y-74957450D01*
X124058430Y-74935271D01*
X124050165Y-74912172D01*
X124044204Y-74888373D01*
X124040604Y-74864105D01*
X124039400Y-74839601D01*
X124039400Y-74189599D01*
X124040604Y-74165095D01*
X124044204Y-74140827D01*
X124050165Y-74117028D01*
X124058430Y-74093929D01*
X124068920Y-74071750D01*
X124081532Y-74050707D01*
X124096147Y-74031001D01*
X124112623Y-74012823D01*
X124130801Y-73996347D01*
X124150507Y-73981732D01*
X124171550Y-73969120D01*
X124193729Y-73958630D01*
X124216828Y-73950365D01*
X124240627Y-73944404D01*
X124264895Y-73940804D01*
X124289399Y-73939600D01*
X125189401Y-73939600D01*
X125213905Y-73940804D01*
G37*
G36*
X125264705Y-69123804D02*
G01*
X125288973Y-69127404D01*
X125312772Y-69133365D01*
X125335871Y-69141630D01*
X125358050Y-69152120D01*
X125379093Y-69164732D01*
X125398799Y-69179347D01*
X125416977Y-69195823D01*
X125433453Y-69214001D01*
X125448068Y-69233707D01*
X125460680Y-69254750D01*
X125471170Y-69276929D01*
X125479435Y-69300028D01*
X125485396Y-69323827D01*
X125488996Y-69348095D01*
X125490200Y-69372599D01*
X125490200Y-70022601D01*
X125488996Y-70047105D01*
X125485396Y-70071373D01*
X125479435Y-70095172D01*
X125471170Y-70118271D01*
X125460680Y-70140450D01*
X125448068Y-70161493D01*
X125433453Y-70181199D01*
X125416977Y-70199377D01*
X125398799Y-70215853D01*
X125379093Y-70230468D01*
X125358050Y-70243080D01*
X125335871Y-70253570D01*
X125312772Y-70261835D01*
X125288973Y-70267796D01*
X125264705Y-70271396D01*
X125240201Y-70272600D01*
X124340199Y-70272600D01*
X124315695Y-70271396D01*
X124291427Y-70267796D01*
X124267628Y-70261835D01*
X124244529Y-70253570D01*
X124222350Y-70243080D01*
X124201307Y-70230468D01*
X124181601Y-70215853D01*
X124163423Y-70199377D01*
X124146947Y-70181199D01*
X124132332Y-70161493D01*
X124119720Y-70140450D01*
X124109230Y-70118271D01*
X124100965Y-70095172D01*
X124095004Y-70071373D01*
X124091404Y-70047105D01*
X124090200Y-70022601D01*
X124090200Y-69372599D01*
X124091404Y-69348095D01*
X124095004Y-69323827D01*
X124100965Y-69300028D01*
X124109230Y-69276929D01*
X124119720Y-69254750D01*
X124132332Y-69233707D01*
X124146947Y-69214001D01*
X124163423Y-69195823D01*
X124181601Y-69179347D01*
X124201307Y-69164732D01*
X124222350Y-69152120D01*
X124244529Y-69141630D01*
X124267628Y-69133365D01*
X124291427Y-69127404D01*
X124315695Y-69123804D01*
X124340199Y-69122600D01*
X125240201Y-69122600D01*
X125264705Y-69123804D01*
G37*
G36*
X125264705Y-67073804D02*
G01*
X125288973Y-67077404D01*
X125312772Y-67083365D01*
X125335871Y-67091630D01*
X125358050Y-67102120D01*
X125379093Y-67114732D01*
X125398799Y-67129347D01*
X125416977Y-67145823D01*
X125433453Y-67164001D01*
X125448068Y-67183707D01*
X125460680Y-67204750D01*
X125471170Y-67226929D01*
X125479435Y-67250028D01*
X125485396Y-67273827D01*
X125488996Y-67298095D01*
X125490200Y-67322599D01*
X125490200Y-67972601D01*
X125488996Y-67997105D01*
X125485396Y-68021373D01*
X125479435Y-68045172D01*
X125471170Y-68068271D01*
X125460680Y-68090450D01*
X125448068Y-68111493D01*
X125433453Y-68131199D01*
X125416977Y-68149377D01*
X125398799Y-68165853D01*
X125379093Y-68180468D01*
X125358050Y-68193080D01*
X125335871Y-68203570D01*
X125312772Y-68211835D01*
X125288973Y-68217796D01*
X125264705Y-68221396D01*
X125240201Y-68222600D01*
X124340199Y-68222600D01*
X124315695Y-68221396D01*
X124291427Y-68217796D01*
X124267628Y-68211835D01*
X124244529Y-68203570D01*
X124222350Y-68193080D01*
X124201307Y-68180468D01*
X124181601Y-68165853D01*
X124163423Y-68149377D01*
X124146947Y-68131199D01*
X124132332Y-68111493D01*
X124119720Y-68090450D01*
X124109230Y-68068271D01*
X124100965Y-68045172D01*
X124095004Y-68021373D01*
X124091404Y-67997105D01*
X124090200Y-67972601D01*
X124090200Y-67322599D01*
X124091404Y-67298095D01*
X124095004Y-67273827D01*
X124100965Y-67250028D01*
X124109230Y-67226929D01*
X124119720Y-67204750D01*
X124132332Y-67183707D01*
X124146947Y-67164001D01*
X124163423Y-67145823D01*
X124181601Y-67129347D01*
X124201307Y-67114732D01*
X124222350Y-67102120D01*
X124244529Y-67091630D01*
X124267628Y-67083365D01*
X124291427Y-67077404D01*
X124315695Y-67073804D01*
X124340199Y-67072600D01*
X125240201Y-67072600D01*
X125264705Y-67073804D01*
G37*
G36*
X138686905Y-114896604D02*
G01*
X138711173Y-114900204D01*
X138734972Y-114906165D01*
X138758071Y-114914430D01*
X138780250Y-114924920D01*
X138801293Y-114937532D01*
X138820999Y-114952147D01*
X138839177Y-114968623D01*
X138855653Y-114986801D01*
X138870268Y-115006507D01*
X138882880Y-115027550D01*
X138893370Y-115049729D01*
X138901635Y-115072828D01*
X138907596Y-115096627D01*
X138911196Y-115120895D01*
X138912400Y-115145399D01*
X138912400Y-116045401D01*
X138911196Y-116069905D01*
X138907596Y-116094173D01*
X138901635Y-116117972D01*
X138893370Y-116141071D01*
X138882880Y-116163250D01*
X138870268Y-116184293D01*
X138855653Y-116203999D01*
X138839177Y-116222177D01*
X138820999Y-116238653D01*
X138801293Y-116253268D01*
X138780250Y-116265880D01*
X138758071Y-116276370D01*
X138734972Y-116284635D01*
X138711173Y-116290596D01*
X138686905Y-116294196D01*
X138662401Y-116295400D01*
X138012399Y-116295400D01*
X137987895Y-116294196D01*
X137963627Y-116290596D01*
X137939828Y-116284635D01*
X137916729Y-116276370D01*
X137894550Y-116265880D01*
X137873507Y-116253268D01*
X137853801Y-116238653D01*
X137835623Y-116222177D01*
X137819147Y-116203999D01*
X137804532Y-116184293D01*
X137791920Y-116163250D01*
X137781430Y-116141071D01*
X137773165Y-116117972D01*
X137767204Y-116094173D01*
X137763604Y-116069905D01*
X137762400Y-116045401D01*
X137762400Y-115145399D01*
X137763604Y-115120895D01*
X137767204Y-115096627D01*
X137773165Y-115072828D01*
X137781430Y-115049729D01*
X137791920Y-115027550D01*
X137804532Y-115006507D01*
X137819147Y-114986801D01*
X137835623Y-114968623D01*
X137853801Y-114952147D01*
X137873507Y-114937532D01*
X137894550Y-114924920D01*
X137916729Y-114914430D01*
X137939828Y-114906165D01*
X137963627Y-114900204D01*
X137987895Y-114896604D01*
X138012399Y-114895400D01*
X138662401Y-114895400D01*
X138686905Y-114896604D01*
G37*
G36*
X136636905Y-114896604D02*
G01*
X136661173Y-114900204D01*
X136684972Y-114906165D01*
X136708071Y-114914430D01*
X136730250Y-114924920D01*
X136751293Y-114937532D01*
X136770999Y-114952147D01*
X136789177Y-114968623D01*
X136805653Y-114986801D01*
X136820268Y-115006507D01*
X136832880Y-115027550D01*
X136843370Y-115049729D01*
X136851635Y-115072828D01*
X136857596Y-115096627D01*
X136861196Y-115120895D01*
X136862400Y-115145399D01*
X136862400Y-116045401D01*
X136861196Y-116069905D01*
X136857596Y-116094173D01*
X136851635Y-116117972D01*
X136843370Y-116141071D01*
X136832880Y-116163250D01*
X136820268Y-116184293D01*
X136805653Y-116203999D01*
X136789177Y-116222177D01*
X136770999Y-116238653D01*
X136751293Y-116253268D01*
X136730250Y-116265880D01*
X136708071Y-116276370D01*
X136684972Y-116284635D01*
X136661173Y-116290596D01*
X136636905Y-116294196D01*
X136612401Y-116295400D01*
X135962399Y-116295400D01*
X135937895Y-116294196D01*
X135913627Y-116290596D01*
X135889828Y-116284635D01*
X135866729Y-116276370D01*
X135844550Y-116265880D01*
X135823507Y-116253268D01*
X135803801Y-116238653D01*
X135785623Y-116222177D01*
X135769147Y-116203999D01*
X135754532Y-116184293D01*
X135741920Y-116163250D01*
X135731430Y-116141071D01*
X135723165Y-116117972D01*
X135717204Y-116094173D01*
X135713604Y-116069905D01*
X135712400Y-116045401D01*
X135712400Y-115145399D01*
X135713604Y-115120895D01*
X135717204Y-115096627D01*
X135723165Y-115072828D01*
X135731430Y-115049729D01*
X135741920Y-115027550D01*
X135754532Y-115006507D01*
X135769147Y-114986801D01*
X135785623Y-114968623D01*
X135803801Y-114952147D01*
X135823507Y-114937532D01*
X135844550Y-114924920D01*
X135866729Y-114914430D01*
X135889828Y-114906165D01*
X135913627Y-114900204D01*
X135937895Y-114896604D01*
X135962399Y-114895400D01*
X136612401Y-114895400D01*
X136636905Y-114896604D01*
G37*
D14*
X156190000Y-72700000D03*
X156190000Y-74700000D03*
X156190000Y-76700000D03*
X156190000Y-78700000D03*
X156190000Y-80700000D03*
X156190000Y-82700000D03*
X156190000Y-84700000D03*
X156190000Y-86700000D03*
D15*
X153590000Y-88200000D03*
X151590000Y-88200000D03*
X149590000Y-88200000D03*
X147590000Y-88200000D03*
X145590000Y-88200000D03*
X143590000Y-88200000D03*
D14*
X140990000Y-86700000D03*
X140990000Y-84700000D03*
X140990000Y-82700000D03*
X140990000Y-80700000D03*
X140990000Y-78700000D03*
X140990000Y-76700000D03*
X140990000Y-74700000D03*
X140990000Y-72700000D03*
D16*
X173537800Y-127859000D03*
X173537800Y-128509000D03*
X173537800Y-129159000D03*
X173537800Y-129809000D03*
X173537800Y-130459000D03*
D10*
G36*
X164812505Y-70301204D02*
G01*
X164836773Y-70304804D01*
X164860572Y-70310765D01*
X164883671Y-70319030D01*
X164905850Y-70329520D01*
X164926893Y-70342132D01*
X164946599Y-70356747D01*
X164964777Y-70373223D01*
X164981253Y-70391401D01*
X164995868Y-70411107D01*
X165008480Y-70432150D01*
X165018970Y-70454329D01*
X165027235Y-70477428D01*
X165033196Y-70501227D01*
X165036796Y-70525495D01*
X165038000Y-70549999D01*
X165038000Y-71200001D01*
X165036796Y-71224505D01*
X165033196Y-71248773D01*
X165027235Y-71272572D01*
X165018970Y-71295671D01*
X165008480Y-71317850D01*
X164995868Y-71338893D01*
X164981253Y-71358599D01*
X164964777Y-71376777D01*
X164946599Y-71393253D01*
X164926893Y-71407868D01*
X164905850Y-71420480D01*
X164883671Y-71430970D01*
X164860572Y-71439235D01*
X164836773Y-71445196D01*
X164812505Y-71448796D01*
X164788001Y-71450000D01*
X163887999Y-71450000D01*
X163863495Y-71448796D01*
X163839227Y-71445196D01*
X163815428Y-71439235D01*
X163792329Y-71430970D01*
X163770150Y-71420480D01*
X163749107Y-71407868D01*
X163729401Y-71393253D01*
X163711223Y-71376777D01*
X163694747Y-71358599D01*
X163680132Y-71338893D01*
X163667520Y-71317850D01*
X163657030Y-71295671D01*
X163648765Y-71272572D01*
X163642804Y-71248773D01*
X163639204Y-71224505D01*
X163638000Y-71200001D01*
X163638000Y-70549999D01*
X163639204Y-70525495D01*
X163642804Y-70501227D01*
X163648765Y-70477428D01*
X163657030Y-70454329D01*
X163667520Y-70432150D01*
X163680132Y-70411107D01*
X163694747Y-70391401D01*
X163711223Y-70373223D01*
X163729401Y-70356747D01*
X163749107Y-70342132D01*
X163770150Y-70329520D01*
X163792329Y-70319030D01*
X163815428Y-70310765D01*
X163839227Y-70304804D01*
X163863495Y-70301204D01*
X163887999Y-70300000D01*
X164788001Y-70300000D01*
X164812505Y-70301204D01*
G37*
G36*
X164812505Y-68251204D02*
G01*
X164836773Y-68254804D01*
X164860572Y-68260765D01*
X164883671Y-68269030D01*
X164905850Y-68279520D01*
X164926893Y-68292132D01*
X164946599Y-68306747D01*
X164964777Y-68323223D01*
X164981253Y-68341401D01*
X164995868Y-68361107D01*
X165008480Y-68382150D01*
X165018970Y-68404329D01*
X165027235Y-68427428D01*
X165033196Y-68451227D01*
X165036796Y-68475495D01*
X165038000Y-68499999D01*
X165038000Y-69150001D01*
X165036796Y-69174505D01*
X165033196Y-69198773D01*
X165027235Y-69222572D01*
X165018970Y-69245671D01*
X165008480Y-69267850D01*
X164995868Y-69288893D01*
X164981253Y-69308599D01*
X164964777Y-69326777D01*
X164946599Y-69343253D01*
X164926893Y-69357868D01*
X164905850Y-69370480D01*
X164883671Y-69380970D01*
X164860572Y-69389235D01*
X164836773Y-69395196D01*
X164812505Y-69398796D01*
X164788001Y-69400000D01*
X163887999Y-69400000D01*
X163863495Y-69398796D01*
X163839227Y-69395196D01*
X163815428Y-69389235D01*
X163792329Y-69380970D01*
X163770150Y-69370480D01*
X163749107Y-69357868D01*
X163729401Y-69343253D01*
X163711223Y-69326777D01*
X163694747Y-69308599D01*
X163680132Y-69288893D01*
X163667520Y-69267850D01*
X163657030Y-69245671D01*
X163648765Y-69222572D01*
X163642804Y-69198773D01*
X163639204Y-69174505D01*
X163638000Y-69150001D01*
X163638000Y-68499999D01*
X163639204Y-68475495D01*
X163642804Y-68451227D01*
X163648765Y-68427428D01*
X163657030Y-68404329D01*
X163667520Y-68382150D01*
X163680132Y-68361107D01*
X163694747Y-68341401D01*
X163711223Y-68323223D01*
X163729401Y-68306747D01*
X163749107Y-68292132D01*
X163770150Y-68279520D01*
X163792329Y-68269030D01*
X163815428Y-68260765D01*
X163839227Y-68254804D01*
X163863495Y-68251204D01*
X163887999Y-68250000D01*
X164788001Y-68250000D01*
X164812505Y-68251204D01*
G37*
D17*
X161226400Y-135320600D03*
X161226400Y-130820600D03*
X153276400Y-130820600D03*
X153276400Y-135320600D03*
X145859400Y-135320600D03*
X145859400Y-130820600D03*
X137909400Y-130820600D03*
X137909400Y-135320600D03*
D10*
G36*
X162165505Y-77914204D02*
G01*
X162189773Y-77917804D01*
X162213572Y-77923765D01*
X162236671Y-77932030D01*
X162258850Y-77942520D01*
X162279893Y-77955132D01*
X162299599Y-77969747D01*
X162317777Y-77986223D01*
X162334253Y-78004401D01*
X162348868Y-78024107D01*
X162361480Y-78045150D01*
X162371970Y-78067329D01*
X162380235Y-78090428D01*
X162386196Y-78114227D01*
X162389796Y-78138495D01*
X162391000Y-78162999D01*
X162391000Y-79063001D01*
X162389796Y-79087505D01*
X162386196Y-79111773D01*
X162380235Y-79135572D01*
X162371970Y-79158671D01*
X162361480Y-79180850D01*
X162348868Y-79201893D01*
X162334253Y-79221599D01*
X162317777Y-79239777D01*
X162299599Y-79256253D01*
X162279893Y-79270868D01*
X162258850Y-79283480D01*
X162236671Y-79293970D01*
X162213572Y-79302235D01*
X162189773Y-79308196D01*
X162165505Y-79311796D01*
X162141001Y-79313000D01*
X161490999Y-79313000D01*
X161466495Y-79311796D01*
X161442227Y-79308196D01*
X161418428Y-79302235D01*
X161395329Y-79293970D01*
X161373150Y-79283480D01*
X161352107Y-79270868D01*
X161332401Y-79256253D01*
X161314223Y-79239777D01*
X161297747Y-79221599D01*
X161283132Y-79201893D01*
X161270520Y-79180850D01*
X161260030Y-79158671D01*
X161251765Y-79135572D01*
X161245804Y-79111773D01*
X161242204Y-79087505D01*
X161241000Y-79063001D01*
X161241000Y-78162999D01*
X161242204Y-78138495D01*
X161245804Y-78114227D01*
X161251765Y-78090428D01*
X161260030Y-78067329D01*
X161270520Y-78045150D01*
X161283132Y-78024107D01*
X161297747Y-78004401D01*
X161314223Y-77986223D01*
X161332401Y-77969747D01*
X161352107Y-77955132D01*
X161373150Y-77942520D01*
X161395329Y-77932030D01*
X161418428Y-77923765D01*
X161442227Y-77917804D01*
X161466495Y-77914204D01*
X161490999Y-77913000D01*
X162141001Y-77913000D01*
X162165505Y-77914204D01*
G37*
G36*
X160115505Y-77914204D02*
G01*
X160139773Y-77917804D01*
X160163572Y-77923765D01*
X160186671Y-77932030D01*
X160208850Y-77942520D01*
X160229893Y-77955132D01*
X160249599Y-77969747D01*
X160267777Y-77986223D01*
X160284253Y-78004401D01*
X160298868Y-78024107D01*
X160311480Y-78045150D01*
X160321970Y-78067329D01*
X160330235Y-78090428D01*
X160336196Y-78114227D01*
X160339796Y-78138495D01*
X160341000Y-78162999D01*
X160341000Y-79063001D01*
X160339796Y-79087505D01*
X160336196Y-79111773D01*
X160330235Y-79135572D01*
X160321970Y-79158671D01*
X160311480Y-79180850D01*
X160298868Y-79201893D01*
X160284253Y-79221599D01*
X160267777Y-79239777D01*
X160249599Y-79256253D01*
X160229893Y-79270868D01*
X160208850Y-79283480D01*
X160186671Y-79293970D01*
X160163572Y-79302235D01*
X160139773Y-79308196D01*
X160115505Y-79311796D01*
X160091001Y-79313000D01*
X159440999Y-79313000D01*
X159416495Y-79311796D01*
X159392227Y-79308196D01*
X159368428Y-79302235D01*
X159345329Y-79293970D01*
X159323150Y-79283480D01*
X159302107Y-79270868D01*
X159282401Y-79256253D01*
X159264223Y-79239777D01*
X159247747Y-79221599D01*
X159233132Y-79201893D01*
X159220520Y-79180850D01*
X159210030Y-79158671D01*
X159201765Y-79135572D01*
X159195804Y-79111773D01*
X159192204Y-79087505D01*
X159191000Y-79063001D01*
X159191000Y-78162999D01*
X159192204Y-78138495D01*
X159195804Y-78114227D01*
X159201765Y-78090428D01*
X159210030Y-78067329D01*
X159220520Y-78045150D01*
X159233132Y-78024107D01*
X159247747Y-78004401D01*
X159264223Y-77986223D01*
X159282401Y-77969747D01*
X159302107Y-77955132D01*
X159323150Y-77942520D01*
X159345329Y-77932030D01*
X159368428Y-77923765D01*
X159392227Y-77917804D01*
X159416495Y-77914204D01*
X159440999Y-77913000D01*
X160091001Y-77913000D01*
X160115505Y-77914204D01*
G37*
G36*
X162156505Y-82740204D02*
G01*
X162180773Y-82743804D01*
X162204572Y-82749765D01*
X162227671Y-82758030D01*
X162249850Y-82768520D01*
X162270893Y-82781132D01*
X162290599Y-82795747D01*
X162308777Y-82812223D01*
X162325253Y-82830401D01*
X162339868Y-82850107D01*
X162352480Y-82871150D01*
X162362970Y-82893329D01*
X162371235Y-82916428D01*
X162377196Y-82940227D01*
X162380796Y-82964495D01*
X162382000Y-82988999D01*
X162382000Y-83889001D01*
X162380796Y-83913505D01*
X162377196Y-83937773D01*
X162371235Y-83961572D01*
X162362970Y-83984671D01*
X162352480Y-84006850D01*
X162339868Y-84027893D01*
X162325253Y-84047599D01*
X162308777Y-84065777D01*
X162290599Y-84082253D01*
X162270893Y-84096868D01*
X162249850Y-84109480D01*
X162227671Y-84119970D01*
X162204572Y-84128235D01*
X162180773Y-84134196D01*
X162156505Y-84137796D01*
X162132001Y-84139000D01*
X161481999Y-84139000D01*
X161457495Y-84137796D01*
X161433227Y-84134196D01*
X161409428Y-84128235D01*
X161386329Y-84119970D01*
X161364150Y-84109480D01*
X161343107Y-84096868D01*
X161323401Y-84082253D01*
X161305223Y-84065777D01*
X161288747Y-84047599D01*
X161274132Y-84027893D01*
X161261520Y-84006850D01*
X161251030Y-83984671D01*
X161242765Y-83961572D01*
X161236804Y-83937773D01*
X161233204Y-83913505D01*
X161232000Y-83889001D01*
X161232000Y-82988999D01*
X161233204Y-82964495D01*
X161236804Y-82940227D01*
X161242765Y-82916428D01*
X161251030Y-82893329D01*
X161261520Y-82871150D01*
X161274132Y-82850107D01*
X161288747Y-82830401D01*
X161305223Y-82812223D01*
X161323401Y-82795747D01*
X161343107Y-82781132D01*
X161364150Y-82768520D01*
X161386329Y-82758030D01*
X161409428Y-82749765D01*
X161433227Y-82743804D01*
X161457495Y-82740204D01*
X161481999Y-82739000D01*
X162132001Y-82739000D01*
X162156505Y-82740204D01*
G37*
G36*
X160106505Y-82740204D02*
G01*
X160130773Y-82743804D01*
X160154572Y-82749765D01*
X160177671Y-82758030D01*
X160199850Y-82768520D01*
X160220893Y-82781132D01*
X160240599Y-82795747D01*
X160258777Y-82812223D01*
X160275253Y-82830401D01*
X160289868Y-82850107D01*
X160302480Y-82871150D01*
X160312970Y-82893329D01*
X160321235Y-82916428D01*
X160327196Y-82940227D01*
X160330796Y-82964495D01*
X160332000Y-82988999D01*
X160332000Y-83889001D01*
X160330796Y-83913505D01*
X160327196Y-83937773D01*
X160321235Y-83961572D01*
X160312970Y-83984671D01*
X160302480Y-84006850D01*
X160289868Y-84027893D01*
X160275253Y-84047599D01*
X160258777Y-84065777D01*
X160240599Y-84082253D01*
X160220893Y-84096868D01*
X160199850Y-84109480D01*
X160177671Y-84119970D01*
X160154572Y-84128235D01*
X160130773Y-84134196D01*
X160106505Y-84137796D01*
X160082001Y-84139000D01*
X159431999Y-84139000D01*
X159407495Y-84137796D01*
X159383227Y-84134196D01*
X159359428Y-84128235D01*
X159336329Y-84119970D01*
X159314150Y-84109480D01*
X159293107Y-84096868D01*
X159273401Y-84082253D01*
X159255223Y-84065777D01*
X159238747Y-84047599D01*
X159224132Y-84027893D01*
X159211520Y-84006850D01*
X159201030Y-83984671D01*
X159192765Y-83961572D01*
X159186804Y-83937773D01*
X159183204Y-83913505D01*
X159182000Y-83889001D01*
X159182000Y-82988999D01*
X159183204Y-82964495D01*
X159186804Y-82940227D01*
X159192765Y-82916428D01*
X159201030Y-82893329D01*
X159211520Y-82871150D01*
X159224132Y-82850107D01*
X159238747Y-82830401D01*
X159255223Y-82812223D01*
X159273401Y-82795747D01*
X159293107Y-82781132D01*
X159314150Y-82768520D01*
X159336329Y-82758030D01*
X159359428Y-82749765D01*
X159383227Y-82743804D01*
X159407495Y-82740204D01*
X159431999Y-82739000D01*
X160082001Y-82739000D01*
X160106505Y-82740204D01*
G37*
G36*
X162156505Y-87439204D02*
G01*
X162180773Y-87442804D01*
X162204572Y-87448765D01*
X162227671Y-87457030D01*
X162249850Y-87467520D01*
X162270893Y-87480132D01*
X162290599Y-87494747D01*
X162308777Y-87511223D01*
X162325253Y-87529401D01*
X162339868Y-87549107D01*
X162352480Y-87570150D01*
X162362970Y-87592329D01*
X162371235Y-87615428D01*
X162377196Y-87639227D01*
X162380796Y-87663495D01*
X162382000Y-87687999D01*
X162382000Y-88588001D01*
X162380796Y-88612505D01*
X162377196Y-88636773D01*
X162371235Y-88660572D01*
X162362970Y-88683671D01*
X162352480Y-88705850D01*
X162339868Y-88726893D01*
X162325253Y-88746599D01*
X162308777Y-88764777D01*
X162290599Y-88781253D01*
X162270893Y-88795868D01*
X162249850Y-88808480D01*
X162227671Y-88818970D01*
X162204572Y-88827235D01*
X162180773Y-88833196D01*
X162156505Y-88836796D01*
X162132001Y-88838000D01*
X161481999Y-88838000D01*
X161457495Y-88836796D01*
X161433227Y-88833196D01*
X161409428Y-88827235D01*
X161386329Y-88818970D01*
X161364150Y-88808480D01*
X161343107Y-88795868D01*
X161323401Y-88781253D01*
X161305223Y-88764777D01*
X161288747Y-88746599D01*
X161274132Y-88726893D01*
X161261520Y-88705850D01*
X161251030Y-88683671D01*
X161242765Y-88660572D01*
X161236804Y-88636773D01*
X161233204Y-88612505D01*
X161232000Y-88588001D01*
X161232000Y-87687999D01*
X161233204Y-87663495D01*
X161236804Y-87639227D01*
X161242765Y-87615428D01*
X161251030Y-87592329D01*
X161261520Y-87570150D01*
X161274132Y-87549107D01*
X161288747Y-87529401D01*
X161305223Y-87511223D01*
X161323401Y-87494747D01*
X161343107Y-87480132D01*
X161364150Y-87467520D01*
X161386329Y-87457030D01*
X161409428Y-87448765D01*
X161433227Y-87442804D01*
X161457495Y-87439204D01*
X161481999Y-87438000D01*
X162132001Y-87438000D01*
X162156505Y-87439204D01*
G37*
G36*
X160106505Y-87439204D02*
G01*
X160130773Y-87442804D01*
X160154572Y-87448765D01*
X160177671Y-87457030D01*
X160199850Y-87467520D01*
X160220893Y-87480132D01*
X160240599Y-87494747D01*
X160258777Y-87511223D01*
X160275253Y-87529401D01*
X160289868Y-87549107D01*
X160302480Y-87570150D01*
X160312970Y-87592329D01*
X160321235Y-87615428D01*
X160327196Y-87639227D01*
X160330796Y-87663495D01*
X160332000Y-87687999D01*
X160332000Y-88588001D01*
X160330796Y-88612505D01*
X160327196Y-88636773D01*
X160321235Y-88660572D01*
X160312970Y-88683671D01*
X160302480Y-88705850D01*
X160289868Y-88726893D01*
X160275253Y-88746599D01*
X160258777Y-88764777D01*
X160240599Y-88781253D01*
X160220893Y-88795868D01*
X160199850Y-88808480D01*
X160177671Y-88818970D01*
X160154572Y-88827235D01*
X160130773Y-88833196D01*
X160106505Y-88836796D01*
X160082001Y-88838000D01*
X159431999Y-88838000D01*
X159407495Y-88836796D01*
X159383227Y-88833196D01*
X159359428Y-88827235D01*
X159336329Y-88818970D01*
X159314150Y-88808480D01*
X159293107Y-88795868D01*
X159273401Y-88781253D01*
X159255223Y-88764777D01*
X159238747Y-88746599D01*
X159224132Y-88726893D01*
X159211520Y-88705850D01*
X159201030Y-88683671D01*
X159192765Y-88660572D01*
X159186804Y-88636773D01*
X159183204Y-88612505D01*
X159182000Y-88588001D01*
X159182000Y-87687999D01*
X159183204Y-87663495D01*
X159186804Y-87639227D01*
X159192765Y-87615428D01*
X159201030Y-87592329D01*
X159211520Y-87570150D01*
X159224132Y-87549107D01*
X159238747Y-87529401D01*
X159255223Y-87511223D01*
X159273401Y-87494747D01*
X159293107Y-87480132D01*
X159314150Y-87467520D01*
X159336329Y-87457030D01*
X159359428Y-87448765D01*
X159383227Y-87442804D01*
X159407495Y-87439204D01*
X159431999Y-87438000D01*
X160082001Y-87438000D01*
X160106505Y-87439204D01*
G37*
G36*
X135722505Y-74739204D02*
G01*
X135746773Y-74742804D01*
X135770572Y-74748765D01*
X135793671Y-74757030D01*
X135815850Y-74767520D01*
X135836893Y-74780132D01*
X135856599Y-74794747D01*
X135874777Y-74811223D01*
X135891253Y-74829401D01*
X135905868Y-74849107D01*
X135918480Y-74870150D01*
X135928970Y-74892329D01*
X135937235Y-74915428D01*
X135943196Y-74939227D01*
X135946796Y-74963495D01*
X135948000Y-74987999D01*
X135948000Y-75888001D01*
X135946796Y-75912505D01*
X135943196Y-75936773D01*
X135937235Y-75960572D01*
X135928970Y-75983671D01*
X135918480Y-76005850D01*
X135905868Y-76026893D01*
X135891253Y-76046599D01*
X135874777Y-76064777D01*
X135856599Y-76081253D01*
X135836893Y-76095868D01*
X135815850Y-76108480D01*
X135793671Y-76118970D01*
X135770572Y-76127235D01*
X135746773Y-76133196D01*
X135722505Y-76136796D01*
X135698001Y-76138000D01*
X135047999Y-76138000D01*
X135023495Y-76136796D01*
X134999227Y-76133196D01*
X134975428Y-76127235D01*
X134952329Y-76118970D01*
X134930150Y-76108480D01*
X134909107Y-76095868D01*
X134889401Y-76081253D01*
X134871223Y-76064777D01*
X134854747Y-76046599D01*
X134840132Y-76026893D01*
X134827520Y-76005850D01*
X134817030Y-75983671D01*
X134808765Y-75960572D01*
X134802804Y-75936773D01*
X134799204Y-75912505D01*
X134798000Y-75888001D01*
X134798000Y-74987999D01*
X134799204Y-74963495D01*
X134802804Y-74939227D01*
X134808765Y-74915428D01*
X134817030Y-74892329D01*
X134827520Y-74870150D01*
X134840132Y-74849107D01*
X134854747Y-74829401D01*
X134871223Y-74811223D01*
X134889401Y-74794747D01*
X134909107Y-74780132D01*
X134930150Y-74767520D01*
X134952329Y-74757030D01*
X134975428Y-74748765D01*
X134999227Y-74742804D01*
X135023495Y-74739204D01*
X135047999Y-74738000D01*
X135698001Y-74738000D01*
X135722505Y-74739204D01*
G37*
G36*
X137772505Y-74739204D02*
G01*
X137796773Y-74742804D01*
X137820572Y-74748765D01*
X137843671Y-74757030D01*
X137865850Y-74767520D01*
X137886893Y-74780132D01*
X137906599Y-74794747D01*
X137924777Y-74811223D01*
X137941253Y-74829401D01*
X137955868Y-74849107D01*
X137968480Y-74870150D01*
X137978970Y-74892329D01*
X137987235Y-74915428D01*
X137993196Y-74939227D01*
X137996796Y-74963495D01*
X137998000Y-74987999D01*
X137998000Y-75888001D01*
X137996796Y-75912505D01*
X137993196Y-75936773D01*
X137987235Y-75960572D01*
X137978970Y-75983671D01*
X137968480Y-76005850D01*
X137955868Y-76026893D01*
X137941253Y-76046599D01*
X137924777Y-76064777D01*
X137906599Y-76081253D01*
X137886893Y-76095868D01*
X137865850Y-76108480D01*
X137843671Y-76118970D01*
X137820572Y-76127235D01*
X137796773Y-76133196D01*
X137772505Y-76136796D01*
X137748001Y-76138000D01*
X137097999Y-76138000D01*
X137073495Y-76136796D01*
X137049227Y-76133196D01*
X137025428Y-76127235D01*
X137002329Y-76118970D01*
X136980150Y-76108480D01*
X136959107Y-76095868D01*
X136939401Y-76081253D01*
X136921223Y-76064777D01*
X136904747Y-76046599D01*
X136890132Y-76026893D01*
X136877520Y-76005850D01*
X136867030Y-75983671D01*
X136858765Y-75960572D01*
X136852804Y-75936773D01*
X136849204Y-75912505D01*
X136848000Y-75888001D01*
X136848000Y-74987999D01*
X136849204Y-74963495D01*
X136852804Y-74939227D01*
X136858765Y-74915428D01*
X136867030Y-74892329D01*
X136877520Y-74870150D01*
X136890132Y-74849107D01*
X136904747Y-74829401D01*
X136921223Y-74811223D01*
X136939401Y-74794747D01*
X136959107Y-74780132D01*
X136980150Y-74767520D01*
X137002329Y-74757030D01*
X137025428Y-74748765D01*
X137049227Y-74742804D01*
X137073495Y-74739204D01*
X137097999Y-74738000D01*
X137748001Y-74738000D01*
X137772505Y-74739204D01*
G37*
G36*
X135722505Y-81851204D02*
G01*
X135746773Y-81854804D01*
X135770572Y-81860765D01*
X135793671Y-81869030D01*
X135815850Y-81879520D01*
X135836893Y-81892132D01*
X135856599Y-81906747D01*
X135874777Y-81923223D01*
X135891253Y-81941401D01*
X135905868Y-81961107D01*
X135918480Y-81982150D01*
X135928970Y-82004329D01*
X135937235Y-82027428D01*
X135943196Y-82051227D01*
X135946796Y-82075495D01*
X135948000Y-82099999D01*
X135948000Y-83000001D01*
X135946796Y-83024505D01*
X135943196Y-83048773D01*
X135937235Y-83072572D01*
X135928970Y-83095671D01*
X135918480Y-83117850D01*
X135905868Y-83138893D01*
X135891253Y-83158599D01*
X135874777Y-83176777D01*
X135856599Y-83193253D01*
X135836893Y-83207868D01*
X135815850Y-83220480D01*
X135793671Y-83230970D01*
X135770572Y-83239235D01*
X135746773Y-83245196D01*
X135722505Y-83248796D01*
X135698001Y-83250000D01*
X135047999Y-83250000D01*
X135023495Y-83248796D01*
X134999227Y-83245196D01*
X134975428Y-83239235D01*
X134952329Y-83230970D01*
X134930150Y-83220480D01*
X134909107Y-83207868D01*
X134889401Y-83193253D01*
X134871223Y-83176777D01*
X134854747Y-83158599D01*
X134840132Y-83138893D01*
X134827520Y-83117850D01*
X134817030Y-83095671D01*
X134808765Y-83072572D01*
X134802804Y-83048773D01*
X134799204Y-83024505D01*
X134798000Y-83000001D01*
X134798000Y-82099999D01*
X134799204Y-82075495D01*
X134802804Y-82051227D01*
X134808765Y-82027428D01*
X134817030Y-82004329D01*
X134827520Y-81982150D01*
X134840132Y-81961107D01*
X134854747Y-81941401D01*
X134871223Y-81923223D01*
X134889401Y-81906747D01*
X134909107Y-81892132D01*
X134930150Y-81879520D01*
X134952329Y-81869030D01*
X134975428Y-81860765D01*
X134999227Y-81854804D01*
X135023495Y-81851204D01*
X135047999Y-81850000D01*
X135698001Y-81850000D01*
X135722505Y-81851204D01*
G37*
G36*
X137772505Y-81851204D02*
G01*
X137796773Y-81854804D01*
X137820572Y-81860765D01*
X137843671Y-81869030D01*
X137865850Y-81879520D01*
X137886893Y-81892132D01*
X137906599Y-81906747D01*
X137924777Y-81923223D01*
X137941253Y-81941401D01*
X137955868Y-81961107D01*
X137968480Y-81982150D01*
X137978970Y-82004329D01*
X137987235Y-82027428D01*
X137993196Y-82051227D01*
X137996796Y-82075495D01*
X137998000Y-82099999D01*
X137998000Y-83000001D01*
X137996796Y-83024505D01*
X137993196Y-83048773D01*
X137987235Y-83072572D01*
X137978970Y-83095671D01*
X137968480Y-83117850D01*
X137955868Y-83138893D01*
X137941253Y-83158599D01*
X137924777Y-83176777D01*
X137906599Y-83193253D01*
X137886893Y-83207868D01*
X137865850Y-83220480D01*
X137843671Y-83230970D01*
X137820572Y-83239235D01*
X137796773Y-83245196D01*
X137772505Y-83248796D01*
X137748001Y-83250000D01*
X137097999Y-83250000D01*
X137073495Y-83248796D01*
X137049227Y-83245196D01*
X137025428Y-83239235D01*
X137002329Y-83230970D01*
X136980150Y-83220480D01*
X136959107Y-83207868D01*
X136939401Y-83193253D01*
X136921223Y-83176777D01*
X136904747Y-83158599D01*
X136890132Y-83138893D01*
X136877520Y-83117850D01*
X136867030Y-83095671D01*
X136858765Y-83072572D01*
X136852804Y-83048773D01*
X136849204Y-83024505D01*
X136848000Y-83000001D01*
X136848000Y-82099999D01*
X136849204Y-82075495D01*
X136852804Y-82051227D01*
X136858765Y-82027428D01*
X136867030Y-82004329D01*
X136877520Y-81982150D01*
X136890132Y-81961107D01*
X136904747Y-81941401D01*
X136921223Y-81923223D01*
X136939401Y-81906747D01*
X136959107Y-81892132D01*
X136980150Y-81879520D01*
X137002329Y-81869030D01*
X137025428Y-81860765D01*
X137049227Y-81854804D01*
X137073495Y-81851204D01*
X137097999Y-81850000D01*
X137748001Y-81850000D01*
X137772505Y-81851204D01*
G37*
G36*
X142852505Y-89725204D02*
G01*
X142876773Y-89728804D01*
X142900572Y-89734765D01*
X142923671Y-89743030D01*
X142945850Y-89753520D01*
X142966893Y-89766132D01*
X142986599Y-89780747D01*
X143004777Y-89797223D01*
X143021253Y-89815401D01*
X143035868Y-89835107D01*
X143048480Y-89856150D01*
X143058970Y-89878329D01*
X143067235Y-89901428D01*
X143073196Y-89925227D01*
X143076796Y-89949495D01*
X143078000Y-89973999D01*
X143078000Y-90874001D01*
X143076796Y-90898505D01*
X143073196Y-90922773D01*
X143067235Y-90946572D01*
X143058970Y-90969671D01*
X143048480Y-90991850D01*
X143035868Y-91012893D01*
X143021253Y-91032599D01*
X143004777Y-91050777D01*
X142986599Y-91067253D01*
X142966893Y-91081868D01*
X142945850Y-91094480D01*
X142923671Y-91104970D01*
X142900572Y-91113235D01*
X142876773Y-91119196D01*
X142852505Y-91122796D01*
X142828001Y-91124000D01*
X142177999Y-91124000D01*
X142153495Y-91122796D01*
X142129227Y-91119196D01*
X142105428Y-91113235D01*
X142082329Y-91104970D01*
X142060150Y-91094480D01*
X142039107Y-91081868D01*
X142019401Y-91067253D01*
X142001223Y-91050777D01*
X141984747Y-91032599D01*
X141970132Y-91012893D01*
X141957520Y-90991850D01*
X141947030Y-90969671D01*
X141938765Y-90946572D01*
X141932804Y-90922773D01*
X141929204Y-90898505D01*
X141928000Y-90874001D01*
X141928000Y-89973999D01*
X141929204Y-89949495D01*
X141932804Y-89925227D01*
X141938765Y-89901428D01*
X141947030Y-89878329D01*
X141957520Y-89856150D01*
X141970132Y-89835107D01*
X141984747Y-89815401D01*
X142001223Y-89797223D01*
X142019401Y-89780747D01*
X142039107Y-89766132D01*
X142060150Y-89753520D01*
X142082329Y-89743030D01*
X142105428Y-89734765D01*
X142129227Y-89728804D01*
X142153495Y-89725204D01*
X142177999Y-89724000D01*
X142828001Y-89724000D01*
X142852505Y-89725204D01*
G37*
G36*
X140802505Y-89725204D02*
G01*
X140826773Y-89728804D01*
X140850572Y-89734765D01*
X140873671Y-89743030D01*
X140895850Y-89753520D01*
X140916893Y-89766132D01*
X140936599Y-89780747D01*
X140954777Y-89797223D01*
X140971253Y-89815401D01*
X140985868Y-89835107D01*
X140998480Y-89856150D01*
X141008970Y-89878329D01*
X141017235Y-89901428D01*
X141023196Y-89925227D01*
X141026796Y-89949495D01*
X141028000Y-89973999D01*
X141028000Y-90874001D01*
X141026796Y-90898505D01*
X141023196Y-90922773D01*
X141017235Y-90946572D01*
X141008970Y-90969671D01*
X140998480Y-90991850D01*
X140985868Y-91012893D01*
X140971253Y-91032599D01*
X140954777Y-91050777D01*
X140936599Y-91067253D01*
X140916893Y-91081868D01*
X140895850Y-91094480D01*
X140873671Y-91104970D01*
X140850572Y-91113235D01*
X140826773Y-91119196D01*
X140802505Y-91122796D01*
X140778001Y-91124000D01*
X140127999Y-91124000D01*
X140103495Y-91122796D01*
X140079227Y-91119196D01*
X140055428Y-91113235D01*
X140032329Y-91104970D01*
X140010150Y-91094480D01*
X139989107Y-91081868D01*
X139969401Y-91067253D01*
X139951223Y-91050777D01*
X139934747Y-91032599D01*
X139920132Y-91012893D01*
X139907520Y-90991850D01*
X139897030Y-90969671D01*
X139888765Y-90946572D01*
X139882804Y-90922773D01*
X139879204Y-90898505D01*
X139878000Y-90874001D01*
X139878000Y-89973999D01*
X139879204Y-89949495D01*
X139882804Y-89925227D01*
X139888765Y-89901428D01*
X139897030Y-89878329D01*
X139907520Y-89856150D01*
X139920132Y-89835107D01*
X139934747Y-89815401D01*
X139951223Y-89797223D01*
X139969401Y-89780747D01*
X139989107Y-89766132D01*
X140010150Y-89753520D01*
X140032329Y-89743030D01*
X140055428Y-89734765D01*
X140079227Y-89728804D01*
X140103495Y-89725204D01*
X140127999Y-89724000D01*
X140778001Y-89724000D01*
X140802505Y-89725204D01*
G37*
D18*
X146518600Y-124968400D03*
X151118600Y-124968400D03*
X148818600Y-124968400D03*
D19*
X148818600Y-118668400D03*
D10*
G36*
X163477305Y-113169404D02*
G01*
X163501573Y-113173004D01*
X163525372Y-113178965D01*
X163548471Y-113187230D01*
X163570650Y-113197720D01*
X163591693Y-113210332D01*
X163611399Y-113224947D01*
X163629577Y-113241423D01*
X163646053Y-113259601D01*
X163660668Y-113279307D01*
X163673280Y-113300350D01*
X163683770Y-113322529D01*
X163692035Y-113345628D01*
X163697996Y-113369427D01*
X163701596Y-113393695D01*
X163702800Y-113418199D01*
X163702800Y-114318201D01*
X163701596Y-114342705D01*
X163697996Y-114366973D01*
X163692035Y-114390772D01*
X163683770Y-114413871D01*
X163673280Y-114436050D01*
X163660668Y-114457093D01*
X163646053Y-114476799D01*
X163629577Y-114494977D01*
X163611399Y-114511453D01*
X163591693Y-114526068D01*
X163570650Y-114538680D01*
X163548471Y-114549170D01*
X163525372Y-114557435D01*
X163501573Y-114563396D01*
X163477305Y-114566996D01*
X163452801Y-114568200D01*
X162802799Y-114568200D01*
X162778295Y-114566996D01*
X162754027Y-114563396D01*
X162730228Y-114557435D01*
X162707129Y-114549170D01*
X162684950Y-114538680D01*
X162663907Y-114526068D01*
X162644201Y-114511453D01*
X162626023Y-114494977D01*
X162609547Y-114476799D01*
X162594932Y-114457093D01*
X162582320Y-114436050D01*
X162571830Y-114413871D01*
X162563565Y-114390772D01*
X162557604Y-114366973D01*
X162554004Y-114342705D01*
X162552800Y-114318201D01*
X162552800Y-113418199D01*
X162554004Y-113393695D01*
X162557604Y-113369427D01*
X162563565Y-113345628D01*
X162571830Y-113322529D01*
X162582320Y-113300350D01*
X162594932Y-113279307D01*
X162609547Y-113259601D01*
X162626023Y-113241423D01*
X162644201Y-113224947D01*
X162663907Y-113210332D01*
X162684950Y-113197720D01*
X162707129Y-113187230D01*
X162730228Y-113178965D01*
X162754027Y-113173004D01*
X162778295Y-113169404D01*
X162802799Y-113168200D01*
X163452801Y-113168200D01*
X163477305Y-113169404D01*
G37*
G36*
X161427305Y-113169404D02*
G01*
X161451573Y-113173004D01*
X161475372Y-113178965D01*
X161498471Y-113187230D01*
X161520650Y-113197720D01*
X161541693Y-113210332D01*
X161561399Y-113224947D01*
X161579577Y-113241423D01*
X161596053Y-113259601D01*
X161610668Y-113279307D01*
X161623280Y-113300350D01*
X161633770Y-113322529D01*
X161642035Y-113345628D01*
X161647996Y-113369427D01*
X161651596Y-113393695D01*
X161652800Y-113418199D01*
X161652800Y-114318201D01*
X161651596Y-114342705D01*
X161647996Y-114366973D01*
X161642035Y-114390772D01*
X161633770Y-114413871D01*
X161623280Y-114436050D01*
X161610668Y-114457093D01*
X161596053Y-114476799D01*
X161579577Y-114494977D01*
X161561399Y-114511453D01*
X161541693Y-114526068D01*
X161520650Y-114538680D01*
X161498471Y-114549170D01*
X161475372Y-114557435D01*
X161451573Y-114563396D01*
X161427305Y-114566996D01*
X161402801Y-114568200D01*
X160752799Y-114568200D01*
X160728295Y-114566996D01*
X160704027Y-114563396D01*
X160680228Y-114557435D01*
X160657129Y-114549170D01*
X160634950Y-114538680D01*
X160613907Y-114526068D01*
X160594201Y-114511453D01*
X160576023Y-114494977D01*
X160559547Y-114476799D01*
X160544932Y-114457093D01*
X160532320Y-114436050D01*
X160521830Y-114413871D01*
X160513565Y-114390772D01*
X160507604Y-114366973D01*
X160504004Y-114342705D01*
X160502800Y-114318201D01*
X160502800Y-113418199D01*
X160504004Y-113393695D01*
X160507604Y-113369427D01*
X160513565Y-113345628D01*
X160521830Y-113322529D01*
X160532320Y-113300350D01*
X160544932Y-113279307D01*
X160559547Y-113259601D01*
X160576023Y-113241423D01*
X160594201Y-113224947D01*
X160613907Y-113210332D01*
X160634950Y-113197720D01*
X160657129Y-113187230D01*
X160680228Y-113178965D01*
X160704027Y-113173004D01*
X160728295Y-113169404D01*
X160752799Y-113168200D01*
X161402801Y-113168200D01*
X161427305Y-113169404D01*
G37*
G36*
X154975705Y-111213604D02*
G01*
X154999973Y-111217204D01*
X155023772Y-111223165D01*
X155046871Y-111231430D01*
X155069050Y-111241920D01*
X155090093Y-111254532D01*
X155109799Y-111269147D01*
X155127977Y-111285623D01*
X155144453Y-111303801D01*
X155159068Y-111323507D01*
X155171680Y-111344550D01*
X155182170Y-111366729D01*
X155190435Y-111389828D01*
X155196396Y-111413627D01*
X155199996Y-111437895D01*
X155201200Y-111462399D01*
X155201200Y-112362401D01*
X155199996Y-112386905D01*
X155196396Y-112411173D01*
X155190435Y-112434972D01*
X155182170Y-112458071D01*
X155171680Y-112480250D01*
X155159068Y-112501293D01*
X155144453Y-112520999D01*
X155127977Y-112539177D01*
X155109799Y-112555653D01*
X155090093Y-112570268D01*
X155069050Y-112582880D01*
X155046871Y-112593370D01*
X155023772Y-112601635D01*
X154999973Y-112607596D01*
X154975705Y-112611196D01*
X154951201Y-112612400D01*
X154301199Y-112612400D01*
X154276695Y-112611196D01*
X154252427Y-112607596D01*
X154228628Y-112601635D01*
X154205529Y-112593370D01*
X154183350Y-112582880D01*
X154162307Y-112570268D01*
X154142601Y-112555653D01*
X154124423Y-112539177D01*
X154107947Y-112520999D01*
X154093332Y-112501293D01*
X154080720Y-112480250D01*
X154070230Y-112458071D01*
X154061965Y-112434972D01*
X154056004Y-112411173D01*
X154052404Y-112386905D01*
X154051200Y-112362401D01*
X154051200Y-111462399D01*
X154052404Y-111437895D01*
X154056004Y-111413627D01*
X154061965Y-111389828D01*
X154070230Y-111366729D01*
X154080720Y-111344550D01*
X154093332Y-111323507D01*
X154107947Y-111303801D01*
X154124423Y-111285623D01*
X154142601Y-111269147D01*
X154162307Y-111254532D01*
X154183350Y-111241920D01*
X154205529Y-111231430D01*
X154228628Y-111223165D01*
X154252427Y-111217204D01*
X154276695Y-111213604D01*
X154301199Y-111212400D01*
X154951201Y-111212400D01*
X154975705Y-111213604D01*
G37*
G36*
X157025705Y-111213604D02*
G01*
X157049973Y-111217204D01*
X157073772Y-111223165D01*
X157096871Y-111231430D01*
X157119050Y-111241920D01*
X157140093Y-111254532D01*
X157159799Y-111269147D01*
X157177977Y-111285623D01*
X157194453Y-111303801D01*
X157209068Y-111323507D01*
X157221680Y-111344550D01*
X157232170Y-111366729D01*
X157240435Y-111389828D01*
X157246396Y-111413627D01*
X157249996Y-111437895D01*
X157251200Y-111462399D01*
X157251200Y-112362401D01*
X157249996Y-112386905D01*
X157246396Y-112411173D01*
X157240435Y-112434972D01*
X157232170Y-112458071D01*
X157221680Y-112480250D01*
X157209068Y-112501293D01*
X157194453Y-112520999D01*
X157177977Y-112539177D01*
X157159799Y-112555653D01*
X157140093Y-112570268D01*
X157119050Y-112582880D01*
X157096871Y-112593370D01*
X157073772Y-112601635D01*
X157049973Y-112607596D01*
X157025705Y-112611196D01*
X157001201Y-112612400D01*
X156351199Y-112612400D01*
X156326695Y-112611196D01*
X156302427Y-112607596D01*
X156278628Y-112601635D01*
X156255529Y-112593370D01*
X156233350Y-112582880D01*
X156212307Y-112570268D01*
X156192601Y-112555653D01*
X156174423Y-112539177D01*
X156157947Y-112520999D01*
X156143332Y-112501293D01*
X156130720Y-112480250D01*
X156120230Y-112458071D01*
X156111965Y-112434972D01*
X156106004Y-112411173D01*
X156102404Y-112386905D01*
X156101200Y-112362401D01*
X156101200Y-111462399D01*
X156102404Y-111437895D01*
X156106004Y-111413627D01*
X156111965Y-111389828D01*
X156120230Y-111366729D01*
X156130720Y-111344550D01*
X156143332Y-111323507D01*
X156157947Y-111303801D01*
X156174423Y-111285623D01*
X156192601Y-111269147D01*
X156212307Y-111254532D01*
X156233350Y-111241920D01*
X156255529Y-111231430D01*
X156278628Y-111223165D01*
X156302427Y-111217204D01*
X156326695Y-111213604D01*
X156351199Y-111212400D01*
X157001201Y-111212400D01*
X157025705Y-111213604D01*
G37*
G36*
X141546105Y-124174604D02*
G01*
X141570373Y-124178204D01*
X141594172Y-124184165D01*
X141617271Y-124192430D01*
X141639450Y-124202920D01*
X141660493Y-124215532D01*
X141680199Y-124230147D01*
X141698377Y-124246623D01*
X141714853Y-124264801D01*
X141729468Y-124284507D01*
X141742080Y-124305550D01*
X141752570Y-124327729D01*
X141760835Y-124350828D01*
X141766796Y-124374627D01*
X141770396Y-124398895D01*
X141771600Y-124423399D01*
X141771600Y-125073401D01*
X141770396Y-125097905D01*
X141766796Y-125122173D01*
X141760835Y-125145972D01*
X141752570Y-125169071D01*
X141742080Y-125191250D01*
X141729468Y-125212293D01*
X141714853Y-125231999D01*
X141698377Y-125250177D01*
X141680199Y-125266653D01*
X141660493Y-125281268D01*
X141639450Y-125293880D01*
X141617271Y-125304370D01*
X141594172Y-125312635D01*
X141570373Y-125318596D01*
X141546105Y-125322196D01*
X141521601Y-125323400D01*
X140621599Y-125323400D01*
X140597095Y-125322196D01*
X140572827Y-125318596D01*
X140549028Y-125312635D01*
X140525929Y-125304370D01*
X140503750Y-125293880D01*
X140482707Y-125281268D01*
X140463001Y-125266653D01*
X140444823Y-125250177D01*
X140428347Y-125231999D01*
X140413732Y-125212293D01*
X140401120Y-125191250D01*
X140390630Y-125169071D01*
X140382365Y-125145972D01*
X140376404Y-125122173D01*
X140372804Y-125097905D01*
X140371600Y-125073401D01*
X140371600Y-124423399D01*
X140372804Y-124398895D01*
X140376404Y-124374627D01*
X140382365Y-124350828D01*
X140390630Y-124327729D01*
X140401120Y-124305550D01*
X140413732Y-124284507D01*
X140428347Y-124264801D01*
X140444823Y-124246623D01*
X140463001Y-124230147D01*
X140482707Y-124215532D01*
X140503750Y-124202920D01*
X140525929Y-124192430D01*
X140549028Y-124184165D01*
X140572827Y-124178204D01*
X140597095Y-124174604D01*
X140621599Y-124173400D01*
X141521601Y-124173400D01*
X141546105Y-124174604D01*
G37*
G36*
X141546105Y-122124604D02*
G01*
X141570373Y-122128204D01*
X141594172Y-122134165D01*
X141617271Y-122142430D01*
X141639450Y-122152920D01*
X141660493Y-122165532D01*
X141680199Y-122180147D01*
X141698377Y-122196623D01*
X141714853Y-122214801D01*
X141729468Y-122234507D01*
X141742080Y-122255550D01*
X141752570Y-122277729D01*
X141760835Y-122300828D01*
X141766796Y-122324627D01*
X141770396Y-122348895D01*
X141771600Y-122373399D01*
X141771600Y-123023401D01*
X141770396Y-123047905D01*
X141766796Y-123072173D01*
X141760835Y-123095972D01*
X141752570Y-123119071D01*
X141742080Y-123141250D01*
X141729468Y-123162293D01*
X141714853Y-123181999D01*
X141698377Y-123200177D01*
X141680199Y-123216653D01*
X141660493Y-123231268D01*
X141639450Y-123243880D01*
X141617271Y-123254370D01*
X141594172Y-123262635D01*
X141570373Y-123268596D01*
X141546105Y-123272196D01*
X141521601Y-123273400D01*
X140621599Y-123273400D01*
X140597095Y-123272196D01*
X140572827Y-123268596D01*
X140549028Y-123262635D01*
X140525929Y-123254370D01*
X140503750Y-123243880D01*
X140482707Y-123231268D01*
X140463001Y-123216653D01*
X140444823Y-123200177D01*
X140428347Y-123181999D01*
X140413732Y-123162293D01*
X140401120Y-123141250D01*
X140390630Y-123119071D01*
X140382365Y-123095972D01*
X140376404Y-123072173D01*
X140372804Y-123047905D01*
X140371600Y-123023401D01*
X140371600Y-122373399D01*
X140372804Y-122348895D01*
X140376404Y-122324627D01*
X140382365Y-122300828D01*
X140390630Y-122277729D01*
X140401120Y-122255550D01*
X140413732Y-122234507D01*
X140428347Y-122214801D01*
X140444823Y-122196623D01*
X140463001Y-122180147D01*
X140482707Y-122165532D01*
X140503750Y-122152920D01*
X140525929Y-122142430D01*
X140549028Y-122134165D01*
X140572827Y-122128204D01*
X140597095Y-122124604D01*
X140621599Y-122123400D01*
X141521601Y-122123400D01*
X141546105Y-122124604D01*
G37*
G36*
X136720105Y-124174604D02*
G01*
X136744373Y-124178204D01*
X136768172Y-124184165D01*
X136791271Y-124192430D01*
X136813450Y-124202920D01*
X136834493Y-124215532D01*
X136854199Y-124230147D01*
X136872377Y-124246623D01*
X136888853Y-124264801D01*
X136903468Y-124284507D01*
X136916080Y-124305550D01*
X136926570Y-124327729D01*
X136934835Y-124350828D01*
X136940796Y-124374627D01*
X136944396Y-124398895D01*
X136945600Y-124423399D01*
X136945600Y-125073401D01*
X136944396Y-125097905D01*
X136940796Y-125122173D01*
X136934835Y-125145972D01*
X136926570Y-125169071D01*
X136916080Y-125191250D01*
X136903468Y-125212293D01*
X136888853Y-125231999D01*
X136872377Y-125250177D01*
X136854199Y-125266653D01*
X136834493Y-125281268D01*
X136813450Y-125293880D01*
X136791271Y-125304370D01*
X136768172Y-125312635D01*
X136744373Y-125318596D01*
X136720105Y-125322196D01*
X136695601Y-125323400D01*
X135795599Y-125323400D01*
X135771095Y-125322196D01*
X135746827Y-125318596D01*
X135723028Y-125312635D01*
X135699929Y-125304370D01*
X135677750Y-125293880D01*
X135656707Y-125281268D01*
X135637001Y-125266653D01*
X135618823Y-125250177D01*
X135602347Y-125231999D01*
X135587732Y-125212293D01*
X135575120Y-125191250D01*
X135564630Y-125169071D01*
X135556365Y-125145972D01*
X135550404Y-125122173D01*
X135546804Y-125097905D01*
X135545600Y-125073401D01*
X135545600Y-124423399D01*
X135546804Y-124398895D01*
X135550404Y-124374627D01*
X135556365Y-124350828D01*
X135564630Y-124327729D01*
X135575120Y-124305550D01*
X135587732Y-124284507D01*
X135602347Y-124264801D01*
X135618823Y-124246623D01*
X135637001Y-124230147D01*
X135656707Y-124215532D01*
X135677750Y-124202920D01*
X135699929Y-124192430D01*
X135723028Y-124184165D01*
X135746827Y-124178204D01*
X135771095Y-124174604D01*
X135795599Y-124173400D01*
X136695601Y-124173400D01*
X136720105Y-124174604D01*
G37*
G36*
X136720105Y-122124604D02*
G01*
X136744373Y-122128204D01*
X136768172Y-122134165D01*
X136791271Y-122142430D01*
X136813450Y-122152920D01*
X136834493Y-122165532D01*
X136854199Y-122180147D01*
X136872377Y-122196623D01*
X136888853Y-122214801D01*
X136903468Y-122234507D01*
X136916080Y-122255550D01*
X136926570Y-122277729D01*
X136934835Y-122300828D01*
X136940796Y-122324627D01*
X136944396Y-122348895D01*
X136945600Y-122373399D01*
X136945600Y-123023401D01*
X136944396Y-123047905D01*
X136940796Y-123072173D01*
X136934835Y-123095972D01*
X136926570Y-123119071D01*
X136916080Y-123141250D01*
X136903468Y-123162293D01*
X136888853Y-123181999D01*
X136872377Y-123200177D01*
X136854199Y-123216653D01*
X136834493Y-123231268D01*
X136813450Y-123243880D01*
X136791271Y-123254370D01*
X136768172Y-123262635D01*
X136744373Y-123268596D01*
X136720105Y-123272196D01*
X136695601Y-123273400D01*
X135795599Y-123273400D01*
X135771095Y-123272196D01*
X135746827Y-123268596D01*
X135723028Y-123262635D01*
X135699929Y-123254370D01*
X135677750Y-123243880D01*
X135656707Y-123231268D01*
X135637001Y-123216653D01*
X135618823Y-123200177D01*
X135602347Y-123181999D01*
X135587732Y-123162293D01*
X135575120Y-123141250D01*
X135564630Y-123119071D01*
X135556365Y-123095972D01*
X135550404Y-123072173D01*
X135546804Y-123047905D01*
X135545600Y-123023401D01*
X135545600Y-122373399D01*
X135546804Y-122348895D01*
X135550404Y-122324627D01*
X135556365Y-122300828D01*
X135564630Y-122277729D01*
X135575120Y-122255550D01*
X135587732Y-122234507D01*
X135602347Y-122214801D01*
X135618823Y-122196623D01*
X135637001Y-122180147D01*
X135656707Y-122165532D01*
X135677750Y-122152920D01*
X135699929Y-122142430D01*
X135723028Y-122134165D01*
X135746827Y-122128204D01*
X135771095Y-122124604D01*
X135795599Y-122123400D01*
X136695601Y-122123400D01*
X136720105Y-122124604D01*
G37*
G36*
X160850105Y-124174604D02*
G01*
X160874373Y-124178204D01*
X160898172Y-124184165D01*
X160921271Y-124192430D01*
X160943450Y-124202920D01*
X160964493Y-124215532D01*
X160984199Y-124230147D01*
X161002377Y-124246623D01*
X161018853Y-124264801D01*
X161033468Y-124284507D01*
X161046080Y-124305550D01*
X161056570Y-124327729D01*
X161064835Y-124350828D01*
X161070796Y-124374627D01*
X161074396Y-124398895D01*
X161075600Y-124423399D01*
X161075600Y-125073401D01*
X161074396Y-125097905D01*
X161070796Y-125122173D01*
X161064835Y-125145972D01*
X161056570Y-125169071D01*
X161046080Y-125191250D01*
X161033468Y-125212293D01*
X161018853Y-125231999D01*
X161002377Y-125250177D01*
X160984199Y-125266653D01*
X160964493Y-125281268D01*
X160943450Y-125293880D01*
X160921271Y-125304370D01*
X160898172Y-125312635D01*
X160874373Y-125318596D01*
X160850105Y-125322196D01*
X160825601Y-125323400D01*
X159925599Y-125323400D01*
X159901095Y-125322196D01*
X159876827Y-125318596D01*
X159853028Y-125312635D01*
X159829929Y-125304370D01*
X159807750Y-125293880D01*
X159786707Y-125281268D01*
X159767001Y-125266653D01*
X159748823Y-125250177D01*
X159732347Y-125231999D01*
X159717732Y-125212293D01*
X159705120Y-125191250D01*
X159694630Y-125169071D01*
X159686365Y-125145972D01*
X159680404Y-125122173D01*
X159676804Y-125097905D01*
X159675600Y-125073401D01*
X159675600Y-124423399D01*
X159676804Y-124398895D01*
X159680404Y-124374627D01*
X159686365Y-124350828D01*
X159694630Y-124327729D01*
X159705120Y-124305550D01*
X159717732Y-124284507D01*
X159732347Y-124264801D01*
X159748823Y-124246623D01*
X159767001Y-124230147D01*
X159786707Y-124215532D01*
X159807750Y-124202920D01*
X159829929Y-124192430D01*
X159853028Y-124184165D01*
X159876827Y-124178204D01*
X159901095Y-124174604D01*
X159925599Y-124173400D01*
X160825601Y-124173400D01*
X160850105Y-124174604D01*
G37*
G36*
X160850105Y-122124604D02*
G01*
X160874373Y-122128204D01*
X160898172Y-122134165D01*
X160921271Y-122142430D01*
X160943450Y-122152920D01*
X160964493Y-122165532D01*
X160984199Y-122180147D01*
X161002377Y-122196623D01*
X161018853Y-122214801D01*
X161033468Y-122234507D01*
X161046080Y-122255550D01*
X161056570Y-122277729D01*
X161064835Y-122300828D01*
X161070796Y-122324627D01*
X161074396Y-122348895D01*
X161075600Y-122373399D01*
X161075600Y-123023401D01*
X161074396Y-123047905D01*
X161070796Y-123072173D01*
X161064835Y-123095972D01*
X161056570Y-123119071D01*
X161046080Y-123141250D01*
X161033468Y-123162293D01*
X161018853Y-123181999D01*
X161002377Y-123200177D01*
X160984199Y-123216653D01*
X160964493Y-123231268D01*
X160943450Y-123243880D01*
X160921271Y-123254370D01*
X160898172Y-123262635D01*
X160874373Y-123268596D01*
X160850105Y-123272196D01*
X160825601Y-123273400D01*
X159925599Y-123273400D01*
X159901095Y-123272196D01*
X159876827Y-123268596D01*
X159853028Y-123262635D01*
X159829929Y-123254370D01*
X159807750Y-123243880D01*
X159786707Y-123231268D01*
X159767001Y-123216653D01*
X159748823Y-123200177D01*
X159732347Y-123181999D01*
X159717732Y-123162293D01*
X159705120Y-123141250D01*
X159694630Y-123119071D01*
X159686365Y-123095972D01*
X159680404Y-123072173D01*
X159676804Y-123047905D01*
X159675600Y-123023401D01*
X159675600Y-122373399D01*
X159676804Y-122348895D01*
X159680404Y-122324627D01*
X159686365Y-122300828D01*
X159694630Y-122277729D01*
X159705120Y-122255550D01*
X159717732Y-122234507D01*
X159732347Y-122214801D01*
X159748823Y-122196623D01*
X159767001Y-122180147D01*
X159786707Y-122165532D01*
X159807750Y-122152920D01*
X159829929Y-122142430D01*
X159853028Y-122134165D01*
X159876827Y-122128204D01*
X159901095Y-122124604D01*
X159925599Y-122123400D01*
X160825601Y-122123400D01*
X160850105Y-122124604D01*
G37*
G36*
X155897105Y-124165604D02*
G01*
X155921373Y-124169204D01*
X155945172Y-124175165D01*
X155968271Y-124183430D01*
X155990450Y-124193920D01*
X156011493Y-124206532D01*
X156031199Y-124221147D01*
X156049377Y-124237623D01*
X156065853Y-124255801D01*
X156080468Y-124275507D01*
X156093080Y-124296550D01*
X156103570Y-124318729D01*
X156111835Y-124341828D01*
X156117796Y-124365627D01*
X156121396Y-124389895D01*
X156122600Y-124414399D01*
X156122600Y-125064401D01*
X156121396Y-125088905D01*
X156117796Y-125113173D01*
X156111835Y-125136972D01*
X156103570Y-125160071D01*
X156093080Y-125182250D01*
X156080468Y-125203293D01*
X156065853Y-125222999D01*
X156049377Y-125241177D01*
X156031199Y-125257653D01*
X156011493Y-125272268D01*
X155990450Y-125284880D01*
X155968271Y-125295370D01*
X155945172Y-125303635D01*
X155921373Y-125309596D01*
X155897105Y-125313196D01*
X155872601Y-125314400D01*
X154972599Y-125314400D01*
X154948095Y-125313196D01*
X154923827Y-125309596D01*
X154900028Y-125303635D01*
X154876929Y-125295370D01*
X154854750Y-125284880D01*
X154833707Y-125272268D01*
X154814001Y-125257653D01*
X154795823Y-125241177D01*
X154779347Y-125222999D01*
X154764732Y-125203293D01*
X154752120Y-125182250D01*
X154741630Y-125160071D01*
X154733365Y-125136972D01*
X154727404Y-125113173D01*
X154723804Y-125088905D01*
X154722600Y-125064401D01*
X154722600Y-124414399D01*
X154723804Y-124389895D01*
X154727404Y-124365627D01*
X154733365Y-124341828D01*
X154741630Y-124318729D01*
X154752120Y-124296550D01*
X154764732Y-124275507D01*
X154779347Y-124255801D01*
X154795823Y-124237623D01*
X154814001Y-124221147D01*
X154833707Y-124206532D01*
X154854750Y-124193920D01*
X154876929Y-124183430D01*
X154900028Y-124175165D01*
X154923827Y-124169204D01*
X154948095Y-124165604D01*
X154972599Y-124164400D01*
X155872601Y-124164400D01*
X155897105Y-124165604D01*
G37*
G36*
X155897105Y-122115604D02*
G01*
X155921373Y-122119204D01*
X155945172Y-122125165D01*
X155968271Y-122133430D01*
X155990450Y-122143920D01*
X156011493Y-122156532D01*
X156031199Y-122171147D01*
X156049377Y-122187623D01*
X156065853Y-122205801D01*
X156080468Y-122225507D01*
X156093080Y-122246550D01*
X156103570Y-122268729D01*
X156111835Y-122291828D01*
X156117796Y-122315627D01*
X156121396Y-122339895D01*
X156122600Y-122364399D01*
X156122600Y-123014401D01*
X156121396Y-123038905D01*
X156117796Y-123063173D01*
X156111835Y-123086972D01*
X156103570Y-123110071D01*
X156093080Y-123132250D01*
X156080468Y-123153293D01*
X156065853Y-123172999D01*
X156049377Y-123191177D01*
X156031199Y-123207653D01*
X156011493Y-123222268D01*
X155990450Y-123234880D01*
X155968271Y-123245370D01*
X155945172Y-123253635D01*
X155921373Y-123259596D01*
X155897105Y-123263196D01*
X155872601Y-123264400D01*
X154972599Y-123264400D01*
X154948095Y-123263196D01*
X154923827Y-123259596D01*
X154900028Y-123253635D01*
X154876929Y-123245370D01*
X154854750Y-123234880D01*
X154833707Y-123222268D01*
X154814001Y-123207653D01*
X154795823Y-123191177D01*
X154779347Y-123172999D01*
X154764732Y-123153293D01*
X154752120Y-123132250D01*
X154741630Y-123110071D01*
X154733365Y-123086972D01*
X154727404Y-123063173D01*
X154723804Y-123038905D01*
X154722600Y-123014401D01*
X154722600Y-122364399D01*
X154723804Y-122339895D01*
X154727404Y-122315627D01*
X154733365Y-122291828D01*
X154741630Y-122268729D01*
X154752120Y-122246550D01*
X154764732Y-122225507D01*
X154779347Y-122205801D01*
X154795823Y-122187623D01*
X154814001Y-122171147D01*
X154833707Y-122156532D01*
X154854750Y-122143920D01*
X154876929Y-122133430D01*
X154900028Y-122125165D01*
X154923827Y-122119204D01*
X154948095Y-122115604D01*
X154972599Y-122114400D01*
X155872601Y-122114400D01*
X155897105Y-122115604D01*
G37*
M02*
