M48
; DRILL file {KiCad (5.1.5-0)} date 2020 October 30, Friday 11:29:42
; FORMAT={-:-/ absolute / inch / decimal}
; #@! TF.CreationDate,2020-10-30T11:29:42+01:00
; #@! TF.GenerationSoftware,Kicad,Pcbnew,(5.1.5-0)
; #@! TF.FileFunction,Plated,1,2,PTH
FMAT,2
INCH
T1C0.0118
T2C0.0157
T3C0.0217
T4C0.0335
T5C0.0354
T6C0.0394
T7C0.1260
%
G90
G05
T1
X4.9009Y-4.2947
X4.91Y-3.2126
X4.911Y-2.9336
X4.912Y-3.4946
X4.912Y-3.7746
X4.913Y-2.6633
X4.915Y-4.0586
X4.917Y-4.6186
X4.9251Y-4.2754
X4.9562Y-4.2555
X4.963Y-4.3635
X4.9755Y-4.2332
X4.9948Y-4.2095
X5.0142Y-4.2342
X5.113Y-3.742
X5.1934Y-3.921
X5.2336Y-4.2375
X5.2552Y-3.875
X5.362Y-3.698
X5.362Y-3.7985
X5.397Y-5.151
X5.4104Y-2.97
X5.4163Y-3.02
X5.4163Y-3.254
X5.4356Y-3.098
X5.4356Y-4.8575
X5.4868Y-3.8496
X5.487Y-4.271
X5.617Y-3.8245
X5.6176Y-3.924
X5.6196Y-3.745
X5.7025Y-3.9265
X5.7391Y-4.3069
X5.7395Y-3.334
X5.7407Y-4.0926
X5.7585Y-4.2682
X5.7595Y-3.2565
X5.7605Y-4.1133
X5.7785Y-4.3385
X5.7816Y-4.1327
X5.7825Y-3.176
X5.8Y-4.2416
X5.8027Y-4.152
X5.805Y-3.0985
X5.825Y-2.941
X5.83Y-3.9275
X5.8305Y-4.1615
X5.859Y-4.2803
X5.8591Y-4.1631
X5.86Y-3.254
X5.8875Y-4.186
X5.8875Y-4.261
X5.888Y-3.0185
X5.9079Y-4.4
X5.9868Y-4.313
X6.0305Y-4.2343
X6.0305Y-4.4365
X6.0341Y-4.2033
X6.036Y-3.6995
X6.0498Y-4.2885
X6.0555Y-4.4504
X6.1492Y-2.8622
X6.2326Y-5.1504
X6.233Y-3.177
X6.3199Y-4.2427
X6.341Y-4.262
X6.341Y-4.4005
X6.3442Y-3.336
X6.3442Y-3.47
X6.421Y-4.4005
X6.422Y-4.313
X6.425Y-4.4805
X6.47Y-3.509
X6.471Y-2.79
X6.5105Y-3.2325
X6.5105Y-4.1148
X6.5392Y-4.1048
X6.54Y-3.4515
X6.5678Y-4.0948
X6.5771Y-3.78
X6.5964Y-4.0848
X6.6811Y-4.0218
X6.6921Y-4.0482
X6.7082Y-4.0719
X6.7902Y-4.0804
T2
X4.786Y-4.831
X4.916Y-4.831
X4.916Y-5.181
X5.3296Y-2.97
X5.3296Y-3.25
X5.33Y-3.416
X5.3301Y-3.9512
X5.3307Y-3.8245
X5.363Y-4.476
X5.3636Y-4.031
X5.364Y-4.8306
X5.3656Y-4.551
X5.529Y-3.56
X5.5508Y-3.4134
X5.5945Y-4.2455
X5.5945Y-4.473
X5.701Y-3.605
X5.703Y-3.745
X5.96Y-3.336
X5.961Y-3.587
X6.0793Y-3.419
X6.086Y-3.684
X6.0876Y-4.406
X6.088Y-4.009
X6.088Y-4.259
X6.089Y-4.672
X6.3704Y-3.285
X6.3707Y-3.095
X6.371Y-3.683
T5
X4.685Y-3.535
X4.785Y-3.535
X4.685Y-4.375
X4.785Y-4.375
X4.685Y-3.815
X4.785Y-3.815
X4.685Y-4.935
X4.785Y-4.935
X4.685Y-2.695
X4.785Y-2.695
X4.685Y-4.655
X4.785Y-4.655
X4.685Y-3.255
X4.785Y-3.255
X4.685Y-2.975
X4.785Y-2.975
X4.685Y-5.22
X4.785Y-5.22
X4.685Y-4.095
X4.785Y-4.095
T6
X6.64Y-3.015
X6.64Y-3.1241
X6.64Y-3.2331
X6.64Y-3.3422
X6.64Y-3.4512
X6.64Y-3.5603
X6.64Y-3.6693
X6.64Y-3.7784
X6.64Y-3.8874
X6.64Y-3.9965
X6.64Y-4.1056
X6.64Y-4.2146
X6.64Y-4.3237
X6.7518Y-3.0695
X6.7518Y-3.1786
X6.7518Y-3.2876
X6.7518Y-3.3967
X6.7518Y-3.5057
X6.7518Y-3.6148
X6.7518Y-3.7239
X6.7518Y-3.8329
X6.7518Y-3.942
X6.7518Y-4.051
X6.7518Y-4.1601
X6.7518Y-4.2691
X6.51Y-2.5
X6.61Y-2.5
T7
X6.6959Y-2.7422
X6.6959Y-4.5965
T3
G00X6.971Y-4.9324
M15
G01X6.9966Y-4.9324
M16
G05
G00X6.971Y-5.2376
M15
G01X6.9966Y-5.2376
M16
G05
T4
G00X6.8233Y-4.9383
M15
G01X6.845Y-4.9383
M16
G05
G00X6.8233Y-5.2317
M15
G01X6.845Y-5.2317
M16
G05
T0
M30
