G04 #@! TF.GenerationSoftware,KiCad,Pcbnew,(5.1.5-0-10_14)*
G04 #@! TF.CreationDate,2020-10-04T23:04:19+02:00*
G04 #@! TF.ProjectId,wifi-modem,77696669-2d6d-46f6-9465-6d2e6b696361,rev?*
G04 #@! TF.SameCoordinates,Original*
G04 #@! TF.FileFunction,Soldermask,Bot*
G04 #@! TF.FilePolarity,Negative*
%FSLAX46Y46*%
G04 Gerber Fmt 4.6, Leading zero omitted, Abs format (unit mm)*
G04 Created by KiCad (PCBNEW (5.1.5-0-10_14)) date 2020-10-04 23:04:19*
%MOMM*%
%LPD*%
G04 APERTURE LIST*
%ADD10C,0.100000*%
G04 APERTURE END LIST*
D10*
G36*
X175992549Y-137301116D02*
G01*
X176103734Y-137323232D01*
X176313203Y-137409997D01*
X176501720Y-137535960D01*
X176662040Y-137696280D01*
X176788003Y-137884797D01*
X176874768Y-138094266D01*
X176919000Y-138316636D01*
X176919000Y-138543364D01*
X176874768Y-138765734D01*
X176788003Y-138975203D01*
X176662040Y-139163720D01*
X176501720Y-139324040D01*
X176313203Y-139450003D01*
X176103734Y-139536768D01*
X175992549Y-139558884D01*
X175881365Y-139581000D01*
X175654635Y-139581000D01*
X175543451Y-139558884D01*
X175432266Y-139536768D01*
X175222797Y-139450003D01*
X175034280Y-139324040D01*
X174873960Y-139163720D01*
X174747997Y-138975203D01*
X174661232Y-138765734D01*
X174617000Y-138543364D01*
X174617000Y-138316636D01*
X174661232Y-138094266D01*
X174747997Y-137884797D01*
X174873960Y-137696280D01*
X175034280Y-137535960D01*
X175222797Y-137409997D01*
X175432266Y-137323232D01*
X175543451Y-137301116D01*
X175654635Y-137279000D01*
X175881365Y-137279000D01*
X175992549Y-137301116D01*
G37*
G36*
X118969549Y-137301116D02*
G01*
X119080734Y-137323232D01*
X119290203Y-137409997D01*
X119478720Y-137535960D01*
X119639040Y-137696280D01*
X119765003Y-137884797D01*
X119851768Y-138094266D01*
X119896000Y-138316636D01*
X119896000Y-138543364D01*
X119851768Y-138765734D01*
X119765003Y-138975203D01*
X119639040Y-139163720D01*
X119478720Y-139324040D01*
X119290203Y-139450003D01*
X119080734Y-139536768D01*
X118969549Y-139558884D01*
X118858365Y-139581000D01*
X118631635Y-139581000D01*
X118520451Y-139558884D01*
X118409266Y-139536768D01*
X118199797Y-139450003D01*
X118011280Y-139324040D01*
X117850960Y-139163720D01*
X117724997Y-138975203D01*
X117638232Y-138765734D01*
X117594000Y-138543364D01*
X117594000Y-138316636D01*
X117638232Y-138094266D01*
X117724997Y-137884797D01*
X117850960Y-137696280D01*
X118011280Y-137535960D01*
X118199797Y-137409997D01*
X118409266Y-137323232D01*
X118520451Y-137301116D01*
X118631635Y-137279000D01*
X118858365Y-137279000D01*
X118969549Y-137301116D01*
G37*
G36*
X174769352Y-131225331D02*
G01*
X174851427Y-131259328D01*
X174851429Y-131259329D01*
X174888613Y-131284175D01*
X174925295Y-131308685D01*
X174988115Y-131371505D01*
X175037472Y-131445373D01*
X175071469Y-131527448D01*
X175088800Y-131614579D01*
X175088800Y-131703421D01*
X175071469Y-131790552D01*
X175047130Y-131849310D01*
X175037471Y-131872629D01*
X174988114Y-131946496D01*
X174925296Y-132009314D01*
X174851429Y-132058671D01*
X174851428Y-132058672D01*
X174851427Y-132058672D01*
X174769352Y-132092669D01*
X174682221Y-132110000D01*
X174593379Y-132110000D01*
X174503854Y-132092193D01*
X174485057Y-132086490D01*
X174460671Y-132084088D01*
X174436285Y-132086489D01*
X174412836Y-132093602D01*
X174391225Y-132105153D01*
X174372283Y-132120698D01*
X174356737Y-132139639D01*
X174345186Y-132161250D01*
X174338072Y-132184699D01*
X174335670Y-132209085D01*
X174338071Y-132233471D01*
X174345184Y-132256920D01*
X174356735Y-132278531D01*
X174372280Y-132297473D01*
X174381370Y-132305712D01*
X174414167Y-132332628D01*
X174511145Y-132450796D01*
X174583198Y-132585598D01*
X174627572Y-132731879D01*
X174642554Y-132884000D01*
X174627572Y-133036121D01*
X174583198Y-133182402D01*
X174511145Y-133317204D01*
X174511143Y-133317207D01*
X174511142Y-133317208D01*
X174414169Y-133435369D01*
X174332428Y-133502453D01*
X174296004Y-133532345D01*
X174161202Y-133604398D01*
X174014921Y-133648772D01*
X173900918Y-133660000D01*
X173274682Y-133660000D01*
X173160679Y-133648772D01*
X173014398Y-133604398D01*
X172879596Y-133532345D01*
X172843173Y-133502453D01*
X172761431Y-133435369D01*
X172664458Y-133317208D01*
X172664457Y-133317207D01*
X172664455Y-133317204D01*
X172592402Y-133182402D01*
X172548028Y-133036121D01*
X172533046Y-132884000D01*
X172548028Y-132731879D01*
X172592402Y-132585598D01*
X172664455Y-132450796D01*
X172761431Y-132332631D01*
X172827352Y-132278531D01*
X172879592Y-132235658D01*
X172879593Y-132235657D01*
X172879596Y-132235655D01*
X173014398Y-132163602D01*
X173160679Y-132119228D01*
X173274682Y-132108000D01*
X173900918Y-132108000D01*
X174014921Y-132119228D01*
X174167136Y-132165402D01*
X174178361Y-132170052D01*
X174202395Y-132174833D01*
X174226899Y-132174833D01*
X174250932Y-132170054D01*
X174273571Y-132160677D01*
X174293946Y-132147064D01*
X174311273Y-132129737D01*
X174324888Y-132109363D01*
X174334266Y-132086725D01*
X174339047Y-132062691D01*
X174339047Y-132038187D01*
X174334268Y-132014154D01*
X174324891Y-131991515D01*
X174311278Y-131971140D01*
X174303038Y-131962048D01*
X174287485Y-131946495D01*
X174238128Y-131872627D01*
X174204131Y-131790552D01*
X174186800Y-131703421D01*
X174186800Y-131614579D01*
X174204131Y-131527448D01*
X174238128Y-131445373D01*
X174287485Y-131371505D01*
X174350305Y-131308685D01*
X174386987Y-131284175D01*
X174424171Y-131259329D01*
X174424173Y-131259328D01*
X174506248Y-131225331D01*
X174593379Y-131208000D01*
X174682221Y-131208000D01*
X174769352Y-131225331D01*
G37*
G36*
X177835515Y-132417058D02*
G01*
X177931553Y-132446191D01*
X177946735Y-132450796D01*
X177953522Y-132452855D01*
X178062268Y-132510981D01*
X178157590Y-132589210D01*
X178235819Y-132684532D01*
X178293945Y-132793278D01*
X178329742Y-132911285D01*
X178341828Y-133034000D01*
X178329742Y-133156715D01*
X178293945Y-133274722D01*
X178235819Y-133383468D01*
X178157590Y-133478790D01*
X178062268Y-133557019D01*
X177953522Y-133615145D01*
X177835515Y-133650942D01*
X177743546Y-133660000D01*
X177032054Y-133660000D01*
X176940085Y-133650942D01*
X176822078Y-133615145D01*
X176713332Y-133557019D01*
X176618010Y-133478790D01*
X176539781Y-133383468D01*
X176481655Y-133274722D01*
X176445858Y-133156715D01*
X176433772Y-133034000D01*
X176445858Y-132911285D01*
X176481655Y-132793278D01*
X176539781Y-132684532D01*
X176618010Y-132589210D01*
X176713332Y-132510981D01*
X176822078Y-132452855D01*
X176828866Y-132450796D01*
X176844047Y-132446191D01*
X176940085Y-132417058D01*
X177032054Y-132408000D01*
X177743546Y-132408000D01*
X177835515Y-132417058D01*
G37*
G36*
X121816395Y-131673546D02*
G01*
X121989466Y-131745234D01*
X121989467Y-131745235D01*
X122145227Y-131849310D01*
X122277690Y-131981773D01*
X122277691Y-131981775D01*
X122381766Y-132137534D01*
X122453454Y-132310605D01*
X122490000Y-132494333D01*
X122490000Y-132681667D01*
X122453454Y-132865395D01*
X122381766Y-133038466D01*
X122381765Y-133038467D01*
X122277690Y-133194227D01*
X122145227Y-133326690D01*
X122066818Y-133379081D01*
X121989466Y-133430766D01*
X121816395Y-133502454D01*
X121632667Y-133539000D01*
X121445333Y-133539000D01*
X121261605Y-133502454D01*
X121088534Y-133430766D01*
X121011182Y-133379081D01*
X120932773Y-133326690D01*
X120800310Y-133194227D01*
X120696235Y-133038467D01*
X120696234Y-133038466D01*
X120624546Y-132865395D01*
X120588000Y-132681667D01*
X120588000Y-132494333D01*
X120624546Y-132310605D01*
X120696234Y-132137534D01*
X120800309Y-131981775D01*
X120800310Y-131981773D01*
X120932773Y-131849310D01*
X121088533Y-131745235D01*
X121088534Y-131745234D01*
X121261605Y-131673546D01*
X121445333Y-131637000D01*
X121632667Y-131637000D01*
X121816395Y-131673546D01*
G37*
G36*
X119950000Y-133539000D02*
G01*
X118048000Y-133539000D01*
X118048000Y-131637000D01*
X119950000Y-131637000D01*
X119950000Y-133539000D01*
G37*
G36*
X174014921Y-124669228D02*
G01*
X174161202Y-124713602D01*
X174296004Y-124785655D01*
X174296007Y-124785657D01*
X174296008Y-124785658D01*
X174414169Y-124882631D01*
X174456763Y-124934531D01*
X174511145Y-125000796D01*
X174583198Y-125135598D01*
X174627572Y-125281879D01*
X174642554Y-125434000D01*
X174627572Y-125586121D01*
X174583198Y-125732402D01*
X174511145Y-125867204D01*
X174414167Y-125985372D01*
X174381370Y-126012288D01*
X174364043Y-126029615D01*
X174350430Y-126049989D01*
X174341052Y-126072628D01*
X174336272Y-126096661D01*
X174336272Y-126121165D01*
X174341052Y-126145199D01*
X174350430Y-126167837D01*
X174364044Y-126188212D01*
X174381371Y-126205539D01*
X174401745Y-126219152D01*
X174424384Y-126228530D01*
X174448417Y-126233310D01*
X174472921Y-126233310D01*
X174496955Y-126228530D01*
X174505449Y-126225490D01*
X174593379Y-126208000D01*
X174682221Y-126208000D01*
X174769352Y-126225331D01*
X174851427Y-126259328D01*
X174851429Y-126259329D01*
X174857601Y-126263453D01*
X174925295Y-126308685D01*
X174988115Y-126371505D01*
X175037472Y-126445373D01*
X175071469Y-126527448D01*
X175088800Y-126614579D01*
X175088800Y-126703421D01*
X175071469Y-126790552D01*
X175037472Y-126872627D01*
X175037471Y-126872629D01*
X174988114Y-126946496D01*
X174925296Y-127009314D01*
X174851429Y-127058671D01*
X174851428Y-127058672D01*
X174851427Y-127058672D01*
X174769352Y-127092669D01*
X174682221Y-127110000D01*
X174593379Y-127110000D01*
X174506248Y-127092669D01*
X174424173Y-127058672D01*
X174424172Y-127058672D01*
X174424171Y-127058671D01*
X174350304Y-127009314D01*
X174287486Y-126946496D01*
X174238129Y-126872629D01*
X174238128Y-126872627D01*
X174204131Y-126790552D01*
X174186800Y-126703421D01*
X174186800Y-126614579D01*
X174204131Y-126527448D01*
X174238128Y-126445373D01*
X174287485Y-126371505D01*
X174303038Y-126355952D01*
X174318583Y-126337010D01*
X174330134Y-126315399D01*
X174337247Y-126291950D01*
X174339649Y-126267564D01*
X174337247Y-126243178D01*
X174330134Y-126219729D01*
X174318583Y-126198118D01*
X174303038Y-126179176D01*
X174284096Y-126163631D01*
X174262485Y-126152080D01*
X174239036Y-126144967D01*
X174214650Y-126142565D01*
X174190264Y-126144967D01*
X174166815Y-126152080D01*
X174163186Y-126153796D01*
X174161200Y-126154398D01*
X174161199Y-126154399D01*
X174130765Y-126163631D01*
X174014921Y-126198772D01*
X173900918Y-126210000D01*
X173274682Y-126210000D01*
X173160679Y-126198772D01*
X173014398Y-126154398D01*
X172879596Y-126082345D01*
X172815345Y-126029615D01*
X172761431Y-125985369D01*
X172664458Y-125867208D01*
X172664457Y-125867207D01*
X172664455Y-125867204D01*
X172592402Y-125732402D01*
X172548028Y-125586121D01*
X172533046Y-125434000D01*
X172548028Y-125281879D01*
X172592402Y-125135598D01*
X172664455Y-125000796D01*
X172718838Y-124934531D01*
X172761431Y-124882631D01*
X172879592Y-124785658D01*
X172879593Y-124785657D01*
X172879596Y-124785655D01*
X173014398Y-124713602D01*
X173160679Y-124669228D01*
X173274682Y-124658000D01*
X173900918Y-124658000D01*
X174014921Y-124669228D01*
G37*
G36*
X121816395Y-124434546D02*
G01*
X121989466Y-124506234D01*
X121989467Y-124506235D01*
X122145227Y-124610310D01*
X122277690Y-124742773D01*
X122277691Y-124742775D01*
X122381766Y-124898534D01*
X122453454Y-125071605D01*
X122490000Y-125255333D01*
X122490000Y-125442667D01*
X122453454Y-125626395D01*
X122381766Y-125799466D01*
X122381765Y-125799467D01*
X122277690Y-125955227D01*
X122145227Y-126087690D01*
X122095128Y-126121165D01*
X121989466Y-126191766D01*
X121816395Y-126263454D01*
X121632667Y-126300000D01*
X121445333Y-126300000D01*
X121261605Y-126263454D01*
X121088534Y-126191766D01*
X120982872Y-126121165D01*
X120932773Y-126087690D01*
X120800310Y-125955227D01*
X120696235Y-125799467D01*
X120696234Y-125799466D01*
X120624546Y-125626395D01*
X120588000Y-125442667D01*
X120588000Y-125255333D01*
X120624546Y-125071605D01*
X120696234Y-124898534D01*
X120800309Y-124742775D01*
X120800310Y-124742773D01*
X120932773Y-124610310D01*
X121088533Y-124506235D01*
X121088534Y-124506234D01*
X121261605Y-124434546D01*
X121445333Y-124398000D01*
X121632667Y-124398000D01*
X121816395Y-124434546D01*
G37*
G36*
X119950000Y-126300000D02*
G01*
X118048000Y-126300000D01*
X118048000Y-124398000D01*
X119950000Y-124398000D01*
X119950000Y-126300000D01*
G37*
G36*
X177835515Y-124667058D02*
G01*
X177953522Y-124702855D01*
X178062268Y-124760981D01*
X178157590Y-124839210D01*
X178235819Y-124934532D01*
X178293945Y-125043278D01*
X178329742Y-125161285D01*
X178341828Y-125284000D01*
X178329742Y-125406715D01*
X178293945Y-125524722D01*
X178235819Y-125633468D01*
X178157590Y-125728790D01*
X178062268Y-125807019D01*
X177953522Y-125865145D01*
X177953519Y-125865146D01*
X177946721Y-125867208D01*
X177835515Y-125900942D01*
X177743546Y-125910000D01*
X177032054Y-125910000D01*
X176940085Y-125900942D01*
X176828879Y-125867208D01*
X176822081Y-125865146D01*
X176822078Y-125865145D01*
X176713332Y-125807019D01*
X176618010Y-125728790D01*
X176539781Y-125633468D01*
X176481655Y-125524722D01*
X176445858Y-125406715D01*
X176433772Y-125284000D01*
X176445858Y-125161285D01*
X176481655Y-125043278D01*
X176539781Y-124934532D01*
X176618010Y-124839210D01*
X176713332Y-124760981D01*
X176822078Y-124702855D01*
X176940085Y-124667058D01*
X177032054Y-124658000D01*
X177743546Y-124658000D01*
X177835515Y-124667058D01*
G37*
G36*
X119950000Y-119188000D02*
G01*
X118048000Y-119188000D01*
X118048000Y-117286000D01*
X119950000Y-117286000D01*
X119950000Y-119188000D01*
G37*
G36*
X121816395Y-117322546D02*
G01*
X121989466Y-117394234D01*
X121989467Y-117394235D01*
X122145227Y-117498310D01*
X122277690Y-117630773D01*
X122277691Y-117630775D01*
X122381766Y-117786534D01*
X122453454Y-117959605D01*
X122490000Y-118143333D01*
X122490000Y-118330667D01*
X122453454Y-118514395D01*
X122381766Y-118687466D01*
X122381765Y-118687467D01*
X122277690Y-118843227D01*
X122145227Y-118975690D01*
X122066818Y-119028081D01*
X121989466Y-119079766D01*
X121816395Y-119151454D01*
X121632667Y-119188000D01*
X121445333Y-119188000D01*
X121261605Y-119151454D01*
X121088534Y-119079766D01*
X121011182Y-119028081D01*
X120932773Y-118975690D01*
X120800310Y-118843227D01*
X120696235Y-118687467D01*
X120696234Y-118687466D01*
X120624546Y-118514395D01*
X120588000Y-118330667D01*
X120588000Y-118143333D01*
X120624546Y-117959605D01*
X120696234Y-117786534D01*
X120800309Y-117630775D01*
X120800310Y-117630773D01*
X120932773Y-117498310D01*
X121088533Y-117394235D01*
X121088534Y-117394234D01*
X121261605Y-117322546D01*
X121445333Y-117286000D01*
X121632667Y-117286000D01*
X121816395Y-117322546D01*
G37*
G36*
X170674254Y-114778818D02*
G01*
X171047511Y-114933426D01*
X171047513Y-114933427D01*
X171383436Y-115157884D01*
X171669116Y-115443564D01*
X171893574Y-115779489D01*
X172048182Y-116152746D01*
X172127000Y-116548993D01*
X172127000Y-116953007D01*
X172048182Y-117349254D01*
X172029550Y-117394235D01*
X171893573Y-117722513D01*
X171669116Y-118058436D01*
X171383436Y-118344116D01*
X171047513Y-118568573D01*
X171047512Y-118568574D01*
X171047511Y-118568574D01*
X170674254Y-118723182D01*
X170278007Y-118802000D01*
X169873993Y-118802000D01*
X169477746Y-118723182D01*
X169104489Y-118568574D01*
X169104488Y-118568574D01*
X169104487Y-118568573D01*
X168768564Y-118344116D01*
X168482884Y-118058436D01*
X168258427Y-117722513D01*
X168122450Y-117394235D01*
X168103818Y-117349254D01*
X168025000Y-116953007D01*
X168025000Y-116548993D01*
X168103818Y-116152746D01*
X168258426Y-115779489D01*
X168482884Y-115443564D01*
X168768564Y-115157884D01*
X169104487Y-114933427D01*
X169104489Y-114933426D01*
X169477746Y-114778818D01*
X169873993Y-114700000D01*
X170278007Y-114700000D01*
X170674254Y-114778818D01*
G37*
G36*
X119950000Y-112076000D02*
G01*
X118048000Y-112076000D01*
X118048000Y-110174000D01*
X119950000Y-110174000D01*
X119950000Y-112076000D01*
G37*
G36*
X121816395Y-110210546D02*
G01*
X121989466Y-110282234D01*
X121989467Y-110282235D01*
X122145227Y-110386310D01*
X122277690Y-110518773D01*
X122277691Y-110518775D01*
X122381766Y-110674534D01*
X122453454Y-110847605D01*
X122490000Y-111031333D01*
X122490000Y-111218667D01*
X122453454Y-111402395D01*
X122381766Y-111575466D01*
X122381765Y-111575467D01*
X122277690Y-111731227D01*
X122145227Y-111863690D01*
X122066818Y-111916081D01*
X121989466Y-111967766D01*
X121816395Y-112039454D01*
X121632667Y-112076000D01*
X121445333Y-112076000D01*
X121261605Y-112039454D01*
X121088534Y-111967766D01*
X121011182Y-111916081D01*
X120932773Y-111863690D01*
X120800310Y-111731227D01*
X120696235Y-111575467D01*
X120696234Y-111575466D01*
X120624546Y-111402395D01*
X120588000Y-111218667D01*
X120588000Y-111031333D01*
X120624546Y-110847605D01*
X120696234Y-110674534D01*
X120800309Y-110518775D01*
X120800310Y-110518773D01*
X120932773Y-110386310D01*
X121088533Y-110282235D01*
X121088534Y-110282234D01*
X121261605Y-110210546D01*
X121445333Y-110174000D01*
X121632667Y-110174000D01*
X121816395Y-110210546D01*
G37*
G36*
X168904228Y-109002703D02*
G01*
X169059100Y-109066853D01*
X169198481Y-109159985D01*
X169317015Y-109278519D01*
X169410147Y-109417900D01*
X169474297Y-109572772D01*
X169507000Y-109737184D01*
X169507000Y-109904816D01*
X169474297Y-110069228D01*
X169410147Y-110224100D01*
X169317015Y-110363481D01*
X169198481Y-110482015D01*
X169059100Y-110575147D01*
X168904228Y-110639297D01*
X168739816Y-110672000D01*
X168572184Y-110672000D01*
X168407772Y-110639297D01*
X168252900Y-110575147D01*
X168113519Y-110482015D01*
X167994985Y-110363481D01*
X167901853Y-110224100D01*
X167837703Y-110069228D01*
X167805000Y-109904816D01*
X167805000Y-109737184D01*
X167837703Y-109572772D01*
X167901853Y-109417900D01*
X167994985Y-109278519D01*
X168113519Y-109159985D01*
X168252900Y-109066853D01*
X168407772Y-109002703D01*
X168572184Y-108970000D01*
X168739816Y-108970000D01*
X168904228Y-109002703D01*
G37*
G36*
X171744228Y-107617703D02*
G01*
X171899100Y-107681853D01*
X172038481Y-107774985D01*
X172157015Y-107893519D01*
X172250147Y-108032900D01*
X172314297Y-108187772D01*
X172347000Y-108352184D01*
X172347000Y-108519816D01*
X172314297Y-108684228D01*
X172250147Y-108839100D01*
X172157015Y-108978481D01*
X172038481Y-109097015D01*
X171899100Y-109190147D01*
X171744228Y-109254297D01*
X171579816Y-109287000D01*
X171412184Y-109287000D01*
X171247772Y-109254297D01*
X171092900Y-109190147D01*
X170953519Y-109097015D01*
X170834985Y-108978481D01*
X170741853Y-108839100D01*
X170677703Y-108684228D01*
X170645000Y-108519816D01*
X170645000Y-108352184D01*
X170677703Y-108187772D01*
X170741853Y-108032900D01*
X170834985Y-107893519D01*
X170953519Y-107774985D01*
X171092900Y-107681853D01*
X171247772Y-107617703D01*
X171412184Y-107585000D01*
X171579816Y-107585000D01*
X171744228Y-107617703D01*
G37*
G36*
X168904228Y-106232703D02*
G01*
X169059100Y-106296853D01*
X169198481Y-106389985D01*
X169317015Y-106508519D01*
X169410147Y-106647900D01*
X169474297Y-106802772D01*
X169507000Y-106967184D01*
X169507000Y-107134816D01*
X169474297Y-107299228D01*
X169410147Y-107454100D01*
X169317015Y-107593481D01*
X169198481Y-107712015D01*
X169059100Y-107805147D01*
X168904228Y-107869297D01*
X168739816Y-107902000D01*
X168572184Y-107902000D01*
X168407772Y-107869297D01*
X168252900Y-107805147D01*
X168113519Y-107712015D01*
X167994985Y-107593481D01*
X167901853Y-107454100D01*
X167837703Y-107299228D01*
X167805000Y-107134816D01*
X167805000Y-106967184D01*
X167837703Y-106802772D01*
X167901853Y-106647900D01*
X167994985Y-106508519D01*
X168113519Y-106389985D01*
X168252900Y-106296853D01*
X168407772Y-106232703D01*
X168572184Y-106200000D01*
X168739816Y-106200000D01*
X168904228Y-106232703D01*
G37*
G36*
X171744228Y-104847703D02*
G01*
X171899100Y-104911853D01*
X172038481Y-105004985D01*
X172157015Y-105123519D01*
X172250147Y-105262900D01*
X172314297Y-105417772D01*
X172347000Y-105582184D01*
X172347000Y-105749816D01*
X172314297Y-105914228D01*
X172250147Y-106069100D01*
X172157015Y-106208481D01*
X172038481Y-106327015D01*
X171899100Y-106420147D01*
X171744228Y-106484297D01*
X171579816Y-106517000D01*
X171412184Y-106517000D01*
X171247772Y-106484297D01*
X171092900Y-106420147D01*
X170953519Y-106327015D01*
X170834985Y-106208481D01*
X170741853Y-106069100D01*
X170677703Y-105914228D01*
X170645000Y-105749816D01*
X170645000Y-105582184D01*
X170677703Y-105417772D01*
X170741853Y-105262900D01*
X170834985Y-105123519D01*
X170953519Y-105004985D01*
X171092900Y-104911853D01*
X171247772Y-104847703D01*
X171412184Y-104815000D01*
X171579816Y-104815000D01*
X171744228Y-104847703D01*
G37*
G36*
X168904228Y-103462703D02*
G01*
X169059100Y-103526853D01*
X169198481Y-103619985D01*
X169317015Y-103738519D01*
X169410147Y-103877900D01*
X169474297Y-104032772D01*
X169507000Y-104197184D01*
X169507000Y-104364816D01*
X169474297Y-104529228D01*
X169410147Y-104684100D01*
X169317015Y-104823481D01*
X169198481Y-104942015D01*
X169059100Y-105035147D01*
X168904228Y-105099297D01*
X168739816Y-105132000D01*
X168572184Y-105132000D01*
X168407772Y-105099297D01*
X168252900Y-105035147D01*
X168113519Y-104942015D01*
X167994985Y-104823481D01*
X167901853Y-104684100D01*
X167837703Y-104529228D01*
X167805000Y-104364816D01*
X167805000Y-104197184D01*
X167837703Y-104032772D01*
X167901853Y-103877900D01*
X167994985Y-103738519D01*
X168113519Y-103619985D01*
X168252900Y-103526853D01*
X168407772Y-103462703D01*
X168572184Y-103430000D01*
X168739816Y-103430000D01*
X168904228Y-103462703D01*
G37*
G36*
X119950000Y-104964000D02*
G01*
X118048000Y-104964000D01*
X118048000Y-103062000D01*
X119950000Y-103062000D01*
X119950000Y-104964000D01*
G37*
G36*
X121816395Y-103098546D02*
G01*
X121989466Y-103170234D01*
X121989467Y-103170235D01*
X122145227Y-103274310D01*
X122277690Y-103406773D01*
X122315061Y-103462703D01*
X122381766Y-103562534D01*
X122453454Y-103735605D01*
X122490000Y-103919333D01*
X122490000Y-104106667D01*
X122453454Y-104290395D01*
X122381766Y-104463466D01*
X122381765Y-104463467D01*
X122277690Y-104619227D01*
X122145227Y-104751690D01*
X122066818Y-104804081D01*
X121989466Y-104855766D01*
X121816395Y-104927454D01*
X121632667Y-104964000D01*
X121445333Y-104964000D01*
X121261605Y-104927454D01*
X121088534Y-104855766D01*
X121011182Y-104804081D01*
X120932773Y-104751690D01*
X120800310Y-104619227D01*
X120696235Y-104463467D01*
X120696234Y-104463466D01*
X120624546Y-104290395D01*
X120588000Y-104106667D01*
X120588000Y-103919333D01*
X120624546Y-103735605D01*
X120696234Y-103562534D01*
X120762939Y-103462703D01*
X120800310Y-103406773D01*
X120932773Y-103274310D01*
X121088533Y-103170235D01*
X121088534Y-103170234D01*
X121261605Y-103098546D01*
X121445333Y-103062000D01*
X121632667Y-103062000D01*
X121816395Y-103098546D01*
G37*
G36*
X171744228Y-102077703D02*
G01*
X171899100Y-102141853D01*
X172038481Y-102234985D01*
X172157015Y-102353519D01*
X172250147Y-102492900D01*
X172314297Y-102647772D01*
X172347000Y-102812184D01*
X172347000Y-102979816D01*
X172314297Y-103144228D01*
X172250147Y-103299100D01*
X172157015Y-103438481D01*
X172038481Y-103557015D01*
X171899100Y-103650147D01*
X171744228Y-103714297D01*
X171579816Y-103747000D01*
X171412184Y-103747000D01*
X171247772Y-103714297D01*
X171092900Y-103650147D01*
X170953519Y-103557015D01*
X170834985Y-103438481D01*
X170741853Y-103299100D01*
X170677703Y-103144228D01*
X170645000Y-102979816D01*
X170645000Y-102812184D01*
X170677703Y-102647772D01*
X170741853Y-102492900D01*
X170834985Y-102353519D01*
X170953519Y-102234985D01*
X171092900Y-102141853D01*
X171247772Y-102077703D01*
X171412184Y-102045000D01*
X171579816Y-102045000D01*
X171744228Y-102077703D01*
G37*
G36*
X168904228Y-100692703D02*
G01*
X169059100Y-100756853D01*
X169198481Y-100849985D01*
X169317015Y-100968519D01*
X169410147Y-101107900D01*
X169474297Y-101262772D01*
X169507000Y-101427184D01*
X169507000Y-101594816D01*
X169474297Y-101759228D01*
X169410147Y-101914100D01*
X169317015Y-102053481D01*
X169198481Y-102172015D01*
X169059100Y-102265147D01*
X168904228Y-102329297D01*
X168739816Y-102362000D01*
X168572184Y-102362000D01*
X168407772Y-102329297D01*
X168252900Y-102265147D01*
X168113519Y-102172015D01*
X167994985Y-102053481D01*
X167901853Y-101914100D01*
X167837703Y-101759228D01*
X167805000Y-101594816D01*
X167805000Y-101427184D01*
X167837703Y-101262772D01*
X167901853Y-101107900D01*
X167994985Y-100968519D01*
X168113519Y-100849985D01*
X168252900Y-100756853D01*
X168407772Y-100692703D01*
X168572184Y-100660000D01*
X168739816Y-100660000D01*
X168904228Y-100692703D01*
G37*
G36*
X171744228Y-99307703D02*
G01*
X171899100Y-99371853D01*
X172038481Y-99464985D01*
X172157015Y-99583519D01*
X172250147Y-99722900D01*
X172314297Y-99877772D01*
X172347000Y-100042184D01*
X172347000Y-100209816D01*
X172314297Y-100374228D01*
X172250147Y-100529100D01*
X172157015Y-100668481D01*
X172038481Y-100787015D01*
X171899100Y-100880147D01*
X171744228Y-100944297D01*
X171579816Y-100977000D01*
X171412184Y-100977000D01*
X171247772Y-100944297D01*
X171092900Y-100880147D01*
X170953519Y-100787015D01*
X170834985Y-100668481D01*
X170741853Y-100529100D01*
X170677703Y-100374228D01*
X170645000Y-100209816D01*
X170645000Y-100042184D01*
X170677703Y-99877772D01*
X170741853Y-99722900D01*
X170834985Y-99583519D01*
X170953519Y-99464985D01*
X171092900Y-99371853D01*
X171247772Y-99307703D01*
X171412184Y-99275000D01*
X171579816Y-99275000D01*
X171744228Y-99307703D01*
G37*
G36*
X168904228Y-97922703D02*
G01*
X169059100Y-97986853D01*
X169198481Y-98079985D01*
X169317015Y-98198519D01*
X169410147Y-98337900D01*
X169474297Y-98492772D01*
X169507000Y-98657184D01*
X169507000Y-98824816D01*
X169474297Y-98989228D01*
X169410147Y-99144100D01*
X169317015Y-99283481D01*
X169198481Y-99402015D01*
X169059100Y-99495147D01*
X168904228Y-99559297D01*
X168739816Y-99592000D01*
X168572184Y-99592000D01*
X168407772Y-99559297D01*
X168252900Y-99495147D01*
X168113519Y-99402015D01*
X167994985Y-99283481D01*
X167901853Y-99144100D01*
X167837703Y-98989228D01*
X167805000Y-98824816D01*
X167805000Y-98657184D01*
X167837703Y-98492772D01*
X167901853Y-98337900D01*
X167994985Y-98198519D01*
X168113519Y-98079985D01*
X168252900Y-97986853D01*
X168407772Y-97922703D01*
X168572184Y-97890000D01*
X168739816Y-97890000D01*
X168904228Y-97922703D01*
G37*
G36*
X171744228Y-96537703D02*
G01*
X171899100Y-96601853D01*
X172038481Y-96694985D01*
X172157015Y-96813519D01*
X172250147Y-96952900D01*
X172314297Y-97107772D01*
X172347000Y-97272184D01*
X172347000Y-97439816D01*
X172314297Y-97604228D01*
X172250147Y-97759100D01*
X172157015Y-97898481D01*
X172038481Y-98017015D01*
X171899100Y-98110147D01*
X171744228Y-98174297D01*
X171579816Y-98207000D01*
X171412184Y-98207000D01*
X171247772Y-98174297D01*
X171092900Y-98110147D01*
X170953519Y-98017015D01*
X170834985Y-97898481D01*
X170741853Y-97759100D01*
X170677703Y-97604228D01*
X170645000Y-97439816D01*
X170645000Y-97272184D01*
X170677703Y-97107772D01*
X170741853Y-96952900D01*
X170834985Y-96813519D01*
X170953519Y-96694985D01*
X171092900Y-96601853D01*
X171247772Y-96537703D01*
X171412184Y-96505000D01*
X171579816Y-96505000D01*
X171744228Y-96537703D01*
G37*
G36*
X119950000Y-97852000D02*
G01*
X118048000Y-97852000D01*
X118048000Y-95950000D01*
X119950000Y-95950000D01*
X119950000Y-97852000D01*
G37*
G36*
X121816395Y-95986546D02*
G01*
X121989466Y-96058234D01*
X121989467Y-96058235D01*
X122145227Y-96162310D01*
X122277690Y-96294773D01*
X122277691Y-96294775D01*
X122381766Y-96450534D01*
X122453454Y-96623605D01*
X122490000Y-96807333D01*
X122490000Y-96994667D01*
X122453454Y-97178395D01*
X122381766Y-97351466D01*
X122381765Y-97351467D01*
X122277690Y-97507227D01*
X122145227Y-97639690D01*
X122066818Y-97692081D01*
X121989466Y-97743766D01*
X121816395Y-97815454D01*
X121632667Y-97852000D01*
X121445333Y-97852000D01*
X121261605Y-97815454D01*
X121088534Y-97743766D01*
X121011182Y-97692081D01*
X120932773Y-97639690D01*
X120800310Y-97507227D01*
X120696235Y-97351467D01*
X120696234Y-97351466D01*
X120624546Y-97178395D01*
X120588000Y-96994667D01*
X120588000Y-96807333D01*
X120624546Y-96623605D01*
X120696234Y-96450534D01*
X120800309Y-96294775D01*
X120800310Y-96294773D01*
X120932773Y-96162310D01*
X121088533Y-96058235D01*
X121088534Y-96058234D01*
X121261605Y-95986546D01*
X121445333Y-95950000D01*
X121632667Y-95950000D01*
X121816395Y-95986546D01*
G37*
G36*
X168904228Y-95152703D02*
G01*
X169059100Y-95216853D01*
X169198481Y-95309985D01*
X169317015Y-95428519D01*
X169410147Y-95567900D01*
X169474297Y-95722772D01*
X169507000Y-95887184D01*
X169507000Y-96054816D01*
X169474297Y-96219228D01*
X169410147Y-96374100D01*
X169317015Y-96513481D01*
X169198481Y-96632015D01*
X169059100Y-96725147D01*
X168904228Y-96789297D01*
X168739816Y-96822000D01*
X168572184Y-96822000D01*
X168407772Y-96789297D01*
X168252900Y-96725147D01*
X168113519Y-96632015D01*
X167994985Y-96513481D01*
X167901853Y-96374100D01*
X167837703Y-96219228D01*
X167805000Y-96054816D01*
X167805000Y-95887184D01*
X167837703Y-95722772D01*
X167901853Y-95567900D01*
X167994985Y-95428519D01*
X168113519Y-95309985D01*
X168252900Y-95216853D01*
X168407772Y-95152703D01*
X168572184Y-95120000D01*
X168739816Y-95120000D01*
X168904228Y-95152703D01*
G37*
G36*
X171744228Y-93767703D02*
G01*
X171899100Y-93831853D01*
X172038481Y-93924985D01*
X172157015Y-94043519D01*
X172250147Y-94182900D01*
X172314297Y-94337772D01*
X172347000Y-94502184D01*
X172347000Y-94669816D01*
X172314297Y-94834228D01*
X172250147Y-94989100D01*
X172157015Y-95128481D01*
X172038481Y-95247015D01*
X171899100Y-95340147D01*
X171744228Y-95404297D01*
X171579816Y-95437000D01*
X171412184Y-95437000D01*
X171247772Y-95404297D01*
X171092900Y-95340147D01*
X170953519Y-95247015D01*
X170834985Y-95128481D01*
X170741853Y-94989100D01*
X170677703Y-94834228D01*
X170645000Y-94669816D01*
X170645000Y-94502184D01*
X170677703Y-94337772D01*
X170741853Y-94182900D01*
X170834985Y-94043519D01*
X170953519Y-93924985D01*
X171092900Y-93831853D01*
X171247772Y-93767703D01*
X171412184Y-93735000D01*
X171579816Y-93735000D01*
X171744228Y-93767703D01*
G37*
G36*
X168904228Y-92382703D02*
G01*
X169059100Y-92446853D01*
X169198481Y-92539985D01*
X169317015Y-92658519D01*
X169410147Y-92797900D01*
X169474297Y-92952772D01*
X169507000Y-93117184D01*
X169507000Y-93284816D01*
X169474297Y-93449228D01*
X169410147Y-93604100D01*
X169317015Y-93743481D01*
X169198481Y-93862015D01*
X169059100Y-93955147D01*
X168904228Y-94019297D01*
X168739816Y-94052000D01*
X168572184Y-94052000D01*
X168407772Y-94019297D01*
X168252900Y-93955147D01*
X168113519Y-93862015D01*
X167994985Y-93743481D01*
X167901853Y-93604100D01*
X167837703Y-93449228D01*
X167805000Y-93284816D01*
X167805000Y-93117184D01*
X167837703Y-92952772D01*
X167901853Y-92797900D01*
X167994985Y-92658519D01*
X168113519Y-92539985D01*
X168252900Y-92446853D01*
X168407772Y-92382703D01*
X168572184Y-92350000D01*
X168739816Y-92350000D01*
X168904228Y-92382703D01*
G37*
G36*
X171744228Y-90997703D02*
G01*
X171899100Y-91061853D01*
X172038481Y-91154985D01*
X172157015Y-91273519D01*
X172250147Y-91412900D01*
X172314297Y-91567772D01*
X172347000Y-91732184D01*
X172347000Y-91899816D01*
X172314297Y-92064228D01*
X172250147Y-92219100D01*
X172157015Y-92358481D01*
X172038481Y-92477015D01*
X171899100Y-92570147D01*
X171744228Y-92634297D01*
X171579816Y-92667000D01*
X171412184Y-92667000D01*
X171247772Y-92634297D01*
X171092900Y-92570147D01*
X170953519Y-92477015D01*
X170834985Y-92358481D01*
X170741853Y-92219100D01*
X170677703Y-92064228D01*
X170645000Y-91899816D01*
X170645000Y-91732184D01*
X170677703Y-91567772D01*
X170741853Y-91412900D01*
X170834985Y-91273519D01*
X170953519Y-91154985D01*
X171092900Y-91061853D01*
X171247772Y-90997703D01*
X171412184Y-90965000D01*
X171579816Y-90965000D01*
X171744228Y-90997703D01*
G37*
G36*
X168904228Y-89612703D02*
G01*
X169059100Y-89676853D01*
X169198481Y-89769985D01*
X169317015Y-89888519D01*
X169410147Y-90027900D01*
X169474297Y-90182772D01*
X169507000Y-90347184D01*
X169507000Y-90514816D01*
X169474297Y-90679228D01*
X169410147Y-90834100D01*
X169317015Y-90973481D01*
X169198481Y-91092015D01*
X169059100Y-91185147D01*
X168904228Y-91249297D01*
X168739816Y-91282000D01*
X168572184Y-91282000D01*
X168407772Y-91249297D01*
X168252900Y-91185147D01*
X168113519Y-91092015D01*
X167994985Y-90973481D01*
X167901853Y-90834100D01*
X167837703Y-90679228D01*
X167805000Y-90514816D01*
X167805000Y-90347184D01*
X167837703Y-90182772D01*
X167901853Y-90027900D01*
X167994985Y-89888519D01*
X168113519Y-89769985D01*
X168252900Y-89676853D01*
X168407772Y-89612703D01*
X168572184Y-89580000D01*
X168739816Y-89580000D01*
X168904228Y-89612703D01*
G37*
G36*
X119950000Y-90740000D02*
G01*
X118048000Y-90740000D01*
X118048000Y-88838000D01*
X119950000Y-88838000D01*
X119950000Y-90740000D01*
G37*
G36*
X121816395Y-88874546D02*
G01*
X121989466Y-88946234D01*
X122013338Y-88962185D01*
X122145227Y-89050310D01*
X122277690Y-89182773D01*
X122277691Y-89182775D01*
X122381766Y-89338534D01*
X122453454Y-89511605D01*
X122490000Y-89695333D01*
X122490000Y-89882667D01*
X122453454Y-90066395D01*
X122381766Y-90239466D01*
X122381765Y-90239467D01*
X122277690Y-90395227D01*
X122145227Y-90527690D01*
X122066818Y-90580081D01*
X121989466Y-90631766D01*
X121816395Y-90703454D01*
X121632667Y-90740000D01*
X121445333Y-90740000D01*
X121261605Y-90703454D01*
X121088534Y-90631766D01*
X121011182Y-90580081D01*
X120932773Y-90527690D01*
X120800310Y-90395227D01*
X120696235Y-90239467D01*
X120696234Y-90239466D01*
X120624546Y-90066395D01*
X120588000Y-89882667D01*
X120588000Y-89695333D01*
X120624546Y-89511605D01*
X120696234Y-89338534D01*
X120800309Y-89182775D01*
X120800310Y-89182773D01*
X120932773Y-89050310D01*
X121064662Y-88962185D01*
X121088534Y-88946234D01*
X121261605Y-88874546D01*
X121445333Y-88838000D01*
X121632667Y-88838000D01*
X121816395Y-88874546D01*
G37*
G36*
X171744228Y-88227703D02*
G01*
X171899100Y-88291853D01*
X172038481Y-88384985D01*
X172157015Y-88503519D01*
X172250147Y-88642900D01*
X172314297Y-88797772D01*
X172347000Y-88962184D01*
X172347000Y-89129816D01*
X172314297Y-89294228D01*
X172250147Y-89449100D01*
X172157015Y-89588481D01*
X172038481Y-89707015D01*
X171899100Y-89800147D01*
X171744228Y-89864297D01*
X171579816Y-89897000D01*
X171412184Y-89897000D01*
X171247772Y-89864297D01*
X171092900Y-89800147D01*
X170953519Y-89707015D01*
X170834985Y-89588481D01*
X170741853Y-89449100D01*
X170677703Y-89294228D01*
X170645000Y-89129816D01*
X170645000Y-88962184D01*
X170677703Y-88797772D01*
X170741853Y-88642900D01*
X170834985Y-88503519D01*
X170953519Y-88384985D01*
X171092900Y-88291853D01*
X171247772Y-88227703D01*
X171412184Y-88195000D01*
X171579816Y-88195000D01*
X171744228Y-88227703D01*
G37*
G36*
X168904228Y-86842703D02*
G01*
X169059100Y-86906853D01*
X169198481Y-86999985D01*
X169317015Y-87118519D01*
X169410147Y-87257900D01*
X169474297Y-87412772D01*
X169507000Y-87577184D01*
X169507000Y-87744816D01*
X169474297Y-87909228D01*
X169410147Y-88064100D01*
X169317015Y-88203481D01*
X169198481Y-88322015D01*
X169059100Y-88415147D01*
X168904228Y-88479297D01*
X168739816Y-88512000D01*
X168572184Y-88512000D01*
X168407772Y-88479297D01*
X168252900Y-88415147D01*
X168113519Y-88322015D01*
X167994985Y-88203481D01*
X167901853Y-88064100D01*
X167837703Y-87909228D01*
X167805000Y-87744816D01*
X167805000Y-87577184D01*
X167837703Y-87412772D01*
X167901853Y-87257900D01*
X167994985Y-87118519D01*
X168113519Y-86999985D01*
X168252900Y-86906853D01*
X168407772Y-86842703D01*
X168572184Y-86810000D01*
X168739816Y-86810000D01*
X168904228Y-86842703D01*
G37*
G36*
X171744228Y-85457703D02*
G01*
X171899100Y-85521853D01*
X172038481Y-85614985D01*
X172157015Y-85733519D01*
X172250147Y-85872900D01*
X172314297Y-86027772D01*
X172347000Y-86192184D01*
X172347000Y-86359816D01*
X172314297Y-86524228D01*
X172250147Y-86679100D01*
X172157015Y-86818481D01*
X172038481Y-86937015D01*
X171899100Y-87030147D01*
X171744228Y-87094297D01*
X171579816Y-87127000D01*
X171412184Y-87127000D01*
X171247772Y-87094297D01*
X171092900Y-87030147D01*
X170953519Y-86937015D01*
X170834985Y-86818481D01*
X170741853Y-86679100D01*
X170677703Y-86524228D01*
X170645000Y-86359816D01*
X170645000Y-86192184D01*
X170677703Y-86027772D01*
X170741853Y-85872900D01*
X170834985Y-85733519D01*
X170953519Y-85614985D01*
X171092900Y-85521853D01*
X171247772Y-85457703D01*
X171412184Y-85425000D01*
X171579816Y-85425000D01*
X171744228Y-85457703D01*
G37*
G36*
X168904228Y-84072703D02*
G01*
X169059100Y-84136853D01*
X169198481Y-84229985D01*
X169317015Y-84348519D01*
X169410147Y-84487900D01*
X169474297Y-84642772D01*
X169507000Y-84807184D01*
X169507000Y-84974816D01*
X169474297Y-85139228D01*
X169410147Y-85294100D01*
X169317015Y-85433481D01*
X169198481Y-85552015D01*
X169059100Y-85645147D01*
X168904228Y-85709297D01*
X168739816Y-85742000D01*
X168572184Y-85742000D01*
X168407772Y-85709297D01*
X168252900Y-85645147D01*
X168113519Y-85552015D01*
X167994985Y-85433481D01*
X167901853Y-85294100D01*
X167837703Y-85139228D01*
X167805000Y-84974816D01*
X167805000Y-84807184D01*
X167837703Y-84642772D01*
X167901853Y-84487900D01*
X167994985Y-84348519D01*
X168113519Y-84229985D01*
X168252900Y-84136853D01*
X168407772Y-84072703D01*
X168572184Y-84040000D01*
X168739816Y-84040000D01*
X168904228Y-84072703D01*
G37*
G36*
X171744228Y-82687703D02*
G01*
X171899100Y-82751853D01*
X172038481Y-82844985D01*
X172157015Y-82963519D01*
X172250147Y-83102900D01*
X172314297Y-83257772D01*
X172347000Y-83422184D01*
X172347000Y-83589816D01*
X172314297Y-83754228D01*
X172250147Y-83909100D01*
X172157015Y-84048481D01*
X172038481Y-84167015D01*
X171899100Y-84260147D01*
X171744228Y-84324297D01*
X171579816Y-84357000D01*
X171412184Y-84357000D01*
X171247772Y-84324297D01*
X171092900Y-84260147D01*
X170953519Y-84167015D01*
X170834985Y-84048481D01*
X170741853Y-83909100D01*
X170677703Y-83754228D01*
X170645000Y-83589816D01*
X170645000Y-83422184D01*
X170677703Y-83257772D01*
X170741853Y-83102900D01*
X170834985Y-82963519D01*
X170953519Y-82844985D01*
X171092900Y-82751853D01*
X171247772Y-82687703D01*
X171412184Y-82655000D01*
X171579816Y-82655000D01*
X171744228Y-82687703D01*
G37*
G36*
X121816395Y-81762546D02*
G01*
X121989466Y-81834234D01*
X122047142Y-81872772D01*
X122145227Y-81938310D01*
X122277690Y-82070773D01*
X122277691Y-82070775D01*
X122381766Y-82226534D01*
X122453454Y-82399605D01*
X122490000Y-82583333D01*
X122490000Y-82770667D01*
X122453454Y-82954395D01*
X122381766Y-83127466D01*
X122381765Y-83127467D01*
X122277690Y-83283227D01*
X122145227Y-83415690D01*
X122135508Y-83422184D01*
X121989466Y-83519766D01*
X121816395Y-83591454D01*
X121632667Y-83628000D01*
X121445333Y-83628000D01*
X121261605Y-83591454D01*
X121088534Y-83519766D01*
X120942492Y-83422184D01*
X120932773Y-83415690D01*
X120800310Y-83283227D01*
X120696235Y-83127467D01*
X120696234Y-83127466D01*
X120624546Y-82954395D01*
X120588000Y-82770667D01*
X120588000Y-82583333D01*
X120624546Y-82399605D01*
X120696234Y-82226534D01*
X120800309Y-82070775D01*
X120800310Y-82070773D01*
X120932773Y-81938310D01*
X121030858Y-81872772D01*
X121088534Y-81834234D01*
X121261605Y-81762546D01*
X121445333Y-81726000D01*
X121632667Y-81726000D01*
X121816395Y-81762546D01*
G37*
G36*
X119950000Y-83628000D02*
G01*
X118048000Y-83628000D01*
X118048000Y-81726000D01*
X119950000Y-81726000D01*
X119950000Y-83628000D01*
G37*
G36*
X168904228Y-81302703D02*
G01*
X169059100Y-81366853D01*
X169198481Y-81459985D01*
X169317015Y-81578519D01*
X169410147Y-81717900D01*
X169474297Y-81872772D01*
X169507000Y-82037184D01*
X169507000Y-82204816D01*
X169474297Y-82369228D01*
X169410147Y-82524100D01*
X169317015Y-82663481D01*
X169198481Y-82782015D01*
X169059100Y-82875147D01*
X168904228Y-82939297D01*
X168739816Y-82972000D01*
X168572184Y-82972000D01*
X168407772Y-82939297D01*
X168252900Y-82875147D01*
X168113519Y-82782015D01*
X167994985Y-82663481D01*
X167901853Y-82524100D01*
X167837703Y-82369228D01*
X167805000Y-82204816D01*
X167805000Y-82037184D01*
X167837703Y-81872772D01*
X167901853Y-81717900D01*
X167994985Y-81578519D01*
X168113519Y-81459985D01*
X168252900Y-81366853D01*
X168407772Y-81302703D01*
X168572184Y-81270000D01*
X168739816Y-81270000D01*
X168904228Y-81302703D01*
G37*
G36*
X171744228Y-79917703D02*
G01*
X171899100Y-79981853D01*
X172038481Y-80074985D01*
X172157015Y-80193519D01*
X172250147Y-80332900D01*
X172314297Y-80487772D01*
X172347000Y-80652184D01*
X172347000Y-80819816D01*
X172314297Y-80984228D01*
X172250147Y-81139100D01*
X172157015Y-81278481D01*
X172038481Y-81397015D01*
X171899100Y-81490147D01*
X171744228Y-81554297D01*
X171579816Y-81587000D01*
X171412184Y-81587000D01*
X171247772Y-81554297D01*
X171092900Y-81490147D01*
X170953519Y-81397015D01*
X170834985Y-81278481D01*
X170741853Y-81139100D01*
X170677703Y-80984228D01*
X170645000Y-80819816D01*
X170645000Y-80652184D01*
X170677703Y-80487772D01*
X170741853Y-80332900D01*
X170834985Y-80193519D01*
X170953519Y-80074985D01*
X171092900Y-79981853D01*
X171247772Y-79917703D01*
X171412184Y-79885000D01*
X171579816Y-79885000D01*
X171744228Y-79917703D01*
G37*
G36*
X168904228Y-78532703D02*
G01*
X169059100Y-78596853D01*
X169198481Y-78689985D01*
X169317015Y-78808519D01*
X169410147Y-78947900D01*
X169474297Y-79102772D01*
X169507000Y-79267184D01*
X169507000Y-79434816D01*
X169474297Y-79599228D01*
X169410147Y-79754100D01*
X169317015Y-79893481D01*
X169198481Y-80012015D01*
X169059100Y-80105147D01*
X168904228Y-80169297D01*
X168739816Y-80202000D01*
X168572184Y-80202000D01*
X168407772Y-80169297D01*
X168252900Y-80105147D01*
X168113519Y-80012015D01*
X167994985Y-79893481D01*
X167901853Y-79754100D01*
X167837703Y-79599228D01*
X167805000Y-79434816D01*
X167805000Y-79267184D01*
X167837703Y-79102772D01*
X167901853Y-78947900D01*
X167994985Y-78808519D01*
X168113519Y-78689985D01*
X168252900Y-78596853D01*
X168407772Y-78532703D01*
X168572184Y-78500000D01*
X168739816Y-78500000D01*
X168904228Y-78532703D01*
G37*
G36*
X171744228Y-77147703D02*
G01*
X171899100Y-77211853D01*
X172038481Y-77304985D01*
X172157015Y-77423519D01*
X172250147Y-77562900D01*
X172314297Y-77717772D01*
X172347000Y-77882184D01*
X172347000Y-78049816D01*
X172314297Y-78214228D01*
X172250147Y-78369100D01*
X172157015Y-78508481D01*
X172038481Y-78627015D01*
X171899100Y-78720147D01*
X171744228Y-78784297D01*
X171579816Y-78817000D01*
X171412184Y-78817000D01*
X171247772Y-78784297D01*
X171092900Y-78720147D01*
X170953519Y-78627015D01*
X170834985Y-78508481D01*
X170741853Y-78369100D01*
X170677703Y-78214228D01*
X170645000Y-78049816D01*
X170645000Y-77882184D01*
X170677703Y-77717772D01*
X170741853Y-77562900D01*
X170834985Y-77423519D01*
X170953519Y-77304985D01*
X171092900Y-77211853D01*
X171247772Y-77147703D01*
X171412184Y-77115000D01*
X171579816Y-77115000D01*
X171744228Y-77147703D01*
G37*
G36*
X169507000Y-77432000D02*
G01*
X167805000Y-77432000D01*
X167805000Y-75730000D01*
X169507000Y-75730000D01*
X169507000Y-77432000D01*
G37*
G36*
X121816395Y-74650546D02*
G01*
X121989466Y-74722234D01*
X121989467Y-74722235D01*
X122145227Y-74826310D01*
X122277690Y-74958773D01*
X122277691Y-74958775D01*
X122381766Y-75114534D01*
X122453454Y-75287605D01*
X122490000Y-75471333D01*
X122490000Y-75658667D01*
X122453454Y-75842395D01*
X122381766Y-76015466D01*
X122381765Y-76015467D01*
X122277690Y-76171227D01*
X122145227Y-76303690D01*
X122066818Y-76356081D01*
X121989466Y-76407766D01*
X121816395Y-76479454D01*
X121632667Y-76516000D01*
X121445333Y-76516000D01*
X121261605Y-76479454D01*
X121088534Y-76407766D01*
X121011182Y-76356081D01*
X120932773Y-76303690D01*
X120800310Y-76171227D01*
X120696235Y-76015467D01*
X120696234Y-76015466D01*
X120624546Y-75842395D01*
X120588000Y-75658667D01*
X120588000Y-75471333D01*
X120624546Y-75287605D01*
X120696234Y-75114534D01*
X120800309Y-74958775D01*
X120800310Y-74958773D01*
X120932773Y-74826310D01*
X121088533Y-74722235D01*
X121088534Y-74722234D01*
X121261605Y-74650546D01*
X121445333Y-74614000D01*
X121632667Y-74614000D01*
X121816395Y-74650546D01*
G37*
G36*
X119950000Y-76516000D02*
G01*
X118048000Y-76516000D01*
X118048000Y-74614000D01*
X119950000Y-74614000D01*
X119950000Y-76516000D01*
G37*
G36*
X170674254Y-67678818D02*
G01*
X171047511Y-67833426D01*
X171047513Y-67833427D01*
X171300599Y-68002534D01*
X171383436Y-68057884D01*
X171669116Y-68343564D01*
X171893574Y-68679489D01*
X172048182Y-69052746D01*
X172127000Y-69448993D01*
X172127000Y-69853007D01*
X172048182Y-70249254D01*
X171893574Y-70622511D01*
X171893573Y-70622513D01*
X171669116Y-70958436D01*
X171383436Y-71244116D01*
X171047513Y-71468573D01*
X171047512Y-71468574D01*
X171047511Y-71468574D01*
X170674254Y-71623182D01*
X170278007Y-71702000D01*
X169873993Y-71702000D01*
X169477746Y-71623182D01*
X169104489Y-71468574D01*
X169104488Y-71468574D01*
X169104487Y-71468573D01*
X168768564Y-71244116D01*
X168482884Y-70958436D01*
X168258427Y-70622513D01*
X168258426Y-70622511D01*
X168103818Y-70249254D01*
X168025000Y-69853007D01*
X168025000Y-69448993D01*
X168103818Y-69052746D01*
X168258426Y-68679489D01*
X168482884Y-68343564D01*
X168768564Y-68057884D01*
X168851401Y-68002534D01*
X169104487Y-67833427D01*
X169104489Y-67833426D01*
X169477746Y-67678818D01*
X169873993Y-67600000D01*
X170278007Y-67600000D01*
X170674254Y-67678818D01*
G37*
G36*
X121816395Y-67538546D02*
G01*
X121989466Y-67610234D01*
X121989467Y-67610235D01*
X122145227Y-67714310D01*
X122277690Y-67846773D01*
X122277691Y-67846775D01*
X122381766Y-68002534D01*
X122453454Y-68175605D01*
X122490000Y-68359333D01*
X122490000Y-68546667D01*
X122453454Y-68730395D01*
X122381766Y-68903466D01*
X122381765Y-68903467D01*
X122277690Y-69059227D01*
X122145227Y-69191690D01*
X122066818Y-69244081D01*
X121989466Y-69295766D01*
X121816395Y-69367454D01*
X121632667Y-69404000D01*
X121445333Y-69404000D01*
X121261605Y-69367454D01*
X121088534Y-69295766D01*
X121011182Y-69244081D01*
X120932773Y-69191690D01*
X120800310Y-69059227D01*
X120696235Y-68903467D01*
X120696234Y-68903466D01*
X120624546Y-68730395D01*
X120588000Y-68546667D01*
X120588000Y-68359333D01*
X120624546Y-68175605D01*
X120696234Y-68002534D01*
X120800309Y-67846775D01*
X120800310Y-67846773D01*
X120932773Y-67714310D01*
X121088533Y-67610235D01*
X121088534Y-67610234D01*
X121261605Y-67538546D01*
X121445333Y-67502000D01*
X121632667Y-67502000D01*
X121816395Y-67538546D01*
G37*
G36*
X119950000Y-69404000D02*
G01*
X118048000Y-69404000D01*
X118048000Y-67502000D01*
X119950000Y-67502000D01*
X119950000Y-69404000D01*
G37*
G36*
X168795000Y-64401000D02*
G01*
X166993000Y-64401000D01*
X166993000Y-62599000D01*
X168795000Y-62599000D01*
X168795000Y-64401000D01*
G37*
G36*
X165467512Y-62603927D02*
G01*
X165616812Y-62633624D01*
X165780784Y-62701544D01*
X165928354Y-62800147D01*
X166053853Y-62925646D01*
X166152456Y-63073216D01*
X166220376Y-63237188D01*
X166255000Y-63411259D01*
X166255000Y-63588741D01*
X166220376Y-63762812D01*
X166152456Y-63926784D01*
X166053853Y-64074354D01*
X165928354Y-64199853D01*
X165780784Y-64298456D01*
X165616812Y-64366376D01*
X165467512Y-64396073D01*
X165442742Y-64401000D01*
X165265258Y-64401000D01*
X165240488Y-64396073D01*
X165091188Y-64366376D01*
X164927216Y-64298456D01*
X164779646Y-64199853D01*
X164654147Y-64074354D01*
X164555544Y-63926784D01*
X164487624Y-63762812D01*
X164453000Y-63588741D01*
X164453000Y-63411259D01*
X164487624Y-63237188D01*
X164555544Y-63073216D01*
X164654147Y-62925646D01*
X164779646Y-62800147D01*
X164927216Y-62701544D01*
X165091188Y-62633624D01*
X165240488Y-62603927D01*
X165265258Y-62599000D01*
X165442742Y-62599000D01*
X165467512Y-62603927D01*
G37*
G36*
X175992549Y-61609116D02*
G01*
X176103734Y-61631232D01*
X176313203Y-61717997D01*
X176501720Y-61843960D01*
X176662040Y-62004280D01*
X176788003Y-62192797D01*
X176788004Y-62192799D01*
X176874768Y-62402267D01*
X176919000Y-62624635D01*
X176919000Y-62851365D01*
X176904224Y-62925647D01*
X176874768Y-63073734D01*
X176788003Y-63283203D01*
X176662040Y-63471720D01*
X176501720Y-63632040D01*
X176313203Y-63758003D01*
X176313202Y-63758004D01*
X176313201Y-63758004D01*
X176301593Y-63762812D01*
X176103734Y-63844768D01*
X175992549Y-63866884D01*
X175881365Y-63889000D01*
X175654635Y-63889000D01*
X175543451Y-63866884D01*
X175432266Y-63844768D01*
X175234407Y-63762812D01*
X175222799Y-63758004D01*
X175222798Y-63758004D01*
X175222797Y-63758003D01*
X175034280Y-63632040D01*
X174873960Y-63471720D01*
X174747997Y-63283203D01*
X174661232Y-63073734D01*
X174631776Y-62925647D01*
X174617000Y-62851365D01*
X174617000Y-62624635D01*
X174661232Y-62402267D01*
X174747996Y-62192799D01*
X174747997Y-62192797D01*
X174873960Y-62004280D01*
X175034280Y-61843960D01*
X175222797Y-61717997D01*
X175432266Y-61631232D01*
X175543451Y-61609116D01*
X175654635Y-61587000D01*
X175881365Y-61587000D01*
X175992549Y-61609116D01*
G37*
G36*
X119096549Y-61609116D02*
G01*
X119207734Y-61631232D01*
X119417203Y-61717997D01*
X119605720Y-61843960D01*
X119766040Y-62004280D01*
X119892003Y-62192797D01*
X119892004Y-62192799D01*
X119978768Y-62402267D01*
X120023000Y-62624635D01*
X120023000Y-62851365D01*
X120008224Y-62925647D01*
X119978768Y-63073734D01*
X119892003Y-63283203D01*
X119766040Y-63471720D01*
X119605720Y-63632040D01*
X119417203Y-63758003D01*
X119417202Y-63758004D01*
X119417201Y-63758004D01*
X119405593Y-63762812D01*
X119207734Y-63844768D01*
X119096549Y-63866884D01*
X118985365Y-63889000D01*
X118758635Y-63889000D01*
X118647451Y-63866884D01*
X118536266Y-63844768D01*
X118338407Y-63762812D01*
X118326799Y-63758004D01*
X118326798Y-63758004D01*
X118326797Y-63758003D01*
X118138280Y-63632040D01*
X117977960Y-63471720D01*
X117851997Y-63283203D01*
X117765232Y-63073734D01*
X117735776Y-62925647D01*
X117721000Y-62851365D01*
X117721000Y-62624635D01*
X117765232Y-62402267D01*
X117851996Y-62192799D01*
X117851997Y-62192797D01*
X117977960Y-62004280D01*
X118138280Y-61843960D01*
X118326797Y-61717997D01*
X118536266Y-61631232D01*
X118647451Y-61609116D01*
X118758635Y-61587000D01*
X118985365Y-61587000D01*
X119096549Y-61609116D01*
G37*
M02*
