M48
; DRILL file {KiCad (5.1.5-0-10_14)} date Sunday, 04 October 2020 at 23:04:23
; FORMAT={-:-/ absolute / inch / decimal}
; #@! TF.CreationDate,2020-10-04T23:04:23+02:00
; #@! TF.GenerationSoftware,Kicad,Pcbnew,(5.1.5-0-10_14)
; #@! TF.FileFunction,Plated,1,2,PTH
FMAT,2
INCH
T1C0.0118
T2C0.0157
T3C0.0217
T4C0.0335
T5C0.0354
T6C0.0394
T7C0.1260
%
G90
G05
T1
X5.02Y-3.815
X5.02Y-3.925
X5.02Y-3.9536
X5.0204Y-2.695
X5.0204Y-2.975
X5.0204Y-3.255
X5.0204Y-3.535
X5.0304Y-4.095
X5.0304Y-4.375
X5.0304Y-4.655
X5.0393Y-3.895
X5.0586Y-3.865
X5.06Y-3.97
X5.0779Y-3.8389
X5.0793Y-3.995
X5.0972Y-3.8134
X5.24Y-3.11
X5.2482Y-4.935
X5.3907Y-3.0863
X5.3907Y-3.25
X5.41Y-2.969
X5.411Y-5.097
X5.412Y-2.863
X5.51Y-3.845
X5.51Y-4.065
X5.5293Y-3.95
X5.54Y-4.0332
X5.5534Y-3.9654
X5.555Y-3.895
X5.5768Y-3.9819
X5.5831Y-3.8893
X5.603Y-3.9936
X5.607Y-3.87
X5.755Y-3.935
X5.755Y-4.0447
X5.77Y-4.14
X5.77Y-4.205
X5.835Y-3.445
X5.84Y-2.8428
X5.8611Y-4.0139
X5.948Y-3.2689
X5.953Y-3.3012
X5.9566Y-3.8379
X5.957Y-3.239
X5.9666Y-3.8737
X5.9766Y-3.9089
X5.9866Y-3.9438
X5.9966Y-3.099
X5.9966Y-3.9723
X6.0066Y-3.256
X6.0066Y-4.0094
X6.0166Y-2.942
X6.0166Y-3.021
X6.0166Y-4.038
X6.0359Y-4.063
X6.036Y-2.862
X6.14Y-5.1
X6.1492Y-3.1772
X6.2554Y-4.2
X6.2584Y-4.0719
X6.5455Y-3.9658
X6.5508Y-3.9332
X6.562Y-3.56
X6.562Y-3.725
X6.5813Y-4.0062
X6.6085Y-3.942
X6.64Y-3.4512
X6.6807Y-3.96
X6.7Y-4.005
X6.7193Y-3.9794
T2
X5.27Y-4.54
X5.27Y-5.215
X5.2746Y-4.135
X5.28Y-3.5575
X5.3296Y-2.97
X5.3296Y-3.25
X5.808Y-3.575
X5.81Y-2.886
X5.81Y-3.105
X5.81Y-3.35
X5.8674Y-4.1153
X5.87Y-4.26
X6.0325Y-4.1411
X6.033Y-4.261
X6.367Y-3.095
X6.37Y-3.814
X6.37Y-4.375
X6.3704Y-3.285
X6.53Y-4.54
X6.53Y-5.13
T5
X4.685Y-4.655
X4.685Y-4.935
X4.785Y-4.935
X4.685Y-5.22
X4.785Y-5.22
X4.685Y-4.375
X4.685Y-4.095
X4.785Y-4.095
X4.685Y-3.815
X4.785Y-3.815
X4.685Y-3.535
X4.785Y-3.535
X4.685Y-3.255
X4.785Y-3.255
X4.685Y-2.695
X4.785Y-2.695
X4.785Y-4.375
X4.685Y-2.975
X4.785Y-2.975
X4.785Y-4.655
T6
X6.64Y-3.015
X6.64Y-3.1241
X6.64Y-3.2331
X6.64Y-3.3422
X6.64Y-3.4512
X6.64Y-3.5603
X6.64Y-3.6693
X6.64Y-3.7784
X6.64Y-3.8874
X6.64Y-3.9965
X6.64Y-4.1056
X6.64Y-4.2146
X6.64Y-4.3237
X6.7518Y-3.0695
X6.7518Y-3.1786
X6.7518Y-3.2876
X6.7518Y-3.3967
X6.7518Y-3.5057
X6.7518Y-3.6148
X6.7518Y-3.7239
X6.7518Y-3.8329
X6.7518Y-3.942
X6.7518Y-4.051
X6.7518Y-4.1601
X6.7518Y-4.2691
X6.51Y-2.5
X6.61Y-2.5
T7
X6.6959Y-2.7422
X6.6959Y-4.5965
T3
G00X6.971Y-4.9324
M15
G01X6.9966Y-4.9324
M16
G05
G00X6.971Y-5.2376
M15
G01X6.9966Y-5.2376
M16
G05
T4
G00X6.8233Y-4.9383
M15
G01X6.845Y-4.9383
M16
G05
G00X6.8233Y-5.2317
M15
G01X6.845Y-5.2317
M16
G05
T0
M30
