G04 #@! TF.GenerationSoftware,KiCad,Pcbnew,(5.1.5-0-10_14)*
G04 #@! TF.CreationDate,2020-08-28T20:46:08+02:00*
G04 #@! TF.ProjectId,wifi-modem,77696669-2d6d-46f6-9465-6d2e6b696361,rev?*
G04 #@! TF.SameCoordinates,Original*
G04 #@! TF.FileFunction,Legend,Top*
G04 #@! TF.FilePolarity,Positive*
%FSLAX46Y46*%
G04 Gerber Fmt 4.6, Leading zero omitted, Abs format (unit mm)*
G04 Created by KiCad (PCBNEW (5.1.5-0-10_14)) date 2020-08-28 20:46:08*
%MOMM*%
%LPD*%
G04 APERTURE LIST*
%ADD10C,0.250000*%
%ADD11C,0.120000*%
%ADD12C,0.150000*%
%ADD13C,0.127000*%
%ADD14C,0.200000*%
G04 APERTURE END LIST*
D10*
X129859642Y-136239857D02*
X130121547Y-137439857D01*
X130331071Y-136582714D01*
X130540595Y-137439857D01*
X130802500Y-136239857D01*
X131221547Y-137439857D02*
X131221547Y-136639857D01*
X131221547Y-136239857D02*
X131169166Y-136297000D01*
X131221547Y-136354142D01*
X131273928Y-136297000D01*
X131221547Y-136239857D01*
X131221547Y-136354142D01*
X132112023Y-136811285D02*
X131745357Y-136811285D01*
X131745357Y-137439857D02*
X131745357Y-136239857D01*
X132269166Y-136239857D01*
X132688214Y-137439857D02*
X132688214Y-136639857D01*
X132688214Y-136239857D02*
X132635833Y-136297000D01*
X132688214Y-136354142D01*
X132740595Y-136297000D01*
X132688214Y-136239857D01*
X132688214Y-136354142D01*
X134050119Y-137439857D02*
X134050119Y-136239857D01*
X134416785Y-137097000D01*
X134783452Y-136239857D01*
X134783452Y-137439857D01*
X135464404Y-137439857D02*
X135359642Y-137382714D01*
X135307261Y-137325571D01*
X135254880Y-137211285D01*
X135254880Y-136868428D01*
X135307261Y-136754142D01*
X135359642Y-136697000D01*
X135464404Y-136639857D01*
X135621547Y-136639857D01*
X135726309Y-136697000D01*
X135778690Y-136754142D01*
X135831071Y-136868428D01*
X135831071Y-137211285D01*
X135778690Y-137325571D01*
X135726309Y-137382714D01*
X135621547Y-137439857D01*
X135464404Y-137439857D01*
X136773928Y-137439857D02*
X136773928Y-136239857D01*
X136773928Y-137382714D02*
X136669166Y-137439857D01*
X136459642Y-137439857D01*
X136354880Y-137382714D01*
X136302500Y-137325571D01*
X136250119Y-137211285D01*
X136250119Y-136868428D01*
X136302500Y-136754142D01*
X136354880Y-136697000D01*
X136459642Y-136639857D01*
X136669166Y-136639857D01*
X136773928Y-136697000D01*
X137716785Y-137382714D02*
X137612023Y-137439857D01*
X137402500Y-137439857D01*
X137297738Y-137382714D01*
X137245357Y-137268428D01*
X137245357Y-136811285D01*
X137297738Y-136697000D01*
X137402500Y-136639857D01*
X137612023Y-136639857D01*
X137716785Y-136697000D01*
X137769166Y-136811285D01*
X137769166Y-136925571D01*
X137245357Y-137039857D01*
X138240595Y-137439857D02*
X138240595Y-136639857D01*
X138240595Y-136754142D02*
X138292976Y-136697000D01*
X138397738Y-136639857D01*
X138554880Y-136639857D01*
X138659642Y-136697000D01*
X138712023Y-136811285D01*
X138712023Y-137439857D01*
X138712023Y-136811285D02*
X138764404Y-136697000D01*
X138869166Y-136639857D01*
X139026309Y-136639857D01*
X139131071Y-136697000D01*
X139183452Y-136811285D01*
X139183452Y-137439857D01*
X130435833Y-138689857D02*
X130435833Y-139661285D01*
X130383452Y-139775571D01*
X130331071Y-139832714D01*
X130226309Y-139889857D01*
X130069166Y-139889857D01*
X129964404Y-139832714D01*
X130435833Y-139432714D02*
X130331071Y-139489857D01*
X130121547Y-139489857D01*
X130016785Y-139432714D01*
X129964404Y-139375571D01*
X129912023Y-139261285D01*
X129912023Y-138918428D01*
X129964404Y-138804142D01*
X130016785Y-138747000D01*
X130121547Y-138689857D01*
X130331071Y-138689857D01*
X130435833Y-138747000D01*
X130959642Y-139489857D02*
X130959642Y-138689857D01*
X130959642Y-138289857D02*
X130907261Y-138347000D01*
X130959642Y-138404142D01*
X131012023Y-138347000D01*
X130959642Y-138289857D01*
X130959642Y-138404142D01*
X131326309Y-138689857D02*
X131745357Y-138689857D01*
X131483452Y-138289857D02*
X131483452Y-139318428D01*
X131535833Y-139432714D01*
X131640595Y-139489857D01*
X131745357Y-139489857D01*
X132112023Y-139489857D02*
X132112023Y-138289857D01*
X132583452Y-139489857D02*
X132583452Y-138861285D01*
X132531071Y-138747000D01*
X132426309Y-138689857D01*
X132269166Y-138689857D01*
X132164404Y-138747000D01*
X132112023Y-138804142D01*
X133578690Y-138689857D02*
X133578690Y-139489857D01*
X133107261Y-138689857D02*
X133107261Y-139318428D01*
X133159642Y-139432714D01*
X133264404Y-139489857D01*
X133421547Y-139489857D01*
X133526309Y-139432714D01*
X133578690Y-139375571D01*
X134102500Y-139489857D02*
X134102500Y-138289857D01*
X134102500Y-138747000D02*
X134207261Y-138689857D01*
X134416785Y-138689857D01*
X134521547Y-138747000D01*
X134573928Y-138804142D01*
X134626309Y-138918428D01*
X134626309Y-139261285D01*
X134573928Y-139375571D01*
X134521547Y-139432714D01*
X134416785Y-139489857D01*
X134207261Y-139489857D01*
X134102500Y-139432714D01*
X135097738Y-139375571D02*
X135150119Y-139432714D01*
X135097738Y-139489857D01*
X135045357Y-139432714D01*
X135097738Y-139375571D01*
X135097738Y-139489857D01*
X136092976Y-139432714D02*
X135988214Y-139489857D01*
X135778690Y-139489857D01*
X135673928Y-139432714D01*
X135621547Y-139375571D01*
X135569166Y-139261285D01*
X135569166Y-138918428D01*
X135621547Y-138804142D01*
X135673928Y-138747000D01*
X135778690Y-138689857D01*
X135988214Y-138689857D01*
X136092976Y-138747000D01*
X136721547Y-139489857D02*
X136616785Y-139432714D01*
X136564404Y-139375571D01*
X136512023Y-139261285D01*
X136512023Y-138918428D01*
X136564404Y-138804142D01*
X136616785Y-138747000D01*
X136721547Y-138689857D01*
X136878690Y-138689857D01*
X136983452Y-138747000D01*
X137035833Y-138804142D01*
X137088214Y-138918428D01*
X137088214Y-139261285D01*
X137035833Y-139375571D01*
X136983452Y-139432714D01*
X136878690Y-139489857D01*
X136721547Y-139489857D01*
X137559642Y-139489857D02*
X137559642Y-138689857D01*
X137559642Y-138804142D02*
X137612023Y-138747000D01*
X137716785Y-138689857D01*
X137873928Y-138689857D01*
X137978690Y-138747000D01*
X138031071Y-138861285D01*
X138031071Y-139489857D01*
X138031071Y-138861285D02*
X138083452Y-138747000D01*
X138188214Y-138689857D01*
X138345357Y-138689857D01*
X138450119Y-138747000D01*
X138502500Y-138861285D01*
X138502500Y-139489857D01*
X139812023Y-138232714D02*
X138869166Y-139775571D01*
X140178690Y-139489857D02*
X140178690Y-138289857D01*
X140650119Y-139489857D02*
X140650119Y-138861285D01*
X140597738Y-138747000D01*
X140492976Y-138689857D01*
X140335833Y-138689857D01*
X140231071Y-138747000D01*
X140178690Y-138804142D01*
X141645357Y-139489857D02*
X141645357Y-138861285D01*
X141592976Y-138747000D01*
X141488214Y-138689857D01*
X141278690Y-138689857D01*
X141173928Y-138747000D01*
X141645357Y-139432714D02*
X141540595Y-139489857D01*
X141278690Y-139489857D01*
X141173928Y-139432714D01*
X141121547Y-139318428D01*
X141121547Y-139204142D01*
X141173928Y-139089857D01*
X141278690Y-139032714D01*
X141540595Y-139032714D01*
X141645357Y-138975571D01*
X142169166Y-138689857D02*
X142169166Y-139489857D01*
X142169166Y-138804142D02*
X142221547Y-138747000D01*
X142326309Y-138689857D01*
X142483452Y-138689857D01*
X142588214Y-138747000D01*
X142640595Y-138861285D01*
X142640595Y-139489857D01*
X143112023Y-139432714D02*
X143216785Y-139489857D01*
X143426309Y-139489857D01*
X143531071Y-139432714D01*
X143583452Y-139318428D01*
X143583452Y-139261285D01*
X143531071Y-139147000D01*
X143426309Y-139089857D01*
X143269166Y-139089857D01*
X143164404Y-139032714D01*
X143112023Y-138918428D01*
X143112023Y-138861285D01*
X143164404Y-138747000D01*
X143269166Y-138689857D01*
X143426309Y-138689857D01*
X143531071Y-138747000D01*
X144054880Y-139489857D02*
X144054880Y-138289857D01*
X144526309Y-139489857D02*
X144526309Y-138861285D01*
X144473928Y-138747000D01*
X144369166Y-138689857D01*
X144212023Y-138689857D01*
X144107261Y-138747000D01*
X144054880Y-138804142D01*
X145521547Y-138689857D02*
X145521547Y-139489857D01*
X145050119Y-138689857D02*
X145050119Y-139318428D01*
X145102500Y-139432714D01*
X145207261Y-139489857D01*
X145364404Y-139489857D01*
X145469166Y-139432714D01*
X145521547Y-139375571D01*
X146464404Y-139432714D02*
X146359642Y-139489857D01*
X146150119Y-139489857D01*
X146045357Y-139432714D01*
X145992976Y-139318428D01*
X145992976Y-138861285D01*
X146045357Y-138747000D01*
X146150119Y-138689857D01*
X146359642Y-138689857D01*
X146464404Y-138747000D01*
X146516785Y-138861285D01*
X146516785Y-138975571D01*
X145992976Y-139089857D01*
X146988214Y-139489857D02*
X146988214Y-138289857D01*
X146988214Y-138747000D02*
X147092976Y-138689857D01*
X147302500Y-138689857D01*
X147407261Y-138747000D01*
X147459642Y-138804142D01*
X147512023Y-138918428D01*
X147512023Y-139261285D01*
X147459642Y-139375571D01*
X147407261Y-139432714D01*
X147302500Y-139489857D01*
X147092976Y-139489857D01*
X146988214Y-139432714D01*
X147983452Y-138689857D02*
X147983452Y-139489857D01*
X147983452Y-138804142D02*
X148035833Y-138747000D01*
X148140595Y-138689857D01*
X148297738Y-138689857D01*
X148402500Y-138747000D01*
X148454880Y-138861285D01*
X148454880Y-139489857D01*
X149397738Y-139432714D02*
X149292976Y-139489857D01*
X149083452Y-139489857D01*
X148978690Y-139432714D01*
X148926309Y-139318428D01*
X148926309Y-138861285D01*
X148978690Y-138747000D01*
X149083452Y-138689857D01*
X149292976Y-138689857D01*
X149397738Y-138747000D01*
X149450119Y-138861285D01*
X149450119Y-138975571D01*
X148926309Y-139089857D01*
X149921547Y-139489857D02*
X149921547Y-138689857D01*
X149921547Y-138918428D02*
X149973928Y-138804142D01*
X150026309Y-138747000D01*
X150131071Y-138689857D01*
X150235833Y-138689857D01*
X151388214Y-138232714D02*
X150445357Y-139775571D01*
X151650119Y-138689857D02*
X151859642Y-139489857D01*
X152069166Y-138918428D01*
X152278690Y-139489857D01*
X152488214Y-138689857D01*
X152907261Y-139489857D02*
X152907261Y-138689857D01*
X152907261Y-138289857D02*
X152854880Y-138347000D01*
X152907261Y-138404142D01*
X152959642Y-138347000D01*
X152907261Y-138289857D01*
X152907261Y-138404142D01*
X153273928Y-138689857D02*
X153692976Y-138689857D01*
X153431071Y-139489857D02*
X153431071Y-138461285D01*
X153483452Y-138347000D01*
X153588214Y-138289857D01*
X153692976Y-138289857D01*
X154059642Y-139489857D02*
X154059642Y-138689857D01*
X154059642Y-138289857D02*
X154007261Y-138347000D01*
X154059642Y-138404142D01*
X154112023Y-138347000D01*
X154059642Y-138289857D01*
X154059642Y-138404142D01*
X154583452Y-139032714D02*
X155421547Y-139032714D01*
X155945357Y-139489857D02*
X155945357Y-138689857D01*
X155945357Y-138804142D02*
X155997738Y-138747000D01*
X156102500Y-138689857D01*
X156259642Y-138689857D01*
X156364404Y-138747000D01*
X156416785Y-138861285D01*
X156416785Y-139489857D01*
X156416785Y-138861285D02*
X156469166Y-138747000D01*
X156573928Y-138689857D01*
X156731071Y-138689857D01*
X156835833Y-138747000D01*
X156888214Y-138861285D01*
X156888214Y-139489857D01*
X157569166Y-139489857D02*
X157464404Y-139432714D01*
X157412023Y-139375571D01*
X157359642Y-139261285D01*
X157359642Y-138918428D01*
X157412023Y-138804142D01*
X157464404Y-138747000D01*
X157569166Y-138689857D01*
X157726309Y-138689857D01*
X157831071Y-138747000D01*
X157883452Y-138804142D01*
X157935833Y-138918428D01*
X157935833Y-139261285D01*
X157883452Y-139375571D01*
X157831071Y-139432714D01*
X157726309Y-139489857D01*
X157569166Y-139489857D01*
X158878690Y-139489857D02*
X158878690Y-138289857D01*
X158878690Y-139432714D02*
X158773928Y-139489857D01*
X158564404Y-139489857D01*
X158459642Y-139432714D01*
X158407261Y-139375571D01*
X158354880Y-139261285D01*
X158354880Y-138918428D01*
X158407261Y-138804142D01*
X158459642Y-138747000D01*
X158564404Y-138689857D01*
X158773928Y-138689857D01*
X158878690Y-138747000D01*
X159821547Y-139432714D02*
X159716785Y-139489857D01*
X159507261Y-139489857D01*
X159402500Y-139432714D01*
X159350119Y-139318428D01*
X159350119Y-138861285D01*
X159402500Y-138747000D01*
X159507261Y-138689857D01*
X159716785Y-138689857D01*
X159821547Y-138747000D01*
X159873928Y-138861285D01*
X159873928Y-138975571D01*
X159350119Y-139089857D01*
X160345357Y-139489857D02*
X160345357Y-138689857D01*
X160345357Y-138804142D02*
X160397738Y-138747000D01*
X160502500Y-138689857D01*
X160659642Y-138689857D01*
X160764404Y-138747000D01*
X160816785Y-138861285D01*
X160816785Y-139489857D01*
X160816785Y-138861285D02*
X160869166Y-138747000D01*
X160973928Y-138689857D01*
X161131071Y-138689857D01*
X161235833Y-138747000D01*
X161288214Y-138861285D01*
X161288214Y-139489857D01*
D11*
X140470000Y-71700000D02*
X139860000Y-71700000D01*
X140470000Y-71700000D02*
X140470000Y-64080000D01*
X140470000Y-88320000D02*
X140470000Y-87700000D01*
X142590000Y-88320000D02*
X140470000Y-88320000D01*
X156710000Y-88320000D02*
X154590000Y-88320000D01*
X156710000Y-87700000D02*
X156710000Y-88320000D01*
X156710000Y-64080000D02*
X156710000Y-71700000D01*
X140470000Y-64080000D02*
X156710000Y-64080000D01*
X169224000Y-62170000D02*
X169224000Y-63500000D01*
X167894000Y-62170000D02*
X169224000Y-62170000D01*
X166624000Y-62170000D02*
X166624000Y-64830000D01*
X166624000Y-64830000D02*
X164024000Y-64830000D01*
X166624000Y-62170000D02*
X164024000Y-62170000D01*
X164024000Y-62170000D02*
X164024000Y-64830000D01*
D12*
X173037800Y-127359000D02*
X173037800Y-126359000D01*
X173037800Y-130959000D02*
X173037800Y-131959000D01*
X172612800Y-130959000D02*
X173037800Y-130959000D01*
X172612800Y-130234000D02*
X172612800Y-130959000D01*
X176187800Y-125009000D02*
X174787800Y-125009000D01*
X178737800Y-125009000D02*
X178587800Y-125009000D01*
X178737800Y-125309000D02*
X178737800Y-125009000D01*
X179187800Y-125309000D02*
X178737800Y-125309000D01*
X178737800Y-133009000D02*
X179187800Y-133009000D01*
X178737800Y-133309000D02*
X178737800Y-133009000D01*
X178587800Y-133309000D02*
X178737800Y-133309000D01*
X174787800Y-133309000D02*
X176187800Y-133309000D01*
D11*
X166334675Y-76581000D02*
X165901662Y-76831000D01*
X165901662Y-76331000D02*
X166334675Y-76581000D01*
X165901662Y-76831000D02*
X165901662Y-76331000D01*
X166796000Y-66591000D02*
X179136000Y-66591000D01*
X166796000Y-119811000D02*
X166796000Y-66591000D01*
X179136000Y-119811000D02*
X166796000Y-119811000D01*
X163628000Y-69588748D02*
X163628000Y-70111252D01*
X165048000Y-69588748D02*
X165048000Y-70111252D01*
X156663000Y-134929000D02*
X163123000Y-134929000D01*
X156663000Y-130399000D02*
X156663000Y-132999000D01*
X156663000Y-128469000D02*
X163123000Y-128469000D01*
X163123000Y-130399000D02*
X163123000Y-132999000D01*
X156663000Y-128499000D02*
X156663000Y-128469000D01*
X156663000Y-134929000D02*
X156663000Y-134899000D01*
X163123000Y-134929000D02*
X163123000Y-134899000D01*
X163123000Y-128469000D02*
X163123000Y-128499000D01*
X141296000Y-134929000D02*
X147756000Y-134929000D01*
X141296000Y-130399000D02*
X141296000Y-132999000D01*
X141296000Y-128469000D02*
X147756000Y-128469000D01*
X147756000Y-130399000D02*
X147756000Y-132999000D01*
X141296000Y-128499000D02*
X141296000Y-128469000D01*
X141296000Y-134929000D02*
X141296000Y-134899000D01*
X147756000Y-134929000D02*
X147756000Y-134899000D01*
X147756000Y-128469000D02*
X147756000Y-128499000D01*
X160529748Y-79323000D02*
X161052252Y-79323000D01*
X160529748Y-77903000D02*
X161052252Y-77903000D01*
X160520748Y-84149000D02*
X161043252Y-84149000D01*
X160520748Y-82729000D02*
X161043252Y-82729000D01*
X160520748Y-88848000D02*
X161043252Y-88848000D01*
X160520748Y-87428000D02*
X161043252Y-87428000D01*
X136659252Y-74728000D02*
X136136748Y-74728000D01*
X136659252Y-76148000D02*
X136136748Y-76148000D01*
X136659252Y-81840000D02*
X136136748Y-81840000D01*
X136659252Y-83260000D02*
X136136748Y-83260000D01*
X131706252Y-103176000D02*
X131183748Y-103176000D01*
X131706252Y-104596000D02*
X131183748Y-104596000D01*
X141216748Y-91134000D02*
X141739252Y-91134000D01*
X141216748Y-89714000D02*
X141739252Y-89714000D01*
X147974000Y-118527000D02*
X147974000Y-112517000D01*
X154794000Y-116277000D02*
X154794000Y-112517000D01*
X147974000Y-112517000D02*
X149234000Y-112517000D01*
X154794000Y-112517000D02*
X153534000Y-112517000D01*
X131833252Y-124512000D02*
X131310748Y-124512000D01*
X131833252Y-125932000D02*
X131310748Y-125932000D01*
X131960252Y-131751000D02*
X131437748Y-131751000D01*
X131960252Y-133171000D02*
X131437748Y-133171000D01*
X122408000Y-130916000D02*
X122408000Y-134006000D01*
X127468000Y-132461000D02*
G75*
G03X127468000Y-132461000I-2500000J0D01*
G01*
X127958000Y-132460538D02*
G75*
G02X122408000Y-134005830I-2990000J-462D01*
G01*
X127958000Y-132461462D02*
G75*
G03X122408000Y-130916170I-2990000J462D01*
G01*
X122408000Y-123677000D02*
X122408000Y-126767000D01*
X127468000Y-125222000D02*
G75*
G03X127468000Y-125222000I-2500000J0D01*
G01*
X127958000Y-125221538D02*
G75*
G02X122408000Y-126766830I-2990000J-462D01*
G01*
X127958000Y-125222462D02*
G75*
G03X122408000Y-123677170I-2990000J462D01*
G01*
X161054148Y-109879200D02*
X161576652Y-109879200D01*
X161054148Y-108459200D02*
X161576652Y-108459200D01*
X143121748Y-107517000D02*
X143644252Y-107517000D01*
X143121748Y-106097000D02*
X143644252Y-106097000D01*
X151518252Y-107494000D02*
X150995748Y-107494000D01*
X151518252Y-108914000D02*
X150995748Y-108914000D01*
X143248748Y-102818000D02*
X143771252Y-102818000D01*
X143248748Y-101398000D02*
X143771252Y-101398000D01*
X161054148Y-105180200D02*
X161576652Y-105180200D01*
X161054148Y-103760200D02*
X161576652Y-103760200D01*
X142927000Y-116070748D02*
X142927000Y-116593252D01*
X144347000Y-116070748D02*
X144347000Y-116593252D01*
X138101000Y-116070748D02*
X138101000Y-116593252D01*
X139521000Y-116070748D02*
X139521000Y-116593252D01*
X162231000Y-116070748D02*
X162231000Y-116593252D01*
X163651000Y-116070748D02*
X163651000Y-116593252D01*
X157278000Y-116061748D02*
X157278000Y-116584252D01*
X158698000Y-116061748D02*
X158698000Y-116584252D01*
X122408000Y-116565000D02*
X122408000Y-119655000D01*
X127468000Y-118110000D02*
G75*
G03X127468000Y-118110000I-2500000J0D01*
G01*
X127958000Y-118109538D02*
G75*
G02X122408000Y-119654830I-2990000J-462D01*
G01*
X127958000Y-118110462D02*
G75*
G03X122408000Y-116565170I-2990000J462D01*
G01*
D13*
X153820000Y-96435000D02*
X148440000Y-96435000D01*
X153820000Y-106765000D02*
X148440000Y-106765000D01*
D14*
X156390000Y-106305000D02*
G75*
G03X156390000Y-106305000I-100000J0D01*
G01*
D11*
X131706252Y-117400000D02*
X131183748Y-117400000D01*
X131706252Y-118820000D02*
X131183748Y-118820000D01*
X131706252Y-110288000D02*
X131183748Y-110288000D01*
X131706252Y-111708000D02*
X131183748Y-111708000D01*
X131452252Y-96064000D02*
X130929748Y-96064000D01*
X131452252Y-97484000D02*
X130929748Y-97484000D01*
X131452252Y-88952000D02*
X130929748Y-88952000D01*
X131452252Y-90372000D02*
X130929748Y-90372000D01*
X131452252Y-81840000D02*
X130929748Y-81840000D01*
X131452252Y-83260000D02*
X130929748Y-83260000D01*
X131452252Y-74728000D02*
X130929748Y-74728000D01*
X131452252Y-76148000D02*
X130929748Y-76148000D01*
X131452252Y-67616000D02*
X130929748Y-67616000D01*
X131452252Y-69036000D02*
X130929748Y-69036000D01*
X122408000Y-109453000D02*
X122408000Y-112543000D01*
X127468000Y-110998000D02*
G75*
G03X127468000Y-110998000I-2500000J0D01*
G01*
X127958000Y-110997538D02*
G75*
G02X122408000Y-112542830I-2990000J-462D01*
G01*
X127958000Y-110998462D02*
G75*
G03X122408000Y-109453170I-2990000J462D01*
G01*
X122408000Y-102341000D02*
X122408000Y-105431000D01*
X127468000Y-103886000D02*
G75*
G03X127468000Y-103886000I-2500000J0D01*
G01*
X127958000Y-103885538D02*
G75*
G02X122408000Y-105430830I-2990000J-462D01*
G01*
X127958000Y-103886462D02*
G75*
G03X122408000Y-102341170I-2990000J462D01*
G01*
X122408000Y-95229000D02*
X122408000Y-98319000D01*
X127468000Y-96774000D02*
G75*
G03X127468000Y-96774000I-2500000J0D01*
G01*
X127958000Y-96773538D02*
G75*
G02X122408000Y-98318830I-2990000J-462D01*
G01*
X127958000Y-96774462D02*
G75*
G03X122408000Y-95229170I-2990000J462D01*
G01*
X122408000Y-88117000D02*
X122408000Y-91207000D01*
X127468000Y-89662000D02*
G75*
G03X127468000Y-89662000I-2500000J0D01*
G01*
X127958000Y-89661538D02*
G75*
G02X122408000Y-91206830I-2990000J-462D01*
G01*
X127958000Y-89662462D02*
G75*
G03X122408000Y-88117170I-2990000J462D01*
G01*
X122408000Y-81005000D02*
X122408000Y-84095000D01*
X127468000Y-82550000D02*
G75*
G03X127468000Y-82550000I-2500000J0D01*
G01*
X127958000Y-82549538D02*
G75*
G02X122408000Y-84094830I-2990000J-462D01*
G01*
X127958000Y-82550462D02*
G75*
G03X122408000Y-81005170I-2990000J462D01*
G01*
X122408000Y-73893000D02*
X122408000Y-76983000D01*
X127468000Y-75438000D02*
G75*
G03X127468000Y-75438000I-2500000J0D01*
G01*
X127958000Y-75437538D02*
G75*
G02X122408000Y-76982830I-2990000J-462D01*
G01*
X127958000Y-75438462D02*
G75*
G03X122408000Y-73893170I-2990000J462D01*
G01*
X122408000Y-66781000D02*
X122408000Y-69871000D01*
X127468000Y-68326000D02*
G75*
G03X127468000Y-68326000I-2500000J0D01*
G01*
X127958000Y-68325538D02*
G75*
G02X122408000Y-69870830I-2990000J-462D01*
G01*
X127958000Y-68326462D02*
G75*
G03X122408000Y-66781170I-2990000J462D01*
G01*
D12*
X147828095Y-74890380D02*
X147828095Y-75699904D01*
X147875714Y-75795142D01*
X147923333Y-75842761D01*
X148018571Y-75890380D01*
X148209047Y-75890380D01*
X148304285Y-75842761D01*
X148351904Y-75795142D01*
X148399523Y-75699904D01*
X148399523Y-74890380D01*
X149399523Y-75890380D02*
X148828095Y-75890380D01*
X149113809Y-75890380D02*
X149113809Y-74890380D01*
X149018571Y-75033238D01*
X148923333Y-75128476D01*
X148828095Y-75176095D01*
X146034523Y-77271571D02*
X146367857Y-77271571D01*
X146510714Y-77795380D02*
X146034523Y-77795380D01*
X146034523Y-76795380D01*
X146510714Y-76795380D01*
X146891666Y-77747761D02*
X147034523Y-77795380D01*
X147272619Y-77795380D01*
X147367857Y-77747761D01*
X147415476Y-77700142D01*
X147463095Y-77604904D01*
X147463095Y-77509666D01*
X147415476Y-77414428D01*
X147367857Y-77366809D01*
X147272619Y-77319190D01*
X147082142Y-77271571D01*
X146986904Y-77223952D01*
X146939285Y-77176333D01*
X146891666Y-77081095D01*
X146891666Y-76985857D01*
X146939285Y-76890619D01*
X146986904Y-76843000D01*
X147082142Y-76795380D01*
X147320238Y-76795380D01*
X147463095Y-76843000D01*
X147891666Y-77795380D02*
X147891666Y-76795380D01*
X148272619Y-76795380D01*
X148367857Y-76843000D01*
X148415476Y-76890619D01*
X148463095Y-76985857D01*
X148463095Y-77128714D01*
X148415476Y-77223952D01*
X148367857Y-77271571D01*
X148272619Y-77319190D01*
X147891666Y-77319190D01*
X148891666Y-77414428D02*
X149653571Y-77414428D01*
X150653571Y-77795380D02*
X150082142Y-77795380D01*
X150367857Y-77795380D02*
X150367857Y-76795380D01*
X150272619Y-76938238D01*
X150177380Y-77033476D01*
X150082142Y-77081095D01*
X151034523Y-76890619D02*
X151082142Y-76843000D01*
X151177380Y-76795380D01*
X151415476Y-76795380D01*
X151510714Y-76843000D01*
X151558333Y-76890619D01*
X151605952Y-76985857D01*
X151605952Y-77081095D01*
X151558333Y-77223952D01*
X150986904Y-77795380D01*
X151605952Y-77795380D01*
X152367857Y-77271571D02*
X152034523Y-77271571D01*
X152034523Y-77795380D02*
X152034523Y-76795380D01*
X152510714Y-76795380D01*
X163735095Y-61110761D02*
X163877952Y-61158380D01*
X164116047Y-61158380D01*
X164211285Y-61110761D01*
X164258904Y-61063142D01*
X164306523Y-60967904D01*
X164306523Y-60872666D01*
X164258904Y-60777428D01*
X164211285Y-60729809D01*
X164116047Y-60682190D01*
X163925571Y-60634571D01*
X163830333Y-60586952D01*
X163782714Y-60539333D01*
X163735095Y-60444095D01*
X163735095Y-60348857D01*
X163782714Y-60253619D01*
X163830333Y-60206000D01*
X163925571Y-60158380D01*
X164163666Y-60158380D01*
X164306523Y-60206000D01*
X164735095Y-60491714D02*
X164735095Y-61491714D01*
X164735095Y-60539333D02*
X164830333Y-60491714D01*
X165020809Y-60491714D01*
X165116047Y-60539333D01*
X165163666Y-60586952D01*
X165211285Y-60682190D01*
X165211285Y-60967904D01*
X165163666Y-61063142D01*
X165116047Y-61110761D01*
X165020809Y-61158380D01*
X164830333Y-61158380D01*
X164735095Y-61110761D01*
X166020809Y-61110761D02*
X165925571Y-61158380D01*
X165735095Y-61158380D01*
X165639857Y-61110761D01*
X165592238Y-61015523D01*
X165592238Y-60634571D01*
X165639857Y-60539333D01*
X165735095Y-60491714D01*
X165925571Y-60491714D01*
X166020809Y-60539333D01*
X166068428Y-60634571D01*
X166068428Y-60729809D01*
X165592238Y-60825047D01*
X166925571Y-61158380D02*
X166925571Y-60634571D01*
X166877952Y-60539333D01*
X166782714Y-60491714D01*
X166592238Y-60491714D01*
X166497000Y-60539333D01*
X166925571Y-61110761D02*
X166830333Y-61158380D01*
X166592238Y-61158380D01*
X166497000Y-61110761D01*
X166449380Y-61015523D01*
X166449380Y-60920285D01*
X166497000Y-60825047D01*
X166592238Y-60777428D01*
X166830333Y-60777428D01*
X166925571Y-60729809D01*
X167401761Y-61158380D02*
X167401761Y-60158380D01*
X167497000Y-60777428D02*
X167782714Y-61158380D01*
X167782714Y-60491714D02*
X167401761Y-60872666D01*
X168592238Y-61110761D02*
X168497000Y-61158380D01*
X168306523Y-61158380D01*
X168211285Y-61110761D01*
X168163666Y-61015523D01*
X168163666Y-60634571D01*
X168211285Y-60539333D01*
X168306523Y-60491714D01*
X168497000Y-60491714D01*
X168592238Y-60539333D01*
X168639857Y-60634571D01*
X168639857Y-60729809D01*
X168163666Y-60825047D01*
X169068428Y-61158380D02*
X169068428Y-60491714D01*
X169068428Y-60682190D02*
X169116047Y-60586952D01*
X169163666Y-60539333D01*
X169258904Y-60491714D01*
X169354142Y-60491714D01*
X167568809Y-129611380D02*
X167568809Y-128611380D01*
X167949761Y-128611380D01*
X168045000Y-128659000D01*
X168092619Y-128706619D01*
X168140238Y-128801857D01*
X168140238Y-128944714D01*
X168092619Y-129039952D01*
X168045000Y-129087571D01*
X167949761Y-129135190D01*
X167568809Y-129135190D01*
X168711666Y-129611380D02*
X168616428Y-129563761D01*
X168568809Y-129516142D01*
X168521190Y-129420904D01*
X168521190Y-129135190D01*
X168568809Y-129039952D01*
X168616428Y-128992333D01*
X168711666Y-128944714D01*
X168854523Y-128944714D01*
X168949761Y-128992333D01*
X168997380Y-129039952D01*
X169045000Y-129135190D01*
X169045000Y-129420904D01*
X168997380Y-129516142D01*
X168949761Y-129563761D01*
X168854523Y-129611380D01*
X168711666Y-129611380D01*
X169378333Y-128944714D02*
X169568809Y-129611380D01*
X169759285Y-129135190D01*
X169949761Y-129611380D01*
X170140238Y-128944714D01*
X170902142Y-129563761D02*
X170806904Y-129611380D01*
X170616428Y-129611380D01*
X170521190Y-129563761D01*
X170473571Y-129468523D01*
X170473571Y-129087571D01*
X170521190Y-128992333D01*
X170616428Y-128944714D01*
X170806904Y-128944714D01*
X170902142Y-128992333D01*
X170949761Y-129087571D01*
X170949761Y-129182809D01*
X170473571Y-129278047D01*
X171378333Y-129611380D02*
X171378333Y-128944714D01*
X171378333Y-129135190D02*
X171425952Y-129039952D01*
X171473571Y-128992333D01*
X171568809Y-128944714D01*
X171664047Y-128944714D01*
X161599761Y-93924380D02*
X161266428Y-93448190D01*
X161028333Y-93924380D02*
X161028333Y-92924380D01*
X161409285Y-92924380D01*
X161504523Y-92972000D01*
X161552142Y-93019619D01*
X161599761Y-93114857D01*
X161599761Y-93257714D01*
X161552142Y-93352952D01*
X161504523Y-93400571D01*
X161409285Y-93448190D01*
X161028333Y-93448190D01*
X161980714Y-93876761D02*
X162123571Y-93924380D01*
X162361666Y-93924380D01*
X162456904Y-93876761D01*
X162504523Y-93829142D01*
X162552142Y-93733904D01*
X162552142Y-93638666D01*
X162504523Y-93543428D01*
X162456904Y-93495809D01*
X162361666Y-93448190D01*
X162171190Y-93400571D01*
X162075952Y-93352952D01*
X162028333Y-93305333D01*
X161980714Y-93210095D01*
X161980714Y-93114857D01*
X162028333Y-93019619D01*
X162075952Y-92972000D01*
X162171190Y-92924380D01*
X162409285Y-92924380D01*
X162552142Y-92972000D01*
X162933095Y-93019619D02*
X162980714Y-92972000D01*
X163075952Y-92924380D01*
X163314047Y-92924380D01*
X163409285Y-92972000D01*
X163456904Y-93019619D01*
X163504523Y-93114857D01*
X163504523Y-93210095D01*
X163456904Y-93352952D01*
X162885476Y-93924380D01*
X163504523Y-93924380D01*
X163837857Y-92924380D02*
X164456904Y-92924380D01*
X164123571Y-93305333D01*
X164266428Y-93305333D01*
X164361666Y-93352952D01*
X164409285Y-93400571D01*
X164456904Y-93495809D01*
X164456904Y-93733904D01*
X164409285Y-93829142D01*
X164361666Y-93876761D01*
X164266428Y-93924380D01*
X163980714Y-93924380D01*
X163885476Y-93876761D01*
X163837857Y-93829142D01*
X164837857Y-93019619D02*
X164885476Y-92972000D01*
X164980714Y-92924380D01*
X165218809Y-92924380D01*
X165314047Y-92972000D01*
X165361666Y-93019619D01*
X165409285Y-93114857D01*
X165409285Y-93210095D01*
X165361666Y-93352952D01*
X164790238Y-93924380D01*
X165409285Y-93924380D01*
X164663380Y-74175857D02*
X164187190Y-74509190D01*
X164663380Y-74747285D02*
X163663380Y-74747285D01*
X163663380Y-74366333D01*
X163711000Y-74271095D01*
X163758619Y-74223476D01*
X163853857Y-74175857D01*
X163996714Y-74175857D01*
X164091952Y-74223476D01*
X164139571Y-74271095D01*
X164187190Y-74366333D01*
X164187190Y-74747285D01*
X164663380Y-73223476D02*
X164663380Y-73794904D01*
X164663380Y-73509190D02*
X163663380Y-73509190D01*
X163806238Y-73604428D01*
X163901476Y-73699666D01*
X163949095Y-73794904D01*
X163663380Y-72366333D02*
X163663380Y-72556809D01*
X163711000Y-72652047D01*
X163758619Y-72699666D01*
X163901476Y-72794904D01*
X164091952Y-72842523D01*
X164472904Y-72842523D01*
X164568142Y-72794904D01*
X164615761Y-72747285D01*
X164663380Y-72652047D01*
X164663380Y-72461571D01*
X164615761Y-72366333D01*
X164568142Y-72318714D01*
X164472904Y-72271095D01*
X164234809Y-72271095D01*
X164139571Y-72318714D01*
X164091952Y-72366333D01*
X164044333Y-72461571D01*
X164044333Y-72652047D01*
X164091952Y-72747285D01*
X164139571Y-72794904D01*
X164234809Y-72842523D01*
X163140380Y-71088095D02*
X163140380Y-71659523D01*
X163140380Y-71373809D02*
X162140380Y-71373809D01*
X162283238Y-71469047D01*
X162378476Y-71564285D01*
X162426095Y-71659523D01*
X162140380Y-70469047D02*
X162140380Y-70373809D01*
X162188000Y-70278571D01*
X162235619Y-70230952D01*
X162330857Y-70183333D01*
X162521333Y-70135714D01*
X162759428Y-70135714D01*
X162949904Y-70183333D01*
X163045142Y-70230952D01*
X163092761Y-70278571D01*
X163140380Y-70373809D01*
X163140380Y-70469047D01*
X163092761Y-70564285D01*
X163045142Y-70611904D01*
X162949904Y-70659523D01*
X162759428Y-70707142D01*
X162521333Y-70707142D01*
X162330857Y-70659523D01*
X162235619Y-70611904D01*
X162188000Y-70564285D01*
X162140380Y-70469047D01*
X162140380Y-69516666D02*
X162140380Y-69421428D01*
X162188000Y-69326190D01*
X162235619Y-69278571D01*
X162330857Y-69230952D01*
X162521333Y-69183333D01*
X162759428Y-69183333D01*
X162949904Y-69230952D01*
X163045142Y-69278571D01*
X163092761Y-69326190D01*
X163140380Y-69421428D01*
X163140380Y-69516666D01*
X163092761Y-69611904D01*
X163045142Y-69659523D01*
X162949904Y-69707142D01*
X162759428Y-69754761D01*
X162521333Y-69754761D01*
X162330857Y-69707142D01*
X162235619Y-69659523D01*
X162188000Y-69611904D01*
X162140380Y-69516666D01*
X163140380Y-68802380D02*
X163140380Y-68564285D01*
X162949904Y-68564285D01*
X162902285Y-68659523D01*
X162807047Y-68754761D01*
X162664190Y-68802380D01*
X162426095Y-68802380D01*
X162283238Y-68754761D01*
X162188000Y-68659523D01*
X162140380Y-68516666D01*
X162140380Y-68326190D01*
X162188000Y-68183333D01*
X162283238Y-68088095D01*
X162426095Y-68040476D01*
X162664190Y-68040476D01*
X162807047Y-68088095D01*
X162902285Y-68183333D01*
X162949904Y-68278571D01*
X163140380Y-68278571D01*
X163140380Y-68040476D01*
X158107285Y-136301380D02*
X158107285Y-135301380D01*
X158488238Y-135301380D01*
X158583476Y-135349000D01*
X158631095Y-135396619D01*
X158678714Y-135491857D01*
X158678714Y-135634714D01*
X158631095Y-135729952D01*
X158583476Y-135777571D01*
X158488238Y-135825190D01*
X158107285Y-135825190D01*
X159678714Y-136301380D02*
X159345380Y-135825190D01*
X159107285Y-136301380D02*
X159107285Y-135301380D01*
X159488238Y-135301380D01*
X159583476Y-135349000D01*
X159631095Y-135396619D01*
X159678714Y-135491857D01*
X159678714Y-135634714D01*
X159631095Y-135729952D01*
X159583476Y-135777571D01*
X159488238Y-135825190D01*
X159107285Y-135825190D01*
X160297761Y-135301380D02*
X160488238Y-135301380D01*
X160583476Y-135349000D01*
X160678714Y-135444238D01*
X160726333Y-135634714D01*
X160726333Y-135968047D01*
X160678714Y-136158523D01*
X160583476Y-136253761D01*
X160488238Y-136301380D01*
X160297761Y-136301380D01*
X160202523Y-136253761D01*
X160107285Y-136158523D01*
X160059666Y-135968047D01*
X160059666Y-135634714D01*
X160107285Y-135444238D01*
X160202523Y-135349000D01*
X160297761Y-135301380D01*
X161678714Y-135349000D02*
X161583476Y-135301380D01*
X161440619Y-135301380D01*
X161297761Y-135349000D01*
X161202523Y-135444238D01*
X161154904Y-135539476D01*
X161107285Y-135729952D01*
X161107285Y-135872809D01*
X161154904Y-136063285D01*
X161202523Y-136158523D01*
X161297761Y-136253761D01*
X161440619Y-136301380D01*
X161535857Y-136301380D01*
X161678714Y-136253761D01*
X161726333Y-136206142D01*
X161726333Y-135872809D01*
X161535857Y-135872809D01*
X143073619Y-136301380D02*
X142740285Y-135825190D01*
X142502190Y-136301380D02*
X142502190Y-135301380D01*
X142883142Y-135301380D01*
X142978380Y-135349000D01*
X143026000Y-135396619D01*
X143073619Y-135491857D01*
X143073619Y-135634714D01*
X143026000Y-135729952D01*
X142978380Y-135777571D01*
X142883142Y-135825190D01*
X142502190Y-135825190D01*
X143502190Y-135777571D02*
X143835523Y-135777571D01*
X143978380Y-136301380D02*
X143502190Y-136301380D01*
X143502190Y-135301380D01*
X143978380Y-135301380D01*
X144359333Y-136253761D02*
X144502190Y-136301380D01*
X144740285Y-136301380D01*
X144835523Y-136253761D01*
X144883142Y-136206142D01*
X144930761Y-136110904D01*
X144930761Y-136015666D01*
X144883142Y-135920428D01*
X144835523Y-135872809D01*
X144740285Y-135825190D01*
X144549809Y-135777571D01*
X144454571Y-135729952D01*
X144406952Y-135682333D01*
X144359333Y-135587095D01*
X144359333Y-135491857D01*
X144406952Y-135396619D01*
X144454571Y-135349000D01*
X144549809Y-135301380D01*
X144787904Y-135301380D01*
X144930761Y-135349000D01*
X145359333Y-135777571D02*
X145692666Y-135777571D01*
X145835523Y-136301380D02*
X145359333Y-136301380D01*
X145359333Y-135301380D01*
X145835523Y-135301380D01*
X146121238Y-135301380D02*
X146692666Y-135301380D01*
X146406952Y-136301380D02*
X146406952Y-135301380D01*
X160148142Y-77415380D02*
X159814809Y-76939190D01*
X159576714Y-77415380D02*
X159576714Y-76415380D01*
X159957666Y-76415380D01*
X160052904Y-76463000D01*
X160100523Y-76510619D01*
X160148142Y-76605857D01*
X160148142Y-76748714D01*
X160100523Y-76843952D01*
X160052904Y-76891571D01*
X159957666Y-76939190D01*
X159576714Y-76939190D01*
X161100523Y-77415380D02*
X160529095Y-77415380D01*
X160814809Y-77415380D02*
X160814809Y-76415380D01*
X160719571Y-76558238D01*
X160624333Y-76653476D01*
X160529095Y-76701095D01*
X162005285Y-76415380D02*
X161529095Y-76415380D01*
X161481476Y-76891571D01*
X161529095Y-76843952D01*
X161624333Y-76796333D01*
X161862428Y-76796333D01*
X161957666Y-76843952D01*
X162005285Y-76891571D01*
X162052904Y-76986809D01*
X162052904Y-77224904D01*
X162005285Y-77320142D01*
X161957666Y-77367761D01*
X161862428Y-77415380D01*
X161624333Y-77415380D01*
X161529095Y-77367761D01*
X161481476Y-77320142D01*
X159624333Y-80715380D02*
X159052904Y-80715380D01*
X159338619Y-80715380D02*
X159338619Y-79715380D01*
X159243380Y-79858238D01*
X159148142Y-79953476D01*
X159052904Y-80001095D01*
X160243380Y-79715380D02*
X160338619Y-79715380D01*
X160433857Y-79763000D01*
X160481476Y-79810619D01*
X160529095Y-79905857D01*
X160576714Y-80096333D01*
X160576714Y-80334428D01*
X160529095Y-80524904D01*
X160481476Y-80620142D01*
X160433857Y-80667761D01*
X160338619Y-80715380D01*
X160243380Y-80715380D01*
X160148142Y-80667761D01*
X160100523Y-80620142D01*
X160052904Y-80524904D01*
X160005285Y-80334428D01*
X160005285Y-80096333D01*
X160052904Y-79905857D01*
X160100523Y-79810619D01*
X160148142Y-79763000D01*
X160243380Y-79715380D01*
X161005285Y-80715380D02*
X161005285Y-79715380D01*
X161100523Y-80334428D02*
X161386238Y-80715380D01*
X161386238Y-80048714D02*
X161005285Y-80429666D01*
X161767190Y-80715380D02*
X162005285Y-80715380D01*
X162005285Y-80524904D01*
X161910047Y-80477285D01*
X161814809Y-80382047D01*
X161767190Y-80239190D01*
X161767190Y-80001095D01*
X161814809Y-79858238D01*
X161910047Y-79763000D01*
X162052904Y-79715380D01*
X162243380Y-79715380D01*
X162386238Y-79763000D01*
X162481476Y-79858238D01*
X162529095Y-80001095D01*
X162529095Y-80239190D01*
X162481476Y-80382047D01*
X162386238Y-80477285D01*
X162291000Y-80524904D01*
X162291000Y-80715380D01*
X162529095Y-80715380D01*
X160139142Y-82241380D02*
X159805809Y-81765190D01*
X159567714Y-82241380D02*
X159567714Y-81241380D01*
X159948666Y-81241380D01*
X160043904Y-81289000D01*
X160091523Y-81336619D01*
X160139142Y-81431857D01*
X160139142Y-81574714D01*
X160091523Y-81669952D01*
X160043904Y-81717571D01*
X159948666Y-81765190D01*
X159567714Y-81765190D01*
X161091523Y-82241380D02*
X160520095Y-82241380D01*
X160805809Y-82241380D02*
X160805809Y-81241380D01*
X160710571Y-81384238D01*
X160615333Y-81479476D01*
X160520095Y-81527095D01*
X161948666Y-81574714D02*
X161948666Y-82241380D01*
X161710571Y-81193761D02*
X161472476Y-81908047D01*
X162091523Y-81908047D01*
X159615333Y-85541380D02*
X159043904Y-85541380D01*
X159329619Y-85541380D02*
X159329619Y-84541380D01*
X159234380Y-84684238D01*
X159139142Y-84779476D01*
X159043904Y-84827095D01*
X160234380Y-84541380D02*
X160329619Y-84541380D01*
X160424857Y-84589000D01*
X160472476Y-84636619D01*
X160520095Y-84731857D01*
X160567714Y-84922333D01*
X160567714Y-85160428D01*
X160520095Y-85350904D01*
X160472476Y-85446142D01*
X160424857Y-85493761D01*
X160329619Y-85541380D01*
X160234380Y-85541380D01*
X160139142Y-85493761D01*
X160091523Y-85446142D01*
X160043904Y-85350904D01*
X159996285Y-85160428D01*
X159996285Y-84922333D01*
X160043904Y-84731857D01*
X160091523Y-84636619D01*
X160139142Y-84589000D01*
X160234380Y-84541380D01*
X160996285Y-85541380D02*
X160996285Y-84541380D01*
X161091523Y-85160428D02*
X161377238Y-85541380D01*
X161377238Y-84874714D02*
X160996285Y-85255666D01*
X161758190Y-85541380D02*
X161996285Y-85541380D01*
X161996285Y-85350904D01*
X161901047Y-85303285D01*
X161805809Y-85208047D01*
X161758190Y-85065190D01*
X161758190Y-84827095D01*
X161805809Y-84684238D01*
X161901047Y-84589000D01*
X162043904Y-84541380D01*
X162234380Y-84541380D01*
X162377238Y-84589000D01*
X162472476Y-84684238D01*
X162520095Y-84827095D01*
X162520095Y-85065190D01*
X162472476Y-85208047D01*
X162377238Y-85303285D01*
X162282000Y-85350904D01*
X162282000Y-85541380D01*
X162520095Y-85541380D01*
X160139142Y-86940380D02*
X159805809Y-86464190D01*
X159567714Y-86940380D02*
X159567714Y-85940380D01*
X159948666Y-85940380D01*
X160043904Y-85988000D01*
X160091523Y-86035619D01*
X160139142Y-86130857D01*
X160139142Y-86273714D01*
X160091523Y-86368952D01*
X160043904Y-86416571D01*
X159948666Y-86464190D01*
X159567714Y-86464190D01*
X161091523Y-86940380D02*
X160520095Y-86940380D01*
X160805809Y-86940380D02*
X160805809Y-85940380D01*
X160710571Y-86083238D01*
X160615333Y-86178476D01*
X160520095Y-86226095D01*
X161424857Y-85940380D02*
X162043904Y-85940380D01*
X161710571Y-86321333D01*
X161853428Y-86321333D01*
X161948666Y-86368952D01*
X161996285Y-86416571D01*
X162043904Y-86511809D01*
X162043904Y-86749904D01*
X161996285Y-86845142D01*
X161948666Y-86892761D01*
X161853428Y-86940380D01*
X161567714Y-86940380D01*
X161472476Y-86892761D01*
X161424857Y-86845142D01*
X159615333Y-90240380D02*
X159043904Y-90240380D01*
X159329619Y-90240380D02*
X159329619Y-89240380D01*
X159234380Y-89383238D01*
X159139142Y-89478476D01*
X159043904Y-89526095D01*
X160234380Y-89240380D02*
X160329619Y-89240380D01*
X160424857Y-89288000D01*
X160472476Y-89335619D01*
X160520095Y-89430857D01*
X160567714Y-89621333D01*
X160567714Y-89859428D01*
X160520095Y-90049904D01*
X160472476Y-90145142D01*
X160424857Y-90192761D01*
X160329619Y-90240380D01*
X160234380Y-90240380D01*
X160139142Y-90192761D01*
X160091523Y-90145142D01*
X160043904Y-90049904D01*
X159996285Y-89859428D01*
X159996285Y-89621333D01*
X160043904Y-89430857D01*
X160091523Y-89335619D01*
X160139142Y-89288000D01*
X160234380Y-89240380D01*
X160996285Y-90240380D02*
X160996285Y-89240380D01*
X161091523Y-89859428D02*
X161377238Y-90240380D01*
X161377238Y-89573714D02*
X160996285Y-89954666D01*
X161758190Y-90240380D02*
X161996285Y-90240380D01*
X161996285Y-90049904D01*
X161901047Y-90002285D01*
X161805809Y-89907047D01*
X161758190Y-89764190D01*
X161758190Y-89526095D01*
X161805809Y-89383238D01*
X161901047Y-89288000D01*
X162043904Y-89240380D01*
X162234380Y-89240380D01*
X162377238Y-89288000D01*
X162472476Y-89383238D01*
X162520095Y-89526095D01*
X162520095Y-89764190D01*
X162472476Y-89907047D01*
X162377238Y-90002285D01*
X162282000Y-90049904D01*
X162282000Y-90240380D01*
X162520095Y-90240380D01*
X135755142Y-77540380D02*
X135421809Y-77064190D01*
X135183714Y-77540380D02*
X135183714Y-76540380D01*
X135564666Y-76540380D01*
X135659904Y-76588000D01*
X135707523Y-76635619D01*
X135755142Y-76730857D01*
X135755142Y-76873714D01*
X135707523Y-76968952D01*
X135659904Y-77016571D01*
X135564666Y-77064190D01*
X135183714Y-77064190D01*
X136707523Y-77540380D02*
X136136095Y-77540380D01*
X136421809Y-77540380D02*
X136421809Y-76540380D01*
X136326571Y-76683238D01*
X136231333Y-76778476D01*
X136136095Y-76826095D01*
X137088476Y-76635619D02*
X137136095Y-76588000D01*
X137231333Y-76540380D01*
X137469428Y-76540380D01*
X137564666Y-76588000D01*
X137612285Y-76635619D01*
X137659904Y-76730857D01*
X137659904Y-76826095D01*
X137612285Y-76968952D01*
X137040857Y-77540380D01*
X137659904Y-77540380D01*
X135231333Y-74240380D02*
X134659904Y-74240380D01*
X134945619Y-74240380D02*
X134945619Y-73240380D01*
X134850380Y-73383238D01*
X134755142Y-73478476D01*
X134659904Y-73526095D01*
X135850380Y-73240380D02*
X135945619Y-73240380D01*
X136040857Y-73288000D01*
X136088476Y-73335619D01*
X136136095Y-73430857D01*
X136183714Y-73621333D01*
X136183714Y-73859428D01*
X136136095Y-74049904D01*
X136088476Y-74145142D01*
X136040857Y-74192761D01*
X135945619Y-74240380D01*
X135850380Y-74240380D01*
X135755142Y-74192761D01*
X135707523Y-74145142D01*
X135659904Y-74049904D01*
X135612285Y-73859428D01*
X135612285Y-73621333D01*
X135659904Y-73430857D01*
X135707523Y-73335619D01*
X135755142Y-73288000D01*
X135850380Y-73240380D01*
X136612285Y-74240380D02*
X136612285Y-73240380D01*
X136707523Y-73859428D02*
X136993238Y-74240380D01*
X136993238Y-73573714D02*
X136612285Y-73954666D01*
X137374190Y-74240380D02*
X137612285Y-74240380D01*
X137612285Y-74049904D01*
X137517047Y-74002285D01*
X137421809Y-73907047D01*
X137374190Y-73764190D01*
X137374190Y-73526095D01*
X137421809Y-73383238D01*
X137517047Y-73288000D01*
X137659904Y-73240380D01*
X137850380Y-73240380D01*
X137993238Y-73288000D01*
X138088476Y-73383238D01*
X138136095Y-73526095D01*
X138136095Y-73764190D01*
X138088476Y-73907047D01*
X137993238Y-74002285D01*
X137898000Y-74049904D01*
X137898000Y-74240380D01*
X138136095Y-74240380D01*
X135755142Y-84652380D02*
X135421809Y-84176190D01*
X135183714Y-84652380D02*
X135183714Y-83652380D01*
X135564666Y-83652380D01*
X135659904Y-83700000D01*
X135707523Y-83747619D01*
X135755142Y-83842857D01*
X135755142Y-83985714D01*
X135707523Y-84080952D01*
X135659904Y-84128571D01*
X135564666Y-84176190D01*
X135183714Y-84176190D01*
X136707523Y-84652380D02*
X136136095Y-84652380D01*
X136421809Y-84652380D02*
X136421809Y-83652380D01*
X136326571Y-83795238D01*
X136231333Y-83890476D01*
X136136095Y-83938095D01*
X137659904Y-84652380D02*
X137088476Y-84652380D01*
X137374190Y-84652380D02*
X137374190Y-83652380D01*
X137278952Y-83795238D01*
X137183714Y-83890476D01*
X137088476Y-83938095D01*
X135231333Y-81352380D02*
X134659904Y-81352380D01*
X134945619Y-81352380D02*
X134945619Y-80352380D01*
X134850380Y-80495238D01*
X134755142Y-80590476D01*
X134659904Y-80638095D01*
X135850380Y-80352380D02*
X135945619Y-80352380D01*
X136040857Y-80400000D01*
X136088476Y-80447619D01*
X136136095Y-80542857D01*
X136183714Y-80733333D01*
X136183714Y-80971428D01*
X136136095Y-81161904D01*
X136088476Y-81257142D01*
X136040857Y-81304761D01*
X135945619Y-81352380D01*
X135850380Y-81352380D01*
X135755142Y-81304761D01*
X135707523Y-81257142D01*
X135659904Y-81161904D01*
X135612285Y-80971428D01*
X135612285Y-80733333D01*
X135659904Y-80542857D01*
X135707523Y-80447619D01*
X135755142Y-80400000D01*
X135850380Y-80352380D01*
X136612285Y-81352380D02*
X136612285Y-80352380D01*
X136707523Y-80971428D02*
X136993238Y-81352380D01*
X136993238Y-80685714D02*
X136612285Y-81066666D01*
X137374190Y-81352380D02*
X137612285Y-81352380D01*
X137612285Y-81161904D01*
X137517047Y-81114285D01*
X137421809Y-81019047D01*
X137374190Y-80876190D01*
X137374190Y-80638095D01*
X137421809Y-80495238D01*
X137517047Y-80400000D01*
X137659904Y-80352380D01*
X137850380Y-80352380D01*
X137993238Y-80400000D01*
X138088476Y-80495238D01*
X138136095Y-80638095D01*
X138136095Y-80876190D01*
X138088476Y-81019047D01*
X137993238Y-81114285D01*
X137898000Y-81161904D01*
X137898000Y-81352380D01*
X138136095Y-81352380D01*
X130206904Y-102688380D02*
X129635476Y-102688380D01*
X129921190Y-102688380D02*
X129921190Y-101688380D01*
X129825952Y-101831238D01*
X129730714Y-101926476D01*
X129635476Y-101974095D01*
X131111666Y-101688380D02*
X130635476Y-101688380D01*
X130587857Y-102164571D01*
X130635476Y-102116952D01*
X130730714Y-102069333D01*
X130968809Y-102069333D01*
X131064047Y-102116952D01*
X131111666Y-102164571D01*
X131159285Y-102259809D01*
X131159285Y-102497904D01*
X131111666Y-102593142D01*
X131064047Y-102640761D01*
X130968809Y-102688380D01*
X130730714Y-102688380D01*
X130635476Y-102640761D01*
X130587857Y-102593142D01*
X131778333Y-101688380D02*
X131873571Y-101688380D01*
X131968809Y-101736000D01*
X132016428Y-101783619D01*
X132064047Y-101878857D01*
X132111666Y-102069333D01*
X132111666Y-102307428D01*
X132064047Y-102497904D01*
X132016428Y-102593142D01*
X131968809Y-102640761D01*
X131873571Y-102688380D01*
X131778333Y-102688380D01*
X131683095Y-102640761D01*
X131635476Y-102593142D01*
X131587857Y-102497904D01*
X131540238Y-102307428D01*
X131540238Y-102069333D01*
X131587857Y-101878857D01*
X131635476Y-101783619D01*
X131683095Y-101736000D01*
X131778333Y-101688380D01*
X132492619Y-102688380D02*
X132730714Y-102688380D01*
X132730714Y-102497904D01*
X132635476Y-102450285D01*
X132540238Y-102355047D01*
X132492619Y-102212190D01*
X132492619Y-101974095D01*
X132540238Y-101831238D01*
X132635476Y-101736000D01*
X132778333Y-101688380D01*
X132968809Y-101688380D01*
X133111666Y-101736000D01*
X133206904Y-101831238D01*
X133254523Y-101974095D01*
X133254523Y-102212190D01*
X133206904Y-102355047D01*
X133111666Y-102450285D01*
X133016428Y-102497904D01*
X133016428Y-102688380D01*
X133254523Y-102688380D01*
X137406142Y-90908142D02*
X137358523Y-90955761D01*
X137215666Y-91003380D01*
X137120428Y-91003380D01*
X136977571Y-90955761D01*
X136882333Y-90860523D01*
X136834714Y-90765285D01*
X136787095Y-90574809D01*
X136787095Y-90431952D01*
X136834714Y-90241476D01*
X136882333Y-90146238D01*
X136977571Y-90051000D01*
X137120428Y-90003380D01*
X137215666Y-90003380D01*
X137358523Y-90051000D01*
X137406142Y-90098619D01*
X138358523Y-91003380D02*
X137787095Y-91003380D01*
X138072809Y-91003380D02*
X138072809Y-90003380D01*
X137977571Y-90146238D01*
X137882333Y-90241476D01*
X137787095Y-90289095D01*
X138977571Y-90003380D02*
X139072809Y-90003380D01*
X139168047Y-90051000D01*
X139215666Y-90098619D01*
X139263285Y-90193857D01*
X139310904Y-90384333D01*
X139310904Y-90622428D01*
X139263285Y-90812904D01*
X139215666Y-90908142D01*
X139168047Y-90955761D01*
X139072809Y-91003380D01*
X138977571Y-91003380D01*
X138882333Y-90955761D01*
X138834714Y-90908142D01*
X138787095Y-90812904D01*
X138739476Y-90622428D01*
X138739476Y-90384333D01*
X138787095Y-90193857D01*
X138834714Y-90098619D01*
X138882333Y-90051000D01*
X138977571Y-90003380D01*
X139930380Y-92526380D02*
X139358952Y-92526380D01*
X139644666Y-92526380D02*
X139644666Y-91526380D01*
X139549428Y-91669238D01*
X139454190Y-91764476D01*
X139358952Y-91812095D01*
X140549428Y-91526380D02*
X140644666Y-91526380D01*
X140739904Y-91574000D01*
X140787523Y-91621619D01*
X140835142Y-91716857D01*
X140882761Y-91907333D01*
X140882761Y-92145428D01*
X140835142Y-92335904D01*
X140787523Y-92431142D01*
X140739904Y-92478761D01*
X140644666Y-92526380D01*
X140549428Y-92526380D01*
X140454190Y-92478761D01*
X140406571Y-92431142D01*
X140358952Y-92335904D01*
X140311333Y-92145428D01*
X140311333Y-91907333D01*
X140358952Y-91716857D01*
X140406571Y-91621619D01*
X140454190Y-91574000D01*
X140549428Y-91526380D01*
X141501809Y-91526380D02*
X141597047Y-91526380D01*
X141692285Y-91574000D01*
X141739904Y-91621619D01*
X141787523Y-91716857D01*
X141835142Y-91907333D01*
X141835142Y-92145428D01*
X141787523Y-92335904D01*
X141739904Y-92431142D01*
X141692285Y-92478761D01*
X141597047Y-92526380D01*
X141501809Y-92526380D01*
X141406571Y-92478761D01*
X141358952Y-92431142D01*
X141311333Y-92335904D01*
X141263714Y-92145428D01*
X141263714Y-91907333D01*
X141311333Y-91716857D01*
X141358952Y-91621619D01*
X141406571Y-91574000D01*
X141501809Y-91526380D01*
X142263714Y-91859714D02*
X142263714Y-92526380D01*
X142263714Y-91954952D02*
X142311333Y-91907333D01*
X142406571Y-91859714D01*
X142549428Y-91859714D01*
X142644666Y-91907333D01*
X142692285Y-92002571D01*
X142692285Y-92526380D01*
X143501809Y-92002571D02*
X143168476Y-92002571D01*
X143168476Y-92526380D02*
X143168476Y-91526380D01*
X143644666Y-91526380D01*
X147193095Y-119086380D02*
X147193095Y-119895904D01*
X147240714Y-119991142D01*
X147288333Y-120038761D01*
X147383571Y-120086380D01*
X147574047Y-120086380D01*
X147669285Y-120038761D01*
X147716904Y-119991142D01*
X147764523Y-119895904D01*
X147764523Y-119086380D01*
X148145476Y-119086380D02*
X148764523Y-119086380D01*
X148431190Y-119467333D01*
X148574047Y-119467333D01*
X148669285Y-119514952D01*
X148716904Y-119562571D01*
X148764523Y-119657809D01*
X148764523Y-119895904D01*
X148716904Y-119991142D01*
X148669285Y-120038761D01*
X148574047Y-120086380D01*
X148288333Y-120086380D01*
X148193095Y-120038761D01*
X148145476Y-119991142D01*
X147273000Y-121134166D02*
X147749190Y-121134166D01*
X147177761Y-121419880D02*
X147511095Y-120419880D01*
X147844428Y-121419880D01*
X148177761Y-121419880D02*
X148177761Y-120419880D01*
X148511095Y-121134166D01*
X148844428Y-120419880D01*
X148844428Y-121419880D01*
X149273000Y-121372261D02*
X149415857Y-121419880D01*
X149653952Y-121419880D01*
X149749190Y-121372261D01*
X149796809Y-121324642D01*
X149844428Y-121229404D01*
X149844428Y-121134166D01*
X149796809Y-121038928D01*
X149749190Y-120991309D01*
X149653952Y-120943690D01*
X149463476Y-120896071D01*
X149368238Y-120848452D01*
X149320619Y-120800833D01*
X149273000Y-120705595D01*
X149273000Y-120610357D01*
X149320619Y-120515119D01*
X149368238Y-120467500D01*
X149463476Y-120419880D01*
X149701571Y-120419880D01*
X149844428Y-120467500D01*
X150796809Y-121419880D02*
X150225380Y-121419880D01*
X150511095Y-121419880D02*
X150511095Y-120419880D01*
X150415857Y-120562738D01*
X150320619Y-120657976D01*
X150225380Y-120705595D01*
X151749190Y-121419880D02*
X151177761Y-121419880D01*
X151463476Y-121419880D02*
X151463476Y-120419880D01*
X151368238Y-120562738D01*
X151273000Y-120657976D01*
X151177761Y-120705595D01*
X152701571Y-121419880D02*
X152130142Y-121419880D01*
X152415857Y-121419880D02*
X152415857Y-120419880D01*
X152320619Y-120562738D01*
X152225380Y-120657976D01*
X152130142Y-120705595D01*
X153034904Y-120419880D02*
X153701571Y-120419880D01*
X153273000Y-121419880D01*
X154082523Y-121038928D02*
X154844428Y-121038928D01*
X155225380Y-120419880D02*
X155844428Y-120419880D01*
X155511095Y-120800833D01*
X155653952Y-120800833D01*
X155749190Y-120848452D01*
X155796809Y-120896071D01*
X155844428Y-120991309D01*
X155844428Y-121229404D01*
X155796809Y-121324642D01*
X155749190Y-121372261D01*
X155653952Y-121419880D01*
X155368238Y-121419880D01*
X155273000Y-121372261D01*
X155225380Y-121324642D01*
X156273000Y-121324642D02*
X156320619Y-121372261D01*
X156273000Y-121419880D01*
X156225380Y-121372261D01*
X156273000Y-121324642D01*
X156273000Y-121419880D01*
X156653952Y-120419880D02*
X157273000Y-120419880D01*
X156939666Y-120800833D01*
X157082523Y-120800833D01*
X157177761Y-120848452D01*
X157225380Y-120896071D01*
X157273000Y-120991309D01*
X157273000Y-121229404D01*
X157225380Y-121324642D01*
X157177761Y-121372261D01*
X157082523Y-121419880D01*
X156796809Y-121419880D01*
X156701571Y-121372261D01*
X156653952Y-121324642D01*
X130333904Y-124024380D02*
X129762476Y-124024380D01*
X130048190Y-124024380D02*
X130048190Y-123024380D01*
X129952952Y-123167238D01*
X129857714Y-123262476D01*
X129762476Y-123310095D01*
X131238666Y-123024380D02*
X130762476Y-123024380D01*
X130714857Y-123500571D01*
X130762476Y-123452952D01*
X130857714Y-123405333D01*
X131095809Y-123405333D01*
X131191047Y-123452952D01*
X131238666Y-123500571D01*
X131286285Y-123595809D01*
X131286285Y-123833904D01*
X131238666Y-123929142D01*
X131191047Y-123976761D01*
X131095809Y-124024380D01*
X130857714Y-124024380D01*
X130762476Y-123976761D01*
X130714857Y-123929142D01*
X131905333Y-123024380D02*
X132000571Y-123024380D01*
X132095809Y-123072000D01*
X132143428Y-123119619D01*
X132191047Y-123214857D01*
X132238666Y-123405333D01*
X132238666Y-123643428D01*
X132191047Y-123833904D01*
X132143428Y-123929142D01*
X132095809Y-123976761D01*
X132000571Y-124024380D01*
X131905333Y-124024380D01*
X131810095Y-123976761D01*
X131762476Y-123929142D01*
X131714857Y-123833904D01*
X131667238Y-123643428D01*
X131667238Y-123405333D01*
X131714857Y-123214857D01*
X131762476Y-123119619D01*
X131810095Y-123072000D01*
X131905333Y-123024380D01*
X132619619Y-124024380D02*
X132857714Y-124024380D01*
X132857714Y-123833904D01*
X132762476Y-123786285D01*
X132667238Y-123691047D01*
X132619619Y-123548190D01*
X132619619Y-123310095D01*
X132667238Y-123167238D01*
X132762476Y-123072000D01*
X132905333Y-123024380D01*
X133095809Y-123024380D01*
X133238666Y-123072000D01*
X133333904Y-123167238D01*
X133381523Y-123310095D01*
X133381523Y-123548190D01*
X133333904Y-123691047D01*
X133238666Y-123786285D01*
X133143428Y-123833904D01*
X133143428Y-124024380D01*
X133381523Y-124024380D01*
X130460904Y-131263380D02*
X129889476Y-131263380D01*
X130175190Y-131263380D02*
X130175190Y-130263380D01*
X130079952Y-130406238D01*
X129984714Y-130501476D01*
X129889476Y-130549095D01*
X131365666Y-130263380D02*
X130889476Y-130263380D01*
X130841857Y-130739571D01*
X130889476Y-130691952D01*
X130984714Y-130644333D01*
X131222809Y-130644333D01*
X131318047Y-130691952D01*
X131365666Y-130739571D01*
X131413285Y-130834809D01*
X131413285Y-131072904D01*
X131365666Y-131168142D01*
X131318047Y-131215761D01*
X131222809Y-131263380D01*
X130984714Y-131263380D01*
X130889476Y-131215761D01*
X130841857Y-131168142D01*
X132032333Y-130263380D02*
X132127571Y-130263380D01*
X132222809Y-130311000D01*
X132270428Y-130358619D01*
X132318047Y-130453857D01*
X132365666Y-130644333D01*
X132365666Y-130882428D01*
X132318047Y-131072904D01*
X132270428Y-131168142D01*
X132222809Y-131215761D01*
X132127571Y-131263380D01*
X132032333Y-131263380D01*
X131937095Y-131215761D01*
X131889476Y-131168142D01*
X131841857Y-131072904D01*
X131794238Y-130882428D01*
X131794238Y-130644333D01*
X131841857Y-130453857D01*
X131889476Y-130358619D01*
X131937095Y-130311000D01*
X132032333Y-130263380D01*
X132746619Y-131263380D02*
X132984714Y-131263380D01*
X132984714Y-131072904D01*
X132889476Y-131025285D01*
X132794238Y-130930047D01*
X132746619Y-130787190D01*
X132746619Y-130549095D01*
X132794238Y-130406238D01*
X132889476Y-130311000D01*
X133032333Y-130263380D01*
X133222809Y-130263380D01*
X133365666Y-130311000D01*
X133460904Y-130406238D01*
X133508523Y-130549095D01*
X133508523Y-130787190D01*
X133460904Y-130930047D01*
X133365666Y-131025285D01*
X133270428Y-131072904D01*
X133270428Y-131263380D01*
X133508523Y-131263380D01*
X116181476Y-132913380D02*
X116181476Y-131913380D01*
X116562428Y-131913380D01*
X116657666Y-131961000D01*
X116705285Y-132008619D01*
X116752904Y-132103857D01*
X116752904Y-132246714D01*
X116705285Y-132341952D01*
X116657666Y-132389571D01*
X116562428Y-132437190D01*
X116181476Y-132437190D01*
X117371952Y-131913380D02*
X117562428Y-131913380D01*
X117657666Y-131961000D01*
X117752904Y-132056238D01*
X117800523Y-132246714D01*
X117800523Y-132580047D01*
X117752904Y-132770523D01*
X117657666Y-132865761D01*
X117562428Y-132913380D01*
X117371952Y-132913380D01*
X117276714Y-132865761D01*
X117181476Y-132770523D01*
X117133857Y-132580047D01*
X117133857Y-132246714D01*
X117181476Y-132056238D01*
X117276714Y-131961000D01*
X117371952Y-131913380D01*
X118133857Y-131913380D02*
X118371952Y-132913380D01*
X118562428Y-132199095D01*
X118752904Y-132913380D01*
X118991000Y-131913380D01*
X119371952Y-132389571D02*
X119705285Y-132389571D01*
X119848142Y-132913380D02*
X119371952Y-132913380D01*
X119371952Y-131913380D01*
X119848142Y-131913380D01*
X120848142Y-132913380D02*
X120514809Y-132437190D01*
X120276714Y-132913380D02*
X120276714Y-131913380D01*
X120657666Y-131913380D01*
X120752904Y-131961000D01*
X120800523Y-132008619D01*
X120848142Y-132103857D01*
X120848142Y-132246714D01*
X120800523Y-132341952D01*
X120752904Y-132389571D01*
X120657666Y-132437190D01*
X120276714Y-132437190D01*
X116141809Y-125626761D02*
X116284666Y-125674380D01*
X116522761Y-125674380D01*
X116618000Y-125626761D01*
X116665619Y-125579142D01*
X116713238Y-125483904D01*
X116713238Y-125388666D01*
X116665619Y-125293428D01*
X116618000Y-125245809D01*
X116522761Y-125198190D01*
X116332285Y-125150571D01*
X116237047Y-125102952D01*
X116189428Y-125055333D01*
X116141809Y-124960095D01*
X116141809Y-124864857D01*
X116189428Y-124769619D01*
X116237047Y-124722000D01*
X116332285Y-124674380D01*
X116570380Y-124674380D01*
X116713238Y-124722000D01*
X116998952Y-124674380D02*
X117570380Y-124674380D01*
X117284666Y-125674380D02*
X117284666Y-124674380D01*
X117856095Y-125388666D02*
X118332285Y-125388666D01*
X117760857Y-125674380D02*
X118094190Y-124674380D01*
X118427523Y-125674380D01*
X118618000Y-124674380D02*
X119189428Y-124674380D01*
X118903714Y-125674380D02*
X118903714Y-124674380D01*
X119522761Y-124674380D02*
X119522761Y-125483904D01*
X119570380Y-125579142D01*
X119618000Y-125626761D01*
X119713238Y-125674380D01*
X119903714Y-125674380D01*
X119998952Y-125626761D01*
X120046571Y-125579142D01*
X120094190Y-125483904D01*
X120094190Y-124674380D01*
X120522761Y-125626761D02*
X120665619Y-125674380D01*
X120903714Y-125674380D01*
X120998952Y-125626761D01*
X121046571Y-125579142D01*
X121094190Y-125483904D01*
X121094190Y-125388666D01*
X121046571Y-125293428D01*
X120998952Y-125245809D01*
X120903714Y-125198190D01*
X120713238Y-125150571D01*
X120618000Y-125102952D01*
X120570380Y-125055333D01*
X120522761Y-124960095D01*
X120522761Y-124864857D01*
X120570380Y-124769619D01*
X120618000Y-124722000D01*
X120713238Y-124674380D01*
X120951333Y-124674380D01*
X121094190Y-124722000D01*
X161148733Y-107876342D02*
X161101114Y-107923961D01*
X160958257Y-107971580D01*
X160863019Y-107971580D01*
X160720161Y-107923961D01*
X160624923Y-107828723D01*
X160577304Y-107733485D01*
X160529685Y-107543009D01*
X160529685Y-107400152D01*
X160577304Y-107209676D01*
X160624923Y-107114438D01*
X160720161Y-107019200D01*
X160863019Y-106971580D01*
X160958257Y-106971580D01*
X161101114Y-107019200D01*
X161148733Y-107066819D01*
X161624923Y-107971580D02*
X161815400Y-107971580D01*
X161910638Y-107923961D01*
X161958257Y-107876342D01*
X162053495Y-107733485D01*
X162101114Y-107543009D01*
X162101114Y-107162057D01*
X162053495Y-107066819D01*
X162005876Y-107019200D01*
X161910638Y-106971580D01*
X161720161Y-106971580D01*
X161624923Y-107019200D01*
X161577304Y-107066819D01*
X161529685Y-107162057D01*
X161529685Y-107400152D01*
X161577304Y-107495390D01*
X161624923Y-107543009D01*
X161720161Y-107590628D01*
X161910638Y-107590628D01*
X162005876Y-107543009D01*
X162053495Y-107495390D01*
X162101114Y-107400152D01*
X159767780Y-111271580D02*
X159196352Y-111271580D01*
X159482066Y-111271580D02*
X159482066Y-110271580D01*
X159386828Y-110414438D01*
X159291590Y-110509676D01*
X159196352Y-110557295D01*
X160386828Y-110271580D02*
X160482066Y-110271580D01*
X160577304Y-110319200D01*
X160624923Y-110366819D01*
X160672542Y-110462057D01*
X160720161Y-110652533D01*
X160720161Y-110890628D01*
X160672542Y-111081104D01*
X160624923Y-111176342D01*
X160577304Y-111223961D01*
X160482066Y-111271580D01*
X160386828Y-111271580D01*
X160291590Y-111223961D01*
X160243971Y-111176342D01*
X160196352Y-111081104D01*
X160148733Y-110890628D01*
X160148733Y-110652533D01*
X160196352Y-110462057D01*
X160243971Y-110366819D01*
X160291590Y-110319200D01*
X160386828Y-110271580D01*
X161339209Y-110271580D02*
X161434447Y-110271580D01*
X161529685Y-110319200D01*
X161577304Y-110366819D01*
X161624923Y-110462057D01*
X161672542Y-110652533D01*
X161672542Y-110890628D01*
X161624923Y-111081104D01*
X161577304Y-111176342D01*
X161529685Y-111223961D01*
X161434447Y-111271580D01*
X161339209Y-111271580D01*
X161243971Y-111223961D01*
X161196352Y-111176342D01*
X161148733Y-111081104D01*
X161101114Y-110890628D01*
X161101114Y-110652533D01*
X161148733Y-110462057D01*
X161196352Y-110366819D01*
X161243971Y-110319200D01*
X161339209Y-110271580D01*
X162101114Y-110604914D02*
X162101114Y-111271580D01*
X162101114Y-110700152D02*
X162148733Y-110652533D01*
X162243971Y-110604914D01*
X162386828Y-110604914D01*
X162482066Y-110652533D01*
X162529685Y-110747771D01*
X162529685Y-111271580D01*
X163339209Y-110747771D02*
X163005876Y-110747771D01*
X163005876Y-111271580D02*
X163005876Y-110271580D01*
X163482066Y-110271580D01*
X143216333Y-105514142D02*
X143168714Y-105561761D01*
X143025857Y-105609380D01*
X142930619Y-105609380D01*
X142787761Y-105561761D01*
X142692523Y-105466523D01*
X142644904Y-105371285D01*
X142597285Y-105180809D01*
X142597285Y-105037952D01*
X142644904Y-104847476D01*
X142692523Y-104752238D01*
X142787761Y-104657000D01*
X142930619Y-104609380D01*
X143025857Y-104609380D01*
X143168714Y-104657000D01*
X143216333Y-104704619D01*
X143787761Y-105037952D02*
X143692523Y-104990333D01*
X143644904Y-104942714D01*
X143597285Y-104847476D01*
X143597285Y-104799857D01*
X143644904Y-104704619D01*
X143692523Y-104657000D01*
X143787761Y-104609380D01*
X143978238Y-104609380D01*
X144073476Y-104657000D01*
X144121095Y-104704619D01*
X144168714Y-104799857D01*
X144168714Y-104847476D01*
X144121095Y-104942714D01*
X144073476Y-104990333D01*
X143978238Y-105037952D01*
X143787761Y-105037952D01*
X143692523Y-105085571D01*
X143644904Y-105133190D01*
X143597285Y-105228428D01*
X143597285Y-105418904D01*
X143644904Y-105514142D01*
X143692523Y-105561761D01*
X143787761Y-105609380D01*
X143978238Y-105609380D01*
X144073476Y-105561761D01*
X144121095Y-105514142D01*
X144168714Y-105418904D01*
X144168714Y-105228428D01*
X144121095Y-105133190D01*
X144073476Y-105085571D01*
X143978238Y-105037952D01*
X141835380Y-108909380D02*
X141263952Y-108909380D01*
X141549666Y-108909380D02*
X141549666Y-107909380D01*
X141454428Y-108052238D01*
X141359190Y-108147476D01*
X141263952Y-108195095D01*
X142454428Y-107909380D02*
X142549666Y-107909380D01*
X142644904Y-107957000D01*
X142692523Y-108004619D01*
X142740142Y-108099857D01*
X142787761Y-108290333D01*
X142787761Y-108528428D01*
X142740142Y-108718904D01*
X142692523Y-108814142D01*
X142644904Y-108861761D01*
X142549666Y-108909380D01*
X142454428Y-108909380D01*
X142359190Y-108861761D01*
X142311571Y-108814142D01*
X142263952Y-108718904D01*
X142216333Y-108528428D01*
X142216333Y-108290333D01*
X142263952Y-108099857D01*
X142311571Y-108004619D01*
X142359190Y-107957000D01*
X142454428Y-107909380D01*
X143406809Y-107909380D02*
X143502047Y-107909380D01*
X143597285Y-107957000D01*
X143644904Y-108004619D01*
X143692523Y-108099857D01*
X143740142Y-108290333D01*
X143740142Y-108528428D01*
X143692523Y-108718904D01*
X143644904Y-108814142D01*
X143597285Y-108861761D01*
X143502047Y-108909380D01*
X143406809Y-108909380D01*
X143311571Y-108861761D01*
X143263952Y-108814142D01*
X143216333Y-108718904D01*
X143168714Y-108528428D01*
X143168714Y-108290333D01*
X143216333Y-108099857D01*
X143263952Y-108004619D01*
X143311571Y-107957000D01*
X143406809Y-107909380D01*
X144168714Y-108242714D02*
X144168714Y-108909380D01*
X144168714Y-108337952D02*
X144216333Y-108290333D01*
X144311571Y-108242714D01*
X144454428Y-108242714D01*
X144549666Y-108290333D01*
X144597285Y-108385571D01*
X144597285Y-108909380D01*
X145406809Y-108385571D02*
X145073476Y-108385571D01*
X145073476Y-108909380D02*
X145073476Y-107909380D01*
X145549666Y-107909380D01*
X147915333Y-108561142D02*
X147867714Y-108608761D01*
X147724857Y-108656380D01*
X147629619Y-108656380D01*
X147486761Y-108608761D01*
X147391523Y-108513523D01*
X147343904Y-108418285D01*
X147296285Y-108227809D01*
X147296285Y-108084952D01*
X147343904Y-107894476D01*
X147391523Y-107799238D01*
X147486761Y-107704000D01*
X147629619Y-107656380D01*
X147724857Y-107656380D01*
X147867714Y-107704000D01*
X147915333Y-107751619D01*
X148820095Y-107656380D02*
X148343904Y-107656380D01*
X148296285Y-108132571D01*
X148343904Y-108084952D01*
X148439142Y-108037333D01*
X148677238Y-108037333D01*
X148772476Y-108084952D01*
X148820095Y-108132571D01*
X148867714Y-108227809D01*
X148867714Y-108465904D01*
X148820095Y-108561142D01*
X148772476Y-108608761D01*
X148677238Y-108656380D01*
X148439142Y-108656380D01*
X148343904Y-108608761D01*
X148296285Y-108561142D01*
X154027380Y-108656380D02*
X153455952Y-108656380D01*
X153741666Y-108656380D02*
X153741666Y-107656380D01*
X153646428Y-107799238D01*
X153551190Y-107894476D01*
X153455952Y-107942095D01*
X154646428Y-107656380D02*
X154741666Y-107656380D01*
X154836904Y-107704000D01*
X154884523Y-107751619D01*
X154932142Y-107846857D01*
X154979761Y-108037333D01*
X154979761Y-108275428D01*
X154932142Y-108465904D01*
X154884523Y-108561142D01*
X154836904Y-108608761D01*
X154741666Y-108656380D01*
X154646428Y-108656380D01*
X154551190Y-108608761D01*
X154503571Y-108561142D01*
X154455952Y-108465904D01*
X154408333Y-108275428D01*
X154408333Y-108037333D01*
X154455952Y-107846857D01*
X154503571Y-107751619D01*
X154551190Y-107704000D01*
X154646428Y-107656380D01*
X155598809Y-107656380D02*
X155694047Y-107656380D01*
X155789285Y-107704000D01*
X155836904Y-107751619D01*
X155884523Y-107846857D01*
X155932142Y-108037333D01*
X155932142Y-108275428D01*
X155884523Y-108465904D01*
X155836904Y-108561142D01*
X155789285Y-108608761D01*
X155694047Y-108656380D01*
X155598809Y-108656380D01*
X155503571Y-108608761D01*
X155455952Y-108561142D01*
X155408333Y-108465904D01*
X155360714Y-108275428D01*
X155360714Y-108037333D01*
X155408333Y-107846857D01*
X155455952Y-107751619D01*
X155503571Y-107704000D01*
X155598809Y-107656380D01*
X156360714Y-107989714D02*
X156360714Y-108656380D01*
X156360714Y-108084952D02*
X156408333Y-108037333D01*
X156503571Y-107989714D01*
X156646428Y-107989714D01*
X156741666Y-108037333D01*
X156789285Y-108132571D01*
X156789285Y-108656380D01*
X157598809Y-108132571D02*
X157265476Y-108132571D01*
X157265476Y-108656380D02*
X157265476Y-107656380D01*
X157741666Y-107656380D01*
X143343333Y-100815142D02*
X143295714Y-100862761D01*
X143152857Y-100910380D01*
X143057619Y-100910380D01*
X142914761Y-100862761D01*
X142819523Y-100767523D01*
X142771904Y-100672285D01*
X142724285Y-100481809D01*
X142724285Y-100338952D01*
X142771904Y-100148476D01*
X142819523Y-100053238D01*
X142914761Y-99958000D01*
X143057619Y-99910380D01*
X143152857Y-99910380D01*
X143295714Y-99958000D01*
X143343333Y-100005619D01*
X143676666Y-99910380D02*
X144343333Y-99910380D01*
X143914761Y-100910380D01*
X141962380Y-104210380D02*
X141390952Y-104210380D01*
X141676666Y-104210380D02*
X141676666Y-103210380D01*
X141581428Y-103353238D01*
X141486190Y-103448476D01*
X141390952Y-103496095D01*
X142581428Y-103210380D02*
X142676666Y-103210380D01*
X142771904Y-103258000D01*
X142819523Y-103305619D01*
X142867142Y-103400857D01*
X142914761Y-103591333D01*
X142914761Y-103829428D01*
X142867142Y-104019904D01*
X142819523Y-104115142D01*
X142771904Y-104162761D01*
X142676666Y-104210380D01*
X142581428Y-104210380D01*
X142486190Y-104162761D01*
X142438571Y-104115142D01*
X142390952Y-104019904D01*
X142343333Y-103829428D01*
X142343333Y-103591333D01*
X142390952Y-103400857D01*
X142438571Y-103305619D01*
X142486190Y-103258000D01*
X142581428Y-103210380D01*
X143533809Y-103210380D02*
X143629047Y-103210380D01*
X143724285Y-103258000D01*
X143771904Y-103305619D01*
X143819523Y-103400857D01*
X143867142Y-103591333D01*
X143867142Y-103829428D01*
X143819523Y-104019904D01*
X143771904Y-104115142D01*
X143724285Y-104162761D01*
X143629047Y-104210380D01*
X143533809Y-104210380D01*
X143438571Y-104162761D01*
X143390952Y-104115142D01*
X143343333Y-104019904D01*
X143295714Y-103829428D01*
X143295714Y-103591333D01*
X143343333Y-103400857D01*
X143390952Y-103305619D01*
X143438571Y-103258000D01*
X143533809Y-103210380D01*
X144295714Y-103543714D02*
X144295714Y-104210380D01*
X144295714Y-103638952D02*
X144343333Y-103591333D01*
X144438571Y-103543714D01*
X144581428Y-103543714D01*
X144676666Y-103591333D01*
X144724285Y-103686571D01*
X144724285Y-104210380D01*
X145533809Y-103686571D02*
X145200476Y-103686571D01*
X145200476Y-104210380D02*
X145200476Y-103210380D01*
X145676666Y-103210380D01*
X161148733Y-103177342D02*
X161101114Y-103224961D01*
X160958257Y-103272580D01*
X160863019Y-103272580D01*
X160720161Y-103224961D01*
X160624923Y-103129723D01*
X160577304Y-103034485D01*
X160529685Y-102844009D01*
X160529685Y-102701152D01*
X160577304Y-102510676D01*
X160624923Y-102415438D01*
X160720161Y-102320200D01*
X160863019Y-102272580D01*
X160958257Y-102272580D01*
X161101114Y-102320200D01*
X161148733Y-102367819D01*
X162005876Y-102272580D02*
X161815400Y-102272580D01*
X161720161Y-102320200D01*
X161672542Y-102367819D01*
X161577304Y-102510676D01*
X161529685Y-102701152D01*
X161529685Y-103082104D01*
X161577304Y-103177342D01*
X161624923Y-103224961D01*
X161720161Y-103272580D01*
X161910638Y-103272580D01*
X162005876Y-103224961D01*
X162053495Y-103177342D01*
X162101114Y-103082104D01*
X162101114Y-102844009D01*
X162053495Y-102748771D01*
X162005876Y-102701152D01*
X161910638Y-102653533D01*
X161720161Y-102653533D01*
X161624923Y-102701152D01*
X161577304Y-102748771D01*
X161529685Y-102844009D01*
X159767780Y-106572580D02*
X159196352Y-106572580D01*
X159482066Y-106572580D02*
X159482066Y-105572580D01*
X159386828Y-105715438D01*
X159291590Y-105810676D01*
X159196352Y-105858295D01*
X160386828Y-105572580D02*
X160482066Y-105572580D01*
X160577304Y-105620200D01*
X160624923Y-105667819D01*
X160672542Y-105763057D01*
X160720161Y-105953533D01*
X160720161Y-106191628D01*
X160672542Y-106382104D01*
X160624923Y-106477342D01*
X160577304Y-106524961D01*
X160482066Y-106572580D01*
X160386828Y-106572580D01*
X160291590Y-106524961D01*
X160243971Y-106477342D01*
X160196352Y-106382104D01*
X160148733Y-106191628D01*
X160148733Y-105953533D01*
X160196352Y-105763057D01*
X160243971Y-105667819D01*
X160291590Y-105620200D01*
X160386828Y-105572580D01*
X161339209Y-105572580D02*
X161434447Y-105572580D01*
X161529685Y-105620200D01*
X161577304Y-105667819D01*
X161624923Y-105763057D01*
X161672542Y-105953533D01*
X161672542Y-106191628D01*
X161624923Y-106382104D01*
X161577304Y-106477342D01*
X161529685Y-106524961D01*
X161434447Y-106572580D01*
X161339209Y-106572580D01*
X161243971Y-106524961D01*
X161196352Y-106477342D01*
X161148733Y-106382104D01*
X161101114Y-106191628D01*
X161101114Y-105953533D01*
X161148733Y-105763057D01*
X161196352Y-105667819D01*
X161243971Y-105620200D01*
X161339209Y-105572580D01*
X162101114Y-105905914D02*
X162101114Y-106572580D01*
X162101114Y-106001152D02*
X162148733Y-105953533D01*
X162243971Y-105905914D01*
X162386828Y-105905914D01*
X162482066Y-105953533D01*
X162529685Y-106048771D01*
X162529685Y-106572580D01*
X163339209Y-106048771D02*
X163005876Y-106048771D01*
X163005876Y-106572580D02*
X163005876Y-105572580D01*
X163482066Y-105572580D01*
X143343333Y-114149142D02*
X143295714Y-114196761D01*
X143152857Y-114244380D01*
X143057619Y-114244380D01*
X142914761Y-114196761D01*
X142819523Y-114101523D01*
X142771904Y-114006285D01*
X142724285Y-113815809D01*
X142724285Y-113672952D01*
X142771904Y-113482476D01*
X142819523Y-113387238D01*
X142914761Y-113292000D01*
X143057619Y-113244380D01*
X143152857Y-113244380D01*
X143295714Y-113292000D01*
X143343333Y-113339619D01*
X144200476Y-113577714D02*
X144200476Y-114244380D01*
X143962380Y-113196761D02*
X143724285Y-113911047D01*
X144343333Y-113911047D01*
X142343380Y-119324380D02*
X141771952Y-119324380D01*
X142057666Y-119324380D02*
X142057666Y-118324380D01*
X141962428Y-118467238D01*
X141867190Y-118562476D01*
X141771952Y-118610095D01*
X142962428Y-118324380D02*
X143057666Y-118324380D01*
X143152904Y-118372000D01*
X143200523Y-118419619D01*
X143248142Y-118514857D01*
X143295761Y-118705333D01*
X143295761Y-118943428D01*
X143248142Y-119133904D01*
X143200523Y-119229142D01*
X143152904Y-119276761D01*
X143057666Y-119324380D01*
X142962428Y-119324380D01*
X142867190Y-119276761D01*
X142819571Y-119229142D01*
X142771952Y-119133904D01*
X142724333Y-118943428D01*
X142724333Y-118705333D01*
X142771952Y-118514857D01*
X142819571Y-118419619D01*
X142867190Y-118372000D01*
X142962428Y-118324380D01*
X143914809Y-118324380D02*
X144010047Y-118324380D01*
X144105285Y-118372000D01*
X144152904Y-118419619D01*
X144200523Y-118514857D01*
X144248142Y-118705333D01*
X144248142Y-118943428D01*
X144200523Y-119133904D01*
X144152904Y-119229142D01*
X144105285Y-119276761D01*
X144010047Y-119324380D01*
X143914809Y-119324380D01*
X143819571Y-119276761D01*
X143771952Y-119229142D01*
X143724333Y-119133904D01*
X143676714Y-118943428D01*
X143676714Y-118705333D01*
X143724333Y-118514857D01*
X143771952Y-118419619D01*
X143819571Y-118372000D01*
X143914809Y-118324380D01*
X144676714Y-118657714D02*
X144676714Y-119324380D01*
X144676714Y-118752952D02*
X144724333Y-118705333D01*
X144819571Y-118657714D01*
X144962428Y-118657714D01*
X145057666Y-118705333D01*
X145105285Y-118800571D01*
X145105285Y-119324380D01*
X145914809Y-118800571D02*
X145581476Y-118800571D01*
X145581476Y-119324380D02*
X145581476Y-118324380D01*
X146057666Y-118324380D01*
X138644333Y-114149142D02*
X138596714Y-114196761D01*
X138453857Y-114244380D01*
X138358619Y-114244380D01*
X138215761Y-114196761D01*
X138120523Y-114101523D01*
X138072904Y-114006285D01*
X138025285Y-113815809D01*
X138025285Y-113672952D01*
X138072904Y-113482476D01*
X138120523Y-113387238D01*
X138215761Y-113292000D01*
X138358619Y-113244380D01*
X138453857Y-113244380D01*
X138596714Y-113292000D01*
X138644333Y-113339619D01*
X138977666Y-113244380D02*
X139596714Y-113244380D01*
X139263380Y-113625333D01*
X139406238Y-113625333D01*
X139501476Y-113672952D01*
X139549095Y-113720571D01*
X139596714Y-113815809D01*
X139596714Y-114053904D01*
X139549095Y-114149142D01*
X139501476Y-114196761D01*
X139406238Y-114244380D01*
X139120523Y-114244380D01*
X139025285Y-114196761D01*
X138977666Y-114149142D01*
X137795142Y-119324380D02*
X137223714Y-119324380D01*
X137509428Y-119324380D02*
X137509428Y-118324380D01*
X137414190Y-118467238D01*
X137318952Y-118562476D01*
X137223714Y-118610095D01*
X138414190Y-118324380D02*
X138509428Y-118324380D01*
X138604666Y-118372000D01*
X138652285Y-118419619D01*
X138699904Y-118514857D01*
X138747523Y-118705333D01*
X138747523Y-118943428D01*
X138699904Y-119133904D01*
X138652285Y-119229142D01*
X138604666Y-119276761D01*
X138509428Y-119324380D01*
X138414190Y-119324380D01*
X138318952Y-119276761D01*
X138271333Y-119229142D01*
X138223714Y-119133904D01*
X138176095Y-118943428D01*
X138176095Y-118705333D01*
X138223714Y-118514857D01*
X138271333Y-118419619D01*
X138318952Y-118372000D01*
X138414190Y-118324380D01*
X139176095Y-118657714D02*
X139176095Y-119657714D01*
X139652285Y-119181523D02*
X139699904Y-119276761D01*
X139795142Y-119324380D01*
X139176095Y-119181523D02*
X139223714Y-119276761D01*
X139318952Y-119324380D01*
X139509428Y-119324380D01*
X139604666Y-119276761D01*
X139652285Y-119181523D01*
X139652285Y-118657714D01*
X140557047Y-118800571D02*
X140223714Y-118800571D01*
X140223714Y-119324380D02*
X140223714Y-118324380D01*
X140699904Y-118324380D01*
X162774333Y-114149142D02*
X162726714Y-114196761D01*
X162583857Y-114244380D01*
X162488619Y-114244380D01*
X162345761Y-114196761D01*
X162250523Y-114101523D01*
X162202904Y-114006285D01*
X162155285Y-113815809D01*
X162155285Y-113672952D01*
X162202904Y-113482476D01*
X162250523Y-113387238D01*
X162345761Y-113292000D01*
X162488619Y-113244380D01*
X162583857Y-113244380D01*
X162726714Y-113292000D01*
X162774333Y-113339619D01*
X163155285Y-113339619D02*
X163202904Y-113292000D01*
X163298142Y-113244380D01*
X163536238Y-113244380D01*
X163631476Y-113292000D01*
X163679095Y-113339619D01*
X163726714Y-113434857D01*
X163726714Y-113530095D01*
X163679095Y-113672952D01*
X163107666Y-114244380D01*
X163726714Y-114244380D01*
X161647380Y-119324380D02*
X161075952Y-119324380D01*
X161361666Y-119324380D02*
X161361666Y-118324380D01*
X161266428Y-118467238D01*
X161171190Y-118562476D01*
X161075952Y-118610095D01*
X162266428Y-118324380D02*
X162361666Y-118324380D01*
X162456904Y-118372000D01*
X162504523Y-118419619D01*
X162552142Y-118514857D01*
X162599761Y-118705333D01*
X162599761Y-118943428D01*
X162552142Y-119133904D01*
X162504523Y-119229142D01*
X162456904Y-119276761D01*
X162361666Y-119324380D01*
X162266428Y-119324380D01*
X162171190Y-119276761D01*
X162123571Y-119229142D01*
X162075952Y-119133904D01*
X162028333Y-118943428D01*
X162028333Y-118705333D01*
X162075952Y-118514857D01*
X162123571Y-118419619D01*
X162171190Y-118372000D01*
X162266428Y-118324380D01*
X163218809Y-118324380D02*
X163314047Y-118324380D01*
X163409285Y-118372000D01*
X163456904Y-118419619D01*
X163504523Y-118514857D01*
X163552142Y-118705333D01*
X163552142Y-118943428D01*
X163504523Y-119133904D01*
X163456904Y-119229142D01*
X163409285Y-119276761D01*
X163314047Y-119324380D01*
X163218809Y-119324380D01*
X163123571Y-119276761D01*
X163075952Y-119229142D01*
X163028333Y-119133904D01*
X162980714Y-118943428D01*
X162980714Y-118705333D01*
X163028333Y-118514857D01*
X163075952Y-118419619D01*
X163123571Y-118372000D01*
X163218809Y-118324380D01*
X163980714Y-118657714D02*
X163980714Y-119324380D01*
X163980714Y-118752952D02*
X164028333Y-118705333D01*
X164123571Y-118657714D01*
X164266428Y-118657714D01*
X164361666Y-118705333D01*
X164409285Y-118800571D01*
X164409285Y-119324380D01*
X165218809Y-118800571D02*
X164885476Y-118800571D01*
X164885476Y-119324380D02*
X164885476Y-118324380D01*
X165361666Y-118324380D01*
X157821333Y-114149142D02*
X157773714Y-114196761D01*
X157630857Y-114244380D01*
X157535619Y-114244380D01*
X157392761Y-114196761D01*
X157297523Y-114101523D01*
X157249904Y-114006285D01*
X157202285Y-113815809D01*
X157202285Y-113672952D01*
X157249904Y-113482476D01*
X157297523Y-113387238D01*
X157392761Y-113292000D01*
X157535619Y-113244380D01*
X157630857Y-113244380D01*
X157773714Y-113292000D01*
X157821333Y-113339619D01*
X158773714Y-114244380D02*
X158202285Y-114244380D01*
X158488000Y-114244380D02*
X158488000Y-113244380D01*
X158392761Y-113387238D01*
X158297523Y-113482476D01*
X158202285Y-113530095D01*
X156972142Y-119324380D02*
X156400714Y-119324380D01*
X156686428Y-119324380D02*
X156686428Y-118324380D01*
X156591190Y-118467238D01*
X156495952Y-118562476D01*
X156400714Y-118610095D01*
X157591190Y-118324380D02*
X157686428Y-118324380D01*
X157781666Y-118372000D01*
X157829285Y-118419619D01*
X157876904Y-118514857D01*
X157924523Y-118705333D01*
X157924523Y-118943428D01*
X157876904Y-119133904D01*
X157829285Y-119229142D01*
X157781666Y-119276761D01*
X157686428Y-119324380D01*
X157591190Y-119324380D01*
X157495952Y-119276761D01*
X157448333Y-119229142D01*
X157400714Y-119133904D01*
X157353095Y-118943428D01*
X157353095Y-118705333D01*
X157400714Y-118514857D01*
X157448333Y-118419619D01*
X157495952Y-118372000D01*
X157591190Y-118324380D01*
X158353095Y-118657714D02*
X158353095Y-119657714D01*
X158829285Y-119181523D02*
X158876904Y-119276761D01*
X158972142Y-119324380D01*
X158353095Y-119181523D02*
X158400714Y-119276761D01*
X158495952Y-119324380D01*
X158686428Y-119324380D01*
X158781666Y-119276761D01*
X158829285Y-119181523D01*
X158829285Y-118657714D01*
X159734047Y-118800571D02*
X159400714Y-118800571D01*
X159400714Y-119324380D02*
X159400714Y-118324380D01*
X159876904Y-118324380D01*
X120467428Y-118562380D02*
X120134095Y-118086190D01*
X119896000Y-118562380D02*
X119896000Y-117562380D01*
X120276952Y-117562380D01*
X120372190Y-117610000D01*
X120419809Y-117657619D01*
X120467428Y-117752857D01*
X120467428Y-117895714D01*
X120419809Y-117990952D01*
X120372190Y-118038571D01*
X120276952Y-118086190D01*
X119896000Y-118086190D01*
X120896000Y-118562380D02*
X120896000Y-117562380D01*
X149987095Y-92924380D02*
X149987095Y-93733904D01*
X150034714Y-93829142D01*
X150082333Y-93876761D01*
X150177571Y-93924380D01*
X150368047Y-93924380D01*
X150463285Y-93876761D01*
X150510904Y-93829142D01*
X150558523Y-93733904D01*
X150558523Y-92924380D01*
X150987095Y-93019619D02*
X151034714Y-92972000D01*
X151129952Y-92924380D01*
X151368047Y-92924380D01*
X151463285Y-92972000D01*
X151510904Y-93019619D01*
X151558523Y-93114857D01*
X151558523Y-93210095D01*
X151510904Y-93352952D01*
X150939476Y-93924380D01*
X151558523Y-93924380D01*
X146614142Y-95702380D02*
X146614142Y-94702380D01*
X146947476Y-95416666D01*
X147280809Y-94702380D01*
X147280809Y-95702380D01*
X147709380Y-95416666D02*
X148185571Y-95416666D01*
X147614142Y-95702380D02*
X147947476Y-94702380D01*
X148280809Y-95702380D01*
X148518904Y-94702380D02*
X149185571Y-95702380D01*
X149185571Y-94702380D02*
X148518904Y-95702380D01*
X149471285Y-94702380D02*
X150090333Y-94702380D01*
X149757000Y-95083333D01*
X149899857Y-95083333D01*
X149995095Y-95130952D01*
X150042714Y-95178571D01*
X150090333Y-95273809D01*
X150090333Y-95511904D01*
X150042714Y-95607142D01*
X149995095Y-95654761D01*
X149899857Y-95702380D01*
X149614142Y-95702380D01*
X149518904Y-95654761D01*
X149471285Y-95607142D01*
X150471285Y-94797619D02*
X150518904Y-94750000D01*
X150614142Y-94702380D01*
X150852238Y-94702380D01*
X150947476Y-94750000D01*
X150995095Y-94797619D01*
X151042714Y-94892857D01*
X151042714Y-94988095D01*
X150995095Y-95130952D01*
X150423666Y-95702380D01*
X151042714Y-95702380D01*
X151376047Y-94702380D02*
X151995095Y-94702380D01*
X151661761Y-95083333D01*
X151804619Y-95083333D01*
X151899857Y-95130952D01*
X151947476Y-95178571D01*
X151995095Y-95273809D01*
X151995095Y-95511904D01*
X151947476Y-95607142D01*
X151899857Y-95654761D01*
X151804619Y-95702380D01*
X151518904Y-95702380D01*
X151423666Y-95654761D01*
X151376047Y-95607142D01*
X152566523Y-95130952D02*
X152471285Y-95083333D01*
X152423666Y-95035714D01*
X152376047Y-94940476D01*
X152376047Y-94892857D01*
X152423666Y-94797619D01*
X152471285Y-94750000D01*
X152566523Y-94702380D01*
X152757000Y-94702380D01*
X152852238Y-94750000D01*
X152899857Y-94797619D01*
X152947476Y-94892857D01*
X152947476Y-94940476D01*
X152899857Y-95035714D01*
X152852238Y-95083333D01*
X152757000Y-95130952D01*
X152566523Y-95130952D01*
X152471285Y-95178571D01*
X152423666Y-95226190D01*
X152376047Y-95321428D01*
X152376047Y-95511904D01*
X152423666Y-95607142D01*
X152471285Y-95654761D01*
X152566523Y-95702380D01*
X152757000Y-95702380D01*
X152852238Y-95654761D01*
X152899857Y-95607142D01*
X152947476Y-95511904D01*
X152947476Y-95321428D01*
X152899857Y-95226190D01*
X152852238Y-95178571D01*
X152757000Y-95130952D01*
X153376047Y-95178571D02*
X153709380Y-95178571D01*
X153852238Y-95702380D02*
X153376047Y-95702380D01*
X153376047Y-94702380D01*
X153852238Y-94702380D01*
X154233190Y-95416666D02*
X154709380Y-95416666D01*
X154137952Y-95702380D02*
X154471285Y-94702380D01*
X154804619Y-95702380D01*
X155137952Y-95702380D02*
X155137952Y-94702380D01*
X155471285Y-94702380D02*
X156042714Y-94702380D01*
X155757000Y-95702380D02*
X155757000Y-94702380D01*
X130206904Y-116912380D02*
X129635476Y-116912380D01*
X129921190Y-116912380D02*
X129921190Y-115912380D01*
X129825952Y-116055238D01*
X129730714Y-116150476D01*
X129635476Y-116198095D01*
X131111666Y-115912380D02*
X130635476Y-115912380D01*
X130587857Y-116388571D01*
X130635476Y-116340952D01*
X130730714Y-116293333D01*
X130968809Y-116293333D01*
X131064047Y-116340952D01*
X131111666Y-116388571D01*
X131159285Y-116483809D01*
X131159285Y-116721904D01*
X131111666Y-116817142D01*
X131064047Y-116864761D01*
X130968809Y-116912380D01*
X130730714Y-116912380D01*
X130635476Y-116864761D01*
X130587857Y-116817142D01*
X131778333Y-115912380D02*
X131873571Y-115912380D01*
X131968809Y-115960000D01*
X132016428Y-116007619D01*
X132064047Y-116102857D01*
X132111666Y-116293333D01*
X132111666Y-116531428D01*
X132064047Y-116721904D01*
X132016428Y-116817142D01*
X131968809Y-116864761D01*
X131873571Y-116912380D01*
X131778333Y-116912380D01*
X131683095Y-116864761D01*
X131635476Y-116817142D01*
X131587857Y-116721904D01*
X131540238Y-116531428D01*
X131540238Y-116293333D01*
X131587857Y-116102857D01*
X131635476Y-116007619D01*
X131683095Y-115960000D01*
X131778333Y-115912380D01*
X132492619Y-116912380D02*
X132730714Y-116912380D01*
X132730714Y-116721904D01*
X132635476Y-116674285D01*
X132540238Y-116579047D01*
X132492619Y-116436190D01*
X132492619Y-116198095D01*
X132540238Y-116055238D01*
X132635476Y-115960000D01*
X132778333Y-115912380D01*
X132968809Y-115912380D01*
X133111666Y-115960000D01*
X133206904Y-116055238D01*
X133254523Y-116198095D01*
X133254523Y-116436190D01*
X133206904Y-116579047D01*
X133111666Y-116674285D01*
X133016428Y-116721904D01*
X133016428Y-116912380D01*
X133254523Y-116912380D01*
X130206904Y-109800380D02*
X129635476Y-109800380D01*
X129921190Y-109800380D02*
X129921190Y-108800380D01*
X129825952Y-108943238D01*
X129730714Y-109038476D01*
X129635476Y-109086095D01*
X131111666Y-108800380D02*
X130635476Y-108800380D01*
X130587857Y-109276571D01*
X130635476Y-109228952D01*
X130730714Y-109181333D01*
X130968809Y-109181333D01*
X131064047Y-109228952D01*
X131111666Y-109276571D01*
X131159285Y-109371809D01*
X131159285Y-109609904D01*
X131111666Y-109705142D01*
X131064047Y-109752761D01*
X130968809Y-109800380D01*
X130730714Y-109800380D01*
X130635476Y-109752761D01*
X130587857Y-109705142D01*
X131778333Y-108800380D02*
X131873571Y-108800380D01*
X131968809Y-108848000D01*
X132016428Y-108895619D01*
X132064047Y-108990857D01*
X132111666Y-109181333D01*
X132111666Y-109419428D01*
X132064047Y-109609904D01*
X132016428Y-109705142D01*
X131968809Y-109752761D01*
X131873571Y-109800380D01*
X131778333Y-109800380D01*
X131683095Y-109752761D01*
X131635476Y-109705142D01*
X131587857Y-109609904D01*
X131540238Y-109419428D01*
X131540238Y-109181333D01*
X131587857Y-108990857D01*
X131635476Y-108895619D01*
X131683095Y-108848000D01*
X131778333Y-108800380D01*
X132492619Y-109800380D02*
X132730714Y-109800380D01*
X132730714Y-109609904D01*
X132635476Y-109562285D01*
X132540238Y-109467047D01*
X132492619Y-109324190D01*
X132492619Y-109086095D01*
X132540238Y-108943238D01*
X132635476Y-108848000D01*
X132778333Y-108800380D01*
X132968809Y-108800380D01*
X133111666Y-108848000D01*
X133206904Y-108943238D01*
X133254523Y-109086095D01*
X133254523Y-109324190D01*
X133206904Y-109467047D01*
X133111666Y-109562285D01*
X133016428Y-109609904D01*
X133016428Y-109800380D01*
X133254523Y-109800380D01*
X129952904Y-95576380D02*
X129381476Y-95576380D01*
X129667190Y-95576380D02*
X129667190Y-94576380D01*
X129571952Y-94719238D01*
X129476714Y-94814476D01*
X129381476Y-94862095D01*
X130857666Y-94576380D02*
X130381476Y-94576380D01*
X130333857Y-95052571D01*
X130381476Y-95004952D01*
X130476714Y-94957333D01*
X130714809Y-94957333D01*
X130810047Y-95004952D01*
X130857666Y-95052571D01*
X130905285Y-95147809D01*
X130905285Y-95385904D01*
X130857666Y-95481142D01*
X130810047Y-95528761D01*
X130714809Y-95576380D01*
X130476714Y-95576380D01*
X130381476Y-95528761D01*
X130333857Y-95481142D01*
X131524333Y-94576380D02*
X131619571Y-94576380D01*
X131714809Y-94624000D01*
X131762428Y-94671619D01*
X131810047Y-94766857D01*
X131857666Y-94957333D01*
X131857666Y-95195428D01*
X131810047Y-95385904D01*
X131762428Y-95481142D01*
X131714809Y-95528761D01*
X131619571Y-95576380D01*
X131524333Y-95576380D01*
X131429095Y-95528761D01*
X131381476Y-95481142D01*
X131333857Y-95385904D01*
X131286238Y-95195428D01*
X131286238Y-94957333D01*
X131333857Y-94766857D01*
X131381476Y-94671619D01*
X131429095Y-94624000D01*
X131524333Y-94576380D01*
X132238619Y-95576380D02*
X132476714Y-95576380D01*
X132476714Y-95385904D01*
X132381476Y-95338285D01*
X132286238Y-95243047D01*
X132238619Y-95100190D01*
X132238619Y-94862095D01*
X132286238Y-94719238D01*
X132381476Y-94624000D01*
X132524333Y-94576380D01*
X132714809Y-94576380D01*
X132857666Y-94624000D01*
X132952904Y-94719238D01*
X133000523Y-94862095D01*
X133000523Y-95100190D01*
X132952904Y-95243047D01*
X132857666Y-95338285D01*
X132762428Y-95385904D01*
X132762428Y-95576380D01*
X133000523Y-95576380D01*
X129952904Y-88464380D02*
X129381476Y-88464380D01*
X129667190Y-88464380D02*
X129667190Y-87464380D01*
X129571952Y-87607238D01*
X129476714Y-87702476D01*
X129381476Y-87750095D01*
X130857666Y-87464380D02*
X130381476Y-87464380D01*
X130333857Y-87940571D01*
X130381476Y-87892952D01*
X130476714Y-87845333D01*
X130714809Y-87845333D01*
X130810047Y-87892952D01*
X130857666Y-87940571D01*
X130905285Y-88035809D01*
X130905285Y-88273904D01*
X130857666Y-88369142D01*
X130810047Y-88416761D01*
X130714809Y-88464380D01*
X130476714Y-88464380D01*
X130381476Y-88416761D01*
X130333857Y-88369142D01*
X131524333Y-87464380D02*
X131619571Y-87464380D01*
X131714809Y-87512000D01*
X131762428Y-87559619D01*
X131810047Y-87654857D01*
X131857666Y-87845333D01*
X131857666Y-88083428D01*
X131810047Y-88273904D01*
X131762428Y-88369142D01*
X131714809Y-88416761D01*
X131619571Y-88464380D01*
X131524333Y-88464380D01*
X131429095Y-88416761D01*
X131381476Y-88369142D01*
X131333857Y-88273904D01*
X131286238Y-88083428D01*
X131286238Y-87845333D01*
X131333857Y-87654857D01*
X131381476Y-87559619D01*
X131429095Y-87512000D01*
X131524333Y-87464380D01*
X132238619Y-88464380D02*
X132476714Y-88464380D01*
X132476714Y-88273904D01*
X132381476Y-88226285D01*
X132286238Y-88131047D01*
X132238619Y-87988190D01*
X132238619Y-87750095D01*
X132286238Y-87607238D01*
X132381476Y-87512000D01*
X132524333Y-87464380D01*
X132714809Y-87464380D01*
X132857666Y-87512000D01*
X132952904Y-87607238D01*
X133000523Y-87750095D01*
X133000523Y-87988190D01*
X132952904Y-88131047D01*
X132857666Y-88226285D01*
X132762428Y-88273904D01*
X132762428Y-88464380D01*
X133000523Y-88464380D01*
X129952904Y-81352380D02*
X129381476Y-81352380D01*
X129667190Y-81352380D02*
X129667190Y-80352380D01*
X129571952Y-80495238D01*
X129476714Y-80590476D01*
X129381476Y-80638095D01*
X130857666Y-80352380D02*
X130381476Y-80352380D01*
X130333857Y-80828571D01*
X130381476Y-80780952D01*
X130476714Y-80733333D01*
X130714809Y-80733333D01*
X130810047Y-80780952D01*
X130857666Y-80828571D01*
X130905285Y-80923809D01*
X130905285Y-81161904D01*
X130857666Y-81257142D01*
X130810047Y-81304761D01*
X130714809Y-81352380D01*
X130476714Y-81352380D01*
X130381476Y-81304761D01*
X130333857Y-81257142D01*
X131524333Y-80352380D02*
X131619571Y-80352380D01*
X131714809Y-80400000D01*
X131762428Y-80447619D01*
X131810047Y-80542857D01*
X131857666Y-80733333D01*
X131857666Y-80971428D01*
X131810047Y-81161904D01*
X131762428Y-81257142D01*
X131714809Y-81304761D01*
X131619571Y-81352380D01*
X131524333Y-81352380D01*
X131429095Y-81304761D01*
X131381476Y-81257142D01*
X131333857Y-81161904D01*
X131286238Y-80971428D01*
X131286238Y-80733333D01*
X131333857Y-80542857D01*
X131381476Y-80447619D01*
X131429095Y-80400000D01*
X131524333Y-80352380D01*
X132238619Y-81352380D02*
X132476714Y-81352380D01*
X132476714Y-81161904D01*
X132381476Y-81114285D01*
X132286238Y-81019047D01*
X132238619Y-80876190D01*
X132238619Y-80638095D01*
X132286238Y-80495238D01*
X132381476Y-80400000D01*
X132524333Y-80352380D01*
X132714809Y-80352380D01*
X132857666Y-80400000D01*
X132952904Y-80495238D01*
X133000523Y-80638095D01*
X133000523Y-80876190D01*
X132952904Y-81019047D01*
X132857666Y-81114285D01*
X132762428Y-81161904D01*
X132762428Y-81352380D01*
X133000523Y-81352380D01*
X129952904Y-74240380D02*
X129381476Y-74240380D01*
X129667190Y-74240380D02*
X129667190Y-73240380D01*
X129571952Y-73383238D01*
X129476714Y-73478476D01*
X129381476Y-73526095D01*
X130857666Y-73240380D02*
X130381476Y-73240380D01*
X130333857Y-73716571D01*
X130381476Y-73668952D01*
X130476714Y-73621333D01*
X130714809Y-73621333D01*
X130810047Y-73668952D01*
X130857666Y-73716571D01*
X130905285Y-73811809D01*
X130905285Y-74049904D01*
X130857666Y-74145142D01*
X130810047Y-74192761D01*
X130714809Y-74240380D01*
X130476714Y-74240380D01*
X130381476Y-74192761D01*
X130333857Y-74145142D01*
X131524333Y-73240380D02*
X131619571Y-73240380D01*
X131714809Y-73288000D01*
X131762428Y-73335619D01*
X131810047Y-73430857D01*
X131857666Y-73621333D01*
X131857666Y-73859428D01*
X131810047Y-74049904D01*
X131762428Y-74145142D01*
X131714809Y-74192761D01*
X131619571Y-74240380D01*
X131524333Y-74240380D01*
X131429095Y-74192761D01*
X131381476Y-74145142D01*
X131333857Y-74049904D01*
X131286238Y-73859428D01*
X131286238Y-73621333D01*
X131333857Y-73430857D01*
X131381476Y-73335619D01*
X131429095Y-73288000D01*
X131524333Y-73240380D01*
X132238619Y-74240380D02*
X132476714Y-74240380D01*
X132476714Y-74049904D01*
X132381476Y-74002285D01*
X132286238Y-73907047D01*
X132238619Y-73764190D01*
X132238619Y-73526095D01*
X132286238Y-73383238D01*
X132381476Y-73288000D01*
X132524333Y-73240380D01*
X132714809Y-73240380D01*
X132857666Y-73288000D01*
X132952904Y-73383238D01*
X133000523Y-73526095D01*
X133000523Y-73764190D01*
X132952904Y-73907047D01*
X132857666Y-74002285D01*
X132762428Y-74049904D01*
X132762428Y-74240380D01*
X133000523Y-74240380D01*
X129952904Y-67128380D02*
X129381476Y-67128380D01*
X129667190Y-67128380D02*
X129667190Y-66128380D01*
X129571952Y-66271238D01*
X129476714Y-66366476D01*
X129381476Y-66414095D01*
X130857666Y-66128380D02*
X130381476Y-66128380D01*
X130333857Y-66604571D01*
X130381476Y-66556952D01*
X130476714Y-66509333D01*
X130714809Y-66509333D01*
X130810047Y-66556952D01*
X130857666Y-66604571D01*
X130905285Y-66699809D01*
X130905285Y-66937904D01*
X130857666Y-67033142D01*
X130810047Y-67080761D01*
X130714809Y-67128380D01*
X130476714Y-67128380D01*
X130381476Y-67080761D01*
X130333857Y-67033142D01*
X131524333Y-66128380D02*
X131619571Y-66128380D01*
X131714809Y-66176000D01*
X131762428Y-66223619D01*
X131810047Y-66318857D01*
X131857666Y-66509333D01*
X131857666Y-66747428D01*
X131810047Y-66937904D01*
X131762428Y-67033142D01*
X131714809Y-67080761D01*
X131619571Y-67128380D01*
X131524333Y-67128380D01*
X131429095Y-67080761D01*
X131381476Y-67033142D01*
X131333857Y-66937904D01*
X131286238Y-66747428D01*
X131286238Y-66509333D01*
X131333857Y-66318857D01*
X131381476Y-66223619D01*
X131429095Y-66176000D01*
X131524333Y-66128380D01*
X132238619Y-67128380D02*
X132476714Y-67128380D01*
X132476714Y-66937904D01*
X132381476Y-66890285D01*
X132286238Y-66795047D01*
X132238619Y-66652190D01*
X132238619Y-66414095D01*
X132286238Y-66271238D01*
X132381476Y-66176000D01*
X132524333Y-66128380D01*
X132714809Y-66128380D01*
X132857666Y-66176000D01*
X132952904Y-66271238D01*
X133000523Y-66414095D01*
X133000523Y-66652190D01*
X132952904Y-66795047D01*
X132857666Y-66890285D01*
X132762428Y-66937904D01*
X132762428Y-67128380D01*
X133000523Y-67128380D01*
X120205523Y-111355142D02*
X120157904Y-111402761D01*
X120015047Y-111450380D01*
X119919809Y-111450380D01*
X119776952Y-111402761D01*
X119681714Y-111307523D01*
X119634095Y-111212285D01*
X119586476Y-111021809D01*
X119586476Y-110878952D01*
X119634095Y-110688476D01*
X119681714Y-110593238D01*
X119776952Y-110498000D01*
X119919809Y-110450380D01*
X120015047Y-110450380D01*
X120157904Y-110498000D01*
X120205523Y-110545619D01*
X120634095Y-111450380D02*
X120634095Y-110450380D01*
X120872190Y-110450380D01*
X121015047Y-110498000D01*
X121110285Y-110593238D01*
X121157904Y-110688476D01*
X121205523Y-110878952D01*
X121205523Y-111021809D01*
X121157904Y-111212285D01*
X121110285Y-111307523D01*
X121015047Y-111402761D01*
X120872190Y-111450380D01*
X120634095Y-111450380D01*
X118649904Y-104338380D02*
X118649904Y-103338380D01*
X118888000Y-103338380D01*
X119030857Y-103386000D01*
X119126095Y-103481238D01*
X119173714Y-103576476D01*
X119221333Y-103766952D01*
X119221333Y-103909809D01*
X119173714Y-104100285D01*
X119126095Y-104195523D01*
X119030857Y-104290761D01*
X118888000Y-104338380D01*
X118649904Y-104338380D01*
X119602285Y-104290761D02*
X119745142Y-104338380D01*
X119983238Y-104338380D01*
X120078476Y-104290761D01*
X120126095Y-104243142D01*
X120173714Y-104147904D01*
X120173714Y-104052666D01*
X120126095Y-103957428D01*
X120078476Y-103909809D01*
X119983238Y-103862190D01*
X119792761Y-103814571D01*
X119697523Y-103766952D01*
X119649904Y-103719333D01*
X119602285Y-103624095D01*
X119602285Y-103528857D01*
X119649904Y-103433619D01*
X119697523Y-103386000D01*
X119792761Y-103338380D01*
X120030857Y-103338380D01*
X120173714Y-103386000D01*
X121173714Y-104338380D02*
X120840380Y-103862190D01*
X120602285Y-104338380D02*
X120602285Y-103338380D01*
X120983238Y-103338380D01*
X121078476Y-103386000D01*
X121126095Y-103433619D01*
X121173714Y-103528857D01*
X121173714Y-103671714D01*
X121126095Y-103766952D01*
X121078476Y-103814571D01*
X120983238Y-103862190D01*
X120602285Y-103862190D01*
X118745142Y-97226380D02*
X118745142Y-96226380D01*
X118983238Y-96226380D01*
X119126095Y-96274000D01*
X119221333Y-96369238D01*
X119268952Y-96464476D01*
X119316571Y-96654952D01*
X119316571Y-96797809D01*
X119268952Y-96988285D01*
X119221333Y-97083523D01*
X119126095Y-97178761D01*
X118983238Y-97226380D01*
X118745142Y-97226380D01*
X119602285Y-96226380D02*
X120173714Y-96226380D01*
X119888000Y-97226380D02*
X119888000Y-96226380D01*
X121078476Y-97226380D02*
X120745142Y-96750190D01*
X120507047Y-97226380D02*
X120507047Y-96226380D01*
X120888000Y-96226380D01*
X120983238Y-96274000D01*
X121030857Y-96321619D01*
X121078476Y-96416857D01*
X121078476Y-96559714D01*
X121030857Y-96654952D01*
X120983238Y-96702571D01*
X120888000Y-96750190D01*
X120507047Y-96750190D01*
X119340380Y-90019142D02*
X119292761Y-90066761D01*
X119149904Y-90114380D01*
X119054666Y-90114380D01*
X118911809Y-90066761D01*
X118816571Y-89971523D01*
X118768952Y-89876285D01*
X118721333Y-89685809D01*
X118721333Y-89542952D01*
X118768952Y-89352476D01*
X118816571Y-89257238D01*
X118911809Y-89162000D01*
X119054666Y-89114380D01*
X119149904Y-89114380D01*
X119292761Y-89162000D01*
X119340380Y-89209619D01*
X119626095Y-89114380D02*
X120197523Y-89114380D01*
X119911809Y-90114380D02*
X119911809Y-89114380D01*
X120483238Y-90066761D02*
X120626095Y-90114380D01*
X120864190Y-90114380D01*
X120959428Y-90066761D01*
X121007047Y-90019142D01*
X121054666Y-89923904D01*
X121054666Y-89828666D01*
X121007047Y-89733428D01*
X120959428Y-89685809D01*
X120864190Y-89638190D01*
X120673714Y-89590571D01*
X120578476Y-89542952D01*
X120530857Y-89495333D01*
X120483238Y-89400095D01*
X120483238Y-89304857D01*
X120530857Y-89209619D01*
X120578476Y-89162000D01*
X120673714Y-89114380D01*
X120911809Y-89114380D01*
X121054666Y-89162000D01*
X119340380Y-83002380D02*
X119007047Y-82526190D01*
X118768952Y-83002380D02*
X118768952Y-82002380D01*
X119149904Y-82002380D01*
X119245142Y-82050000D01*
X119292761Y-82097619D01*
X119340380Y-82192857D01*
X119340380Y-82335714D01*
X119292761Y-82430952D01*
X119245142Y-82478571D01*
X119149904Y-82526190D01*
X118768952Y-82526190D01*
X119626095Y-82002380D02*
X120197523Y-82002380D01*
X119911809Y-83002380D02*
X119911809Y-82002380D01*
X120483238Y-82954761D02*
X120626095Y-83002380D01*
X120864190Y-83002380D01*
X120959428Y-82954761D01*
X121007047Y-82907142D01*
X121054666Y-82811904D01*
X121054666Y-82716666D01*
X121007047Y-82621428D01*
X120959428Y-82573809D01*
X120864190Y-82526190D01*
X120673714Y-82478571D01*
X120578476Y-82430952D01*
X120530857Y-82383333D01*
X120483238Y-82288095D01*
X120483238Y-82192857D01*
X120530857Y-82097619D01*
X120578476Y-82050000D01*
X120673714Y-82002380D01*
X120911809Y-82002380D01*
X121054666Y-82050000D01*
X118697523Y-74890380D02*
X119268952Y-74890380D01*
X118983238Y-75890380D02*
X118983238Y-74890380D01*
X119507047Y-75890380D02*
X120030857Y-75223714D01*
X119507047Y-75223714D02*
X120030857Y-75890380D01*
X120411809Y-75890380D02*
X120411809Y-74890380D01*
X120649904Y-74890380D01*
X120792761Y-74938000D01*
X120888000Y-75033238D01*
X120935619Y-75128476D01*
X120983238Y-75318952D01*
X120983238Y-75461809D01*
X120935619Y-75652285D01*
X120888000Y-75747523D01*
X120792761Y-75842761D01*
X120649904Y-75890380D01*
X120411809Y-75890380D01*
X119292761Y-68778380D02*
X118959428Y-68302190D01*
X118721333Y-68778380D02*
X118721333Y-67778380D01*
X119102285Y-67778380D01*
X119197523Y-67826000D01*
X119245142Y-67873619D01*
X119292761Y-67968857D01*
X119292761Y-68111714D01*
X119245142Y-68206952D01*
X119197523Y-68254571D01*
X119102285Y-68302190D01*
X118721333Y-68302190D01*
X119626095Y-68778380D02*
X120149904Y-68111714D01*
X119626095Y-68111714D02*
X120149904Y-68778380D01*
X120530857Y-68778380D02*
X120530857Y-67778380D01*
X120768952Y-67778380D01*
X120911809Y-67826000D01*
X121007047Y-67921238D01*
X121054666Y-68016476D01*
X121102285Y-68206952D01*
X121102285Y-68349809D01*
X121054666Y-68540285D01*
X121007047Y-68635523D01*
X120911809Y-68730761D01*
X120768952Y-68778380D01*
X120530857Y-68778380D01*
M02*
