G04 #@! TF.GenerationSoftware,KiCad,Pcbnew,(5.1.5-0-10_14)*
G04 #@! TF.CreationDate,2020-08-28T20:46:08+02:00*
G04 #@! TF.ProjectId,wifi-modem,77696669-2d6d-46f6-9465-6d2e6b696361,rev?*
G04 #@! TF.SameCoordinates,Original*
G04 #@! TF.FileFunction,Paste,Top*
G04 #@! TF.FilePolarity,Positive*
%FSLAX46Y46*%
G04 Gerber Fmt 4.6, Leading zero omitted, Abs format (unit mm)*
G04 Created by KiCad (PCBNEW (5.1.5-0-10_14)) date 2020-08-28 20:46:08*
%MOMM*%
%LPD*%
G04 APERTURE LIST*
%ADD10R,2.500000X1.000000*%
%ADD11R,1.000000X1.800000*%
%ADD12R,1.300000X0.450000*%
%ADD13C,0.100000*%
%ADD14R,1.550000X1.300000*%
%ADD15R,1.500000X2.000000*%
%ADD16R,3.800000X2.000000*%
%ADD17R,1.700000X0.480000*%
G04 APERTURE END LIST*
D10*
X156190000Y-72700000D03*
X156190000Y-74700000D03*
X156190000Y-76700000D03*
X156190000Y-78700000D03*
X156190000Y-80700000D03*
X156190000Y-82700000D03*
X156190000Y-84700000D03*
X156190000Y-86700000D03*
D11*
X153590000Y-88200000D03*
X151590000Y-88200000D03*
X149590000Y-88200000D03*
X147590000Y-88200000D03*
X145590000Y-88200000D03*
X143590000Y-88200000D03*
D10*
X140990000Y-86700000D03*
X140990000Y-84700000D03*
X140990000Y-82700000D03*
X140990000Y-80700000D03*
X140990000Y-78700000D03*
X140990000Y-76700000D03*
X140990000Y-74700000D03*
X140990000Y-72700000D03*
D12*
X173537800Y-127859000D03*
X173537800Y-128509000D03*
X173537800Y-129159000D03*
X173537800Y-129809000D03*
X173537800Y-130459000D03*
D13*
G36*
X164812505Y-70301204D02*
G01*
X164836773Y-70304804D01*
X164860572Y-70310765D01*
X164883671Y-70319030D01*
X164905850Y-70329520D01*
X164926893Y-70342132D01*
X164946599Y-70356747D01*
X164964777Y-70373223D01*
X164981253Y-70391401D01*
X164995868Y-70411107D01*
X165008480Y-70432150D01*
X165018970Y-70454329D01*
X165027235Y-70477428D01*
X165033196Y-70501227D01*
X165036796Y-70525495D01*
X165038000Y-70549999D01*
X165038000Y-71200001D01*
X165036796Y-71224505D01*
X165033196Y-71248773D01*
X165027235Y-71272572D01*
X165018970Y-71295671D01*
X165008480Y-71317850D01*
X164995868Y-71338893D01*
X164981253Y-71358599D01*
X164964777Y-71376777D01*
X164946599Y-71393253D01*
X164926893Y-71407868D01*
X164905850Y-71420480D01*
X164883671Y-71430970D01*
X164860572Y-71439235D01*
X164836773Y-71445196D01*
X164812505Y-71448796D01*
X164788001Y-71450000D01*
X163887999Y-71450000D01*
X163863495Y-71448796D01*
X163839227Y-71445196D01*
X163815428Y-71439235D01*
X163792329Y-71430970D01*
X163770150Y-71420480D01*
X163749107Y-71407868D01*
X163729401Y-71393253D01*
X163711223Y-71376777D01*
X163694747Y-71358599D01*
X163680132Y-71338893D01*
X163667520Y-71317850D01*
X163657030Y-71295671D01*
X163648765Y-71272572D01*
X163642804Y-71248773D01*
X163639204Y-71224505D01*
X163638000Y-71200001D01*
X163638000Y-70549999D01*
X163639204Y-70525495D01*
X163642804Y-70501227D01*
X163648765Y-70477428D01*
X163657030Y-70454329D01*
X163667520Y-70432150D01*
X163680132Y-70411107D01*
X163694747Y-70391401D01*
X163711223Y-70373223D01*
X163729401Y-70356747D01*
X163749107Y-70342132D01*
X163770150Y-70329520D01*
X163792329Y-70319030D01*
X163815428Y-70310765D01*
X163839227Y-70304804D01*
X163863495Y-70301204D01*
X163887999Y-70300000D01*
X164788001Y-70300000D01*
X164812505Y-70301204D01*
G37*
G36*
X164812505Y-68251204D02*
G01*
X164836773Y-68254804D01*
X164860572Y-68260765D01*
X164883671Y-68269030D01*
X164905850Y-68279520D01*
X164926893Y-68292132D01*
X164946599Y-68306747D01*
X164964777Y-68323223D01*
X164981253Y-68341401D01*
X164995868Y-68361107D01*
X165008480Y-68382150D01*
X165018970Y-68404329D01*
X165027235Y-68427428D01*
X165033196Y-68451227D01*
X165036796Y-68475495D01*
X165038000Y-68499999D01*
X165038000Y-69150001D01*
X165036796Y-69174505D01*
X165033196Y-69198773D01*
X165027235Y-69222572D01*
X165018970Y-69245671D01*
X165008480Y-69267850D01*
X164995868Y-69288893D01*
X164981253Y-69308599D01*
X164964777Y-69326777D01*
X164946599Y-69343253D01*
X164926893Y-69357868D01*
X164905850Y-69370480D01*
X164883671Y-69380970D01*
X164860572Y-69389235D01*
X164836773Y-69395196D01*
X164812505Y-69398796D01*
X164788001Y-69400000D01*
X163887999Y-69400000D01*
X163863495Y-69398796D01*
X163839227Y-69395196D01*
X163815428Y-69389235D01*
X163792329Y-69380970D01*
X163770150Y-69370480D01*
X163749107Y-69357868D01*
X163729401Y-69343253D01*
X163711223Y-69326777D01*
X163694747Y-69308599D01*
X163680132Y-69288893D01*
X163667520Y-69267850D01*
X163657030Y-69245671D01*
X163648765Y-69222572D01*
X163642804Y-69198773D01*
X163639204Y-69174505D01*
X163638000Y-69150001D01*
X163638000Y-68499999D01*
X163639204Y-68475495D01*
X163642804Y-68451227D01*
X163648765Y-68427428D01*
X163657030Y-68404329D01*
X163667520Y-68382150D01*
X163680132Y-68361107D01*
X163694747Y-68341401D01*
X163711223Y-68323223D01*
X163729401Y-68306747D01*
X163749107Y-68292132D01*
X163770150Y-68279520D01*
X163792329Y-68269030D01*
X163815428Y-68260765D01*
X163839227Y-68254804D01*
X163863495Y-68251204D01*
X163887999Y-68250000D01*
X164788001Y-68250000D01*
X164812505Y-68251204D01*
G37*
D14*
X163868000Y-133949000D03*
X163868000Y-129449000D03*
X155918000Y-129449000D03*
X155918000Y-133949000D03*
X148501000Y-133949000D03*
X148501000Y-129449000D03*
X140551000Y-129449000D03*
X140551000Y-133949000D03*
D13*
G36*
X162165505Y-77914204D02*
G01*
X162189773Y-77917804D01*
X162213572Y-77923765D01*
X162236671Y-77932030D01*
X162258850Y-77942520D01*
X162279893Y-77955132D01*
X162299599Y-77969747D01*
X162317777Y-77986223D01*
X162334253Y-78004401D01*
X162348868Y-78024107D01*
X162361480Y-78045150D01*
X162371970Y-78067329D01*
X162380235Y-78090428D01*
X162386196Y-78114227D01*
X162389796Y-78138495D01*
X162391000Y-78162999D01*
X162391000Y-79063001D01*
X162389796Y-79087505D01*
X162386196Y-79111773D01*
X162380235Y-79135572D01*
X162371970Y-79158671D01*
X162361480Y-79180850D01*
X162348868Y-79201893D01*
X162334253Y-79221599D01*
X162317777Y-79239777D01*
X162299599Y-79256253D01*
X162279893Y-79270868D01*
X162258850Y-79283480D01*
X162236671Y-79293970D01*
X162213572Y-79302235D01*
X162189773Y-79308196D01*
X162165505Y-79311796D01*
X162141001Y-79313000D01*
X161490999Y-79313000D01*
X161466495Y-79311796D01*
X161442227Y-79308196D01*
X161418428Y-79302235D01*
X161395329Y-79293970D01*
X161373150Y-79283480D01*
X161352107Y-79270868D01*
X161332401Y-79256253D01*
X161314223Y-79239777D01*
X161297747Y-79221599D01*
X161283132Y-79201893D01*
X161270520Y-79180850D01*
X161260030Y-79158671D01*
X161251765Y-79135572D01*
X161245804Y-79111773D01*
X161242204Y-79087505D01*
X161241000Y-79063001D01*
X161241000Y-78162999D01*
X161242204Y-78138495D01*
X161245804Y-78114227D01*
X161251765Y-78090428D01*
X161260030Y-78067329D01*
X161270520Y-78045150D01*
X161283132Y-78024107D01*
X161297747Y-78004401D01*
X161314223Y-77986223D01*
X161332401Y-77969747D01*
X161352107Y-77955132D01*
X161373150Y-77942520D01*
X161395329Y-77932030D01*
X161418428Y-77923765D01*
X161442227Y-77917804D01*
X161466495Y-77914204D01*
X161490999Y-77913000D01*
X162141001Y-77913000D01*
X162165505Y-77914204D01*
G37*
G36*
X160115505Y-77914204D02*
G01*
X160139773Y-77917804D01*
X160163572Y-77923765D01*
X160186671Y-77932030D01*
X160208850Y-77942520D01*
X160229893Y-77955132D01*
X160249599Y-77969747D01*
X160267777Y-77986223D01*
X160284253Y-78004401D01*
X160298868Y-78024107D01*
X160311480Y-78045150D01*
X160321970Y-78067329D01*
X160330235Y-78090428D01*
X160336196Y-78114227D01*
X160339796Y-78138495D01*
X160341000Y-78162999D01*
X160341000Y-79063001D01*
X160339796Y-79087505D01*
X160336196Y-79111773D01*
X160330235Y-79135572D01*
X160321970Y-79158671D01*
X160311480Y-79180850D01*
X160298868Y-79201893D01*
X160284253Y-79221599D01*
X160267777Y-79239777D01*
X160249599Y-79256253D01*
X160229893Y-79270868D01*
X160208850Y-79283480D01*
X160186671Y-79293970D01*
X160163572Y-79302235D01*
X160139773Y-79308196D01*
X160115505Y-79311796D01*
X160091001Y-79313000D01*
X159440999Y-79313000D01*
X159416495Y-79311796D01*
X159392227Y-79308196D01*
X159368428Y-79302235D01*
X159345329Y-79293970D01*
X159323150Y-79283480D01*
X159302107Y-79270868D01*
X159282401Y-79256253D01*
X159264223Y-79239777D01*
X159247747Y-79221599D01*
X159233132Y-79201893D01*
X159220520Y-79180850D01*
X159210030Y-79158671D01*
X159201765Y-79135572D01*
X159195804Y-79111773D01*
X159192204Y-79087505D01*
X159191000Y-79063001D01*
X159191000Y-78162999D01*
X159192204Y-78138495D01*
X159195804Y-78114227D01*
X159201765Y-78090428D01*
X159210030Y-78067329D01*
X159220520Y-78045150D01*
X159233132Y-78024107D01*
X159247747Y-78004401D01*
X159264223Y-77986223D01*
X159282401Y-77969747D01*
X159302107Y-77955132D01*
X159323150Y-77942520D01*
X159345329Y-77932030D01*
X159368428Y-77923765D01*
X159392227Y-77917804D01*
X159416495Y-77914204D01*
X159440999Y-77913000D01*
X160091001Y-77913000D01*
X160115505Y-77914204D01*
G37*
G36*
X162156505Y-82740204D02*
G01*
X162180773Y-82743804D01*
X162204572Y-82749765D01*
X162227671Y-82758030D01*
X162249850Y-82768520D01*
X162270893Y-82781132D01*
X162290599Y-82795747D01*
X162308777Y-82812223D01*
X162325253Y-82830401D01*
X162339868Y-82850107D01*
X162352480Y-82871150D01*
X162362970Y-82893329D01*
X162371235Y-82916428D01*
X162377196Y-82940227D01*
X162380796Y-82964495D01*
X162382000Y-82988999D01*
X162382000Y-83889001D01*
X162380796Y-83913505D01*
X162377196Y-83937773D01*
X162371235Y-83961572D01*
X162362970Y-83984671D01*
X162352480Y-84006850D01*
X162339868Y-84027893D01*
X162325253Y-84047599D01*
X162308777Y-84065777D01*
X162290599Y-84082253D01*
X162270893Y-84096868D01*
X162249850Y-84109480D01*
X162227671Y-84119970D01*
X162204572Y-84128235D01*
X162180773Y-84134196D01*
X162156505Y-84137796D01*
X162132001Y-84139000D01*
X161481999Y-84139000D01*
X161457495Y-84137796D01*
X161433227Y-84134196D01*
X161409428Y-84128235D01*
X161386329Y-84119970D01*
X161364150Y-84109480D01*
X161343107Y-84096868D01*
X161323401Y-84082253D01*
X161305223Y-84065777D01*
X161288747Y-84047599D01*
X161274132Y-84027893D01*
X161261520Y-84006850D01*
X161251030Y-83984671D01*
X161242765Y-83961572D01*
X161236804Y-83937773D01*
X161233204Y-83913505D01*
X161232000Y-83889001D01*
X161232000Y-82988999D01*
X161233204Y-82964495D01*
X161236804Y-82940227D01*
X161242765Y-82916428D01*
X161251030Y-82893329D01*
X161261520Y-82871150D01*
X161274132Y-82850107D01*
X161288747Y-82830401D01*
X161305223Y-82812223D01*
X161323401Y-82795747D01*
X161343107Y-82781132D01*
X161364150Y-82768520D01*
X161386329Y-82758030D01*
X161409428Y-82749765D01*
X161433227Y-82743804D01*
X161457495Y-82740204D01*
X161481999Y-82739000D01*
X162132001Y-82739000D01*
X162156505Y-82740204D01*
G37*
G36*
X160106505Y-82740204D02*
G01*
X160130773Y-82743804D01*
X160154572Y-82749765D01*
X160177671Y-82758030D01*
X160199850Y-82768520D01*
X160220893Y-82781132D01*
X160240599Y-82795747D01*
X160258777Y-82812223D01*
X160275253Y-82830401D01*
X160289868Y-82850107D01*
X160302480Y-82871150D01*
X160312970Y-82893329D01*
X160321235Y-82916428D01*
X160327196Y-82940227D01*
X160330796Y-82964495D01*
X160332000Y-82988999D01*
X160332000Y-83889001D01*
X160330796Y-83913505D01*
X160327196Y-83937773D01*
X160321235Y-83961572D01*
X160312970Y-83984671D01*
X160302480Y-84006850D01*
X160289868Y-84027893D01*
X160275253Y-84047599D01*
X160258777Y-84065777D01*
X160240599Y-84082253D01*
X160220893Y-84096868D01*
X160199850Y-84109480D01*
X160177671Y-84119970D01*
X160154572Y-84128235D01*
X160130773Y-84134196D01*
X160106505Y-84137796D01*
X160082001Y-84139000D01*
X159431999Y-84139000D01*
X159407495Y-84137796D01*
X159383227Y-84134196D01*
X159359428Y-84128235D01*
X159336329Y-84119970D01*
X159314150Y-84109480D01*
X159293107Y-84096868D01*
X159273401Y-84082253D01*
X159255223Y-84065777D01*
X159238747Y-84047599D01*
X159224132Y-84027893D01*
X159211520Y-84006850D01*
X159201030Y-83984671D01*
X159192765Y-83961572D01*
X159186804Y-83937773D01*
X159183204Y-83913505D01*
X159182000Y-83889001D01*
X159182000Y-82988999D01*
X159183204Y-82964495D01*
X159186804Y-82940227D01*
X159192765Y-82916428D01*
X159201030Y-82893329D01*
X159211520Y-82871150D01*
X159224132Y-82850107D01*
X159238747Y-82830401D01*
X159255223Y-82812223D01*
X159273401Y-82795747D01*
X159293107Y-82781132D01*
X159314150Y-82768520D01*
X159336329Y-82758030D01*
X159359428Y-82749765D01*
X159383227Y-82743804D01*
X159407495Y-82740204D01*
X159431999Y-82739000D01*
X160082001Y-82739000D01*
X160106505Y-82740204D01*
G37*
G36*
X162156505Y-87439204D02*
G01*
X162180773Y-87442804D01*
X162204572Y-87448765D01*
X162227671Y-87457030D01*
X162249850Y-87467520D01*
X162270893Y-87480132D01*
X162290599Y-87494747D01*
X162308777Y-87511223D01*
X162325253Y-87529401D01*
X162339868Y-87549107D01*
X162352480Y-87570150D01*
X162362970Y-87592329D01*
X162371235Y-87615428D01*
X162377196Y-87639227D01*
X162380796Y-87663495D01*
X162382000Y-87687999D01*
X162382000Y-88588001D01*
X162380796Y-88612505D01*
X162377196Y-88636773D01*
X162371235Y-88660572D01*
X162362970Y-88683671D01*
X162352480Y-88705850D01*
X162339868Y-88726893D01*
X162325253Y-88746599D01*
X162308777Y-88764777D01*
X162290599Y-88781253D01*
X162270893Y-88795868D01*
X162249850Y-88808480D01*
X162227671Y-88818970D01*
X162204572Y-88827235D01*
X162180773Y-88833196D01*
X162156505Y-88836796D01*
X162132001Y-88838000D01*
X161481999Y-88838000D01*
X161457495Y-88836796D01*
X161433227Y-88833196D01*
X161409428Y-88827235D01*
X161386329Y-88818970D01*
X161364150Y-88808480D01*
X161343107Y-88795868D01*
X161323401Y-88781253D01*
X161305223Y-88764777D01*
X161288747Y-88746599D01*
X161274132Y-88726893D01*
X161261520Y-88705850D01*
X161251030Y-88683671D01*
X161242765Y-88660572D01*
X161236804Y-88636773D01*
X161233204Y-88612505D01*
X161232000Y-88588001D01*
X161232000Y-87687999D01*
X161233204Y-87663495D01*
X161236804Y-87639227D01*
X161242765Y-87615428D01*
X161251030Y-87592329D01*
X161261520Y-87570150D01*
X161274132Y-87549107D01*
X161288747Y-87529401D01*
X161305223Y-87511223D01*
X161323401Y-87494747D01*
X161343107Y-87480132D01*
X161364150Y-87467520D01*
X161386329Y-87457030D01*
X161409428Y-87448765D01*
X161433227Y-87442804D01*
X161457495Y-87439204D01*
X161481999Y-87438000D01*
X162132001Y-87438000D01*
X162156505Y-87439204D01*
G37*
G36*
X160106505Y-87439204D02*
G01*
X160130773Y-87442804D01*
X160154572Y-87448765D01*
X160177671Y-87457030D01*
X160199850Y-87467520D01*
X160220893Y-87480132D01*
X160240599Y-87494747D01*
X160258777Y-87511223D01*
X160275253Y-87529401D01*
X160289868Y-87549107D01*
X160302480Y-87570150D01*
X160312970Y-87592329D01*
X160321235Y-87615428D01*
X160327196Y-87639227D01*
X160330796Y-87663495D01*
X160332000Y-87687999D01*
X160332000Y-88588001D01*
X160330796Y-88612505D01*
X160327196Y-88636773D01*
X160321235Y-88660572D01*
X160312970Y-88683671D01*
X160302480Y-88705850D01*
X160289868Y-88726893D01*
X160275253Y-88746599D01*
X160258777Y-88764777D01*
X160240599Y-88781253D01*
X160220893Y-88795868D01*
X160199850Y-88808480D01*
X160177671Y-88818970D01*
X160154572Y-88827235D01*
X160130773Y-88833196D01*
X160106505Y-88836796D01*
X160082001Y-88838000D01*
X159431999Y-88838000D01*
X159407495Y-88836796D01*
X159383227Y-88833196D01*
X159359428Y-88827235D01*
X159336329Y-88818970D01*
X159314150Y-88808480D01*
X159293107Y-88795868D01*
X159273401Y-88781253D01*
X159255223Y-88764777D01*
X159238747Y-88746599D01*
X159224132Y-88726893D01*
X159211520Y-88705850D01*
X159201030Y-88683671D01*
X159192765Y-88660572D01*
X159186804Y-88636773D01*
X159183204Y-88612505D01*
X159182000Y-88588001D01*
X159182000Y-87687999D01*
X159183204Y-87663495D01*
X159186804Y-87639227D01*
X159192765Y-87615428D01*
X159201030Y-87592329D01*
X159211520Y-87570150D01*
X159224132Y-87549107D01*
X159238747Y-87529401D01*
X159255223Y-87511223D01*
X159273401Y-87494747D01*
X159293107Y-87480132D01*
X159314150Y-87467520D01*
X159336329Y-87457030D01*
X159359428Y-87448765D01*
X159383227Y-87442804D01*
X159407495Y-87439204D01*
X159431999Y-87438000D01*
X160082001Y-87438000D01*
X160106505Y-87439204D01*
G37*
G36*
X135722505Y-74739204D02*
G01*
X135746773Y-74742804D01*
X135770572Y-74748765D01*
X135793671Y-74757030D01*
X135815850Y-74767520D01*
X135836893Y-74780132D01*
X135856599Y-74794747D01*
X135874777Y-74811223D01*
X135891253Y-74829401D01*
X135905868Y-74849107D01*
X135918480Y-74870150D01*
X135928970Y-74892329D01*
X135937235Y-74915428D01*
X135943196Y-74939227D01*
X135946796Y-74963495D01*
X135948000Y-74987999D01*
X135948000Y-75888001D01*
X135946796Y-75912505D01*
X135943196Y-75936773D01*
X135937235Y-75960572D01*
X135928970Y-75983671D01*
X135918480Y-76005850D01*
X135905868Y-76026893D01*
X135891253Y-76046599D01*
X135874777Y-76064777D01*
X135856599Y-76081253D01*
X135836893Y-76095868D01*
X135815850Y-76108480D01*
X135793671Y-76118970D01*
X135770572Y-76127235D01*
X135746773Y-76133196D01*
X135722505Y-76136796D01*
X135698001Y-76138000D01*
X135047999Y-76138000D01*
X135023495Y-76136796D01*
X134999227Y-76133196D01*
X134975428Y-76127235D01*
X134952329Y-76118970D01*
X134930150Y-76108480D01*
X134909107Y-76095868D01*
X134889401Y-76081253D01*
X134871223Y-76064777D01*
X134854747Y-76046599D01*
X134840132Y-76026893D01*
X134827520Y-76005850D01*
X134817030Y-75983671D01*
X134808765Y-75960572D01*
X134802804Y-75936773D01*
X134799204Y-75912505D01*
X134798000Y-75888001D01*
X134798000Y-74987999D01*
X134799204Y-74963495D01*
X134802804Y-74939227D01*
X134808765Y-74915428D01*
X134817030Y-74892329D01*
X134827520Y-74870150D01*
X134840132Y-74849107D01*
X134854747Y-74829401D01*
X134871223Y-74811223D01*
X134889401Y-74794747D01*
X134909107Y-74780132D01*
X134930150Y-74767520D01*
X134952329Y-74757030D01*
X134975428Y-74748765D01*
X134999227Y-74742804D01*
X135023495Y-74739204D01*
X135047999Y-74738000D01*
X135698001Y-74738000D01*
X135722505Y-74739204D01*
G37*
G36*
X137772505Y-74739204D02*
G01*
X137796773Y-74742804D01*
X137820572Y-74748765D01*
X137843671Y-74757030D01*
X137865850Y-74767520D01*
X137886893Y-74780132D01*
X137906599Y-74794747D01*
X137924777Y-74811223D01*
X137941253Y-74829401D01*
X137955868Y-74849107D01*
X137968480Y-74870150D01*
X137978970Y-74892329D01*
X137987235Y-74915428D01*
X137993196Y-74939227D01*
X137996796Y-74963495D01*
X137998000Y-74987999D01*
X137998000Y-75888001D01*
X137996796Y-75912505D01*
X137993196Y-75936773D01*
X137987235Y-75960572D01*
X137978970Y-75983671D01*
X137968480Y-76005850D01*
X137955868Y-76026893D01*
X137941253Y-76046599D01*
X137924777Y-76064777D01*
X137906599Y-76081253D01*
X137886893Y-76095868D01*
X137865850Y-76108480D01*
X137843671Y-76118970D01*
X137820572Y-76127235D01*
X137796773Y-76133196D01*
X137772505Y-76136796D01*
X137748001Y-76138000D01*
X137097999Y-76138000D01*
X137073495Y-76136796D01*
X137049227Y-76133196D01*
X137025428Y-76127235D01*
X137002329Y-76118970D01*
X136980150Y-76108480D01*
X136959107Y-76095868D01*
X136939401Y-76081253D01*
X136921223Y-76064777D01*
X136904747Y-76046599D01*
X136890132Y-76026893D01*
X136877520Y-76005850D01*
X136867030Y-75983671D01*
X136858765Y-75960572D01*
X136852804Y-75936773D01*
X136849204Y-75912505D01*
X136848000Y-75888001D01*
X136848000Y-74987999D01*
X136849204Y-74963495D01*
X136852804Y-74939227D01*
X136858765Y-74915428D01*
X136867030Y-74892329D01*
X136877520Y-74870150D01*
X136890132Y-74849107D01*
X136904747Y-74829401D01*
X136921223Y-74811223D01*
X136939401Y-74794747D01*
X136959107Y-74780132D01*
X136980150Y-74767520D01*
X137002329Y-74757030D01*
X137025428Y-74748765D01*
X137049227Y-74742804D01*
X137073495Y-74739204D01*
X137097999Y-74738000D01*
X137748001Y-74738000D01*
X137772505Y-74739204D01*
G37*
G36*
X135722505Y-81851204D02*
G01*
X135746773Y-81854804D01*
X135770572Y-81860765D01*
X135793671Y-81869030D01*
X135815850Y-81879520D01*
X135836893Y-81892132D01*
X135856599Y-81906747D01*
X135874777Y-81923223D01*
X135891253Y-81941401D01*
X135905868Y-81961107D01*
X135918480Y-81982150D01*
X135928970Y-82004329D01*
X135937235Y-82027428D01*
X135943196Y-82051227D01*
X135946796Y-82075495D01*
X135948000Y-82099999D01*
X135948000Y-83000001D01*
X135946796Y-83024505D01*
X135943196Y-83048773D01*
X135937235Y-83072572D01*
X135928970Y-83095671D01*
X135918480Y-83117850D01*
X135905868Y-83138893D01*
X135891253Y-83158599D01*
X135874777Y-83176777D01*
X135856599Y-83193253D01*
X135836893Y-83207868D01*
X135815850Y-83220480D01*
X135793671Y-83230970D01*
X135770572Y-83239235D01*
X135746773Y-83245196D01*
X135722505Y-83248796D01*
X135698001Y-83250000D01*
X135047999Y-83250000D01*
X135023495Y-83248796D01*
X134999227Y-83245196D01*
X134975428Y-83239235D01*
X134952329Y-83230970D01*
X134930150Y-83220480D01*
X134909107Y-83207868D01*
X134889401Y-83193253D01*
X134871223Y-83176777D01*
X134854747Y-83158599D01*
X134840132Y-83138893D01*
X134827520Y-83117850D01*
X134817030Y-83095671D01*
X134808765Y-83072572D01*
X134802804Y-83048773D01*
X134799204Y-83024505D01*
X134798000Y-83000001D01*
X134798000Y-82099999D01*
X134799204Y-82075495D01*
X134802804Y-82051227D01*
X134808765Y-82027428D01*
X134817030Y-82004329D01*
X134827520Y-81982150D01*
X134840132Y-81961107D01*
X134854747Y-81941401D01*
X134871223Y-81923223D01*
X134889401Y-81906747D01*
X134909107Y-81892132D01*
X134930150Y-81879520D01*
X134952329Y-81869030D01*
X134975428Y-81860765D01*
X134999227Y-81854804D01*
X135023495Y-81851204D01*
X135047999Y-81850000D01*
X135698001Y-81850000D01*
X135722505Y-81851204D01*
G37*
G36*
X137772505Y-81851204D02*
G01*
X137796773Y-81854804D01*
X137820572Y-81860765D01*
X137843671Y-81869030D01*
X137865850Y-81879520D01*
X137886893Y-81892132D01*
X137906599Y-81906747D01*
X137924777Y-81923223D01*
X137941253Y-81941401D01*
X137955868Y-81961107D01*
X137968480Y-81982150D01*
X137978970Y-82004329D01*
X137987235Y-82027428D01*
X137993196Y-82051227D01*
X137996796Y-82075495D01*
X137998000Y-82099999D01*
X137998000Y-83000001D01*
X137996796Y-83024505D01*
X137993196Y-83048773D01*
X137987235Y-83072572D01*
X137978970Y-83095671D01*
X137968480Y-83117850D01*
X137955868Y-83138893D01*
X137941253Y-83158599D01*
X137924777Y-83176777D01*
X137906599Y-83193253D01*
X137886893Y-83207868D01*
X137865850Y-83220480D01*
X137843671Y-83230970D01*
X137820572Y-83239235D01*
X137796773Y-83245196D01*
X137772505Y-83248796D01*
X137748001Y-83250000D01*
X137097999Y-83250000D01*
X137073495Y-83248796D01*
X137049227Y-83245196D01*
X137025428Y-83239235D01*
X137002329Y-83230970D01*
X136980150Y-83220480D01*
X136959107Y-83207868D01*
X136939401Y-83193253D01*
X136921223Y-83176777D01*
X136904747Y-83158599D01*
X136890132Y-83138893D01*
X136877520Y-83117850D01*
X136867030Y-83095671D01*
X136858765Y-83072572D01*
X136852804Y-83048773D01*
X136849204Y-83024505D01*
X136848000Y-83000001D01*
X136848000Y-82099999D01*
X136849204Y-82075495D01*
X136852804Y-82051227D01*
X136858765Y-82027428D01*
X136867030Y-82004329D01*
X136877520Y-81982150D01*
X136890132Y-81961107D01*
X136904747Y-81941401D01*
X136921223Y-81923223D01*
X136939401Y-81906747D01*
X136959107Y-81892132D01*
X136980150Y-81879520D01*
X137002329Y-81869030D01*
X137025428Y-81860765D01*
X137049227Y-81854804D01*
X137073495Y-81851204D01*
X137097999Y-81850000D01*
X137748001Y-81850000D01*
X137772505Y-81851204D01*
G37*
G36*
X130769505Y-103187204D02*
G01*
X130793773Y-103190804D01*
X130817572Y-103196765D01*
X130840671Y-103205030D01*
X130862850Y-103215520D01*
X130883893Y-103228132D01*
X130903599Y-103242747D01*
X130921777Y-103259223D01*
X130938253Y-103277401D01*
X130952868Y-103297107D01*
X130965480Y-103318150D01*
X130975970Y-103340329D01*
X130984235Y-103363428D01*
X130990196Y-103387227D01*
X130993796Y-103411495D01*
X130995000Y-103435999D01*
X130995000Y-104336001D01*
X130993796Y-104360505D01*
X130990196Y-104384773D01*
X130984235Y-104408572D01*
X130975970Y-104431671D01*
X130965480Y-104453850D01*
X130952868Y-104474893D01*
X130938253Y-104494599D01*
X130921777Y-104512777D01*
X130903599Y-104529253D01*
X130883893Y-104543868D01*
X130862850Y-104556480D01*
X130840671Y-104566970D01*
X130817572Y-104575235D01*
X130793773Y-104581196D01*
X130769505Y-104584796D01*
X130745001Y-104586000D01*
X130094999Y-104586000D01*
X130070495Y-104584796D01*
X130046227Y-104581196D01*
X130022428Y-104575235D01*
X129999329Y-104566970D01*
X129977150Y-104556480D01*
X129956107Y-104543868D01*
X129936401Y-104529253D01*
X129918223Y-104512777D01*
X129901747Y-104494599D01*
X129887132Y-104474893D01*
X129874520Y-104453850D01*
X129864030Y-104431671D01*
X129855765Y-104408572D01*
X129849804Y-104384773D01*
X129846204Y-104360505D01*
X129845000Y-104336001D01*
X129845000Y-103435999D01*
X129846204Y-103411495D01*
X129849804Y-103387227D01*
X129855765Y-103363428D01*
X129864030Y-103340329D01*
X129874520Y-103318150D01*
X129887132Y-103297107D01*
X129901747Y-103277401D01*
X129918223Y-103259223D01*
X129936401Y-103242747D01*
X129956107Y-103228132D01*
X129977150Y-103215520D01*
X129999329Y-103205030D01*
X130022428Y-103196765D01*
X130046227Y-103190804D01*
X130070495Y-103187204D01*
X130094999Y-103186000D01*
X130745001Y-103186000D01*
X130769505Y-103187204D01*
G37*
G36*
X132819505Y-103187204D02*
G01*
X132843773Y-103190804D01*
X132867572Y-103196765D01*
X132890671Y-103205030D01*
X132912850Y-103215520D01*
X132933893Y-103228132D01*
X132953599Y-103242747D01*
X132971777Y-103259223D01*
X132988253Y-103277401D01*
X133002868Y-103297107D01*
X133015480Y-103318150D01*
X133025970Y-103340329D01*
X133034235Y-103363428D01*
X133040196Y-103387227D01*
X133043796Y-103411495D01*
X133045000Y-103435999D01*
X133045000Y-104336001D01*
X133043796Y-104360505D01*
X133040196Y-104384773D01*
X133034235Y-104408572D01*
X133025970Y-104431671D01*
X133015480Y-104453850D01*
X133002868Y-104474893D01*
X132988253Y-104494599D01*
X132971777Y-104512777D01*
X132953599Y-104529253D01*
X132933893Y-104543868D01*
X132912850Y-104556480D01*
X132890671Y-104566970D01*
X132867572Y-104575235D01*
X132843773Y-104581196D01*
X132819505Y-104584796D01*
X132795001Y-104586000D01*
X132144999Y-104586000D01*
X132120495Y-104584796D01*
X132096227Y-104581196D01*
X132072428Y-104575235D01*
X132049329Y-104566970D01*
X132027150Y-104556480D01*
X132006107Y-104543868D01*
X131986401Y-104529253D01*
X131968223Y-104512777D01*
X131951747Y-104494599D01*
X131937132Y-104474893D01*
X131924520Y-104453850D01*
X131914030Y-104431671D01*
X131905765Y-104408572D01*
X131899804Y-104384773D01*
X131896204Y-104360505D01*
X131895000Y-104336001D01*
X131895000Y-103435999D01*
X131896204Y-103411495D01*
X131899804Y-103387227D01*
X131905765Y-103363428D01*
X131914030Y-103340329D01*
X131924520Y-103318150D01*
X131937132Y-103297107D01*
X131951747Y-103277401D01*
X131968223Y-103259223D01*
X131986401Y-103242747D01*
X132006107Y-103228132D01*
X132027150Y-103215520D01*
X132049329Y-103205030D01*
X132072428Y-103196765D01*
X132096227Y-103190804D01*
X132120495Y-103187204D01*
X132144999Y-103186000D01*
X132795001Y-103186000D01*
X132819505Y-103187204D01*
G37*
G36*
X142852505Y-89725204D02*
G01*
X142876773Y-89728804D01*
X142900572Y-89734765D01*
X142923671Y-89743030D01*
X142945850Y-89753520D01*
X142966893Y-89766132D01*
X142986599Y-89780747D01*
X143004777Y-89797223D01*
X143021253Y-89815401D01*
X143035868Y-89835107D01*
X143048480Y-89856150D01*
X143058970Y-89878329D01*
X143067235Y-89901428D01*
X143073196Y-89925227D01*
X143076796Y-89949495D01*
X143078000Y-89973999D01*
X143078000Y-90874001D01*
X143076796Y-90898505D01*
X143073196Y-90922773D01*
X143067235Y-90946572D01*
X143058970Y-90969671D01*
X143048480Y-90991850D01*
X143035868Y-91012893D01*
X143021253Y-91032599D01*
X143004777Y-91050777D01*
X142986599Y-91067253D01*
X142966893Y-91081868D01*
X142945850Y-91094480D01*
X142923671Y-91104970D01*
X142900572Y-91113235D01*
X142876773Y-91119196D01*
X142852505Y-91122796D01*
X142828001Y-91124000D01*
X142177999Y-91124000D01*
X142153495Y-91122796D01*
X142129227Y-91119196D01*
X142105428Y-91113235D01*
X142082329Y-91104970D01*
X142060150Y-91094480D01*
X142039107Y-91081868D01*
X142019401Y-91067253D01*
X142001223Y-91050777D01*
X141984747Y-91032599D01*
X141970132Y-91012893D01*
X141957520Y-90991850D01*
X141947030Y-90969671D01*
X141938765Y-90946572D01*
X141932804Y-90922773D01*
X141929204Y-90898505D01*
X141928000Y-90874001D01*
X141928000Y-89973999D01*
X141929204Y-89949495D01*
X141932804Y-89925227D01*
X141938765Y-89901428D01*
X141947030Y-89878329D01*
X141957520Y-89856150D01*
X141970132Y-89835107D01*
X141984747Y-89815401D01*
X142001223Y-89797223D01*
X142019401Y-89780747D01*
X142039107Y-89766132D01*
X142060150Y-89753520D01*
X142082329Y-89743030D01*
X142105428Y-89734765D01*
X142129227Y-89728804D01*
X142153495Y-89725204D01*
X142177999Y-89724000D01*
X142828001Y-89724000D01*
X142852505Y-89725204D01*
G37*
G36*
X140802505Y-89725204D02*
G01*
X140826773Y-89728804D01*
X140850572Y-89734765D01*
X140873671Y-89743030D01*
X140895850Y-89753520D01*
X140916893Y-89766132D01*
X140936599Y-89780747D01*
X140954777Y-89797223D01*
X140971253Y-89815401D01*
X140985868Y-89835107D01*
X140998480Y-89856150D01*
X141008970Y-89878329D01*
X141017235Y-89901428D01*
X141023196Y-89925227D01*
X141026796Y-89949495D01*
X141028000Y-89973999D01*
X141028000Y-90874001D01*
X141026796Y-90898505D01*
X141023196Y-90922773D01*
X141017235Y-90946572D01*
X141008970Y-90969671D01*
X140998480Y-90991850D01*
X140985868Y-91012893D01*
X140971253Y-91032599D01*
X140954777Y-91050777D01*
X140936599Y-91067253D01*
X140916893Y-91081868D01*
X140895850Y-91094480D01*
X140873671Y-91104970D01*
X140850572Y-91113235D01*
X140826773Y-91119196D01*
X140802505Y-91122796D01*
X140778001Y-91124000D01*
X140127999Y-91124000D01*
X140103495Y-91122796D01*
X140079227Y-91119196D01*
X140055428Y-91113235D01*
X140032329Y-91104970D01*
X140010150Y-91094480D01*
X139989107Y-91081868D01*
X139969401Y-91067253D01*
X139951223Y-91050777D01*
X139934747Y-91032599D01*
X139920132Y-91012893D01*
X139907520Y-90991850D01*
X139897030Y-90969671D01*
X139888765Y-90946572D01*
X139882804Y-90922773D01*
X139879204Y-90898505D01*
X139878000Y-90874001D01*
X139878000Y-89973999D01*
X139879204Y-89949495D01*
X139882804Y-89925227D01*
X139888765Y-89901428D01*
X139897030Y-89878329D01*
X139907520Y-89856150D01*
X139920132Y-89835107D01*
X139934747Y-89815401D01*
X139951223Y-89797223D01*
X139969401Y-89780747D01*
X139989107Y-89766132D01*
X140010150Y-89753520D01*
X140032329Y-89743030D01*
X140055428Y-89734765D01*
X140079227Y-89728804D01*
X140103495Y-89725204D01*
X140127999Y-89724000D01*
X140778001Y-89724000D01*
X140802505Y-89725204D01*
G37*
D15*
X149084000Y-117577000D03*
X153684000Y-117577000D03*
X151384000Y-117577000D03*
D16*
X151384000Y-111277000D03*
D13*
G36*
X130896505Y-124523204D02*
G01*
X130920773Y-124526804D01*
X130944572Y-124532765D01*
X130967671Y-124541030D01*
X130989850Y-124551520D01*
X131010893Y-124564132D01*
X131030599Y-124578747D01*
X131048777Y-124595223D01*
X131065253Y-124613401D01*
X131079868Y-124633107D01*
X131092480Y-124654150D01*
X131102970Y-124676329D01*
X131111235Y-124699428D01*
X131117196Y-124723227D01*
X131120796Y-124747495D01*
X131122000Y-124771999D01*
X131122000Y-125672001D01*
X131120796Y-125696505D01*
X131117196Y-125720773D01*
X131111235Y-125744572D01*
X131102970Y-125767671D01*
X131092480Y-125789850D01*
X131079868Y-125810893D01*
X131065253Y-125830599D01*
X131048777Y-125848777D01*
X131030599Y-125865253D01*
X131010893Y-125879868D01*
X130989850Y-125892480D01*
X130967671Y-125902970D01*
X130944572Y-125911235D01*
X130920773Y-125917196D01*
X130896505Y-125920796D01*
X130872001Y-125922000D01*
X130221999Y-125922000D01*
X130197495Y-125920796D01*
X130173227Y-125917196D01*
X130149428Y-125911235D01*
X130126329Y-125902970D01*
X130104150Y-125892480D01*
X130083107Y-125879868D01*
X130063401Y-125865253D01*
X130045223Y-125848777D01*
X130028747Y-125830599D01*
X130014132Y-125810893D01*
X130001520Y-125789850D01*
X129991030Y-125767671D01*
X129982765Y-125744572D01*
X129976804Y-125720773D01*
X129973204Y-125696505D01*
X129972000Y-125672001D01*
X129972000Y-124771999D01*
X129973204Y-124747495D01*
X129976804Y-124723227D01*
X129982765Y-124699428D01*
X129991030Y-124676329D01*
X130001520Y-124654150D01*
X130014132Y-124633107D01*
X130028747Y-124613401D01*
X130045223Y-124595223D01*
X130063401Y-124578747D01*
X130083107Y-124564132D01*
X130104150Y-124551520D01*
X130126329Y-124541030D01*
X130149428Y-124532765D01*
X130173227Y-124526804D01*
X130197495Y-124523204D01*
X130221999Y-124522000D01*
X130872001Y-124522000D01*
X130896505Y-124523204D01*
G37*
G36*
X132946505Y-124523204D02*
G01*
X132970773Y-124526804D01*
X132994572Y-124532765D01*
X133017671Y-124541030D01*
X133039850Y-124551520D01*
X133060893Y-124564132D01*
X133080599Y-124578747D01*
X133098777Y-124595223D01*
X133115253Y-124613401D01*
X133129868Y-124633107D01*
X133142480Y-124654150D01*
X133152970Y-124676329D01*
X133161235Y-124699428D01*
X133167196Y-124723227D01*
X133170796Y-124747495D01*
X133172000Y-124771999D01*
X133172000Y-125672001D01*
X133170796Y-125696505D01*
X133167196Y-125720773D01*
X133161235Y-125744572D01*
X133152970Y-125767671D01*
X133142480Y-125789850D01*
X133129868Y-125810893D01*
X133115253Y-125830599D01*
X133098777Y-125848777D01*
X133080599Y-125865253D01*
X133060893Y-125879868D01*
X133039850Y-125892480D01*
X133017671Y-125902970D01*
X132994572Y-125911235D01*
X132970773Y-125917196D01*
X132946505Y-125920796D01*
X132922001Y-125922000D01*
X132271999Y-125922000D01*
X132247495Y-125920796D01*
X132223227Y-125917196D01*
X132199428Y-125911235D01*
X132176329Y-125902970D01*
X132154150Y-125892480D01*
X132133107Y-125879868D01*
X132113401Y-125865253D01*
X132095223Y-125848777D01*
X132078747Y-125830599D01*
X132064132Y-125810893D01*
X132051520Y-125789850D01*
X132041030Y-125767671D01*
X132032765Y-125744572D01*
X132026804Y-125720773D01*
X132023204Y-125696505D01*
X132022000Y-125672001D01*
X132022000Y-124771999D01*
X132023204Y-124747495D01*
X132026804Y-124723227D01*
X132032765Y-124699428D01*
X132041030Y-124676329D01*
X132051520Y-124654150D01*
X132064132Y-124633107D01*
X132078747Y-124613401D01*
X132095223Y-124595223D01*
X132113401Y-124578747D01*
X132133107Y-124564132D01*
X132154150Y-124551520D01*
X132176329Y-124541030D01*
X132199428Y-124532765D01*
X132223227Y-124526804D01*
X132247495Y-124523204D01*
X132271999Y-124522000D01*
X132922001Y-124522000D01*
X132946505Y-124523204D01*
G37*
G36*
X131023505Y-131762204D02*
G01*
X131047773Y-131765804D01*
X131071572Y-131771765D01*
X131094671Y-131780030D01*
X131116850Y-131790520D01*
X131137893Y-131803132D01*
X131157599Y-131817747D01*
X131175777Y-131834223D01*
X131192253Y-131852401D01*
X131206868Y-131872107D01*
X131219480Y-131893150D01*
X131229970Y-131915329D01*
X131238235Y-131938428D01*
X131244196Y-131962227D01*
X131247796Y-131986495D01*
X131249000Y-132010999D01*
X131249000Y-132911001D01*
X131247796Y-132935505D01*
X131244196Y-132959773D01*
X131238235Y-132983572D01*
X131229970Y-133006671D01*
X131219480Y-133028850D01*
X131206868Y-133049893D01*
X131192253Y-133069599D01*
X131175777Y-133087777D01*
X131157599Y-133104253D01*
X131137893Y-133118868D01*
X131116850Y-133131480D01*
X131094671Y-133141970D01*
X131071572Y-133150235D01*
X131047773Y-133156196D01*
X131023505Y-133159796D01*
X130999001Y-133161000D01*
X130348999Y-133161000D01*
X130324495Y-133159796D01*
X130300227Y-133156196D01*
X130276428Y-133150235D01*
X130253329Y-133141970D01*
X130231150Y-133131480D01*
X130210107Y-133118868D01*
X130190401Y-133104253D01*
X130172223Y-133087777D01*
X130155747Y-133069599D01*
X130141132Y-133049893D01*
X130128520Y-133028850D01*
X130118030Y-133006671D01*
X130109765Y-132983572D01*
X130103804Y-132959773D01*
X130100204Y-132935505D01*
X130099000Y-132911001D01*
X130099000Y-132010999D01*
X130100204Y-131986495D01*
X130103804Y-131962227D01*
X130109765Y-131938428D01*
X130118030Y-131915329D01*
X130128520Y-131893150D01*
X130141132Y-131872107D01*
X130155747Y-131852401D01*
X130172223Y-131834223D01*
X130190401Y-131817747D01*
X130210107Y-131803132D01*
X130231150Y-131790520D01*
X130253329Y-131780030D01*
X130276428Y-131771765D01*
X130300227Y-131765804D01*
X130324495Y-131762204D01*
X130348999Y-131761000D01*
X130999001Y-131761000D01*
X131023505Y-131762204D01*
G37*
G36*
X133073505Y-131762204D02*
G01*
X133097773Y-131765804D01*
X133121572Y-131771765D01*
X133144671Y-131780030D01*
X133166850Y-131790520D01*
X133187893Y-131803132D01*
X133207599Y-131817747D01*
X133225777Y-131834223D01*
X133242253Y-131852401D01*
X133256868Y-131872107D01*
X133269480Y-131893150D01*
X133279970Y-131915329D01*
X133288235Y-131938428D01*
X133294196Y-131962227D01*
X133297796Y-131986495D01*
X133299000Y-132010999D01*
X133299000Y-132911001D01*
X133297796Y-132935505D01*
X133294196Y-132959773D01*
X133288235Y-132983572D01*
X133279970Y-133006671D01*
X133269480Y-133028850D01*
X133256868Y-133049893D01*
X133242253Y-133069599D01*
X133225777Y-133087777D01*
X133207599Y-133104253D01*
X133187893Y-133118868D01*
X133166850Y-133131480D01*
X133144671Y-133141970D01*
X133121572Y-133150235D01*
X133097773Y-133156196D01*
X133073505Y-133159796D01*
X133049001Y-133161000D01*
X132398999Y-133161000D01*
X132374495Y-133159796D01*
X132350227Y-133156196D01*
X132326428Y-133150235D01*
X132303329Y-133141970D01*
X132281150Y-133131480D01*
X132260107Y-133118868D01*
X132240401Y-133104253D01*
X132222223Y-133087777D01*
X132205747Y-133069599D01*
X132191132Y-133049893D01*
X132178520Y-133028850D01*
X132168030Y-133006671D01*
X132159765Y-132983572D01*
X132153804Y-132959773D01*
X132150204Y-132935505D01*
X132149000Y-132911001D01*
X132149000Y-132010999D01*
X132150204Y-131986495D01*
X132153804Y-131962227D01*
X132159765Y-131938428D01*
X132168030Y-131915329D01*
X132178520Y-131893150D01*
X132191132Y-131872107D01*
X132205747Y-131852401D01*
X132222223Y-131834223D01*
X132240401Y-131817747D01*
X132260107Y-131803132D01*
X132281150Y-131790520D01*
X132303329Y-131780030D01*
X132326428Y-131771765D01*
X132350227Y-131765804D01*
X132374495Y-131762204D01*
X132398999Y-131761000D01*
X133049001Y-131761000D01*
X133073505Y-131762204D01*
G37*
G36*
X162689905Y-108470404D02*
G01*
X162714173Y-108474004D01*
X162737972Y-108479965D01*
X162761071Y-108488230D01*
X162783250Y-108498720D01*
X162804293Y-108511332D01*
X162823999Y-108525947D01*
X162842177Y-108542423D01*
X162858653Y-108560601D01*
X162873268Y-108580307D01*
X162885880Y-108601350D01*
X162896370Y-108623529D01*
X162904635Y-108646628D01*
X162910596Y-108670427D01*
X162914196Y-108694695D01*
X162915400Y-108719199D01*
X162915400Y-109619201D01*
X162914196Y-109643705D01*
X162910596Y-109667973D01*
X162904635Y-109691772D01*
X162896370Y-109714871D01*
X162885880Y-109737050D01*
X162873268Y-109758093D01*
X162858653Y-109777799D01*
X162842177Y-109795977D01*
X162823999Y-109812453D01*
X162804293Y-109827068D01*
X162783250Y-109839680D01*
X162761071Y-109850170D01*
X162737972Y-109858435D01*
X162714173Y-109864396D01*
X162689905Y-109867996D01*
X162665401Y-109869200D01*
X162015399Y-109869200D01*
X161990895Y-109867996D01*
X161966627Y-109864396D01*
X161942828Y-109858435D01*
X161919729Y-109850170D01*
X161897550Y-109839680D01*
X161876507Y-109827068D01*
X161856801Y-109812453D01*
X161838623Y-109795977D01*
X161822147Y-109777799D01*
X161807532Y-109758093D01*
X161794920Y-109737050D01*
X161784430Y-109714871D01*
X161776165Y-109691772D01*
X161770204Y-109667973D01*
X161766604Y-109643705D01*
X161765400Y-109619201D01*
X161765400Y-108719199D01*
X161766604Y-108694695D01*
X161770204Y-108670427D01*
X161776165Y-108646628D01*
X161784430Y-108623529D01*
X161794920Y-108601350D01*
X161807532Y-108580307D01*
X161822147Y-108560601D01*
X161838623Y-108542423D01*
X161856801Y-108525947D01*
X161876507Y-108511332D01*
X161897550Y-108498720D01*
X161919729Y-108488230D01*
X161942828Y-108479965D01*
X161966627Y-108474004D01*
X161990895Y-108470404D01*
X162015399Y-108469200D01*
X162665401Y-108469200D01*
X162689905Y-108470404D01*
G37*
G36*
X160639905Y-108470404D02*
G01*
X160664173Y-108474004D01*
X160687972Y-108479965D01*
X160711071Y-108488230D01*
X160733250Y-108498720D01*
X160754293Y-108511332D01*
X160773999Y-108525947D01*
X160792177Y-108542423D01*
X160808653Y-108560601D01*
X160823268Y-108580307D01*
X160835880Y-108601350D01*
X160846370Y-108623529D01*
X160854635Y-108646628D01*
X160860596Y-108670427D01*
X160864196Y-108694695D01*
X160865400Y-108719199D01*
X160865400Y-109619201D01*
X160864196Y-109643705D01*
X160860596Y-109667973D01*
X160854635Y-109691772D01*
X160846370Y-109714871D01*
X160835880Y-109737050D01*
X160823268Y-109758093D01*
X160808653Y-109777799D01*
X160792177Y-109795977D01*
X160773999Y-109812453D01*
X160754293Y-109827068D01*
X160733250Y-109839680D01*
X160711071Y-109850170D01*
X160687972Y-109858435D01*
X160664173Y-109864396D01*
X160639905Y-109867996D01*
X160615401Y-109869200D01*
X159965399Y-109869200D01*
X159940895Y-109867996D01*
X159916627Y-109864396D01*
X159892828Y-109858435D01*
X159869729Y-109850170D01*
X159847550Y-109839680D01*
X159826507Y-109827068D01*
X159806801Y-109812453D01*
X159788623Y-109795977D01*
X159772147Y-109777799D01*
X159757532Y-109758093D01*
X159744920Y-109737050D01*
X159734430Y-109714871D01*
X159726165Y-109691772D01*
X159720204Y-109667973D01*
X159716604Y-109643705D01*
X159715400Y-109619201D01*
X159715400Y-108719199D01*
X159716604Y-108694695D01*
X159720204Y-108670427D01*
X159726165Y-108646628D01*
X159734430Y-108623529D01*
X159744920Y-108601350D01*
X159757532Y-108580307D01*
X159772147Y-108560601D01*
X159788623Y-108542423D01*
X159806801Y-108525947D01*
X159826507Y-108511332D01*
X159847550Y-108498720D01*
X159869729Y-108488230D01*
X159892828Y-108479965D01*
X159916627Y-108474004D01*
X159940895Y-108470404D01*
X159965399Y-108469200D01*
X160615401Y-108469200D01*
X160639905Y-108470404D01*
G37*
G36*
X144757505Y-106108204D02*
G01*
X144781773Y-106111804D01*
X144805572Y-106117765D01*
X144828671Y-106126030D01*
X144850850Y-106136520D01*
X144871893Y-106149132D01*
X144891599Y-106163747D01*
X144909777Y-106180223D01*
X144926253Y-106198401D01*
X144940868Y-106218107D01*
X144953480Y-106239150D01*
X144963970Y-106261329D01*
X144972235Y-106284428D01*
X144978196Y-106308227D01*
X144981796Y-106332495D01*
X144983000Y-106356999D01*
X144983000Y-107257001D01*
X144981796Y-107281505D01*
X144978196Y-107305773D01*
X144972235Y-107329572D01*
X144963970Y-107352671D01*
X144953480Y-107374850D01*
X144940868Y-107395893D01*
X144926253Y-107415599D01*
X144909777Y-107433777D01*
X144891599Y-107450253D01*
X144871893Y-107464868D01*
X144850850Y-107477480D01*
X144828671Y-107487970D01*
X144805572Y-107496235D01*
X144781773Y-107502196D01*
X144757505Y-107505796D01*
X144733001Y-107507000D01*
X144082999Y-107507000D01*
X144058495Y-107505796D01*
X144034227Y-107502196D01*
X144010428Y-107496235D01*
X143987329Y-107487970D01*
X143965150Y-107477480D01*
X143944107Y-107464868D01*
X143924401Y-107450253D01*
X143906223Y-107433777D01*
X143889747Y-107415599D01*
X143875132Y-107395893D01*
X143862520Y-107374850D01*
X143852030Y-107352671D01*
X143843765Y-107329572D01*
X143837804Y-107305773D01*
X143834204Y-107281505D01*
X143833000Y-107257001D01*
X143833000Y-106356999D01*
X143834204Y-106332495D01*
X143837804Y-106308227D01*
X143843765Y-106284428D01*
X143852030Y-106261329D01*
X143862520Y-106239150D01*
X143875132Y-106218107D01*
X143889747Y-106198401D01*
X143906223Y-106180223D01*
X143924401Y-106163747D01*
X143944107Y-106149132D01*
X143965150Y-106136520D01*
X143987329Y-106126030D01*
X144010428Y-106117765D01*
X144034227Y-106111804D01*
X144058495Y-106108204D01*
X144082999Y-106107000D01*
X144733001Y-106107000D01*
X144757505Y-106108204D01*
G37*
G36*
X142707505Y-106108204D02*
G01*
X142731773Y-106111804D01*
X142755572Y-106117765D01*
X142778671Y-106126030D01*
X142800850Y-106136520D01*
X142821893Y-106149132D01*
X142841599Y-106163747D01*
X142859777Y-106180223D01*
X142876253Y-106198401D01*
X142890868Y-106218107D01*
X142903480Y-106239150D01*
X142913970Y-106261329D01*
X142922235Y-106284428D01*
X142928196Y-106308227D01*
X142931796Y-106332495D01*
X142933000Y-106356999D01*
X142933000Y-107257001D01*
X142931796Y-107281505D01*
X142928196Y-107305773D01*
X142922235Y-107329572D01*
X142913970Y-107352671D01*
X142903480Y-107374850D01*
X142890868Y-107395893D01*
X142876253Y-107415599D01*
X142859777Y-107433777D01*
X142841599Y-107450253D01*
X142821893Y-107464868D01*
X142800850Y-107477480D01*
X142778671Y-107487970D01*
X142755572Y-107496235D01*
X142731773Y-107502196D01*
X142707505Y-107505796D01*
X142683001Y-107507000D01*
X142032999Y-107507000D01*
X142008495Y-107505796D01*
X141984227Y-107502196D01*
X141960428Y-107496235D01*
X141937329Y-107487970D01*
X141915150Y-107477480D01*
X141894107Y-107464868D01*
X141874401Y-107450253D01*
X141856223Y-107433777D01*
X141839747Y-107415599D01*
X141825132Y-107395893D01*
X141812520Y-107374850D01*
X141802030Y-107352671D01*
X141793765Y-107329572D01*
X141787804Y-107305773D01*
X141784204Y-107281505D01*
X141783000Y-107257001D01*
X141783000Y-106356999D01*
X141784204Y-106332495D01*
X141787804Y-106308227D01*
X141793765Y-106284428D01*
X141802030Y-106261329D01*
X141812520Y-106239150D01*
X141825132Y-106218107D01*
X141839747Y-106198401D01*
X141856223Y-106180223D01*
X141874401Y-106163747D01*
X141894107Y-106149132D01*
X141915150Y-106136520D01*
X141937329Y-106126030D01*
X141960428Y-106117765D01*
X141984227Y-106111804D01*
X142008495Y-106108204D01*
X142032999Y-106107000D01*
X142683001Y-106107000D01*
X142707505Y-106108204D01*
G37*
G36*
X150581505Y-107505204D02*
G01*
X150605773Y-107508804D01*
X150629572Y-107514765D01*
X150652671Y-107523030D01*
X150674850Y-107533520D01*
X150695893Y-107546132D01*
X150715599Y-107560747D01*
X150733777Y-107577223D01*
X150750253Y-107595401D01*
X150764868Y-107615107D01*
X150777480Y-107636150D01*
X150787970Y-107658329D01*
X150796235Y-107681428D01*
X150802196Y-107705227D01*
X150805796Y-107729495D01*
X150807000Y-107753999D01*
X150807000Y-108654001D01*
X150805796Y-108678505D01*
X150802196Y-108702773D01*
X150796235Y-108726572D01*
X150787970Y-108749671D01*
X150777480Y-108771850D01*
X150764868Y-108792893D01*
X150750253Y-108812599D01*
X150733777Y-108830777D01*
X150715599Y-108847253D01*
X150695893Y-108861868D01*
X150674850Y-108874480D01*
X150652671Y-108884970D01*
X150629572Y-108893235D01*
X150605773Y-108899196D01*
X150581505Y-108902796D01*
X150557001Y-108904000D01*
X149906999Y-108904000D01*
X149882495Y-108902796D01*
X149858227Y-108899196D01*
X149834428Y-108893235D01*
X149811329Y-108884970D01*
X149789150Y-108874480D01*
X149768107Y-108861868D01*
X149748401Y-108847253D01*
X149730223Y-108830777D01*
X149713747Y-108812599D01*
X149699132Y-108792893D01*
X149686520Y-108771850D01*
X149676030Y-108749671D01*
X149667765Y-108726572D01*
X149661804Y-108702773D01*
X149658204Y-108678505D01*
X149657000Y-108654001D01*
X149657000Y-107753999D01*
X149658204Y-107729495D01*
X149661804Y-107705227D01*
X149667765Y-107681428D01*
X149676030Y-107658329D01*
X149686520Y-107636150D01*
X149699132Y-107615107D01*
X149713747Y-107595401D01*
X149730223Y-107577223D01*
X149748401Y-107560747D01*
X149768107Y-107546132D01*
X149789150Y-107533520D01*
X149811329Y-107523030D01*
X149834428Y-107514765D01*
X149858227Y-107508804D01*
X149882495Y-107505204D01*
X149906999Y-107504000D01*
X150557001Y-107504000D01*
X150581505Y-107505204D01*
G37*
G36*
X152631505Y-107505204D02*
G01*
X152655773Y-107508804D01*
X152679572Y-107514765D01*
X152702671Y-107523030D01*
X152724850Y-107533520D01*
X152745893Y-107546132D01*
X152765599Y-107560747D01*
X152783777Y-107577223D01*
X152800253Y-107595401D01*
X152814868Y-107615107D01*
X152827480Y-107636150D01*
X152837970Y-107658329D01*
X152846235Y-107681428D01*
X152852196Y-107705227D01*
X152855796Y-107729495D01*
X152857000Y-107753999D01*
X152857000Y-108654001D01*
X152855796Y-108678505D01*
X152852196Y-108702773D01*
X152846235Y-108726572D01*
X152837970Y-108749671D01*
X152827480Y-108771850D01*
X152814868Y-108792893D01*
X152800253Y-108812599D01*
X152783777Y-108830777D01*
X152765599Y-108847253D01*
X152745893Y-108861868D01*
X152724850Y-108874480D01*
X152702671Y-108884970D01*
X152679572Y-108893235D01*
X152655773Y-108899196D01*
X152631505Y-108902796D01*
X152607001Y-108904000D01*
X151956999Y-108904000D01*
X151932495Y-108902796D01*
X151908227Y-108899196D01*
X151884428Y-108893235D01*
X151861329Y-108884970D01*
X151839150Y-108874480D01*
X151818107Y-108861868D01*
X151798401Y-108847253D01*
X151780223Y-108830777D01*
X151763747Y-108812599D01*
X151749132Y-108792893D01*
X151736520Y-108771850D01*
X151726030Y-108749671D01*
X151717765Y-108726572D01*
X151711804Y-108702773D01*
X151708204Y-108678505D01*
X151707000Y-108654001D01*
X151707000Y-107753999D01*
X151708204Y-107729495D01*
X151711804Y-107705227D01*
X151717765Y-107681428D01*
X151726030Y-107658329D01*
X151736520Y-107636150D01*
X151749132Y-107615107D01*
X151763747Y-107595401D01*
X151780223Y-107577223D01*
X151798401Y-107560747D01*
X151818107Y-107546132D01*
X151839150Y-107533520D01*
X151861329Y-107523030D01*
X151884428Y-107514765D01*
X151908227Y-107508804D01*
X151932495Y-107505204D01*
X151956999Y-107504000D01*
X152607001Y-107504000D01*
X152631505Y-107505204D01*
G37*
G36*
X144884505Y-101409204D02*
G01*
X144908773Y-101412804D01*
X144932572Y-101418765D01*
X144955671Y-101427030D01*
X144977850Y-101437520D01*
X144998893Y-101450132D01*
X145018599Y-101464747D01*
X145036777Y-101481223D01*
X145053253Y-101499401D01*
X145067868Y-101519107D01*
X145080480Y-101540150D01*
X145090970Y-101562329D01*
X145099235Y-101585428D01*
X145105196Y-101609227D01*
X145108796Y-101633495D01*
X145110000Y-101657999D01*
X145110000Y-102558001D01*
X145108796Y-102582505D01*
X145105196Y-102606773D01*
X145099235Y-102630572D01*
X145090970Y-102653671D01*
X145080480Y-102675850D01*
X145067868Y-102696893D01*
X145053253Y-102716599D01*
X145036777Y-102734777D01*
X145018599Y-102751253D01*
X144998893Y-102765868D01*
X144977850Y-102778480D01*
X144955671Y-102788970D01*
X144932572Y-102797235D01*
X144908773Y-102803196D01*
X144884505Y-102806796D01*
X144860001Y-102808000D01*
X144209999Y-102808000D01*
X144185495Y-102806796D01*
X144161227Y-102803196D01*
X144137428Y-102797235D01*
X144114329Y-102788970D01*
X144092150Y-102778480D01*
X144071107Y-102765868D01*
X144051401Y-102751253D01*
X144033223Y-102734777D01*
X144016747Y-102716599D01*
X144002132Y-102696893D01*
X143989520Y-102675850D01*
X143979030Y-102653671D01*
X143970765Y-102630572D01*
X143964804Y-102606773D01*
X143961204Y-102582505D01*
X143960000Y-102558001D01*
X143960000Y-101657999D01*
X143961204Y-101633495D01*
X143964804Y-101609227D01*
X143970765Y-101585428D01*
X143979030Y-101562329D01*
X143989520Y-101540150D01*
X144002132Y-101519107D01*
X144016747Y-101499401D01*
X144033223Y-101481223D01*
X144051401Y-101464747D01*
X144071107Y-101450132D01*
X144092150Y-101437520D01*
X144114329Y-101427030D01*
X144137428Y-101418765D01*
X144161227Y-101412804D01*
X144185495Y-101409204D01*
X144209999Y-101408000D01*
X144860001Y-101408000D01*
X144884505Y-101409204D01*
G37*
G36*
X142834505Y-101409204D02*
G01*
X142858773Y-101412804D01*
X142882572Y-101418765D01*
X142905671Y-101427030D01*
X142927850Y-101437520D01*
X142948893Y-101450132D01*
X142968599Y-101464747D01*
X142986777Y-101481223D01*
X143003253Y-101499401D01*
X143017868Y-101519107D01*
X143030480Y-101540150D01*
X143040970Y-101562329D01*
X143049235Y-101585428D01*
X143055196Y-101609227D01*
X143058796Y-101633495D01*
X143060000Y-101657999D01*
X143060000Y-102558001D01*
X143058796Y-102582505D01*
X143055196Y-102606773D01*
X143049235Y-102630572D01*
X143040970Y-102653671D01*
X143030480Y-102675850D01*
X143017868Y-102696893D01*
X143003253Y-102716599D01*
X142986777Y-102734777D01*
X142968599Y-102751253D01*
X142948893Y-102765868D01*
X142927850Y-102778480D01*
X142905671Y-102788970D01*
X142882572Y-102797235D01*
X142858773Y-102803196D01*
X142834505Y-102806796D01*
X142810001Y-102808000D01*
X142159999Y-102808000D01*
X142135495Y-102806796D01*
X142111227Y-102803196D01*
X142087428Y-102797235D01*
X142064329Y-102788970D01*
X142042150Y-102778480D01*
X142021107Y-102765868D01*
X142001401Y-102751253D01*
X141983223Y-102734777D01*
X141966747Y-102716599D01*
X141952132Y-102696893D01*
X141939520Y-102675850D01*
X141929030Y-102653671D01*
X141920765Y-102630572D01*
X141914804Y-102606773D01*
X141911204Y-102582505D01*
X141910000Y-102558001D01*
X141910000Y-101657999D01*
X141911204Y-101633495D01*
X141914804Y-101609227D01*
X141920765Y-101585428D01*
X141929030Y-101562329D01*
X141939520Y-101540150D01*
X141952132Y-101519107D01*
X141966747Y-101499401D01*
X141983223Y-101481223D01*
X142001401Y-101464747D01*
X142021107Y-101450132D01*
X142042150Y-101437520D01*
X142064329Y-101427030D01*
X142087428Y-101418765D01*
X142111227Y-101412804D01*
X142135495Y-101409204D01*
X142159999Y-101408000D01*
X142810001Y-101408000D01*
X142834505Y-101409204D01*
G37*
G36*
X162689905Y-103771404D02*
G01*
X162714173Y-103775004D01*
X162737972Y-103780965D01*
X162761071Y-103789230D01*
X162783250Y-103799720D01*
X162804293Y-103812332D01*
X162823999Y-103826947D01*
X162842177Y-103843423D01*
X162858653Y-103861601D01*
X162873268Y-103881307D01*
X162885880Y-103902350D01*
X162896370Y-103924529D01*
X162904635Y-103947628D01*
X162910596Y-103971427D01*
X162914196Y-103995695D01*
X162915400Y-104020199D01*
X162915400Y-104920201D01*
X162914196Y-104944705D01*
X162910596Y-104968973D01*
X162904635Y-104992772D01*
X162896370Y-105015871D01*
X162885880Y-105038050D01*
X162873268Y-105059093D01*
X162858653Y-105078799D01*
X162842177Y-105096977D01*
X162823999Y-105113453D01*
X162804293Y-105128068D01*
X162783250Y-105140680D01*
X162761071Y-105151170D01*
X162737972Y-105159435D01*
X162714173Y-105165396D01*
X162689905Y-105168996D01*
X162665401Y-105170200D01*
X162015399Y-105170200D01*
X161990895Y-105168996D01*
X161966627Y-105165396D01*
X161942828Y-105159435D01*
X161919729Y-105151170D01*
X161897550Y-105140680D01*
X161876507Y-105128068D01*
X161856801Y-105113453D01*
X161838623Y-105096977D01*
X161822147Y-105078799D01*
X161807532Y-105059093D01*
X161794920Y-105038050D01*
X161784430Y-105015871D01*
X161776165Y-104992772D01*
X161770204Y-104968973D01*
X161766604Y-104944705D01*
X161765400Y-104920201D01*
X161765400Y-104020199D01*
X161766604Y-103995695D01*
X161770204Y-103971427D01*
X161776165Y-103947628D01*
X161784430Y-103924529D01*
X161794920Y-103902350D01*
X161807532Y-103881307D01*
X161822147Y-103861601D01*
X161838623Y-103843423D01*
X161856801Y-103826947D01*
X161876507Y-103812332D01*
X161897550Y-103799720D01*
X161919729Y-103789230D01*
X161942828Y-103780965D01*
X161966627Y-103775004D01*
X161990895Y-103771404D01*
X162015399Y-103770200D01*
X162665401Y-103770200D01*
X162689905Y-103771404D01*
G37*
G36*
X160639905Y-103771404D02*
G01*
X160664173Y-103775004D01*
X160687972Y-103780965D01*
X160711071Y-103789230D01*
X160733250Y-103799720D01*
X160754293Y-103812332D01*
X160773999Y-103826947D01*
X160792177Y-103843423D01*
X160808653Y-103861601D01*
X160823268Y-103881307D01*
X160835880Y-103902350D01*
X160846370Y-103924529D01*
X160854635Y-103947628D01*
X160860596Y-103971427D01*
X160864196Y-103995695D01*
X160865400Y-104020199D01*
X160865400Y-104920201D01*
X160864196Y-104944705D01*
X160860596Y-104968973D01*
X160854635Y-104992772D01*
X160846370Y-105015871D01*
X160835880Y-105038050D01*
X160823268Y-105059093D01*
X160808653Y-105078799D01*
X160792177Y-105096977D01*
X160773999Y-105113453D01*
X160754293Y-105128068D01*
X160733250Y-105140680D01*
X160711071Y-105151170D01*
X160687972Y-105159435D01*
X160664173Y-105165396D01*
X160639905Y-105168996D01*
X160615401Y-105170200D01*
X159965399Y-105170200D01*
X159940895Y-105168996D01*
X159916627Y-105165396D01*
X159892828Y-105159435D01*
X159869729Y-105151170D01*
X159847550Y-105140680D01*
X159826507Y-105128068D01*
X159806801Y-105113453D01*
X159788623Y-105096977D01*
X159772147Y-105078799D01*
X159757532Y-105059093D01*
X159744920Y-105038050D01*
X159734430Y-105015871D01*
X159726165Y-104992772D01*
X159720204Y-104968973D01*
X159716604Y-104944705D01*
X159715400Y-104920201D01*
X159715400Y-104020199D01*
X159716604Y-103995695D01*
X159720204Y-103971427D01*
X159726165Y-103947628D01*
X159734430Y-103924529D01*
X159744920Y-103902350D01*
X159757532Y-103881307D01*
X159772147Y-103861601D01*
X159788623Y-103843423D01*
X159806801Y-103826947D01*
X159826507Y-103812332D01*
X159847550Y-103799720D01*
X159869729Y-103789230D01*
X159892828Y-103780965D01*
X159916627Y-103775004D01*
X159940895Y-103771404D01*
X159965399Y-103770200D01*
X160615401Y-103770200D01*
X160639905Y-103771404D01*
G37*
G36*
X144111505Y-116783204D02*
G01*
X144135773Y-116786804D01*
X144159572Y-116792765D01*
X144182671Y-116801030D01*
X144204850Y-116811520D01*
X144225893Y-116824132D01*
X144245599Y-116838747D01*
X144263777Y-116855223D01*
X144280253Y-116873401D01*
X144294868Y-116893107D01*
X144307480Y-116914150D01*
X144317970Y-116936329D01*
X144326235Y-116959428D01*
X144332196Y-116983227D01*
X144335796Y-117007495D01*
X144337000Y-117031999D01*
X144337000Y-117682001D01*
X144335796Y-117706505D01*
X144332196Y-117730773D01*
X144326235Y-117754572D01*
X144317970Y-117777671D01*
X144307480Y-117799850D01*
X144294868Y-117820893D01*
X144280253Y-117840599D01*
X144263777Y-117858777D01*
X144245599Y-117875253D01*
X144225893Y-117889868D01*
X144204850Y-117902480D01*
X144182671Y-117912970D01*
X144159572Y-117921235D01*
X144135773Y-117927196D01*
X144111505Y-117930796D01*
X144087001Y-117932000D01*
X143186999Y-117932000D01*
X143162495Y-117930796D01*
X143138227Y-117927196D01*
X143114428Y-117921235D01*
X143091329Y-117912970D01*
X143069150Y-117902480D01*
X143048107Y-117889868D01*
X143028401Y-117875253D01*
X143010223Y-117858777D01*
X142993747Y-117840599D01*
X142979132Y-117820893D01*
X142966520Y-117799850D01*
X142956030Y-117777671D01*
X142947765Y-117754572D01*
X142941804Y-117730773D01*
X142938204Y-117706505D01*
X142937000Y-117682001D01*
X142937000Y-117031999D01*
X142938204Y-117007495D01*
X142941804Y-116983227D01*
X142947765Y-116959428D01*
X142956030Y-116936329D01*
X142966520Y-116914150D01*
X142979132Y-116893107D01*
X142993747Y-116873401D01*
X143010223Y-116855223D01*
X143028401Y-116838747D01*
X143048107Y-116824132D01*
X143069150Y-116811520D01*
X143091329Y-116801030D01*
X143114428Y-116792765D01*
X143138227Y-116786804D01*
X143162495Y-116783204D01*
X143186999Y-116782000D01*
X144087001Y-116782000D01*
X144111505Y-116783204D01*
G37*
G36*
X144111505Y-114733204D02*
G01*
X144135773Y-114736804D01*
X144159572Y-114742765D01*
X144182671Y-114751030D01*
X144204850Y-114761520D01*
X144225893Y-114774132D01*
X144245599Y-114788747D01*
X144263777Y-114805223D01*
X144280253Y-114823401D01*
X144294868Y-114843107D01*
X144307480Y-114864150D01*
X144317970Y-114886329D01*
X144326235Y-114909428D01*
X144332196Y-114933227D01*
X144335796Y-114957495D01*
X144337000Y-114981999D01*
X144337000Y-115632001D01*
X144335796Y-115656505D01*
X144332196Y-115680773D01*
X144326235Y-115704572D01*
X144317970Y-115727671D01*
X144307480Y-115749850D01*
X144294868Y-115770893D01*
X144280253Y-115790599D01*
X144263777Y-115808777D01*
X144245599Y-115825253D01*
X144225893Y-115839868D01*
X144204850Y-115852480D01*
X144182671Y-115862970D01*
X144159572Y-115871235D01*
X144135773Y-115877196D01*
X144111505Y-115880796D01*
X144087001Y-115882000D01*
X143186999Y-115882000D01*
X143162495Y-115880796D01*
X143138227Y-115877196D01*
X143114428Y-115871235D01*
X143091329Y-115862970D01*
X143069150Y-115852480D01*
X143048107Y-115839868D01*
X143028401Y-115825253D01*
X143010223Y-115808777D01*
X142993747Y-115790599D01*
X142979132Y-115770893D01*
X142966520Y-115749850D01*
X142956030Y-115727671D01*
X142947765Y-115704572D01*
X142941804Y-115680773D01*
X142938204Y-115656505D01*
X142937000Y-115632001D01*
X142937000Y-114981999D01*
X142938204Y-114957495D01*
X142941804Y-114933227D01*
X142947765Y-114909428D01*
X142956030Y-114886329D01*
X142966520Y-114864150D01*
X142979132Y-114843107D01*
X142993747Y-114823401D01*
X143010223Y-114805223D01*
X143028401Y-114788747D01*
X143048107Y-114774132D01*
X143069150Y-114761520D01*
X143091329Y-114751030D01*
X143114428Y-114742765D01*
X143138227Y-114736804D01*
X143162495Y-114733204D01*
X143186999Y-114732000D01*
X144087001Y-114732000D01*
X144111505Y-114733204D01*
G37*
G36*
X139285505Y-116783204D02*
G01*
X139309773Y-116786804D01*
X139333572Y-116792765D01*
X139356671Y-116801030D01*
X139378850Y-116811520D01*
X139399893Y-116824132D01*
X139419599Y-116838747D01*
X139437777Y-116855223D01*
X139454253Y-116873401D01*
X139468868Y-116893107D01*
X139481480Y-116914150D01*
X139491970Y-116936329D01*
X139500235Y-116959428D01*
X139506196Y-116983227D01*
X139509796Y-117007495D01*
X139511000Y-117031999D01*
X139511000Y-117682001D01*
X139509796Y-117706505D01*
X139506196Y-117730773D01*
X139500235Y-117754572D01*
X139491970Y-117777671D01*
X139481480Y-117799850D01*
X139468868Y-117820893D01*
X139454253Y-117840599D01*
X139437777Y-117858777D01*
X139419599Y-117875253D01*
X139399893Y-117889868D01*
X139378850Y-117902480D01*
X139356671Y-117912970D01*
X139333572Y-117921235D01*
X139309773Y-117927196D01*
X139285505Y-117930796D01*
X139261001Y-117932000D01*
X138360999Y-117932000D01*
X138336495Y-117930796D01*
X138312227Y-117927196D01*
X138288428Y-117921235D01*
X138265329Y-117912970D01*
X138243150Y-117902480D01*
X138222107Y-117889868D01*
X138202401Y-117875253D01*
X138184223Y-117858777D01*
X138167747Y-117840599D01*
X138153132Y-117820893D01*
X138140520Y-117799850D01*
X138130030Y-117777671D01*
X138121765Y-117754572D01*
X138115804Y-117730773D01*
X138112204Y-117706505D01*
X138111000Y-117682001D01*
X138111000Y-117031999D01*
X138112204Y-117007495D01*
X138115804Y-116983227D01*
X138121765Y-116959428D01*
X138130030Y-116936329D01*
X138140520Y-116914150D01*
X138153132Y-116893107D01*
X138167747Y-116873401D01*
X138184223Y-116855223D01*
X138202401Y-116838747D01*
X138222107Y-116824132D01*
X138243150Y-116811520D01*
X138265329Y-116801030D01*
X138288428Y-116792765D01*
X138312227Y-116786804D01*
X138336495Y-116783204D01*
X138360999Y-116782000D01*
X139261001Y-116782000D01*
X139285505Y-116783204D01*
G37*
G36*
X139285505Y-114733204D02*
G01*
X139309773Y-114736804D01*
X139333572Y-114742765D01*
X139356671Y-114751030D01*
X139378850Y-114761520D01*
X139399893Y-114774132D01*
X139419599Y-114788747D01*
X139437777Y-114805223D01*
X139454253Y-114823401D01*
X139468868Y-114843107D01*
X139481480Y-114864150D01*
X139491970Y-114886329D01*
X139500235Y-114909428D01*
X139506196Y-114933227D01*
X139509796Y-114957495D01*
X139511000Y-114981999D01*
X139511000Y-115632001D01*
X139509796Y-115656505D01*
X139506196Y-115680773D01*
X139500235Y-115704572D01*
X139491970Y-115727671D01*
X139481480Y-115749850D01*
X139468868Y-115770893D01*
X139454253Y-115790599D01*
X139437777Y-115808777D01*
X139419599Y-115825253D01*
X139399893Y-115839868D01*
X139378850Y-115852480D01*
X139356671Y-115862970D01*
X139333572Y-115871235D01*
X139309773Y-115877196D01*
X139285505Y-115880796D01*
X139261001Y-115882000D01*
X138360999Y-115882000D01*
X138336495Y-115880796D01*
X138312227Y-115877196D01*
X138288428Y-115871235D01*
X138265329Y-115862970D01*
X138243150Y-115852480D01*
X138222107Y-115839868D01*
X138202401Y-115825253D01*
X138184223Y-115808777D01*
X138167747Y-115790599D01*
X138153132Y-115770893D01*
X138140520Y-115749850D01*
X138130030Y-115727671D01*
X138121765Y-115704572D01*
X138115804Y-115680773D01*
X138112204Y-115656505D01*
X138111000Y-115632001D01*
X138111000Y-114981999D01*
X138112204Y-114957495D01*
X138115804Y-114933227D01*
X138121765Y-114909428D01*
X138130030Y-114886329D01*
X138140520Y-114864150D01*
X138153132Y-114843107D01*
X138167747Y-114823401D01*
X138184223Y-114805223D01*
X138202401Y-114788747D01*
X138222107Y-114774132D01*
X138243150Y-114761520D01*
X138265329Y-114751030D01*
X138288428Y-114742765D01*
X138312227Y-114736804D01*
X138336495Y-114733204D01*
X138360999Y-114732000D01*
X139261001Y-114732000D01*
X139285505Y-114733204D01*
G37*
G36*
X163415505Y-116783204D02*
G01*
X163439773Y-116786804D01*
X163463572Y-116792765D01*
X163486671Y-116801030D01*
X163508850Y-116811520D01*
X163529893Y-116824132D01*
X163549599Y-116838747D01*
X163567777Y-116855223D01*
X163584253Y-116873401D01*
X163598868Y-116893107D01*
X163611480Y-116914150D01*
X163621970Y-116936329D01*
X163630235Y-116959428D01*
X163636196Y-116983227D01*
X163639796Y-117007495D01*
X163641000Y-117031999D01*
X163641000Y-117682001D01*
X163639796Y-117706505D01*
X163636196Y-117730773D01*
X163630235Y-117754572D01*
X163621970Y-117777671D01*
X163611480Y-117799850D01*
X163598868Y-117820893D01*
X163584253Y-117840599D01*
X163567777Y-117858777D01*
X163549599Y-117875253D01*
X163529893Y-117889868D01*
X163508850Y-117902480D01*
X163486671Y-117912970D01*
X163463572Y-117921235D01*
X163439773Y-117927196D01*
X163415505Y-117930796D01*
X163391001Y-117932000D01*
X162490999Y-117932000D01*
X162466495Y-117930796D01*
X162442227Y-117927196D01*
X162418428Y-117921235D01*
X162395329Y-117912970D01*
X162373150Y-117902480D01*
X162352107Y-117889868D01*
X162332401Y-117875253D01*
X162314223Y-117858777D01*
X162297747Y-117840599D01*
X162283132Y-117820893D01*
X162270520Y-117799850D01*
X162260030Y-117777671D01*
X162251765Y-117754572D01*
X162245804Y-117730773D01*
X162242204Y-117706505D01*
X162241000Y-117682001D01*
X162241000Y-117031999D01*
X162242204Y-117007495D01*
X162245804Y-116983227D01*
X162251765Y-116959428D01*
X162260030Y-116936329D01*
X162270520Y-116914150D01*
X162283132Y-116893107D01*
X162297747Y-116873401D01*
X162314223Y-116855223D01*
X162332401Y-116838747D01*
X162352107Y-116824132D01*
X162373150Y-116811520D01*
X162395329Y-116801030D01*
X162418428Y-116792765D01*
X162442227Y-116786804D01*
X162466495Y-116783204D01*
X162490999Y-116782000D01*
X163391001Y-116782000D01*
X163415505Y-116783204D01*
G37*
G36*
X163415505Y-114733204D02*
G01*
X163439773Y-114736804D01*
X163463572Y-114742765D01*
X163486671Y-114751030D01*
X163508850Y-114761520D01*
X163529893Y-114774132D01*
X163549599Y-114788747D01*
X163567777Y-114805223D01*
X163584253Y-114823401D01*
X163598868Y-114843107D01*
X163611480Y-114864150D01*
X163621970Y-114886329D01*
X163630235Y-114909428D01*
X163636196Y-114933227D01*
X163639796Y-114957495D01*
X163641000Y-114981999D01*
X163641000Y-115632001D01*
X163639796Y-115656505D01*
X163636196Y-115680773D01*
X163630235Y-115704572D01*
X163621970Y-115727671D01*
X163611480Y-115749850D01*
X163598868Y-115770893D01*
X163584253Y-115790599D01*
X163567777Y-115808777D01*
X163549599Y-115825253D01*
X163529893Y-115839868D01*
X163508850Y-115852480D01*
X163486671Y-115862970D01*
X163463572Y-115871235D01*
X163439773Y-115877196D01*
X163415505Y-115880796D01*
X163391001Y-115882000D01*
X162490999Y-115882000D01*
X162466495Y-115880796D01*
X162442227Y-115877196D01*
X162418428Y-115871235D01*
X162395329Y-115862970D01*
X162373150Y-115852480D01*
X162352107Y-115839868D01*
X162332401Y-115825253D01*
X162314223Y-115808777D01*
X162297747Y-115790599D01*
X162283132Y-115770893D01*
X162270520Y-115749850D01*
X162260030Y-115727671D01*
X162251765Y-115704572D01*
X162245804Y-115680773D01*
X162242204Y-115656505D01*
X162241000Y-115632001D01*
X162241000Y-114981999D01*
X162242204Y-114957495D01*
X162245804Y-114933227D01*
X162251765Y-114909428D01*
X162260030Y-114886329D01*
X162270520Y-114864150D01*
X162283132Y-114843107D01*
X162297747Y-114823401D01*
X162314223Y-114805223D01*
X162332401Y-114788747D01*
X162352107Y-114774132D01*
X162373150Y-114761520D01*
X162395329Y-114751030D01*
X162418428Y-114742765D01*
X162442227Y-114736804D01*
X162466495Y-114733204D01*
X162490999Y-114732000D01*
X163391001Y-114732000D01*
X163415505Y-114733204D01*
G37*
G36*
X158462505Y-116774204D02*
G01*
X158486773Y-116777804D01*
X158510572Y-116783765D01*
X158533671Y-116792030D01*
X158555850Y-116802520D01*
X158576893Y-116815132D01*
X158596599Y-116829747D01*
X158614777Y-116846223D01*
X158631253Y-116864401D01*
X158645868Y-116884107D01*
X158658480Y-116905150D01*
X158668970Y-116927329D01*
X158677235Y-116950428D01*
X158683196Y-116974227D01*
X158686796Y-116998495D01*
X158688000Y-117022999D01*
X158688000Y-117673001D01*
X158686796Y-117697505D01*
X158683196Y-117721773D01*
X158677235Y-117745572D01*
X158668970Y-117768671D01*
X158658480Y-117790850D01*
X158645868Y-117811893D01*
X158631253Y-117831599D01*
X158614777Y-117849777D01*
X158596599Y-117866253D01*
X158576893Y-117880868D01*
X158555850Y-117893480D01*
X158533671Y-117903970D01*
X158510572Y-117912235D01*
X158486773Y-117918196D01*
X158462505Y-117921796D01*
X158438001Y-117923000D01*
X157537999Y-117923000D01*
X157513495Y-117921796D01*
X157489227Y-117918196D01*
X157465428Y-117912235D01*
X157442329Y-117903970D01*
X157420150Y-117893480D01*
X157399107Y-117880868D01*
X157379401Y-117866253D01*
X157361223Y-117849777D01*
X157344747Y-117831599D01*
X157330132Y-117811893D01*
X157317520Y-117790850D01*
X157307030Y-117768671D01*
X157298765Y-117745572D01*
X157292804Y-117721773D01*
X157289204Y-117697505D01*
X157288000Y-117673001D01*
X157288000Y-117022999D01*
X157289204Y-116998495D01*
X157292804Y-116974227D01*
X157298765Y-116950428D01*
X157307030Y-116927329D01*
X157317520Y-116905150D01*
X157330132Y-116884107D01*
X157344747Y-116864401D01*
X157361223Y-116846223D01*
X157379401Y-116829747D01*
X157399107Y-116815132D01*
X157420150Y-116802520D01*
X157442329Y-116792030D01*
X157465428Y-116783765D01*
X157489227Y-116777804D01*
X157513495Y-116774204D01*
X157537999Y-116773000D01*
X158438001Y-116773000D01*
X158462505Y-116774204D01*
G37*
G36*
X158462505Y-114724204D02*
G01*
X158486773Y-114727804D01*
X158510572Y-114733765D01*
X158533671Y-114742030D01*
X158555850Y-114752520D01*
X158576893Y-114765132D01*
X158596599Y-114779747D01*
X158614777Y-114796223D01*
X158631253Y-114814401D01*
X158645868Y-114834107D01*
X158658480Y-114855150D01*
X158668970Y-114877329D01*
X158677235Y-114900428D01*
X158683196Y-114924227D01*
X158686796Y-114948495D01*
X158688000Y-114972999D01*
X158688000Y-115623001D01*
X158686796Y-115647505D01*
X158683196Y-115671773D01*
X158677235Y-115695572D01*
X158668970Y-115718671D01*
X158658480Y-115740850D01*
X158645868Y-115761893D01*
X158631253Y-115781599D01*
X158614777Y-115799777D01*
X158596599Y-115816253D01*
X158576893Y-115830868D01*
X158555850Y-115843480D01*
X158533671Y-115853970D01*
X158510572Y-115862235D01*
X158486773Y-115868196D01*
X158462505Y-115871796D01*
X158438001Y-115873000D01*
X157537999Y-115873000D01*
X157513495Y-115871796D01*
X157489227Y-115868196D01*
X157465428Y-115862235D01*
X157442329Y-115853970D01*
X157420150Y-115843480D01*
X157399107Y-115830868D01*
X157379401Y-115816253D01*
X157361223Y-115799777D01*
X157344747Y-115781599D01*
X157330132Y-115761893D01*
X157317520Y-115740850D01*
X157307030Y-115718671D01*
X157298765Y-115695572D01*
X157292804Y-115671773D01*
X157289204Y-115647505D01*
X157288000Y-115623001D01*
X157288000Y-114972999D01*
X157289204Y-114948495D01*
X157292804Y-114924227D01*
X157298765Y-114900428D01*
X157307030Y-114877329D01*
X157317520Y-114855150D01*
X157330132Y-114834107D01*
X157344747Y-114814401D01*
X157361223Y-114796223D01*
X157379401Y-114779747D01*
X157399107Y-114765132D01*
X157420150Y-114752520D01*
X157442329Y-114742030D01*
X157465428Y-114733765D01*
X157489227Y-114727804D01*
X157513495Y-114724204D01*
X157537999Y-114723000D01*
X158438001Y-114723000D01*
X158462505Y-114724204D01*
G37*
D17*
X147670000Y-105825000D03*
X147670000Y-105175000D03*
X147670000Y-104525000D03*
X147670000Y-103875000D03*
X147670000Y-103225000D03*
X147670000Y-102575000D03*
X147670000Y-101925000D03*
X147670000Y-101275000D03*
X147670000Y-100625000D03*
X147670000Y-99975000D03*
X147670000Y-99325000D03*
X147670000Y-98675000D03*
X147670000Y-98025000D03*
X147670000Y-97375000D03*
X154590000Y-97375000D03*
X154590000Y-98025000D03*
X154590000Y-98675000D03*
X154590000Y-99325000D03*
X154590000Y-99975000D03*
X154590000Y-100625000D03*
X154590000Y-101275000D03*
X154590000Y-101925000D03*
X154590000Y-102575000D03*
X154590000Y-103225000D03*
X154590000Y-103875000D03*
X154590000Y-104525000D03*
X154590000Y-105175000D03*
X154590000Y-105825000D03*
D13*
G36*
X130769505Y-117411204D02*
G01*
X130793773Y-117414804D01*
X130817572Y-117420765D01*
X130840671Y-117429030D01*
X130862850Y-117439520D01*
X130883893Y-117452132D01*
X130903599Y-117466747D01*
X130921777Y-117483223D01*
X130938253Y-117501401D01*
X130952868Y-117521107D01*
X130965480Y-117542150D01*
X130975970Y-117564329D01*
X130984235Y-117587428D01*
X130990196Y-117611227D01*
X130993796Y-117635495D01*
X130995000Y-117659999D01*
X130995000Y-118560001D01*
X130993796Y-118584505D01*
X130990196Y-118608773D01*
X130984235Y-118632572D01*
X130975970Y-118655671D01*
X130965480Y-118677850D01*
X130952868Y-118698893D01*
X130938253Y-118718599D01*
X130921777Y-118736777D01*
X130903599Y-118753253D01*
X130883893Y-118767868D01*
X130862850Y-118780480D01*
X130840671Y-118790970D01*
X130817572Y-118799235D01*
X130793773Y-118805196D01*
X130769505Y-118808796D01*
X130745001Y-118810000D01*
X130094999Y-118810000D01*
X130070495Y-118808796D01*
X130046227Y-118805196D01*
X130022428Y-118799235D01*
X129999329Y-118790970D01*
X129977150Y-118780480D01*
X129956107Y-118767868D01*
X129936401Y-118753253D01*
X129918223Y-118736777D01*
X129901747Y-118718599D01*
X129887132Y-118698893D01*
X129874520Y-118677850D01*
X129864030Y-118655671D01*
X129855765Y-118632572D01*
X129849804Y-118608773D01*
X129846204Y-118584505D01*
X129845000Y-118560001D01*
X129845000Y-117659999D01*
X129846204Y-117635495D01*
X129849804Y-117611227D01*
X129855765Y-117587428D01*
X129864030Y-117564329D01*
X129874520Y-117542150D01*
X129887132Y-117521107D01*
X129901747Y-117501401D01*
X129918223Y-117483223D01*
X129936401Y-117466747D01*
X129956107Y-117452132D01*
X129977150Y-117439520D01*
X129999329Y-117429030D01*
X130022428Y-117420765D01*
X130046227Y-117414804D01*
X130070495Y-117411204D01*
X130094999Y-117410000D01*
X130745001Y-117410000D01*
X130769505Y-117411204D01*
G37*
G36*
X132819505Y-117411204D02*
G01*
X132843773Y-117414804D01*
X132867572Y-117420765D01*
X132890671Y-117429030D01*
X132912850Y-117439520D01*
X132933893Y-117452132D01*
X132953599Y-117466747D01*
X132971777Y-117483223D01*
X132988253Y-117501401D01*
X133002868Y-117521107D01*
X133015480Y-117542150D01*
X133025970Y-117564329D01*
X133034235Y-117587428D01*
X133040196Y-117611227D01*
X133043796Y-117635495D01*
X133045000Y-117659999D01*
X133045000Y-118560001D01*
X133043796Y-118584505D01*
X133040196Y-118608773D01*
X133034235Y-118632572D01*
X133025970Y-118655671D01*
X133015480Y-118677850D01*
X133002868Y-118698893D01*
X132988253Y-118718599D01*
X132971777Y-118736777D01*
X132953599Y-118753253D01*
X132933893Y-118767868D01*
X132912850Y-118780480D01*
X132890671Y-118790970D01*
X132867572Y-118799235D01*
X132843773Y-118805196D01*
X132819505Y-118808796D01*
X132795001Y-118810000D01*
X132144999Y-118810000D01*
X132120495Y-118808796D01*
X132096227Y-118805196D01*
X132072428Y-118799235D01*
X132049329Y-118790970D01*
X132027150Y-118780480D01*
X132006107Y-118767868D01*
X131986401Y-118753253D01*
X131968223Y-118736777D01*
X131951747Y-118718599D01*
X131937132Y-118698893D01*
X131924520Y-118677850D01*
X131914030Y-118655671D01*
X131905765Y-118632572D01*
X131899804Y-118608773D01*
X131896204Y-118584505D01*
X131895000Y-118560001D01*
X131895000Y-117659999D01*
X131896204Y-117635495D01*
X131899804Y-117611227D01*
X131905765Y-117587428D01*
X131914030Y-117564329D01*
X131924520Y-117542150D01*
X131937132Y-117521107D01*
X131951747Y-117501401D01*
X131968223Y-117483223D01*
X131986401Y-117466747D01*
X132006107Y-117452132D01*
X132027150Y-117439520D01*
X132049329Y-117429030D01*
X132072428Y-117420765D01*
X132096227Y-117414804D01*
X132120495Y-117411204D01*
X132144999Y-117410000D01*
X132795001Y-117410000D01*
X132819505Y-117411204D01*
G37*
G36*
X130769505Y-110299204D02*
G01*
X130793773Y-110302804D01*
X130817572Y-110308765D01*
X130840671Y-110317030D01*
X130862850Y-110327520D01*
X130883893Y-110340132D01*
X130903599Y-110354747D01*
X130921777Y-110371223D01*
X130938253Y-110389401D01*
X130952868Y-110409107D01*
X130965480Y-110430150D01*
X130975970Y-110452329D01*
X130984235Y-110475428D01*
X130990196Y-110499227D01*
X130993796Y-110523495D01*
X130995000Y-110547999D01*
X130995000Y-111448001D01*
X130993796Y-111472505D01*
X130990196Y-111496773D01*
X130984235Y-111520572D01*
X130975970Y-111543671D01*
X130965480Y-111565850D01*
X130952868Y-111586893D01*
X130938253Y-111606599D01*
X130921777Y-111624777D01*
X130903599Y-111641253D01*
X130883893Y-111655868D01*
X130862850Y-111668480D01*
X130840671Y-111678970D01*
X130817572Y-111687235D01*
X130793773Y-111693196D01*
X130769505Y-111696796D01*
X130745001Y-111698000D01*
X130094999Y-111698000D01*
X130070495Y-111696796D01*
X130046227Y-111693196D01*
X130022428Y-111687235D01*
X129999329Y-111678970D01*
X129977150Y-111668480D01*
X129956107Y-111655868D01*
X129936401Y-111641253D01*
X129918223Y-111624777D01*
X129901747Y-111606599D01*
X129887132Y-111586893D01*
X129874520Y-111565850D01*
X129864030Y-111543671D01*
X129855765Y-111520572D01*
X129849804Y-111496773D01*
X129846204Y-111472505D01*
X129845000Y-111448001D01*
X129845000Y-110547999D01*
X129846204Y-110523495D01*
X129849804Y-110499227D01*
X129855765Y-110475428D01*
X129864030Y-110452329D01*
X129874520Y-110430150D01*
X129887132Y-110409107D01*
X129901747Y-110389401D01*
X129918223Y-110371223D01*
X129936401Y-110354747D01*
X129956107Y-110340132D01*
X129977150Y-110327520D01*
X129999329Y-110317030D01*
X130022428Y-110308765D01*
X130046227Y-110302804D01*
X130070495Y-110299204D01*
X130094999Y-110298000D01*
X130745001Y-110298000D01*
X130769505Y-110299204D01*
G37*
G36*
X132819505Y-110299204D02*
G01*
X132843773Y-110302804D01*
X132867572Y-110308765D01*
X132890671Y-110317030D01*
X132912850Y-110327520D01*
X132933893Y-110340132D01*
X132953599Y-110354747D01*
X132971777Y-110371223D01*
X132988253Y-110389401D01*
X133002868Y-110409107D01*
X133015480Y-110430150D01*
X133025970Y-110452329D01*
X133034235Y-110475428D01*
X133040196Y-110499227D01*
X133043796Y-110523495D01*
X133045000Y-110547999D01*
X133045000Y-111448001D01*
X133043796Y-111472505D01*
X133040196Y-111496773D01*
X133034235Y-111520572D01*
X133025970Y-111543671D01*
X133015480Y-111565850D01*
X133002868Y-111586893D01*
X132988253Y-111606599D01*
X132971777Y-111624777D01*
X132953599Y-111641253D01*
X132933893Y-111655868D01*
X132912850Y-111668480D01*
X132890671Y-111678970D01*
X132867572Y-111687235D01*
X132843773Y-111693196D01*
X132819505Y-111696796D01*
X132795001Y-111698000D01*
X132144999Y-111698000D01*
X132120495Y-111696796D01*
X132096227Y-111693196D01*
X132072428Y-111687235D01*
X132049329Y-111678970D01*
X132027150Y-111668480D01*
X132006107Y-111655868D01*
X131986401Y-111641253D01*
X131968223Y-111624777D01*
X131951747Y-111606599D01*
X131937132Y-111586893D01*
X131924520Y-111565850D01*
X131914030Y-111543671D01*
X131905765Y-111520572D01*
X131899804Y-111496773D01*
X131896204Y-111472505D01*
X131895000Y-111448001D01*
X131895000Y-110547999D01*
X131896204Y-110523495D01*
X131899804Y-110499227D01*
X131905765Y-110475428D01*
X131914030Y-110452329D01*
X131924520Y-110430150D01*
X131937132Y-110409107D01*
X131951747Y-110389401D01*
X131968223Y-110371223D01*
X131986401Y-110354747D01*
X132006107Y-110340132D01*
X132027150Y-110327520D01*
X132049329Y-110317030D01*
X132072428Y-110308765D01*
X132096227Y-110302804D01*
X132120495Y-110299204D01*
X132144999Y-110298000D01*
X132795001Y-110298000D01*
X132819505Y-110299204D01*
G37*
G36*
X130515505Y-96075204D02*
G01*
X130539773Y-96078804D01*
X130563572Y-96084765D01*
X130586671Y-96093030D01*
X130608850Y-96103520D01*
X130629893Y-96116132D01*
X130649599Y-96130747D01*
X130667777Y-96147223D01*
X130684253Y-96165401D01*
X130698868Y-96185107D01*
X130711480Y-96206150D01*
X130721970Y-96228329D01*
X130730235Y-96251428D01*
X130736196Y-96275227D01*
X130739796Y-96299495D01*
X130741000Y-96323999D01*
X130741000Y-97224001D01*
X130739796Y-97248505D01*
X130736196Y-97272773D01*
X130730235Y-97296572D01*
X130721970Y-97319671D01*
X130711480Y-97341850D01*
X130698868Y-97362893D01*
X130684253Y-97382599D01*
X130667777Y-97400777D01*
X130649599Y-97417253D01*
X130629893Y-97431868D01*
X130608850Y-97444480D01*
X130586671Y-97454970D01*
X130563572Y-97463235D01*
X130539773Y-97469196D01*
X130515505Y-97472796D01*
X130491001Y-97474000D01*
X129840999Y-97474000D01*
X129816495Y-97472796D01*
X129792227Y-97469196D01*
X129768428Y-97463235D01*
X129745329Y-97454970D01*
X129723150Y-97444480D01*
X129702107Y-97431868D01*
X129682401Y-97417253D01*
X129664223Y-97400777D01*
X129647747Y-97382599D01*
X129633132Y-97362893D01*
X129620520Y-97341850D01*
X129610030Y-97319671D01*
X129601765Y-97296572D01*
X129595804Y-97272773D01*
X129592204Y-97248505D01*
X129591000Y-97224001D01*
X129591000Y-96323999D01*
X129592204Y-96299495D01*
X129595804Y-96275227D01*
X129601765Y-96251428D01*
X129610030Y-96228329D01*
X129620520Y-96206150D01*
X129633132Y-96185107D01*
X129647747Y-96165401D01*
X129664223Y-96147223D01*
X129682401Y-96130747D01*
X129702107Y-96116132D01*
X129723150Y-96103520D01*
X129745329Y-96093030D01*
X129768428Y-96084765D01*
X129792227Y-96078804D01*
X129816495Y-96075204D01*
X129840999Y-96074000D01*
X130491001Y-96074000D01*
X130515505Y-96075204D01*
G37*
G36*
X132565505Y-96075204D02*
G01*
X132589773Y-96078804D01*
X132613572Y-96084765D01*
X132636671Y-96093030D01*
X132658850Y-96103520D01*
X132679893Y-96116132D01*
X132699599Y-96130747D01*
X132717777Y-96147223D01*
X132734253Y-96165401D01*
X132748868Y-96185107D01*
X132761480Y-96206150D01*
X132771970Y-96228329D01*
X132780235Y-96251428D01*
X132786196Y-96275227D01*
X132789796Y-96299495D01*
X132791000Y-96323999D01*
X132791000Y-97224001D01*
X132789796Y-97248505D01*
X132786196Y-97272773D01*
X132780235Y-97296572D01*
X132771970Y-97319671D01*
X132761480Y-97341850D01*
X132748868Y-97362893D01*
X132734253Y-97382599D01*
X132717777Y-97400777D01*
X132699599Y-97417253D01*
X132679893Y-97431868D01*
X132658850Y-97444480D01*
X132636671Y-97454970D01*
X132613572Y-97463235D01*
X132589773Y-97469196D01*
X132565505Y-97472796D01*
X132541001Y-97474000D01*
X131890999Y-97474000D01*
X131866495Y-97472796D01*
X131842227Y-97469196D01*
X131818428Y-97463235D01*
X131795329Y-97454970D01*
X131773150Y-97444480D01*
X131752107Y-97431868D01*
X131732401Y-97417253D01*
X131714223Y-97400777D01*
X131697747Y-97382599D01*
X131683132Y-97362893D01*
X131670520Y-97341850D01*
X131660030Y-97319671D01*
X131651765Y-97296572D01*
X131645804Y-97272773D01*
X131642204Y-97248505D01*
X131641000Y-97224001D01*
X131641000Y-96323999D01*
X131642204Y-96299495D01*
X131645804Y-96275227D01*
X131651765Y-96251428D01*
X131660030Y-96228329D01*
X131670520Y-96206150D01*
X131683132Y-96185107D01*
X131697747Y-96165401D01*
X131714223Y-96147223D01*
X131732401Y-96130747D01*
X131752107Y-96116132D01*
X131773150Y-96103520D01*
X131795329Y-96093030D01*
X131818428Y-96084765D01*
X131842227Y-96078804D01*
X131866495Y-96075204D01*
X131890999Y-96074000D01*
X132541001Y-96074000D01*
X132565505Y-96075204D01*
G37*
G36*
X130515505Y-88963204D02*
G01*
X130539773Y-88966804D01*
X130563572Y-88972765D01*
X130586671Y-88981030D01*
X130608850Y-88991520D01*
X130629893Y-89004132D01*
X130649599Y-89018747D01*
X130667777Y-89035223D01*
X130684253Y-89053401D01*
X130698868Y-89073107D01*
X130711480Y-89094150D01*
X130721970Y-89116329D01*
X130730235Y-89139428D01*
X130736196Y-89163227D01*
X130739796Y-89187495D01*
X130741000Y-89211999D01*
X130741000Y-90112001D01*
X130739796Y-90136505D01*
X130736196Y-90160773D01*
X130730235Y-90184572D01*
X130721970Y-90207671D01*
X130711480Y-90229850D01*
X130698868Y-90250893D01*
X130684253Y-90270599D01*
X130667777Y-90288777D01*
X130649599Y-90305253D01*
X130629893Y-90319868D01*
X130608850Y-90332480D01*
X130586671Y-90342970D01*
X130563572Y-90351235D01*
X130539773Y-90357196D01*
X130515505Y-90360796D01*
X130491001Y-90362000D01*
X129840999Y-90362000D01*
X129816495Y-90360796D01*
X129792227Y-90357196D01*
X129768428Y-90351235D01*
X129745329Y-90342970D01*
X129723150Y-90332480D01*
X129702107Y-90319868D01*
X129682401Y-90305253D01*
X129664223Y-90288777D01*
X129647747Y-90270599D01*
X129633132Y-90250893D01*
X129620520Y-90229850D01*
X129610030Y-90207671D01*
X129601765Y-90184572D01*
X129595804Y-90160773D01*
X129592204Y-90136505D01*
X129591000Y-90112001D01*
X129591000Y-89211999D01*
X129592204Y-89187495D01*
X129595804Y-89163227D01*
X129601765Y-89139428D01*
X129610030Y-89116329D01*
X129620520Y-89094150D01*
X129633132Y-89073107D01*
X129647747Y-89053401D01*
X129664223Y-89035223D01*
X129682401Y-89018747D01*
X129702107Y-89004132D01*
X129723150Y-88991520D01*
X129745329Y-88981030D01*
X129768428Y-88972765D01*
X129792227Y-88966804D01*
X129816495Y-88963204D01*
X129840999Y-88962000D01*
X130491001Y-88962000D01*
X130515505Y-88963204D01*
G37*
G36*
X132565505Y-88963204D02*
G01*
X132589773Y-88966804D01*
X132613572Y-88972765D01*
X132636671Y-88981030D01*
X132658850Y-88991520D01*
X132679893Y-89004132D01*
X132699599Y-89018747D01*
X132717777Y-89035223D01*
X132734253Y-89053401D01*
X132748868Y-89073107D01*
X132761480Y-89094150D01*
X132771970Y-89116329D01*
X132780235Y-89139428D01*
X132786196Y-89163227D01*
X132789796Y-89187495D01*
X132791000Y-89211999D01*
X132791000Y-90112001D01*
X132789796Y-90136505D01*
X132786196Y-90160773D01*
X132780235Y-90184572D01*
X132771970Y-90207671D01*
X132761480Y-90229850D01*
X132748868Y-90250893D01*
X132734253Y-90270599D01*
X132717777Y-90288777D01*
X132699599Y-90305253D01*
X132679893Y-90319868D01*
X132658850Y-90332480D01*
X132636671Y-90342970D01*
X132613572Y-90351235D01*
X132589773Y-90357196D01*
X132565505Y-90360796D01*
X132541001Y-90362000D01*
X131890999Y-90362000D01*
X131866495Y-90360796D01*
X131842227Y-90357196D01*
X131818428Y-90351235D01*
X131795329Y-90342970D01*
X131773150Y-90332480D01*
X131752107Y-90319868D01*
X131732401Y-90305253D01*
X131714223Y-90288777D01*
X131697747Y-90270599D01*
X131683132Y-90250893D01*
X131670520Y-90229850D01*
X131660030Y-90207671D01*
X131651765Y-90184572D01*
X131645804Y-90160773D01*
X131642204Y-90136505D01*
X131641000Y-90112001D01*
X131641000Y-89211999D01*
X131642204Y-89187495D01*
X131645804Y-89163227D01*
X131651765Y-89139428D01*
X131660030Y-89116329D01*
X131670520Y-89094150D01*
X131683132Y-89073107D01*
X131697747Y-89053401D01*
X131714223Y-89035223D01*
X131732401Y-89018747D01*
X131752107Y-89004132D01*
X131773150Y-88991520D01*
X131795329Y-88981030D01*
X131818428Y-88972765D01*
X131842227Y-88966804D01*
X131866495Y-88963204D01*
X131890999Y-88962000D01*
X132541001Y-88962000D01*
X132565505Y-88963204D01*
G37*
G36*
X130515505Y-81851204D02*
G01*
X130539773Y-81854804D01*
X130563572Y-81860765D01*
X130586671Y-81869030D01*
X130608850Y-81879520D01*
X130629893Y-81892132D01*
X130649599Y-81906747D01*
X130667777Y-81923223D01*
X130684253Y-81941401D01*
X130698868Y-81961107D01*
X130711480Y-81982150D01*
X130721970Y-82004329D01*
X130730235Y-82027428D01*
X130736196Y-82051227D01*
X130739796Y-82075495D01*
X130741000Y-82099999D01*
X130741000Y-83000001D01*
X130739796Y-83024505D01*
X130736196Y-83048773D01*
X130730235Y-83072572D01*
X130721970Y-83095671D01*
X130711480Y-83117850D01*
X130698868Y-83138893D01*
X130684253Y-83158599D01*
X130667777Y-83176777D01*
X130649599Y-83193253D01*
X130629893Y-83207868D01*
X130608850Y-83220480D01*
X130586671Y-83230970D01*
X130563572Y-83239235D01*
X130539773Y-83245196D01*
X130515505Y-83248796D01*
X130491001Y-83250000D01*
X129840999Y-83250000D01*
X129816495Y-83248796D01*
X129792227Y-83245196D01*
X129768428Y-83239235D01*
X129745329Y-83230970D01*
X129723150Y-83220480D01*
X129702107Y-83207868D01*
X129682401Y-83193253D01*
X129664223Y-83176777D01*
X129647747Y-83158599D01*
X129633132Y-83138893D01*
X129620520Y-83117850D01*
X129610030Y-83095671D01*
X129601765Y-83072572D01*
X129595804Y-83048773D01*
X129592204Y-83024505D01*
X129591000Y-83000001D01*
X129591000Y-82099999D01*
X129592204Y-82075495D01*
X129595804Y-82051227D01*
X129601765Y-82027428D01*
X129610030Y-82004329D01*
X129620520Y-81982150D01*
X129633132Y-81961107D01*
X129647747Y-81941401D01*
X129664223Y-81923223D01*
X129682401Y-81906747D01*
X129702107Y-81892132D01*
X129723150Y-81879520D01*
X129745329Y-81869030D01*
X129768428Y-81860765D01*
X129792227Y-81854804D01*
X129816495Y-81851204D01*
X129840999Y-81850000D01*
X130491001Y-81850000D01*
X130515505Y-81851204D01*
G37*
G36*
X132565505Y-81851204D02*
G01*
X132589773Y-81854804D01*
X132613572Y-81860765D01*
X132636671Y-81869030D01*
X132658850Y-81879520D01*
X132679893Y-81892132D01*
X132699599Y-81906747D01*
X132717777Y-81923223D01*
X132734253Y-81941401D01*
X132748868Y-81961107D01*
X132761480Y-81982150D01*
X132771970Y-82004329D01*
X132780235Y-82027428D01*
X132786196Y-82051227D01*
X132789796Y-82075495D01*
X132791000Y-82099999D01*
X132791000Y-83000001D01*
X132789796Y-83024505D01*
X132786196Y-83048773D01*
X132780235Y-83072572D01*
X132771970Y-83095671D01*
X132761480Y-83117850D01*
X132748868Y-83138893D01*
X132734253Y-83158599D01*
X132717777Y-83176777D01*
X132699599Y-83193253D01*
X132679893Y-83207868D01*
X132658850Y-83220480D01*
X132636671Y-83230970D01*
X132613572Y-83239235D01*
X132589773Y-83245196D01*
X132565505Y-83248796D01*
X132541001Y-83250000D01*
X131890999Y-83250000D01*
X131866495Y-83248796D01*
X131842227Y-83245196D01*
X131818428Y-83239235D01*
X131795329Y-83230970D01*
X131773150Y-83220480D01*
X131752107Y-83207868D01*
X131732401Y-83193253D01*
X131714223Y-83176777D01*
X131697747Y-83158599D01*
X131683132Y-83138893D01*
X131670520Y-83117850D01*
X131660030Y-83095671D01*
X131651765Y-83072572D01*
X131645804Y-83048773D01*
X131642204Y-83024505D01*
X131641000Y-83000001D01*
X131641000Y-82099999D01*
X131642204Y-82075495D01*
X131645804Y-82051227D01*
X131651765Y-82027428D01*
X131660030Y-82004329D01*
X131670520Y-81982150D01*
X131683132Y-81961107D01*
X131697747Y-81941401D01*
X131714223Y-81923223D01*
X131732401Y-81906747D01*
X131752107Y-81892132D01*
X131773150Y-81879520D01*
X131795329Y-81869030D01*
X131818428Y-81860765D01*
X131842227Y-81854804D01*
X131866495Y-81851204D01*
X131890999Y-81850000D01*
X132541001Y-81850000D01*
X132565505Y-81851204D01*
G37*
G36*
X130515505Y-74739204D02*
G01*
X130539773Y-74742804D01*
X130563572Y-74748765D01*
X130586671Y-74757030D01*
X130608850Y-74767520D01*
X130629893Y-74780132D01*
X130649599Y-74794747D01*
X130667777Y-74811223D01*
X130684253Y-74829401D01*
X130698868Y-74849107D01*
X130711480Y-74870150D01*
X130721970Y-74892329D01*
X130730235Y-74915428D01*
X130736196Y-74939227D01*
X130739796Y-74963495D01*
X130741000Y-74987999D01*
X130741000Y-75888001D01*
X130739796Y-75912505D01*
X130736196Y-75936773D01*
X130730235Y-75960572D01*
X130721970Y-75983671D01*
X130711480Y-76005850D01*
X130698868Y-76026893D01*
X130684253Y-76046599D01*
X130667777Y-76064777D01*
X130649599Y-76081253D01*
X130629893Y-76095868D01*
X130608850Y-76108480D01*
X130586671Y-76118970D01*
X130563572Y-76127235D01*
X130539773Y-76133196D01*
X130515505Y-76136796D01*
X130491001Y-76138000D01*
X129840999Y-76138000D01*
X129816495Y-76136796D01*
X129792227Y-76133196D01*
X129768428Y-76127235D01*
X129745329Y-76118970D01*
X129723150Y-76108480D01*
X129702107Y-76095868D01*
X129682401Y-76081253D01*
X129664223Y-76064777D01*
X129647747Y-76046599D01*
X129633132Y-76026893D01*
X129620520Y-76005850D01*
X129610030Y-75983671D01*
X129601765Y-75960572D01*
X129595804Y-75936773D01*
X129592204Y-75912505D01*
X129591000Y-75888001D01*
X129591000Y-74987999D01*
X129592204Y-74963495D01*
X129595804Y-74939227D01*
X129601765Y-74915428D01*
X129610030Y-74892329D01*
X129620520Y-74870150D01*
X129633132Y-74849107D01*
X129647747Y-74829401D01*
X129664223Y-74811223D01*
X129682401Y-74794747D01*
X129702107Y-74780132D01*
X129723150Y-74767520D01*
X129745329Y-74757030D01*
X129768428Y-74748765D01*
X129792227Y-74742804D01*
X129816495Y-74739204D01*
X129840999Y-74738000D01*
X130491001Y-74738000D01*
X130515505Y-74739204D01*
G37*
G36*
X132565505Y-74739204D02*
G01*
X132589773Y-74742804D01*
X132613572Y-74748765D01*
X132636671Y-74757030D01*
X132658850Y-74767520D01*
X132679893Y-74780132D01*
X132699599Y-74794747D01*
X132717777Y-74811223D01*
X132734253Y-74829401D01*
X132748868Y-74849107D01*
X132761480Y-74870150D01*
X132771970Y-74892329D01*
X132780235Y-74915428D01*
X132786196Y-74939227D01*
X132789796Y-74963495D01*
X132791000Y-74987999D01*
X132791000Y-75888001D01*
X132789796Y-75912505D01*
X132786196Y-75936773D01*
X132780235Y-75960572D01*
X132771970Y-75983671D01*
X132761480Y-76005850D01*
X132748868Y-76026893D01*
X132734253Y-76046599D01*
X132717777Y-76064777D01*
X132699599Y-76081253D01*
X132679893Y-76095868D01*
X132658850Y-76108480D01*
X132636671Y-76118970D01*
X132613572Y-76127235D01*
X132589773Y-76133196D01*
X132565505Y-76136796D01*
X132541001Y-76138000D01*
X131890999Y-76138000D01*
X131866495Y-76136796D01*
X131842227Y-76133196D01*
X131818428Y-76127235D01*
X131795329Y-76118970D01*
X131773150Y-76108480D01*
X131752107Y-76095868D01*
X131732401Y-76081253D01*
X131714223Y-76064777D01*
X131697747Y-76046599D01*
X131683132Y-76026893D01*
X131670520Y-76005850D01*
X131660030Y-75983671D01*
X131651765Y-75960572D01*
X131645804Y-75936773D01*
X131642204Y-75912505D01*
X131641000Y-75888001D01*
X131641000Y-74987999D01*
X131642204Y-74963495D01*
X131645804Y-74939227D01*
X131651765Y-74915428D01*
X131660030Y-74892329D01*
X131670520Y-74870150D01*
X131683132Y-74849107D01*
X131697747Y-74829401D01*
X131714223Y-74811223D01*
X131732401Y-74794747D01*
X131752107Y-74780132D01*
X131773150Y-74767520D01*
X131795329Y-74757030D01*
X131818428Y-74748765D01*
X131842227Y-74742804D01*
X131866495Y-74739204D01*
X131890999Y-74738000D01*
X132541001Y-74738000D01*
X132565505Y-74739204D01*
G37*
G36*
X130515505Y-67627204D02*
G01*
X130539773Y-67630804D01*
X130563572Y-67636765D01*
X130586671Y-67645030D01*
X130608850Y-67655520D01*
X130629893Y-67668132D01*
X130649599Y-67682747D01*
X130667777Y-67699223D01*
X130684253Y-67717401D01*
X130698868Y-67737107D01*
X130711480Y-67758150D01*
X130721970Y-67780329D01*
X130730235Y-67803428D01*
X130736196Y-67827227D01*
X130739796Y-67851495D01*
X130741000Y-67875999D01*
X130741000Y-68776001D01*
X130739796Y-68800505D01*
X130736196Y-68824773D01*
X130730235Y-68848572D01*
X130721970Y-68871671D01*
X130711480Y-68893850D01*
X130698868Y-68914893D01*
X130684253Y-68934599D01*
X130667777Y-68952777D01*
X130649599Y-68969253D01*
X130629893Y-68983868D01*
X130608850Y-68996480D01*
X130586671Y-69006970D01*
X130563572Y-69015235D01*
X130539773Y-69021196D01*
X130515505Y-69024796D01*
X130491001Y-69026000D01*
X129840999Y-69026000D01*
X129816495Y-69024796D01*
X129792227Y-69021196D01*
X129768428Y-69015235D01*
X129745329Y-69006970D01*
X129723150Y-68996480D01*
X129702107Y-68983868D01*
X129682401Y-68969253D01*
X129664223Y-68952777D01*
X129647747Y-68934599D01*
X129633132Y-68914893D01*
X129620520Y-68893850D01*
X129610030Y-68871671D01*
X129601765Y-68848572D01*
X129595804Y-68824773D01*
X129592204Y-68800505D01*
X129591000Y-68776001D01*
X129591000Y-67875999D01*
X129592204Y-67851495D01*
X129595804Y-67827227D01*
X129601765Y-67803428D01*
X129610030Y-67780329D01*
X129620520Y-67758150D01*
X129633132Y-67737107D01*
X129647747Y-67717401D01*
X129664223Y-67699223D01*
X129682401Y-67682747D01*
X129702107Y-67668132D01*
X129723150Y-67655520D01*
X129745329Y-67645030D01*
X129768428Y-67636765D01*
X129792227Y-67630804D01*
X129816495Y-67627204D01*
X129840999Y-67626000D01*
X130491001Y-67626000D01*
X130515505Y-67627204D01*
G37*
G36*
X132565505Y-67627204D02*
G01*
X132589773Y-67630804D01*
X132613572Y-67636765D01*
X132636671Y-67645030D01*
X132658850Y-67655520D01*
X132679893Y-67668132D01*
X132699599Y-67682747D01*
X132717777Y-67699223D01*
X132734253Y-67717401D01*
X132748868Y-67737107D01*
X132761480Y-67758150D01*
X132771970Y-67780329D01*
X132780235Y-67803428D01*
X132786196Y-67827227D01*
X132789796Y-67851495D01*
X132791000Y-67875999D01*
X132791000Y-68776001D01*
X132789796Y-68800505D01*
X132786196Y-68824773D01*
X132780235Y-68848572D01*
X132771970Y-68871671D01*
X132761480Y-68893850D01*
X132748868Y-68914893D01*
X132734253Y-68934599D01*
X132717777Y-68952777D01*
X132699599Y-68969253D01*
X132679893Y-68983868D01*
X132658850Y-68996480D01*
X132636671Y-69006970D01*
X132613572Y-69015235D01*
X132589773Y-69021196D01*
X132565505Y-69024796D01*
X132541001Y-69026000D01*
X131890999Y-69026000D01*
X131866495Y-69024796D01*
X131842227Y-69021196D01*
X131818428Y-69015235D01*
X131795329Y-69006970D01*
X131773150Y-68996480D01*
X131752107Y-68983868D01*
X131732401Y-68969253D01*
X131714223Y-68952777D01*
X131697747Y-68934599D01*
X131683132Y-68914893D01*
X131670520Y-68893850D01*
X131660030Y-68871671D01*
X131651765Y-68848572D01*
X131645804Y-68824773D01*
X131642204Y-68800505D01*
X131641000Y-68776001D01*
X131641000Y-67875999D01*
X131642204Y-67851495D01*
X131645804Y-67827227D01*
X131651765Y-67803428D01*
X131660030Y-67780329D01*
X131670520Y-67758150D01*
X131683132Y-67737107D01*
X131697747Y-67717401D01*
X131714223Y-67699223D01*
X131732401Y-67682747D01*
X131752107Y-67668132D01*
X131773150Y-67655520D01*
X131795329Y-67645030D01*
X131818428Y-67636765D01*
X131842227Y-67630804D01*
X131866495Y-67627204D01*
X131890999Y-67626000D01*
X132541001Y-67626000D01*
X132565505Y-67627204D01*
G37*
M02*
