G04 #@! TF.GenerationSoftware,KiCad,Pcbnew,(5.1.5-0-10_14)*
G04 #@! TF.CreationDate,2020-10-04T23:04:19+02:00*
G04 #@! TF.ProjectId,wifi-modem,77696669-2d6d-46f6-9465-6d2e6b696361,rev?*
G04 #@! TF.SameCoordinates,Original*
G04 #@! TF.FileFunction,Legend,Top*
G04 #@! TF.FilePolarity,Positive*
%FSLAX46Y46*%
G04 Gerber Fmt 4.6, Leading zero omitted, Abs format (unit mm)*
G04 Created by KiCad (PCBNEW (5.1.5-0-10_14)) date 2020-10-04 23:04:19*
%MOMM*%
%LPD*%
G04 APERTURE LIST*
%ADD10C,0.150000*%
%ADD11C,0.250000*%
%ADD12C,0.127000*%
%ADD13C,0.200000*%
%ADD14C,0.120000*%
G04 APERTURE END LIST*
D10*
X163211309Y-136993880D02*
X163544642Y-137993880D01*
X163877976Y-136993880D01*
X164592261Y-137946261D02*
X164497023Y-137993880D01*
X164306547Y-137993880D01*
X164211309Y-137946261D01*
X164163690Y-137851023D01*
X164163690Y-137470071D01*
X164211309Y-137374833D01*
X164306547Y-137327214D01*
X164497023Y-137327214D01*
X164592261Y-137374833D01*
X164639880Y-137470071D01*
X164639880Y-137565309D01*
X164163690Y-137660547D01*
X165068452Y-137993880D02*
X165068452Y-137327214D01*
X165068452Y-137517690D02*
X165116071Y-137422452D01*
X165163690Y-137374833D01*
X165258928Y-137327214D01*
X165354166Y-137327214D01*
X165639880Y-137946261D02*
X165735119Y-137993880D01*
X165925595Y-137993880D01*
X166020833Y-137946261D01*
X166068452Y-137851023D01*
X166068452Y-137803404D01*
X166020833Y-137708166D01*
X165925595Y-137660547D01*
X165782738Y-137660547D01*
X165687500Y-137612928D01*
X165639880Y-137517690D01*
X165639880Y-137470071D01*
X165687500Y-137374833D01*
X165782738Y-137327214D01*
X165925595Y-137327214D01*
X166020833Y-137374833D01*
X166497023Y-137993880D02*
X166497023Y-137327214D01*
X166497023Y-136993880D02*
X166449404Y-137041500D01*
X166497023Y-137089119D01*
X166544642Y-137041500D01*
X166497023Y-136993880D01*
X166497023Y-137089119D01*
X167116071Y-137993880D02*
X167020833Y-137946261D01*
X166973214Y-137898642D01*
X166925595Y-137803404D01*
X166925595Y-137517690D01*
X166973214Y-137422452D01*
X167020833Y-137374833D01*
X167116071Y-137327214D01*
X167258928Y-137327214D01*
X167354166Y-137374833D01*
X167401785Y-137422452D01*
X167449404Y-137517690D01*
X167449404Y-137803404D01*
X167401785Y-137898642D01*
X167354166Y-137946261D01*
X167258928Y-137993880D01*
X167116071Y-137993880D01*
X167877976Y-137327214D02*
X167877976Y-137993880D01*
X167877976Y-137422452D02*
X167925595Y-137374833D01*
X168020833Y-137327214D01*
X168163690Y-137327214D01*
X168258928Y-137374833D01*
X168306547Y-137470071D01*
X168306547Y-137993880D01*
X169497023Y-137089119D02*
X169544642Y-137041500D01*
X169639880Y-136993880D01*
X169877976Y-136993880D01*
X169973214Y-137041500D01*
X170020833Y-137089119D01*
X170068452Y-137184357D01*
X170068452Y-137279595D01*
X170020833Y-137422452D01*
X169449404Y-137993880D01*
X170068452Y-137993880D01*
X161830357Y-138739119D02*
X161877976Y-138691500D01*
X161973214Y-138643880D01*
X162211309Y-138643880D01*
X162306547Y-138691500D01*
X162354166Y-138739119D01*
X162401785Y-138834357D01*
X162401785Y-138929595D01*
X162354166Y-139072452D01*
X161782738Y-139643880D01*
X162401785Y-139643880D01*
X163020833Y-138643880D02*
X163116071Y-138643880D01*
X163211309Y-138691500D01*
X163258928Y-138739119D01*
X163306547Y-138834357D01*
X163354166Y-139024833D01*
X163354166Y-139262928D01*
X163306547Y-139453404D01*
X163258928Y-139548642D01*
X163211309Y-139596261D01*
X163116071Y-139643880D01*
X163020833Y-139643880D01*
X162925595Y-139596261D01*
X162877976Y-139548642D01*
X162830357Y-139453404D01*
X162782738Y-139262928D01*
X162782738Y-139024833D01*
X162830357Y-138834357D01*
X162877976Y-138739119D01*
X162925595Y-138691500D01*
X163020833Y-138643880D01*
X163735119Y-138739119D02*
X163782738Y-138691500D01*
X163877976Y-138643880D01*
X164116071Y-138643880D01*
X164211309Y-138691500D01*
X164258928Y-138739119D01*
X164306547Y-138834357D01*
X164306547Y-138929595D01*
X164258928Y-139072452D01*
X163687500Y-139643880D01*
X164306547Y-139643880D01*
X164925595Y-138643880D02*
X165020833Y-138643880D01*
X165116071Y-138691500D01*
X165163690Y-138739119D01*
X165211309Y-138834357D01*
X165258928Y-139024833D01*
X165258928Y-139262928D01*
X165211309Y-139453404D01*
X165163690Y-139548642D01*
X165116071Y-139596261D01*
X165020833Y-139643880D01*
X164925595Y-139643880D01*
X164830357Y-139596261D01*
X164782738Y-139548642D01*
X164735119Y-139453404D01*
X164687500Y-139262928D01*
X164687500Y-139024833D01*
X164735119Y-138834357D01*
X164782738Y-138739119D01*
X164830357Y-138691500D01*
X164925595Y-138643880D01*
X165687500Y-139262928D02*
X166449404Y-139262928D01*
X167449404Y-139643880D02*
X166877976Y-139643880D01*
X167163690Y-139643880D02*
X167163690Y-138643880D01*
X167068452Y-138786738D01*
X166973214Y-138881976D01*
X166877976Y-138929595D01*
X168068452Y-138643880D02*
X168163690Y-138643880D01*
X168258928Y-138691500D01*
X168306547Y-138739119D01*
X168354166Y-138834357D01*
X168401785Y-139024833D01*
X168401785Y-139262928D01*
X168354166Y-139453404D01*
X168306547Y-139548642D01*
X168258928Y-139596261D01*
X168163690Y-139643880D01*
X168068452Y-139643880D01*
X167973214Y-139596261D01*
X167925595Y-139548642D01*
X167877976Y-139453404D01*
X167830357Y-139262928D01*
X167830357Y-139024833D01*
X167877976Y-138834357D01*
X167925595Y-138739119D01*
X167973214Y-138691500D01*
X168068452Y-138643880D01*
X168830357Y-139262928D02*
X169592261Y-139262928D01*
X170258928Y-138643880D02*
X170354166Y-138643880D01*
X170449404Y-138691500D01*
X170497023Y-138739119D01*
X170544642Y-138834357D01*
X170592261Y-139024833D01*
X170592261Y-139262928D01*
X170544642Y-139453404D01*
X170497023Y-139548642D01*
X170449404Y-139596261D01*
X170354166Y-139643880D01*
X170258928Y-139643880D01*
X170163690Y-139596261D01*
X170116071Y-139548642D01*
X170068452Y-139453404D01*
X170020833Y-139262928D01*
X170020833Y-139024833D01*
X170068452Y-138834357D01*
X170116071Y-138739119D01*
X170163690Y-138691500D01*
X170258928Y-138643880D01*
X171449404Y-138977214D02*
X171449404Y-139643880D01*
X171211309Y-138596261D02*
X170973214Y-139310547D01*
X171592261Y-139310547D01*
D11*
X124462142Y-136493857D02*
X124724047Y-137693857D01*
X124933571Y-136836714D01*
X125143095Y-137693857D01*
X125405000Y-136493857D01*
X125824047Y-137693857D02*
X125824047Y-136893857D01*
X125824047Y-136493857D02*
X125771666Y-136551000D01*
X125824047Y-136608142D01*
X125876428Y-136551000D01*
X125824047Y-136493857D01*
X125824047Y-136608142D01*
X126714523Y-137065285D02*
X126347857Y-137065285D01*
X126347857Y-137693857D02*
X126347857Y-136493857D01*
X126871666Y-136493857D01*
X127290714Y-137693857D02*
X127290714Y-136893857D01*
X127290714Y-136493857D02*
X127238333Y-136551000D01*
X127290714Y-136608142D01*
X127343095Y-136551000D01*
X127290714Y-136493857D01*
X127290714Y-136608142D01*
X128652619Y-137693857D02*
X128652619Y-136493857D01*
X129019285Y-137351000D01*
X129385952Y-136493857D01*
X129385952Y-137693857D01*
X130066904Y-137693857D02*
X129962142Y-137636714D01*
X129909761Y-137579571D01*
X129857380Y-137465285D01*
X129857380Y-137122428D01*
X129909761Y-137008142D01*
X129962142Y-136951000D01*
X130066904Y-136893857D01*
X130224047Y-136893857D01*
X130328809Y-136951000D01*
X130381190Y-137008142D01*
X130433571Y-137122428D01*
X130433571Y-137465285D01*
X130381190Y-137579571D01*
X130328809Y-137636714D01*
X130224047Y-137693857D01*
X130066904Y-137693857D01*
X131376428Y-137693857D02*
X131376428Y-136493857D01*
X131376428Y-137636714D02*
X131271666Y-137693857D01*
X131062142Y-137693857D01*
X130957380Y-137636714D01*
X130905000Y-137579571D01*
X130852619Y-137465285D01*
X130852619Y-137122428D01*
X130905000Y-137008142D01*
X130957380Y-136951000D01*
X131062142Y-136893857D01*
X131271666Y-136893857D01*
X131376428Y-136951000D01*
X132319285Y-137636714D02*
X132214523Y-137693857D01*
X132005000Y-137693857D01*
X131900238Y-137636714D01*
X131847857Y-137522428D01*
X131847857Y-137065285D01*
X131900238Y-136951000D01*
X132005000Y-136893857D01*
X132214523Y-136893857D01*
X132319285Y-136951000D01*
X132371666Y-137065285D01*
X132371666Y-137179571D01*
X131847857Y-137293857D01*
X132843095Y-137693857D02*
X132843095Y-136893857D01*
X132843095Y-137008142D02*
X132895476Y-136951000D01*
X133000238Y-136893857D01*
X133157380Y-136893857D01*
X133262142Y-136951000D01*
X133314523Y-137065285D01*
X133314523Y-137693857D01*
X133314523Y-137065285D02*
X133366904Y-136951000D01*
X133471666Y-136893857D01*
X133628809Y-136893857D01*
X133733571Y-136951000D01*
X133785952Y-137065285D01*
X133785952Y-137693857D01*
X125038333Y-138943857D02*
X125038333Y-139915285D01*
X124985952Y-140029571D01*
X124933571Y-140086714D01*
X124828809Y-140143857D01*
X124671666Y-140143857D01*
X124566904Y-140086714D01*
X125038333Y-139686714D02*
X124933571Y-139743857D01*
X124724047Y-139743857D01*
X124619285Y-139686714D01*
X124566904Y-139629571D01*
X124514523Y-139515285D01*
X124514523Y-139172428D01*
X124566904Y-139058142D01*
X124619285Y-139001000D01*
X124724047Y-138943857D01*
X124933571Y-138943857D01*
X125038333Y-139001000D01*
X125562142Y-139743857D02*
X125562142Y-138943857D01*
X125562142Y-138543857D02*
X125509761Y-138601000D01*
X125562142Y-138658142D01*
X125614523Y-138601000D01*
X125562142Y-138543857D01*
X125562142Y-138658142D01*
X125928809Y-138943857D02*
X126347857Y-138943857D01*
X126085952Y-138543857D02*
X126085952Y-139572428D01*
X126138333Y-139686714D01*
X126243095Y-139743857D01*
X126347857Y-139743857D01*
X126714523Y-139743857D02*
X126714523Y-138543857D01*
X127185952Y-139743857D02*
X127185952Y-139115285D01*
X127133571Y-139001000D01*
X127028809Y-138943857D01*
X126871666Y-138943857D01*
X126766904Y-139001000D01*
X126714523Y-139058142D01*
X128181190Y-138943857D02*
X128181190Y-139743857D01*
X127709761Y-138943857D02*
X127709761Y-139572428D01*
X127762142Y-139686714D01*
X127866904Y-139743857D01*
X128024047Y-139743857D01*
X128128809Y-139686714D01*
X128181190Y-139629571D01*
X128705000Y-139743857D02*
X128705000Y-138543857D01*
X128705000Y-139001000D02*
X128809761Y-138943857D01*
X129019285Y-138943857D01*
X129124047Y-139001000D01*
X129176428Y-139058142D01*
X129228809Y-139172428D01*
X129228809Y-139515285D01*
X129176428Y-139629571D01*
X129124047Y-139686714D01*
X129019285Y-139743857D01*
X128809761Y-139743857D01*
X128705000Y-139686714D01*
X129700238Y-139629571D02*
X129752619Y-139686714D01*
X129700238Y-139743857D01*
X129647857Y-139686714D01*
X129700238Y-139629571D01*
X129700238Y-139743857D01*
X130695476Y-139686714D02*
X130590714Y-139743857D01*
X130381190Y-139743857D01*
X130276428Y-139686714D01*
X130224047Y-139629571D01*
X130171666Y-139515285D01*
X130171666Y-139172428D01*
X130224047Y-139058142D01*
X130276428Y-139001000D01*
X130381190Y-138943857D01*
X130590714Y-138943857D01*
X130695476Y-139001000D01*
X131324047Y-139743857D02*
X131219285Y-139686714D01*
X131166904Y-139629571D01*
X131114523Y-139515285D01*
X131114523Y-139172428D01*
X131166904Y-139058142D01*
X131219285Y-139001000D01*
X131324047Y-138943857D01*
X131481190Y-138943857D01*
X131585952Y-139001000D01*
X131638333Y-139058142D01*
X131690714Y-139172428D01*
X131690714Y-139515285D01*
X131638333Y-139629571D01*
X131585952Y-139686714D01*
X131481190Y-139743857D01*
X131324047Y-139743857D01*
X132162142Y-139743857D02*
X132162142Y-138943857D01*
X132162142Y-139058142D02*
X132214523Y-139001000D01*
X132319285Y-138943857D01*
X132476428Y-138943857D01*
X132581190Y-139001000D01*
X132633571Y-139115285D01*
X132633571Y-139743857D01*
X132633571Y-139115285D02*
X132685952Y-139001000D01*
X132790714Y-138943857D01*
X132947857Y-138943857D01*
X133052619Y-139001000D01*
X133105000Y-139115285D01*
X133105000Y-139743857D01*
X134414523Y-138486714D02*
X133471666Y-140029571D01*
X134781190Y-139743857D02*
X134781190Y-138543857D01*
X135252619Y-139743857D02*
X135252619Y-139115285D01*
X135200238Y-139001000D01*
X135095476Y-138943857D01*
X134938333Y-138943857D01*
X134833571Y-139001000D01*
X134781190Y-139058142D01*
X136247857Y-139743857D02*
X136247857Y-139115285D01*
X136195476Y-139001000D01*
X136090714Y-138943857D01*
X135881190Y-138943857D01*
X135776428Y-139001000D01*
X136247857Y-139686714D02*
X136143095Y-139743857D01*
X135881190Y-139743857D01*
X135776428Y-139686714D01*
X135724047Y-139572428D01*
X135724047Y-139458142D01*
X135776428Y-139343857D01*
X135881190Y-139286714D01*
X136143095Y-139286714D01*
X136247857Y-139229571D01*
X136771666Y-138943857D02*
X136771666Y-139743857D01*
X136771666Y-139058142D02*
X136824047Y-139001000D01*
X136928809Y-138943857D01*
X137085952Y-138943857D01*
X137190714Y-139001000D01*
X137243095Y-139115285D01*
X137243095Y-139743857D01*
X137714523Y-139686714D02*
X137819285Y-139743857D01*
X138028809Y-139743857D01*
X138133571Y-139686714D01*
X138185952Y-139572428D01*
X138185952Y-139515285D01*
X138133571Y-139401000D01*
X138028809Y-139343857D01*
X137871666Y-139343857D01*
X137766904Y-139286714D01*
X137714523Y-139172428D01*
X137714523Y-139115285D01*
X137766904Y-139001000D01*
X137871666Y-138943857D01*
X138028809Y-138943857D01*
X138133571Y-139001000D01*
X138657380Y-139743857D02*
X138657380Y-138543857D01*
X139128809Y-139743857D02*
X139128809Y-139115285D01*
X139076428Y-139001000D01*
X138971666Y-138943857D01*
X138814523Y-138943857D01*
X138709761Y-139001000D01*
X138657380Y-139058142D01*
X140124047Y-138943857D02*
X140124047Y-139743857D01*
X139652619Y-138943857D02*
X139652619Y-139572428D01*
X139705000Y-139686714D01*
X139809761Y-139743857D01*
X139966904Y-139743857D01*
X140071666Y-139686714D01*
X140124047Y-139629571D01*
X141066904Y-139686714D02*
X140962142Y-139743857D01*
X140752619Y-139743857D01*
X140647857Y-139686714D01*
X140595476Y-139572428D01*
X140595476Y-139115285D01*
X140647857Y-139001000D01*
X140752619Y-138943857D01*
X140962142Y-138943857D01*
X141066904Y-139001000D01*
X141119285Y-139115285D01*
X141119285Y-139229571D01*
X140595476Y-139343857D01*
X141590714Y-139743857D02*
X141590714Y-138543857D01*
X141590714Y-139001000D02*
X141695476Y-138943857D01*
X141905000Y-138943857D01*
X142009761Y-139001000D01*
X142062142Y-139058142D01*
X142114523Y-139172428D01*
X142114523Y-139515285D01*
X142062142Y-139629571D01*
X142009761Y-139686714D01*
X141905000Y-139743857D01*
X141695476Y-139743857D01*
X141590714Y-139686714D01*
X142585952Y-138943857D02*
X142585952Y-139743857D01*
X142585952Y-139058142D02*
X142638333Y-139001000D01*
X142743095Y-138943857D01*
X142900238Y-138943857D01*
X143005000Y-139001000D01*
X143057380Y-139115285D01*
X143057380Y-139743857D01*
X144000238Y-139686714D02*
X143895476Y-139743857D01*
X143685952Y-139743857D01*
X143581190Y-139686714D01*
X143528809Y-139572428D01*
X143528809Y-139115285D01*
X143581190Y-139001000D01*
X143685952Y-138943857D01*
X143895476Y-138943857D01*
X144000238Y-139001000D01*
X144052619Y-139115285D01*
X144052619Y-139229571D01*
X143528809Y-139343857D01*
X144524047Y-139743857D02*
X144524047Y-138943857D01*
X144524047Y-139172428D02*
X144576428Y-139058142D01*
X144628809Y-139001000D01*
X144733571Y-138943857D01*
X144838333Y-138943857D01*
X145990714Y-138486714D02*
X145047857Y-140029571D01*
X146252619Y-138943857D02*
X146462142Y-139743857D01*
X146671666Y-139172428D01*
X146881190Y-139743857D01*
X147090714Y-138943857D01*
X147509761Y-139743857D02*
X147509761Y-138943857D01*
X147509761Y-138543857D02*
X147457380Y-138601000D01*
X147509761Y-138658142D01*
X147562142Y-138601000D01*
X147509761Y-138543857D01*
X147509761Y-138658142D01*
X147876428Y-138943857D02*
X148295476Y-138943857D01*
X148033571Y-139743857D02*
X148033571Y-138715285D01*
X148085952Y-138601000D01*
X148190714Y-138543857D01*
X148295476Y-138543857D01*
X148662142Y-139743857D02*
X148662142Y-138943857D01*
X148662142Y-138543857D02*
X148609761Y-138601000D01*
X148662142Y-138658142D01*
X148714523Y-138601000D01*
X148662142Y-138543857D01*
X148662142Y-138658142D01*
X149185952Y-139286714D02*
X150024047Y-139286714D01*
X150547857Y-139743857D02*
X150547857Y-138943857D01*
X150547857Y-139058142D02*
X150600238Y-139001000D01*
X150705000Y-138943857D01*
X150862142Y-138943857D01*
X150966904Y-139001000D01*
X151019285Y-139115285D01*
X151019285Y-139743857D01*
X151019285Y-139115285D02*
X151071666Y-139001000D01*
X151176428Y-138943857D01*
X151333571Y-138943857D01*
X151438333Y-139001000D01*
X151490714Y-139115285D01*
X151490714Y-139743857D01*
X152171666Y-139743857D02*
X152066904Y-139686714D01*
X152014523Y-139629571D01*
X151962142Y-139515285D01*
X151962142Y-139172428D01*
X152014523Y-139058142D01*
X152066904Y-139001000D01*
X152171666Y-138943857D01*
X152328809Y-138943857D01*
X152433571Y-139001000D01*
X152485952Y-139058142D01*
X152538333Y-139172428D01*
X152538333Y-139515285D01*
X152485952Y-139629571D01*
X152433571Y-139686714D01*
X152328809Y-139743857D01*
X152171666Y-139743857D01*
X153481190Y-139743857D02*
X153481190Y-138543857D01*
X153481190Y-139686714D02*
X153376428Y-139743857D01*
X153166904Y-139743857D01*
X153062142Y-139686714D01*
X153009761Y-139629571D01*
X152957380Y-139515285D01*
X152957380Y-139172428D01*
X153009761Y-139058142D01*
X153062142Y-139001000D01*
X153166904Y-138943857D01*
X153376428Y-138943857D01*
X153481190Y-139001000D01*
X154424047Y-139686714D02*
X154319285Y-139743857D01*
X154109761Y-139743857D01*
X154005000Y-139686714D01*
X153952619Y-139572428D01*
X153952619Y-139115285D01*
X154005000Y-139001000D01*
X154109761Y-138943857D01*
X154319285Y-138943857D01*
X154424047Y-139001000D01*
X154476428Y-139115285D01*
X154476428Y-139229571D01*
X153952619Y-139343857D01*
X154947857Y-139743857D02*
X154947857Y-138943857D01*
X154947857Y-139058142D02*
X155000238Y-139001000D01*
X155105000Y-138943857D01*
X155262142Y-138943857D01*
X155366904Y-139001000D01*
X155419285Y-139115285D01*
X155419285Y-139743857D01*
X155419285Y-139115285D02*
X155471666Y-139001000D01*
X155576428Y-138943857D01*
X155733571Y-138943857D01*
X155838333Y-139001000D01*
X155890714Y-139115285D01*
X155890714Y-139743857D01*
D12*
X153820000Y-96435000D02*
X148440000Y-96435000D01*
X153820000Y-106765000D02*
X148440000Y-106765000D01*
D13*
X155294000Y-106680000D02*
G75*
G03X155294000Y-106680000I-100000J0D01*
G01*
D14*
X157599748Y-105294500D02*
X158122252Y-105294500D01*
X157599748Y-103874500D02*
X158122252Y-103874500D01*
X117709000Y-116692000D02*
X117709000Y-119782000D01*
X122769000Y-118237000D02*
G75*
G03X122769000Y-118237000I-2500000J0D01*
G01*
X123259000Y-118236538D02*
G75*
G02X117709000Y-119781830I-2990000J-462D01*
G01*
X123259000Y-118237462D02*
G75*
G03X117709000Y-116692170I-2990000J462D01*
G01*
X127007252Y-117527000D02*
X126484748Y-117527000D01*
X127007252Y-118947000D02*
X126484748Y-118947000D01*
X127007252Y-103303000D02*
X126484748Y-103303000D01*
X127007252Y-104723000D02*
X126484748Y-104723000D01*
X127134252Y-124639000D02*
X126611748Y-124639000D01*
X127134252Y-126059000D02*
X126611748Y-126059000D01*
X127261252Y-131878000D02*
X126738748Y-131878000D01*
X127261252Y-133298000D02*
X126738748Y-133298000D01*
X117709000Y-123804000D02*
X117709000Y-126894000D01*
X122769000Y-125349000D02*
G75*
G03X122769000Y-125349000I-2500000J0D01*
G01*
X123259000Y-125348538D02*
G75*
G02X117709000Y-126893830I-2990000J-462D01*
G01*
X123259000Y-125349462D02*
G75*
G03X117709000Y-123804170I-2990000J462D01*
G01*
X117709000Y-131043000D02*
X117709000Y-134133000D01*
X122769000Y-132588000D02*
G75*
G03X122769000Y-132588000I-2500000J0D01*
G01*
X123259000Y-132587538D02*
G75*
G02X117709000Y-134132830I-2990000J-462D01*
G01*
X123259000Y-132588462D02*
G75*
G03X117709000Y-131043170I-2990000J462D01*
G01*
X127007252Y-110415000D02*
X126484748Y-110415000D01*
X127007252Y-111835000D02*
X126484748Y-111835000D01*
X126753252Y-96191000D02*
X126230748Y-96191000D01*
X126753252Y-97611000D02*
X126230748Y-97611000D01*
X126753252Y-89079000D02*
X126230748Y-89079000D01*
X126753252Y-90499000D02*
X126230748Y-90499000D01*
X126753252Y-81967000D02*
X126230748Y-81967000D01*
X126753252Y-83387000D02*
X126230748Y-83387000D01*
X126753252Y-74855000D02*
X126230748Y-74855000D01*
X126753252Y-76275000D02*
X126230748Y-76275000D01*
X126753252Y-67743000D02*
X126230748Y-67743000D01*
X126753252Y-69163000D02*
X126230748Y-69163000D01*
X117709000Y-109580000D02*
X117709000Y-112670000D01*
X122769000Y-111125000D02*
G75*
G03X122769000Y-111125000I-2500000J0D01*
G01*
X123259000Y-111124538D02*
G75*
G02X117709000Y-112669830I-2990000J-462D01*
G01*
X123259000Y-111125462D02*
G75*
G03X117709000Y-109580170I-2990000J462D01*
G01*
X117709000Y-102468000D02*
X117709000Y-105558000D01*
X122769000Y-104013000D02*
G75*
G03X122769000Y-104013000I-2500000J0D01*
G01*
X123259000Y-104012538D02*
G75*
G02X117709000Y-105557830I-2990000J-462D01*
G01*
X123259000Y-104013462D02*
G75*
G03X117709000Y-102468170I-2990000J462D01*
G01*
X117709000Y-95356000D02*
X117709000Y-98446000D01*
X122769000Y-96901000D02*
G75*
G03X122769000Y-96901000I-2500000J0D01*
G01*
X123259000Y-96900538D02*
G75*
G02X117709000Y-98445830I-2990000J-462D01*
G01*
X123259000Y-96901462D02*
G75*
G03X117709000Y-95356170I-2990000J462D01*
G01*
X117709000Y-88244000D02*
X117709000Y-91334000D01*
X122769000Y-89789000D02*
G75*
G03X122769000Y-89789000I-2500000J0D01*
G01*
X123259000Y-89788538D02*
G75*
G02X117709000Y-91333830I-2990000J-462D01*
G01*
X123259000Y-89789462D02*
G75*
G03X117709000Y-88244170I-2990000J462D01*
G01*
X117709000Y-81132000D02*
X117709000Y-84222000D01*
X122769000Y-82677000D02*
G75*
G03X122769000Y-82677000I-2500000J0D01*
G01*
X123259000Y-82676538D02*
G75*
G02X117709000Y-84221830I-2990000J-462D01*
G01*
X123259000Y-82677462D02*
G75*
G03X117709000Y-81132170I-2990000J462D01*
G01*
X117709000Y-74020000D02*
X117709000Y-77110000D01*
X122769000Y-75565000D02*
G75*
G03X122769000Y-75565000I-2500000J0D01*
G01*
X123259000Y-75564538D02*
G75*
G02X117709000Y-77109830I-2990000J-462D01*
G01*
X123259000Y-75565462D02*
G75*
G03X117709000Y-74020170I-2990000J462D01*
G01*
X117709000Y-66908000D02*
X117709000Y-69998000D01*
X122769000Y-68453000D02*
G75*
G03X122769000Y-68453000I-2500000J0D01*
G01*
X123259000Y-68452538D02*
G75*
G02X117709000Y-69997830I-2990000J-462D01*
G01*
X123259000Y-68453462D02*
G75*
G03X117709000Y-66908170I-2990000J462D01*
G01*
X137888000Y-103384000D02*
X139578000Y-103384000D01*
X137888000Y-103659000D02*
X137888000Y-103384000D01*
X135128000Y-103659000D02*
X137888000Y-103659000D01*
X132368000Y-103659000D02*
X132368000Y-103384000D01*
X135128000Y-103659000D02*
X132368000Y-103659000D01*
X137888000Y-96239000D02*
X137888000Y-96514000D01*
X135128000Y-96239000D02*
X137888000Y-96239000D01*
X132368000Y-96239000D02*
X132368000Y-96514000D01*
X135128000Y-96239000D02*
X132368000Y-96239000D01*
X134739748Y-105739000D02*
X135262252Y-105739000D01*
X134739748Y-104319000D02*
X135262252Y-104319000D01*
X140470000Y-71700000D02*
X139860000Y-71700000D01*
X140470000Y-71700000D02*
X140470000Y-64080000D01*
X140470000Y-88320000D02*
X140470000Y-87700000D01*
X142590000Y-88320000D02*
X140470000Y-88320000D01*
X156710000Y-88320000D02*
X154590000Y-88320000D01*
X156710000Y-87700000D02*
X156710000Y-88320000D01*
X156710000Y-64080000D02*
X156710000Y-71700000D01*
X140470000Y-64080000D02*
X156710000Y-64080000D01*
X169224000Y-62170000D02*
X169224000Y-63500000D01*
X167894000Y-62170000D02*
X169224000Y-62170000D01*
X166624000Y-62170000D02*
X166624000Y-64830000D01*
X166624000Y-64830000D02*
X164024000Y-64830000D01*
X166624000Y-62170000D02*
X164024000Y-62170000D01*
X164024000Y-62170000D02*
X164024000Y-64830000D01*
D10*
X173037800Y-127359000D02*
X173037800Y-126359000D01*
X173037800Y-130959000D02*
X173037800Y-131959000D01*
X172612800Y-130959000D02*
X173037800Y-130959000D01*
X172612800Y-130234000D02*
X172612800Y-130959000D01*
X176187800Y-125009000D02*
X174787800Y-125009000D01*
X178737800Y-125009000D02*
X178587800Y-125009000D01*
X178737800Y-125309000D02*
X178737800Y-125009000D01*
X179187800Y-125309000D02*
X178737800Y-125309000D01*
X178737800Y-133009000D02*
X179187800Y-133009000D01*
X178737800Y-133309000D02*
X178737800Y-133009000D01*
X178587800Y-133309000D02*
X178737800Y-133309000D01*
X174787800Y-133309000D02*
X176187800Y-133309000D01*
D14*
X166334675Y-76581000D02*
X165901662Y-76831000D01*
X165901662Y-76331000D02*
X166334675Y-76581000D01*
X165901662Y-76831000D02*
X165901662Y-76331000D01*
X166796000Y-66591000D02*
X179136000Y-66591000D01*
X166796000Y-119811000D02*
X166796000Y-66591000D01*
X179136000Y-119811000D02*
X166796000Y-119811000D01*
X163628000Y-69588748D02*
X163628000Y-70111252D01*
X165048000Y-69588748D02*
X165048000Y-70111252D01*
X156663000Y-134929000D02*
X163123000Y-134929000D01*
X156663000Y-130399000D02*
X156663000Y-132999000D01*
X156663000Y-128469000D02*
X163123000Y-128469000D01*
X163123000Y-130399000D02*
X163123000Y-132999000D01*
X156663000Y-128499000D02*
X156663000Y-128469000D01*
X156663000Y-134929000D02*
X156663000Y-134899000D01*
X163123000Y-134929000D02*
X163123000Y-134899000D01*
X163123000Y-128469000D02*
X163123000Y-128499000D01*
X141296000Y-134929000D02*
X147756000Y-134929000D01*
X141296000Y-130399000D02*
X141296000Y-132999000D01*
X141296000Y-128469000D02*
X147756000Y-128469000D01*
X147756000Y-130399000D02*
X147756000Y-132999000D01*
X141296000Y-128499000D02*
X141296000Y-128469000D01*
X141296000Y-134929000D02*
X141296000Y-134899000D01*
X147756000Y-134929000D02*
X147756000Y-134899000D01*
X147756000Y-128469000D02*
X147756000Y-128499000D01*
X160529748Y-79323000D02*
X161052252Y-79323000D01*
X160529748Y-77903000D02*
X161052252Y-77903000D01*
X160520748Y-84149000D02*
X161043252Y-84149000D01*
X160520748Y-82729000D02*
X161043252Y-82729000D01*
X160520748Y-88848000D02*
X161043252Y-88848000D01*
X160520748Y-87428000D02*
X161043252Y-87428000D01*
X136659252Y-74728000D02*
X136136748Y-74728000D01*
X136659252Y-76148000D02*
X136136748Y-76148000D01*
X136659252Y-81840000D02*
X136136748Y-81840000D01*
X136659252Y-83260000D02*
X136136748Y-83260000D01*
X141216748Y-91134000D02*
X141739252Y-91134000D01*
X141216748Y-89714000D02*
X141739252Y-89714000D01*
X147974000Y-118527000D02*
X147974000Y-112517000D01*
X154794000Y-116277000D02*
X154794000Y-112517000D01*
X147974000Y-112517000D02*
X149234000Y-112517000D01*
X154794000Y-112517000D02*
X153534000Y-112517000D01*
X157599748Y-107390000D02*
X158122252Y-107390000D01*
X157599748Y-105970000D02*
X158122252Y-105970000D01*
X144001748Y-107517000D02*
X144524252Y-107517000D01*
X144001748Y-106097000D02*
X144524252Y-106097000D01*
X151518252Y-107494000D02*
X150995748Y-107494000D01*
X151518252Y-108914000D02*
X150995748Y-108914000D01*
X144010748Y-105358000D02*
X144533252Y-105358000D01*
X144010748Y-103938000D02*
X144533252Y-103938000D01*
X142927000Y-116070748D02*
X142927000Y-116593252D01*
X144347000Y-116070748D02*
X144347000Y-116593252D01*
X138101000Y-116070748D02*
X138101000Y-116593252D01*
X139521000Y-116070748D02*
X139521000Y-116593252D01*
X162231000Y-116070748D02*
X162231000Y-116593252D01*
X163651000Y-116070748D02*
X163651000Y-116593252D01*
X157278000Y-116061748D02*
X157278000Y-116584252D01*
X158698000Y-116061748D02*
X158698000Y-116584252D01*
D10*
X149987095Y-92924380D02*
X149987095Y-93733904D01*
X150034714Y-93829142D01*
X150082333Y-93876761D01*
X150177571Y-93924380D01*
X150368047Y-93924380D01*
X150463285Y-93876761D01*
X150510904Y-93829142D01*
X150558523Y-93733904D01*
X150558523Y-92924380D01*
X150987095Y-93019619D02*
X151034714Y-92972000D01*
X151129952Y-92924380D01*
X151368047Y-92924380D01*
X151463285Y-92972000D01*
X151510904Y-93019619D01*
X151558523Y-93114857D01*
X151558523Y-93210095D01*
X151510904Y-93352952D01*
X150939476Y-93924380D01*
X151558523Y-93924380D01*
X146614142Y-95702380D02*
X146614142Y-94702380D01*
X146947476Y-95416666D01*
X147280809Y-94702380D01*
X147280809Y-95702380D01*
X147709380Y-95416666D02*
X148185571Y-95416666D01*
X147614142Y-95702380D02*
X147947476Y-94702380D01*
X148280809Y-95702380D01*
X148518904Y-94702380D02*
X149185571Y-95702380D01*
X149185571Y-94702380D02*
X148518904Y-95702380D01*
X149471285Y-94702380D02*
X150090333Y-94702380D01*
X149757000Y-95083333D01*
X149899857Y-95083333D01*
X149995095Y-95130952D01*
X150042714Y-95178571D01*
X150090333Y-95273809D01*
X150090333Y-95511904D01*
X150042714Y-95607142D01*
X149995095Y-95654761D01*
X149899857Y-95702380D01*
X149614142Y-95702380D01*
X149518904Y-95654761D01*
X149471285Y-95607142D01*
X150471285Y-94797619D02*
X150518904Y-94750000D01*
X150614142Y-94702380D01*
X150852238Y-94702380D01*
X150947476Y-94750000D01*
X150995095Y-94797619D01*
X151042714Y-94892857D01*
X151042714Y-94988095D01*
X150995095Y-95130952D01*
X150423666Y-95702380D01*
X151042714Y-95702380D01*
X151376047Y-94702380D02*
X151995095Y-94702380D01*
X151661761Y-95083333D01*
X151804619Y-95083333D01*
X151899857Y-95130952D01*
X151947476Y-95178571D01*
X151995095Y-95273809D01*
X151995095Y-95511904D01*
X151947476Y-95607142D01*
X151899857Y-95654761D01*
X151804619Y-95702380D01*
X151518904Y-95702380D01*
X151423666Y-95654761D01*
X151376047Y-95607142D01*
X152566523Y-95130952D02*
X152471285Y-95083333D01*
X152423666Y-95035714D01*
X152376047Y-94940476D01*
X152376047Y-94892857D01*
X152423666Y-94797619D01*
X152471285Y-94750000D01*
X152566523Y-94702380D01*
X152757000Y-94702380D01*
X152852238Y-94750000D01*
X152899857Y-94797619D01*
X152947476Y-94892857D01*
X152947476Y-94940476D01*
X152899857Y-95035714D01*
X152852238Y-95083333D01*
X152757000Y-95130952D01*
X152566523Y-95130952D01*
X152471285Y-95178571D01*
X152423666Y-95226190D01*
X152376047Y-95321428D01*
X152376047Y-95511904D01*
X152423666Y-95607142D01*
X152471285Y-95654761D01*
X152566523Y-95702380D01*
X152757000Y-95702380D01*
X152852238Y-95654761D01*
X152899857Y-95607142D01*
X152947476Y-95511904D01*
X152947476Y-95321428D01*
X152899857Y-95226190D01*
X152852238Y-95178571D01*
X152757000Y-95130952D01*
X153376047Y-95178571D02*
X153709380Y-95178571D01*
X153852238Y-95702380D02*
X153376047Y-95702380D01*
X153376047Y-94702380D01*
X153852238Y-94702380D01*
X154233190Y-95416666D02*
X154709380Y-95416666D01*
X154137952Y-95702380D02*
X154471285Y-94702380D01*
X154804619Y-95702380D01*
X155137952Y-95702380D02*
X155137952Y-94702380D01*
X155471285Y-94702380D02*
X156042714Y-94702380D01*
X155757000Y-95702380D02*
X155757000Y-94702380D01*
X160653433Y-104992442D02*
X160605814Y-105040061D01*
X160462957Y-105087680D01*
X160367719Y-105087680D01*
X160224861Y-105040061D01*
X160129623Y-104944823D01*
X160082004Y-104849585D01*
X160034385Y-104659109D01*
X160034385Y-104516252D01*
X160082004Y-104325776D01*
X160129623Y-104230538D01*
X160224861Y-104135300D01*
X160367719Y-104087680D01*
X160462957Y-104087680D01*
X160605814Y-104135300D01*
X160653433Y-104182919D01*
X161510576Y-104087680D02*
X161320100Y-104087680D01*
X161224861Y-104135300D01*
X161177242Y-104182919D01*
X161082004Y-104325776D01*
X161034385Y-104516252D01*
X161034385Y-104897204D01*
X161082004Y-104992442D01*
X161129623Y-105040061D01*
X161224861Y-105087680D01*
X161415338Y-105087680D01*
X161510576Y-105040061D01*
X161558195Y-104992442D01*
X161605814Y-104897204D01*
X161605814Y-104659109D01*
X161558195Y-104563871D01*
X161510576Y-104516252D01*
X161415338Y-104468633D01*
X161224861Y-104468633D01*
X161129623Y-104516252D01*
X161082004Y-104563871D01*
X161034385Y-104659109D01*
X156414980Y-103373180D02*
X155843552Y-103373180D01*
X156129266Y-103373180D02*
X156129266Y-102373180D01*
X156034028Y-102516038D01*
X155938790Y-102611276D01*
X155843552Y-102658895D01*
X157034028Y-102373180D02*
X157129266Y-102373180D01*
X157224504Y-102420800D01*
X157272123Y-102468419D01*
X157319742Y-102563657D01*
X157367361Y-102754133D01*
X157367361Y-102992228D01*
X157319742Y-103182704D01*
X157272123Y-103277942D01*
X157224504Y-103325561D01*
X157129266Y-103373180D01*
X157034028Y-103373180D01*
X156938790Y-103325561D01*
X156891171Y-103277942D01*
X156843552Y-103182704D01*
X156795933Y-102992228D01*
X156795933Y-102754133D01*
X156843552Y-102563657D01*
X156891171Y-102468419D01*
X156938790Y-102420800D01*
X157034028Y-102373180D01*
X157986409Y-102373180D02*
X158081647Y-102373180D01*
X158176885Y-102420800D01*
X158224504Y-102468419D01*
X158272123Y-102563657D01*
X158319742Y-102754133D01*
X158319742Y-102992228D01*
X158272123Y-103182704D01*
X158224504Y-103277942D01*
X158176885Y-103325561D01*
X158081647Y-103373180D01*
X157986409Y-103373180D01*
X157891171Y-103325561D01*
X157843552Y-103277942D01*
X157795933Y-103182704D01*
X157748314Y-102992228D01*
X157748314Y-102754133D01*
X157795933Y-102563657D01*
X157843552Y-102468419D01*
X157891171Y-102420800D01*
X157986409Y-102373180D01*
X158748314Y-102706514D02*
X158748314Y-103373180D01*
X158748314Y-102801752D02*
X158795933Y-102754133D01*
X158891171Y-102706514D01*
X159034028Y-102706514D01*
X159129266Y-102754133D01*
X159176885Y-102849371D01*
X159176885Y-103373180D01*
X159986409Y-102849371D02*
X159653076Y-102849371D01*
X159653076Y-103373180D02*
X159653076Y-102373180D01*
X160129266Y-102373180D01*
X115752619Y-118308428D02*
X116228809Y-117975095D01*
X115752619Y-117737000D02*
X116752619Y-117737000D01*
X116752619Y-118117952D01*
X116705000Y-118213190D01*
X116657380Y-118260809D01*
X116562142Y-118308428D01*
X116419285Y-118308428D01*
X116324047Y-118260809D01*
X116276428Y-118213190D01*
X116228809Y-118117952D01*
X116228809Y-117737000D01*
X115752619Y-118737000D02*
X116752619Y-118737000D01*
X125507904Y-117039380D02*
X124936476Y-117039380D01*
X125222190Y-117039380D02*
X125222190Y-116039380D01*
X125126952Y-116182238D01*
X125031714Y-116277476D01*
X124936476Y-116325095D01*
X126412666Y-116039380D02*
X125936476Y-116039380D01*
X125888857Y-116515571D01*
X125936476Y-116467952D01*
X126031714Y-116420333D01*
X126269809Y-116420333D01*
X126365047Y-116467952D01*
X126412666Y-116515571D01*
X126460285Y-116610809D01*
X126460285Y-116848904D01*
X126412666Y-116944142D01*
X126365047Y-116991761D01*
X126269809Y-117039380D01*
X126031714Y-117039380D01*
X125936476Y-116991761D01*
X125888857Y-116944142D01*
X127079333Y-116039380D02*
X127174571Y-116039380D01*
X127269809Y-116087000D01*
X127317428Y-116134619D01*
X127365047Y-116229857D01*
X127412666Y-116420333D01*
X127412666Y-116658428D01*
X127365047Y-116848904D01*
X127317428Y-116944142D01*
X127269809Y-116991761D01*
X127174571Y-117039380D01*
X127079333Y-117039380D01*
X126984095Y-116991761D01*
X126936476Y-116944142D01*
X126888857Y-116848904D01*
X126841238Y-116658428D01*
X126841238Y-116420333D01*
X126888857Y-116229857D01*
X126936476Y-116134619D01*
X126984095Y-116087000D01*
X127079333Y-116039380D01*
X127793619Y-117039380D02*
X128031714Y-117039380D01*
X128031714Y-116848904D01*
X127936476Y-116801285D01*
X127841238Y-116706047D01*
X127793619Y-116563190D01*
X127793619Y-116325095D01*
X127841238Y-116182238D01*
X127936476Y-116087000D01*
X128079333Y-116039380D01*
X128269809Y-116039380D01*
X128412666Y-116087000D01*
X128507904Y-116182238D01*
X128555523Y-116325095D01*
X128555523Y-116563190D01*
X128507904Y-116706047D01*
X128412666Y-116801285D01*
X128317428Y-116848904D01*
X128317428Y-117039380D01*
X128555523Y-117039380D01*
X125507904Y-102815380D02*
X124936476Y-102815380D01*
X125222190Y-102815380D02*
X125222190Y-101815380D01*
X125126952Y-101958238D01*
X125031714Y-102053476D01*
X124936476Y-102101095D01*
X126412666Y-101815380D02*
X125936476Y-101815380D01*
X125888857Y-102291571D01*
X125936476Y-102243952D01*
X126031714Y-102196333D01*
X126269809Y-102196333D01*
X126365047Y-102243952D01*
X126412666Y-102291571D01*
X126460285Y-102386809D01*
X126460285Y-102624904D01*
X126412666Y-102720142D01*
X126365047Y-102767761D01*
X126269809Y-102815380D01*
X126031714Y-102815380D01*
X125936476Y-102767761D01*
X125888857Y-102720142D01*
X127079333Y-101815380D02*
X127174571Y-101815380D01*
X127269809Y-101863000D01*
X127317428Y-101910619D01*
X127365047Y-102005857D01*
X127412666Y-102196333D01*
X127412666Y-102434428D01*
X127365047Y-102624904D01*
X127317428Y-102720142D01*
X127269809Y-102767761D01*
X127174571Y-102815380D01*
X127079333Y-102815380D01*
X126984095Y-102767761D01*
X126936476Y-102720142D01*
X126888857Y-102624904D01*
X126841238Y-102434428D01*
X126841238Y-102196333D01*
X126888857Y-102005857D01*
X126936476Y-101910619D01*
X126984095Y-101863000D01*
X127079333Y-101815380D01*
X127793619Y-102815380D02*
X128031714Y-102815380D01*
X128031714Y-102624904D01*
X127936476Y-102577285D01*
X127841238Y-102482047D01*
X127793619Y-102339190D01*
X127793619Y-102101095D01*
X127841238Y-101958238D01*
X127936476Y-101863000D01*
X128079333Y-101815380D01*
X128269809Y-101815380D01*
X128412666Y-101863000D01*
X128507904Y-101958238D01*
X128555523Y-102101095D01*
X128555523Y-102339190D01*
X128507904Y-102482047D01*
X128412666Y-102577285D01*
X128317428Y-102624904D01*
X128317428Y-102815380D01*
X128555523Y-102815380D01*
X125634904Y-124151380D02*
X125063476Y-124151380D01*
X125349190Y-124151380D02*
X125349190Y-123151380D01*
X125253952Y-123294238D01*
X125158714Y-123389476D01*
X125063476Y-123437095D01*
X126539666Y-123151380D02*
X126063476Y-123151380D01*
X126015857Y-123627571D01*
X126063476Y-123579952D01*
X126158714Y-123532333D01*
X126396809Y-123532333D01*
X126492047Y-123579952D01*
X126539666Y-123627571D01*
X126587285Y-123722809D01*
X126587285Y-123960904D01*
X126539666Y-124056142D01*
X126492047Y-124103761D01*
X126396809Y-124151380D01*
X126158714Y-124151380D01*
X126063476Y-124103761D01*
X126015857Y-124056142D01*
X127206333Y-123151380D02*
X127301571Y-123151380D01*
X127396809Y-123199000D01*
X127444428Y-123246619D01*
X127492047Y-123341857D01*
X127539666Y-123532333D01*
X127539666Y-123770428D01*
X127492047Y-123960904D01*
X127444428Y-124056142D01*
X127396809Y-124103761D01*
X127301571Y-124151380D01*
X127206333Y-124151380D01*
X127111095Y-124103761D01*
X127063476Y-124056142D01*
X127015857Y-123960904D01*
X126968238Y-123770428D01*
X126968238Y-123532333D01*
X127015857Y-123341857D01*
X127063476Y-123246619D01*
X127111095Y-123199000D01*
X127206333Y-123151380D01*
X127920619Y-124151380D02*
X128158714Y-124151380D01*
X128158714Y-123960904D01*
X128063476Y-123913285D01*
X127968238Y-123818047D01*
X127920619Y-123675190D01*
X127920619Y-123437095D01*
X127968238Y-123294238D01*
X128063476Y-123199000D01*
X128206333Y-123151380D01*
X128396809Y-123151380D01*
X128539666Y-123199000D01*
X128634904Y-123294238D01*
X128682523Y-123437095D01*
X128682523Y-123675190D01*
X128634904Y-123818047D01*
X128539666Y-123913285D01*
X128444428Y-123960904D01*
X128444428Y-124151380D01*
X128682523Y-124151380D01*
X125761904Y-131390380D02*
X125190476Y-131390380D01*
X125476190Y-131390380D02*
X125476190Y-130390380D01*
X125380952Y-130533238D01*
X125285714Y-130628476D01*
X125190476Y-130676095D01*
X126666666Y-130390380D02*
X126190476Y-130390380D01*
X126142857Y-130866571D01*
X126190476Y-130818952D01*
X126285714Y-130771333D01*
X126523809Y-130771333D01*
X126619047Y-130818952D01*
X126666666Y-130866571D01*
X126714285Y-130961809D01*
X126714285Y-131199904D01*
X126666666Y-131295142D01*
X126619047Y-131342761D01*
X126523809Y-131390380D01*
X126285714Y-131390380D01*
X126190476Y-131342761D01*
X126142857Y-131295142D01*
X127333333Y-130390380D02*
X127428571Y-130390380D01*
X127523809Y-130438000D01*
X127571428Y-130485619D01*
X127619047Y-130580857D01*
X127666666Y-130771333D01*
X127666666Y-131009428D01*
X127619047Y-131199904D01*
X127571428Y-131295142D01*
X127523809Y-131342761D01*
X127428571Y-131390380D01*
X127333333Y-131390380D01*
X127238095Y-131342761D01*
X127190476Y-131295142D01*
X127142857Y-131199904D01*
X127095238Y-131009428D01*
X127095238Y-130771333D01*
X127142857Y-130580857D01*
X127190476Y-130485619D01*
X127238095Y-130438000D01*
X127333333Y-130390380D01*
X128047619Y-131390380D02*
X128285714Y-131390380D01*
X128285714Y-131199904D01*
X128190476Y-131152285D01*
X128095238Y-131057047D01*
X128047619Y-130914190D01*
X128047619Y-130676095D01*
X128095238Y-130533238D01*
X128190476Y-130438000D01*
X128333333Y-130390380D01*
X128523809Y-130390380D01*
X128666666Y-130438000D01*
X128761904Y-130533238D01*
X128809523Y-130676095D01*
X128809523Y-130914190D01*
X128761904Y-131057047D01*
X128666666Y-131152285D01*
X128571428Y-131199904D01*
X128571428Y-131390380D01*
X128809523Y-131390380D01*
X115800238Y-122999809D02*
X115752619Y-123142666D01*
X115752619Y-123380761D01*
X115800238Y-123476000D01*
X115847857Y-123523619D01*
X115943095Y-123571238D01*
X116038333Y-123571238D01*
X116133571Y-123523619D01*
X116181190Y-123476000D01*
X116228809Y-123380761D01*
X116276428Y-123190285D01*
X116324047Y-123095047D01*
X116371666Y-123047428D01*
X116466904Y-122999809D01*
X116562142Y-122999809D01*
X116657380Y-123047428D01*
X116705000Y-123095047D01*
X116752619Y-123190285D01*
X116752619Y-123428380D01*
X116705000Y-123571238D01*
X116752619Y-123856952D02*
X116752619Y-124428380D01*
X115752619Y-124142666D02*
X116752619Y-124142666D01*
X116038333Y-124714095D02*
X116038333Y-125190285D01*
X115752619Y-124618857D02*
X116752619Y-124952190D01*
X115752619Y-125285523D01*
X116752619Y-125476000D02*
X116752619Y-126047428D01*
X115752619Y-125761714D02*
X116752619Y-125761714D01*
X116752619Y-126380761D02*
X115943095Y-126380761D01*
X115847857Y-126428380D01*
X115800238Y-126476000D01*
X115752619Y-126571238D01*
X115752619Y-126761714D01*
X115800238Y-126856952D01*
X115847857Y-126904571D01*
X115943095Y-126952190D01*
X116752619Y-126952190D01*
X115800238Y-127380761D02*
X115752619Y-127523619D01*
X115752619Y-127761714D01*
X115800238Y-127856952D01*
X115847857Y-127904571D01*
X115943095Y-127952190D01*
X116038333Y-127952190D01*
X116133571Y-127904571D01*
X116181190Y-127856952D01*
X116228809Y-127761714D01*
X116276428Y-127571238D01*
X116324047Y-127476000D01*
X116371666Y-127428380D01*
X116466904Y-127380761D01*
X116562142Y-127380761D01*
X116657380Y-127428380D01*
X116705000Y-127476000D01*
X116752619Y-127571238D01*
X116752619Y-127809333D01*
X116705000Y-127952190D01*
X115752619Y-130278476D02*
X116752619Y-130278476D01*
X116752619Y-130659428D01*
X116705000Y-130754666D01*
X116657380Y-130802285D01*
X116562142Y-130849904D01*
X116419285Y-130849904D01*
X116324047Y-130802285D01*
X116276428Y-130754666D01*
X116228809Y-130659428D01*
X116228809Y-130278476D01*
X116752619Y-131468952D02*
X116752619Y-131659428D01*
X116705000Y-131754666D01*
X116609761Y-131849904D01*
X116419285Y-131897523D01*
X116085952Y-131897523D01*
X115895476Y-131849904D01*
X115800238Y-131754666D01*
X115752619Y-131659428D01*
X115752619Y-131468952D01*
X115800238Y-131373714D01*
X115895476Y-131278476D01*
X116085952Y-131230857D01*
X116419285Y-131230857D01*
X116609761Y-131278476D01*
X116705000Y-131373714D01*
X116752619Y-131468952D01*
X116752619Y-132230857D02*
X115752619Y-132468952D01*
X116466904Y-132659428D01*
X115752619Y-132849904D01*
X116752619Y-133088000D01*
X116276428Y-133468952D02*
X116276428Y-133802285D01*
X115752619Y-133945142D02*
X115752619Y-133468952D01*
X116752619Y-133468952D01*
X116752619Y-133945142D01*
X115752619Y-134945142D02*
X116228809Y-134611809D01*
X115752619Y-134373714D02*
X116752619Y-134373714D01*
X116752619Y-134754666D01*
X116705000Y-134849904D01*
X116657380Y-134897523D01*
X116562142Y-134945142D01*
X116419285Y-134945142D01*
X116324047Y-134897523D01*
X116276428Y-134849904D01*
X116228809Y-134754666D01*
X116228809Y-134373714D01*
X125507904Y-109927380D02*
X124936476Y-109927380D01*
X125222190Y-109927380D02*
X125222190Y-108927380D01*
X125126952Y-109070238D01*
X125031714Y-109165476D01*
X124936476Y-109213095D01*
X126412666Y-108927380D02*
X125936476Y-108927380D01*
X125888857Y-109403571D01*
X125936476Y-109355952D01*
X126031714Y-109308333D01*
X126269809Y-109308333D01*
X126365047Y-109355952D01*
X126412666Y-109403571D01*
X126460285Y-109498809D01*
X126460285Y-109736904D01*
X126412666Y-109832142D01*
X126365047Y-109879761D01*
X126269809Y-109927380D01*
X126031714Y-109927380D01*
X125936476Y-109879761D01*
X125888857Y-109832142D01*
X127079333Y-108927380D02*
X127174571Y-108927380D01*
X127269809Y-108975000D01*
X127317428Y-109022619D01*
X127365047Y-109117857D01*
X127412666Y-109308333D01*
X127412666Y-109546428D01*
X127365047Y-109736904D01*
X127317428Y-109832142D01*
X127269809Y-109879761D01*
X127174571Y-109927380D01*
X127079333Y-109927380D01*
X126984095Y-109879761D01*
X126936476Y-109832142D01*
X126888857Y-109736904D01*
X126841238Y-109546428D01*
X126841238Y-109308333D01*
X126888857Y-109117857D01*
X126936476Y-109022619D01*
X126984095Y-108975000D01*
X127079333Y-108927380D01*
X127793619Y-109927380D02*
X128031714Y-109927380D01*
X128031714Y-109736904D01*
X127936476Y-109689285D01*
X127841238Y-109594047D01*
X127793619Y-109451190D01*
X127793619Y-109213095D01*
X127841238Y-109070238D01*
X127936476Y-108975000D01*
X128079333Y-108927380D01*
X128269809Y-108927380D01*
X128412666Y-108975000D01*
X128507904Y-109070238D01*
X128555523Y-109213095D01*
X128555523Y-109451190D01*
X128507904Y-109594047D01*
X128412666Y-109689285D01*
X128317428Y-109736904D01*
X128317428Y-109927380D01*
X128555523Y-109927380D01*
X125253904Y-95703380D02*
X124682476Y-95703380D01*
X124968190Y-95703380D02*
X124968190Y-94703380D01*
X124872952Y-94846238D01*
X124777714Y-94941476D01*
X124682476Y-94989095D01*
X126158666Y-94703380D02*
X125682476Y-94703380D01*
X125634857Y-95179571D01*
X125682476Y-95131952D01*
X125777714Y-95084333D01*
X126015809Y-95084333D01*
X126111047Y-95131952D01*
X126158666Y-95179571D01*
X126206285Y-95274809D01*
X126206285Y-95512904D01*
X126158666Y-95608142D01*
X126111047Y-95655761D01*
X126015809Y-95703380D01*
X125777714Y-95703380D01*
X125682476Y-95655761D01*
X125634857Y-95608142D01*
X126825333Y-94703380D02*
X126920571Y-94703380D01*
X127015809Y-94751000D01*
X127063428Y-94798619D01*
X127111047Y-94893857D01*
X127158666Y-95084333D01*
X127158666Y-95322428D01*
X127111047Y-95512904D01*
X127063428Y-95608142D01*
X127015809Y-95655761D01*
X126920571Y-95703380D01*
X126825333Y-95703380D01*
X126730095Y-95655761D01*
X126682476Y-95608142D01*
X126634857Y-95512904D01*
X126587238Y-95322428D01*
X126587238Y-95084333D01*
X126634857Y-94893857D01*
X126682476Y-94798619D01*
X126730095Y-94751000D01*
X126825333Y-94703380D01*
X127539619Y-95703380D02*
X127777714Y-95703380D01*
X127777714Y-95512904D01*
X127682476Y-95465285D01*
X127587238Y-95370047D01*
X127539619Y-95227190D01*
X127539619Y-94989095D01*
X127587238Y-94846238D01*
X127682476Y-94751000D01*
X127825333Y-94703380D01*
X128015809Y-94703380D01*
X128158666Y-94751000D01*
X128253904Y-94846238D01*
X128301523Y-94989095D01*
X128301523Y-95227190D01*
X128253904Y-95370047D01*
X128158666Y-95465285D01*
X128063428Y-95512904D01*
X128063428Y-95703380D01*
X128301523Y-95703380D01*
X125253904Y-88591380D02*
X124682476Y-88591380D01*
X124968190Y-88591380D02*
X124968190Y-87591380D01*
X124872952Y-87734238D01*
X124777714Y-87829476D01*
X124682476Y-87877095D01*
X126158666Y-87591380D02*
X125682476Y-87591380D01*
X125634857Y-88067571D01*
X125682476Y-88019952D01*
X125777714Y-87972333D01*
X126015809Y-87972333D01*
X126111047Y-88019952D01*
X126158666Y-88067571D01*
X126206285Y-88162809D01*
X126206285Y-88400904D01*
X126158666Y-88496142D01*
X126111047Y-88543761D01*
X126015809Y-88591380D01*
X125777714Y-88591380D01*
X125682476Y-88543761D01*
X125634857Y-88496142D01*
X126825333Y-87591380D02*
X126920571Y-87591380D01*
X127015809Y-87639000D01*
X127063428Y-87686619D01*
X127111047Y-87781857D01*
X127158666Y-87972333D01*
X127158666Y-88210428D01*
X127111047Y-88400904D01*
X127063428Y-88496142D01*
X127015809Y-88543761D01*
X126920571Y-88591380D01*
X126825333Y-88591380D01*
X126730095Y-88543761D01*
X126682476Y-88496142D01*
X126634857Y-88400904D01*
X126587238Y-88210428D01*
X126587238Y-87972333D01*
X126634857Y-87781857D01*
X126682476Y-87686619D01*
X126730095Y-87639000D01*
X126825333Y-87591380D01*
X127539619Y-88591380D02*
X127777714Y-88591380D01*
X127777714Y-88400904D01*
X127682476Y-88353285D01*
X127587238Y-88258047D01*
X127539619Y-88115190D01*
X127539619Y-87877095D01*
X127587238Y-87734238D01*
X127682476Y-87639000D01*
X127825333Y-87591380D01*
X128015809Y-87591380D01*
X128158666Y-87639000D01*
X128253904Y-87734238D01*
X128301523Y-87877095D01*
X128301523Y-88115190D01*
X128253904Y-88258047D01*
X128158666Y-88353285D01*
X128063428Y-88400904D01*
X128063428Y-88591380D01*
X128301523Y-88591380D01*
X125253904Y-81479380D02*
X124682476Y-81479380D01*
X124968190Y-81479380D02*
X124968190Y-80479380D01*
X124872952Y-80622238D01*
X124777714Y-80717476D01*
X124682476Y-80765095D01*
X126158666Y-80479380D02*
X125682476Y-80479380D01*
X125634857Y-80955571D01*
X125682476Y-80907952D01*
X125777714Y-80860333D01*
X126015809Y-80860333D01*
X126111047Y-80907952D01*
X126158666Y-80955571D01*
X126206285Y-81050809D01*
X126206285Y-81288904D01*
X126158666Y-81384142D01*
X126111047Y-81431761D01*
X126015809Y-81479380D01*
X125777714Y-81479380D01*
X125682476Y-81431761D01*
X125634857Y-81384142D01*
X126825333Y-80479380D02*
X126920571Y-80479380D01*
X127015809Y-80527000D01*
X127063428Y-80574619D01*
X127111047Y-80669857D01*
X127158666Y-80860333D01*
X127158666Y-81098428D01*
X127111047Y-81288904D01*
X127063428Y-81384142D01*
X127015809Y-81431761D01*
X126920571Y-81479380D01*
X126825333Y-81479380D01*
X126730095Y-81431761D01*
X126682476Y-81384142D01*
X126634857Y-81288904D01*
X126587238Y-81098428D01*
X126587238Y-80860333D01*
X126634857Y-80669857D01*
X126682476Y-80574619D01*
X126730095Y-80527000D01*
X126825333Y-80479380D01*
X127539619Y-81479380D02*
X127777714Y-81479380D01*
X127777714Y-81288904D01*
X127682476Y-81241285D01*
X127587238Y-81146047D01*
X127539619Y-81003190D01*
X127539619Y-80765095D01*
X127587238Y-80622238D01*
X127682476Y-80527000D01*
X127825333Y-80479380D01*
X128015809Y-80479380D01*
X128158666Y-80527000D01*
X128253904Y-80622238D01*
X128301523Y-80765095D01*
X128301523Y-81003190D01*
X128253904Y-81146047D01*
X128158666Y-81241285D01*
X128063428Y-81288904D01*
X128063428Y-81479380D01*
X128301523Y-81479380D01*
X125253904Y-74367380D02*
X124682476Y-74367380D01*
X124968190Y-74367380D02*
X124968190Y-73367380D01*
X124872952Y-73510238D01*
X124777714Y-73605476D01*
X124682476Y-73653095D01*
X126158666Y-73367380D02*
X125682476Y-73367380D01*
X125634857Y-73843571D01*
X125682476Y-73795952D01*
X125777714Y-73748333D01*
X126015809Y-73748333D01*
X126111047Y-73795952D01*
X126158666Y-73843571D01*
X126206285Y-73938809D01*
X126206285Y-74176904D01*
X126158666Y-74272142D01*
X126111047Y-74319761D01*
X126015809Y-74367380D01*
X125777714Y-74367380D01*
X125682476Y-74319761D01*
X125634857Y-74272142D01*
X126825333Y-73367380D02*
X126920571Y-73367380D01*
X127015809Y-73415000D01*
X127063428Y-73462619D01*
X127111047Y-73557857D01*
X127158666Y-73748333D01*
X127158666Y-73986428D01*
X127111047Y-74176904D01*
X127063428Y-74272142D01*
X127015809Y-74319761D01*
X126920571Y-74367380D01*
X126825333Y-74367380D01*
X126730095Y-74319761D01*
X126682476Y-74272142D01*
X126634857Y-74176904D01*
X126587238Y-73986428D01*
X126587238Y-73748333D01*
X126634857Y-73557857D01*
X126682476Y-73462619D01*
X126730095Y-73415000D01*
X126825333Y-73367380D01*
X127539619Y-74367380D02*
X127777714Y-74367380D01*
X127777714Y-74176904D01*
X127682476Y-74129285D01*
X127587238Y-74034047D01*
X127539619Y-73891190D01*
X127539619Y-73653095D01*
X127587238Y-73510238D01*
X127682476Y-73415000D01*
X127825333Y-73367380D01*
X128015809Y-73367380D01*
X128158666Y-73415000D01*
X128253904Y-73510238D01*
X128301523Y-73653095D01*
X128301523Y-73891190D01*
X128253904Y-74034047D01*
X128158666Y-74129285D01*
X128063428Y-74176904D01*
X128063428Y-74367380D01*
X128301523Y-74367380D01*
X125253904Y-67255380D02*
X124682476Y-67255380D01*
X124968190Y-67255380D02*
X124968190Y-66255380D01*
X124872952Y-66398238D01*
X124777714Y-66493476D01*
X124682476Y-66541095D01*
X126158666Y-66255380D02*
X125682476Y-66255380D01*
X125634857Y-66731571D01*
X125682476Y-66683952D01*
X125777714Y-66636333D01*
X126015809Y-66636333D01*
X126111047Y-66683952D01*
X126158666Y-66731571D01*
X126206285Y-66826809D01*
X126206285Y-67064904D01*
X126158666Y-67160142D01*
X126111047Y-67207761D01*
X126015809Y-67255380D01*
X125777714Y-67255380D01*
X125682476Y-67207761D01*
X125634857Y-67160142D01*
X126825333Y-66255380D02*
X126920571Y-66255380D01*
X127015809Y-66303000D01*
X127063428Y-66350619D01*
X127111047Y-66445857D01*
X127158666Y-66636333D01*
X127158666Y-66874428D01*
X127111047Y-67064904D01*
X127063428Y-67160142D01*
X127015809Y-67207761D01*
X126920571Y-67255380D01*
X126825333Y-67255380D01*
X126730095Y-67207761D01*
X126682476Y-67160142D01*
X126634857Y-67064904D01*
X126587238Y-66874428D01*
X126587238Y-66636333D01*
X126634857Y-66445857D01*
X126682476Y-66350619D01*
X126730095Y-66303000D01*
X126825333Y-66255380D01*
X127539619Y-67255380D02*
X127777714Y-67255380D01*
X127777714Y-67064904D01*
X127682476Y-67017285D01*
X127587238Y-66922047D01*
X127539619Y-66779190D01*
X127539619Y-66541095D01*
X127587238Y-66398238D01*
X127682476Y-66303000D01*
X127825333Y-66255380D01*
X128015809Y-66255380D01*
X128158666Y-66303000D01*
X128253904Y-66398238D01*
X128301523Y-66541095D01*
X128301523Y-66779190D01*
X128253904Y-66922047D01*
X128158666Y-67017285D01*
X128063428Y-67064904D01*
X128063428Y-67255380D01*
X128301523Y-67255380D01*
X115847857Y-110934523D02*
X115800238Y-110886904D01*
X115752619Y-110744047D01*
X115752619Y-110648809D01*
X115800238Y-110505952D01*
X115895476Y-110410714D01*
X115990714Y-110363095D01*
X116181190Y-110315476D01*
X116324047Y-110315476D01*
X116514523Y-110363095D01*
X116609761Y-110410714D01*
X116705000Y-110505952D01*
X116752619Y-110648809D01*
X116752619Y-110744047D01*
X116705000Y-110886904D01*
X116657380Y-110934523D01*
X115752619Y-111363095D02*
X116752619Y-111363095D01*
X116752619Y-111601190D01*
X116705000Y-111744047D01*
X116609761Y-111839285D01*
X116514523Y-111886904D01*
X116324047Y-111934523D01*
X116181190Y-111934523D01*
X115990714Y-111886904D01*
X115895476Y-111839285D01*
X115800238Y-111744047D01*
X115752619Y-111601190D01*
X115752619Y-111363095D01*
X115752619Y-102774904D02*
X116752619Y-102774904D01*
X116752619Y-103013000D01*
X116705000Y-103155857D01*
X116609761Y-103251095D01*
X116514523Y-103298714D01*
X116324047Y-103346333D01*
X116181190Y-103346333D01*
X115990714Y-103298714D01*
X115895476Y-103251095D01*
X115800238Y-103155857D01*
X115752619Y-103013000D01*
X115752619Y-102774904D01*
X115800238Y-103727285D02*
X115752619Y-103870142D01*
X115752619Y-104108238D01*
X115800238Y-104203476D01*
X115847857Y-104251095D01*
X115943095Y-104298714D01*
X116038333Y-104298714D01*
X116133571Y-104251095D01*
X116181190Y-104203476D01*
X116228809Y-104108238D01*
X116276428Y-103917761D01*
X116324047Y-103822523D01*
X116371666Y-103774904D01*
X116466904Y-103727285D01*
X116562142Y-103727285D01*
X116657380Y-103774904D01*
X116705000Y-103822523D01*
X116752619Y-103917761D01*
X116752619Y-104155857D01*
X116705000Y-104298714D01*
X115752619Y-105298714D02*
X116228809Y-104965380D01*
X115752619Y-104727285D02*
X116752619Y-104727285D01*
X116752619Y-105108238D01*
X116705000Y-105203476D01*
X116657380Y-105251095D01*
X116562142Y-105298714D01*
X116419285Y-105298714D01*
X116324047Y-105251095D01*
X116276428Y-105203476D01*
X116228809Y-105108238D01*
X116228809Y-104727285D01*
X115752619Y-95758142D02*
X116752619Y-95758142D01*
X116752619Y-95996238D01*
X116705000Y-96139095D01*
X116609761Y-96234333D01*
X116514523Y-96281952D01*
X116324047Y-96329571D01*
X116181190Y-96329571D01*
X115990714Y-96281952D01*
X115895476Y-96234333D01*
X115800238Y-96139095D01*
X115752619Y-95996238D01*
X115752619Y-95758142D01*
X116752619Y-96615285D02*
X116752619Y-97186714D01*
X115752619Y-96901000D02*
X116752619Y-96901000D01*
X115752619Y-98091476D02*
X116228809Y-97758142D01*
X115752619Y-97520047D02*
X116752619Y-97520047D01*
X116752619Y-97901000D01*
X116705000Y-97996238D01*
X116657380Y-98043857D01*
X116562142Y-98091476D01*
X116419285Y-98091476D01*
X116324047Y-98043857D01*
X116276428Y-97996238D01*
X116228809Y-97901000D01*
X116228809Y-97520047D01*
X115847857Y-89241380D02*
X115800238Y-89193761D01*
X115752619Y-89050904D01*
X115752619Y-88955666D01*
X115800238Y-88812809D01*
X115895476Y-88717571D01*
X115990714Y-88669952D01*
X116181190Y-88622333D01*
X116324047Y-88622333D01*
X116514523Y-88669952D01*
X116609761Y-88717571D01*
X116705000Y-88812809D01*
X116752619Y-88955666D01*
X116752619Y-89050904D01*
X116705000Y-89193761D01*
X116657380Y-89241380D01*
X116752619Y-89527095D02*
X116752619Y-90098523D01*
X115752619Y-89812809D02*
X116752619Y-89812809D01*
X115800238Y-90384238D02*
X115752619Y-90527095D01*
X115752619Y-90765190D01*
X115800238Y-90860428D01*
X115847857Y-90908047D01*
X115943095Y-90955666D01*
X116038333Y-90955666D01*
X116133571Y-90908047D01*
X116181190Y-90860428D01*
X116228809Y-90765190D01*
X116276428Y-90574714D01*
X116324047Y-90479476D01*
X116371666Y-90431857D01*
X116466904Y-90384238D01*
X116562142Y-90384238D01*
X116657380Y-90431857D01*
X116705000Y-90479476D01*
X116752619Y-90574714D01*
X116752619Y-90812809D01*
X116705000Y-90955666D01*
X115752619Y-82192880D02*
X116228809Y-81859547D01*
X115752619Y-81621452D02*
X116752619Y-81621452D01*
X116752619Y-82002404D01*
X116705000Y-82097642D01*
X116657380Y-82145261D01*
X116562142Y-82192880D01*
X116419285Y-82192880D01*
X116324047Y-82145261D01*
X116276428Y-82097642D01*
X116228809Y-82002404D01*
X116228809Y-81621452D01*
X116752619Y-82478595D02*
X116752619Y-83050023D01*
X115752619Y-82764309D02*
X116752619Y-82764309D01*
X115800238Y-83335738D02*
X115752619Y-83478595D01*
X115752619Y-83716690D01*
X115800238Y-83811928D01*
X115847857Y-83859547D01*
X115943095Y-83907166D01*
X116038333Y-83907166D01*
X116133571Y-83859547D01*
X116181190Y-83811928D01*
X116228809Y-83716690D01*
X116276428Y-83526214D01*
X116324047Y-83430976D01*
X116371666Y-83383357D01*
X116466904Y-83335738D01*
X116562142Y-83335738D01*
X116657380Y-83383357D01*
X116705000Y-83430976D01*
X116752619Y-83526214D01*
X116752619Y-83764309D01*
X116705000Y-83907166D01*
X116752619Y-74501523D02*
X116752619Y-75072952D01*
X115752619Y-74787238D02*
X116752619Y-74787238D01*
X115752619Y-75311047D02*
X116419285Y-75834857D01*
X116419285Y-75311047D02*
X115752619Y-75834857D01*
X115752619Y-76215809D02*
X116752619Y-76215809D01*
X116752619Y-76453904D01*
X116705000Y-76596761D01*
X116609761Y-76692000D01*
X116514523Y-76739619D01*
X116324047Y-76787238D01*
X116181190Y-76787238D01*
X115990714Y-76739619D01*
X115895476Y-76692000D01*
X115800238Y-76596761D01*
X115752619Y-76453904D01*
X115752619Y-76215809D01*
X115689119Y-67794261D02*
X116165309Y-67460928D01*
X115689119Y-67222833D02*
X116689119Y-67222833D01*
X116689119Y-67603785D01*
X116641500Y-67699023D01*
X116593880Y-67746642D01*
X116498642Y-67794261D01*
X116355785Y-67794261D01*
X116260547Y-67746642D01*
X116212928Y-67699023D01*
X116165309Y-67603785D01*
X116165309Y-67222833D01*
X115689119Y-68127595D02*
X116355785Y-68651404D01*
X116355785Y-68127595D02*
X115689119Y-68651404D01*
X115689119Y-69032357D02*
X116689119Y-69032357D01*
X116689119Y-69270452D01*
X116641500Y-69413309D01*
X116546261Y-69508547D01*
X116451023Y-69556166D01*
X116260547Y-69603785D01*
X116117690Y-69603785D01*
X115927214Y-69556166D01*
X115831976Y-69508547D01*
X115736738Y-69413309D01*
X115689119Y-69270452D01*
X115689119Y-69032357D01*
X134366095Y-93305380D02*
X134366095Y-94114904D01*
X134413714Y-94210142D01*
X134461333Y-94257761D01*
X134556571Y-94305380D01*
X134747047Y-94305380D01*
X134842285Y-94257761D01*
X134889904Y-94210142D01*
X134937523Y-94114904D01*
X134937523Y-93305380D01*
X135842285Y-93638714D02*
X135842285Y-94305380D01*
X135604190Y-93257761D02*
X135366095Y-93972047D01*
X135985142Y-93972047D01*
X131485142Y-94851380D02*
X132151809Y-94851380D01*
X131723238Y-95851380D01*
X132961333Y-95184714D02*
X132961333Y-95851380D01*
X132723238Y-94803761D02*
X132485142Y-95518047D01*
X133104190Y-95518047D01*
X133485142Y-95851380D02*
X133485142Y-94851380D01*
X133485142Y-95327571D02*
X134056571Y-95327571D01*
X134056571Y-95851380D02*
X134056571Y-94851380D01*
X135104190Y-95756142D02*
X135056571Y-95803761D01*
X134913714Y-95851380D01*
X134818476Y-95851380D01*
X134675619Y-95803761D01*
X134580380Y-95708523D01*
X134532761Y-95613285D01*
X134485142Y-95422809D01*
X134485142Y-95279952D01*
X134532761Y-95089476D01*
X134580380Y-94994238D01*
X134675619Y-94899000D01*
X134818476Y-94851380D01*
X134913714Y-94851380D01*
X135056571Y-94899000D01*
X135104190Y-94946619D01*
X135389904Y-94851380D02*
X135961333Y-94851380D01*
X135675619Y-95851380D02*
X135675619Y-94851380D01*
X136770857Y-94851380D02*
X136294666Y-94851380D01*
X136247047Y-95327571D01*
X136294666Y-95279952D01*
X136389904Y-95232333D01*
X136628000Y-95232333D01*
X136723238Y-95279952D01*
X136770857Y-95327571D01*
X136818476Y-95422809D01*
X136818476Y-95660904D01*
X136770857Y-95756142D01*
X136723238Y-95803761D01*
X136628000Y-95851380D01*
X136389904Y-95851380D01*
X136294666Y-95803761D01*
X136247047Y-95756142D01*
X137675619Y-95184714D02*
X137675619Y-95851380D01*
X137437523Y-94803761D02*
X137199428Y-95518047D01*
X137818476Y-95518047D01*
X138723238Y-95851380D02*
X138151809Y-95851380D01*
X138437523Y-95851380D02*
X138437523Y-94851380D01*
X138342285Y-94994238D01*
X138247047Y-95089476D01*
X138151809Y-95137095D01*
X131056142Y-105259142D02*
X131008523Y-105306761D01*
X130865666Y-105354380D01*
X130770428Y-105354380D01*
X130627571Y-105306761D01*
X130532333Y-105211523D01*
X130484714Y-105116285D01*
X130437095Y-104925809D01*
X130437095Y-104782952D01*
X130484714Y-104592476D01*
X130532333Y-104497238D01*
X130627571Y-104402000D01*
X130770428Y-104354380D01*
X130865666Y-104354380D01*
X131008523Y-104402000D01*
X131056142Y-104449619D01*
X132008523Y-105354380D02*
X131437095Y-105354380D01*
X131722809Y-105354380D02*
X131722809Y-104354380D01*
X131627571Y-104497238D01*
X131532333Y-104592476D01*
X131437095Y-104640095D01*
X132960904Y-105354380D02*
X132389476Y-105354380D01*
X132675190Y-105354380D02*
X132675190Y-104354380D01*
X132579952Y-104497238D01*
X132484714Y-104592476D01*
X132389476Y-104640095D01*
X137644380Y-105481380D02*
X137072952Y-105481380D01*
X137358666Y-105481380D02*
X137358666Y-104481380D01*
X137263428Y-104624238D01*
X137168190Y-104719476D01*
X137072952Y-104767095D01*
X138263428Y-104481380D02*
X138358666Y-104481380D01*
X138453904Y-104529000D01*
X138501523Y-104576619D01*
X138549142Y-104671857D01*
X138596761Y-104862333D01*
X138596761Y-105100428D01*
X138549142Y-105290904D01*
X138501523Y-105386142D01*
X138453904Y-105433761D01*
X138358666Y-105481380D01*
X138263428Y-105481380D01*
X138168190Y-105433761D01*
X138120571Y-105386142D01*
X138072952Y-105290904D01*
X138025333Y-105100428D01*
X138025333Y-104862333D01*
X138072952Y-104671857D01*
X138120571Y-104576619D01*
X138168190Y-104529000D01*
X138263428Y-104481380D01*
X139215809Y-104481380D02*
X139311047Y-104481380D01*
X139406285Y-104529000D01*
X139453904Y-104576619D01*
X139501523Y-104671857D01*
X139549142Y-104862333D01*
X139549142Y-105100428D01*
X139501523Y-105290904D01*
X139453904Y-105386142D01*
X139406285Y-105433761D01*
X139311047Y-105481380D01*
X139215809Y-105481380D01*
X139120571Y-105433761D01*
X139072952Y-105386142D01*
X139025333Y-105290904D01*
X138977714Y-105100428D01*
X138977714Y-104862333D01*
X139025333Y-104671857D01*
X139072952Y-104576619D01*
X139120571Y-104529000D01*
X139215809Y-104481380D01*
X139977714Y-104814714D02*
X139977714Y-105481380D01*
X139977714Y-104909952D02*
X140025333Y-104862333D01*
X140120571Y-104814714D01*
X140263428Y-104814714D01*
X140358666Y-104862333D01*
X140406285Y-104957571D01*
X140406285Y-105481380D01*
X141215809Y-104957571D02*
X140882476Y-104957571D01*
X140882476Y-105481380D02*
X140882476Y-104481380D01*
X141358666Y-104481380D01*
X147828095Y-74890380D02*
X147828095Y-75699904D01*
X147875714Y-75795142D01*
X147923333Y-75842761D01*
X148018571Y-75890380D01*
X148209047Y-75890380D01*
X148304285Y-75842761D01*
X148351904Y-75795142D01*
X148399523Y-75699904D01*
X148399523Y-74890380D01*
X149399523Y-75890380D02*
X148828095Y-75890380D01*
X149113809Y-75890380D02*
X149113809Y-74890380D01*
X149018571Y-75033238D01*
X148923333Y-75128476D01*
X148828095Y-75176095D01*
X146034523Y-77271571D02*
X146367857Y-77271571D01*
X146510714Y-77795380D02*
X146034523Y-77795380D01*
X146034523Y-76795380D01*
X146510714Y-76795380D01*
X146891666Y-77747761D02*
X147034523Y-77795380D01*
X147272619Y-77795380D01*
X147367857Y-77747761D01*
X147415476Y-77700142D01*
X147463095Y-77604904D01*
X147463095Y-77509666D01*
X147415476Y-77414428D01*
X147367857Y-77366809D01*
X147272619Y-77319190D01*
X147082142Y-77271571D01*
X146986904Y-77223952D01*
X146939285Y-77176333D01*
X146891666Y-77081095D01*
X146891666Y-76985857D01*
X146939285Y-76890619D01*
X146986904Y-76843000D01*
X147082142Y-76795380D01*
X147320238Y-76795380D01*
X147463095Y-76843000D01*
X147891666Y-77795380D02*
X147891666Y-76795380D01*
X148272619Y-76795380D01*
X148367857Y-76843000D01*
X148415476Y-76890619D01*
X148463095Y-76985857D01*
X148463095Y-77128714D01*
X148415476Y-77223952D01*
X148367857Y-77271571D01*
X148272619Y-77319190D01*
X147891666Y-77319190D01*
X148891666Y-77414428D02*
X149653571Y-77414428D01*
X150653571Y-77795380D02*
X150082142Y-77795380D01*
X150367857Y-77795380D02*
X150367857Y-76795380D01*
X150272619Y-76938238D01*
X150177380Y-77033476D01*
X150082142Y-77081095D01*
X151034523Y-76890619D02*
X151082142Y-76843000D01*
X151177380Y-76795380D01*
X151415476Y-76795380D01*
X151510714Y-76843000D01*
X151558333Y-76890619D01*
X151605952Y-76985857D01*
X151605952Y-77081095D01*
X151558333Y-77223952D01*
X150986904Y-77795380D01*
X151605952Y-77795380D01*
X152367857Y-77271571D02*
X152034523Y-77271571D01*
X152034523Y-77795380D02*
X152034523Y-76795380D01*
X152510714Y-76795380D01*
X163735095Y-61110761D02*
X163877952Y-61158380D01*
X164116047Y-61158380D01*
X164211285Y-61110761D01*
X164258904Y-61063142D01*
X164306523Y-60967904D01*
X164306523Y-60872666D01*
X164258904Y-60777428D01*
X164211285Y-60729809D01*
X164116047Y-60682190D01*
X163925571Y-60634571D01*
X163830333Y-60586952D01*
X163782714Y-60539333D01*
X163735095Y-60444095D01*
X163735095Y-60348857D01*
X163782714Y-60253619D01*
X163830333Y-60206000D01*
X163925571Y-60158380D01*
X164163666Y-60158380D01*
X164306523Y-60206000D01*
X164735095Y-60491714D02*
X164735095Y-61491714D01*
X164735095Y-60539333D02*
X164830333Y-60491714D01*
X165020809Y-60491714D01*
X165116047Y-60539333D01*
X165163666Y-60586952D01*
X165211285Y-60682190D01*
X165211285Y-60967904D01*
X165163666Y-61063142D01*
X165116047Y-61110761D01*
X165020809Y-61158380D01*
X164830333Y-61158380D01*
X164735095Y-61110761D01*
X166020809Y-61110761D02*
X165925571Y-61158380D01*
X165735095Y-61158380D01*
X165639857Y-61110761D01*
X165592238Y-61015523D01*
X165592238Y-60634571D01*
X165639857Y-60539333D01*
X165735095Y-60491714D01*
X165925571Y-60491714D01*
X166020809Y-60539333D01*
X166068428Y-60634571D01*
X166068428Y-60729809D01*
X165592238Y-60825047D01*
X166925571Y-61158380D02*
X166925571Y-60634571D01*
X166877952Y-60539333D01*
X166782714Y-60491714D01*
X166592238Y-60491714D01*
X166497000Y-60539333D01*
X166925571Y-61110761D02*
X166830333Y-61158380D01*
X166592238Y-61158380D01*
X166497000Y-61110761D01*
X166449380Y-61015523D01*
X166449380Y-60920285D01*
X166497000Y-60825047D01*
X166592238Y-60777428D01*
X166830333Y-60777428D01*
X166925571Y-60729809D01*
X167401761Y-61158380D02*
X167401761Y-60158380D01*
X167497000Y-60777428D02*
X167782714Y-61158380D01*
X167782714Y-60491714D02*
X167401761Y-60872666D01*
X168592238Y-61110761D02*
X168497000Y-61158380D01*
X168306523Y-61158380D01*
X168211285Y-61110761D01*
X168163666Y-61015523D01*
X168163666Y-60634571D01*
X168211285Y-60539333D01*
X168306523Y-60491714D01*
X168497000Y-60491714D01*
X168592238Y-60539333D01*
X168639857Y-60634571D01*
X168639857Y-60729809D01*
X168163666Y-60825047D01*
X169068428Y-61158380D02*
X169068428Y-60491714D01*
X169068428Y-60682190D02*
X169116047Y-60586952D01*
X169163666Y-60539333D01*
X169258904Y-60491714D01*
X169354142Y-60491714D01*
X167568809Y-129611380D02*
X167568809Y-128611380D01*
X167949761Y-128611380D01*
X168045000Y-128659000D01*
X168092619Y-128706619D01*
X168140238Y-128801857D01*
X168140238Y-128944714D01*
X168092619Y-129039952D01*
X168045000Y-129087571D01*
X167949761Y-129135190D01*
X167568809Y-129135190D01*
X168711666Y-129611380D02*
X168616428Y-129563761D01*
X168568809Y-129516142D01*
X168521190Y-129420904D01*
X168521190Y-129135190D01*
X168568809Y-129039952D01*
X168616428Y-128992333D01*
X168711666Y-128944714D01*
X168854523Y-128944714D01*
X168949761Y-128992333D01*
X168997380Y-129039952D01*
X169045000Y-129135190D01*
X169045000Y-129420904D01*
X168997380Y-129516142D01*
X168949761Y-129563761D01*
X168854523Y-129611380D01*
X168711666Y-129611380D01*
X169378333Y-128944714D02*
X169568809Y-129611380D01*
X169759285Y-129135190D01*
X169949761Y-129611380D01*
X170140238Y-128944714D01*
X170902142Y-129563761D02*
X170806904Y-129611380D01*
X170616428Y-129611380D01*
X170521190Y-129563761D01*
X170473571Y-129468523D01*
X170473571Y-129087571D01*
X170521190Y-128992333D01*
X170616428Y-128944714D01*
X170806904Y-128944714D01*
X170902142Y-128992333D01*
X170949761Y-129087571D01*
X170949761Y-129182809D01*
X170473571Y-129278047D01*
X171378333Y-129611380D02*
X171378333Y-128944714D01*
X171378333Y-129135190D02*
X171425952Y-129039952D01*
X171473571Y-128992333D01*
X171568809Y-128944714D01*
X171664047Y-128944714D01*
X161599761Y-93924380D02*
X161266428Y-93448190D01*
X161028333Y-93924380D02*
X161028333Y-92924380D01*
X161409285Y-92924380D01*
X161504523Y-92972000D01*
X161552142Y-93019619D01*
X161599761Y-93114857D01*
X161599761Y-93257714D01*
X161552142Y-93352952D01*
X161504523Y-93400571D01*
X161409285Y-93448190D01*
X161028333Y-93448190D01*
X161980714Y-93876761D02*
X162123571Y-93924380D01*
X162361666Y-93924380D01*
X162456904Y-93876761D01*
X162504523Y-93829142D01*
X162552142Y-93733904D01*
X162552142Y-93638666D01*
X162504523Y-93543428D01*
X162456904Y-93495809D01*
X162361666Y-93448190D01*
X162171190Y-93400571D01*
X162075952Y-93352952D01*
X162028333Y-93305333D01*
X161980714Y-93210095D01*
X161980714Y-93114857D01*
X162028333Y-93019619D01*
X162075952Y-92972000D01*
X162171190Y-92924380D01*
X162409285Y-92924380D01*
X162552142Y-92972000D01*
X162933095Y-93019619D02*
X162980714Y-92972000D01*
X163075952Y-92924380D01*
X163314047Y-92924380D01*
X163409285Y-92972000D01*
X163456904Y-93019619D01*
X163504523Y-93114857D01*
X163504523Y-93210095D01*
X163456904Y-93352952D01*
X162885476Y-93924380D01*
X163504523Y-93924380D01*
X163837857Y-92924380D02*
X164456904Y-92924380D01*
X164123571Y-93305333D01*
X164266428Y-93305333D01*
X164361666Y-93352952D01*
X164409285Y-93400571D01*
X164456904Y-93495809D01*
X164456904Y-93733904D01*
X164409285Y-93829142D01*
X164361666Y-93876761D01*
X164266428Y-93924380D01*
X163980714Y-93924380D01*
X163885476Y-93876761D01*
X163837857Y-93829142D01*
X164837857Y-93019619D02*
X164885476Y-92972000D01*
X164980714Y-92924380D01*
X165218809Y-92924380D01*
X165314047Y-92972000D01*
X165361666Y-93019619D01*
X165409285Y-93114857D01*
X165409285Y-93210095D01*
X165361666Y-93352952D01*
X164790238Y-93924380D01*
X165409285Y-93924380D01*
X164663380Y-74175857D02*
X164187190Y-74509190D01*
X164663380Y-74747285D02*
X163663380Y-74747285D01*
X163663380Y-74366333D01*
X163711000Y-74271095D01*
X163758619Y-74223476D01*
X163853857Y-74175857D01*
X163996714Y-74175857D01*
X164091952Y-74223476D01*
X164139571Y-74271095D01*
X164187190Y-74366333D01*
X164187190Y-74747285D01*
X164663380Y-73223476D02*
X164663380Y-73794904D01*
X164663380Y-73509190D02*
X163663380Y-73509190D01*
X163806238Y-73604428D01*
X163901476Y-73699666D01*
X163949095Y-73794904D01*
X163663380Y-72366333D02*
X163663380Y-72556809D01*
X163711000Y-72652047D01*
X163758619Y-72699666D01*
X163901476Y-72794904D01*
X164091952Y-72842523D01*
X164472904Y-72842523D01*
X164568142Y-72794904D01*
X164615761Y-72747285D01*
X164663380Y-72652047D01*
X164663380Y-72461571D01*
X164615761Y-72366333D01*
X164568142Y-72318714D01*
X164472904Y-72271095D01*
X164234809Y-72271095D01*
X164139571Y-72318714D01*
X164091952Y-72366333D01*
X164044333Y-72461571D01*
X164044333Y-72652047D01*
X164091952Y-72747285D01*
X164139571Y-72794904D01*
X164234809Y-72842523D01*
X163140380Y-71088095D02*
X163140380Y-71659523D01*
X163140380Y-71373809D02*
X162140380Y-71373809D01*
X162283238Y-71469047D01*
X162378476Y-71564285D01*
X162426095Y-71659523D01*
X162140380Y-70469047D02*
X162140380Y-70373809D01*
X162188000Y-70278571D01*
X162235619Y-70230952D01*
X162330857Y-70183333D01*
X162521333Y-70135714D01*
X162759428Y-70135714D01*
X162949904Y-70183333D01*
X163045142Y-70230952D01*
X163092761Y-70278571D01*
X163140380Y-70373809D01*
X163140380Y-70469047D01*
X163092761Y-70564285D01*
X163045142Y-70611904D01*
X162949904Y-70659523D01*
X162759428Y-70707142D01*
X162521333Y-70707142D01*
X162330857Y-70659523D01*
X162235619Y-70611904D01*
X162188000Y-70564285D01*
X162140380Y-70469047D01*
X162140380Y-69516666D02*
X162140380Y-69421428D01*
X162188000Y-69326190D01*
X162235619Y-69278571D01*
X162330857Y-69230952D01*
X162521333Y-69183333D01*
X162759428Y-69183333D01*
X162949904Y-69230952D01*
X163045142Y-69278571D01*
X163092761Y-69326190D01*
X163140380Y-69421428D01*
X163140380Y-69516666D01*
X163092761Y-69611904D01*
X163045142Y-69659523D01*
X162949904Y-69707142D01*
X162759428Y-69754761D01*
X162521333Y-69754761D01*
X162330857Y-69707142D01*
X162235619Y-69659523D01*
X162188000Y-69611904D01*
X162140380Y-69516666D01*
X163140380Y-68802380D02*
X163140380Y-68564285D01*
X162949904Y-68564285D01*
X162902285Y-68659523D01*
X162807047Y-68754761D01*
X162664190Y-68802380D01*
X162426095Y-68802380D01*
X162283238Y-68754761D01*
X162188000Y-68659523D01*
X162140380Y-68516666D01*
X162140380Y-68326190D01*
X162188000Y-68183333D01*
X162283238Y-68088095D01*
X162426095Y-68040476D01*
X162664190Y-68040476D01*
X162807047Y-68088095D01*
X162902285Y-68183333D01*
X162949904Y-68278571D01*
X163140380Y-68278571D01*
X163140380Y-68040476D01*
X158107285Y-136301380D02*
X158107285Y-135301380D01*
X158488238Y-135301380D01*
X158583476Y-135349000D01*
X158631095Y-135396619D01*
X158678714Y-135491857D01*
X158678714Y-135634714D01*
X158631095Y-135729952D01*
X158583476Y-135777571D01*
X158488238Y-135825190D01*
X158107285Y-135825190D01*
X159678714Y-136301380D02*
X159345380Y-135825190D01*
X159107285Y-136301380D02*
X159107285Y-135301380D01*
X159488238Y-135301380D01*
X159583476Y-135349000D01*
X159631095Y-135396619D01*
X159678714Y-135491857D01*
X159678714Y-135634714D01*
X159631095Y-135729952D01*
X159583476Y-135777571D01*
X159488238Y-135825190D01*
X159107285Y-135825190D01*
X160297761Y-135301380D02*
X160488238Y-135301380D01*
X160583476Y-135349000D01*
X160678714Y-135444238D01*
X160726333Y-135634714D01*
X160726333Y-135968047D01*
X160678714Y-136158523D01*
X160583476Y-136253761D01*
X160488238Y-136301380D01*
X160297761Y-136301380D01*
X160202523Y-136253761D01*
X160107285Y-136158523D01*
X160059666Y-135968047D01*
X160059666Y-135634714D01*
X160107285Y-135444238D01*
X160202523Y-135349000D01*
X160297761Y-135301380D01*
X161678714Y-135349000D02*
X161583476Y-135301380D01*
X161440619Y-135301380D01*
X161297761Y-135349000D01*
X161202523Y-135444238D01*
X161154904Y-135539476D01*
X161107285Y-135729952D01*
X161107285Y-135872809D01*
X161154904Y-136063285D01*
X161202523Y-136158523D01*
X161297761Y-136253761D01*
X161440619Y-136301380D01*
X161535857Y-136301380D01*
X161678714Y-136253761D01*
X161726333Y-136206142D01*
X161726333Y-135872809D01*
X161535857Y-135872809D01*
X143073619Y-136301380D02*
X142740285Y-135825190D01*
X142502190Y-136301380D02*
X142502190Y-135301380D01*
X142883142Y-135301380D01*
X142978380Y-135349000D01*
X143026000Y-135396619D01*
X143073619Y-135491857D01*
X143073619Y-135634714D01*
X143026000Y-135729952D01*
X142978380Y-135777571D01*
X142883142Y-135825190D01*
X142502190Y-135825190D01*
X143502190Y-135777571D02*
X143835523Y-135777571D01*
X143978380Y-136301380D02*
X143502190Y-136301380D01*
X143502190Y-135301380D01*
X143978380Y-135301380D01*
X144359333Y-136253761D02*
X144502190Y-136301380D01*
X144740285Y-136301380D01*
X144835523Y-136253761D01*
X144883142Y-136206142D01*
X144930761Y-136110904D01*
X144930761Y-136015666D01*
X144883142Y-135920428D01*
X144835523Y-135872809D01*
X144740285Y-135825190D01*
X144549809Y-135777571D01*
X144454571Y-135729952D01*
X144406952Y-135682333D01*
X144359333Y-135587095D01*
X144359333Y-135491857D01*
X144406952Y-135396619D01*
X144454571Y-135349000D01*
X144549809Y-135301380D01*
X144787904Y-135301380D01*
X144930761Y-135349000D01*
X145359333Y-135777571D02*
X145692666Y-135777571D01*
X145835523Y-136301380D02*
X145359333Y-136301380D01*
X145359333Y-135301380D01*
X145835523Y-135301380D01*
X146121238Y-135301380D02*
X146692666Y-135301380D01*
X146406952Y-136301380D02*
X146406952Y-135301380D01*
X160148142Y-77415380D02*
X159814809Y-76939190D01*
X159576714Y-77415380D02*
X159576714Y-76415380D01*
X159957666Y-76415380D01*
X160052904Y-76463000D01*
X160100523Y-76510619D01*
X160148142Y-76605857D01*
X160148142Y-76748714D01*
X160100523Y-76843952D01*
X160052904Y-76891571D01*
X159957666Y-76939190D01*
X159576714Y-76939190D01*
X161100523Y-77415380D02*
X160529095Y-77415380D01*
X160814809Y-77415380D02*
X160814809Y-76415380D01*
X160719571Y-76558238D01*
X160624333Y-76653476D01*
X160529095Y-76701095D01*
X162005285Y-76415380D02*
X161529095Y-76415380D01*
X161481476Y-76891571D01*
X161529095Y-76843952D01*
X161624333Y-76796333D01*
X161862428Y-76796333D01*
X161957666Y-76843952D01*
X162005285Y-76891571D01*
X162052904Y-76986809D01*
X162052904Y-77224904D01*
X162005285Y-77320142D01*
X161957666Y-77367761D01*
X161862428Y-77415380D01*
X161624333Y-77415380D01*
X161529095Y-77367761D01*
X161481476Y-77320142D01*
X159624333Y-80715380D02*
X159052904Y-80715380D01*
X159338619Y-80715380D02*
X159338619Y-79715380D01*
X159243380Y-79858238D01*
X159148142Y-79953476D01*
X159052904Y-80001095D01*
X160243380Y-79715380D02*
X160338619Y-79715380D01*
X160433857Y-79763000D01*
X160481476Y-79810619D01*
X160529095Y-79905857D01*
X160576714Y-80096333D01*
X160576714Y-80334428D01*
X160529095Y-80524904D01*
X160481476Y-80620142D01*
X160433857Y-80667761D01*
X160338619Y-80715380D01*
X160243380Y-80715380D01*
X160148142Y-80667761D01*
X160100523Y-80620142D01*
X160052904Y-80524904D01*
X160005285Y-80334428D01*
X160005285Y-80096333D01*
X160052904Y-79905857D01*
X160100523Y-79810619D01*
X160148142Y-79763000D01*
X160243380Y-79715380D01*
X161005285Y-80715380D02*
X161005285Y-79715380D01*
X161100523Y-80334428D02*
X161386238Y-80715380D01*
X161386238Y-80048714D02*
X161005285Y-80429666D01*
X161767190Y-80715380D02*
X162005285Y-80715380D01*
X162005285Y-80524904D01*
X161910047Y-80477285D01*
X161814809Y-80382047D01*
X161767190Y-80239190D01*
X161767190Y-80001095D01*
X161814809Y-79858238D01*
X161910047Y-79763000D01*
X162052904Y-79715380D01*
X162243380Y-79715380D01*
X162386238Y-79763000D01*
X162481476Y-79858238D01*
X162529095Y-80001095D01*
X162529095Y-80239190D01*
X162481476Y-80382047D01*
X162386238Y-80477285D01*
X162291000Y-80524904D01*
X162291000Y-80715380D01*
X162529095Y-80715380D01*
X160139142Y-82241380D02*
X159805809Y-81765190D01*
X159567714Y-82241380D02*
X159567714Y-81241380D01*
X159948666Y-81241380D01*
X160043904Y-81289000D01*
X160091523Y-81336619D01*
X160139142Y-81431857D01*
X160139142Y-81574714D01*
X160091523Y-81669952D01*
X160043904Y-81717571D01*
X159948666Y-81765190D01*
X159567714Y-81765190D01*
X161091523Y-82241380D02*
X160520095Y-82241380D01*
X160805809Y-82241380D02*
X160805809Y-81241380D01*
X160710571Y-81384238D01*
X160615333Y-81479476D01*
X160520095Y-81527095D01*
X161948666Y-81574714D02*
X161948666Y-82241380D01*
X161710571Y-81193761D02*
X161472476Y-81908047D01*
X162091523Y-81908047D01*
X159615333Y-85541380D02*
X159043904Y-85541380D01*
X159329619Y-85541380D02*
X159329619Y-84541380D01*
X159234380Y-84684238D01*
X159139142Y-84779476D01*
X159043904Y-84827095D01*
X160234380Y-84541380D02*
X160329619Y-84541380D01*
X160424857Y-84589000D01*
X160472476Y-84636619D01*
X160520095Y-84731857D01*
X160567714Y-84922333D01*
X160567714Y-85160428D01*
X160520095Y-85350904D01*
X160472476Y-85446142D01*
X160424857Y-85493761D01*
X160329619Y-85541380D01*
X160234380Y-85541380D01*
X160139142Y-85493761D01*
X160091523Y-85446142D01*
X160043904Y-85350904D01*
X159996285Y-85160428D01*
X159996285Y-84922333D01*
X160043904Y-84731857D01*
X160091523Y-84636619D01*
X160139142Y-84589000D01*
X160234380Y-84541380D01*
X160996285Y-85541380D02*
X160996285Y-84541380D01*
X161091523Y-85160428D02*
X161377238Y-85541380D01*
X161377238Y-84874714D02*
X160996285Y-85255666D01*
X161758190Y-85541380D02*
X161996285Y-85541380D01*
X161996285Y-85350904D01*
X161901047Y-85303285D01*
X161805809Y-85208047D01*
X161758190Y-85065190D01*
X161758190Y-84827095D01*
X161805809Y-84684238D01*
X161901047Y-84589000D01*
X162043904Y-84541380D01*
X162234380Y-84541380D01*
X162377238Y-84589000D01*
X162472476Y-84684238D01*
X162520095Y-84827095D01*
X162520095Y-85065190D01*
X162472476Y-85208047D01*
X162377238Y-85303285D01*
X162282000Y-85350904D01*
X162282000Y-85541380D01*
X162520095Y-85541380D01*
X160139142Y-86940380D02*
X159805809Y-86464190D01*
X159567714Y-86940380D02*
X159567714Y-85940380D01*
X159948666Y-85940380D01*
X160043904Y-85988000D01*
X160091523Y-86035619D01*
X160139142Y-86130857D01*
X160139142Y-86273714D01*
X160091523Y-86368952D01*
X160043904Y-86416571D01*
X159948666Y-86464190D01*
X159567714Y-86464190D01*
X161091523Y-86940380D02*
X160520095Y-86940380D01*
X160805809Y-86940380D02*
X160805809Y-85940380D01*
X160710571Y-86083238D01*
X160615333Y-86178476D01*
X160520095Y-86226095D01*
X161424857Y-85940380D02*
X162043904Y-85940380D01*
X161710571Y-86321333D01*
X161853428Y-86321333D01*
X161948666Y-86368952D01*
X161996285Y-86416571D01*
X162043904Y-86511809D01*
X162043904Y-86749904D01*
X161996285Y-86845142D01*
X161948666Y-86892761D01*
X161853428Y-86940380D01*
X161567714Y-86940380D01*
X161472476Y-86892761D01*
X161424857Y-86845142D01*
X159615333Y-90240380D02*
X159043904Y-90240380D01*
X159329619Y-90240380D02*
X159329619Y-89240380D01*
X159234380Y-89383238D01*
X159139142Y-89478476D01*
X159043904Y-89526095D01*
X160234380Y-89240380D02*
X160329619Y-89240380D01*
X160424857Y-89288000D01*
X160472476Y-89335619D01*
X160520095Y-89430857D01*
X160567714Y-89621333D01*
X160567714Y-89859428D01*
X160520095Y-90049904D01*
X160472476Y-90145142D01*
X160424857Y-90192761D01*
X160329619Y-90240380D01*
X160234380Y-90240380D01*
X160139142Y-90192761D01*
X160091523Y-90145142D01*
X160043904Y-90049904D01*
X159996285Y-89859428D01*
X159996285Y-89621333D01*
X160043904Y-89430857D01*
X160091523Y-89335619D01*
X160139142Y-89288000D01*
X160234380Y-89240380D01*
X160996285Y-90240380D02*
X160996285Y-89240380D01*
X161091523Y-89859428D02*
X161377238Y-90240380D01*
X161377238Y-89573714D02*
X160996285Y-89954666D01*
X161758190Y-90240380D02*
X161996285Y-90240380D01*
X161996285Y-90049904D01*
X161901047Y-90002285D01*
X161805809Y-89907047D01*
X161758190Y-89764190D01*
X161758190Y-89526095D01*
X161805809Y-89383238D01*
X161901047Y-89288000D01*
X162043904Y-89240380D01*
X162234380Y-89240380D01*
X162377238Y-89288000D01*
X162472476Y-89383238D01*
X162520095Y-89526095D01*
X162520095Y-89764190D01*
X162472476Y-89907047D01*
X162377238Y-90002285D01*
X162282000Y-90049904D01*
X162282000Y-90240380D01*
X162520095Y-90240380D01*
X135755142Y-77540380D02*
X135421809Y-77064190D01*
X135183714Y-77540380D02*
X135183714Y-76540380D01*
X135564666Y-76540380D01*
X135659904Y-76588000D01*
X135707523Y-76635619D01*
X135755142Y-76730857D01*
X135755142Y-76873714D01*
X135707523Y-76968952D01*
X135659904Y-77016571D01*
X135564666Y-77064190D01*
X135183714Y-77064190D01*
X136707523Y-77540380D02*
X136136095Y-77540380D01*
X136421809Y-77540380D02*
X136421809Y-76540380D01*
X136326571Y-76683238D01*
X136231333Y-76778476D01*
X136136095Y-76826095D01*
X137088476Y-76635619D02*
X137136095Y-76588000D01*
X137231333Y-76540380D01*
X137469428Y-76540380D01*
X137564666Y-76588000D01*
X137612285Y-76635619D01*
X137659904Y-76730857D01*
X137659904Y-76826095D01*
X137612285Y-76968952D01*
X137040857Y-77540380D01*
X137659904Y-77540380D01*
X135231333Y-74240380D02*
X134659904Y-74240380D01*
X134945619Y-74240380D02*
X134945619Y-73240380D01*
X134850380Y-73383238D01*
X134755142Y-73478476D01*
X134659904Y-73526095D01*
X135850380Y-73240380D02*
X135945619Y-73240380D01*
X136040857Y-73288000D01*
X136088476Y-73335619D01*
X136136095Y-73430857D01*
X136183714Y-73621333D01*
X136183714Y-73859428D01*
X136136095Y-74049904D01*
X136088476Y-74145142D01*
X136040857Y-74192761D01*
X135945619Y-74240380D01*
X135850380Y-74240380D01*
X135755142Y-74192761D01*
X135707523Y-74145142D01*
X135659904Y-74049904D01*
X135612285Y-73859428D01*
X135612285Y-73621333D01*
X135659904Y-73430857D01*
X135707523Y-73335619D01*
X135755142Y-73288000D01*
X135850380Y-73240380D01*
X136612285Y-74240380D02*
X136612285Y-73240380D01*
X136707523Y-73859428D02*
X136993238Y-74240380D01*
X136993238Y-73573714D02*
X136612285Y-73954666D01*
X137374190Y-74240380D02*
X137612285Y-74240380D01*
X137612285Y-74049904D01*
X137517047Y-74002285D01*
X137421809Y-73907047D01*
X137374190Y-73764190D01*
X137374190Y-73526095D01*
X137421809Y-73383238D01*
X137517047Y-73288000D01*
X137659904Y-73240380D01*
X137850380Y-73240380D01*
X137993238Y-73288000D01*
X138088476Y-73383238D01*
X138136095Y-73526095D01*
X138136095Y-73764190D01*
X138088476Y-73907047D01*
X137993238Y-74002285D01*
X137898000Y-74049904D01*
X137898000Y-74240380D01*
X138136095Y-74240380D01*
X135755142Y-84652380D02*
X135421809Y-84176190D01*
X135183714Y-84652380D02*
X135183714Y-83652380D01*
X135564666Y-83652380D01*
X135659904Y-83700000D01*
X135707523Y-83747619D01*
X135755142Y-83842857D01*
X135755142Y-83985714D01*
X135707523Y-84080952D01*
X135659904Y-84128571D01*
X135564666Y-84176190D01*
X135183714Y-84176190D01*
X136707523Y-84652380D02*
X136136095Y-84652380D01*
X136421809Y-84652380D02*
X136421809Y-83652380D01*
X136326571Y-83795238D01*
X136231333Y-83890476D01*
X136136095Y-83938095D01*
X137659904Y-84652380D02*
X137088476Y-84652380D01*
X137374190Y-84652380D02*
X137374190Y-83652380D01*
X137278952Y-83795238D01*
X137183714Y-83890476D01*
X137088476Y-83938095D01*
X135231333Y-81352380D02*
X134659904Y-81352380D01*
X134945619Y-81352380D02*
X134945619Y-80352380D01*
X134850380Y-80495238D01*
X134755142Y-80590476D01*
X134659904Y-80638095D01*
X135850380Y-80352380D02*
X135945619Y-80352380D01*
X136040857Y-80400000D01*
X136088476Y-80447619D01*
X136136095Y-80542857D01*
X136183714Y-80733333D01*
X136183714Y-80971428D01*
X136136095Y-81161904D01*
X136088476Y-81257142D01*
X136040857Y-81304761D01*
X135945619Y-81352380D01*
X135850380Y-81352380D01*
X135755142Y-81304761D01*
X135707523Y-81257142D01*
X135659904Y-81161904D01*
X135612285Y-80971428D01*
X135612285Y-80733333D01*
X135659904Y-80542857D01*
X135707523Y-80447619D01*
X135755142Y-80400000D01*
X135850380Y-80352380D01*
X136612285Y-81352380D02*
X136612285Y-80352380D01*
X136707523Y-80971428D02*
X136993238Y-81352380D01*
X136993238Y-80685714D02*
X136612285Y-81066666D01*
X137374190Y-81352380D02*
X137612285Y-81352380D01*
X137612285Y-81161904D01*
X137517047Y-81114285D01*
X137421809Y-81019047D01*
X137374190Y-80876190D01*
X137374190Y-80638095D01*
X137421809Y-80495238D01*
X137517047Y-80400000D01*
X137659904Y-80352380D01*
X137850380Y-80352380D01*
X137993238Y-80400000D01*
X138088476Y-80495238D01*
X138136095Y-80638095D01*
X138136095Y-80876190D01*
X138088476Y-81019047D01*
X137993238Y-81114285D01*
X137898000Y-81161904D01*
X137898000Y-81352380D01*
X138136095Y-81352380D01*
X137406142Y-90908142D02*
X137358523Y-90955761D01*
X137215666Y-91003380D01*
X137120428Y-91003380D01*
X136977571Y-90955761D01*
X136882333Y-90860523D01*
X136834714Y-90765285D01*
X136787095Y-90574809D01*
X136787095Y-90431952D01*
X136834714Y-90241476D01*
X136882333Y-90146238D01*
X136977571Y-90051000D01*
X137120428Y-90003380D01*
X137215666Y-90003380D01*
X137358523Y-90051000D01*
X137406142Y-90098619D01*
X138358523Y-91003380D02*
X137787095Y-91003380D01*
X138072809Y-91003380D02*
X138072809Y-90003380D01*
X137977571Y-90146238D01*
X137882333Y-90241476D01*
X137787095Y-90289095D01*
X138977571Y-90003380D02*
X139072809Y-90003380D01*
X139168047Y-90051000D01*
X139215666Y-90098619D01*
X139263285Y-90193857D01*
X139310904Y-90384333D01*
X139310904Y-90622428D01*
X139263285Y-90812904D01*
X139215666Y-90908142D01*
X139168047Y-90955761D01*
X139072809Y-91003380D01*
X138977571Y-91003380D01*
X138882333Y-90955761D01*
X138834714Y-90908142D01*
X138787095Y-90812904D01*
X138739476Y-90622428D01*
X138739476Y-90384333D01*
X138787095Y-90193857D01*
X138834714Y-90098619D01*
X138882333Y-90051000D01*
X138977571Y-90003380D01*
X139930380Y-92526380D02*
X139358952Y-92526380D01*
X139644666Y-92526380D02*
X139644666Y-91526380D01*
X139549428Y-91669238D01*
X139454190Y-91764476D01*
X139358952Y-91812095D01*
X140549428Y-91526380D02*
X140644666Y-91526380D01*
X140739904Y-91574000D01*
X140787523Y-91621619D01*
X140835142Y-91716857D01*
X140882761Y-91907333D01*
X140882761Y-92145428D01*
X140835142Y-92335904D01*
X140787523Y-92431142D01*
X140739904Y-92478761D01*
X140644666Y-92526380D01*
X140549428Y-92526380D01*
X140454190Y-92478761D01*
X140406571Y-92431142D01*
X140358952Y-92335904D01*
X140311333Y-92145428D01*
X140311333Y-91907333D01*
X140358952Y-91716857D01*
X140406571Y-91621619D01*
X140454190Y-91574000D01*
X140549428Y-91526380D01*
X141501809Y-91526380D02*
X141597047Y-91526380D01*
X141692285Y-91574000D01*
X141739904Y-91621619D01*
X141787523Y-91716857D01*
X141835142Y-91907333D01*
X141835142Y-92145428D01*
X141787523Y-92335904D01*
X141739904Y-92431142D01*
X141692285Y-92478761D01*
X141597047Y-92526380D01*
X141501809Y-92526380D01*
X141406571Y-92478761D01*
X141358952Y-92431142D01*
X141311333Y-92335904D01*
X141263714Y-92145428D01*
X141263714Y-91907333D01*
X141311333Y-91716857D01*
X141358952Y-91621619D01*
X141406571Y-91574000D01*
X141501809Y-91526380D01*
X142263714Y-91859714D02*
X142263714Y-92526380D01*
X142263714Y-91954952D02*
X142311333Y-91907333D01*
X142406571Y-91859714D01*
X142549428Y-91859714D01*
X142644666Y-91907333D01*
X142692285Y-92002571D01*
X142692285Y-92526380D01*
X143501809Y-92002571D02*
X143168476Y-92002571D01*
X143168476Y-92526380D02*
X143168476Y-91526380D01*
X143644666Y-91526380D01*
X147193095Y-119086380D02*
X147193095Y-119895904D01*
X147240714Y-119991142D01*
X147288333Y-120038761D01*
X147383571Y-120086380D01*
X147574047Y-120086380D01*
X147669285Y-120038761D01*
X147716904Y-119991142D01*
X147764523Y-119895904D01*
X147764523Y-119086380D01*
X148145476Y-119086380D02*
X148764523Y-119086380D01*
X148431190Y-119467333D01*
X148574047Y-119467333D01*
X148669285Y-119514952D01*
X148716904Y-119562571D01*
X148764523Y-119657809D01*
X148764523Y-119895904D01*
X148716904Y-119991142D01*
X148669285Y-120038761D01*
X148574047Y-120086380D01*
X148288333Y-120086380D01*
X148193095Y-120038761D01*
X148145476Y-119991142D01*
X147273000Y-121134166D02*
X147749190Y-121134166D01*
X147177761Y-121419880D02*
X147511095Y-120419880D01*
X147844428Y-121419880D01*
X148177761Y-121419880D02*
X148177761Y-120419880D01*
X148511095Y-121134166D01*
X148844428Y-120419880D01*
X148844428Y-121419880D01*
X149273000Y-121372261D02*
X149415857Y-121419880D01*
X149653952Y-121419880D01*
X149749190Y-121372261D01*
X149796809Y-121324642D01*
X149844428Y-121229404D01*
X149844428Y-121134166D01*
X149796809Y-121038928D01*
X149749190Y-120991309D01*
X149653952Y-120943690D01*
X149463476Y-120896071D01*
X149368238Y-120848452D01*
X149320619Y-120800833D01*
X149273000Y-120705595D01*
X149273000Y-120610357D01*
X149320619Y-120515119D01*
X149368238Y-120467500D01*
X149463476Y-120419880D01*
X149701571Y-120419880D01*
X149844428Y-120467500D01*
X150796809Y-121419880D02*
X150225380Y-121419880D01*
X150511095Y-121419880D02*
X150511095Y-120419880D01*
X150415857Y-120562738D01*
X150320619Y-120657976D01*
X150225380Y-120705595D01*
X151749190Y-121419880D02*
X151177761Y-121419880D01*
X151463476Y-121419880D02*
X151463476Y-120419880D01*
X151368238Y-120562738D01*
X151273000Y-120657976D01*
X151177761Y-120705595D01*
X152701571Y-121419880D02*
X152130142Y-121419880D01*
X152415857Y-121419880D02*
X152415857Y-120419880D01*
X152320619Y-120562738D01*
X152225380Y-120657976D01*
X152130142Y-120705595D01*
X153034904Y-120419880D02*
X153701571Y-120419880D01*
X153273000Y-121419880D01*
X154082523Y-121038928D02*
X154844428Y-121038928D01*
X155225380Y-120419880D02*
X155844428Y-120419880D01*
X155511095Y-120800833D01*
X155653952Y-120800833D01*
X155749190Y-120848452D01*
X155796809Y-120896071D01*
X155844428Y-120991309D01*
X155844428Y-121229404D01*
X155796809Y-121324642D01*
X155749190Y-121372261D01*
X155653952Y-121419880D01*
X155368238Y-121419880D01*
X155273000Y-121372261D01*
X155225380Y-121324642D01*
X156273000Y-121324642D02*
X156320619Y-121372261D01*
X156273000Y-121419880D01*
X156225380Y-121372261D01*
X156273000Y-121324642D01*
X156273000Y-121419880D01*
X156653952Y-120419880D02*
X157273000Y-120419880D01*
X156939666Y-120800833D01*
X157082523Y-120800833D01*
X157177761Y-120848452D01*
X157225380Y-120896071D01*
X157273000Y-120991309D01*
X157273000Y-121229404D01*
X157225380Y-121324642D01*
X157177761Y-121372261D01*
X157082523Y-121419880D01*
X156796809Y-121419880D01*
X156701571Y-121372261D01*
X156653952Y-121324642D01*
X160653433Y-107151442D02*
X160605814Y-107199061D01*
X160462957Y-107246680D01*
X160367719Y-107246680D01*
X160224861Y-107199061D01*
X160129623Y-107103823D01*
X160082004Y-107008585D01*
X160034385Y-106818109D01*
X160034385Y-106675252D01*
X160082004Y-106484776D01*
X160129623Y-106389538D01*
X160224861Y-106294300D01*
X160367719Y-106246680D01*
X160462957Y-106246680D01*
X160605814Y-106294300D01*
X160653433Y-106341919D01*
X161129623Y-107246680D02*
X161320100Y-107246680D01*
X161415338Y-107199061D01*
X161462957Y-107151442D01*
X161558195Y-107008585D01*
X161605814Y-106818109D01*
X161605814Y-106437157D01*
X161558195Y-106341919D01*
X161510576Y-106294300D01*
X161415338Y-106246680D01*
X161224861Y-106246680D01*
X161129623Y-106294300D01*
X161082004Y-106341919D01*
X161034385Y-106437157D01*
X161034385Y-106675252D01*
X161082004Y-106770490D01*
X161129623Y-106818109D01*
X161224861Y-106865728D01*
X161415338Y-106865728D01*
X161510576Y-106818109D01*
X161558195Y-106770490D01*
X161605814Y-106675252D01*
X159107380Y-108910380D02*
X158535952Y-108910380D01*
X158821666Y-108910380D02*
X158821666Y-107910380D01*
X158726428Y-108053238D01*
X158631190Y-108148476D01*
X158535952Y-108196095D01*
X159726428Y-107910380D02*
X159821666Y-107910380D01*
X159916904Y-107958000D01*
X159964523Y-108005619D01*
X160012142Y-108100857D01*
X160059761Y-108291333D01*
X160059761Y-108529428D01*
X160012142Y-108719904D01*
X159964523Y-108815142D01*
X159916904Y-108862761D01*
X159821666Y-108910380D01*
X159726428Y-108910380D01*
X159631190Y-108862761D01*
X159583571Y-108815142D01*
X159535952Y-108719904D01*
X159488333Y-108529428D01*
X159488333Y-108291333D01*
X159535952Y-108100857D01*
X159583571Y-108005619D01*
X159631190Y-107958000D01*
X159726428Y-107910380D01*
X160678809Y-107910380D02*
X160774047Y-107910380D01*
X160869285Y-107958000D01*
X160916904Y-108005619D01*
X160964523Y-108100857D01*
X161012142Y-108291333D01*
X161012142Y-108529428D01*
X160964523Y-108719904D01*
X160916904Y-108815142D01*
X160869285Y-108862761D01*
X160774047Y-108910380D01*
X160678809Y-108910380D01*
X160583571Y-108862761D01*
X160535952Y-108815142D01*
X160488333Y-108719904D01*
X160440714Y-108529428D01*
X160440714Y-108291333D01*
X160488333Y-108100857D01*
X160535952Y-108005619D01*
X160583571Y-107958000D01*
X160678809Y-107910380D01*
X161440714Y-108243714D02*
X161440714Y-108910380D01*
X161440714Y-108338952D02*
X161488333Y-108291333D01*
X161583571Y-108243714D01*
X161726428Y-108243714D01*
X161821666Y-108291333D01*
X161869285Y-108386571D01*
X161869285Y-108910380D01*
X162678809Y-108386571D02*
X162345476Y-108386571D01*
X162345476Y-108910380D02*
X162345476Y-107910380D01*
X162821666Y-107910380D01*
X141175333Y-107291142D02*
X141127714Y-107338761D01*
X140984857Y-107386380D01*
X140889619Y-107386380D01*
X140746761Y-107338761D01*
X140651523Y-107243523D01*
X140603904Y-107148285D01*
X140556285Y-106957809D01*
X140556285Y-106814952D01*
X140603904Y-106624476D01*
X140651523Y-106529238D01*
X140746761Y-106434000D01*
X140889619Y-106386380D01*
X140984857Y-106386380D01*
X141127714Y-106434000D01*
X141175333Y-106481619D01*
X141746761Y-106814952D02*
X141651523Y-106767333D01*
X141603904Y-106719714D01*
X141556285Y-106624476D01*
X141556285Y-106576857D01*
X141603904Y-106481619D01*
X141651523Y-106434000D01*
X141746761Y-106386380D01*
X141937238Y-106386380D01*
X142032476Y-106434000D01*
X142080095Y-106481619D01*
X142127714Y-106576857D01*
X142127714Y-106624476D01*
X142080095Y-106719714D01*
X142032476Y-106767333D01*
X141937238Y-106814952D01*
X141746761Y-106814952D01*
X141651523Y-106862571D01*
X141603904Y-106910190D01*
X141556285Y-107005428D01*
X141556285Y-107195904D01*
X141603904Y-107291142D01*
X141651523Y-107338761D01*
X141746761Y-107386380D01*
X141937238Y-107386380D01*
X142032476Y-107338761D01*
X142080095Y-107291142D01*
X142127714Y-107195904D01*
X142127714Y-107005428D01*
X142080095Y-106910190D01*
X142032476Y-106862571D01*
X141937238Y-106814952D01*
X142715380Y-108909380D02*
X142143952Y-108909380D01*
X142429666Y-108909380D02*
X142429666Y-107909380D01*
X142334428Y-108052238D01*
X142239190Y-108147476D01*
X142143952Y-108195095D01*
X143334428Y-107909380D02*
X143429666Y-107909380D01*
X143524904Y-107957000D01*
X143572523Y-108004619D01*
X143620142Y-108099857D01*
X143667761Y-108290333D01*
X143667761Y-108528428D01*
X143620142Y-108718904D01*
X143572523Y-108814142D01*
X143524904Y-108861761D01*
X143429666Y-108909380D01*
X143334428Y-108909380D01*
X143239190Y-108861761D01*
X143191571Y-108814142D01*
X143143952Y-108718904D01*
X143096333Y-108528428D01*
X143096333Y-108290333D01*
X143143952Y-108099857D01*
X143191571Y-108004619D01*
X143239190Y-107957000D01*
X143334428Y-107909380D01*
X144286809Y-107909380D02*
X144382047Y-107909380D01*
X144477285Y-107957000D01*
X144524904Y-108004619D01*
X144572523Y-108099857D01*
X144620142Y-108290333D01*
X144620142Y-108528428D01*
X144572523Y-108718904D01*
X144524904Y-108814142D01*
X144477285Y-108861761D01*
X144382047Y-108909380D01*
X144286809Y-108909380D01*
X144191571Y-108861761D01*
X144143952Y-108814142D01*
X144096333Y-108718904D01*
X144048714Y-108528428D01*
X144048714Y-108290333D01*
X144096333Y-108099857D01*
X144143952Y-108004619D01*
X144191571Y-107957000D01*
X144286809Y-107909380D01*
X145048714Y-108242714D02*
X145048714Y-108909380D01*
X145048714Y-108337952D02*
X145096333Y-108290333D01*
X145191571Y-108242714D01*
X145334428Y-108242714D01*
X145429666Y-108290333D01*
X145477285Y-108385571D01*
X145477285Y-108909380D01*
X146286809Y-108385571D02*
X145953476Y-108385571D01*
X145953476Y-108909380D02*
X145953476Y-107909380D01*
X146429666Y-107909380D01*
X147915333Y-108561142D02*
X147867714Y-108608761D01*
X147724857Y-108656380D01*
X147629619Y-108656380D01*
X147486761Y-108608761D01*
X147391523Y-108513523D01*
X147343904Y-108418285D01*
X147296285Y-108227809D01*
X147296285Y-108084952D01*
X147343904Y-107894476D01*
X147391523Y-107799238D01*
X147486761Y-107704000D01*
X147629619Y-107656380D01*
X147724857Y-107656380D01*
X147867714Y-107704000D01*
X147915333Y-107751619D01*
X148820095Y-107656380D02*
X148343904Y-107656380D01*
X148296285Y-108132571D01*
X148343904Y-108084952D01*
X148439142Y-108037333D01*
X148677238Y-108037333D01*
X148772476Y-108084952D01*
X148820095Y-108132571D01*
X148867714Y-108227809D01*
X148867714Y-108465904D01*
X148820095Y-108561142D01*
X148772476Y-108608761D01*
X148677238Y-108656380D01*
X148439142Y-108656380D01*
X148343904Y-108608761D01*
X148296285Y-108561142D01*
X153963880Y-109862880D02*
X153392452Y-109862880D01*
X153678166Y-109862880D02*
X153678166Y-108862880D01*
X153582928Y-109005738D01*
X153487690Y-109100976D01*
X153392452Y-109148595D01*
X154582928Y-108862880D02*
X154678166Y-108862880D01*
X154773404Y-108910500D01*
X154821023Y-108958119D01*
X154868642Y-109053357D01*
X154916261Y-109243833D01*
X154916261Y-109481928D01*
X154868642Y-109672404D01*
X154821023Y-109767642D01*
X154773404Y-109815261D01*
X154678166Y-109862880D01*
X154582928Y-109862880D01*
X154487690Y-109815261D01*
X154440071Y-109767642D01*
X154392452Y-109672404D01*
X154344833Y-109481928D01*
X154344833Y-109243833D01*
X154392452Y-109053357D01*
X154440071Y-108958119D01*
X154487690Y-108910500D01*
X154582928Y-108862880D01*
X155535309Y-108862880D02*
X155630547Y-108862880D01*
X155725785Y-108910500D01*
X155773404Y-108958119D01*
X155821023Y-109053357D01*
X155868642Y-109243833D01*
X155868642Y-109481928D01*
X155821023Y-109672404D01*
X155773404Y-109767642D01*
X155725785Y-109815261D01*
X155630547Y-109862880D01*
X155535309Y-109862880D01*
X155440071Y-109815261D01*
X155392452Y-109767642D01*
X155344833Y-109672404D01*
X155297214Y-109481928D01*
X155297214Y-109243833D01*
X155344833Y-109053357D01*
X155392452Y-108958119D01*
X155440071Y-108910500D01*
X155535309Y-108862880D01*
X156297214Y-109196214D02*
X156297214Y-109862880D01*
X156297214Y-109291452D02*
X156344833Y-109243833D01*
X156440071Y-109196214D01*
X156582928Y-109196214D01*
X156678166Y-109243833D01*
X156725785Y-109339071D01*
X156725785Y-109862880D01*
X157535309Y-109339071D02*
X157201976Y-109339071D01*
X157201976Y-109862880D02*
X157201976Y-108862880D01*
X157678166Y-108862880D01*
X141184333Y-105005142D02*
X141136714Y-105052761D01*
X140993857Y-105100380D01*
X140898619Y-105100380D01*
X140755761Y-105052761D01*
X140660523Y-104957523D01*
X140612904Y-104862285D01*
X140565285Y-104671809D01*
X140565285Y-104528952D01*
X140612904Y-104338476D01*
X140660523Y-104243238D01*
X140755761Y-104148000D01*
X140898619Y-104100380D01*
X140993857Y-104100380D01*
X141136714Y-104148000D01*
X141184333Y-104195619D01*
X141517666Y-104100380D02*
X142184333Y-104100380D01*
X141755761Y-105100380D01*
X142851380Y-103322380D02*
X142279952Y-103322380D01*
X142565666Y-103322380D02*
X142565666Y-102322380D01*
X142470428Y-102465238D01*
X142375190Y-102560476D01*
X142279952Y-102608095D01*
X143470428Y-102322380D02*
X143565666Y-102322380D01*
X143660904Y-102370000D01*
X143708523Y-102417619D01*
X143756142Y-102512857D01*
X143803761Y-102703333D01*
X143803761Y-102941428D01*
X143756142Y-103131904D01*
X143708523Y-103227142D01*
X143660904Y-103274761D01*
X143565666Y-103322380D01*
X143470428Y-103322380D01*
X143375190Y-103274761D01*
X143327571Y-103227142D01*
X143279952Y-103131904D01*
X143232333Y-102941428D01*
X143232333Y-102703333D01*
X143279952Y-102512857D01*
X143327571Y-102417619D01*
X143375190Y-102370000D01*
X143470428Y-102322380D01*
X144422809Y-102322380D02*
X144518047Y-102322380D01*
X144613285Y-102370000D01*
X144660904Y-102417619D01*
X144708523Y-102512857D01*
X144756142Y-102703333D01*
X144756142Y-102941428D01*
X144708523Y-103131904D01*
X144660904Y-103227142D01*
X144613285Y-103274761D01*
X144518047Y-103322380D01*
X144422809Y-103322380D01*
X144327571Y-103274761D01*
X144279952Y-103227142D01*
X144232333Y-103131904D01*
X144184714Y-102941428D01*
X144184714Y-102703333D01*
X144232333Y-102512857D01*
X144279952Y-102417619D01*
X144327571Y-102370000D01*
X144422809Y-102322380D01*
X145184714Y-102655714D02*
X145184714Y-103322380D01*
X145184714Y-102750952D02*
X145232333Y-102703333D01*
X145327571Y-102655714D01*
X145470428Y-102655714D01*
X145565666Y-102703333D01*
X145613285Y-102798571D01*
X145613285Y-103322380D01*
X146422809Y-102798571D02*
X146089476Y-102798571D01*
X146089476Y-103322380D02*
X146089476Y-102322380D01*
X146565666Y-102322380D01*
X143343333Y-114149142D02*
X143295714Y-114196761D01*
X143152857Y-114244380D01*
X143057619Y-114244380D01*
X142914761Y-114196761D01*
X142819523Y-114101523D01*
X142771904Y-114006285D01*
X142724285Y-113815809D01*
X142724285Y-113672952D01*
X142771904Y-113482476D01*
X142819523Y-113387238D01*
X142914761Y-113292000D01*
X143057619Y-113244380D01*
X143152857Y-113244380D01*
X143295714Y-113292000D01*
X143343333Y-113339619D01*
X144200476Y-113577714D02*
X144200476Y-114244380D01*
X143962380Y-113196761D02*
X143724285Y-113911047D01*
X144343333Y-113911047D01*
X142343380Y-119324380D02*
X141771952Y-119324380D01*
X142057666Y-119324380D02*
X142057666Y-118324380D01*
X141962428Y-118467238D01*
X141867190Y-118562476D01*
X141771952Y-118610095D01*
X142962428Y-118324380D02*
X143057666Y-118324380D01*
X143152904Y-118372000D01*
X143200523Y-118419619D01*
X143248142Y-118514857D01*
X143295761Y-118705333D01*
X143295761Y-118943428D01*
X143248142Y-119133904D01*
X143200523Y-119229142D01*
X143152904Y-119276761D01*
X143057666Y-119324380D01*
X142962428Y-119324380D01*
X142867190Y-119276761D01*
X142819571Y-119229142D01*
X142771952Y-119133904D01*
X142724333Y-118943428D01*
X142724333Y-118705333D01*
X142771952Y-118514857D01*
X142819571Y-118419619D01*
X142867190Y-118372000D01*
X142962428Y-118324380D01*
X143914809Y-118324380D02*
X144010047Y-118324380D01*
X144105285Y-118372000D01*
X144152904Y-118419619D01*
X144200523Y-118514857D01*
X144248142Y-118705333D01*
X144248142Y-118943428D01*
X144200523Y-119133904D01*
X144152904Y-119229142D01*
X144105285Y-119276761D01*
X144010047Y-119324380D01*
X143914809Y-119324380D01*
X143819571Y-119276761D01*
X143771952Y-119229142D01*
X143724333Y-119133904D01*
X143676714Y-118943428D01*
X143676714Y-118705333D01*
X143724333Y-118514857D01*
X143771952Y-118419619D01*
X143819571Y-118372000D01*
X143914809Y-118324380D01*
X144676714Y-118657714D02*
X144676714Y-119324380D01*
X144676714Y-118752952D02*
X144724333Y-118705333D01*
X144819571Y-118657714D01*
X144962428Y-118657714D01*
X145057666Y-118705333D01*
X145105285Y-118800571D01*
X145105285Y-119324380D01*
X145914809Y-118800571D02*
X145581476Y-118800571D01*
X145581476Y-119324380D02*
X145581476Y-118324380D01*
X146057666Y-118324380D01*
X138644333Y-114149142D02*
X138596714Y-114196761D01*
X138453857Y-114244380D01*
X138358619Y-114244380D01*
X138215761Y-114196761D01*
X138120523Y-114101523D01*
X138072904Y-114006285D01*
X138025285Y-113815809D01*
X138025285Y-113672952D01*
X138072904Y-113482476D01*
X138120523Y-113387238D01*
X138215761Y-113292000D01*
X138358619Y-113244380D01*
X138453857Y-113244380D01*
X138596714Y-113292000D01*
X138644333Y-113339619D01*
X138977666Y-113244380D02*
X139596714Y-113244380D01*
X139263380Y-113625333D01*
X139406238Y-113625333D01*
X139501476Y-113672952D01*
X139549095Y-113720571D01*
X139596714Y-113815809D01*
X139596714Y-114053904D01*
X139549095Y-114149142D01*
X139501476Y-114196761D01*
X139406238Y-114244380D01*
X139120523Y-114244380D01*
X139025285Y-114196761D01*
X138977666Y-114149142D01*
X137795142Y-119324380D02*
X137223714Y-119324380D01*
X137509428Y-119324380D02*
X137509428Y-118324380D01*
X137414190Y-118467238D01*
X137318952Y-118562476D01*
X137223714Y-118610095D01*
X138414190Y-118324380D02*
X138509428Y-118324380D01*
X138604666Y-118372000D01*
X138652285Y-118419619D01*
X138699904Y-118514857D01*
X138747523Y-118705333D01*
X138747523Y-118943428D01*
X138699904Y-119133904D01*
X138652285Y-119229142D01*
X138604666Y-119276761D01*
X138509428Y-119324380D01*
X138414190Y-119324380D01*
X138318952Y-119276761D01*
X138271333Y-119229142D01*
X138223714Y-119133904D01*
X138176095Y-118943428D01*
X138176095Y-118705333D01*
X138223714Y-118514857D01*
X138271333Y-118419619D01*
X138318952Y-118372000D01*
X138414190Y-118324380D01*
X139176095Y-118657714D02*
X139176095Y-119657714D01*
X139652285Y-119181523D02*
X139699904Y-119276761D01*
X139795142Y-119324380D01*
X139176095Y-119181523D02*
X139223714Y-119276761D01*
X139318952Y-119324380D01*
X139509428Y-119324380D01*
X139604666Y-119276761D01*
X139652285Y-119181523D01*
X139652285Y-118657714D01*
X140557047Y-118800571D02*
X140223714Y-118800571D01*
X140223714Y-119324380D02*
X140223714Y-118324380D01*
X140699904Y-118324380D01*
X162774333Y-114149142D02*
X162726714Y-114196761D01*
X162583857Y-114244380D01*
X162488619Y-114244380D01*
X162345761Y-114196761D01*
X162250523Y-114101523D01*
X162202904Y-114006285D01*
X162155285Y-113815809D01*
X162155285Y-113672952D01*
X162202904Y-113482476D01*
X162250523Y-113387238D01*
X162345761Y-113292000D01*
X162488619Y-113244380D01*
X162583857Y-113244380D01*
X162726714Y-113292000D01*
X162774333Y-113339619D01*
X163155285Y-113339619D02*
X163202904Y-113292000D01*
X163298142Y-113244380D01*
X163536238Y-113244380D01*
X163631476Y-113292000D01*
X163679095Y-113339619D01*
X163726714Y-113434857D01*
X163726714Y-113530095D01*
X163679095Y-113672952D01*
X163107666Y-114244380D01*
X163726714Y-114244380D01*
X161647380Y-119324380D02*
X161075952Y-119324380D01*
X161361666Y-119324380D02*
X161361666Y-118324380D01*
X161266428Y-118467238D01*
X161171190Y-118562476D01*
X161075952Y-118610095D01*
X162266428Y-118324380D02*
X162361666Y-118324380D01*
X162456904Y-118372000D01*
X162504523Y-118419619D01*
X162552142Y-118514857D01*
X162599761Y-118705333D01*
X162599761Y-118943428D01*
X162552142Y-119133904D01*
X162504523Y-119229142D01*
X162456904Y-119276761D01*
X162361666Y-119324380D01*
X162266428Y-119324380D01*
X162171190Y-119276761D01*
X162123571Y-119229142D01*
X162075952Y-119133904D01*
X162028333Y-118943428D01*
X162028333Y-118705333D01*
X162075952Y-118514857D01*
X162123571Y-118419619D01*
X162171190Y-118372000D01*
X162266428Y-118324380D01*
X163218809Y-118324380D02*
X163314047Y-118324380D01*
X163409285Y-118372000D01*
X163456904Y-118419619D01*
X163504523Y-118514857D01*
X163552142Y-118705333D01*
X163552142Y-118943428D01*
X163504523Y-119133904D01*
X163456904Y-119229142D01*
X163409285Y-119276761D01*
X163314047Y-119324380D01*
X163218809Y-119324380D01*
X163123571Y-119276761D01*
X163075952Y-119229142D01*
X163028333Y-119133904D01*
X162980714Y-118943428D01*
X162980714Y-118705333D01*
X163028333Y-118514857D01*
X163075952Y-118419619D01*
X163123571Y-118372000D01*
X163218809Y-118324380D01*
X163980714Y-118657714D02*
X163980714Y-119324380D01*
X163980714Y-118752952D02*
X164028333Y-118705333D01*
X164123571Y-118657714D01*
X164266428Y-118657714D01*
X164361666Y-118705333D01*
X164409285Y-118800571D01*
X164409285Y-119324380D01*
X165218809Y-118800571D02*
X164885476Y-118800571D01*
X164885476Y-119324380D02*
X164885476Y-118324380D01*
X165361666Y-118324380D01*
X157821333Y-114149142D02*
X157773714Y-114196761D01*
X157630857Y-114244380D01*
X157535619Y-114244380D01*
X157392761Y-114196761D01*
X157297523Y-114101523D01*
X157249904Y-114006285D01*
X157202285Y-113815809D01*
X157202285Y-113672952D01*
X157249904Y-113482476D01*
X157297523Y-113387238D01*
X157392761Y-113292000D01*
X157535619Y-113244380D01*
X157630857Y-113244380D01*
X157773714Y-113292000D01*
X157821333Y-113339619D01*
X158773714Y-114244380D02*
X158202285Y-114244380D01*
X158488000Y-114244380D02*
X158488000Y-113244380D01*
X158392761Y-113387238D01*
X158297523Y-113482476D01*
X158202285Y-113530095D01*
X156972142Y-119324380D02*
X156400714Y-119324380D01*
X156686428Y-119324380D02*
X156686428Y-118324380D01*
X156591190Y-118467238D01*
X156495952Y-118562476D01*
X156400714Y-118610095D01*
X157591190Y-118324380D02*
X157686428Y-118324380D01*
X157781666Y-118372000D01*
X157829285Y-118419619D01*
X157876904Y-118514857D01*
X157924523Y-118705333D01*
X157924523Y-118943428D01*
X157876904Y-119133904D01*
X157829285Y-119229142D01*
X157781666Y-119276761D01*
X157686428Y-119324380D01*
X157591190Y-119324380D01*
X157495952Y-119276761D01*
X157448333Y-119229142D01*
X157400714Y-119133904D01*
X157353095Y-118943428D01*
X157353095Y-118705333D01*
X157400714Y-118514857D01*
X157448333Y-118419619D01*
X157495952Y-118372000D01*
X157591190Y-118324380D01*
X158353095Y-118657714D02*
X158353095Y-119657714D01*
X158829285Y-119181523D02*
X158876904Y-119276761D01*
X158972142Y-119324380D01*
X158353095Y-119181523D02*
X158400714Y-119276761D01*
X158495952Y-119324380D01*
X158686428Y-119324380D01*
X158781666Y-119276761D01*
X158829285Y-119181523D01*
X158829285Y-118657714D01*
X159734047Y-118800571D02*
X159400714Y-118800571D01*
X159400714Y-119324380D02*
X159400714Y-118324380D01*
X159876904Y-118324380D01*
M02*
